<?xml version="1.0" encoding="UTF-8" standalone="no"?>
<!DOCTYPE svg PUBLIC "-//W3C//DTD SVG 1.1//EN"
 "http://www.w3.org/Graphics/SVG/1.1/DTD/svg11.dtd">
<!-- Generated by graphviz version 2.44.1 (20220725.2034)
 -->
<!-- Title: include/plang/base.hpp Pages: 1 -->
<svg width="508pt" height="274pt"
 viewBox="0.00 0.00 507.52 274.00" xmlns="http://www.w3.org/2000/svg" xmlns:xlink="http://www.w3.org/1999/xlink">
<g id="graph0" class="graph" transform="scale(1 1) rotate(0) translate(4 270)">
<title>include/plang/base.hpp</title>
<!-- Node1 -->
<g id="node1" class="node">
<title>Node1</title>
<g id="a_node1"><a xlink:title=" ">
<polygon fill="#bfbfbf" stroke="black" points="181.9,-246.5 181.9,-265.5 297.9,-265.5 297.9,-246.5 181.9,-246.5"/>
<text text-anchor="middle" x="239.9" y="-253.5" font-family="Helvetica,sans-Serif" font-size="10.00">include/plang/base.hpp</text>
</a>
</g>
</g>
<!-- Node2 -->
<g id="node2" class="node">
<title>Node2</title>
<g id="a_node2"><a xlink:href="corpus_8hpp.html" target="_top" xlink:title=" ">
<polygon fill="none" stroke="black" points="91.4,-56.5 91.4,-75.5 216.4,-75.5 216.4,-56.5 91.4,-56.5"/>
<text text-anchor="middle" x="153.9" y="-63.5" font-family="Helvetica,sans-Serif" font-size="10.00">include/plang/corpus.hpp</text>
</a>
</g>
</g>
<!-- Node1&#45;&gt;Node2 -->
<g id="edge1" class="edge">
<title>Node1&#45;&gt;Node2</title>
<path fill="none" stroke="midnightblue" d="M171.53,-250.94C111.59,-245.77 30.97,-234.4 10.9,-210 -34.5,-154.82 82.64,-97.01 132.59,-75.61"/>
<polygon fill="midnightblue" stroke="midnightblue" points="171.46,-254.44 181.71,-251.77 172.03,-247.46 171.46,-254.44"/>
</g>
<!-- Node4 -->
<g id="node4" class="node">
<title>Node4</title>
<g id="a_node4"><a xlink:href="detail_8hpp.html" target="_top" xlink:title=" ">
<polygon fill="none" stroke="black" points="19.9,-179.5 19.9,-209.5 125.9,-209.5 125.9,-179.5 19.9,-179.5"/>
<text text-anchor="start" x="27.9" y="-197.5" font-family="Helvetica,sans-Serif" font-size="10.00">include/plang/corpus</text>
<text text-anchor="middle" x="72.9" y="-186.5" font-family="Helvetica,sans-Serif" font-size="10.00">/detail.hpp</text>
</a>
</g>
</g>
<!-- Node1&#45;&gt;Node4 -->
<g id="edge3" class="edge">
<title>Node1&#45;&gt;Node4</title>
<path fill="none" stroke="midnightblue" d="M206.5,-243.1C179.33,-233.42 140.92,-219.74 112.25,-209.52"/>
<polygon fill="midnightblue" stroke="midnightblue" points="205.37,-246.42 215.97,-246.48 207.72,-239.82 205.37,-246.42"/>
</g>
<!-- Node5 -->
<g id="node5" class="node">
<title>Node5</title>
<g id="a_node5"><a xlink:href="path_8hpp.html" target="_top" xlink:title=" ">
<polygon fill="none" stroke="black" points="100.9,-112.5 100.9,-142.5 206.9,-142.5 206.9,-112.5 100.9,-112.5"/>
<text text-anchor="start" x="108.9" y="-130.5" font-family="Helvetica,sans-Serif" font-size="10.00">include/plang/corpus</text>
<text text-anchor="middle" x="153.9" y="-119.5" font-family="Helvetica,sans-Serif" font-size="10.00">/path.hpp</text>
</a>
</g>
</g>
<!-- Node1&#45;&gt;Node5 -->
<g id="edge7" class="edge">
<title>Node1&#45;&gt;Node5</title>
<path fill="none" stroke="midnightblue" d="M211.38,-241.71C198.13,-234.17 183.27,-223.52 173.9,-210 159.69,-189.53 155.54,-160.04 154.35,-142.72"/>
<polygon fill="midnightblue" stroke="midnightblue" points="209.73,-244.8 220.2,-246.43 213.04,-238.63 209.73,-244.8"/>
</g>
<!-- Node6 -->
<g id="node6" class="node">
<title>Node6</title>
<g id="a_node6"><a xlink:href="plang_2error_8hpp.html" target="_top" xlink:title=" ">
<polygon fill="none" stroke="black" points="182.4,-185 182.4,-204 297.4,-204 297.4,-185 182.4,-185"/>
<text text-anchor="middle" x="239.9" y="-192" font-family="Helvetica,sans-Serif" font-size="10.00">include/plang/error.hpp</text>
</a>
</g>
</g>
<!-- Node1&#45;&gt;Node6 -->
<g id="edge8" class="edge">
<title>Node1&#45;&gt;Node6</title>
<path fill="none" stroke="midnightblue" d="M239.9,-236.32C239.9,-225.5 239.9,-212.4 239.9,-204.01"/>
<polygon fill="midnightblue" stroke="midnightblue" points="236.4,-236.48 239.9,-246.48 243.4,-236.48 236.4,-236.48"/>
</g>
<!-- Node7 -->
<g id="node7" class="node">
<title>Node7</title>
<g id="a_node7"><a xlink:href="plot_8hpp.html" target="_top" xlink:title=" ">
<polygon fill="none" stroke="black" points="248.4,-118 248.4,-137 359.4,-137 359.4,-118 248.4,-118"/>
<text text-anchor="middle" x="303.9" y="-125" font-family="Helvetica,sans-Serif" font-size="10.00">include/plang/plot.hpp</text>
</a>
</g>
</g>
<!-- Node1&#45;&gt;Node7 -->
<g id="edge9" class="edge">
<title>Node1&#45;&gt;Node7</title>
<path fill="none" stroke="midnightblue" d="M271.74,-241.94C285.13,-234.67 299.34,-224.17 306.9,-210 319.55,-186.26 311.77,-152.87 306.91,-137.22"/>
<polygon fill="midnightblue" stroke="midnightblue" points="270.06,-238.87 262.68,-246.47 273.19,-245.13 270.06,-238.87"/>
</g>
<!-- Node8 -->
<g id="node8" class="node">
<title>Node8</title>
<g id="a_node8"><a xlink:href="plangcli_2error_8hpp.html" target="_top" xlink:title=" ">
<polygon fill="none" stroke="black" points="354.4,-185 354.4,-204 479.4,-204 479.4,-185 354.4,-185"/>
<text text-anchor="middle" x="416.9" y="-192" font-family="Helvetica,sans-Serif" font-size="10.00">include/plangcli/error.hpp</text>
</a>
</g>
</g>
<!-- Node1&#45;&gt;Node8 -->
<g id="edge11" class="edge">
<title>Node1&#45;&gt;Node8</title>
<path fill="none" stroke="midnightblue" d="M274.9,-243.23C309.31,-231.67 360.98,-214.3 391.58,-204.01"/>
<polygon fill="midnightblue" stroke="midnightblue" points="273.62,-239.97 265.25,-246.48 275.85,-246.61 273.62,-239.97"/>
</g>
<!-- Node9 -->
<g id="node9" class="node">
<title>Node9</title>
<g id="a_node9"><a xlink:href="intl_8hpp.html" target="_top" xlink:title=" ">
<polygon fill="none" stroke="black" points="341.9,-56.5 341.9,-75.5 459.9,-75.5 459.9,-56.5 341.9,-56.5"/>
<text text-anchor="middle" x="400.9" y="-63.5" font-family="Helvetica,sans-Serif" font-size="10.00">include/plangcli/intl.hpp</text>
</a>
</g>
</g>
<!-- Node1&#45;&gt;Node9 -->
<g id="edge12" class="edge">
<title>Node1&#45;&gt;Node9</title>
<path fill="none" stroke="midnightblue" d="M308.37,-252.19C373.98,-247.89 466.27,-237.08 488.9,-210 527.58,-163.69 446.17,-98.78 413.59,-75.62"/>
<polygon fill="midnightblue" stroke="midnightblue" points="307.85,-248.72 298.08,-252.83 308.28,-255.7 307.85,-248.72"/>
</g>
<!-- Node3 -->
<g id="node3" class="node">
<title>Node3</title>
<g id="a_node3"><a xlink:href="cli_8hpp.html" target="_top" xlink:title=" ">
<polygon fill="none" stroke="black" points="166.4,-0.5 166.4,-19.5 281.4,-19.5 281.4,-0.5 166.4,-0.5"/>
<text text-anchor="middle" x="223.9" y="-7.5" font-family="Helvetica,sans-Serif" font-size="10.00">include/plangcli/cli.hpp</text>
</a>
</g>
</g>
<!-- Node2&#45;&gt;Node3 -->
<g id="edge2" class="edge">
<title>Node2&#45;&gt;Node3</title>
<path fill="none" stroke="midnightblue" d="M173.21,-50.1C185.81,-40.38 201.82,-28.03 212.44,-19.83"/>
<polygon fill="midnightblue" stroke="midnightblue" points="170.92,-47.44 165.14,-56.32 175.2,-52.99 170.92,-47.44"/>
</g>
<!-- Node4&#45;&gt;Node2 -->
<g id="edge4" class="edge">
<title>Node4&#45;&gt;Node2</title>
<path fill="none" stroke="midnightblue" d="M74.12,-169C76,-151.82 80.62,-128.98 91.9,-112 102.78,-95.6 121.8,-83.12 135.91,-75.51"/>
<polygon fill="midnightblue" stroke="midnightblue" points="70.6,-169.1 73.24,-179.36 77.58,-169.69 70.6,-169.1"/>
</g>
<!-- Node4&#45;&gt;Node5 -->
<g id="edge5" class="edge">
<title>Node4&#45;&gt;Node5</title>
<path fill="none" stroke="midnightblue" d="M98.59,-172.88C110.9,-163.01 125.32,-151.43 136.35,-142.58"/>
<polygon fill="midnightblue" stroke="midnightblue" points="96.08,-170.41 90.47,-179.4 100.46,-175.87 96.08,-170.41"/>
</g>
<!-- Node5&#45;&gt;Node2 -->
<g id="edge6" class="edge">
<title>Node5&#45;&gt;Node2</title>
<path fill="none" stroke="midnightblue" d="M153.9,-102.29C153.9,-92.86 153.9,-82.65 153.9,-75.66"/>
<polygon fill="midnightblue" stroke="midnightblue" points="150.4,-102.4 153.9,-112.4 157.4,-102.4 150.4,-102.4"/>
</g>
<!-- Node7&#45;&gt;Node2 -->
<g id="edge10" class="edge">
<title>Node7&#45;&gt;Node2</title>
<path fill="none" stroke="midnightblue" d="M273.09,-114.28C243.95,-102.72 200.95,-85.66 175.35,-75.51"/>
<polygon fill="midnightblue" stroke="midnightblue" points="271.82,-117.54 282.4,-117.98 274.4,-111.03 271.82,-117.54"/>
</g>
<!-- Node9&#45;&gt;Node3 -->
<g id="edge13" class="edge">
<title>Node9&#45;&gt;Node3</title>
<path fill="none" stroke="midnightblue" d="M362.99,-53.44C329.62,-43.26 281.79,-28.66 251.81,-19.52"/>
<polygon fill="midnightblue" stroke="midnightblue" points="362.26,-56.87 372.85,-56.44 364.31,-50.18 362.26,-56.87"/>
</g>
</g>
</svg>
