<?xml version="1.0" encoding="UTF-8" standalone="no"?>
<!DOCTYPE svg PUBLIC "-//W3C//DTD SVG 1.1//EN"
 "http://www.w3.org/Graphics/SVG/1.1/DTD/svg11.dtd">
<!-- Generated by graphviz version 2.44.1 (20220725.2034)
 -->
<!-- Title: include/plang/base.hpp Pages: 1 -->
<svg width="757pt" height="542pt"
 viewBox="0.00 0.00 757.00 542.00" xmlns="http://www.w3.org/2000/svg" xmlns:xlink="http://www.w3.org/1999/xlink">
<g id="graph0" class="graph" transform="scale(1 1) rotate(0) translate(4 538)">
<title>include/plang/base.hpp</title>
<!-- Node1 -->
<g id="node1" class="node">
<title>Node1</title>
<g id="a_node1"><a xlink:title=" ">
<polygon fill="#bfbfbf" stroke="black" points="306,-514.5 306,-533.5 422,-533.5 422,-514.5 306,-514.5"/>
<text text-anchor="middle" x="364" y="-521.5" font-family="Helvetica,sans-Serif" font-size="10.00">include/plang/base.hpp</text>
</a>
</g>
</g>
<!-- Node2 -->
<g id="node2" class="node">
<title>Node2</title>
<g id="a_node2"><a xlink:href="corpus_8hpp.html" target="_top" xlink:title=" ">
<polygon fill="none" stroke="black" points="328.5,-56.5 328.5,-75.5 453.5,-75.5 453.5,-56.5 328.5,-56.5"/>
<text text-anchor="middle" x="391" y="-63.5" font-family="Helvetica,sans-Serif" font-size="10.00">include/plang/corpus.hpp</text>
</a>
</g>
</g>
<!-- Node1&#45;&gt;Node2 -->
<g id="edge1" class="edge">
<title>Node1&#45;&gt;Node2</title>
<path fill="none" stroke="midnightblue" d="M432.53,-521.35C467.96,-516.88 509.25,-505.48 536,-478 561.94,-451.35 555,-433.69 555,-396.5 555,-396.5 555,-396.5 555,-193.5 555,-127.16 469.82,-90.74 422.23,-75.57"/>
<polygon fill="midnightblue" stroke="midnightblue" points="431.79,-517.91 422.23,-522.47 432.56,-524.86 431.79,-517.91"/>
</g>
<!-- Node4 -->
<g id="node4" class="node">
<title>Node4</title>
<g id="a_node4"><a xlink:href="detail_8hpp.html" target="_top" xlink:title=" ">
<polygon fill="none" stroke="black" points="173,-447.5 173,-477.5 279,-477.5 279,-447.5 173,-447.5"/>
<text text-anchor="start" x="181" y="-465.5" font-family="Helvetica,sans-Serif" font-size="10.00">include/plang/corpus</text>
<text text-anchor="middle" x="226" y="-454.5" font-family="Helvetica,sans-Serif" font-size="10.00">/detail.hpp</text>
</a>
</g>
</g>
<!-- Node1&#45;&gt;Node4 -->
<g id="edge3" class="edge">
<title>Node1&#45;&gt;Node4</title>
<path fill="none" stroke="midnightblue" d="M334.92,-510.46C312.56,-500.82 281.69,-487.51 258.52,-477.52"/>
<polygon fill="midnightblue" stroke="midnightblue" points="333.66,-513.73 344.23,-514.48 336.43,-507.3 333.66,-513.73"/>
</g>
<!-- Node5 -->
<g id="node5" class="node">
<title>Node5</title>
<g id="a_node5"><a xlink:href="path_8hpp.html" target="_top" xlink:title=" ">
<polygon fill="none" stroke="black" points="92,-380.5 92,-410.5 198,-410.5 198,-380.5 92,-380.5"/>
<text text-anchor="start" x="100" y="-398.5" font-family="Helvetica,sans-Serif" font-size="10.00">include/plang/corpus</text>
<text text-anchor="middle" x="145" y="-387.5" font-family="Helvetica,sans-Serif" font-size="10.00">/path.hpp</text>
</a>
</g>
</g>
<!-- Node1&#45;&gt;Node5 -->
<g id="edge20" class="edge">
<title>Node1&#45;&gt;Node5</title>
<path fill="none" stroke="midnightblue" d="M295.6,-515.41C245.25,-508.43 182.49,-496.35 164,-478 146.06,-460.19 143.73,-428.94 144.08,-410.75"/>
<polygon fill="midnightblue" stroke="midnightblue" points="295.43,-518.92 305.81,-516.78 296.36,-511.98 295.43,-518.92"/>
</g>
<!-- Node6 -->
<g id="node6" class="node">
<title>Node6</title>
<g id="a_node6"><a xlink:href="object_8hpp.html" target="_top" xlink:title=" ">
<polygon fill="none" stroke="black" points="299,-246.5 299,-276.5 405,-276.5 405,-246.5 299,-246.5"/>
<text text-anchor="start" x="307" y="-264.5" font-family="Helvetica,sans-Serif" font-size="10.00">include/plang/corpus</text>
<text text-anchor="middle" x="352" y="-253.5" font-family="Helvetica,sans-Serif" font-size="10.00">/plot/object.hpp</text>
</a>
</g>
</g>
<!-- Node1&#45;&gt;Node6 -->
<g id="edge21" class="edge">
<title>Node1&#45;&gt;Node6</title>
<path fill="none" stroke="midnightblue" d="M363.13,-504.06C360.83,-454.23 354.66,-320.33 352.65,-276.56"/>
<polygon fill="midnightblue" stroke="midnightblue" points="359.64,-504.5 363.6,-514.33 366.64,-504.18 359.64,-504.5"/>
</g>
<!-- Node8 -->
<g id="node8" class="node">
<title>Node8</title>
<g id="a_node8"><a xlink:href="point_8hpp.html" target="_top" xlink:title=" ">
<polygon fill="none" stroke="black" points="137,-179.5 137,-209.5 243,-209.5 243,-179.5 137,-179.5"/>
<text text-anchor="start" x="145" y="-197.5" font-family="Helvetica,sans-Serif" font-size="10.00">include/plang/corpus</text>
<text text-anchor="middle" x="190" y="-186.5" font-family="Helvetica,sans-Serif" font-size="10.00">/plot/point.hpp</text>
</a>
</g>
</g>
<!-- Node1&#45;&gt;Node8 -->
<g id="edge22" class="edge">
<title>Node1&#45;&gt;Node8</title>
<path fill="none" stroke="midnightblue" d="M295.95,-521.3C223.44,-515.15 114.78,-492.15 83,-411 52.23,-332.43 136.64,-243.68 173.62,-209.73"/>
<polygon fill="midnightblue" stroke="midnightblue" points="295.69,-524.79 305.93,-522.06 296.22,-517.81 295.69,-524.79"/>
</g>
<!-- Node9 -->
<g id="node9" class="node">
<title>Node9</title>
<g id="a_node9"><a xlink:href="symbol_8hpp.html" target="_top" xlink:title=" ">
<polygon fill="none" stroke="black" points="218,-313.5 218,-343.5 324,-343.5 324,-313.5 218,-313.5"/>
<text text-anchor="start" x="226" y="-331.5" font-family="Helvetica,sans-Serif" font-size="10.00">include/plang/corpus</text>
<text text-anchor="middle" x="271" y="-320.5" font-family="Helvetica,sans-Serif" font-size="10.00">/plot/symbol.hpp</text>
</a>
</g>
</g>
<!-- Node1&#45;&gt;Node9 -->
<g id="edge23" class="edge">
<title>Node1&#45;&gt;Node9</title>
<path fill="none" stroke="midnightblue" d="M350.34,-506.47C343.95,-498.24 336.54,-487.94 331,-478 304.88,-431.12 284.04,-370.52 275.37,-343.54"/>
<polygon fill="midnightblue" stroke="midnightblue" points="347.76,-508.85 356.74,-514.47 353.23,-504.48 347.76,-508.85"/>
</g>
<!-- Node10 -->
<g id="node10" class="node">
<title>Node10</title>
<g id="a_node10"><a xlink:href="plang_2error_8hpp.html" target="_top" xlink:title=" ">
<polygon fill="none" stroke="black" points="411.5,-453 411.5,-472 526.5,-472 526.5,-453 411.5,-453"/>
<text text-anchor="middle" x="469" y="-460" font-family="Helvetica,sans-Serif" font-size="10.00">include/plang/error.hpp</text>
</a>
</g>
</g>
<!-- Node1&#45;&gt;Node10 -->
<g id="edge24" class="edge">
<title>Node1&#45;&gt;Node10</title>
<path fill="none" stroke="midnightblue" d="M388,-509.4C408.3,-497.9 436.76,-481.77 453.98,-472.01"/>
<polygon fill="midnightblue" stroke="midnightblue" points="386.02,-506.5 379.04,-514.48 389.47,-512.59 386.02,-506.5"/>
</g>
<!-- Node11 -->
<g id="node11" class="node">
<title>Node11</title>
<g id="a_node11"><a xlink:href="plot_8hpp.html" target="_top" xlink:title=" ">
<polygon fill="none" stroke="black" points="413.5,-386 413.5,-405 524.5,-405 524.5,-386 413.5,-386"/>
<text text-anchor="middle" x="469" y="-393" font-family="Helvetica,sans-Serif" font-size="10.00">include/plang/plot.hpp</text>
</a>
</g>
</g>
<!-- Node1&#45;&gt;Node11 -->
<g id="edge25" class="edge">
<title>Node1&#45;&gt;Node11</title>
<path fill="none" stroke="midnightblue" d="M370.64,-504.84C377.19,-488.54 388.34,-464.55 403,-447 417.8,-429.28 439.88,-413.99 454.36,-405"/>
<polygon fill="midnightblue" stroke="midnightblue" points="367.33,-503.7 367.01,-514.29 373.86,-506.21 367.33,-503.7"/>
</g>
<!-- Node12 -->
<g id="node12" class="node">
<title>Node12</title>
<g id="a_node12"><a xlink:href="plangcli_2error_8hpp.html" target="_top" xlink:title=" ">
<polygon fill="none" stroke="black" points="583.5,-453 583.5,-472 708.5,-472 708.5,-453 583.5,-453"/>
<text text-anchor="middle" x="646" y="-460" font-family="Helvetica,sans-Serif" font-size="10.00">include/plangcli/error.hpp</text>
</a>
</g>
</g>
<!-- Node1&#45;&gt;Node12 -->
<g id="edge30" class="edge">
<title>Node1&#45;&gt;Node12</title>
<path fill="none" stroke="midnightblue" d="M414.23,-512.4C468.9,-500.87 555.24,-482.65 605.67,-472.01"/>
<polygon fill="midnightblue" stroke="midnightblue" points="413.47,-508.99 404.4,-514.48 414.91,-515.84 413.47,-508.99"/>
</g>
<!-- Node13 -->
<g id="node13" class="node">
<title>Node13</title>
<g id="a_node13"><a xlink:href="intl_8hpp.html" target="_top" xlink:title=" ">
<polygon fill="none" stroke="black" points="631,-319 631,-338 749,-338 749,-319 631,-319"/>
<text text-anchor="middle" x="690" y="-326" font-family="Helvetica,sans-Serif" font-size="10.00">include/plangcli/intl.hpp</text>
</a>
</g>
</g>
<!-- Node1&#45;&gt;Node13 -->
<g id="edge31" class="edge">
<title>Node1&#45;&gt;Node13</title>
<path fill="none" stroke="midnightblue" d="M432.43,-519.1C530.01,-512.83 699.46,-499.05 718,-478 754.42,-436.66 712.25,-363.22 695.91,-338.16"/>
<polygon fill="midnightblue" stroke="midnightblue" points="432.11,-515.62 422.35,-519.74 432.55,-522.6 432.11,-515.62"/>
</g>
<!-- Node3 -->
<g id="node3" class="node">
<title>Node3</title>
<g id="a_node3"><a xlink:href="cli_8hpp.html" target="_top" xlink:title=" ">
<polygon fill="none" stroke="black" points="378.5,-0.5 378.5,-19.5 493.5,-19.5 493.5,-0.5 378.5,-0.5"/>
<text text-anchor="middle" x="436" y="-7.5" font-family="Helvetica,sans-Serif" font-size="10.00">include/plangcli/cli.hpp</text>
</a>
</g>
</g>
<!-- Node2&#45;&gt;Node3 -->
<g id="edge2" class="edge">
<title>Node2&#45;&gt;Node3</title>
<path fill="none" stroke="midnightblue" d="M405.05,-48.14C412.89,-38.74 422.33,-27.4 428.71,-19.75"/>
<polygon fill="midnightblue" stroke="midnightblue" points="402.14,-46.16 398.43,-56.08 407.52,-50.64 402.14,-46.16"/>
</g>
<!-- Node4&#45;&gt;Node2 -->
<g id="edge4" class="edge">
<title>Node4&#45;&gt;Node2</title>
<path fill="none" stroke="midnightblue" d="M163.04,-449.71C136.1,-442.19 105.68,-430.12 83,-411 25.19,-362.27 0,-338.11 0,-262.5 0,-262.5 0,-262.5 0,-193.5 0,-125.36 217.65,-88.48 328.18,-74.15"/>
<polygon fill="midnightblue" stroke="midnightblue" points="162.23,-453.12 172.79,-452.28 164.02,-446.35 162.23,-453.12"/>
</g>
<!-- Node4&#45;&gt;Node5 -->
<g id="edge5" class="edge">
<title>Node4&#45;&gt;Node5</title>
<path fill="none" stroke="midnightblue" d="M200.31,-440.88C188,-431.01 173.57,-419.43 162.54,-410.58"/>
<polygon fill="midnightblue" stroke="midnightblue" points="198.43,-443.87 208.42,-447.4 202.82,-438.41 198.43,-443.87"/>
</g>
<!-- Node4&#45;&gt;Node6 -->
<g id="edge17" class="edge">
<title>Node4&#45;&gt;Node6</title>
<path fill="none" stroke="midnightblue" d="M251.64,-440.41C276.25,-418.76 312.59,-382.84 333,-344 344.49,-322.14 349.1,-293.37 350.9,-276.51"/>
<polygon fill="midnightblue" stroke="midnightblue" points="249.07,-438 243.79,-447.19 253.65,-443.3 249.07,-438"/>
</g>
<!-- Node4&#45;&gt;Node8 -->
<g id="edge18" class="edge">
<title>Node4&#45;&gt;Node8</title>
<path fill="none" stroke="midnightblue" d="M222.37,-437.2C218.84,-413.45 213.4,-376.26 209,-344 202.3,-294.81 195.02,-236.36 191.76,-209.85"/>
<polygon fill="midnightblue" stroke="midnightblue" points="218.95,-438.03 223.88,-447.4 225.87,-437 218.95,-438.03"/>
</g>
<!-- Node4&#45;&gt;Node9 -->
<g id="edge19" class="edge">
<title>Node4&#45;&gt;Node9</title>
<path fill="none" stroke="midnightblue" d="M234.1,-437.75C243.46,-410.29 258.56,-365.99 266.22,-343.52"/>
<polygon fill="midnightblue" stroke="midnightblue" points="230.73,-436.78 230.82,-447.37 237.36,-439.04 230.73,-436.78"/>
</g>
<!-- Node5&#45;&gt;Node2 -->
<g id="edge6" class="edge">
<title>Node5&#45;&gt;Node2</title>
<path fill="none" stroke="midnightblue" d="M135.06,-370.93C119.14,-329.21 93.05,-240.92 128,-179 167.88,-108.34 264.1,-82.25 328.43,-72.62"/>
<polygon fill="midnightblue" stroke="midnightblue" points="131.91,-372.48 138.85,-380.49 138.42,-369.91 131.91,-372.48"/>
</g>
<!-- Node5&#45;&gt;Node6 -->
<g id="edge7" class="edge">
<title>Node5&#45;&gt;Node6</title>
<path fill="none" stroke="midnightblue" d="M157.97,-371.57C169.31,-353.39 187.34,-328.54 209,-313 235.74,-293.82 270.46,-281.33 298.99,-273.57"/>
<polygon fill="midnightblue" stroke="midnightblue" points="154.82,-370.01 152.66,-380.39 160.82,-373.63 154.82,-370.01"/>
</g>
<!-- Node5&#45;&gt;Node8 -->
<g id="edge12" class="edge">
<title>Node5&#45;&gt;Node8</title>
<path fill="none" stroke="midnightblue" d="M149.56,-370.27C155.22,-340.78 165.43,-289.54 176,-246 179,-233.62 182.91,-219.68 185.83,-209.59"/>
<polygon fill="midnightblue" stroke="midnightblue" points="146.12,-369.62 147.69,-380.1 153,-370.93 146.12,-369.62"/>
</g>
<!-- Node5&#45;&gt;Node9 -->
<g id="edge13" class="edge">
<title>Node5&#45;&gt;Node9</title>
<path fill="none" stroke="midnightblue" d="M181.42,-375.71C201.29,-365.46 225.48,-352.98 243.71,-343.58"/>
<polygon fill="midnightblue" stroke="midnightblue" points="179.62,-372.7 172.34,-380.4 182.83,-378.92 179.62,-372.7"/>
</g>
<!-- Node7 -->
<g id="node7" class="node">
<title>Node7</title>
<g id="a_node7"><a xlink:href="corpus_2plot_8hpp.html" target="_top" xlink:title=" ">
<polygon fill="none" stroke="black" points="248,-112.5 248,-142.5 354,-142.5 354,-112.5 248,-112.5"/>
<text text-anchor="start" x="256" y="-130.5" font-family="Helvetica,sans-Serif" font-size="10.00">include/plang/corpus</text>
<text text-anchor="middle" x="301" y="-119.5" font-family="Helvetica,sans-Serif" font-size="10.00">/plot.hpp</text>
</a>
</g>
</g>
<!-- Node6&#45;&gt;Node7 -->
<g id="edge8" class="edge">
<title>Node6&#45;&gt;Node7</title>
<path fill="none" stroke="midnightblue" d="M342.83,-236.75C332.21,-209.29 315.1,-164.99 306.42,-142.52"/>
<polygon fill="midnightblue" stroke="midnightblue" points="339.67,-238.31 346.54,-246.37 346.2,-235.78 339.67,-238.31"/>
</g>
<!-- Node6&#45;&gt;Node8 -->
<g id="edge10" class="edge">
<title>Node6&#45;&gt;Node8</title>
<path fill="none" stroke="midnightblue" d="M307.25,-242.54C281.33,-232.14 249.16,-219.24 225.08,-209.58"/>
<polygon fill="midnightblue" stroke="midnightblue" points="306.26,-245.92 316.85,-246.4 308.87,-239.42 306.26,-245.92"/>
</g>
<!-- Node7&#45;&gt;Node2 -->
<g id="edge9" class="edge">
<title>Node7&#45;&gt;Node2</title>
<path fill="none" stroke="midnightblue" d="M330.83,-106.78C346.78,-96.23 365.61,-83.78 377.9,-75.66"/>
<polygon fill="midnightblue" stroke="midnightblue" points="328.74,-103.96 322.33,-112.4 332.6,-109.8 328.74,-103.96"/>
</g>
<!-- Node8&#45;&gt;Node7 -->
<g id="edge11" class="edge">
<title>Node8&#45;&gt;Node7</title>
<path fill="none" stroke="midnightblue" d="M222.8,-174.3C240.16,-164.12 261.12,-151.85 276.96,-142.58"/>
<polygon fill="midnightblue" stroke="midnightblue" points="220.95,-171.32 214.09,-179.4 224.48,-177.36 220.95,-171.32"/>
</g>
<!-- Node9&#45;&gt;Node6 -->
<g id="edge15" class="edge">
<title>Node9&#45;&gt;Node6</title>
<path fill="none" stroke="midnightblue" d="M296.69,-306.88C309,-297.01 323.43,-285.43 334.46,-276.58"/>
<polygon fill="midnightblue" stroke="midnightblue" points="294.18,-304.41 288.58,-313.4 298.57,-309.87 294.18,-304.41"/>
</g>
<!-- Node9&#45;&gt;Node7 -->
<g id="edge14" class="edge">
<title>Node9&#45;&gt;Node7</title>
<path fill="none" stroke="midnightblue" d="M274.65,-303.27C280.98,-261.29 293.79,-176.33 298.86,-142.68"/>
<polygon fill="midnightblue" stroke="midnightblue" points="271.19,-302.78 273.16,-313.19 278.11,-303.82 271.19,-302.78"/>
</g>
<!-- Node9&#45;&gt;Node8 -->
<g id="edge16" class="edge">
<title>Node9&#45;&gt;Node8</title>
<path fill="none" stroke="midnightblue" d="M257.09,-304.83C240.3,-277.47 212.57,-232.28 198.61,-209.52"/>
<polygon fill="midnightblue" stroke="midnightblue" points="254.12,-306.68 262.33,-313.37 260.08,-303.02 254.12,-306.68"/>
</g>
<!-- Node11&#45;&gt;Node2 -->
<g id="edge26" class="edge">
<title>Node11&#45;&gt;Node2</title>
<path fill="none" stroke="midnightblue" d="M476.99,-376.43C487.32,-351.37 504,-304.4 504,-262.5 504,-262.5 504,-262.5 504,-193.5 504,-136.37 439.11,-93.18 407.67,-75.61"/>
<polygon fill="midnightblue" stroke="midnightblue" points="473.71,-375.18 473.01,-385.75 480.15,-377.92 473.71,-375.18"/>
</g>
<!-- Node11&#45;&gt;Node6 -->
<g id="edge27" class="edge">
<title>Node11&#45;&gt;Node6</title>
<path fill="none" stroke="midnightblue" d="M456.31,-377.33C443.63,-360.47 423.29,-334.27 404,-313 392.33,-300.14 378.13,-286.47 367.52,-276.6"/>
<polygon fill="midnightblue" stroke="midnightblue" points="453.73,-379.72 462.52,-385.64 459.34,-375.53 453.73,-379.72"/>
</g>
<!-- Node11&#45;&gt;Node8 -->
<g id="edge28" class="edge">
<title>Node11&#45;&gt;Node8</title>
<path fill="none" stroke="midnightblue" d="M467.65,-375.8C464.32,-344.12 452.88,-280.02 414,-246 388.91,-224.05 301,-209.22 243.05,-201.58"/>
<polygon fill="midnightblue" stroke="midnightblue" points="464.17,-376.24 468.55,-385.89 471.15,-375.62 464.17,-376.24"/>
</g>
<!-- Node11&#45;&gt;Node9 -->
<g id="edge29" class="edge">
<title>Node11&#45;&gt;Node9</title>
<path fill="none" stroke="midnightblue" d="M432.85,-382.63C399.28,-371.61 349.27,-355.19 313.73,-343.53"/>
<polygon fill="midnightblue" stroke="midnightblue" points="432.11,-386.07 442.71,-385.87 434.3,-379.42 432.11,-386.07"/>
</g>
<!-- Node13&#45;&gt;Node3 -->
<g id="edge32" class="edge">
<title>Node13&#45;&gt;Node3</title>
<path fill="none" stroke="midnightblue" d="M669.81,-312.69C642.18,-290.55 596,-245.98 596,-195.5 596,-195.5 596,-195.5 596,-126.5 596,-65.35 518.21,-33.32 471.11,-19.53"/>
<polygon fill="midnightblue" stroke="midnightblue" points="667.66,-315.46 677.71,-318.82 671.96,-309.93 667.66,-315.46"/>
</g>
</g>
</svg>
