<?xml version="1.0" encoding="UTF-8" standalone="no"?>
<!DOCTYPE svg PUBLIC "-//W3C//DTD SVG 1.1//EN"
 "http://www.w3.org/Graphics/SVG/1.1/DTD/svg11.dtd">
<!-- Generated by graphviz version 2.44.1 (20220725.2034)
 -->
<!-- Title: include/plang/base.hpp Pages: 1 -->
<svg width="705pt" height="408pt"
 viewBox="0.00 0.00 704.50 408.00" xmlns="http://www.w3.org/2000/svg" xmlns:xlink="http://www.w3.org/1999/xlink">
<g id="graph0" class="graph" transform="scale(1 1) rotate(0) translate(4 404)">
<title>include/plang/base.hpp</title>
<!-- Node1 -->
<g id="node1" class="node">
<title>Node1</title>
<g id="a_node1"><a xlink:title=" ">
<polygon fill="#bfbfbf" stroke="black" points="293,-380.5 293,-399.5 409,-399.5 409,-380.5 293,-380.5"/>
<text text-anchor="middle" x="351" y="-387.5" font-family="Helvetica,sans-Serif" font-size="10.00">include/plang/base.hpp</text>
</a>
</g>
</g>
<!-- Node2 -->
<g id="node2" class="node">
<title>Node2</title>
<g id="a_node2"><a xlink:href="corpus_8hpp.html" target="_top" xlink:title=" ">
<polygon fill="none" stroke="black" points="184.5,-56.5 184.5,-75.5 309.5,-75.5 309.5,-56.5 184.5,-56.5"/>
<text text-anchor="middle" x="247" y="-63.5" font-family="Helvetica,sans-Serif" font-size="10.00">include/plang/corpus.hpp</text>
</a>
</g>
</g>
<!-- Node1&#45;&gt;Node2 -->
<g id="edge1" class="edge">
<title>Node1&#45;&gt;Node2</title>
<path fill="none" stroke="midnightblue" d="M355.96,-370.79C362.17,-346.36 372,-301.5 372,-262.5 372,-262.5 372,-262.5 372,-193.5 372,-134.07 301.32,-92.49 266.26,-75.52"/>
<polygon fill="midnightblue" stroke="midnightblue" points="352.57,-369.93 353.41,-380.49 359.34,-371.71 352.57,-369.93"/>
</g>
<!-- Node4 -->
<g id="node4" class="node">
<title>Node4</title>
<g id="a_node4"><a xlink:href="detail_8hpp.html" target="_top" xlink:title=" ">
<polygon fill="none" stroke="black" points="0,-313.5 0,-343.5 106,-343.5 106,-313.5 0,-313.5"/>
<text text-anchor="start" x="8" y="-331.5" font-family="Helvetica,sans-Serif" font-size="10.00">include/plang/corpus</text>
<text text-anchor="middle" x="53" y="-320.5" font-family="Helvetica,sans-Serif" font-size="10.00">/detail.hpp</text>
</a>
</g>
</g>
<!-- Node1&#45;&gt;Node4 -->
<g id="edge3" class="edge">
<title>Node1&#45;&gt;Node4</title>
<path fill="none" stroke="midnightblue" d="M298.23,-378.46C244.12,-367.66 160.44,-350.95 106.19,-340.12"/>
<polygon fill="midnightblue" stroke="midnightblue" points="297.81,-381.95 308.3,-380.48 299.18,-375.08 297.81,-381.95"/>
</g>
<!-- Node5 -->
<g id="node5" class="node">
<title>Node5</title>
<g id="a_node5"><a xlink:href="path_8hpp.html" target="_top" xlink:title=" ">
<polygon fill="none" stroke="black" points="70,-246.5 70,-276.5 176,-276.5 176,-246.5 70,-246.5"/>
<text text-anchor="start" x="78" y="-264.5" font-family="Helvetica,sans-Serif" font-size="10.00">include/plang/corpus</text>
<text text-anchor="middle" x="123" y="-253.5" font-family="Helvetica,sans-Serif" font-size="10.00">/path.hpp</text>
</a>
</g>
</g>
<!-- Node1&#45;&gt;Node5 -->
<g id="edge11" class="edge">
<title>Node1&#45;&gt;Node5</title>
<path fill="none" stroke="midnightblue" d="M282.65,-379.44C252.46,-372.9 217.63,-362.01 190,-344 163.15,-326.5 141.7,-294.84 130.81,-276.56"/>
<polygon fill="midnightblue" stroke="midnightblue" points="282.2,-382.92 292.7,-381.49 283.6,-376.06 282.2,-382.92"/>
</g>
<!-- Node6 -->
<g id="node6" class="node">
<title>Node6</title>
<g id="a_node6"><a xlink:href="symbol_8hpp.html" target="_top" xlink:title=" ">
<polygon fill="none" stroke="black" points="151,-179.5 151,-209.5 257,-209.5 257,-179.5 151,-179.5"/>
<text text-anchor="start" x="159" y="-197.5" font-family="Helvetica,sans-Serif" font-size="10.00">include/plang/corpus</text>
<text text-anchor="middle" x="204" y="-186.5" font-family="Helvetica,sans-Serif" font-size="10.00">/plot/symbol.hpp</text>
</a>
</g>
</g>
<!-- Node1&#45;&gt;Node6 -->
<g id="edge12" class="edge">
<title>Node1&#45;&gt;Node6</title>
<path fill="none" stroke="midnightblue" d="M327.59,-374.82C298.71,-356.09 250.24,-320.34 224,-277 211.17,-255.81 206.56,-226.82 204.91,-209.74"/>
<polygon fill="midnightblue" stroke="midnightblue" points="325.9,-377.9 336.22,-380.3 329.65,-371.99 325.9,-377.9"/>
</g>
<!-- Node8 -->
<g id="node8" class="node">
<title>Node8</title>
<g id="a_node8"><a xlink:href="plang_2error_8hpp.html" target="_top" xlink:title=" ">
<polygon fill="none" stroke="black" points="438.5,-319 438.5,-338 553.5,-338 553.5,-319 438.5,-319"/>
<text text-anchor="middle" x="496" y="-326" font-family="Helvetica,sans-Serif" font-size="10.00">include/plang/error.hpp</text>
</a>
</g>
</g>
<!-- Node1&#45;&gt;Node8 -->
<g id="edge13" class="edge">
<title>Node1&#45;&gt;Node8</title>
<path fill="none" stroke="midnightblue" d="M381.14,-376.63C409.31,-365.07 450.62,-348.12 475.26,-338.01"/>
<polygon fill="midnightblue" stroke="midnightblue" points="379.7,-373.44 371.77,-380.48 382.36,-379.92 379.7,-373.44"/>
</g>
<!-- Node9 -->
<g id="node9" class="node">
<title>Node9</title>
<g id="a_node9"><a xlink:href="plot_8hpp.html" target="_top" xlink:title=" ">
<polygon fill="none" stroke="black" points="232.5,-252 232.5,-271 343.5,-271 343.5,-252 232.5,-252"/>
<text text-anchor="middle" x="288" y="-259" font-family="Helvetica,sans-Serif" font-size="10.00">include/plang/plot.hpp</text>
</a>
</g>
</g>
<!-- Node1&#45;&gt;Node9 -->
<g id="edge14" class="edge">
<title>Node1&#45;&gt;Node9</title>
<path fill="none" stroke="midnightblue" d="M342.06,-371.04C328.33,-343.48 302.6,-291.81 292.36,-271.26"/>
<polygon fill="midnightblue" stroke="midnightblue" points="339.08,-372.91 346.67,-380.31 345.34,-369.79 339.08,-372.91"/>
</g>
<!-- Node10 -->
<g id="node10" class="node">
<title>Node10</title>
<g id="a_node10"><a xlink:href="plangcli_2error_8hpp.html" target="_top" xlink:title=" ">
<polygon fill="none" stroke="black" points="571.5,-319 571.5,-338 696.5,-338 696.5,-319 571.5,-319"/>
<text text-anchor="middle" x="634" y="-326" font-family="Helvetica,sans-Serif" font-size="10.00">include/plangcli/error.hpp</text>
</a>
</g>
</g>
<!-- Node1&#45;&gt;Node10 -->
<g id="edge17" class="edge">
<title>Node1&#45;&gt;Node10</title>
<path fill="none" stroke="midnightblue" d="M401.41,-378.4C456.27,-366.87 542.92,-348.65 593.53,-338.01"/>
<polygon fill="midnightblue" stroke="midnightblue" points="400.61,-374.99 391.55,-380.48 402.05,-381.84 400.61,-374.99"/>
</g>
<!-- Node11 -->
<g id="node11" class="node">
<title>Node11</title>
<g id="a_node11"><a xlink:href="intl_8hpp.html" target="_top" xlink:title=" ">
<polygon fill="none" stroke="black" points="400,-185 400,-204 518,-204 518,-185 400,-185"/>
<text text-anchor="middle" x="459" y="-192" font-family="Helvetica,sans-Serif" font-size="10.00">include/plangcli/intl.hpp</text>
</a>
</g>
</g>
<!-- Node1&#45;&gt;Node11 -->
<g id="edge18" class="edge">
<title>Node1&#45;&gt;Node11</title>
<path fill="none" stroke="midnightblue" d="M365.02,-372.66C371.79,-364.37 379.77,-353.96 386,-344 417.54,-293.58 445.8,-227.61 455.47,-204.2"/>
<polygon fill="midnightblue" stroke="midnightblue" points="362.26,-370.51 358.53,-380.43 367.63,-374.99 362.26,-370.51"/>
</g>
<!-- Node3 -->
<g id="node3" class="node">
<title>Node3</title>
<g id="a_node3"><a xlink:href="cli_8hpp.html" target="_top" xlink:title=" ">
<polygon fill="none" stroke="black" points="250.5,-0.5 250.5,-19.5 365.5,-19.5 365.5,-0.5 250.5,-0.5"/>
<text text-anchor="middle" x="308" y="-7.5" font-family="Helvetica,sans-Serif" font-size="10.00">include/plangcli/cli.hpp</text>
</a>
</g>
</g>
<!-- Node2&#45;&gt;Node3 -->
<g id="edge2" class="edge">
<title>Node2&#45;&gt;Node3</title>
<path fill="none" stroke="midnightblue" d="M264.47,-49.54C275.34,-39.91 288.94,-27.87 298.02,-19.83"/>
<polygon fill="midnightblue" stroke="midnightblue" points="261.97,-47.07 256.8,-56.32 266.61,-52.32 261.97,-47.07"/>
</g>
<!-- Node4&#45;&gt;Node2 -->
<g id="edge4" class="edge">
<title>Node4&#45;&gt;Node2</title>
<path fill="none" stroke="midnightblue" d="M46.64,-303.51C43.32,-287.07 40.9,-264.9 46,-246 63.95,-179.47 71.17,-156.24 124,-112 146.23,-93.39 176.82,-82.15 201.94,-75.56"/>
<polygon fill="midnightblue" stroke="midnightblue" points="43.26,-304.42 48.88,-313.4 50.09,-302.87 43.26,-304.42"/>
</g>
<!-- Node4&#45;&gt;Node5 -->
<g id="edge5" class="edge">
<title>Node4&#45;&gt;Node5</title>
<path fill="none" stroke="midnightblue" d="M75.82,-306.31C86.32,-296.56 98.49,-285.26 107.84,-276.58"/>
<polygon fill="midnightblue" stroke="midnightblue" points="73.14,-304.03 68.19,-313.4 77.9,-309.16 73.14,-304.03"/>
</g>
<!-- Node4&#45;&gt;Node6 -->
<g id="edge10" class="edge">
<title>Node4&#45;&gt;Node6</title>
<path fill="none" stroke="midnightblue" d="M48.98,-303.33C47.43,-285.65 48.44,-262.03 61,-246 82.43,-218.64 119.78,-206.07 150.94,-200.31"/>
<polygon fill="midnightblue" stroke="midnightblue" points="45.53,-303.95 50.19,-313.46 52.48,-303.11 45.53,-303.95"/>
</g>
<!-- Node5&#45;&gt;Node2 -->
<g id="edge6" class="edge">
<title>Node5&#45;&gt;Node2</title>
<path fill="none" stroke="midnightblue" d="M119.45,-235.9C116.26,-204 115.61,-148.17 143,-112 157.37,-93.02 181.39,-81.93 202.73,-75.51"/>
<polygon fill="midnightblue" stroke="midnightblue" points="116.01,-236.59 120.65,-246.11 122.96,-235.77 116.01,-236.59"/>
</g>
<!-- Node5&#45;&gt;Node6 -->
<g id="edge7" class="edge">
<title>Node5&#45;&gt;Node6</title>
<path fill="none" stroke="midnightblue" d="M148.69,-239.88C161,-230.01 175.43,-218.43 186.46,-209.58"/>
<polygon fill="midnightblue" stroke="midnightblue" points="146.18,-237.41 140.58,-246.4 150.57,-242.87 146.18,-237.41"/>
</g>
<!-- Node7 -->
<g id="node7" class="node">
<title>Node7</title>
<g id="a_node7"><a xlink:href="corpus_2plot_8hpp.html" target="_top" xlink:title=" ">
<polygon fill="none" stroke="black" points="152,-112.5 152,-142.5 258,-142.5 258,-112.5 152,-112.5"/>
<text text-anchor="start" x="160" y="-130.5" font-family="Helvetica,sans-Serif" font-size="10.00">include/plang/corpus</text>
<text text-anchor="middle" x="205" y="-119.5" font-family="Helvetica,sans-Serif" font-size="10.00">/plot.hpp</text>
</a>
</g>
</g>
<!-- Node6&#45;&gt;Node7 -->
<g id="edge8" class="edge">
<title>Node6&#45;&gt;Node7</title>
<path fill="none" stroke="midnightblue" d="M204.38,-169.11C204.51,-160.15 204.66,-150.32 204.78,-142.58"/>
<polygon fill="midnightblue" stroke="midnightblue" points="200.87,-169.34 204.22,-179.4 207.87,-169.45 200.87,-169.34"/>
</g>
<!-- Node7&#45;&gt;Node2 -->
<g id="edge9" class="edge">
<title>Node7&#45;&gt;Node2</title>
<path fill="none" stroke="midnightblue" d="M220.81,-104.1C227.81,-94.19 235.63,-83.11 240.89,-75.66"/>
<polygon fill="midnightblue" stroke="midnightblue" points="217.86,-102.21 214.95,-112.4 223.58,-106.25 217.86,-102.21"/>
</g>
<!-- Node9&#45;&gt;Node2 -->
<g id="edge15" class="edge">
<title>Node9&#45;&gt;Node2</title>
<path fill="none" stroke="midnightblue" d="M287.02,-241.84C285.16,-213.35 280.06,-157.54 267,-112 263.23,-98.85 256.36,-84.56 251.74,-75.69"/>
<polygon fill="midnightblue" stroke="midnightblue" points="283.54,-242.18 287.62,-251.96 290.53,-241.77 283.54,-242.18"/>
</g>
<!-- Node9&#45;&gt;Node6 -->
<g id="edge16" class="edge">
<title>Node9&#45;&gt;Node6</title>
<path fill="none" stroke="midnightblue" d="M268.67,-245.54C254.69,-234.73 235.92,-220.2 222.21,-209.59"/>
<polygon fill="midnightblue" stroke="midnightblue" points="266.62,-248.38 276.67,-251.73 270.9,-242.85 266.62,-248.38"/>
</g>
<!-- Node11&#45;&gt;Node3 -->
<g id="edge19" class="edge">
<title>Node11&#45;&gt;Node3</title>
<path fill="none" stroke="midnightblue" d="M445.08,-176.68C413.79,-138.86 338.77,-48.19 315.21,-19.71"/>
<polygon fill="midnightblue" stroke="midnightblue" points="442.65,-179.22 451.72,-184.7 448.04,-174.76 442.65,-179.22"/>
</g>
</g>
</svg>
