<?xml version="1.0" encoding="UTF-8" standalone="no"?>
<!DOCTYPE svg PUBLIC "-//W3C//DTD SVG 1.1//EN"
 "http://www.w3.org/Graphics/SVG/1.1/DTD/svg11.dtd">
<!-- Generated by graphviz version 2.44.1 (20220725.2034)
 -->
<!-- Title: plang::detail::corpus Pages: 1 -->
<svg width="633pt" height="114pt"
 viewBox="0.00 0.00 633.00 113.50" xmlns="http://www.w3.org/2000/svg" xmlns:xlink="http://www.w3.org/1999/xlink">
<g id="graph0" class="graph" transform="scale(1 1) rotate(0) translate(4 109.5)">
<title>plang::detail::corpus</title>
<!-- Node1 -->
<g id="node1" class="node">
<title>Node1</title>
<g id="a_node1"><a xlink:title="Provides a basic interface to a database.">
<polygon fill="#bfbfbf" stroke="black" points="0,-85 0,-104 104,-104 104,-85 0,-85"/>
<text text-anchor="middle" x="52" y="-92" font-family="Helvetica,sans-Serif" font-size="10.00">plang::detail::corpus</text>
</a>
</g>
</g>
<!-- Node2 -->
<g id="node2" class="node">
<title>Node2</title>
<g id="a_node2"><a xlink:href="classplang_1_1corpus.html" target="_top" xlink:title="The main interface for interacting with a corpus.">
<polygon fill="none" stroke="black" points="550,-86 550,-105 625,-105 625,-86 550,-86"/>
<text text-anchor="middle" x="587.5" y="-93" font-family="Helvetica,sans-Serif" font-size="10.00">plang::corpus</text>
</a>
</g>
</g>
<!-- Node1&#45;&gt;Node2 -->
<g id="edge1" class="edge">
<title>Node1&#45;&gt;Node2</title>
<path fill="none" stroke="midnightblue" d="M114.42,-96.65C157.86,-98.06 217.49,-99.77 270,-100.5 378.44,-102 405.59,-101.52 514,-98.5 525.71,-98.17 538.48,-97.69 550,-97.2"/>
<polygon fill="midnightblue" stroke="midnightblue" points="114.4,-93.15 104.29,-96.32 114.17,-100.14 114.4,-93.15"/>
</g>
<!-- Node3 -->
<g id="node3" class="node">
<title>Node3</title>
<g id="a_node3"><a xlink:href="classplang_1_1detail_1_1path__manager.html" target="_top" xlink:title="Handles database actions for paths.">
<polygon fill="none" stroke="black" points="140,-55.5 140,-85.5 234,-85.5 234,-55.5 140,-55.5"/>
<text text-anchor="start" x="148" y="-73.5" font-family="Helvetica,sans-Serif" font-size="10.00">plang::detail::path</text>
<text text-anchor="middle" x="187" y="-62.5" font-family="Helvetica,sans-Serif" font-size="10.00">_manager</text>
</a>
</g>
</g>
<!-- Node1&#45;&gt;Node3 -->
<g id="edge2" class="edge">
<title>Node1&#45;&gt;Node3</title>
<path fill="none" stroke="darkgreen" d="M114.06,-83.48C122.67,-81.93 131.4,-80.35 139.67,-78.86"/>
<polygon fill="darkgreen" stroke="darkgreen" points="113.26,-80.07 104.04,-85.29 114.5,-86.96 113.26,-80.07"/>
</g>
<!-- Node4 -->
<g id="node4" class="node">
<title>Node4</title>
<g id="a_node4"><a xlink:href="structplang_1_1detail_1_1mixin__base.html" target="_top" xlink:title=" ">
<polygon fill="none" stroke="black" points="270,-50 270,-91 374,-91 374,-50 270,-50"/>
<text text-anchor="start" x="278" y="-79" font-family="Helvetica,sans-Serif" font-size="10.00">plang::detail::mixin</text>
<text text-anchor="start" x="278" y="-68" font-family="Helvetica,sans-Serif" font-size="10.00">_base&lt; plang::detail</text>
<text text-anchor="middle" x="322" y="-57" font-family="Helvetica,sans-Serif" font-size="10.00">::path_manager &gt;</text>
</a>
</g>
</g>
<!-- Node3&#45;&gt;Node4 -->
<g id="edge3" class="edge">
<title>Node3&#45;&gt;Node4</title>
<path fill="none" stroke="midnightblue" d="M244.35,-70.5C252.84,-70.5 261.56,-70.5 269.94,-70.5"/>
<polygon fill="midnightblue" stroke="midnightblue" points="244.14,-67 234.14,-70.5 244.14,-74 244.14,-67"/>
</g>
<!-- Node6 -->
<g id="node6" class="node">
<title>Node6</title>
<g id="a_node6"><a xlink:href="structplang_1_1detail_1_1mixin__base.html" target="_top" xlink:title="Common derived class template for distributed overloading.">
<polygon fill="none" stroke="black" points="273,-0.5 273,-30.5 371,-30.5 371,-0.5 273,-0.5"/>
<text text-anchor="start" x="281" y="-18.5" font-family="Helvetica,sans-Serif" font-size="10.00">plang::detail::mixin</text>
<text text-anchor="middle" x="322" y="-7.5" font-family="Helvetica,sans-Serif" font-size="10.00">_base&lt; Tps &gt;</text>
</a>
</g>
</g>
<!-- Node3&#45;&gt;Node6 -->
<g id="edge6" class="edge">
<title>Node3&#45;&gt;Node6</title>
<path fill="none" stroke="midnightblue" d="M233.87,-51.53C250.49,-44.66 269.02,-37 284.7,-30.51"/>
<polygon fill="midnightblue" stroke="midnightblue" points="232.25,-48.42 224.34,-55.47 234.92,-54.88 232.25,-48.42"/>
</g>
<!-- Node5 -->
<g id="node5" class="node">
<title>Node5</title>
<g id="a_node5"><a xlink:href="structplang_1_1detail_1_1corpus__mixins.html" target="_top" xlink:title="Base class for the corpus.">
<polygon fill="none" stroke="black" points="410,-58.5 410,-88.5 514,-88.5 514,-58.5 410,-58.5"/>
<text text-anchor="start" x="418" y="-76.5" font-family="Helvetica,sans-Serif" font-size="10.00">plang::detail::corpus</text>
<text text-anchor="middle" x="462" y="-65.5" font-family="Helvetica,sans-Serif" font-size="10.00">_mixins</text>
</a>
</g>
</g>
<!-- Node4&#45;&gt;Node5 -->
<g id="edge4" class="edge">
<title>Node4&#45;&gt;Node5</title>
<path fill="none" stroke="midnightblue" d="M384.5,-71.84C392.87,-72.02 401.4,-72.2 409.57,-72.38"/>
<polygon fill="midnightblue" stroke="midnightblue" points="384.46,-68.34 374.39,-71.62 384.31,-75.33 384.46,-68.34"/>
</g>
<!-- Node5&#45;&gt;Node2 -->
<g id="edge5" class="edge">
<title>Node5&#45;&gt;Node2</title>
<path fill="none" stroke="midnightblue" d="M524.17,-84.4C532.95,-85.96 541.74,-87.53 549.85,-88.97"/>
<polygon fill="midnightblue" stroke="midnightblue" points="524.76,-80.95 514.3,-82.64 523.53,-87.84 524.76,-80.95"/>
</g>
</g>
</svg>
