<?xml version="1.0" encoding="UTF-8" standalone="no"?>
<!DOCTYPE svg PUBLIC "-//W3C//DTD SVG 1.1//EN"
 "http://www.w3.org/Graphics/SVG/1.1/DTD/svg11.dtd">
<!-- Generated by graphviz version 2.44.1 (20220725.2034)
 -->
<!-- Title: plang::corpus Pages: 1 -->
<svg width="785pt" height="147pt"
 viewBox="0.00 0.00 785.00 147.00" xmlns="http://www.w3.org/2000/svg" xmlns:xlink="http://www.w3.org/1999/xlink">
<g id="graph0" class="graph" transform="scale(1 1) rotate(0) translate(4 143)">
<title>plang::corpus</title>
<!-- Node1 -->
<g id="node1" class="node">
<title>Node1</title>
<g id="a_node1"><a xlink:title="The main interface for interacting with a corpus.">
<polygon fill="#bfbfbf" stroke="black" points="702,-99.5 702,-118.5 777,-118.5 777,-99.5 702,-99.5"/>
<text text-anchor="middle" x="739.5" y="-106.5" font-family="Helvetica,sans-Serif" font-size="10.00">plang::corpus</text>
</a>
</g>
</g>
<!-- Node2 -->
<g id="node2" class="node">
<title>Node2</title>
<g id="a_node2"><a xlink:href="classplang_1_1detail_1_1corpus.html" target="_top" xlink:title="Provides a basic interface to a database.">
<polygon fill="none" stroke="black" points="0,-85.5 0,-104.5 104,-104.5 104,-85.5 0,-85.5"/>
<text text-anchor="middle" x="52" y="-92.5" font-family="Helvetica,sans-Serif" font-size="10.00">plang::detail::corpus</text>
</a>
</g>
</g>
<!-- Node2&#45;&gt;Node1 -->
<g id="edge1" class="edge">
<title>Node2&#45;&gt;Node1</title>
<path fill="none" stroke="midnightblue" d="M91.27,-107.57C106.32,-112.1 123.83,-116.86 140,-120 220.05,-135.54 240.95,-139 322.5,-139 322.5,-139 322.5,-139 470.5,-139 553.6,-139 650.31,-124.58 701.8,-115.73"/>
<polygon fill="midnightblue" stroke="midnightblue" points="91.88,-104.1 81.3,-104.5 89.82,-110.79 91.88,-104.1"/>
</g>
<!-- Node5 -->
<g id="node5" class="node">
<title>Node5</title>
<g id="a_node5"><a xlink:href="classplang_1_1detail_1_1path__manager.html" target="_top" xlink:title="Handles database actions for paths.">
<polygon fill="none" stroke="black" points="140,-80 140,-110 234,-110 234,-80 140,-80"/>
<text text-anchor="start" x="148" y="-98" font-family="Helvetica,sans-Serif" font-size="10.00">plang::detail::path</text>
<text text-anchor="middle" x="187" y="-87" font-family="Helvetica,sans-Serif" font-size="10.00">_manager</text>
</a>
</g>
</g>
<!-- Node2&#45;&gt;Node5 -->
<g id="edge5" class="edge">
<title>Node2&#45;&gt;Node5</title>
<path fill="none" stroke="darkgreen" d="M114.06,-95C122.67,-95 131.4,-95 139.67,-95"/>
<polygon fill="darkgreen" stroke="darkgreen" points="114.04,-91.5 104.04,-95 114.04,-98.5 114.04,-91.5"/>
</g>
<!-- Node6 -->
<g id="node6" class="node">
<title>Node6</title>
<g id="a_node6"><a xlink:href="classplang_1_1detail_1_1symbol__class__manager.html" target="_top" xlink:title=" ">
<polygon fill="none" stroke="black" points="270,-39 270,-69 377,-69 377,-39 270,-39"/>
<text text-anchor="start" x="278" y="-57" font-family="Helvetica,sans-Serif" font-size="10.00">plang::detail::symbol</text>
<text text-anchor="middle" x="323.5" y="-46" font-family="Helvetica,sans-Serif" font-size="10.00">_class_manager</text>
</a>
</g>
</g>
<!-- Node2&#45;&gt;Node6 -->
<g id="edge7" class="edge">
<title>Node2&#45;&gt;Node6</title>
<path fill="none" stroke="darkgreen" d="M92.34,-82.56C107.15,-78.3 124.22,-73.89 140,-71 183.35,-63.07 233.21,-58.74 269.85,-56.44"/>
<polygon fill="darkgreen" stroke="darkgreen" points="91.1,-79.28 82.5,-85.47 93.08,-86 91.1,-79.28"/>
</g>
<!-- Node3 -->
<g id="node3" class="node">
<title>Node3</title>
<g id="a_node3"><a xlink:href="structplang_1_1detail_1_1corpus__mixins.html" target="_top" xlink:title="Base class for the corpus.">
<polygon fill="none" stroke="black" points="562,-72 562,-102 666,-102 666,-72 562,-72"/>
<text text-anchor="start" x="570" y="-90" font-family="Helvetica,sans-Serif" font-size="10.00">plang::detail::corpus</text>
<text text-anchor="middle" x="614" y="-79" font-family="Helvetica,sans-Serif" font-size="10.00">_mixins</text>
</a>
</g>
</g>
<!-- Node3&#45;&gt;Node1 -->
<g id="edge2" class="edge">
<title>Node3&#45;&gt;Node1</title>
<path fill="none" stroke="midnightblue" d="M676.17,-97.9C684.95,-99.46 693.74,-101.03 701.85,-102.47"/>
<polygon fill="midnightblue" stroke="midnightblue" points="676.76,-94.45 666.3,-96.14 675.53,-101.34 676.76,-94.45"/>
</g>
<!-- Node4 -->
<g id="node4" class="node">
<title>Node4</title>
<g id="a_node4"><a xlink:href="structplang_1_1detail_1_1mixin__base.html" target="_top" xlink:title=" ">
<polygon fill="none" stroke="black" points="413,-35.5 413,-98.5 526,-98.5 526,-35.5 413,-35.5"/>
<text text-anchor="start" x="421" y="-86.5" font-family="Helvetica,sans-Serif" font-size="10.00">plang::detail::mixin</text>
<text text-anchor="start" x="421" y="-75.5" font-family="Helvetica,sans-Serif" font-size="10.00">_base&lt; plang::detail</text>
<text text-anchor="start" x="421" y="-64.5" font-family="Helvetica,sans-Serif" font-size="10.00">::path_manager, plang</text>
<text text-anchor="start" x="421" y="-53.5" font-family="Helvetica,sans-Serif" font-size="10.00">::detail::symbol_class</text>
<text text-anchor="middle" x="469.5" y="-42.5" font-family="Helvetica,sans-Serif" font-size="10.00">_manager &gt;</text>
</a>
</g>
</g>
<!-- Node4&#45;&gt;Node3 -->
<g id="edge3" class="edge">
<title>Node4&#45;&gt;Node3</title>
<path fill="none" stroke="midnightblue" d="M536,-76.19C544.59,-77.4 553.3,-78.62 561.61,-79.79"/>
<polygon fill="midnightblue" stroke="midnightblue" points="536.39,-72.71 526,-74.79 535.42,-79.65 536.39,-72.71"/>
</g>
<!-- Node5&#45;&gt;Node4 -->
<g id="edge4" class="edge">
<title>Node5&#45;&gt;Node4</title>
<path fill="none" stroke="midnightblue" d="M244.52,-90.9C282.11,-88 332.56,-83.79 377,-79 388.63,-77.75 401.06,-76.23 412.9,-74.71"/>
<polygon fill="midnightblue" stroke="midnightblue" points="243.98,-87.43 234.27,-91.68 244.51,-94.41 243.98,-87.43"/>
</g>
<!-- Node5&#45;&gt;Node6 -->
<g id="edge8" class="edge">
<title>Node5&#45;&gt;Node6</title>
<path fill="none" stroke="#8b1a1a" d="M244.11,-77.9C253.67,-74.98 263.54,-71.97 272.91,-69.12"/>
<polygon fill="#8b1a1a" stroke="#8b1a1a" points="242.83,-74.63 234.29,-80.89 244.87,-81.32 242.83,-74.63"/>
</g>
<!-- Node6&#45;&gt;Node4 -->
<g id="edge6" class="edge">
<title>Node6&#45;&gt;Node4</title>
<path fill="none" stroke="midnightblue" d="M387.47,-59.69C395.9,-60.45 404.5,-61.22 412.8,-61.97"/>
<polygon fill="midnightblue" stroke="midnightblue" points="387.58,-56.18 377.3,-58.77 386.95,-63.15 387.58,-56.18"/>
</g>
<!-- Node7 -->
<g id="node7" class="node">
<title>Node7</title>
<g id="a_node7"><a xlink:title=" ">
<polygon fill="none" stroke="#bfbfbf" points="307,-0.5 307,-19.5 340,-19.5 340,-0.5 307,-0.5"/>
<text text-anchor="middle" x="323.5" y="-7.5" font-family="Helvetica,sans-Serif" font-size="10.00">Tps</text>
</a>
</g>
</g>
<!-- Node7&#45;&gt;Node4 -->
<g id="edge9" class="edge">
<title>Node7&#45;&gt;Node4</title>
<path fill="none" stroke="midnightblue" d="M349.71,-19.48C358.37,-22.78 368.13,-26.52 377,-30 388.64,-34.57 401.09,-39.54 412.93,-44.32"/>
<polygon fill="midnightblue" stroke="midnightblue" points="350.74,-16.13 340.15,-15.87 348.27,-22.68 350.74,-16.13"/>
</g>
</g>
</svg>
