<?xml version="1.0" encoding="UTF-8" standalone="no"?>
<!DOCTYPE svg PUBLIC "-//W3C//DTD SVG 1.1//EN"
 "http://www.w3.org/Graphics/SVG/1.1/DTD/svg11.dtd">
<!-- Generated by graphviz version 2.44.1 (20220725.2034)
 -->
<!-- Title: plang::detail::symbol_manager Pages: 1 -->
<svg width="933pt" height="157pt"
 viewBox="0.00 0.00 933.00 157.00" xmlns="http://www.w3.org/2000/svg" xmlns:xlink="http://www.w3.org/1999/xlink">
<g id="graph0" class="graph" transform="scale(1 1) rotate(0) translate(4 153)">
<title>plang::detail::symbol_manager</title>
<!-- Node1 -->
<g id="node1" class="node">
<title>Node1</title>
<g id="a_node1"><a xlink:title=" ">
<polygon fill="#bfbfbf" stroke="black" points="413,-60.5 413,-90.5 520,-90.5 520,-60.5 413,-60.5"/>
<text text-anchor="start" x="421" y="-78.5" font-family="Helvetica,sans-Serif" font-size="10.00">plang::detail::symbol</text>
<text text-anchor="middle" x="466.5" y="-67.5" font-family="Helvetica,sans-Serif" font-size="10.00">_manager</text>
</a>
</g>
</g>
<!-- Node5 -->
<g id="node5" class="node">
<title>Node5</title>
<g id="a_node5"><a xlink:href="structplang_1_1detail_1_1mixin__base.html" target="_top" xlink:title=" ">
<polygon fill="none" stroke="black" points="556,-74.5 556,-148.5 674,-148.5 674,-74.5 556,-74.5"/>
<text text-anchor="start" x="564" y="-136.5" font-family="Helvetica,sans-Serif" font-size="10.00">plang::detail::mixin</text>
<text text-anchor="start" x="564" y="-125.5" font-family="Helvetica,sans-Serif" font-size="10.00">_base&lt; plang::detail</text>
<text text-anchor="start" x="564" y="-114.5" font-family="Helvetica,sans-Serif" font-size="10.00">::path_manager, plang</text>
<text text-anchor="start" x="564" y="-103.5" font-family="Helvetica,sans-Serif" font-size="10.00">::detail::symbol_class</text>
<text text-anchor="start" x="564" y="-92.5" font-family="Helvetica,sans-Serif" font-size="10.00">_manager, plang::detail</text>
<text text-anchor="middle" x="615" y="-81.5" font-family="Helvetica,sans-Serif" font-size="10.00">::symbol_manager &gt;</text>
</a>
</g>
</g>
<!-- Node1&#45;&gt;Node5 -->
<g id="edge6" class="edge">
<title>Node1&#45;&gt;Node5</title>
<path fill="none" stroke="midnightblue" d="M530.22,-90.91C538.68,-92.99 547.34,-95.12 555.73,-97.18"/>
<polygon fill="midnightblue" stroke="midnightblue" points="530.94,-87.48 520.39,-88.5 529.27,-94.28 530.94,-87.48"/>
</g>
<!-- Node8 -->
<g id="node8" class="node">
<title>Node8</title>
<g id="a_node8"><a xlink:href="structplang_1_1detail_1_1mixin__base.html" target="_top" xlink:title="Common derived class template for distributed overloading.">
<polygon fill="none" stroke="black" points="566,-25.5 566,-55.5 664,-55.5 664,-25.5 566,-25.5"/>
<text text-anchor="start" x="574" y="-43.5" font-family="Helvetica,sans-Serif" font-size="10.00">plang::detail::mixin</text>
<text text-anchor="middle" x="615" y="-32.5" font-family="Helvetica,sans-Serif" font-size="10.00">_base&lt; Tps &gt;</text>
</a>
</g>
</g>
<!-- Node1&#45;&gt;Node8 -->
<g id="edge9" class="edge">
<title>Node1&#45;&gt;Node8</title>
<path fill="none" stroke="midnightblue" d="M530.22,-60.52C542.05,-57.69 554.26,-54.77 565.57,-52.07"/>
<polygon fill="midnightblue" stroke="midnightblue" points="529.3,-57.14 520.39,-62.86 530.93,-63.94 529.3,-57.14"/>
</g>
<!-- Node2 -->
<g id="node2" class="node">
<title>Node2</title>
<g id="a_node2"><a xlink:href="classplang_1_1detail_1_1corpus.html" target="_top" xlink:title="Provides a basic interface to a database.">
<polygon fill="none" stroke="black" points="0,-50 0,-69 104,-69 104,-50 0,-50"/>
<text text-anchor="middle" x="52" y="-57" font-family="Helvetica,sans-Serif" font-size="10.00">plang::detail::corpus</text>
</a>
</g>
</g>
<!-- Node2&#45;&gt;Node1 -->
<g id="edge1" class="edge">
<title>Node2&#45;&gt;Node1</title>
<path fill="none" stroke="darkgreen" d="M114.42,-68.62C123,-69.71 131.71,-70.71 140,-71.5 244.9,-81.54 271.64,-80.29 377,-78.5 388.53,-78.3 400.9,-77.97 412.63,-77.59"/>
<polygon fill="darkgreen" stroke="darkgreen" points="114.81,-65.14 104.44,-67.32 113.9,-72.08 114.81,-65.14"/>
</g>
<!-- Node3 -->
<g id="node3" class="node">
<title>Node3</title>
<g id="a_node3"><a xlink:href="classplang_1_1detail_1_1symbol__class__manager.html" target="_top" xlink:title=" ">
<polygon fill="none" stroke="black" points="270,-38.5 270,-68.5 377,-68.5 377,-38.5 270,-38.5"/>
<text text-anchor="start" x="278" y="-56.5" font-family="Helvetica,sans-Serif" font-size="10.00">plang::detail::symbol</text>
<text text-anchor="middle" x="323.5" y="-45.5" font-family="Helvetica,sans-Serif" font-size="10.00">_class_manager</text>
</a>
</g>
</g>
<!-- Node2&#45;&gt;Node3 -->
<g id="edge3" class="edge">
<title>Node2&#45;&gt;Node3</title>
<path fill="none" stroke="darkgreen" d="M114.05,-58.14C160.99,-57.1 225.16,-55.67 269.86,-54.67"/>
<polygon fill="darkgreen" stroke="darkgreen" points="113.93,-54.64 104.01,-58.36 114.08,-61.64 113.93,-54.64"/>
</g>
<!-- Node4 -->
<g id="node4" class="node">
<title>Node4</title>
<g id="a_node4"><a xlink:href="classplang_1_1detail_1_1path__manager.html" target="_top" xlink:title="Handles database actions for paths.">
<polygon fill="none" stroke="black" points="140,-0.5 140,-30.5 234,-30.5 234,-0.5 140,-0.5"/>
<text text-anchor="start" x="148" y="-18.5" font-family="Helvetica,sans-Serif" font-size="10.00">plang::detail::path</text>
<text text-anchor="middle" x="187" y="-7.5" font-family="Helvetica,sans-Serif" font-size="10.00">_manager</text>
</a>
</g>
</g>
<!-- Node2&#45;&gt;Node4 -->
<g id="edge5" class="edge">
<title>Node2&#45;&gt;Node4</title>
<path fill="none" stroke="darkgreen" d="M91.52,-46.76C106.82,-41.7 124.53,-35.83 140.46,-30.57"/>
<polygon fill="darkgreen" stroke="darkgreen" points="90.25,-43.49 81.86,-49.95 92.45,-50.13 90.25,-43.49"/>
</g>
<!-- Node3&#45;&gt;Node1 -->
<g id="edge2" class="edge">
<title>Node3&#45;&gt;Node1</title>
<path fill="none" stroke="darkgreen" d="M387.05,-63.26C395.7,-64.61 404.51,-65.98 412.95,-67.3"/>
<polygon fill="darkgreen" stroke="darkgreen" points="387.42,-59.78 377,-61.69 386.34,-66.69 387.42,-59.78"/>
</g>
<!-- Node4&#45;&gt;Node3 -->
<g id="edge4" class="edge">
<title>Node4&#45;&gt;Node3</title>
<path fill="none" stroke="darkgreen" d="M244.08,-31.35C252.55,-33.74 261.26,-36.2 269.66,-38.57"/>
<polygon fill="darkgreen" stroke="darkgreen" points="244.86,-27.93 234.29,-28.58 242.96,-34.66 244.86,-27.93"/>
</g>
<!-- Node6 -->
<g id="node6" class="node">
<title>Node6</title>
<g id="a_node6"><a xlink:href="structplang_1_1detail_1_1corpus__mixins.html" target="_top" xlink:title="Base class for the corpus.">
<polygon fill="none" stroke="black" points="710,-96.5 710,-126.5 814,-126.5 814,-96.5 710,-96.5"/>
<text text-anchor="start" x="718" y="-114.5" font-family="Helvetica,sans-Serif" font-size="10.00">plang::detail::corpus</text>
<text text-anchor="middle" x="762" y="-103.5" font-family="Helvetica,sans-Serif" font-size="10.00">_mixins</text>
</a>
</g>
</g>
<!-- Node5&#45;&gt;Node6 -->
<g id="edge7" class="edge">
<title>Node5&#45;&gt;Node6</title>
<path fill="none" stroke="midnightblue" d="M684.21,-111.5C692.84,-111.5 701.56,-111.5 709.86,-111.5"/>
<polygon fill="midnightblue" stroke="midnightblue" points="684.14,-108 674.14,-111.5 684.14,-115 684.14,-108"/>
</g>
<!-- Node7 -->
<g id="node7" class="node">
<title>Node7</title>
<g id="a_node7"><a xlink:href="classplang_1_1corpus.html" target="_top" xlink:title="The main interface for interacting with a corpus.">
<polygon fill="none" stroke="black" points="850,-102 850,-121 925,-121 925,-102 850,-102"/>
<text text-anchor="middle" x="887.5" y="-109" font-family="Helvetica,sans-Serif" font-size="10.00">plang::corpus</text>
</a>
</g>
</g>
<!-- Node6&#45;&gt;Node7 -->
<g id="edge8" class="edge">
<title>Node6&#45;&gt;Node7</title>
<path fill="none" stroke="midnightblue" d="M824.45,-111.5C833.14,-111.5 841.83,-111.5 849.85,-111.5"/>
<polygon fill="midnightblue" stroke="midnightblue" points="824.3,-108 814.3,-111.5 824.3,-115 824.3,-108"/>
</g>
</g>
</svg>
