<?xml version="1.0" encoding="UTF-8" standalone="no"?>
<!DOCTYPE svg PUBLIC "-//W3C//DTD SVG 1.1//EN"
 "http://www.w3.org/Graphics/SVG/1.1/DTD/svg11.dtd">
<!-- Generated by graphviz version 2.44.1 (20220725.2034)
 -->
<!-- Title: plang::detail::path_manager Pages: 1 -->
<svg width="633pt" height="100pt"
 viewBox="0.00 0.00 633.00 99.50" xmlns="http://www.w3.org/2000/svg" xmlns:xlink="http://www.w3.org/1999/xlink">
<g id="graph0" class="graph" transform="scale(1 1) rotate(0) translate(4 95.5)">
<title>plang::detail::path_manager</title>
<!-- Node1 -->
<g id="node1" class="node">
<title>Node1</title>
<g id="a_node1"><a xlink:title="Handles database actions for paths.">
<polygon fill="#bfbfbf" stroke="black" points="140,-27.5 140,-57.5 234,-57.5 234,-27.5 140,-27.5"/>
<text text-anchor="start" x="148" y="-45.5" font-family="Helvetica,sans-Serif" font-size="10.00">plang::detail::path</text>
<text text-anchor="middle" x="187" y="-34.5" font-family="Helvetica,sans-Serif" font-size="10.00">_manager</text>
</a>
</g>
</g>
<!-- Node3 -->
<g id="node3" class="node">
<title>Node3</title>
<g id="a_node3"><a xlink:href="structplang_1_1detail_1_1mixin__base.html" target="_top" xlink:title=" ">
<polygon fill="none" stroke="black" points="270,-50 270,-91 374,-91 374,-50 270,-50"/>
<text text-anchor="start" x="278" y="-79" font-family="Helvetica,sans-Serif" font-size="10.00">plang::detail::mixin</text>
<text text-anchor="start" x="278" y="-68" font-family="Helvetica,sans-Serif" font-size="10.00">_base&lt; plang::detail</text>
<text text-anchor="middle" x="322" y="-57" font-family="Helvetica,sans-Serif" font-size="10.00">::path_manager &gt;</text>
</a>
</g>
</g>
<!-- Node1&#45;&gt;Node3 -->
<g id="edge2" class="edge">
<title>Node1&#45;&gt;Node3</title>
<path fill="none" stroke="midnightblue" d="M244.07,-54.3C252.65,-56.11 261.47,-57.97 269.94,-59.75"/>
<polygon fill="midnightblue" stroke="midnightblue" points="244.65,-50.85 234.14,-52.21 243.21,-57.7 244.65,-50.85"/>
</g>
<!-- Node6 -->
<g id="node6" class="node">
<title>Node6</title>
<g id="a_node6"><a xlink:href="structplang_1_1detail_1_1mixin__base.html" target="_top" xlink:title="Common derived class template for distributed overloading.">
<polygon fill="none" stroke="black" points="273,-0.5 273,-30.5 371,-30.5 371,-0.5 273,-0.5"/>
<text text-anchor="start" x="281" y="-18.5" font-family="Helvetica,sans-Serif" font-size="10.00">plang::detail::mixin</text>
<text text-anchor="middle" x="322" y="-7.5" font-family="Helvetica,sans-Serif" font-size="10.00">_base&lt; Tps &gt;</text>
</a>
</g>
</g>
<!-- Node1&#45;&gt;Node6 -->
<g id="edge5" class="edge">
<title>Node1&#45;&gt;Node6</title>
<path fill="none" stroke="midnightblue" d="M243.95,-31.14C253.5,-29.2 263.35,-27.2 272.68,-25.31"/>
<polygon fill="midnightblue" stroke="midnightblue" points="243.25,-27.71 234.14,-33.13 244.64,-34.57 243.25,-27.71"/>
</g>
<!-- Node2 -->
<g id="node2" class="node">
<title>Node2</title>
<g id="a_node2"><a xlink:href="classplang_1_1detail_1_1corpus.html" target="_top" xlink:title="Provides a basic interface to a database.">
<polygon fill="none" stroke="black" points="0,-33 0,-52 104,-52 104,-33 0,-33"/>
<text text-anchor="middle" x="52" y="-40" font-family="Helvetica,sans-Serif" font-size="10.00">plang::detail::corpus</text>
</a>
</g>
</g>
<!-- Node2&#45;&gt;Node1 -->
<g id="edge1" class="edge">
<title>Node2&#45;&gt;Node1</title>
<path fill="none" stroke="darkgreen" d="M114.06,-42.5C122.67,-42.5 131.4,-42.5 139.67,-42.5"/>
<polygon fill="darkgreen" stroke="darkgreen" points="114.04,-39 104.04,-42.5 114.04,-46 114.04,-39"/>
</g>
<!-- Node4 -->
<g id="node4" class="node">
<title>Node4</title>
<g id="a_node4"><a xlink:href="structplang_1_1detail_1_1corpus__mixins.html" target="_top" xlink:title="Base class for the corpus.">
<polygon fill="none" stroke="black" points="410,-55.5 410,-85.5 514,-85.5 514,-55.5 410,-55.5"/>
<text text-anchor="start" x="418" y="-73.5" font-family="Helvetica,sans-Serif" font-size="10.00">plang::detail::corpus</text>
<text text-anchor="middle" x="462" y="-62.5" font-family="Helvetica,sans-Serif" font-size="10.00">_mixins</text>
</a>
</g>
</g>
<!-- Node3&#45;&gt;Node4 -->
<g id="edge3" class="edge">
<title>Node3&#45;&gt;Node4</title>
<path fill="none" stroke="midnightblue" d="M384.5,-70.5C392.87,-70.5 401.4,-70.5 409.57,-70.5"/>
<polygon fill="midnightblue" stroke="midnightblue" points="384.39,-67 374.39,-70.5 384.39,-74 384.39,-67"/>
</g>
<!-- Node5 -->
<g id="node5" class="node">
<title>Node5</title>
<g id="a_node5"><a xlink:href="classplang_1_1corpus.html" target="_top" xlink:title="The main interface for interacting with a corpus.">
<polygon fill="none" stroke="black" points="550,-61 550,-80 625,-80 625,-61 550,-61"/>
<text text-anchor="middle" x="587.5" y="-68" font-family="Helvetica,sans-Serif" font-size="10.00">plang::corpus</text>
</a>
</g>
</g>
<!-- Node4&#45;&gt;Node5 -->
<g id="edge4" class="edge">
<title>Node4&#45;&gt;Node5</title>
<path fill="none" stroke="midnightblue" d="M524.45,-70.5C533.14,-70.5 541.83,-70.5 549.85,-70.5"/>
<polygon fill="midnightblue" stroke="midnightblue" points="524.3,-67 514.3,-70.5 524.3,-74 524.3,-67"/>
</g>
</g>
</svg>
