<?xml version="1.0" encoding="UTF-8" standalone="no"?>
<!DOCTYPE svg PUBLIC "-//W3C//DTD SVG 1.1//EN"
 "http://www.w3.org/Graphics/SVG/1.1/DTD/svg11.dtd">
<!-- Generated by graphviz version 2.44.1 (20220725.2034)
 -->
<!-- Title: plang::detail::base_types::decorated Pages: 1 -->
<svg width="325pt" height="106pt"
 viewBox="0.00 0.00 324.50 106.00" xmlns="http://www.w3.org/2000/svg" xmlns:xlink="http://www.w3.org/1999/xlink">
<g id="graph0" class="graph" transform="scale(1 1) rotate(0) translate(4 102)">
<title>plang::detail::base_types::decorated</title>
<!-- Node1 -->
<g id="node1" class="node">
<title>Node1</title>
<g id="a_node1"><a xlink:title="Base type for decorated classes.">
<polygon fill="#bfbfbf" stroke="black" points="114,-67.5 114,-97.5 210,-97.5 210,-67.5 114,-67.5"/>
<text text-anchor="start" x="122" y="-85.5" font-family="Helvetica,sans-Serif" font-size="10.00">plang::detail::base</text>
<text text-anchor="middle" x="162" y="-74.5" font-family="Helvetica,sans-Serif" font-size="10.00">_types::decorated</text>
</a>
</g>
</g>
<!-- Node2 -->
<g id="node2" class="node">
<title>Node2</title>
<g id="a_node2"><a xlink:href="classplang_1_1plot_1_1object_1_1clazz.html" target="_top" xlink:title=" ">
<polygon fill="none" stroke="black" points="0,-0.5 0,-30.5 94,-30.5 94,-0.5 0,-0.5"/>
<text text-anchor="start" x="8" y="-18.5" font-family="Helvetica,sans-Serif" font-size="10.00">plang::plot::object</text>
<text text-anchor="middle" x="47" y="-7.5" font-family="Helvetica,sans-Serif" font-size="10.00">::clazz</text>
</a>
</g>
</g>
<!-- Node1&#45;&gt;Node2 -->
<g id="edge1" class="edge">
<title>Node1&#45;&gt;Node2</title>
<path fill="none" stroke="midnightblue" d="M128.02,-62.3C110.03,-52.12 88.32,-39.85 71.9,-30.58"/>
<polygon fill="midnightblue" stroke="midnightblue" points="126.62,-65.52 137.05,-67.4 130.06,-59.43 126.62,-65.52"/>
</g>
<!-- Node3 -->
<g id="node3" class="node">
<title>Node3</title>
<g id="a_node3"><a xlink:href="classplang_1_1plot_1_1symbol.html" target="_top" xlink:title=" ">
<polygon fill="none" stroke="black" points="112.5,-6 112.5,-25 211.5,-25 211.5,-6 112.5,-6"/>
<text text-anchor="middle" x="162" y="-13" font-family="Helvetica,sans-Serif" font-size="10.00">plang::plot::symbol</text>
</a>
</g>
</g>
<!-- Node1&#45;&gt;Node3 -->
<g id="edge2" class="edge">
<title>Node1&#45;&gt;Node3</title>
<path fill="none" stroke="midnightblue" d="M162,-57.25C162,-46.02 162,-33.38 162,-25.19"/>
<polygon fill="midnightblue" stroke="midnightblue" points="158.5,-57.4 162,-67.4 165.5,-57.4 158.5,-57.4"/>
</g>
<!-- Node4 -->
<g id="node4" class="node">
<title>Node4</title>
<g id="a_node4"><a xlink:href="classplang_1_1root_1_1path.html" target="_top" xlink:title="A node in the corpus&#39; path tree.">
<polygon fill="none" stroke="black" points="229.5,-6 229.5,-25 316.5,-25 316.5,-6 229.5,-6"/>
<text text-anchor="middle" x="273" y="-13" font-family="Helvetica,sans-Serif" font-size="10.00">plang::root::path</text>
</a>
</g>
</g>
<!-- Node1&#45;&gt;Node4 -->
<g id="edge3" class="edge">
<title>Node1&#45;&gt;Node4</title>
<path fill="none" stroke="midnightblue" d="M194.78,-62.31C215.92,-49.93 242.38,-34.43 258.47,-25.01"/>
<polygon fill="midnightblue" stroke="midnightblue" points="192.95,-59.32 186.09,-67.4 196.48,-65.36 192.95,-59.32"/>
</g>
</g>
</svg>
