<?xml version="1.0" encoding="UTF-8" standalone="no"?>
<!DOCTYPE svg PUBLIC "-//W3C//DTD SVG 1.1//EN"
 "http://www.w3.org/Graphics/SVG/1.1/DTD/svg11.dtd">
<!-- Generated by graphviz version 2.44.1 (20220725.2034)
 -->
<!-- Title: plang::plot::object::clazz::hint::sym Pages: 1 -->
<svg width="250pt" height="106pt"
 viewBox="0.00 0.00 250.00 106.00" xmlns="http://www.w3.org/2000/svg" xmlns:xlink="http://www.w3.org/1999/xlink">
<g id="graph0" class="graph" transform="scale(1 1) rotate(0) translate(4 102)">
<title>plang::plot::object::clazz::hint::sym</title>
<!-- Node1 -->
<g id="node1" class="node">
<title>Node1</title>
<g id="a_node1"><a xlink:title=" ">
<polygon fill="#bfbfbf" stroke="black" points="82,-0.5 82,-30.5 176,-30.5 176,-0.5 82,-0.5"/>
<text text-anchor="start" x="90" y="-18.5" font-family="Helvetica,sans-Serif" font-size="10.00">plang::plot::object</text>
<text text-anchor="middle" x="129" y="-7.5" font-family="Helvetica,sans-Serif" font-size="10.00">::clazz::hint::sym</text>
</a>
</g>
</g>
<!-- Node2 -->
<g id="node2" class="node">
<title>Node2</title>
<g id="a_node2"><a xlink:href="classplang_1_1detail_1_1base__types_1_1persisted.html" target="_top" xlink:title=" ">
<polygon fill="none" stroke="black" points="0,-67.5 0,-97.5 128,-97.5 128,-67.5 0,-67.5"/>
<text text-anchor="start" x="8" y="-85.5" font-family="Helvetica,sans-Serif" font-size="10.00">plang::detail::base</text>
<text text-anchor="middle" x="64" y="-74.5" font-family="Helvetica,sans-Serif" font-size="10.00">_types::persisted&lt; sym &gt;</text>
</a>
</g>
</g>
<!-- Node2&#45;&gt;Node1 -->
<g id="edge1" class="edge">
<title>Node2&#45;&gt;Node1</title>
<path fill="none" stroke="midnightblue" d="M85.19,-60.31C94.94,-50.56 106.24,-39.26 114.92,-30.58"/>
<polygon fill="midnightblue" stroke="midnightblue" points="82.7,-57.85 78.1,-67.4 87.65,-62.8 82.7,-57.85"/>
</g>
<!-- Node3 -->
<g id="node3" class="node">
<title>Node3</title>
<g id="a_node3"><a xlink:href="classplang_1_1detail_1_1base__types_1_1sourced.html" target="_top" xlink:title="Base type for traceable classes.">
<polygon fill="none" stroke="black" points="146,-67.5 146,-97.5 242,-97.5 242,-67.5 146,-67.5"/>
<text text-anchor="start" x="154" y="-85.5" font-family="Helvetica,sans-Serif" font-size="10.00">plang::detail::base</text>
<text text-anchor="middle" x="194" y="-74.5" font-family="Helvetica,sans-Serif" font-size="10.00">_types::sourced</text>
</a>
</g>
</g>
<!-- Node3&#45;&gt;Node1 -->
<g id="edge2" class="edge">
<title>Node3&#45;&gt;Node1</title>
<path fill="none" stroke="midnightblue" d="M172.81,-60.31C163.06,-50.56 151.76,-39.26 143.08,-30.58"/>
<polygon fill="midnightblue" stroke="midnightblue" points="170.35,-62.8 179.9,-67.4 175.3,-57.85 170.35,-62.8"/>
</g>
</g>
</svg>
