<?xml version="1.0" encoding="UTF-8" standalone="no"?>
<!DOCTYPE svg PUBLIC "-//W3C//DTD SVG 1.1//EN"
 "http://www.w3.org/Graphics/SVG/1.1/DTD/svg11.dtd">
<!-- Generated by graphviz version 2.44.1 (20220725.2034)
 -->
<!-- Title: plang::detail::base_types::sourced Pages: 1 -->
<svg width="239pt" height="499pt"
 viewBox="0.00 0.00 239.00 498.50" xmlns="http://www.w3.org/2000/svg" xmlns:xlink="http://www.w3.org/1999/xlink">
<g id="graph0" class="graph" transform="scale(1 1) rotate(0) translate(4 494.5)">
<title>plang::detail::base_types::sourced</title>
<!-- Node1 -->
<g id="node1" class="node">
<title>Node1</title>
<g id="a_node1"><a xlink:title="Base type for traceable classes.">
<polygon fill="#bfbfbf" stroke="black" points="0,-225 0,-255 96,-255 96,-225 0,-225"/>
<text text-anchor="start" x="8" y="-243" font-family="Helvetica,sans-Serif" font-size="10.00">plang::detail::base</text>
<text text-anchor="middle" x="48" y="-232" font-family="Helvetica,sans-Serif" font-size="10.00">_types::sourced</text>
</a>
</g>
</g>
<!-- Node2 -->
<g id="node2" class="node">
<title>Node2</title>
<g id="a_node2"><a xlink:href="classplang_1_1plot_1_1object_1_1clazz.html" target="_top" xlink:title=" ">
<polygon fill="none" stroke="black" points="134.5,-460 134.5,-490 228.5,-490 228.5,-460 134.5,-460"/>
<text text-anchor="start" x="142.5" y="-478" font-family="Helvetica,sans-Serif" font-size="10.00">plang::plot::object</text>
<text text-anchor="middle" x="181.5" y="-467" font-family="Helvetica,sans-Serif" font-size="10.00">::clazz</text>
</a>
</g>
</g>
<!-- Node1&#45;&gt;Node2 -->
<g id="edge1" class="edge">
<title>Node1&#45;&gt;Node2</title>
<path fill="none" stroke="midnightblue" d="M52.85,-265.17C60.63,-308.2 81.92,-396.48 132,-451 135.05,-454.32 138.66,-457.24 142.52,-459.79"/>
<polygon fill="midnightblue" stroke="midnightblue" points="56.29,-264.53 51.16,-255.26 49.39,-265.71 56.29,-264.53"/>
</g>
<!-- Node3 -->
<g id="node3" class="node">
<title>Node3</title>
<g id="a_node3"><a xlink:href="classplang_1_1plot_1_1object_1_1clazz_1_1hint_1_1lit.html" target="_top" xlink:title=" ">
<polygon fill="none" stroke="black" points="134.5,-411 134.5,-441 228.5,-441 228.5,-411 134.5,-411"/>
<text text-anchor="start" x="142.5" y="-429" font-family="Helvetica,sans-Serif" font-size="10.00">plang::plot::object</text>
<text text-anchor="middle" x="181.5" y="-418" font-family="Helvetica,sans-Serif" font-size="10.00">::clazz::hint::lit</text>
</a>
</g>
</g>
<!-- Node1&#45;&gt;Node3 -->
<g id="edge2" class="edge">
<title>Node1&#45;&gt;Node3</title>
<path fill="none" stroke="midnightblue" d="M56.34,-265.17C67.57,-299.88 92.03,-362.59 132,-402 135.34,-405.3 139.23,-408.22 143.32,-410.8"/>
<polygon fill="midnightblue" stroke="midnightblue" points="59.59,-263.86 53.27,-255.36 52.91,-265.95 59.59,-263.86"/>
</g>
<!-- Node4 -->
<g id="node4" class="node">
<title>Node4</title>
<g id="a_node4"><a xlink:href="classplang_1_1plot_1_1object_1_1clazz_1_1hint_1_1pnt.html" target="_top" xlink:title=" ">
<polygon fill="none" stroke="black" points="134.5,-362 134.5,-392 228.5,-392 228.5,-362 134.5,-362"/>
<text text-anchor="start" x="142.5" y="-380" font-family="Helvetica,sans-Serif" font-size="10.00">plang::plot::object</text>
<text text-anchor="middle" x="181.5" y="-369" font-family="Helvetica,sans-Serif" font-size="10.00">::clazz::hint::pnt</text>
</a>
</g>
</g>
<!-- Node1&#45;&gt;Node4 -->
<g id="edge3" class="edge">
<title>Node1&#45;&gt;Node4</title>
<path fill="none" stroke="midnightblue" d="M62.07,-264.14C76.5,-289 101.75,-327.6 132,-353 135.96,-356.32 140.45,-359.32 145.07,-361.99"/>
<polygon fill="midnightblue" stroke="midnightblue" points="65.05,-262.31 57.08,-255.34 58.96,-265.76 65.05,-262.31"/>
</g>
<!-- Node5 -->
<g id="node5" class="node">
<title>Node5</title>
<g id="a_node5"><a xlink:href="classplang_1_1plot_1_1object_1_1clazz_1_1hint_1_1sym.html" target="_top" xlink:title=" ">
<polygon fill="none" stroke="black" points="134.5,-313 134.5,-343 228.5,-343 228.5,-313 134.5,-313"/>
<text text-anchor="start" x="142.5" y="-331" font-family="Helvetica,sans-Serif" font-size="10.00">plang::plot::object</text>
<text text-anchor="middle" x="181.5" y="-320" font-family="Helvetica,sans-Serif" font-size="10.00">::clazz::hint::sym</text>
</a>
</g>
</g>
<!-- Node1&#45;&gt;Node5 -->
<g id="edge4" class="edge">
<title>Node1&#45;&gt;Node5</title>
<path fill="none" stroke="midnightblue" d="M74.96,-261.56C90.92,-274.33 112.06,-290.43 132,-303 137.45,-306.44 143.42,-309.81 149.26,-312.91"/>
<polygon fill="midnightblue" stroke="midnightblue" points="77.1,-258.79 67.13,-255.22 72.7,-264.23 77.1,-258.79"/>
</g>
<!-- Node6 -->
<g id="node6" class="node">
<title>Node6</title>
<g id="a_node6"><a xlink:href="classplang_1_1plot_1_1point.html" target="_top" xlink:title=" ">
<polygon fill="none" stroke="black" points="137,-274.5 137,-293.5 226,-293.5 226,-274.5 137,-274.5"/>
<text text-anchor="middle" x="181.5" y="-281.5" font-family="Helvetica,sans-Serif" font-size="10.00">plang::plot::point</text>
</a>
</g>
</g>
<!-- Node1&#45;&gt;Node6 -->
<g id="edge5" class="edge">
<title>Node1&#45;&gt;Node6</title>
<path fill="none" stroke="midnightblue" d="M103.52,-258.24C120.12,-263.8 137.71,-269.68 151.87,-274.42"/>
<polygon fill="midnightblue" stroke="midnightblue" points="104.48,-254.87 93.89,-255.02 102.26,-261.51 104.48,-254.87"/>
</g>
<!-- Node7 -->
<g id="node7" class="node">
<title>Node7</title>
<g id="a_node7"><a xlink:href="classplang_1_1plot_1_1point_1_1clazz.html" target="_top" xlink:title=" ">
<polygon fill="none" stroke="black" points="137,-225 137,-255 226,-255 226,-225 137,-225"/>
<text text-anchor="start" x="145" y="-243" font-family="Helvetica,sans-Serif" font-size="10.00">plang::plot::point</text>
<text text-anchor="middle" x="181.5" y="-232" font-family="Helvetica,sans-Serif" font-size="10.00">::clazz</text>
</a>
</g>
</g>
<!-- Node1&#45;&gt;Node7 -->
<g id="edge6" class="edge">
<title>Node1&#45;&gt;Node7</title>
<path fill="none" stroke="midnightblue" d="M106.22,-240C116.47,-240 127,-240 136.8,-240"/>
<polygon fill="midnightblue" stroke="midnightblue" points="106.1,-236.5 96.1,-240 106.1,-243.5 106.1,-236.5"/>
</g>
<!-- Node8 -->
<g id="node8" class="node">
<title>Node8</title>
<g id="a_node8"><a xlink:href="classplang_1_1plot_1_1point_1_1clazz_1_1hint.html" target="_top" xlink:title=" ">
<polygon fill="none" stroke="black" points="137,-176 137,-206 226,-206 226,-176 137,-176"/>
<text text-anchor="start" x="145" y="-194" font-family="Helvetica,sans-Serif" font-size="10.00">plang::plot::point</text>
<text text-anchor="middle" x="181.5" y="-183" font-family="Helvetica,sans-Serif" font-size="10.00">::clazz::hint</text>
</a>
</g>
</g>
<!-- Node1&#45;&gt;Node8 -->
<g id="edge7" class="edge">
<title>Node1&#45;&gt;Node8</title>
<path fill="none" stroke="midnightblue" d="M99.14,-221.32C112.6,-216.3 127,-210.94 139.88,-206.14"/>
<polygon fill="midnightblue" stroke="midnightblue" points="97.68,-218.13 89.53,-224.9 100.12,-224.69 97.68,-218.13"/>
</g>
<!-- Node9 -->
<g id="node9" class="node">
<title>Node9</title>
<g id="a_node9"><a xlink:href="classplang_1_1plot_1_1symbol.html" target="_top" xlink:title=" ">
<polygon fill="none" stroke="black" points="132,-137.5 132,-156.5 231,-156.5 231,-137.5 132,-137.5"/>
<text text-anchor="middle" x="181.5" y="-144.5" font-family="Helvetica,sans-Serif" font-size="10.00">plang::plot::symbol</text>
</a>
</g>
</g>
<!-- Node1&#45;&gt;Node9 -->
<g id="edge8" class="edge">
<title>Node1&#45;&gt;Node9</title>
<path fill="none" stroke="midnightblue" d="M70.31,-217.67C86.2,-201.96 109.03,-181.28 132,-167 138.42,-163.01 145.78,-159.5 152.78,-156.59"/>
<polygon fill="midnightblue" stroke="midnightblue" points="67.66,-215.37 63.1,-224.93 72.63,-220.3 67.66,-215.37"/>
</g>
<!-- Node10 -->
<g id="node10" class="node">
<title>Node10</title>
<g id="a_node10"><a xlink:href="classplang_1_1plot_1_1symbol_1_1clazz.html" target="_top" xlink:title=" ">
<polygon fill="none" stroke="black" points="132,-88 132,-118 231,-118 231,-88 132,-88"/>
<text text-anchor="start" x="140" y="-106" font-family="Helvetica,sans-Serif" font-size="10.00">plang::plot::symbol</text>
<text text-anchor="middle" x="181.5" y="-95" font-family="Helvetica,sans-Serif" font-size="10.00">::clazz</text>
</a>
</g>
</g>
<!-- Node1&#45;&gt;Node10 -->
<g id="edge9" class="edge">
<title>Node1&#45;&gt;Node10</title>
<path fill="none" stroke="midnightblue" d="M62.2,-216.18C76.74,-191.62 102.08,-153.43 132,-128 136.33,-124.32 141.3,-120.99 146.36,-118.05"/>
<polygon fill="midnightblue" stroke="midnightblue" points="59.15,-214.46 57.17,-224.87 65.21,-217.97 59.15,-214.46"/>
</g>
<!-- Node11 -->
<g id="node11" class="node">
<title>Node11</title>
<g id="a_node11"><a xlink:href="classplang_1_1plot_1_1symbol_1_1clazz_1_1hint.html" target="_top" xlink:title=" ">
<polygon fill="none" stroke="black" points="132,-39 132,-69 231,-69 231,-39 132,-39"/>
<text text-anchor="start" x="140" y="-57" font-family="Helvetica,sans-Serif" font-size="10.00">plang::plot::symbol</text>
<text text-anchor="middle" x="181.5" y="-46" font-family="Helvetica,sans-Serif" font-size="10.00">::clazz::hint</text>
</a>
</g>
</g>
<!-- Node1&#45;&gt;Node11 -->
<g id="edge10" class="edge">
<title>Node1&#45;&gt;Node11</title>
<path fill="none" stroke="midnightblue" d="M56.47,-215.07C67.86,-180.69 92.5,-118.5 132,-79 135.75,-75.25 140.18,-71.94 144.82,-69.07"/>
<polygon fill="midnightblue" stroke="midnightblue" points="53.07,-214.2 53.36,-224.8 59.74,-216.34 53.07,-214.2"/>
</g>
<!-- Node12 -->
<g id="node12" class="node">
<title>Node12</title>
<g id="a_node12"><a xlink:href="classplang_1_1root_1_1path.html" target="_top" xlink:title="A node in the corpus&#39; path tree.">
<polygon fill="none" stroke="black" points="138,-0.5 138,-19.5 225,-19.5 225,-0.5 138,-0.5"/>
<text text-anchor="middle" x="181.5" y="-7.5" font-family="Helvetica,sans-Serif" font-size="10.00">plang::root::path</text>
</a>
</g>
</g>
<!-- Node1&#45;&gt;Node12 -->
<g id="edge11" class="edge">
<title>Node1&#45;&gt;Node12</title>
<path fill="none" stroke="midnightblue" d="M52.45,-214.89C59.64,-171.64 80.13,-82.64 132,-30 136.22,-25.72 141.49,-22.31 146.98,-19.62"/>
<polygon fill="midnightblue" stroke="midnightblue" points="48.98,-214.44 50.89,-224.86 55.89,-215.52 48.98,-214.44"/>
</g>
</g>
</svg>
