<?xml version="1.0" encoding="UTF-8" standalone="no"?>
<!DOCTYPE svg PUBLIC "-//W3C//DTD SVG 1.1//EN"
 "http://www.w3.org/Graphics/SVG/1.1/DTD/svg11.dtd">
<!-- Generated by graphviz version 2.44.1 (20220725.2034)
 -->
<!-- Title: plang::root::path Pages: 1 -->
<svg width="259pt" height="137pt"
 viewBox="0.00 0.00 259.00 137.00" xmlns="http://www.w3.org/2000/svg" xmlns:xlink="http://www.w3.org/1999/xlink">
<g id="graph0" class="graph" transform="scale(1 1) rotate(0) translate(4 133)">
<title>plang::root::path</title>
<!-- Node1 -->
<g id="node1" class="node">
<title>Node1</title>
<g id="a_node1"><a xlink:title="A node in the corpus&#39; path tree.">
<polygon fill="#bfbfbf" stroke="black" points="164,-55 164,-74 251,-74 251,-55 164,-55"/>
<text text-anchor="middle" x="207.5" y="-62" font-family="Helvetica,sans-Serif" font-size="10.00">plang::root::path</text>
</a>
</g>
</g>
<!-- Node2 -->
<g id="node2" class="node">
<title>Node2</title>
<g id="a_node2"><a xlink:href="classplang_1_1detail_1_1base__types_1_1persisted.html" target="_top" xlink:title=" ">
<polygon fill="none" stroke="black" points="0,-98.5 0,-128.5 128,-128.5 128,-98.5 0,-98.5"/>
<text text-anchor="start" x="8" y="-116.5" font-family="Helvetica,sans-Serif" font-size="10.00">plang::detail::base</text>
<text text-anchor="middle" x="64" y="-105.5" font-family="Helvetica,sans-Serif" font-size="10.00">_types::persisted&lt; path &gt;</text>
</a>
</g>
</g>
<!-- Node2&#45;&gt;Node1 -->
<g id="edge1" class="edge">
<title>Node2&#45;&gt;Node1</title>
<path fill="none" stroke="midnightblue" d="M118.22,-95.07C138.85,-87.92 161.61,-80.05 178.85,-74.08"/>
<polygon fill="midnightblue" stroke="midnightblue" points="116.91,-91.82 108.61,-98.4 119.2,-98.43 116.91,-91.82"/>
</g>
<!-- Node3 -->
<g id="node3" class="node">
<title>Node3</title>
<g id="a_node3"><a xlink:href="classplang_1_1detail_1_1base__types_1_1sourced.html" target="_top" xlink:title="Base type for traceable classes.">
<polygon fill="none" stroke="black" points="16,-49.5 16,-79.5 112,-79.5 112,-49.5 16,-49.5"/>
<text text-anchor="start" x="24" y="-67.5" font-family="Helvetica,sans-Serif" font-size="10.00">plang::detail::base</text>
<text text-anchor="middle" x="64" y="-56.5" font-family="Helvetica,sans-Serif" font-size="10.00">_types::sourced</text>
</a>
</g>
</g>
<!-- Node3&#45;&gt;Node1 -->
<g id="edge2" class="edge">
<title>Node3&#45;&gt;Node1</title>
<path fill="none" stroke="midnightblue" d="M122.52,-64.5C136.34,-64.5 150.87,-64.5 163.88,-64.5"/>
<polygon fill="midnightblue" stroke="midnightblue" points="122.12,-61 112.12,-64.5 122.12,-68 122.12,-61"/>
</g>
<!-- Node4 -->
<g id="node4" class="node">
<title>Node4</title>
<g id="a_node4"><a xlink:href="classplang_1_1detail_1_1base__types_1_1decorated.html" target="_top" xlink:title="Base type for decorated classes.">
<polygon fill="none" stroke="black" points="16,-0.5 16,-30.5 112,-30.5 112,-0.5 16,-0.5"/>
<text text-anchor="start" x="24" y="-18.5" font-family="Helvetica,sans-Serif" font-size="10.00">plang::detail::base</text>
<text text-anchor="middle" x="64" y="-7.5" font-family="Helvetica,sans-Serif" font-size="10.00">_types::decorated</text>
</a>
</g>
</g>
<!-- Node4&#45;&gt;Node1 -->
<g id="edge3" class="edge">
<title>Node4&#45;&gt;Node1</title>
<path fill="none" stroke="midnightblue" d="M118.22,-33.93C138.85,-41.08 161.61,-48.95 178.85,-54.92"/>
<polygon fill="midnightblue" stroke="midnightblue" points="119.2,-30.57 108.61,-30.6 116.91,-37.18 119.2,-30.57"/>
</g>
</g>
</svg>
