<?xml version="1.0" encoding="UTF-8" standalone="no"?>
<!DOCTYPE svg PUBLIC "-//W3C//DTD SVG 1.1//EN"
 "http://www.w3.org/Graphics/SVG/1.1/DTD/svg11.dtd">
<!-- Generated by graphviz version 2.44.1 (20220725.2034)
 -->
<!-- Title: plang::plot::object::clazz Pages: 1 -->
<svg width="271pt" height="88pt"
 viewBox="0.00 0.00 271.00 88.00" xmlns="http://www.w3.org/2000/svg" xmlns:xlink="http://www.w3.org/1999/xlink">
<g id="graph0" class="graph" transform="scale(1 1) rotate(0) translate(4 84)">
<title>plang::plot::object::clazz</title>
<!-- Node1 -->
<g id="node1" class="node">
<title>Node1</title>
<g id="a_node1"><a xlink:title=" ">
<polygon fill="#bfbfbf" stroke="black" points="169,-24.5 169,-54.5 263,-54.5 263,-24.5 169,-24.5"/>
<text text-anchor="start" x="177" y="-42.5" font-family="Helvetica,sans-Serif" font-size="10.00">plang::plot::object</text>
<text text-anchor="middle" x="216" y="-31.5" font-family="Helvetica,sans-Serif" font-size="10.00">::clazz</text>
</a>
</g>
</g>
<!-- Node2 -->
<g id="node2" class="node">
<title>Node2</title>
<g id="a_node2"><a xlink:href="classplang_1_1detail_1_1base__types_1_1persisted.html" target="_top" xlink:title=" ">
<polygon fill="none" stroke="black" points="0,-49.5 0,-79.5 133,-79.5 133,-49.5 0,-49.5"/>
<text text-anchor="start" x="8" y="-67.5" font-family="Helvetica,sans-Serif" font-size="10.00">plang::detail::base</text>
<text text-anchor="middle" x="66.5" y="-56.5" font-family="Helvetica,sans-Serif" font-size="10.00">_types::persisted&lt; clazz &gt;</text>
</a>
</g>
</g>
<!-- Node2&#45;&gt;Node1 -->
<g id="edge1" class="edge">
<title>Node2&#45;&gt;Node1</title>
<path fill="none" stroke="midnightblue" d="M142.94,-51.71C151.71,-50.23 160.44,-48.75 168.65,-47.36"/>
<polygon fill="midnightblue" stroke="midnightblue" points="142.33,-48.27 133.05,-53.39 143.5,-55.17 142.33,-48.27"/>
</g>
<!-- Node3 -->
<g id="node3" class="node">
<title>Node3</title>
<g id="a_node3"><a xlink:href="classplang_1_1detail_1_1base__types_1_1decorated.html" target="_top" xlink:title="Base type for decorated classes.">
<polygon fill="none" stroke="black" points="18.5,-0.5 18.5,-30.5 114.5,-30.5 114.5,-0.5 18.5,-0.5"/>
<text text-anchor="start" x="26.5" y="-18.5" font-family="Helvetica,sans-Serif" font-size="10.00">plang::detail::base</text>
<text text-anchor="middle" x="66.5" y="-7.5" font-family="Helvetica,sans-Serif" font-size="10.00">_types::decorated</text>
</a>
</g>
</g>
<!-- Node3&#45;&gt;Node1 -->
<g id="edge2" class="edge">
<title>Node3&#45;&gt;Node1</title>
<path fill="none" stroke="midnightblue" d="M124.55,-24.78C139.23,-27.17 154.83,-29.71 168.88,-31.99"/>
<polygon fill="midnightblue" stroke="midnightblue" points="125.01,-21.31 114.58,-23.16 123.88,-28.22 125.01,-21.31"/>
</g>
</g>
</svg>
