<?xml version="1.0" encoding="UTF-8" standalone="no"?>
<!DOCTYPE svg PUBLIC "-//W3C//DTD SVG 1.1//EN"
 "http://www.w3.org/Graphics/SVG/1.1/DTD/svg11.dtd">
<!-- Generated by graphviz version 2.44.1 (20220725.2034)
 -->
<!-- Title: plang::detail::base_types::persisted Pages: 1 -->
<svg width="259pt" height="836pt"
 viewBox="0.00 0.00 259.00 835.50" xmlns="http://www.w3.org/2000/svg" xmlns:xlink="http://www.w3.org/1999/xlink">
<g id="graph0" class="graph" transform="scale(1 1) rotate(0) translate(4 831.5)">
<title>plang::detail::base_types::persisted</title>
<!-- Node1 -->
<g id="node1" class="node">
<title>Node1</title>
<g id="a_node1"><a xlink:title="Base type for persisted classes.">
<polygon fill="#bfbfbf" stroke="black" points="0,-410 0,-440 96,-440 96,-410 0,-410"/>
<text text-anchor="start" x="8" y="-428" font-family="Helvetica,sans-Serif" font-size="10.00">plang::detail::base</text>
<text text-anchor="middle" x="48" y="-417" font-family="Helvetica,sans-Serif" font-size="10.00">_types::persisted</text>
</a>
</g>
</g>
<!-- Node2 -->
<g id="node2" class="node">
<title>Node2</title>
<g id="a_node2"><a xlink:href="classplang_1_1plot_1_1object_1_1clazz.html" target="_top" xlink:title=" ">
<polygon fill="none" stroke="black" points="144.5,-797 144.5,-827 238.5,-827 238.5,-797 144.5,-797"/>
<text text-anchor="start" x="152.5" y="-815" font-family="Helvetica,sans-Serif" font-size="10.00">plang::plot::object</text>
<text text-anchor="middle" x="191.5" y="-804" font-family="Helvetica,sans-Serif" font-size="10.00">::clazz</text>
</a>
</g>
</g>
<!-- Node1&#45;&gt;Node2 -->
<g id="edge1" class="edge">
<title>Node1&#45;&gt;Node2</title>
<path fill="none" stroke="midnightblue" d="M51.74,-450.21C60.19,-523.75 87.97,-736.05 132,-788 135.48,-792.1 139.77,-795.52 144.43,-798.35"/>
<polygon fill="midnightblue" stroke="midnightblue" points="55.19,-449.57 50.59,-440.03 48.24,-450.35 55.19,-449.57"/>
</g>
<!-- Node3 -->
<g id="node3" class="node">
<title>Node3</title>
<g id="a_node3"><a xlink:href="classplang_1_1plot_1_1object_1_1clazz_1_1hint_1_1lit.html" target="_top" xlink:title=" ">
<polygon fill="none" stroke="black" points="144.5,-748 144.5,-778 238.5,-778 238.5,-748 144.5,-748"/>
<text text-anchor="start" x="152.5" y="-766" font-family="Helvetica,sans-Serif" font-size="10.00">plang::plot::object</text>
<text text-anchor="middle" x="191.5" y="-755" font-family="Helvetica,sans-Serif" font-size="10.00">::clazz::hint::lit</text>
</a>
</g>
</g>
<!-- Node1&#45;&gt;Node3 -->
<g id="edge2" class="edge">
<title>Node1&#45;&gt;Node3</title>
<path fill="none" stroke="midnightblue" d="M48.5,-450.42C48.72,-508.75 57.26,-653.77 132,-739 135.47,-742.96 139.7,-746.28 144.28,-749.06"/>
<polygon fill="midnightblue" stroke="midnightblue" points="52,-450.27 48.54,-440.26 45,-450.24 52,-450.27"/>
</g>
<!-- Node4 -->
<g id="node4" class="node">
<title>Node4</title>
<g id="a_node4"><a xlink:href="classplang_1_1plot_1_1object_1_1clazz_1_1hint_1_1pnt.html" target="_top" xlink:title=" ">
<polygon fill="none" stroke="black" points="144.5,-699 144.5,-729 238.5,-729 238.5,-699 144.5,-699"/>
<text text-anchor="start" x="152.5" y="-717" font-family="Helvetica,sans-Serif" font-size="10.00">plang::plot::object</text>
<text text-anchor="middle" x="191.5" y="-706" font-family="Helvetica,sans-Serif" font-size="10.00">::clazz::hint::pnt</text>
</a>
</g>
</g>
<!-- Node1&#45;&gt;Node4 -->
<g id="edge3" class="edge">
<title>Node1&#45;&gt;Node4</title>
<path fill="none" stroke="midnightblue" d="M50.01,-450.29C53.38,-501.89 68.07,-620.34 132,-690 135.56,-693.88 139.85,-697.15 144.45,-699.9"/>
<polygon fill="midnightblue" stroke="midnightblue" points="53.49,-449.84 49.43,-440.05 46.5,-450.23 53.49,-449.84"/>
</g>
<!-- Node5 -->
<g id="node5" class="node">
<title>Node5</title>
<g id="a_node5"><a xlink:href="classplang_1_1plot_1_1object_1_1clazz_1_1hint_1_1sym.html" target="_top" xlink:title=" ">
<polygon fill="none" stroke="black" points="144.5,-650 144.5,-680 238.5,-680 238.5,-650 144.5,-650"/>
<text text-anchor="start" x="152.5" y="-668" font-family="Helvetica,sans-Serif" font-size="10.00">plang::plot::object</text>
<text text-anchor="middle" x="191.5" y="-657" font-family="Helvetica,sans-Serif" font-size="10.00">::clazz::hint::sym</text>
</a>
</g>
</g>
<!-- Node1&#45;&gt;Node5 -->
<g id="edge4" class="edge">
<title>Node1&#45;&gt;Node5</title>
<path fill="none" stroke="midnightblue" d="M52.29,-450.3C59.27,-494.35 79.49,-585.59 132,-640 135.68,-643.81 140.04,-647.08 144.69,-649.86"/>
<polygon fill="midnightblue" stroke="midnightblue" points="55.72,-449.55 50.79,-440.17 48.79,-450.58 55.72,-449.55"/>
</g>
<!-- Node6 -->
<g id="node6" class="node">
<title>Node6</title>
<g id="a_node6"><a xlink:href="classplang_1_1plot_1_1object_1_1cls.html" target="_top" xlink:title=" ">
<polygon fill="none" stroke="black" points="135,-611.5 135,-630.5 248,-630.5 248,-611.5 135,-611.5"/>
<text text-anchor="middle" x="191.5" y="-618.5" font-family="Helvetica,sans-Serif" font-size="10.00">plang::plot::object::cls</text>
</a>
</g>
</g>
<!-- Node1&#45;&gt;Node6 -->
<g id="edge5" class="edge">
<title>Node1&#45;&gt;Node6</title>
<path fill="none" stroke="midnightblue" d="M54.07,-450.06C63.08,-488.26 85.48,-560.94 132,-602 136.4,-605.89 141.61,-608.98 147.08,-611.44"/>
<polygon fill="midnightblue" stroke="midnightblue" points="57.47,-449.25 51.87,-440.26 50.64,-450.78 57.47,-449.25"/>
</g>
<!-- Node7 -->
<g id="node7" class="node">
<title>Node7</title>
<g id="a_node7"><a xlink:href="classplang_1_1plot_1_1object_1_1lit.html" target="_top" xlink:title=" ">
<polygon fill="none" stroke="black" points="138,-573.5 138,-592.5 245,-592.5 245,-573.5 138,-573.5"/>
<text text-anchor="middle" x="191.5" y="-580.5" font-family="Helvetica,sans-Serif" font-size="10.00">plang::plot::object::lit</text>
</a>
</g>
</g>
<!-- Node1&#45;&gt;Node7 -->
<g id="edge6" class="edge">
<title>Node1&#45;&gt;Node7</title>
<path fill="none" stroke="midnightblue" d="M57.63,-450.07C69.59,-481.17 94.1,-533.77 132,-564 136.84,-567.86 142.49,-570.95 148.34,-573.41"/>
<polygon fill="midnightblue" stroke="midnightblue" points="60.81,-448.57 54.06,-440.41 54.25,-451 60.81,-448.57"/>
</g>
<!-- Node8 -->
<g id="node8" class="node">
<title>Node8</title>
<g id="a_node8"><a xlink:href="classplang_1_1plot_1_1object_1_1pnt.html" target="_top" xlink:title=" ">
<polygon fill="none" stroke="black" points="135,-535.5 135,-554.5 248,-554.5 248,-535.5 135,-535.5"/>
<text text-anchor="middle" x="191.5" y="-542.5" font-family="Helvetica,sans-Serif" font-size="10.00">plang::plot::object::pnt</text>
</a>
</g>
</g>
<!-- Node1&#45;&gt;Node8 -->
<g id="edge7" class="edge">
<title>Node1&#45;&gt;Node8</title>
<path fill="none" stroke="midnightblue" d="M63.1,-449.1C77.64,-471.97 102.33,-505.77 132,-526 137.65,-529.85 144.13,-532.96 150.67,-535.47"/>
<polygon fill="midnightblue" stroke="midnightblue" points="65.91,-447 57.68,-440.33 59.96,-450.68 65.91,-447"/>
</g>
<!-- Node9 -->
<g id="node9" class="node">
<title>Node9</title>
<g id="a_node9"><a xlink:href="classplang_1_1plot_1_1object_1_1sym.html" target="_top" xlink:title=" ">
<polygon fill="none" stroke="black" points="132,-497.5 132,-516.5 251,-516.5 251,-497.5 132,-497.5"/>
<text text-anchor="middle" x="191.5" y="-504.5" font-family="Helvetica,sans-Serif" font-size="10.00">plang::plot::object::sym</text>
</a>
</g>
</g>
<!-- Node1&#45;&gt;Node9 -->
<g id="edge8" class="edge">
<title>Node1&#45;&gt;Node9</title>
<path fill="none" stroke="midnightblue" d="M73.05,-446.73C88.88,-460.11 110.57,-476.8 132,-488 139,-491.66 146.85,-494.79 154.46,-497.4"/>
<polygon fill="midnightblue" stroke="midnightblue" points="75.2,-443.96 65.34,-440.08 70.63,-449.26 75.2,-443.96"/>
</g>
<!-- Node10 -->
<g id="node10" class="node">
<title>Node10</title>
<g id="a_node10"><a xlink:href="classplang_1_1plot_1_1point.html" target="_top" xlink:title=" ">
<polygon fill="none" stroke="black" points="147,-459.5 147,-478.5 236,-478.5 236,-459.5 147,-459.5"/>
<text text-anchor="middle" x="191.5" y="-466.5" font-family="Helvetica,sans-Serif" font-size="10.00">plang::plot::point</text>
</a>
</g>
</g>
<!-- Node1&#45;&gt;Node10 -->
<g id="edge9" class="edge">
<title>Node1&#45;&gt;Node10</title>
<path fill="none" stroke="midnightblue" d="M105.86,-442.68C124.21,-448.39 143.86,-454.5 159.61,-459.39"/>
<polygon fill="midnightblue" stroke="midnightblue" points="106.71,-439.28 96.12,-439.65 104.63,-445.96 106.71,-439.28"/>
</g>
<!-- Node11 -->
<g id="node11" class="node">
<title>Node11</title>
<g id="a_node11"><a xlink:href="classplang_1_1plot_1_1point_1_1clazz.html" target="_top" xlink:title=" ">
<polygon fill="none" stroke="black" points="147,-410 147,-440 236,-440 236,-410 147,-410"/>
<text text-anchor="start" x="155" y="-428" font-family="Helvetica,sans-Serif" font-size="10.00">plang::plot::point</text>
<text text-anchor="middle" x="191.5" y="-417" font-family="Helvetica,sans-Serif" font-size="10.00">::clazz</text>
</a>
</g>
</g>
<!-- Node1&#45;&gt;Node11 -->
<g id="edge10" class="edge">
<title>Node1&#45;&gt;Node11</title>
<path fill="none" stroke="midnightblue" d="M106.31,-425C119.87,-425 134.1,-425 146.93,-425"/>
<polygon fill="midnightblue" stroke="midnightblue" points="106.12,-421.5 96.12,-425 106.12,-428.5 106.12,-421.5"/>
</g>
<!-- Node12 -->
<g id="node12" class="node">
<title>Node12</title>
<g id="a_node12"><a xlink:href="classplang_1_1plot_1_1point_1_1clazz_1_1hint.html" target="_top" xlink:title=" ">
<polygon fill="none" stroke="black" points="147,-361 147,-391 236,-391 236,-361 147,-361"/>
<text text-anchor="start" x="155" y="-379" font-family="Helvetica,sans-Serif" font-size="10.00">plang::plot::point</text>
<text text-anchor="middle" x="191.5" y="-368" font-family="Helvetica,sans-Serif" font-size="10.00">::clazz::hint</text>
</a>
</g>
</g>
<!-- Node1&#45;&gt;Node12 -->
<g id="edge11" class="edge">
<title>Node1&#45;&gt;Node12</title>
<path fill="none" stroke="midnightblue" d="M102.1,-406.61C116.84,-401.51 132.66,-396.03 146.79,-391.14"/>
<polygon fill="midnightblue" stroke="midnightblue" points="100.91,-403.32 92.61,-409.9 103.2,-409.93 100.91,-403.32"/>
</g>
<!-- Node13 -->
<g id="node13" class="node">
<title>Node13</title>
<g id="a_node13"><a xlink:href="classplang_1_1plot_1_1point_1_1subject_1_1cls.html" target="_top" xlink:title=" ">
<polygon fill="none" stroke="black" points="147,-312 147,-342 236,-342 236,-312 147,-312"/>
<text text-anchor="start" x="155" y="-330" font-family="Helvetica,sans-Serif" font-size="10.00">plang::plot::point</text>
<text text-anchor="middle" x="191.5" y="-319" font-family="Helvetica,sans-Serif" font-size="10.00">::subject::cls</text>
</a>
</g>
</g>
<!-- Node1&#45;&gt;Node13 -->
<g id="edge12" class="edge">
<title>Node1&#45;&gt;Node13</title>
<path fill="none" stroke="midnightblue" d="M70.36,-402.76C86.28,-387.09 109.12,-366.43 132,-352 137.79,-348.35 144.21,-345 150.61,-342.02"/>
<polygon fill="midnightblue" stroke="midnightblue" points="67.73,-400.45 63.14,-410 72.68,-405.39 67.73,-400.45"/>
</g>
<!-- Node14 -->
<g id="node14" class="node">
<title>Node14</title>
<g id="a_node14"><a xlink:href="classplang_1_1plot_1_1point_1_1subject_1_1sym.html" target="_top" xlink:title=" ">
<polygon fill="none" stroke="black" points="147,-263 147,-293 236,-293 236,-263 147,-263"/>
<text text-anchor="start" x="155" y="-281" font-family="Helvetica,sans-Serif" font-size="10.00">plang::plot::point</text>
<text text-anchor="middle" x="191.5" y="-270" font-family="Helvetica,sans-Serif" font-size="10.00">::subject::sym</text>
</a>
</g>
</g>
<!-- Node1&#45;&gt;Node14 -->
<g id="edge13" class="edge">
<title>Node1&#45;&gt;Node14</title>
<path fill="none" stroke="midnightblue" d="M60.25,-400.65C73.85,-373.58 99.06,-330.11 132,-303 136.61,-299.21 141.87,-295.91 147.31,-293.05"/>
<polygon fill="midnightblue" stroke="midnightblue" points="57.02,-399.3 55.78,-409.82 63.31,-402.37 57.02,-399.3"/>
</g>
<!-- Node15 -->
<g id="node15" class="node">
<title>Node15</title>
<g id="a_node15"><a xlink:href="classplang_1_1plot_1_1symbol.html" target="_top" xlink:title=" ">
<polygon fill="none" stroke="black" points="142,-224.5 142,-243.5 241,-243.5 241,-224.5 142,-224.5"/>
<text text-anchor="middle" x="191.5" y="-231.5" font-family="Helvetica,sans-Serif" font-size="10.00">plang::plot::symbol</text>
</a>
</g>
</g>
<!-- Node1&#45;&gt;Node15 -->
<g id="edge14" class="edge">
<title>Node1&#45;&gt;Node15</title>
<path fill="none" stroke="midnightblue" d="M54.66,-399.83C64.26,-362.76 87.23,-293.6 132,-254 136.9,-249.66 142.79,-246.26 148.92,-243.58"/>
<polygon fill="midnightblue" stroke="midnightblue" points="51.19,-399.27 52.2,-409.81 57.99,-400.94 51.19,-399.27"/>
</g>
<!-- Node16 -->
<g id="node16" class="node">
<title>Node16</title>
<g id="a_node16"><a xlink:href="classplang_1_1plot_1_1symbol_1_1clazz.html" target="_top" xlink:title=" ">
<polygon fill="none" stroke="black" points="142,-175 142,-205 241,-205 241,-175 142,-175"/>
<text text-anchor="start" x="150" y="-193" font-family="Helvetica,sans-Serif" font-size="10.00">plang::plot::symbol</text>
<text text-anchor="middle" x="191.5" y="-182" font-family="Helvetica,sans-Serif" font-size="10.00">::clazz</text>
</a>
</g>
</g>
<!-- Node1&#45;&gt;Node16 -->
<g id="edge15" class="edge">
<title>Node1&#45;&gt;Node16</title>
<path fill="none" stroke="midnightblue" d="M52.52,-399.96C59.82,-356.81 80.46,-267.97 132,-215 135.7,-211.2 140.06,-207.95 144.72,-205.17"/>
<polygon fill="midnightblue" stroke="midnightblue" points="49.05,-399.47 50.94,-409.9 55.96,-400.57 49.05,-399.47"/>
</g>
<!-- Node17 -->
<g id="node17" class="node">
<title>Node17</title>
<g id="a_node17"><a xlink:href="classplang_1_1plot_1_1symbol_1_1clazz_1_1hint.html" target="_top" xlink:title=" ">
<polygon fill="none" stroke="black" points="142,-126 142,-156 241,-156 241,-126 142,-126"/>
<text text-anchor="start" x="150" y="-144" font-family="Helvetica,sans-Serif" font-size="10.00">plang::plot::symbol</text>
<text text-anchor="middle" x="191.5" y="-133" font-family="Helvetica,sans-Serif" font-size="10.00">::clazz::hint</text>
</a>
</g>
</g>
<!-- Node1&#45;&gt;Node17 -->
<g id="edge16" class="edge">
<title>Node1&#45;&gt;Node17</title>
<path fill="none" stroke="midnightblue" d="M50.32,-399.63C54.27,-348.93 69.96,-234.15 132,-166 135.49,-162.16 139.68,-158.89 144.18,-156.11"/>
<polygon fill="midnightblue" stroke="midnightblue" points="46.82,-399.49 49.63,-409.71 53.81,-399.97 46.82,-399.49"/>
</g>
<!-- Node18 -->
<g id="node18" class="node">
<title>Node18</title>
<g id="a_node18"><a xlink:href="classplang_1_1plot_1_1symbol_1_1compound.html" target="_top" xlink:title=" ">
<polygon fill="none" stroke="black" points="142,-77 142,-107 241,-107 241,-77 142,-77"/>
<text text-anchor="start" x="150" y="-95" font-family="Helvetica,sans-Serif" font-size="10.00">plang::plot::symbol</text>
<text text-anchor="middle" x="191.5" y="-84" font-family="Helvetica,sans-Serif" font-size="10.00">::compound</text>
</a>
</g>
</g>
<!-- Node1&#45;&gt;Node18 -->
<g id="edge17" class="edge">
<title>Node1&#45;&gt;Node18</title>
<path fill="none" stroke="midnightblue" d="M48.75,-399.73C49.51,-342.38 59.17,-200.87 132,-117 135.33,-113.16 139.35,-109.9 143.71,-107.12"/>
<polygon fill="midnightblue" stroke="midnightblue" points="45.25,-399.72 48.69,-409.73 52.25,-399.75 45.25,-399.72"/>
</g>
<!-- Node19 -->
<g id="node19" class="node">
<title>Node19</title>
<g id="a_node19"><a xlink:href="classplang_1_1root_1_1path.html" target="_top" xlink:title="A node in the corpus&#39; path tree.">
<polygon fill="none" stroke="black" points="148,-38.5 148,-57.5 235,-57.5 235,-38.5 148,-38.5"/>
<text text-anchor="middle" x="191.5" y="-45.5" font-family="Helvetica,sans-Serif" font-size="10.00">plang::root::path</text>
</a>
</g>
</g>
<!-- Node1&#45;&gt;Node19 -->
<g id="edge18" class="edge">
<title>Node1&#45;&gt;Node19</title>
<path fill="none" stroke="midnightblue" d="M51.71,-399.58C59.99,-326.46 87.16,-117.62 132,-68 136.32,-63.22 141.83,-59.59 147.73,-56.82"/>
<polygon fill="midnightblue" stroke="midnightblue" points="48.21,-399.41 50.59,-409.73 55.17,-400.18 48.21,-399.41"/>
</g>
<!-- Node20 -->
<g id="node20" class="node">
<title>Node20</title>
<g id="a_node20"><a xlink:href="classplang_1_1root_1_1source.html" target="_top" xlink:title="A source of data inside a corpus.">
<polygon fill="none" stroke="black" points="142.5,-0.5 142.5,-19.5 240.5,-19.5 240.5,-0.5 142.5,-0.5"/>
<text text-anchor="middle" x="191.5" y="-7.5" font-family="Helvetica,sans-Serif" font-size="10.00">plang::root::source</text>
</a>
</g>
</g>
<!-- Node1&#45;&gt;Node20 -->
<g id="edge19" class="edge">
<title>Node1&#45;&gt;Node20</title>
<path fill="none" stroke="midnightblue" d="M51.05,-399.45C57.85,-320.83 82.12,-84.54 132,-29 135.5,-25.11 139.8,-22.01 144.47,-19.54"/>
<polygon fill="midnightblue" stroke="midnightblue" points="47.53,-399.6 50.17,-409.86 54.5,-400.19 47.53,-399.6"/>
</g>
</g>
</svg>
