<?xml version="1.0" encoding="UTF-8" standalone="no"?>
<!DOCTYPE svg PUBLIC "-//W3C//DTD SVG 1.1//EN"
 "http://www.w3.org/Graphics/SVG/1.1/DTD/svg11.dtd">
<!-- Generated by graphviz version 2.44.1 (20220725.2034)
 -->
<!-- Title: plang::plot::symbol Pages: 1 -->
<svg width="218pt" height="95pt"
 viewBox="0.00 0.00 218.00 95.00" xmlns="http://www.w3.org/2000/svg" xmlns:xlink="http://www.w3.org/1999/xlink">
<g id="graph0" class="graph" transform="scale(1 1) rotate(0) translate(4 91)">
<title>plang::plot::symbol</title>
<!-- Node1 -->
<g id="node1" class="node">
<title>Node1</title>
<g id="a_node1"><a xlink:title=" ">
<polygon fill="#bfbfbf" stroke="black" points="55.5,-0.5 55.5,-19.5 154.5,-19.5 154.5,-0.5 55.5,-0.5"/>
<text text-anchor="middle" x="105" y="-7.5" font-family="Helvetica,sans-Serif" font-size="10.00">plang::plot::symbol</text>
</a>
</g>
</g>
<!-- Node2 -->
<g id="node2" class="node">
<title>Node2</title>
<g id="a_node2"><a xlink:href="classplang_1_1detail_1_1base__types_1_1persisted.html" target="_top" xlink:title="Base type for persisted classes.">
<polygon fill="none" stroke="black" points="0,-56.5 0,-86.5 96,-86.5 96,-56.5 0,-56.5"/>
<text text-anchor="start" x="8" y="-74.5" font-family="Helvetica,sans-Serif" font-size="10.00">plang::detail::base</text>
<text text-anchor="middle" x="48" y="-63.5" font-family="Helvetica,sans-Serif" font-size="10.00">_types::persisted</text>
</a>
</g>
</g>
<!-- Node2&#45;&gt;Node1 -->
<g id="edge1" class="edge">
<title>Node2&#45;&gt;Node1</title>
<path fill="none" stroke="midnightblue" d="M68.59,-49C78.31,-38.86 89.35,-27.33 96.71,-19.66"/>
<polygon fill="midnightblue" stroke="midnightblue" points="65.9,-46.76 61.51,-56.4 70.95,-51.6 65.9,-46.76"/>
</g>
<!-- Node3 -->
<g id="node3" class="node">
<title>Node3</title>
<g id="a_node3"><a xlink:href="classplang_1_1detail_1_1base__types_1_1decorated.html" target="_top" xlink:title="Base type for decorated classes.">
<polygon fill="none" stroke="black" points="114,-56.5 114,-86.5 210,-86.5 210,-56.5 114,-56.5"/>
<text text-anchor="start" x="122" y="-74.5" font-family="Helvetica,sans-Serif" font-size="10.00">plang::detail::base</text>
<text text-anchor="middle" x="162" y="-63.5" font-family="Helvetica,sans-Serif" font-size="10.00">_types::decorated</text>
</a>
</g>
</g>
<!-- Node3&#45;&gt;Node1 -->
<g id="edge2" class="edge">
<title>Node3&#45;&gt;Node1</title>
<path fill="none" stroke="midnightblue" d="M141.41,-49C131.69,-38.86 120.65,-27.33 113.29,-19.66"/>
<polygon fill="midnightblue" stroke="midnightblue" points="139.05,-51.6 148.49,-56.4 144.1,-46.76 139.05,-51.6"/>
</g>
</g>
</svg>
