<?xml version="1.0" encoding="UTF-8" standalone="no"?>
<!DOCTYPE svg PUBLIC "-//W3C//DTD SVG 1.1//EN"
 "http://www.w3.org/Graphics/SVG/1.1/DTD/svg11.dtd">
<!-- Generated by graphviz version 2.44.1 (20220725.2034)
 -->
<!-- Title: plang::corpus Pages: 1 -->
<svg width="933pt" height="183pt"
 viewBox="0.00 0.00 933.00 183.27" xmlns="http://www.w3.org/2000/svg" xmlns:xlink="http://www.w3.org/1999/xlink">
<g id="graph0" class="graph" transform="scale(1 1) rotate(0) translate(4 179.27)">
<title>plang::corpus</title>
<!-- Node1 -->
<g id="node1" class="node">
<title>Node1</title>
<g id="a_node1"><a xlink:title="The main interface for interacting with a corpus.">
<polygon fill="#bfbfbf" stroke="black" points="850,-126.5 850,-145.5 925,-145.5 925,-126.5 850,-126.5"/>
<text text-anchor="middle" x="887.5" y="-133.5" font-family="Helvetica,sans-Serif" font-size="10.00">plang::corpus</text>
</a>
</g>
</g>
<!-- Node2 -->
<g id="node2" class="node">
<title>Node2</title>
<g id="a_node2"><a xlink:href="classplang_1_1detail_1_1corpus.html" target="_top" xlink:title="Provides a basic interface to a database.">
<polygon fill="none" stroke="black" points="0,-98.5 0,-117.5 104,-117.5 104,-98.5 0,-98.5"/>
<text text-anchor="middle" x="52" y="-105.5" font-family="Helvetica,sans-Serif" font-size="10.00">plang::detail::corpus</text>
</a>
</g>
</g>
<!-- Node2&#45;&gt;Node1 -->
<g id="edge1" class="edge">
<title>Node2&#45;&gt;Node1</title>
<path fill="none" stroke="midnightblue" d="M75.32,-123.25C92.28,-134.02 116.61,-147.78 140,-155 217.92,-179.06 240.95,-174 322.5,-174 322.5,-174 322.5,-174 616,-174 700.41,-174 798.21,-155.63 849.98,-144.43"/>
<polygon fill="midnightblue" stroke="midnightblue" points="77,-120.16 66.71,-117.63 73.17,-126.02 77,-120.16"/>
</g>
<!-- Node5 -->
<g id="node5" class="node">
<title>Node5</title>
<g id="a_node5"><a xlink:href="classplang_1_1detail_1_1path__manager.html" target="_top" xlink:title="Handles database actions for paths.">
<polygon fill="none" stroke="black" points="140,-115 140,-145 234,-145 234,-115 140,-115"/>
<text text-anchor="start" x="148" y="-133" font-family="Helvetica,sans-Serif" font-size="10.00">plang::detail::path</text>
<text text-anchor="middle" x="187" y="-122" font-family="Helvetica,sans-Serif" font-size="10.00">_manager</text>
</a>
</g>
</g>
<!-- Node2&#45;&gt;Node5 -->
<g id="edge5" class="edge">
<title>Node2&#45;&gt;Node5</title>
<path fill="none" stroke="darkgreen" d="M114.06,-118.1C122.67,-119.52 131.4,-120.97 139.67,-122.34"/>
<polygon fill="darkgreen" stroke="darkgreen" points="114.48,-114.62 104.04,-116.44 113.34,-121.53 114.48,-114.62"/>
</g>
<!-- Node6 -->
<g id="node6" class="node">
<title>Node6</title>
<g id="a_node6"><a xlink:href="classplang_1_1detail_1_1symbol__class__manager.html" target="_top" xlink:title=" ">
<polygon fill="none" stroke="black" points="270,-77 270,-107 377,-107 377,-77 270,-77"/>
<text text-anchor="start" x="278" y="-95" font-family="Helvetica,sans-Serif" font-size="10.00">plang::detail::symbol</text>
<text text-anchor="middle" x="323.5" y="-84" font-family="Helvetica,sans-Serif" font-size="10.00">_class_manager</text>
</a>
</g>
</g>
<!-- Node2&#45;&gt;Node6 -->
<g id="edge7" class="edge">
<title>Node2&#45;&gt;Node6</title>
<path fill="none" stroke="darkgreen" d="M114.05,-104.38C160.99,-101.59 225.16,-97.78 269.86,-95.13"/>
<polygon fill="darkgreen" stroke="darkgreen" points="113.78,-100.89 104.01,-104.97 114.2,-107.87 113.78,-100.89"/>
</g>
<!-- Node7 -->
<g id="node7" class="node">
<title>Node7</title>
<g id="a_node7"><a xlink:href="classplang_1_1detail_1_1symbol__manager.html" target="_top" xlink:title=" ">
<polygon fill="none" stroke="black" points="413,-39 413,-69 520,-69 520,-39 413,-39"/>
<text text-anchor="start" x="421" y="-57" font-family="Helvetica,sans-Serif" font-size="10.00">plang::detail::symbol</text>
<text text-anchor="middle" x="466.5" y="-46" font-family="Helvetica,sans-Serif" font-size="10.00">_manager</text>
</a>
</g>
</g>
<!-- Node2&#45;&gt;Node7 -->
<g id="edge10" class="edge">
<title>Node2&#45;&gt;Node7</title>
<path fill="none" stroke="darkgreen" d="M105.02,-96.35C148.8,-86.98 213.19,-74.23 270,-67 318.08,-60.88 373.21,-57.55 412.64,-55.79"/>
<polygon fill="darkgreen" stroke="darkgreen" points="104.21,-92.94 95.17,-98.47 105.69,-99.78 104.21,-92.94"/>
</g>
<!-- Node3 -->
<g id="node3" class="node">
<title>Node3</title>
<g id="a_node3"><a xlink:href="structplang_1_1detail_1_1corpus__mixins.html" target="_top" xlink:title="Base class for the corpus.">
<polygon fill="none" stroke="black" points="710,-99 710,-129 814,-129 814,-99 710,-99"/>
<text text-anchor="start" x="718" y="-117" font-family="Helvetica,sans-Serif" font-size="10.00">plang::detail::corpus</text>
<text text-anchor="middle" x="762" y="-106" font-family="Helvetica,sans-Serif" font-size="10.00">_mixins</text>
</a>
</g>
</g>
<!-- Node3&#45;&gt;Node1 -->
<g id="edge2" class="edge">
<title>Node3&#45;&gt;Node1</title>
<path fill="none" stroke="midnightblue" d="M824.17,-124.9C832.95,-126.46 841.74,-128.03 849.85,-129.47"/>
<polygon fill="midnightblue" stroke="midnightblue" points="824.76,-121.45 814.3,-123.14 823.53,-128.34 824.76,-121.45"/>
</g>
<!-- Node4 -->
<g id="node4" class="node">
<title>Node4</title>
<g id="a_node4"><a xlink:href="structplang_1_1detail_1_1mixin__base.html" target="_top" xlink:title=" ">
<polygon fill="none" stroke="black" points="556,-61 556,-135 674,-135 674,-61 556,-61"/>
<text text-anchor="start" x="564" y="-123" font-family="Helvetica,sans-Serif" font-size="10.00">plang::detail::mixin</text>
<text text-anchor="start" x="564" y="-112" font-family="Helvetica,sans-Serif" font-size="10.00">_base&lt; plang::detail</text>
<text text-anchor="start" x="564" y="-101" font-family="Helvetica,sans-Serif" font-size="10.00">::path_manager, plang</text>
<text text-anchor="start" x="564" y="-90" font-family="Helvetica,sans-Serif" font-size="10.00">::detail::symbol_class</text>
<text text-anchor="start" x="564" y="-79" font-family="Helvetica,sans-Serif" font-size="10.00">_manager, plang::detail</text>
<text text-anchor="middle" x="615" y="-68" font-family="Helvetica,sans-Serif" font-size="10.00">::symbol_manager &gt;</text>
</a>
</g>
</g>
<!-- Node4&#45;&gt;Node3 -->
<g id="edge3" class="edge">
<title>Node4&#45;&gt;Node3</title>
<path fill="none" stroke="midnightblue" d="M684.21,-105.53C692.84,-106.48 701.56,-107.44 709.86,-108.36"/>
<polygon fill="midnightblue" stroke="midnightblue" points="684.47,-102.03 674.14,-104.42 683.7,-108.99 684.47,-102.03"/>
</g>
<!-- Node5&#45;&gt;Node4 -->
<g id="edge4" class="edge">
<title>Node5&#45;&gt;Node4</title>
<path fill="none" stroke="midnightblue" d="M244.43,-126.95C310.53,-123.21 423.31,-116.34 520,-108 531.61,-107 544.01,-105.78 555.87,-104.55"/>
<polygon fill="midnightblue" stroke="midnightblue" points="244.02,-123.46 234.23,-127.52 244.41,-130.45 244.02,-123.46"/>
</g>
<!-- Node5&#45;&gt;Node6 -->
<g id="edge8" class="edge">
<title>Node5&#45;&gt;Node6</title>
<path fill="none" stroke="darkgreen" d="M244.08,-114.15C252.55,-111.76 261.26,-109.3 269.66,-106.93"/>
<polygon fill="darkgreen" stroke="darkgreen" points="242.96,-110.84 234.29,-116.92 244.86,-117.57 242.96,-110.84"/>
</g>
<!-- Node6&#45;&gt;Node4 -->
<g id="edge6" class="edge">
<title>Node6&#45;&gt;Node4</title>
<path fill="none" stroke="midnightblue" d="M387.33,-93.3C437.43,-94.34 507.06,-95.78 555.88,-96.8"/>
<polygon fill="midnightblue" stroke="midnightblue" points="387.33,-89.8 377.26,-93.09 387.19,-96.8 387.33,-89.8"/>
</g>
<!-- Node6&#45;&gt;Node7 -->
<g id="edge11" class="edge">
<title>Node6&#45;&gt;Node7</title>
<path fill="none" stroke="darkgreen" d="M386.77,-75.22C395.51,-72.86 404.42,-70.46 412.95,-68.16"/>
<polygon fill="darkgreen" stroke="darkgreen" points="385.75,-71.87 377,-77.85 387.57,-78.63 385.75,-71.87"/>
</g>
<!-- Node7&#45;&gt;Node4 -->
<g id="edge9" class="edge">
<title>Node7&#45;&gt;Node4</title>
<path fill="none" stroke="midnightblue" d="M527.23,-71.94C536.69,-74.78 546.47,-77.72 555.89,-80.55"/>
<polygon fill="midnightblue" stroke="midnightblue" points="528.09,-68.54 517.51,-69.02 526.08,-75.25 528.09,-68.54"/>
</g>
<!-- Node8 -->
<g id="node8" class="node">
<title>Node8</title>
<g id="a_node8"><a xlink:title=" ">
<polygon fill="none" stroke="#bfbfbf" points="450,-0.5 450,-19.5 483,-19.5 483,-0.5 450,-0.5"/>
<text text-anchor="middle" x="466.5" y="-7.5" font-family="Helvetica,sans-Serif" font-size="10.00">Tps</text>
</a>
</g>
</g>
<!-- Node8&#45;&gt;Node4 -->
<g id="edge12" class="edge">
<title>Node8&#45;&gt;Node4</title>
<path fill="none" stroke="midnightblue" d="M492.92,-17.56C501.73,-20.6 511.52,-24.47 520,-29 536.79,-37.96 553.92,-49.64 568.88,-60.84"/>
<polygon fill="midnightblue" stroke="midnightblue" points="493.75,-14.15 483.16,-14.37 491.58,-20.8 493.75,-14.15"/>
</g>
</g>
</svg>
