<?xml version="1.0" encoding="UTF-8" standalone="no"?>
<!DOCTYPE svg PUBLIC "-//W3C//DTD SVG 1.1//EN"
 "http://www.w3.org/Graphics/SVG/1.1/DTD/svg11.dtd">
<!-- Generated by graphviz version 2.44.1 (20220725.2034)
 -->
<!-- Title: plang::detail::point_class_manager Pages: 1 -->
<svg width="1082pt" height="188pt"
 viewBox="0.00 0.00 1082.00 187.50" xmlns="http://www.w3.org/2000/svg" xmlns:xlink="http://www.w3.org/1999/xlink">
<g id="graph0" class="graph" transform="scale(1 1) rotate(0) translate(4 183.5)">
<title>plang::detail::point_class_manager</title>
<!-- Node1 -->
<g id="node1" class="node">
<title>Node1</title>
<g id="a_node1"><a xlink:title=" ">
<polygon fill="#bfbfbf" stroke="black" points="550,-66.5 550,-96.5 646,-96.5 646,-66.5 550,-66.5"/>
<text text-anchor="start" x="558" y="-84.5" font-family="Helvetica,sans-Serif" font-size="10.00">plang::detail::point</text>
<text text-anchor="middle" x="598" y="-73.5" font-family="Helvetica,sans-Serif" font-size="10.00">_class_manager</text>
</a>
</g>
</g>
<!-- Node6 -->
<g id="node6" class="node">
<title>Node6</title>
<g id="a_node6"><a xlink:href="structplang_1_1detail_1_1mixin__base.html" target="_top" xlink:title=" ">
<polygon fill="none" stroke="black" points="682,-72 682,-179 823,-179 823,-72 682,-72"/>
<text text-anchor="start" x="690" y="-167" font-family="Helvetica,sans-Serif" font-size="10.00">plang::detail::mixin</text>
<text text-anchor="start" x="690" y="-156" font-family="Helvetica,sans-Serif" font-size="10.00">_base&lt; plang::detail</text>
<text text-anchor="start" x="690" y="-145" font-family="Helvetica,sans-Serif" font-size="10.00">::path_manager, plang</text>
<text text-anchor="start" x="690" y="-134" font-family="Helvetica,sans-Serif" font-size="10.00">::detail::symbol_class</text>
<text text-anchor="start" x="690" y="-123" font-family="Helvetica,sans-Serif" font-size="10.00">_manager, plang::detail</text>
<text text-anchor="start" x="690" y="-112" font-family="Helvetica,sans-Serif" font-size="10.00">::symbol_manager, plang::</text>
<text text-anchor="start" x="690" y="-101" font-family="Helvetica,sans-Serif" font-size="10.00">detail::point_class_manager,</text>
<text text-anchor="start" x="690" y="-90" font-family="Helvetica,sans-Serif" font-size="10.00"> plang::detail::object_class</text>
<text text-anchor="middle" x="752.5" y="-79" font-family="Helvetica,sans-Serif" font-size="10.00">_manager &gt;</text>
</a>
</g>
</g>
<!-- Node1&#45;&gt;Node6 -->
<g id="edge11" class="edge">
<title>Node1&#45;&gt;Node6</title>
<path fill="none" stroke="midnightblue" d="M656.06,-97.96C664.43,-100.38 673.13,-102.89 681.72,-105.37"/>
<polygon fill="midnightblue" stroke="midnightblue" points="656.99,-94.59 646.42,-95.18 655.05,-101.32 656.99,-94.59"/>
</g>
<!-- Node9 -->
<g id="node9" class="node">
<title>Node9</title>
<g id="a_node9"><a xlink:href="structplang_1_1detail_1_1mixin__base.html" target="_top" xlink:title="Common derived class template for distributed overloading.">
<polygon fill="none" stroke="black" points="703.5,-22.5 703.5,-52.5 801.5,-52.5 801.5,-22.5 703.5,-22.5"/>
<text text-anchor="start" x="711.5" y="-40.5" font-family="Helvetica,sans-Serif" font-size="10.00">plang::detail::mixin</text>
<text text-anchor="middle" x="752.5" y="-29.5" font-family="Helvetica,sans-Serif" font-size="10.00">_base&lt; Tps &gt;</text>
</a>
</g>
</g>
<!-- Node1&#45;&gt;Node9 -->
<g id="edge14" class="edge">
<title>Node1&#45;&gt;Node9</title>
<path fill="none" stroke="midnightblue" d="M656.39,-64.94C671.85,-60.48 688.42,-55.7 703.32,-51.4"/>
<polygon fill="midnightblue" stroke="midnightblue" points="655.05,-61.68 646.42,-67.82 656.99,-68.41 655.05,-61.68"/>
</g>
<!-- Node2 -->
<g id="node2" class="node">
<title>Node2</title>
<g id="a_node2"><a xlink:href="classplang_1_1detail_1_1corpus.html" target="_top" xlink:title="Provides a basic interface to a database.">
<polygon fill="none" stroke="black" points="0,-72 0,-91 104,-91 104,-72 0,-72"/>
<text text-anchor="middle" x="52" y="-79" font-family="Helvetica,sans-Serif" font-size="10.00">plang::detail::corpus</text>
</a>
</g>
</g>
<!-- Node2&#45;&gt;Node1 -->
<g id="edge1" class="edge">
<title>Node2&#45;&gt;Node1</title>
<path fill="none" stroke="darkgreen" d="M95.03,-93.95C109.24,-97.93 125.24,-102.17 140,-105.5 302.14,-142.12 351.93,-142.41 514,-105.5 525.7,-102.84 538.19,-99.49 549.84,-96.16"/>
<polygon fill="darkgreen" stroke="darkgreen" points="95.62,-90.48 85.04,-91.12 93.71,-97.22 95.62,-90.48"/>
</g>
<!-- Node3 -->
<g id="node3" class="node">
<title>Node3</title>
<g id="a_node3"><a xlink:href="classplang_1_1detail_1_1path__manager.html" target="_top" xlink:title="Handles database actions for paths.">
<polygon fill="none" stroke="black" points="140,-0.5 140,-30.5 234,-30.5 234,-0.5 140,-0.5"/>
<text text-anchor="start" x="148" y="-18.5" font-family="Helvetica,sans-Serif" font-size="10.00">plang::detail::path</text>
<text text-anchor="middle" x="187" y="-7.5" font-family="Helvetica,sans-Serif" font-size="10.00">_manager</text>
</a>
</g>
</g>
<!-- Node2&#45;&gt;Node3 -->
<g id="edge3" class="edge">
<title>Node2&#45;&gt;Node3</title>
<path fill="none" stroke="darkgreen" d="M81.43,-67.39C103.23,-56.57 133.27,-41.67 155.56,-30.61"/>
<polygon fill="darkgreen" stroke="darkgreen" points="79.74,-64.32 72.34,-71.9 82.85,-70.59 79.74,-64.32"/>
</g>
<!-- Node4 -->
<g id="node4" class="node">
<title>Node4</title>
<g id="a_node4"><a xlink:href="classplang_1_1detail_1_1symbol__class__manager.html" target="_top" xlink:title=" ">
<polygon fill="none" stroke="black" points="270,-88.5 270,-118.5 377,-118.5 377,-88.5 270,-88.5"/>
<text text-anchor="start" x="278" y="-106.5" font-family="Helvetica,sans-Serif" font-size="10.00">plang::detail::symbol</text>
<text text-anchor="middle" x="323.5" y="-95.5" font-family="Helvetica,sans-Serif" font-size="10.00">_class_manager</text>
</a>
</g>
</g>
<!-- Node2&#45;&gt;Node4 -->
<g id="edge5" class="edge">
<title>Node2&#45;&gt;Node4</title>
<path fill="none" stroke="darkgreen" d="M114.05,-86.48C160.99,-90.32 225.16,-95.55 269.86,-99.2"/>
<polygon fill="darkgreen" stroke="darkgreen" points="114.26,-82.99 104.01,-85.66 113.69,-89.97 114.26,-82.99"/>
</g>
<!-- Node5 -->
<g id="node5" class="node">
<title>Node5</title>
<g id="a_node5"><a xlink:href="classplang_1_1detail_1_1object__class__manager.html" target="_top" xlink:title=" ">
<polygon fill="none" stroke="black" points="413,-44.5 413,-74.5 514,-74.5 514,-44.5 413,-44.5"/>
<text text-anchor="start" x="421" y="-62.5" font-family="Helvetica,sans-Serif" font-size="10.00">plang::detail::object</text>
<text text-anchor="middle" x="463.5" y="-51.5" font-family="Helvetica,sans-Serif" font-size="10.00">_class_manager</text>
</a>
</g>
</g>
<!-- Node2&#45;&gt;Node5 -->
<g id="edge8" class="edge">
<title>Node2&#45;&gt;Node5</title>
<path fill="none" stroke="darkgreen" d="M114.12,-78.22C195.44,-73.85 337.63,-66.21 412.75,-62.17"/>
<polygon fill="darkgreen" stroke="darkgreen" points="113.83,-74.73 104.04,-78.76 114.21,-81.72 113.83,-74.73"/>
</g>
<!-- Node3&#45;&gt;Node1 -->
<g id="edge2" class="edge">
<title>Node3&#45;&gt;Node1</title>
<path fill="none" stroke="darkgreen" d="M244.44,-11.04C310.53,-7.57 422.61,-7.19 514,-34.5 536.85,-41.33 560.25,-55.35 576.36,-66.3"/>
<polygon fill="darkgreen" stroke="darkgreen" points="244.02,-7.56 234.23,-11.62 244.42,-14.55 244.02,-7.56"/>
</g>
<!-- Node3&#45;&gt;Node4 -->
<g id="edge6" class="edge">
<title>Node3&#45;&gt;Node4</title>
<path fill="none" stroke="darkgreen" d="M219.68,-36.22C244.07,-52.19 277.24,-73.89 299.23,-88.28"/>
<polygon fill="darkgreen" stroke="darkgreen" points="221.41,-33.17 211.12,-30.63 217.57,-39.03 221.41,-33.17"/>
</g>
<!-- Node3&#45;&gt;Node5 -->
<g id="edge9" class="edge">
<title>Node3&#45;&gt;Node5</title>
<path fill="none" stroke="darkgreen" d="M244.46,-24.39C282.03,-30.32 332.48,-38.32 377,-45.5 388.58,-47.37 401.04,-49.4 412.77,-51.32"/>
<polygon fill="darkgreen" stroke="darkgreen" points="244.65,-20.87 234.23,-22.77 243.56,-27.79 244.65,-20.87"/>
</g>
<!-- Node4&#45;&gt;Node1 -->
<g id="edge4" class="edge">
<title>Node4&#45;&gt;Node1</title>
<path fill="none" stroke="darkgreen" d="M387.3,-98.43C436.77,-94.44 504.66,-88.95 549.63,-85.32"/>
<polygon fill="darkgreen" stroke="darkgreen" points="386.73,-94.96 377.04,-99.26 387.29,-101.94 386.73,-94.96"/>
</g>
<!-- Node4&#45;&gt;Node5 -->
<g id="edge10" class="edge">
<title>Node4&#45;&gt;Node5</title>
<path fill="none" stroke="darkgreen" d="M381.34,-85.38C392.57,-81.8 404.25,-78.07 415.14,-74.6"/>
<polygon fill="darkgreen" stroke="darkgreen" points="380.07,-82.11 371.61,-88.48 382.2,-88.78 380.07,-82.11"/>
</g>
<!-- Node5&#45;&gt;Node1 -->
<g id="edge7" class="edge">
<title>Node5&#45;&gt;Node1</title>
<path fill="none" stroke="darkgreen" d="M524.14,-69.4C532.68,-70.82 541.38,-72.26 549.64,-73.64"/>
<polygon fill="darkgreen" stroke="darkgreen" points="524.65,-65.94 514.22,-67.75 523.51,-72.85 524.65,-65.94"/>
</g>
<!-- Node7 -->
<g id="node7" class="node">
<title>Node7</title>
<g id="a_node7"><a xlink:href="structplang_1_1detail_1_1corpus__mixins.html" target="_top" xlink:title="Base class for the corpus.">
<polygon fill="none" stroke="black" points="859,-110.5 859,-140.5 963,-140.5 963,-110.5 859,-110.5"/>
<text text-anchor="start" x="867" y="-128.5" font-family="Helvetica,sans-Serif" font-size="10.00">plang::detail::corpus</text>
<text text-anchor="middle" x="911" y="-117.5" font-family="Helvetica,sans-Serif" font-size="10.00">_mixins</text>
</a>
</g>
</g>
<!-- Node6&#45;&gt;Node7 -->
<g id="edge12" class="edge">
<title>Node6&#45;&gt;Node7</title>
<path fill="none" stroke="midnightblue" d="M833.29,-125.5C842.02,-125.5 850.72,-125.5 858.97,-125.5"/>
<polygon fill="midnightblue" stroke="midnightblue" points="833.05,-122 823.05,-125.5 833.05,-129 833.05,-122"/>
</g>
<!-- Node8 -->
<g id="node8" class="node">
<title>Node8</title>
<g id="a_node8"><a xlink:href="classplang_1_1corpus.html" target="_top" xlink:title="The main interface for interacting with a corpus.">
<polygon fill="none" stroke="black" points="999,-116 999,-135 1074,-135 1074,-116 999,-116"/>
<text text-anchor="middle" x="1036.5" y="-123" font-family="Helvetica,sans-Serif" font-size="10.00">plang::corpus</text>
</a>
</g>
</g>
<!-- Node7&#45;&gt;Node8 -->
<g id="edge13" class="edge">
<title>Node7&#45;&gt;Node8</title>
<path fill="none" stroke="midnightblue" d="M973.45,-125.5C982.14,-125.5 990.83,-125.5 998.85,-125.5"/>
<polygon fill="midnightblue" stroke="midnightblue" points="973.3,-122 963.3,-125.5 973.3,-129 973.3,-122"/>
</g>
</g>
</svg>
