<?xml version="1.0" encoding="UTF-8" standalone="no"?>
<!DOCTYPE svg PUBLIC "-//W3C//DTD SVG 1.1//EN"
 "http://www.w3.org/Graphics/SVG/1.1/DTD/svg11.dtd">
<!-- Generated by graphviz version 2.44.1 (20220725.2034)
 -->
<!-- Title: plang::detail::corpus Pages: 1 -->
<svg width="933pt" height="204pt"
 viewBox="0.00 0.00 933.00 203.50" xmlns="http://www.w3.org/2000/svg" xmlns:xlink="http://www.w3.org/1999/xlink">
<g id="graph0" class="graph" transform="scale(1 1) rotate(0) translate(4 199.5)">
<title>plang::detail::corpus</title>
<!-- Node1 -->
<g id="node1" class="node">
<title>Node1</title>
<g id="a_node1"><a xlink:title="Provides a basic interface to a database.">
<polygon fill="#bfbfbf" stroke="black" points="0,-88 0,-107 104,-107 104,-88 0,-88"/>
<text text-anchor="middle" x="52" y="-95" font-family="Helvetica,sans-Serif" font-size="10.00">plang::detail::corpus</text>
</a>
</g>
</g>
<!-- Node2 -->
<g id="node2" class="node">
<title>Node2</title>
<g id="a_node2"><a xlink:href="classplang_1_1corpus.html" target="_top" xlink:title="The main interface for interacting with a corpus.">
<polygon fill="none" stroke="black" points="850,-110 850,-129 925,-129 925,-110 850,-110"/>
<text text-anchor="middle" x="887.5" y="-117" font-family="Helvetica,sans-Serif" font-size="10.00">plang::corpus</text>
</a>
</g>
</g>
<!-- Node1&#45;&gt;Node2 -->
<g id="edge1" class="edge">
<title>Node1&#45;&gt;Node2</title>
<path fill="none" stroke="midnightblue" d="M76.34,-112.3C121.82,-139.69 226.32,-195.5 322.5,-195.5 322.5,-195.5 322.5,-195.5 616,-195.5 713.07,-195.5 822.68,-149.58 866.68,-129.13"/>
<polygon fill="midnightblue" stroke="midnightblue" points="78.16,-109.31 67.8,-107.08 74.5,-115.28 78.16,-109.31"/>
</g>
<!-- Node3 -->
<g id="node3" class="node">
<title>Node3</title>
<g id="a_node3"><a xlink:href="classplang_1_1detail_1_1path__manager.html" target="_top" xlink:title="Handles database actions for paths.">
<polygon fill="none" stroke="black" points="140,-19.5 140,-49.5 234,-49.5 234,-19.5 140,-19.5"/>
<text text-anchor="start" x="148" y="-37.5" font-family="Helvetica,sans-Serif" font-size="10.00">plang::detail::path</text>
<text text-anchor="middle" x="187" y="-26.5" font-family="Helvetica,sans-Serif" font-size="10.00">_manager</text>
</a>
</g>
</g>
<!-- Node1&#45;&gt;Node3 -->
<g id="edge2" class="edge">
<title>Node1&#45;&gt;Node3</title>
<path fill="none" stroke="darkgreen" d="M82.4,-83.57C103.67,-73.5 132.39,-59.89 154.2,-49.57"/>
<polygon fill="darkgreen" stroke="darkgreen" points="80.74,-80.49 73.2,-87.93 83.74,-86.81 80.74,-80.49"/>
</g>
<!-- Node7 -->
<g id="node7" class="node">
<title>Node7</title>
<g id="a_node7"><a xlink:href="classplang_1_1detail_1_1symbol__class__manager.html" target="_top" xlink:title=" ">
<polygon fill="none" stroke="black" points="270,-54.5 270,-84.5 377,-84.5 377,-54.5 270,-54.5"/>
<text text-anchor="start" x="278" y="-72.5" font-family="Helvetica,sans-Serif" font-size="10.00">plang::detail::symbol</text>
<text text-anchor="middle" x="323.5" y="-61.5" font-family="Helvetica,sans-Serif" font-size="10.00">_class_manager</text>
</a>
</g>
</g>
<!-- Node1&#45;&gt;Node7 -->
<g id="edge13" class="edge">
<title>Node1&#45;&gt;Node7</title>
<path fill="none" stroke="darkgreen" d="M114.05,-91.16C160.99,-86.28 225.16,-79.61 269.86,-74.97"/>
<polygon fill="darkgreen" stroke="darkgreen" points="113.59,-87.69 104.01,-92.2 114.32,-94.65 113.59,-87.69"/>
</g>
<!-- Node8 -->
<g id="node8" class="node">
<title>Node8</title>
<g id="a_node8"><a xlink:href="classplang_1_1detail_1_1symbol__manager.html" target="_top" xlink:title=" ">
<polygon fill="none" stroke="black" points="413,-98.5 413,-128.5 520,-128.5 520,-98.5 413,-98.5"/>
<text text-anchor="start" x="421" y="-116.5" font-family="Helvetica,sans-Serif" font-size="10.00">plang::detail::symbol</text>
<text text-anchor="middle" x="466.5" y="-105.5" font-family="Helvetica,sans-Serif" font-size="10.00">_manager</text>
</a>
</g>
</g>
<!-- Node1&#45;&gt;Node8 -->
<g id="edge14" class="edge">
<title>Node1&#45;&gt;Node8</title>
<path fill="none" stroke="darkgreen" d="M114.46,-99.88C195.42,-103.02 336.45,-108.49 412.79,-111.46"/>
<polygon fill="darkgreen" stroke="darkgreen" points="114.54,-96.38 104.41,-99.49 114.27,-103.38 114.54,-96.38"/>
</g>
<!-- Node4 -->
<g id="node4" class="node">
<title>Node4</title>
<g id="a_node4"><a xlink:href="structplang_1_1detail_1_1mixin__base.html" target="_top" xlink:title=" ">
<polygon fill="none" stroke="black" points="556,-0.5 556,-74.5 674,-74.5 674,-0.5 556,-0.5"/>
<text text-anchor="start" x="564" y="-62.5" font-family="Helvetica,sans-Serif" font-size="10.00">plang::detail::mixin</text>
<text text-anchor="start" x="564" y="-51.5" font-family="Helvetica,sans-Serif" font-size="10.00">_base&lt; plang::detail</text>
<text text-anchor="start" x="564" y="-40.5" font-family="Helvetica,sans-Serif" font-size="10.00">::path_manager, plang</text>
<text text-anchor="start" x="564" y="-29.5" font-family="Helvetica,sans-Serif" font-size="10.00">::detail::symbol_class</text>
<text text-anchor="start" x="564" y="-18.5" font-family="Helvetica,sans-Serif" font-size="10.00">_manager, plang::detail</text>
<text text-anchor="middle" x="615" y="-7.5" font-family="Helvetica,sans-Serif" font-size="10.00">::symbol_manager &gt;</text>
</a>
</g>
</g>
<!-- Node3&#45;&gt;Node4 -->
<g id="edge3" class="edge">
<title>Node3&#45;&gt;Node4</title>
<path fill="none" stroke="midnightblue" d="M244.41,-34.9C325.39,-35.47 473.84,-36.51 555.8,-37.09"/>
<polygon fill="midnightblue" stroke="midnightblue" points="244.42,-31.4 234.4,-34.83 244.38,-38.4 244.42,-31.4"/>
</g>
<!-- Node6 -->
<g id="node6" class="node">
<title>Node6</title>
<g id="a_node6"><a xlink:href="structplang_1_1detail_1_1mixin__base.html" target="_top" xlink:title="Common derived class template for distributed overloading.">
<polygon fill="none" stroke="black" points="566,-98.5 566,-128.5 664,-128.5 664,-98.5 566,-98.5"/>
<text text-anchor="start" x="574" y="-116.5" font-family="Helvetica,sans-Serif" font-size="10.00">plang::detail::mixin</text>
<text text-anchor="middle" x="615" y="-105.5" font-family="Helvetica,sans-Serif" font-size="10.00">_base&lt; Tps &gt;</text>
</a>
</g>
</g>
<!-- Node3&#45;&gt;Node6 -->
<g id="edge6" class="edge">
<title>Node3&#45;&gt;Node6</title>
<path fill="none" stroke="midnightblue" d="M213.55,-56.15C229.08,-68.45 249.76,-83.36 270,-93.5 329.57,-123.34 347.14,-128.38 413,-138.5 460,-145.72 472.85,-144.66 520,-138.5 535.57,-136.46 552.24,-132.61 567.14,-128.52"/>
<polygon fill="midnightblue" stroke="midnightblue" points="215.47,-53.2 205.49,-49.63 211.07,-58.64 215.47,-53.2"/>
</g>
<!-- Node3&#45;&gt;Node7 -->
<g id="edge7" class="edge">
<title>Node3&#45;&gt;Node7</title>
<path fill="none" stroke="darkgreen" d="M244.08,-49.09C252.55,-51.3 261.26,-53.56 269.66,-55.75"/>
<polygon fill="darkgreen" stroke="darkgreen" points="244.85,-45.68 234.29,-46.55 243.08,-52.45 244.85,-45.68"/>
</g>
<!-- Node5 -->
<g id="node5" class="node">
<title>Node5</title>
<g id="a_node5"><a xlink:href="structplang_1_1detail_1_1corpus__mixins.html" target="_top" xlink:title="Base class for the corpus.">
<polygon fill="none" stroke="black" points="710,-82.5 710,-112.5 814,-112.5 814,-82.5 710,-82.5"/>
<text text-anchor="start" x="718" y="-100.5" font-family="Helvetica,sans-Serif" font-size="10.00">plang::detail::corpus</text>
<text text-anchor="middle" x="762" y="-89.5" font-family="Helvetica,sans-Serif" font-size="10.00">_mixins</text>
</a>
</g>
</g>
<!-- Node4&#45;&gt;Node5 -->
<g id="edge4" class="edge">
<title>Node4&#45;&gt;Node5</title>
<path fill="none" stroke="midnightblue" d="M683.4,-65.39C697.58,-71.26 712.02,-77.23 724.54,-82.41"/>
<polygon fill="midnightblue" stroke="midnightblue" points="684.72,-62.15 674.14,-61.56 682.04,-68.62 684.72,-62.15"/>
</g>
<!-- Node5&#45;&gt;Node2 -->
<g id="edge5" class="edge">
<title>Node5&#45;&gt;Node2</title>
<path fill="none" stroke="midnightblue" d="M824.17,-108.4C832.95,-109.96 841.74,-111.53 849.85,-112.97"/>
<polygon fill="midnightblue" stroke="midnightblue" points="824.76,-104.95 814.3,-106.64 823.53,-111.84 824.76,-104.95"/>
</g>
<!-- Node7&#45;&gt;Node4 -->
<g id="edge8" class="edge">
<title>Node7&#45;&gt;Node4</title>
<path fill="none" stroke="midnightblue" d="M387.32,-59.03C395.94,-57.75 404.68,-56.53 413,-55.5 460.98,-49.56 515.64,-44.8 555.84,-41.66"/>
<polygon fill="midnightblue" stroke="midnightblue" points="386.66,-55.59 377.3,-60.55 387.71,-62.51 386.66,-55.59"/>
</g>
<!-- Node7&#45;&gt;Node6 -->
<g id="edge9" class="edge">
<title>Node7&#45;&gt;Node6</title>
<path fill="none" stroke="midnightblue" d="M387.13,-72.98C425.67,-75.76 475.95,-80.56 520,-88.5 534.96,-91.2 551.02,-95.09 565.55,-99"/>
<polygon fill="midnightblue" stroke="midnightblue" points="387.31,-69.48 377.09,-72.28 386.83,-76.47 387.31,-69.48"/>
</g>
<!-- Node7&#45;&gt;Node8 -->
<g id="edge10" class="edge">
<title>Node7&#45;&gt;Node8</title>
<path fill="none" stroke="darkgreen" d="M382.22,-87.51C393.81,-91.13 405.88,-94.89 417.11,-98.4"/>
<polygon fill="darkgreen" stroke="darkgreen" points="383.22,-84.16 372.63,-84.52 381.13,-90.84 383.22,-84.16"/>
</g>
<!-- Node8&#45;&gt;Node4 -->
<g id="edge11" class="edge">
<title>Node8&#45;&gt;Node4</title>
<path fill="none" stroke="midnightblue" d="M505.59,-93.74C520.88,-85.81 538.86,-76.48 555.73,-67.73"/>
<polygon fill="midnightblue" stroke="midnightblue" points="503.71,-90.77 496.44,-98.48 506.93,-96.99 503.71,-90.77"/>
</g>
<!-- Node8&#45;&gt;Node6 -->
<g id="edge12" class="edge">
<title>Node8&#45;&gt;Node6</title>
<path fill="none" stroke="midnightblue" d="M530.57,-113.5C542.29,-113.5 554.37,-113.5 565.57,-113.5"/>
<polygon fill="midnightblue" stroke="midnightblue" points="530.39,-110 520.39,-113.5 530.39,-117 530.39,-110"/>
</g>
</g>
</svg>
