<?xml version="1.0" encoding="UTF-8" standalone="no"?>
<!DOCTYPE svg PUBLIC "-//W3C//DTD SVG 1.1//EN"
 "http://www.w3.org/Graphics/SVG/1.1/DTD/svg11.dtd">
<!-- Generated by graphviz version 2.44.1 (20220725.2034)
 -->
<!-- Title: plang::detail::symbol_class_manager Pages: 1 -->
<svg width="933pt" height="136pt"
 viewBox="0.00 0.00 933.00 136.00" xmlns="http://www.w3.org/2000/svg" xmlns:xlink="http://www.w3.org/1999/xlink">
<g id="graph0" class="graph" transform="scale(1 1) rotate(0) translate(4 132)">
<title>plang::detail::symbol_class_manager</title>
<!-- Node1 -->
<g id="node1" class="node">
<title>Node1</title>
<g id="a_node1"><a xlink:title=" ">
<polygon fill="#bfbfbf" stroke="black" points="270,-36.5 270,-66.5 377,-66.5 377,-36.5 270,-36.5"/>
<text text-anchor="start" x="278" y="-54.5" font-family="Helvetica,sans-Serif" font-size="10.00">plang::detail::symbol</text>
<text text-anchor="middle" x="323.5" y="-43.5" font-family="Helvetica,sans-Serif" font-size="10.00">_class_manager</text>
</a>
</g>
</g>
<!-- Node4 -->
<g id="node4" class="node">
<title>Node4</title>
<g id="a_node4"><a xlink:href="structplang_1_1detail_1_1mixin__base.html" target="_top" xlink:title=" ">
<polygon fill="none" stroke="black" points="556,-53.5 556,-127.5 674,-127.5 674,-53.5 556,-53.5"/>
<text text-anchor="start" x="564" y="-115.5" font-family="Helvetica,sans-Serif" font-size="10.00">plang::detail::mixin</text>
<text text-anchor="start" x="564" y="-104.5" font-family="Helvetica,sans-Serif" font-size="10.00">_base&lt; plang::detail</text>
<text text-anchor="start" x="564" y="-93.5" font-family="Helvetica,sans-Serif" font-size="10.00">::path_manager, plang</text>
<text text-anchor="start" x="564" y="-82.5" font-family="Helvetica,sans-Serif" font-size="10.00">::detail::symbol_class</text>
<text text-anchor="start" x="564" y="-71.5" font-family="Helvetica,sans-Serif" font-size="10.00">_manager, plang::detail</text>
<text text-anchor="middle" x="615" y="-60.5" font-family="Helvetica,sans-Serif" font-size="10.00">::symbol_manager &gt;</text>
</a>
</g>
</g>
<!-- Node1&#45;&gt;Node4 -->
<g id="edge4" class="edge">
<title>Node1&#45;&gt;Node4</title>
<path fill="none" stroke="midnightblue" d="M383.06,-69.06C392.98,-71.55 403.23,-73.83 413,-75.5 460.6,-83.65 515.29,-87.38 555.59,-89.07"/>
<polygon fill="midnightblue" stroke="midnightblue" points="383.84,-65.64 373.28,-66.51 382.08,-72.42 383.84,-65.64"/>
</g>
<!-- Node7 -->
<g id="node7" class="node">
<title>Node7</title>
<g id="a_node7"><a xlink:href="structplang_1_1detail_1_1mixin__base.html" target="_top" xlink:title="Common derived class template for distributed overloading.">
<polygon fill="none" stroke="black" points="566,-0.5 566,-30.5 664,-30.5 664,-0.5 566,-0.5"/>
<text text-anchor="start" x="574" y="-18.5" font-family="Helvetica,sans-Serif" font-size="10.00">plang::detail::mixin</text>
<text text-anchor="middle" x="615" y="-7.5" font-family="Helvetica,sans-Serif" font-size="10.00">_base&lt; Tps &gt;</text>
</a>
</g>
</g>
<!-- Node1&#45;&gt;Node7 -->
<g id="edge7" class="edge">
<title>Node1&#45;&gt;Node7</title>
<path fill="none" stroke="midnightblue" d="M380.19,-33.76C390.98,-30.89 402.27,-28.29 413,-26.5 464.71,-17.89 524.83,-15.59 565.75,-15.17"/>
<polygon fill="midnightblue" stroke="midnightblue" points="379.16,-30.41 370.45,-36.44 381.02,-37.16 379.16,-30.41"/>
</g>
<!-- Node8 -->
<g id="node8" class="node">
<title>Node8</title>
<g id="a_node8"><a xlink:href="classplang_1_1detail_1_1symbol__manager.html" target="_top" xlink:title=" ">
<polygon fill="none" stroke="black" points="413,-36.5 413,-66.5 520,-66.5 520,-36.5 413,-36.5"/>
<text text-anchor="start" x="421" y="-54.5" font-family="Helvetica,sans-Serif" font-size="10.00">plang::detail::symbol</text>
<text text-anchor="middle" x="466.5" y="-43.5" font-family="Helvetica,sans-Serif" font-size="10.00">_manager</text>
</a>
</g>
</g>
<!-- Node1&#45;&gt;Node8 -->
<g id="edge8" class="edge">
<title>Node1&#45;&gt;Node8</title>
<path fill="none" stroke="darkgreen" d="M387.05,-51.5C395.7,-51.5 404.51,-51.5 412.95,-51.5"/>
<polygon fill="darkgreen" stroke="darkgreen" points="387,-48 377,-51.5 387,-55 387,-48"/>
</g>
<!-- Node2 -->
<g id="node2" class="node">
<title>Node2</title>
<g id="a_node2"><a xlink:href="classplang_1_1detail_1_1corpus.html" target="_top" xlink:title="Provides a basic interface to a database.">
<polygon fill="none" stroke="black" points="0,-42 0,-61 104,-61 104,-42 0,-42"/>
<text text-anchor="middle" x="52" y="-49" font-family="Helvetica,sans-Serif" font-size="10.00">plang::detail::corpus</text>
</a>
</g>
</g>
<!-- Node2&#45;&gt;Node1 -->
<g id="edge1" class="edge">
<title>Node2&#45;&gt;Node1</title>
<path fill="none" stroke="darkgreen" d="M114.15,-53.08C122.83,-53.26 131.64,-53.4 140,-53.5 181.78,-53.98 192.22,-53.97 234,-53.5 245.53,-53.37 257.89,-53.14 269.62,-52.89"/>
<polygon fill="darkgreen" stroke="darkgreen" points="114.13,-49.58 104.06,-52.87 113.98,-56.58 114.13,-49.58"/>
</g>
<!-- Node3 -->
<g id="node3" class="node">
<title>Node3</title>
<g id="a_node3"><a xlink:href="classplang_1_1detail_1_1path__manager.html" target="_top" xlink:title="Handles database actions for paths.">
<polygon fill="none" stroke="black" points="140,-14.5 140,-44.5 234,-44.5 234,-14.5 140,-14.5"/>
<text text-anchor="start" x="148" y="-32.5" font-family="Helvetica,sans-Serif" font-size="10.00">plang::detail::path</text>
<text text-anchor="middle" x="187" y="-21.5" font-family="Helvetica,sans-Serif" font-size="10.00">_manager</text>
</a>
</g>
</g>
<!-- Node2&#45;&gt;Node3 -->
<g id="edge3" class="edge">
<title>Node2&#45;&gt;Node3</title>
<path fill="none" stroke="darkgreen" d="M114.06,-41.4C122.67,-39.98 131.4,-38.53 139.67,-37.16"/>
<polygon fill="darkgreen" stroke="darkgreen" points="113.34,-37.97 104.04,-43.06 114.48,-44.88 113.34,-37.97"/>
</g>
<!-- Node3&#45;&gt;Node1 -->
<g id="edge2" class="edge">
<title>Node3&#45;&gt;Node1</title>
<path fill="none" stroke="darkgreen" d="M244.36,-38.72C252.74,-40.09 261.35,-41.5 269.66,-42.86"/>
<polygon fill="darkgreen" stroke="darkgreen" points="244.72,-35.23 234.29,-37.07 243.59,-42.14 244.72,-35.23"/>
</g>
<!-- Node5 -->
<g id="node5" class="node">
<title>Node5</title>
<g id="a_node5"><a xlink:href="structplang_1_1detail_1_1corpus__mixins.html" target="_top" xlink:title="Base class for the corpus.">
<polygon fill="none" stroke="black" points="710,-75.5 710,-105.5 814,-105.5 814,-75.5 710,-75.5"/>
<text text-anchor="start" x="718" y="-93.5" font-family="Helvetica,sans-Serif" font-size="10.00">plang::detail::corpus</text>
<text text-anchor="middle" x="762" y="-82.5" font-family="Helvetica,sans-Serif" font-size="10.00">_mixins</text>
</a>
</g>
</g>
<!-- Node4&#45;&gt;Node5 -->
<g id="edge5" class="edge">
<title>Node4&#45;&gt;Node5</title>
<path fill="none" stroke="midnightblue" d="M684.21,-90.5C692.84,-90.5 701.56,-90.5 709.86,-90.5"/>
<polygon fill="midnightblue" stroke="midnightblue" points="684.14,-87 674.14,-90.5 684.14,-94 684.14,-87"/>
</g>
<!-- Node6 -->
<g id="node6" class="node">
<title>Node6</title>
<g id="a_node6"><a xlink:href="classplang_1_1corpus.html" target="_top" xlink:title="The main interface for interacting with a corpus.">
<polygon fill="none" stroke="black" points="850,-81 850,-100 925,-100 925,-81 850,-81"/>
<text text-anchor="middle" x="887.5" y="-88" font-family="Helvetica,sans-Serif" font-size="10.00">plang::corpus</text>
</a>
</g>
</g>
<!-- Node5&#45;&gt;Node6 -->
<g id="edge6" class="edge">
<title>Node5&#45;&gt;Node6</title>
<path fill="none" stroke="midnightblue" d="M824.45,-90.5C833.14,-90.5 841.83,-90.5 849.85,-90.5"/>
<polygon fill="midnightblue" stroke="midnightblue" points="824.3,-87 814.3,-90.5 824.3,-94 824.3,-87"/>
</g>
<!-- Node8&#45;&gt;Node4 -->
<g id="edge9" class="edge">
<title>Node8&#45;&gt;Node4</title>
<path fill="none" stroke="midnightblue" d="M530.22,-68.2C538.68,-70.45 547.34,-72.76 555.73,-74.99"/>
<polygon fill="midnightblue" stroke="midnightblue" points="530.95,-64.77 520.39,-65.58 529.15,-71.53 530.95,-64.77"/>
</g>
<!-- Node8&#45;&gt;Node7 -->
<g id="edge10" class="edge">
<title>Node8&#45;&gt;Node7</title>
<path fill="none" stroke="midnightblue" d="M530.22,-36.09C542.05,-33.18 554.26,-30.18 565.57,-27.4"/>
<polygon fill="midnightblue" stroke="midnightblue" points="529.27,-32.72 520.39,-38.5 530.94,-39.52 529.27,-32.72"/>
</g>
</g>
</svg>
