<?xml version="1.0" encoding="UTF-8" standalone="no"?>
<!DOCTYPE svg PUBLIC "-//W3C//DTD SVG 1.1//EN"
 "http://www.w3.org/Graphics/SVG/1.1/DTD/svg11.dtd">
<!-- Generated by graphviz version 2.44.1 (20220725.2034)
 -->
<!-- Title: plang::detail::path_manager Pages: 1 -->
<svg width="785pt" height="127pt"
 viewBox="0.00 0.00 785.00 126.50" xmlns="http://www.w3.org/2000/svg" xmlns:xlink="http://www.w3.org/1999/xlink">
<g id="graph0" class="graph" transform="scale(1 1) rotate(0) translate(4 122.5)">
<title>plang::detail::path_manager</title>
<!-- Node1 -->
<g id="node1" class="node">
<title>Node1</title>
<g id="a_node1"><a xlink:title="Handles database actions for paths.">
<polygon fill="#bfbfbf" stroke="black" points="140,-33.5 140,-63.5 234,-63.5 234,-33.5 140,-33.5"/>
<text text-anchor="start" x="148" y="-51.5" font-family="Helvetica,sans-Serif" font-size="10.00">plang::detail::path</text>
<text text-anchor="middle" x="187" y="-40.5" font-family="Helvetica,sans-Serif" font-size="10.00">_manager</text>
</a>
</g>
</g>
<!-- Node3 -->
<g id="node3" class="node">
<title>Node3</title>
<g id="a_node3"><a xlink:href="structplang_1_1detail_1_1mixin__base.html" target="_top" xlink:title=" ">
<polygon fill="none" stroke="black" points="413,-55 413,-118 526,-118 526,-55 413,-55"/>
<text text-anchor="start" x="421" y="-106" font-family="Helvetica,sans-Serif" font-size="10.00">plang::detail::mixin</text>
<text text-anchor="start" x="421" y="-95" font-family="Helvetica,sans-Serif" font-size="10.00">_base&lt; plang::detail</text>
<text text-anchor="start" x="421" y="-84" font-family="Helvetica,sans-Serif" font-size="10.00">::path_manager, plang</text>
<text text-anchor="start" x="421" y="-73" font-family="Helvetica,sans-Serif" font-size="10.00">::detail::symbol_class</text>
<text text-anchor="middle" x="469.5" y="-62" font-family="Helvetica,sans-Serif" font-size="10.00">_manager &gt;</text>
</a>
</g>
</g>
<!-- Node1&#45;&gt;Node3 -->
<g id="edge2" class="edge">
<title>Node1&#45;&gt;Node3</title>
<path fill="none" stroke="midnightblue" d="M242.77,-66.28C251.79,-68.71 261.1,-70.9 270,-72.5 317.78,-81.07 372.9,-84.45 412.92,-85.76"/>
<polygon fill="midnightblue" stroke="midnightblue" points="243.7,-62.91 233.13,-63.59 241.82,-69.65 243.7,-62.91"/>
</g>
<!-- Node6 -->
<g id="node6" class="node">
<title>Node6</title>
<g id="a_node6"><a xlink:href="structplang_1_1detail_1_1mixin__base.html" target="_top" xlink:title="Common derived class template for distributed overloading.">
<polygon fill="none" stroke="black" points="420.5,-0.5 420.5,-30.5 518.5,-30.5 518.5,-0.5 420.5,-0.5"/>
<text text-anchor="start" x="428.5" y="-18.5" font-family="Helvetica,sans-Serif" font-size="10.00">plang::detail::mixin</text>
<text text-anchor="middle" x="469.5" y="-7.5" font-family="Helvetica,sans-Serif" font-size="10.00">_base&lt; Tps &gt;</text>
</a>
</g>
</g>
<!-- Node1&#45;&gt;Node6 -->
<g id="edge5" class="edge">
<title>Node1&#45;&gt;Node6</title>
<path fill="none" stroke="midnightblue" d="M239.79,-30.53C249.71,-27.71 260.1,-25.18 270,-23.5 320.84,-14.87 379.99,-13.59 420.42,-14.02"/>
<polygon fill="midnightblue" stroke="midnightblue" points="238.65,-27.22 230.06,-33.42 240.65,-33.93 238.65,-27.22"/>
</g>
<!-- Node7 -->
<g id="node7" class="node">
<title>Node7</title>
<g id="a_node7"><a xlink:href="classplang_1_1detail_1_1symbol__class__manager.html" target="_top" xlink:title=" ">
<polygon fill="none" stroke="black" points="270,-33.5 270,-63.5 377,-63.5 377,-33.5 270,-33.5"/>
<text text-anchor="start" x="278" y="-51.5" font-family="Helvetica,sans-Serif" font-size="10.00">plang::detail::symbol</text>
<text text-anchor="middle" x="323.5" y="-40.5" font-family="Helvetica,sans-Serif" font-size="10.00">_class_manager</text>
</a>
</g>
</g>
<!-- Node1&#45;&gt;Node7 -->
<g id="edge6" class="edge">
<title>Node1&#45;&gt;Node7</title>
<path fill="none" stroke="#8b1a1a" d="M244.36,-48.5C252.74,-48.5 261.35,-48.5 269.66,-48.5"/>
<polygon fill="#8b1a1a" stroke="#8b1a1a" points="244.29,-45 234.29,-48.5 244.29,-52 244.29,-45"/>
</g>
<!-- Node2 -->
<g id="node2" class="node">
<title>Node2</title>
<g id="a_node2"><a xlink:href="classplang_1_1detail_1_1corpus.html" target="_top" xlink:title="Provides a basic interface to a database.">
<polygon fill="none" stroke="black" points="0,-39 0,-58 104,-58 104,-39 0,-39"/>
<text text-anchor="middle" x="52" y="-46" font-family="Helvetica,sans-Serif" font-size="10.00">plang::detail::corpus</text>
</a>
</g>
</g>
<!-- Node2&#45;&gt;Node1 -->
<g id="edge1" class="edge">
<title>Node2&#45;&gt;Node1</title>
<path fill="none" stroke="darkgreen" d="M114.06,-48.5C122.67,-48.5 131.4,-48.5 139.67,-48.5"/>
<polygon fill="darkgreen" stroke="darkgreen" points="114.04,-45 104.04,-48.5 114.04,-52 114.04,-45"/>
</g>
<!-- Node4 -->
<g id="node4" class="node">
<title>Node4</title>
<g id="a_node4"><a xlink:href="structplang_1_1detail_1_1corpus__mixins.html" target="_top" xlink:title="Base class for the corpus.">
<polygon fill="none" stroke="black" points="562,-71.5 562,-101.5 666,-101.5 666,-71.5 562,-71.5"/>
<text text-anchor="start" x="570" y="-89.5" font-family="Helvetica,sans-Serif" font-size="10.00">plang::detail::corpus</text>
<text text-anchor="middle" x="614" y="-78.5" font-family="Helvetica,sans-Serif" font-size="10.00">_mixins</text>
</a>
</g>
</g>
<!-- Node3&#45;&gt;Node4 -->
<g id="edge3" class="edge">
<title>Node3&#45;&gt;Node4</title>
<path fill="none" stroke="midnightblue" d="M536,-86.5C544.59,-86.5 553.3,-86.5 561.61,-86.5"/>
<polygon fill="midnightblue" stroke="midnightblue" points="536,-83 526,-86.5 536,-90 536,-83"/>
</g>
<!-- Node5 -->
<g id="node5" class="node">
<title>Node5</title>
<g id="a_node5"><a xlink:href="classplang_1_1corpus.html" target="_top" xlink:title="The main interface for interacting with a corpus.">
<polygon fill="none" stroke="black" points="702,-77 702,-96 777,-96 777,-77 702,-77"/>
<text text-anchor="middle" x="739.5" y="-84" font-family="Helvetica,sans-Serif" font-size="10.00">plang::corpus</text>
</a>
</g>
</g>
<!-- Node4&#45;&gt;Node5 -->
<g id="edge4" class="edge">
<title>Node4&#45;&gt;Node5</title>
<path fill="none" stroke="midnightblue" d="M676.45,-86.5C685.14,-86.5 693.83,-86.5 701.85,-86.5"/>
<polygon fill="midnightblue" stroke="midnightblue" points="676.3,-83 666.3,-86.5 676.3,-90 676.3,-83"/>
</g>
<!-- Node7&#45;&gt;Node3 -->
<g id="edge7" class="edge">
<title>Node7&#45;&gt;Node3</title>
<path fill="none" stroke="midnightblue" d="M387.19,-65.04C395.72,-67.29 404.41,-69.59 412.8,-71.8"/>
<polygon fill="midnightblue" stroke="midnightblue" points="387.86,-61.6 377.3,-62.43 386.08,-68.37 387.86,-61.6"/>
</g>
<!-- Node7&#45;&gt;Node6 -->
<g id="edge8" class="edge">
<title>Node7&#45;&gt;Node6</title>
<path fill="none" stroke="midnightblue" d="M387.38,-34.09C398.48,-31.55 409.87,-28.94 420.48,-26.51"/>
<polygon fill="midnightblue" stroke="midnightblue" points="386.27,-30.75 377.3,-36.4 387.83,-37.58 386.27,-30.75"/>
</g>
</g>
</svg>
