<?xml version="1.0" encoding="UTF-8" standalone="no"?>
<!DOCTYPE svg PUBLIC "-//W3C//DTD SVG 1.1//EN"
 "http://www.w3.org/Graphics/SVG/1.1/DTD/svg11.dtd">
<!-- Generated by graphviz version 2.44.1 (20220725.2034)
 -->
<!-- Title: plang::detail::symbol_manager Pages: 1 -->
<svg width="956pt" height="182pt"
 viewBox="0.00 0.00 956.00 181.50" xmlns="http://www.w3.org/2000/svg" xmlns:xlink="http://www.w3.org/1999/xlink">
<g id="graph0" class="graph" transform="scale(1 1) rotate(0) translate(4 177.5)">
<title>plang::detail::symbol_manager</title>
<!-- Node1 -->
<g id="node1" class="node">
<title>Node1</title>
<g id="a_node1"><a xlink:title=" ">
<polygon fill="#bfbfbf" stroke="black" points="413,-60.5 413,-90.5 520,-90.5 520,-60.5 413,-60.5"/>
<text text-anchor="start" x="421" y="-78.5" font-family="Helvetica,sans-Serif" font-size="10.00">plang::detail::symbol</text>
<text text-anchor="middle" x="466.5" y="-67.5" font-family="Helvetica,sans-Serif" font-size="10.00">_manager</text>
</a>
</g>
</g>
<!-- Node5 -->
<g id="node5" class="node">
<title>Node5</title>
<g id="a_node5"><a xlink:href="structplang_1_1detail_1_1mixin__base.html" target="_top" xlink:title=" ">
<polygon fill="none" stroke="black" points="556,-66 556,-173 697,-173 697,-66 556,-66"/>
<text text-anchor="start" x="564" y="-161" font-family="Helvetica,sans-Serif" font-size="10.00">plang::detail::mixin</text>
<text text-anchor="start" x="564" y="-150" font-family="Helvetica,sans-Serif" font-size="10.00">_base&lt; plang::detail</text>
<text text-anchor="start" x="564" y="-139" font-family="Helvetica,sans-Serif" font-size="10.00">::path_manager, plang</text>
<text text-anchor="start" x="564" y="-128" font-family="Helvetica,sans-Serif" font-size="10.00">::detail::symbol_class</text>
<text text-anchor="start" x="564" y="-117" font-family="Helvetica,sans-Serif" font-size="10.00">_manager, plang::detail</text>
<text text-anchor="start" x="564" y="-106" font-family="Helvetica,sans-Serif" font-size="10.00">::symbol_manager, plang::</text>
<text text-anchor="start" x="564" y="-95" font-family="Helvetica,sans-Serif" font-size="10.00">detail::point_class_manager,</text>
<text text-anchor="start" x="564" y="-84" font-family="Helvetica,sans-Serif" font-size="10.00"> plang::detail::object_class</text>
<text text-anchor="middle" x="626.5" y="-73" font-family="Helvetica,sans-Serif" font-size="10.00">_manager &gt;</text>
</a>
</g>
</g>
<!-- Node1&#45;&gt;Node5 -->
<g id="edge6" class="edge">
<title>Node1&#45;&gt;Node5</title>
<path fill="none" stroke="midnightblue" d="M529.98,-92.9C538.52,-95.28 547.32,-97.73 555.97,-100.14"/>
<polygon fill="midnightblue" stroke="midnightblue" points="530.68,-89.46 520.11,-90.15 528.81,-96.21 530.68,-89.46"/>
</g>
<!-- Node8 -->
<g id="node8" class="node">
<title>Node8</title>
<g id="a_node8"><a xlink:href="structplang_1_1detail_1_1mixin__base.html" target="_top" xlink:title="Common derived class template for distributed overloading.">
<polygon fill="none" stroke="black" points="577.5,-16.5 577.5,-46.5 675.5,-46.5 675.5,-16.5 577.5,-16.5"/>
<text text-anchor="start" x="585.5" y="-34.5" font-family="Helvetica,sans-Serif" font-size="10.00">plang::detail::mixin</text>
<text text-anchor="middle" x="626.5" y="-23.5" font-family="Helvetica,sans-Serif" font-size="10.00">_base&lt; Tps &gt;</text>
</a>
</g>
</g>
<!-- Node1&#45;&gt;Node8 -->
<g id="edge9" class="edge">
<title>Node1&#45;&gt;Node8</title>
<path fill="none" stroke="midnightblue" d="M529.82,-58.15C545.63,-53.74 562.39,-49.08 577.38,-44.9"/>
<polygon fill="midnightblue" stroke="midnightblue" points="528.81,-54.79 520.11,-60.85 530.68,-61.54 528.81,-54.79"/>
</g>
<!-- Node2 -->
<g id="node2" class="node">
<title>Node2</title>
<g id="a_node2"><a xlink:href="classplang_1_1detail_1_1corpus.html" target="_top" xlink:title="Provides a basic interface to a database.">
<polygon fill="none" stroke="black" points="0,-50 0,-69 104,-69 104,-50 0,-50"/>
<text text-anchor="middle" x="52" y="-57" font-family="Helvetica,sans-Serif" font-size="10.00">plang::detail::corpus</text>
</a>
</g>
</g>
<!-- Node2&#45;&gt;Node1 -->
<g id="edge1" class="edge">
<title>Node2&#45;&gt;Node1</title>
<path fill="none" stroke="darkgreen" d="M114.42,-68.62C123,-69.71 131.71,-70.71 140,-71.5 244.9,-81.54 271.64,-80.29 377,-78.5 388.53,-78.3 400.9,-77.97 412.63,-77.59"/>
<polygon fill="darkgreen" stroke="darkgreen" points="114.81,-65.14 104.44,-67.32 113.9,-72.08 114.81,-65.14"/>
</g>
<!-- Node3 -->
<g id="node3" class="node">
<title>Node3</title>
<g id="a_node3"><a xlink:href="classplang_1_1detail_1_1symbol__class__manager.html" target="_top" xlink:title=" ">
<polygon fill="none" stroke="black" points="270,-38.5 270,-68.5 377,-68.5 377,-38.5 270,-38.5"/>
<text text-anchor="start" x="278" y="-56.5" font-family="Helvetica,sans-Serif" font-size="10.00">plang::detail::symbol</text>
<text text-anchor="middle" x="323.5" y="-45.5" font-family="Helvetica,sans-Serif" font-size="10.00">_class_manager</text>
</a>
</g>
</g>
<!-- Node2&#45;&gt;Node3 -->
<g id="edge3" class="edge">
<title>Node2&#45;&gt;Node3</title>
<path fill="none" stroke="darkgreen" d="M114.05,-58.14C160.99,-57.1 225.16,-55.67 269.86,-54.67"/>
<polygon fill="darkgreen" stroke="darkgreen" points="113.93,-54.64 104.01,-58.36 114.08,-61.64 113.93,-54.64"/>
</g>
<!-- Node4 -->
<g id="node4" class="node">
<title>Node4</title>
<g id="a_node4"><a xlink:href="classplang_1_1detail_1_1path__manager.html" target="_top" xlink:title="Handles database actions for paths.">
<polygon fill="none" stroke="black" points="140,-0.5 140,-30.5 234,-30.5 234,-0.5 140,-0.5"/>
<text text-anchor="start" x="148" y="-18.5" font-family="Helvetica,sans-Serif" font-size="10.00">plang::detail::path</text>
<text text-anchor="middle" x="187" y="-7.5" font-family="Helvetica,sans-Serif" font-size="10.00">_manager</text>
</a>
</g>
</g>
<!-- Node2&#45;&gt;Node4 -->
<g id="edge5" class="edge">
<title>Node2&#45;&gt;Node4</title>
<path fill="none" stroke="darkgreen" d="M91.52,-46.76C106.82,-41.7 124.53,-35.83 140.46,-30.57"/>
<polygon fill="darkgreen" stroke="darkgreen" points="90.25,-43.49 81.86,-49.95 92.45,-50.13 90.25,-43.49"/>
</g>
<!-- Node3&#45;&gt;Node1 -->
<g id="edge2" class="edge">
<title>Node3&#45;&gt;Node1</title>
<path fill="none" stroke="darkgreen" d="M387.05,-63.26C395.7,-64.61 404.51,-65.98 412.95,-67.3"/>
<polygon fill="darkgreen" stroke="darkgreen" points="387.42,-59.78 377,-61.69 386.34,-66.69 387.42,-59.78"/>
</g>
<!-- Node4&#45;&gt;Node3 -->
<g id="edge4" class="edge">
<title>Node4&#45;&gt;Node3</title>
<path fill="none" stroke="darkgreen" d="M244.08,-31.35C252.55,-33.74 261.26,-36.2 269.66,-38.57"/>
<polygon fill="darkgreen" stroke="darkgreen" points="244.86,-27.93 234.29,-28.58 242.96,-34.66 244.86,-27.93"/>
</g>
<!-- Node6 -->
<g id="node6" class="node">
<title>Node6</title>
<g id="a_node6"><a xlink:href="structplang_1_1detail_1_1corpus__mixins.html" target="_top" xlink:title="Base class for the corpus.">
<polygon fill="none" stroke="black" points="733,-104.5 733,-134.5 837,-134.5 837,-104.5 733,-104.5"/>
<text text-anchor="start" x="741" y="-122.5" font-family="Helvetica,sans-Serif" font-size="10.00">plang::detail::corpus</text>
<text text-anchor="middle" x="785" y="-111.5" font-family="Helvetica,sans-Serif" font-size="10.00">_mixins</text>
</a>
</g>
</g>
<!-- Node5&#45;&gt;Node6 -->
<g id="edge7" class="edge">
<title>Node5&#45;&gt;Node6</title>
<path fill="none" stroke="midnightblue" d="M707.29,-119.5C716.02,-119.5 724.72,-119.5 732.97,-119.5"/>
<polygon fill="midnightblue" stroke="midnightblue" points="707.05,-116 697.05,-119.5 707.05,-123 707.05,-116"/>
</g>
<!-- Node7 -->
<g id="node7" class="node">
<title>Node7</title>
<g id="a_node7"><a xlink:href="classplang_1_1corpus.html" target="_top" xlink:title="The main interface for interacting with a corpus.">
<polygon fill="none" stroke="black" points="873,-110 873,-129 948,-129 948,-110 873,-110"/>
<text text-anchor="middle" x="910.5" y="-117" font-family="Helvetica,sans-Serif" font-size="10.00">plang::corpus</text>
</a>
</g>
</g>
<!-- Node6&#45;&gt;Node7 -->
<g id="edge8" class="edge">
<title>Node6&#45;&gt;Node7</title>
<path fill="none" stroke="midnightblue" d="M847.45,-119.5C856.14,-119.5 864.83,-119.5 872.85,-119.5"/>
<polygon fill="midnightblue" stroke="midnightblue" points="847.3,-116 837.3,-119.5 847.3,-123 847.3,-116"/>
</g>
</g>
</svg>
