<?xml version="1.0" encoding="UTF-8" standalone="no"?>
<!DOCTYPE svg PUBLIC "-//W3C//DTD SVG 1.1//EN"
 "http://www.w3.org/Graphics/SVG/1.1/DTD/svg11.dtd">
<!-- Generated by graphviz version 2.44.1 (20220725.2034)
 -->
<!-- Title: plang::detail::corpus Pages: 1 -->
<svg width="798pt" height="161pt"
 viewBox="0.00 0.00 798.00 160.50" xmlns="http://www.w3.org/2000/svg" xmlns:xlink="http://www.w3.org/1999/xlink">
<g id="graph0" class="graph" transform="scale(1 1) rotate(0) translate(4 156.5)">
<title>plang::detail::corpus</title>
<!-- Node1 -->
<g id="node1" class="node">
<title>Node1</title>
<g id="a_node1"><a xlink:title="Provides a basic interface to a database.">
<polygon fill="#bfbfbf" stroke="black" points="0,-77 0,-96 104,-96 104,-77 0,-77"/>
<text text-anchor="middle" x="52" y="-84" font-family="Helvetica,sans-Serif" font-size="10.00">plang::detail::corpus</text>
</a>
</g>
</g>
<!-- Node2 -->
<g id="node2" class="node">
<title>Node2</title>
<g id="a_node2"><a xlink:href="classplang_1_1corpus.html" target="_top" xlink:title="The main interface for interacting with a corpus.">
<polygon fill="none" stroke="black" points="715,-113 715,-132 790,-132 790,-113 715,-113"/>
<text text-anchor="middle" x="752.5" y="-120" font-family="Helvetica,sans-Serif" font-size="10.00">plang::corpus</text>
</a>
</g>
</g>
<!-- Node1&#45;&gt;Node2 -->
<g id="edge1" class="edge">
<title>Node1&#45;&gt;Node2</title>
<path fill="none" stroke="midnightblue" d="M86.57,-99.63C138.89,-118.88 243.47,-152.5 335.5,-152.5 335.5,-152.5 335.5,-152.5 483.5,-152.5 566.6,-152.5 663.31,-138.08 714.8,-129.23"/>
<polygon fill="midnightblue" stroke="midnightblue" points="87.71,-96.32 77.12,-96.1 85.26,-102.88 87.71,-96.32"/>
</g>
<!-- Node3 -->
<g id="node3" class="node">
<title>Node3</title>
<g id="a_node3"><a xlink:href="classplang_1_1detail_1_1path__manager.html" target="_top" xlink:title="Handles database actions for paths.">
<polygon fill="none" stroke="black" points="146.5,-49.5 146.5,-79.5 240.5,-79.5 240.5,-49.5 146.5,-49.5"/>
<text text-anchor="start" x="154.5" y="-67.5" font-family="Helvetica,sans-Serif" font-size="10.00">plang::detail::path</text>
<text text-anchor="middle" x="193.5" y="-56.5" font-family="Helvetica,sans-Serif" font-size="10.00">_manager</text>
</a>
</g>
</g>
<!-- Node1&#45;&gt;Node3 -->
<g id="edge2" class="edge">
<title>Node1&#45;&gt;Node3</title>
<path fill="none" stroke="darkgreen" d="M114.36,-76.82C125.13,-75.12 136.17,-73.38 146.43,-71.77"/>
<polygon fill="darkgreen" stroke="darkgreen" points="113.49,-73.42 104.15,-78.43 114.58,-80.33 113.49,-73.42"/>
</g>
<!-- Node7 -->
<g id="node7" class="node">
<title>Node7</title>
<g id="a_node7"><a xlink:href="classplang_1_1detail_1_1symbol__class__manager.html" target="_top" xlink:title=" ">
<polygon fill="none" stroke="black" points="283,-93.5 283,-123.5 390,-123.5 390,-93.5 283,-93.5"/>
<text text-anchor="start" x="291" y="-111.5" font-family="Helvetica,sans-Serif" font-size="10.00">plang::detail::symbol</text>
<text text-anchor="middle" x="336.5" y="-100.5" font-family="Helvetica,sans-Serif" font-size="10.00">_class_manager</text>
</a>
</g>
</g>
<!-- Node1&#45;&gt;Node7 -->
<g id="edge10" class="edge">
<title>Node1&#45;&gt;Node7</title>
<path fill="none" stroke="darkgreen" d="M114.25,-91.27C164.54,-95.19 235.01,-100.67 282.81,-104.4"/>
<polygon fill="darkgreen" stroke="darkgreen" points="114.4,-87.77 104.16,-90.48 113.86,-94.75 114.4,-87.77"/>
</g>
<!-- Node8 -->
<g id="node8" class="node">
<title>Node8</title>
<g id="a_node8"><a xlink:href="classplang_1_1detail_1_1symbol__manager.html" target="_top" xlink:title=" ">
<polygon fill="none" stroke="black" points="140,-0.5 140,-30.5 247,-30.5 247,-0.5 140,-0.5"/>
<text text-anchor="start" x="148" y="-18.5" font-family="Helvetica,sans-Serif" font-size="10.00">plang::detail::symbol</text>
<text text-anchor="middle" x="193.5" y="-7.5" font-family="Helvetica,sans-Serif" font-size="10.00">_manager</text>
</a>
</g>
</g>
<!-- Node1&#45;&gt;Node8 -->
<g id="edge11" class="edge">
<title>Node1&#45;&gt;Node8</title>
<path fill="none" stroke="darkgreen" d="M79.44,-72.15C96.61,-62.92 119.52,-50.79 140,-40.5 146.5,-37.24 153.49,-33.83 160.19,-30.62"/>
<polygon fill="darkgreen" stroke="darkgreen" points="77.69,-69.12 70.55,-76.94 81.01,-75.28 77.69,-69.12"/>
</g>
<!-- Node4 -->
<g id="node4" class="node">
<title>Node4</title>
<g id="a_node4"><a xlink:href="structplang_1_1detail_1_1mixin__base.html" target="_top" xlink:title=" ">
<polygon fill="none" stroke="black" points="426,-61 426,-124 539,-124 539,-61 426,-61"/>
<text text-anchor="start" x="434" y="-112" font-family="Helvetica,sans-Serif" font-size="10.00">plang::detail::mixin</text>
<text text-anchor="start" x="434" y="-101" font-family="Helvetica,sans-Serif" font-size="10.00">_base&lt; plang::detail</text>
<text text-anchor="start" x="434" y="-90" font-family="Helvetica,sans-Serif" font-size="10.00">::path_manager, plang</text>
<text text-anchor="start" x="434" y="-79" font-family="Helvetica,sans-Serif" font-size="10.00">::detail::symbol_class</text>
<text text-anchor="middle" x="482.5" y="-68" font-family="Helvetica,sans-Serif" font-size="10.00">_manager &gt;</text>
</a>
</g>
</g>
<!-- Node3&#45;&gt;Node4 -->
<g id="edge3" class="edge">
<title>Node3&#45;&gt;Node4</title>
<path fill="none" stroke="midnightblue" d="M250.73,-69.99C301.39,-74.93 375.45,-82.15 425.91,-87.08"/>
<polygon fill="midnightblue" stroke="midnightblue" points="250.9,-66.49 240.61,-69 250.22,-73.45 250.9,-66.49"/>
</g>
<!-- Node6 -->
<g id="node6" class="node">
<title>Node6</title>
<g id="a_node6"><a xlink:href="structplang_1_1detail_1_1mixin__base.html" target="_top" xlink:title="Common derived class template for distributed overloading.">
<polygon fill="none" stroke="black" points="433.5,-11.5 433.5,-41.5 531.5,-41.5 531.5,-11.5 433.5,-11.5"/>
<text text-anchor="start" x="441.5" y="-29.5" font-family="Helvetica,sans-Serif" font-size="10.00">plang::detail::mixin</text>
<text text-anchor="middle" x="482.5" y="-18.5" font-family="Helvetica,sans-Serif" font-size="10.00">_base&lt; Tps &gt;</text>
</a>
</g>
</g>
<!-- Node3&#45;&gt;Node6 -->
<g id="edge6" class="edge">
<title>Node3&#45;&gt;Node6</title>
<path fill="none" stroke="midnightblue" d="M250.55,-57.08C303.68,-50.04 382.66,-39.59 433.11,-32.91"/>
<polygon fill="midnightblue" stroke="midnightblue" points="250.07,-53.61 240.61,-58.39 250.98,-60.55 250.07,-53.61"/>
</g>
<!-- Node3&#45;&gt;Node7 -->
<g id="edge7" class="edge">
<title>Node3&#45;&gt;Node7</title>
<path fill="none" stroke="#8b1a1a" d="M250.31,-81.92C262.54,-85.73 275.39,-89.74 287.29,-93.46"/>
<polygon fill="#8b1a1a" stroke="#8b1a1a" points="251.26,-78.55 240.67,-78.91 249.17,-85.23 251.26,-78.55"/>
</g>
<!-- Node5 -->
<g id="node5" class="node">
<title>Node5</title>
<g id="a_node5"><a xlink:href="structplang_1_1detail_1_1corpus__mixins.html" target="_top" xlink:title="Base class for the corpus.">
<polygon fill="none" stroke="black" points="575,-85.5 575,-115.5 679,-115.5 679,-85.5 575,-85.5"/>
<text text-anchor="start" x="583" y="-103.5" font-family="Helvetica,sans-Serif" font-size="10.00">plang::detail::corpus</text>
<text text-anchor="middle" x="627" y="-92.5" font-family="Helvetica,sans-Serif" font-size="10.00">_mixins</text>
</a>
</g>
</g>
<!-- Node4&#45;&gt;Node5 -->
<g id="edge4" class="edge">
<title>Node4&#45;&gt;Node5</title>
<path fill="none" stroke="midnightblue" d="M549,-96.18C557.59,-96.66 566.3,-97.15 574.61,-97.61"/>
<polygon fill="midnightblue" stroke="midnightblue" points="549.18,-92.68 539,-95.62 548.79,-99.67 549.18,-92.68"/>
</g>
<!-- Node5&#45;&gt;Node2 -->
<g id="edge5" class="edge">
<title>Node5&#45;&gt;Node2</title>
<path fill="none" stroke="midnightblue" d="M689.17,-111.4C697.95,-112.96 706.74,-114.53 714.85,-115.97"/>
<polygon fill="midnightblue" stroke="midnightblue" points="689.76,-107.95 679.3,-109.64 688.53,-114.84 689.76,-107.95"/>
</g>
<!-- Node7&#45;&gt;Node4 -->
<g id="edge8" class="edge">
<title>Node7&#45;&gt;Node4</title>
<path fill="none" stroke="midnightblue" d="M400.47,-101.5C408.9,-100.57 417.5,-99.61 425.8,-98.69"/>
<polygon fill="midnightblue" stroke="midnightblue" points="399.85,-98.05 390.3,-102.63 400.63,-105.01 399.85,-98.05"/>
</g>
<!-- Node7&#45;&gt;Node6 -->
<g id="edge9" class="edge">
<title>Node7&#45;&gt;Node6</title>
<path fill="none" stroke="midnightblue" d="M367.46,-87.61C384.29,-76.29 405.9,-62.42 426,-51.5 432.31,-48.07 439.19,-44.7 445.88,-41.59"/>
<polygon fill="midnightblue" stroke="midnightblue" points="365.44,-84.76 359.13,-93.27 369.37,-90.55 365.44,-84.76"/>
</g>
</g>
</svg>
