<?xml version="1.0" encoding="UTF-8" standalone="no"?>
<!DOCTYPE svg PUBLIC "-//W3C//DTD SVG 1.1//EN"
 "http://www.w3.org/Graphics/SVG/1.1/DTD/svg11.dtd">
<!-- Generated by graphviz version 2.44.1 (20220725.2034)
 -->
<!-- Title: plang::corpus Pages: 1 -->
<svg width="197pt" height="296pt"
 viewBox="0.00 0.00 196.50 296.00" xmlns="http://www.w3.org/2000/svg" xmlns:xlink="http://www.w3.org/1999/xlink">
<g id="graph0" class="graph" transform="scale(1 1) rotate(0) translate(4 292)">
<title>plang::corpus</title>
<!-- Node1 -->
<g id="node1" class="node">
<title>Node1</title>
<g id="a_node1"><a xlink:title="The main interface for interacting with a corpus.">
<polygon fill="#bfbfbf" stroke="black" points="17.5,-0.5 17.5,-19.5 92.5,-19.5 92.5,-0.5 17.5,-0.5"/>
<text text-anchor="middle" x="55" y="-7.5" font-family="Helvetica,sans-Serif" font-size="10.00">plang::corpus</text>
</a>
</g>
</g>
<!-- Node2 -->
<g id="node2" class="node">
<title>Node2</title>
<g id="a_node2"><a xlink:href="classplang_1_1detail_1_1corpus.html" target="_top" xlink:title="Provides a basic interface to a database.">
<polygon fill="none" stroke="black" points="0,-268.5 0,-287.5 104,-287.5 104,-268.5 0,-268.5"/>
<text text-anchor="middle" x="52" y="-275.5" font-family="Helvetica,sans-Serif" font-size="10.00">plang::detail::corpus</text>
</a>
</g>
</g>
<!-- Node2&#45;&gt;Node1 -->
<g id="edge1" class="edge">
<title>Node2&#45;&gt;Node1</title>
<path fill="none" stroke="midnightblue" d="M43.06,-259.2C39.48,-251.11 35.79,-241.3 34,-232 19.21,-155.19 17.06,-132.37 34,-56 36.99,-42.53 44.44,-28.32 49.62,-19.56"/>
<polygon fill="midnightblue" stroke="midnightblue" points="39.94,-260.79 47.38,-268.34 46.27,-257.8 39.94,-260.79"/>
</g>
<!-- Node5 -->
<g id="node5" class="node">
<title>Node5</title>
<g id="a_node5"><a xlink:href="classplang_1_1detail_1_1path__manager.html" target="_top" xlink:title="Handles database actions for paths.">
<polygon fill="none" stroke="black" points="43,-201.5 43,-231.5 137,-231.5 137,-201.5 43,-201.5"/>
<text text-anchor="start" x="51" y="-219.5" font-family="Helvetica,sans-Serif" font-size="10.00">plang::detail::path</text>
<text text-anchor="middle" x="90" y="-208.5" font-family="Helvetica,sans-Serif" font-size="10.00">_manager</text>
</a>
</g>
</g>
<!-- Node2&#45;&gt;Node5 -->
<g id="edge5" class="edge">
<title>Node2&#45;&gt;Node5</title>
<path fill="none" stroke="darkgreen" d="M62.88,-259.96C68.63,-250.96 75.61,-240.03 81.04,-231.52"/>
<polygon fill="darkgreen" stroke="darkgreen" points="59.88,-258.16 57.44,-268.48 65.78,-261.93 59.88,-258.16"/>
</g>
<!-- Node3 -->
<g id="node3" class="node">
<title>Node3</title>
<g id="a_node3"><a xlink:href="structplang_1_1detail_1_1corpus__mixins.html" target="_top" xlink:title="Base class for the corpus.">
<polygon fill="none" stroke="black" points="43,-56.5 43,-86.5 147,-86.5 147,-56.5 43,-56.5"/>
<text text-anchor="start" x="51" y="-74.5" font-family="Helvetica,sans-Serif" font-size="10.00">plang::detail::corpus</text>
<text text-anchor="middle" x="95" y="-63.5" font-family="Helvetica,sans-Serif" font-size="10.00">_mixins</text>
</a>
</g>
</g>
<!-- Node3&#45;&gt;Node1 -->
<g id="edge2" class="edge">
<title>Node3&#45;&gt;Node1</title>
<path fill="none" stroke="midnightblue" d="M79.74,-47.8C73.13,-37.96 65.78,-27.03 60.82,-19.66"/>
<polygon fill="midnightblue" stroke="midnightblue" points="77.04,-50.05 85.52,-56.4 82.85,-46.15 77.04,-50.05"/>
</g>
<!-- Node4 -->
<g id="node4" class="node">
<title>Node4</title>
<g id="a_node4"><a xlink:href="structplang_1_1detail_1_1mixin__base.html" target="_top" xlink:title=" ">
<polygon fill="none" stroke="black" points="43,-123.5 43,-164.5 147,-164.5 147,-123.5 43,-123.5"/>
<text text-anchor="start" x="51" y="-152.5" font-family="Helvetica,sans-Serif" font-size="10.00">plang::detail::mixin</text>
<text text-anchor="start" x="51" y="-141.5" font-family="Helvetica,sans-Serif" font-size="10.00">_base&lt; plang::detail</text>
<text text-anchor="middle" x="95" y="-130.5" font-family="Helvetica,sans-Serif" font-size="10.00">::path_manager &gt;</text>
</a>
</g>
</g>
<!-- Node4&#45;&gt;Node3 -->
<g id="edge3" class="edge">
<title>Node4&#45;&gt;Node3</title>
<path fill="none" stroke="midnightblue" d="M95,-113.08C95,-104.01 95,-94.45 95,-86.89"/>
<polygon fill="midnightblue" stroke="midnightblue" points="91.5,-113.36 95,-123.36 98.5,-113.36 91.5,-113.36"/>
</g>
<!-- Node5&#45;&gt;Node4 -->
<g id="edge4" class="edge">
<title>Node5&#45;&gt;Node4</title>
<path fill="none" stroke="midnightblue" d="M91.74,-190.98C92.35,-182.35 93.03,-172.76 93.61,-164.59"/>
<polygon fill="midnightblue" stroke="midnightblue" points="88.23,-191.01 91.01,-201.23 95.21,-191.51 88.23,-191.01"/>
</g>
<!-- Node6 -->
<g id="node6" class="node">
<title>Node6</title>
<g id="a_node6"><a xlink:title=" ">
<polygon fill="none" stroke="#bfbfbf" points="155.5,-207 155.5,-226 188.5,-226 188.5,-207 155.5,-207"/>
<text text-anchor="middle" x="172" y="-214" font-family="Helvetica,sans-Serif" font-size="10.00">Tps</text>
</a>
</g>
</g>
<!-- Node6&#45;&gt;Node4 -->
<g id="edge6" class="edge">
<title>Node6&#45;&gt;Node4</title>
<path fill="none" stroke="midnightblue" d="M155.04,-199.97C143.69,-189.58 128.66,-175.82 116.47,-164.66"/>
<polygon fill="midnightblue" stroke="midnightblue" points="152.82,-202.68 162.56,-206.86 157.55,-197.52 152.82,-202.68"/>
</g>
</g>
</svg>
