<?xml version="1.0" encoding="UTF-8" standalone="no"?>
<!DOCTYPE svg PUBLIC "-//W3C//DTD SVG 1.1//EN"
 "http://www.w3.org/Graphics/SVG/1.1/DTD/svg11.dtd">
<!-- Generated by graphviz version 2.44.1 (20220725.2034)
 -->
<!-- Title: plang::exception::cli_error Pages: 1 -->
<svg width="417pt" height="186pt"
 viewBox="0.00 0.00 417.00 186.00" xmlns="http://www.w3.org/2000/svg" xmlns:xlink="http://www.w3.org/1999/xlink">
<g id="graph0" class="graph" transform="scale(1 1) rotate(0) translate(4 182)">
<title>plang::exception::cli_error</title>
<!-- Node1 -->
<g id="node1" class="node">
<title>Node1</title>
<g id="a_node1"><a xlink:title=" ">
<polygon fill="#bfbfbf" stroke="black" points="129,-73.5 129,-103.5 233,-103.5 233,-73.5 129,-73.5"/>
<text text-anchor="start" x="137" y="-91.5" font-family="Helvetica,sans-Serif" font-size="10.00">plang::exception::cli</text>
<text text-anchor="middle" x="181" y="-80.5" font-family="Helvetica,sans-Serif" font-size="10.00">_error</text>
</a>
</g>
</g>
<!-- Node3 -->
<g id="node3" class="node">
<title>Node3</title>
<g id="a_node3"><a xlink:href="classplang_1_1exception_1_1io__error.html" target="_top" xlink:title=" ">
<polygon fill="none" stroke="black" points="288.5,-147.5 288.5,-177.5 389.5,-177.5 389.5,-147.5 288.5,-147.5"/>
<text text-anchor="start" x="296.5" y="-165.5" font-family="Helvetica,sans-Serif" font-size="10.00">plang::exception::io</text>
<text text-anchor="middle" x="339" y="-154.5" font-family="Helvetica,sans-Serif" font-size="10.00">_error</text>
</a>
</g>
</g>
<!-- Node1&#45;&gt;Node3 -->
<g id="edge2" class="edge">
<title>Node1&#45;&gt;Node3</title>
<path fill="none" stroke="midnightblue" d="M214.34,-109.02C230.4,-118.7 250.32,-129.97 269,-138.5 275.92,-141.66 283.39,-144.66 290.77,-147.39"/>
<polygon fill="midnightblue" stroke="midnightblue" points="215.73,-105.76 205.37,-103.53 212.07,-111.73 215.73,-105.76"/>
</g>
<!-- Node4 -->
<g id="node4" class="node">
<title>Node4</title>
<g id="a_node4"><a xlink:href="classplang_1_1exception_1_1malformed__command__error.html" target="_top" xlink:title=" ">
<polygon fill="none" stroke="black" points="269,-98.5 269,-128.5 409,-128.5 409,-98.5 269,-98.5"/>
<text text-anchor="start" x="277" y="-116.5" font-family="Helvetica,sans-Serif" font-size="10.00">plang::exception::malformed</text>
<text text-anchor="middle" x="339" y="-105.5" font-family="Helvetica,sans-Serif" font-size="10.00">_command_error</text>
</a>
</g>
</g>
<!-- Node1&#45;&gt;Node4 -->
<g id="edge3" class="edge">
<title>Node1&#45;&gt;Node4</title>
<path fill="none" stroke="midnightblue" d="M243.21,-98.31C251.66,-99.66 260.38,-101.06 268.95,-102.43"/>
<polygon fill="midnightblue" stroke="midnightblue" points="243.51,-94.81 233.08,-96.69 242.4,-101.72 243.51,-94.81"/>
</g>
<!-- Node5 -->
<g id="node5" class="node">
<title>Node5</title>
<g id="a_node5"><a xlink:href="classplang_1_1exception_1_1no__corpus__error.html" target="_top" xlink:title=" ">
<polygon fill="none" stroke="black" points="287,-49.5 287,-79.5 391,-79.5 391,-49.5 287,-49.5"/>
<text text-anchor="start" x="295" y="-67.5" font-family="Helvetica,sans-Serif" font-size="10.00">plang::exception::no</text>
<text text-anchor="middle" x="339" y="-56.5" font-family="Helvetica,sans-Serif" font-size="10.00">_corpus_error</text>
</a>
</g>
</g>
<!-- Node1&#45;&gt;Node5 -->
<g id="edge4" class="edge">
<title>Node1&#45;&gt;Node5</title>
<path fill="none" stroke="midnightblue" d="M243.38,-79.06C257.76,-76.84 272.93,-74.51 286.81,-72.38"/>
<polygon fill="midnightblue" stroke="midnightblue" points="242.43,-75.66 233.08,-80.64 243.5,-82.58 242.43,-75.66"/>
</g>
<!-- Node6 -->
<g id="node6" class="node">
<title>Node6</title>
<g id="a_node6"><a xlink:href="classplang_1_1exception_1_1unknown__command__error.html" target="_top" xlink:title=" ">
<polygon fill="none" stroke="black" points="272.5,-0.5 272.5,-30.5 405.5,-30.5 405.5,-0.5 272.5,-0.5"/>
<text text-anchor="start" x="280.5" y="-18.5" font-family="Helvetica,sans-Serif" font-size="10.00">plang::exception::unknown</text>
<text text-anchor="middle" x="339" y="-7.5" font-family="Helvetica,sans-Serif" font-size="10.00">_command_error</text>
</a>
</g>
</g>
<!-- Node1&#45;&gt;Node6 -->
<g id="edge5" class="edge">
<title>Node1&#45;&gt;Node6</title>
<path fill="none" stroke="midnightblue" d="M215.07,-68.03C231.02,-58.64 250.64,-47.78 269,-39.5 276.05,-36.32 283.66,-33.29 291.16,-30.52"/>
<polygon fill="midnightblue" stroke="midnightblue" points="212.94,-65.23 206.14,-73.36 216.52,-71.24 212.94,-65.23"/>
</g>
<!-- Node2 -->
<g id="node2" class="node">
<title>Node2</title>
<g id="a_node2"><a xlink:title=" ">
<polygon fill="none" stroke="#bfbfbf" points="0,-79 0,-98 93,-98 93,-79 0,-79"/>
<text text-anchor="middle" x="46.5" y="-86" font-family="Helvetica,sans-Serif" font-size="10.00">std::runtime_error</text>
</a>
</g>
</g>
<!-- Node2&#45;&gt;Node1 -->
<g id="edge1" class="edge">
<title>Node2&#45;&gt;Node1</title>
<path fill="none" stroke="midnightblue" d="M103.29,-88.5C111.77,-88.5 120.49,-88.5 128.86,-88.5"/>
<polygon fill="midnightblue" stroke="midnightblue" points="103.1,-85 93.1,-88.5 103.1,-92 103.1,-85"/>
</g>
</g>
</svg>
