<?xml version="1.0" encoding="UTF-8" standalone="no"?>
<!DOCTYPE svg PUBLIC "-//W3C//DTD SVG 1.1//EN"
 "http://www.w3.org/Graphics/SVG/1.1/DTD/svg11.dtd">
<!-- Generated by graphviz version 2.44.1 (20220725.2034)
 -->
<!-- Title: plang::detail::path_manager Pages: 1 -->
<svg width="1093pt" height="236pt"
 viewBox="0.00 0.00 1093.00 236.47" xmlns="http://www.w3.org/2000/svg" xmlns:xlink="http://www.w3.org/1999/xlink">
<g id="graph0" class="graph" transform="scale(1 1) rotate(0) translate(4 232.47)">
<title>plang::detail::path_manager</title>
<!-- Node1 -->
<g id="node1" class="node">
<title>Node1</title>
<g id="a_node1"><a xlink:title="Handles database actions for paths.">
<polygon fill="#bfbfbf" stroke="black" points="140,-115.47 140,-145.47 234,-145.47 234,-115.47 140,-115.47"/>
<text text-anchor="start" x="148" y="-133.47" font-family="Helvetica,sans-Serif" font-size="10.00">plang::detail::path</text>
<text text-anchor="middle" x="187" y="-122.47" font-family="Helvetica,sans-Serif" font-size="10.00">_manager</text>
</a>
</g>
</g>
<!-- Node3 -->
<g id="node3" class="node">
<title>Node3</title>
<g id="a_node3"><a xlink:href="structplang_1_1detail_1_1mixin__base.html" target="_top" xlink:title=" ">
<polygon fill="none" stroke="black" points="693,-120.97 693,-227.97 834,-227.97 834,-120.97 693,-120.97"/>
<text text-anchor="start" x="701" y="-215.97" font-family="Helvetica,sans-Serif" font-size="10.00">plang::detail::mixin</text>
<text text-anchor="start" x="701" y="-204.97" font-family="Helvetica,sans-Serif" font-size="10.00">_base&lt; plang::detail</text>
<text text-anchor="start" x="701" y="-193.97" font-family="Helvetica,sans-Serif" font-size="10.00">::path_manager, plang</text>
<text text-anchor="start" x="701" y="-182.97" font-family="Helvetica,sans-Serif" font-size="10.00">::detail::symbol_class</text>
<text text-anchor="start" x="701" y="-171.97" font-family="Helvetica,sans-Serif" font-size="10.00">_manager, plang::detail</text>
<text text-anchor="start" x="701" y="-160.97" font-family="Helvetica,sans-Serif" font-size="10.00">::symbol_manager, plang::</text>
<text text-anchor="start" x="701" y="-149.97" font-family="Helvetica,sans-Serif" font-size="10.00">detail::point_class_manager,</text>
<text text-anchor="start" x="701" y="-138.97" font-family="Helvetica,sans-Serif" font-size="10.00"> plang::detail::object_class</text>
<text text-anchor="middle" x="763.5" y="-127.97" font-family="Helvetica,sans-Serif" font-size="10.00">_manager &gt;</text>
</a>
</g>
</g>
<!-- Node1&#45;&gt;Node3 -->
<g id="edge2" class="edge">
<title>Node1&#45;&gt;Node3</title>
<path fill="none" stroke="midnightblue" d="M226.29,-150.02C239.8,-156.17 255.29,-162.41 270,-166.47 436.49,-212.37 485.65,-223.05 657,-201.47 668.72,-199.99 681.01,-197.63 692.89,-194.9"/>
<polygon fill="midnightblue" stroke="midnightblue" points="227.39,-146.67 216.85,-145.59 224.42,-153.01 227.39,-146.67"/>
</g>
<!-- Node6 -->
<g id="node6" class="node">
<title>Node6</title>
<g id="a_node6"><a xlink:href="structplang_1_1detail_1_1mixin__base.html" target="_top" xlink:title="Common derived class template for distributed overloading.">
<polygon fill="none" stroke="black" points="714.5,-27.47 714.5,-57.47 812.5,-57.47 812.5,-27.47 714.5,-27.47"/>
<text text-anchor="start" x="722.5" y="-45.47" font-family="Helvetica,sans-Serif" font-size="10.00">plang::detail::mixin</text>
<text text-anchor="middle" x="763.5" y="-34.47" font-family="Helvetica,sans-Serif" font-size="10.00">_base&lt; Tps &gt;</text>
</a>
</g>
</g>
<!-- Node1&#45;&gt;Node6 -->
<g id="edge5" class="edge">
<title>Node1&#45;&gt;Node6</title>
<path fill="none" stroke="midnightblue" d="M209.51,-108C225.06,-92.94 247.25,-73.68 270,-61.47 328.36,-30.14 347.82,-31.28 413,-19.47 519.8,-0.11 549.71,6.92 657,-9.47 679.77,-12.95 704.37,-20.41 724.09,-27.37"/>
<polygon fill="midnightblue" stroke="midnightblue" points="206.65,-105.91 202.02,-115.44 211.59,-110.88 206.65,-105.91"/>
</g>
<!-- Node7 -->
<g id="node7" class="node">
<title>Node7</title>
<g id="a_node7"><a xlink:href="classplang_1_1detail_1_1object__class__manager.html" target="_top" xlink:title=" ">
<polygon fill="none" stroke="black" points="413,-115.47 413,-145.47 514,-145.47 514,-115.47 413,-115.47"/>
<text text-anchor="start" x="421" y="-133.47" font-family="Helvetica,sans-Serif" font-size="10.00">plang::detail::object</text>
<text text-anchor="middle" x="463.5" y="-122.47" font-family="Helvetica,sans-Serif" font-size="10.00">_class_manager</text>
</a>
</g>
</g>
<!-- Node1&#45;&gt;Node7 -->
<g id="edge6" class="edge">
<title>Node1&#45;&gt;Node7</title>
<path fill="none" stroke="darkgreen" d="M244.48,-130.47C294.03,-130.47 365.38,-130.47 412.8,-130.47"/>
<polygon fill="darkgreen" stroke="darkgreen" points="244.25,-126.97 234.25,-130.47 244.25,-133.97 244.25,-126.97"/>
</g>
<!-- Node8 -->
<g id="node8" class="node">
<title>Node8</title>
<g id="a_node8"><a xlink:href="classplang_1_1detail_1_1point__class__manager.html" target="_top" xlink:title=" ">
<polygon fill="none" stroke="black" points="555.5,-115.47 555.5,-145.47 651.5,-145.47 651.5,-115.47 555.5,-115.47"/>
<text text-anchor="start" x="563.5" y="-133.47" font-family="Helvetica,sans-Serif" font-size="10.00">plang::detail::point</text>
<text text-anchor="middle" x="603.5" y="-122.47" font-family="Helvetica,sans-Serif" font-size="10.00">_class_manager</text>
</a>
</g>
</g>
<!-- Node1&#45;&gt;Node8 -->
<g id="edge12" class="edge">
<title>Node1&#45;&gt;Node8</title>
<path fill="none" stroke="darkgreen" d="M244.12,-141.58C309.24,-152.86 419.75,-167.02 514,-154.47 527.89,-152.62 542.68,-149.2 556.12,-145.52"/>
<polygon fill="darkgreen" stroke="darkgreen" points="244.52,-138.1 234.07,-139.8 243.3,-144.99 244.52,-138.1"/>
</g>
<!-- Node9 -->
<g id="node9" class="node">
<title>Node9</title>
<g id="a_node9"><a xlink:href="classplang_1_1detail_1_1symbol__class__manager.html" target="_top" xlink:title=" ">
<polygon fill="none" stroke="black" points="270,-71.47 270,-101.47 377,-101.47 377,-71.47 270,-71.47"/>
<text text-anchor="start" x="278" y="-89.47" font-family="Helvetica,sans-Serif" font-size="10.00">plang::detail::symbol</text>
<text text-anchor="middle" x="323.5" y="-78.47" font-family="Helvetica,sans-Serif" font-size="10.00">_class_manager</text>
</a>
</g>
</g>
<!-- Node1&#45;&gt;Node9 -->
<g id="edge13" class="edge">
<title>Node1&#45;&gt;Node9</title>
<path fill="none" stroke="darkgreen" d="M243.73,-112.24C254.58,-108.69 265.84,-105 276.34,-101.57"/>
<polygon fill="darkgreen" stroke="darkgreen" points="242.33,-109.01 233.91,-115.45 244.5,-115.67 242.33,-109.01"/>
</g>
<!-- Node2 -->
<g id="node2" class="node">
<title>Node2</title>
<g id="a_node2"><a xlink:href="classplang_1_1detail_1_1corpus.html" target="_top" xlink:title="Provides a basic interface to a database.">
<polygon fill="none" stroke="black" points="0,-120.97 0,-139.97 104,-139.97 104,-120.97 0,-120.97"/>
<text text-anchor="middle" x="52" y="-127.97" font-family="Helvetica,sans-Serif" font-size="10.00">plang::detail::corpus</text>
</a>
</g>
</g>
<!-- Node2&#45;&gt;Node1 -->
<g id="edge1" class="edge">
<title>Node2&#45;&gt;Node1</title>
<path fill="none" stroke="darkgreen" d="M114.06,-130.47C122.67,-130.47 131.4,-130.47 139.67,-130.47"/>
<polygon fill="darkgreen" stroke="darkgreen" points="114.04,-126.97 104.04,-130.47 114.04,-133.97 114.04,-126.97"/>
</g>
<!-- Node4 -->
<g id="node4" class="node">
<title>Node4</title>
<g id="a_node4"><a xlink:href="structplang_1_1detail_1_1corpus__mixins.html" target="_top" xlink:title="Base class for the corpus.">
<polygon fill="none" stroke="black" points="870,-159.47 870,-189.47 974,-189.47 974,-159.47 870,-159.47"/>
<text text-anchor="start" x="878" y="-177.47" font-family="Helvetica,sans-Serif" font-size="10.00">plang::detail::corpus</text>
<text text-anchor="middle" x="922" y="-166.47" font-family="Helvetica,sans-Serif" font-size="10.00">_mixins</text>
</a>
</g>
</g>
<!-- Node3&#45;&gt;Node4 -->
<g id="edge3" class="edge">
<title>Node3&#45;&gt;Node4</title>
<path fill="none" stroke="midnightblue" d="M844.29,-174.47C853.02,-174.47 861.72,-174.47 869.97,-174.47"/>
<polygon fill="midnightblue" stroke="midnightblue" points="844.05,-170.97 834.05,-174.47 844.05,-177.97 844.05,-170.97"/>
</g>
<!-- Node5 -->
<g id="node5" class="node">
<title>Node5</title>
<g id="a_node5"><a xlink:href="classplang_1_1corpus.html" target="_top" xlink:title="The main interface for interacting with a corpus.">
<polygon fill="none" stroke="black" points="1010,-164.97 1010,-183.97 1085,-183.97 1085,-164.97 1010,-164.97"/>
<text text-anchor="middle" x="1047.5" y="-171.97" font-family="Helvetica,sans-Serif" font-size="10.00">plang::corpus</text>
</a>
</g>
</g>
<!-- Node4&#45;&gt;Node5 -->
<g id="edge4" class="edge">
<title>Node4&#45;&gt;Node5</title>
<path fill="none" stroke="midnightblue" d="M984.45,-174.47C993.14,-174.47 1001.83,-174.47 1009.85,-174.47"/>
<polygon fill="midnightblue" stroke="midnightblue" points="984.3,-170.97 974.3,-174.47 984.3,-177.97 984.3,-170.97"/>
</g>
<!-- Node7&#45;&gt;Node3 -->
<g id="edge7" class="edge">
<title>Node7&#45;&gt;Node3</title>
<path fill="none" stroke="midnightblue" d="M522.36,-148.22C531.54,-150.6 540.98,-152.79 550,-154.47 597.18,-163.24 651,-168.25 692.68,-171.07"/>
<polygon fill="midnightblue" stroke="midnightblue" points="523.09,-144.79 512.53,-145.58 521.28,-151.55 523.09,-144.79"/>
</g>
<!-- Node7&#45;&gt;Node6 -->
<g id="edge8" class="edge">
<title>Node7&#45;&gt;Node6</title>
<path fill="none" stroke="midnightblue" d="M523.81,-112.95C579.69,-96.45 662.39,-72.03 714.32,-56.7"/>
<polygon fill="midnightblue" stroke="midnightblue" points="522.64,-109.65 514.04,-115.84 524.63,-116.36 522.64,-109.65"/>
</g>
<!-- Node7&#45;&gt;Node8 -->
<g id="edge9" class="edge">
<title>Node7&#45;&gt;Node8</title>
<path fill="none" stroke="darkgreen" d="M524.44,-130.47C534.68,-130.47 545.2,-130.47 555.06,-130.47"/>
<polygon fill="darkgreen" stroke="darkgreen" points="524.32,-126.97 514.32,-130.47 524.32,-133.97 524.32,-126.97"/>
</g>
<!-- Node8&#45;&gt;Node3 -->
<g id="edge10" class="edge">
<title>Node8&#45;&gt;Node3</title>
<path fill="none" stroke="midnightblue" d="M661.81,-146.43C671.92,-149.24 682.53,-152.2 692.93,-155.09"/>
<polygon fill="midnightblue" stroke="midnightblue" points="662.48,-142.98 651.91,-143.67 660.6,-149.72 662.48,-142.98"/>
</g>
<!-- Node8&#45;&gt;Node6 -->
<g id="edge11" class="edge">
<title>Node8&#45;&gt;Node6</title>
<path fill="none" stroke="midnightblue" d="M640.61,-110.35C669.46,-94.29 709.27,-72.12 735.43,-57.55"/>
<polygon fill="midnightblue" stroke="midnightblue" points="638.69,-107.42 631.66,-115.34 642.1,-113.53 638.69,-107.42"/>
</g>
<!-- Node9&#45;&gt;Node3 -->
<g id="edge14" class="edge">
<title>Node9&#45;&gt;Node3</title>
<path fill="none" stroke="midnightblue" d="M346.84,-108.83C363.6,-124.22 387.89,-143.74 413,-154.47 503.69,-193.2 619.81,-190.87 692.7,-183.97"/>
<polygon fill="midnightblue" stroke="midnightblue" points="348.93,-105.98 339.25,-101.67 344.12,-111.08 348.93,-105.98"/>
</g>
<!-- Node9&#45;&gt;Node6 -->
<g id="edge15" class="edge">
<title>Node9&#45;&gt;Node6</title>
<path fill="none" stroke="midnightblue" d="M371.92,-67.79C385.12,-62.86 399.54,-57.73 413,-53.47 517.5,-20.35 548.12,-4.74 657,-17.47 675.98,-19.69 696.49,-24.07 714.34,-28.56"/>
<polygon fill="midnightblue" stroke="midnightblue" points="370.66,-64.52 362.54,-71.33 373.14,-71.07 370.66,-64.52"/>
</g>
<!-- Node9&#45;&gt;Node7 -->
<g id="edge16" class="edge">
<title>Node9&#45;&gt;Node7</title>
<path fill="none" stroke="darkgreen" d="M381.34,-104.59C392.57,-108.17 404.25,-111.9 415.14,-115.37"/>
<polygon fill="darkgreen" stroke="darkgreen" points="382.2,-101.19 371.61,-101.49 380.07,-107.86 382.2,-101.19"/>
</g>
<!-- Node9&#45;&gt;Node8 -->
<g id="edge17" class="edge">
<title>Node9&#45;&gt;Node8</title>
<path fill="none" stroke="darkgreen" d="M387.3,-89.99C424.39,-92.76 472.13,-97.52 514,-105.47 527.49,-108.03 541.9,-111.69 555.1,-115.42"/>
<polygon fill="darkgreen" stroke="darkgreen" points="387.36,-86.49 377.14,-89.26 386.86,-93.47 387.36,-86.49"/>
</g>
<!-- Node10 -->
<g id="node10" class="node">
<title>Node10</title>
<g id="a_node10"><a xlink:href="classplang_1_1detail_1_1symbol__manager.html" target="_top" xlink:title=" ">
<polygon fill="none" stroke="black" points="550,-27.47 550,-57.47 657,-57.47 657,-27.47 550,-27.47"/>
<text text-anchor="start" x="558" y="-45.47" font-family="Helvetica,sans-Serif" font-size="10.00">plang::detail::symbol</text>
<text text-anchor="middle" x="603.5" y="-34.47" font-family="Helvetica,sans-Serif" font-size="10.00">_manager</text>
</a>
</g>
</g>
<!-- Node9&#45;&gt;Node10 -->
<g id="edge18" class="edge">
<title>Node9&#45;&gt;Node10</title>
<path fill="none" stroke="darkgreen" d="M387.27,-76.53C436.21,-68.79 503.4,-58.15 549.63,-50.84"/>
<polygon fill="darkgreen" stroke="darkgreen" points="386.45,-73.12 377.12,-78.14 387.54,-80.03 386.45,-73.12"/>
</g>
<!-- Node10&#45;&gt;Node3 -->
<g id="edge19" class="edge">
<title>Node10&#45;&gt;Node3</title>
<path fill="none" stroke="midnightblue" d="M630.55,-64.23C648.97,-79.62 674.49,-100.94 698.19,-120.74"/>
<polygon fill="midnightblue" stroke="midnightblue" points="632.54,-61.34 622.62,-57.61 628.05,-66.71 632.54,-61.34"/>
</g>
<!-- Node10&#45;&gt;Node6 -->
<g id="edge20" class="edge">
<title>Node10&#45;&gt;Node6</title>
<path fill="none" stroke="midnightblue" d="M667.26,-42.47C682.95,-42.47 699.53,-42.47 714.38,-42.47"/>
<polygon fill="midnightblue" stroke="midnightblue" points="667.11,-38.97 657.11,-42.47 667.11,-45.97 667.11,-38.97"/>
</g>
</g>
</svg>
