<?xml version="1.0" encoding="UTF-8" standalone="no"?>
<!DOCTYPE svg PUBLIC "-//W3C//DTD SVG 1.1//EN"
 "http://www.w3.org/Graphics/SVG/1.1/DTD/svg11.dtd">
<!-- Generated by graphviz version 2.44.1 (20220725.2034)
 -->
<!-- Title: plang::detail::corpus Pages: 1 -->
<svg width="1093pt" height="387pt"
 viewBox="0.00 0.00 1093.00 387.12" xmlns="http://www.w3.org/2000/svg" xmlns:xlink="http://www.w3.org/1999/xlink">
<g id="graph0" class="graph" transform="scale(1 1) rotate(0) translate(4 383.12)">
<title>plang::detail::corpus</title>
<!-- Node1 -->
<g id="node1" class="node">
<title>Node1</title>
<g id="a_node1"><a xlink:title="Provides a basic interface to a database.">
<polygon fill="#bfbfbf" stroke="black" points="0,-226.62 0,-245.62 104,-245.62 104,-226.62 0,-226.62"/>
<text text-anchor="middle" x="52" y="-233.62" font-family="Helvetica,sans-Serif" font-size="10.00">plang::detail::corpus</text>
</a>
</g>
</g>
<!-- Node2 -->
<g id="node2" class="node">
<title>Node2</title>
<g id="a_node2"><a xlink:href="classplang_1_1corpus.html" target="_top" xlink:title="The main interface for interacting with a corpus.">
<polygon fill="none" stroke="black" points="1010,-236.62 1010,-255.62 1085,-255.62 1085,-236.62 1010,-236.62"/>
<text text-anchor="middle" x="1047.5" y="-243.62" font-family="Helvetica,sans-Serif" font-size="10.00">plang::corpus</text>
</a>
</g>
</g>
<!-- Node1&#45;&gt;Node2 -->
<g id="edge1" class="edge">
<title>Node1&#45;&gt;Node2</title>
<path fill="none" stroke="midnightblue" d="M70.15,-253C110.47,-290.84 215.96,-379.12 322.5,-379.12 322.5,-379.12 322.5,-379.12 764.5,-379.12 880.34,-379.12 999.57,-286.18 1035.57,-255.68"/>
<polygon fill="midnightblue" stroke="midnightblue" points="72.41,-250.32 62.76,-245.95 67.57,-255.39 72.41,-250.32"/>
</g>
<!-- Node3 -->
<g id="node3" class="node">
<title>Node3</title>
<g id="a_node3"><a xlink:href="classplang_1_1detail_1_1object__class__manager.html" target="_top" xlink:title=" ">
<polygon fill="none" stroke="black" points="413,-16.12 413,-46.12 514,-46.12 514,-16.12 413,-16.12"/>
<text text-anchor="start" x="421" y="-34.12" font-family="Helvetica,sans-Serif" font-size="10.00">plang::detail::object</text>
<text text-anchor="middle" x="463.5" y="-23.12" font-family="Helvetica,sans-Serif" font-size="10.00">_class_manager</text>
</a>
</g>
</g>
<!-- Node1&#45;&gt;Node3 -->
<g id="edge2" class="edge">
<title>Node1&#45;&gt;Node3</title>
<path fill="none" stroke="darkgreen" d="M57.44,-216.11C66.46,-180.37 90.41,-105.69 140,-67.12 219.15,-5.55 344.15,-12.19 412.97,-21.96"/>
<polygon fill="darkgreen" stroke="darkgreen" points="53.94,-215.71 55.02,-226.25 60.75,-217.33 53.94,-215.71"/>
</g>
<!-- Node7 -->
<g id="node7" class="node">
<title>Node7</title>
<g id="a_node7"><a xlink:href="classplang_1_1detail_1_1point__class__manager.html" target="_top" xlink:title=" ">
<polygon fill="none" stroke="black" points="555.5,-136.12 555.5,-166.12 651.5,-166.12 651.5,-136.12 555.5,-136.12"/>
<text text-anchor="start" x="563.5" y="-154.12" font-family="Helvetica,sans-Serif" font-size="10.00">plang::detail::point</text>
<text text-anchor="middle" x="603.5" y="-143.12" font-family="Helvetica,sans-Serif" font-size="10.00">_class_manager</text>
</a>
</g>
</g>
<!-- Node1&#45;&gt;Node7 -->
<g id="edge23" class="edge">
<title>Node1&#45;&gt;Node7</title>
<path fill="none" stroke="darkgreen" d="M114.28,-226.76C202.62,-213.25 370.85,-187.46 514,-165.12 527.37,-163.03 541.88,-160.75 555.2,-158.64"/>
<polygon fill="darkgreen" stroke="darkgreen" points="113.53,-223.34 104.17,-228.31 114.59,-230.25 113.53,-223.34"/>
</g>
<!-- Node8 -->
<g id="node8" class="node">
<title>Node8</title>
<g id="a_node8"><a xlink:href="classplang_1_1detail_1_1path__manager.html" target="_top" xlink:title="Handles database actions for paths.">
<polygon fill="none" stroke="black" points="140,-76.12 140,-106.12 234,-106.12 234,-76.12 140,-76.12"/>
<text text-anchor="start" x="148" y="-94.12" font-family="Helvetica,sans-Serif" font-size="10.00">plang::detail::path</text>
<text text-anchor="middle" x="187" y="-83.12" font-family="Helvetica,sans-Serif" font-size="10.00">_manager</text>
</a>
</g>
</g>
<!-- Node1&#45;&gt;Node8 -->
<g id="edge10" class="edge">
<title>Node1&#45;&gt;Node8</title>
<path fill="none" stroke="darkgreen" d="M68.66,-219.04C94.84,-190.51 147.04,-133.59 172.03,-106.34"/>
<polygon fill="darkgreen" stroke="darkgreen" points="65.91,-216.87 61.73,-226.6 71.07,-221.6 65.91,-216.87"/>
</g>
<!-- Node9 -->
<g id="node9" class="node">
<title>Node9</title>
<g id="a_node9"><a xlink:href="classplang_1_1detail_1_1symbol__class__manager.html" target="_top" xlink:title=" ">
<polygon fill="none" stroke="black" points="270,-136.12 270,-166.12 377,-166.12 377,-136.12 270,-136.12"/>
<text text-anchor="start" x="278" y="-154.12" font-family="Helvetica,sans-Serif" font-size="10.00">plang::detail::symbol</text>
<text text-anchor="middle" x="323.5" y="-143.12" font-family="Helvetica,sans-Serif" font-size="10.00">_class_manager</text>
</a>
</g>
</g>
<!-- Node1&#45;&gt;Node9 -->
<g id="edge24" class="edge">
<title>Node1&#45;&gt;Node9</title>
<path fill="none" stroke="darkgreen" d="M92.96,-223.52C141.47,-208.21 223.21,-182.43 274.93,-166.12"/>
<polygon fill="darkgreen" stroke="darkgreen" points="91.61,-220.27 83.13,-226.61 93.72,-226.94 91.61,-220.27"/>
</g>
<!-- Node10 -->
<g id="node10" class="node">
<title>Node10</title>
<g id="a_node10"><a xlink:href="classplang_1_1detail_1_1symbol__manager.html" target="_top" xlink:title=" ">
<polygon fill="none" stroke="black" points="550,-185.12 550,-215.12 657,-215.12 657,-185.12 550,-185.12"/>
<text text-anchor="start" x="558" y="-203.12" font-family="Helvetica,sans-Serif" font-size="10.00">plang::detail::symbol</text>
<text text-anchor="middle" x="603.5" y="-192.12" font-family="Helvetica,sans-Serif" font-size="10.00">_manager</text>
</a>
</g>
</g>
<!-- Node1&#45;&gt;Node10 -->
<g id="edge25" class="edge">
<title>Node1&#45;&gt;Node10</title>
<path fill="none" stroke="darkgreen" d="M75.92,-251.1C92.86,-261.23 116.88,-273.72 140,-279.12 301.86,-316.94 358.69,-338.35 514,-279.12 547.48,-266.35 576.34,-234.44 591.38,-215.31"/>
<polygon fill="darkgreen" stroke="darkgreen" points="77.65,-248.05 67.3,-245.77 73.97,-254.01 77.65,-248.05"/>
</g>
<!-- Node4 -->
<g id="node4" class="node">
<title>Node4</title>
<g id="a_node4"><a xlink:href="structplang_1_1detail_1_1mixin__base.html" target="_top" xlink:title=" ">
<polygon fill="none" stroke="black" points="693,-56.62 693,-163.62 834,-163.62 834,-56.62 693,-56.62"/>
<text text-anchor="start" x="701" y="-151.62" font-family="Helvetica,sans-Serif" font-size="10.00">plang::detail::mixin</text>
<text text-anchor="start" x="701" y="-140.62" font-family="Helvetica,sans-Serif" font-size="10.00">_base&lt; plang::detail</text>
<text text-anchor="start" x="701" y="-129.62" font-family="Helvetica,sans-Serif" font-size="10.00">::path_manager, plang</text>
<text text-anchor="start" x="701" y="-118.62" font-family="Helvetica,sans-Serif" font-size="10.00">::detail::symbol_class</text>
<text text-anchor="start" x="701" y="-107.62" font-family="Helvetica,sans-Serif" font-size="10.00">_manager, plang::detail</text>
<text text-anchor="start" x="701" y="-96.62" font-family="Helvetica,sans-Serif" font-size="10.00">::symbol_manager, plang::</text>
<text text-anchor="start" x="701" y="-85.62" font-family="Helvetica,sans-Serif" font-size="10.00">detail::point_class_manager,</text>
<text text-anchor="start" x="701" y="-74.62" font-family="Helvetica,sans-Serif" font-size="10.00"> plang::detail::object_class</text>
<text text-anchor="middle" x="763.5" y="-63.62" font-family="Helvetica,sans-Serif" font-size="10.00">_manager &gt;</text>
</a>
</g>
</g>
<!-- Node3&#45;&gt;Node4 -->
<g id="edge3" class="edge">
<title>Node3&#45;&gt;Node4</title>
<path fill="none" stroke="midnightblue" d="M524.22,-33.09C562.83,-35.69 613.76,-41.63 657,-55.12 668.93,-58.84 681.11,-63.87 692.76,-69.39"/>
<polygon fill="midnightblue" stroke="midnightblue" points="524.37,-29.6 514.18,-32.47 523.94,-36.58 524.37,-29.6"/>
</g>
<!-- Node6 -->
<g id="node6" class="node">
<title>Node6</title>
<g id="a_node6"><a xlink:href="structplang_1_1detail_1_1mixin__base.html" target="_top" xlink:title="Common derived class template for distributed overloading.">
<polygon fill="none" stroke="black" points="714.5,-185.12 714.5,-215.12 812.5,-215.12 812.5,-185.12 714.5,-185.12"/>
<text text-anchor="start" x="722.5" y="-203.12" font-family="Helvetica,sans-Serif" font-size="10.00">plang::detail::mixin</text>
<text text-anchor="middle" x="763.5" y="-192.12" font-family="Helvetica,sans-Serif" font-size="10.00">_base&lt; Tps &gt;</text>
</a>
</g>
</g>
<!-- Node3&#45;&gt;Node6 -->
<g id="edge6" class="edge">
<title>Node3&#45;&gt;Node6</title>
<path fill="none" stroke="midnightblue" d="M516.96,-49.87C557.88,-66.16 614.69,-92.57 657,-127.12 677.11,-143.54 672.16,-157.64 693,-173.12 699.44,-177.9 706.84,-181.95 714.36,-185.34"/>
<polygon fill="midnightblue" stroke="midnightblue" points="518.03,-46.53 507.44,-46.15 515.48,-53.05 518.03,-46.53"/>
</g>
<!-- Node3&#45;&gt;Node7 -->
<g id="edge7" class="edge">
<title>Node3&#45;&gt;Node7</title>
<path fill="none" stroke="darkgreen" d="M500.79,-51.66C505.36,-54.66 509.87,-57.85 514,-61.12 543.56,-84.5 573.35,-117.09 589.72,-135.96"/>
<polygon fill="darkgreen" stroke="darkgreen" points="502.36,-48.51 492.03,-46.14 498.62,-54.43 502.36,-48.51"/>
</g>
<!-- Node5 -->
<g id="node5" class="node">
<title>Node5</title>
<g id="a_node5"><a xlink:href="structplang_1_1detail_1_1corpus__mixins.html" target="_top" xlink:title="Base class for the corpus.">
<polygon fill="none" stroke="black" points="870,-209.12 870,-239.12 974,-239.12 974,-209.12 870,-209.12"/>
<text text-anchor="start" x="878" y="-227.12" font-family="Helvetica,sans-Serif" font-size="10.00">plang::detail::corpus</text>
<text text-anchor="middle" x="922" y="-216.12" font-family="Helvetica,sans-Serif" font-size="10.00">_mixins</text>
</a>
</g>
</g>
<!-- Node4&#45;&gt;Node5 -->
<g id="edge4" class="edge">
<title>Node4&#45;&gt;Node5</title>
<path fill="none" stroke="midnightblue" d="M842.24,-166.75C863.64,-182.33 885.09,-197.96 900.19,-208.96"/>
<polygon fill="midnightblue" stroke="midnightblue" points="844.2,-163.84 834.05,-160.78 840.08,-169.5 844.2,-163.84"/>
</g>
<!-- Node5&#45;&gt;Node2 -->
<g id="edge5" class="edge">
<title>Node5&#45;&gt;Node2</title>
<path fill="none" stroke="midnightblue" d="M984.17,-235.01C992.95,-236.58 1001.74,-238.15 1009.85,-239.59"/>
<polygon fill="midnightblue" stroke="midnightblue" points="984.76,-231.56 974.3,-233.26 983.53,-238.46 984.76,-231.56"/>
</g>
<!-- Node7&#45;&gt;Node4 -->
<g id="edge8" class="edge">
<title>Node7&#45;&gt;Node4</title>
<path fill="none" stroke="midnightblue" d="M661.81,-136.25C671.92,-133.62 682.53,-130.87 692.93,-128.17"/>
<polygon fill="midnightblue" stroke="midnightblue" points="660.71,-132.92 651.91,-138.82 662.46,-139.69 660.71,-132.92"/>
</g>
<!-- Node7&#45;&gt;Node6 -->
<g id="edge9" class="edge">
<title>Node7&#45;&gt;Node6</title>
<path fill="none" stroke="midnightblue" d="M661.84,-168.9C679.05,-174.24 697.75,-180.04 714.31,-185.17"/>
<polygon fill="midnightblue" stroke="midnightblue" points="662.49,-165.44 651.91,-165.82 660.42,-172.12 662.49,-165.44"/>
</g>
<!-- Node8&#45;&gt;Node3 -->
<g id="edge13" class="edge">
<title>Node8&#45;&gt;Node3</title>
<path fill="none" stroke="darkgreen" d="M233.79,-72.57C245.46,-68.34 258.07,-64.2 270,-61.12 317.81,-48.77 373.7,-40.75 412.9,-36.14"/>
<polygon fill="darkgreen" stroke="darkgreen" points="232.41,-69.35 224.25,-76.12 234.84,-75.91 232.41,-69.35"/>
</g>
<!-- Node8&#45;&gt;Node4 -->
<g id="edge11" class="edge">
<title>Node8&#45;&gt;Node4</title>
<path fill="none" stroke="midnightblue" d="M214.44,-70.07C229.85,-58.77 250.11,-45.48 270,-37.12 370.78,5.24 405.13,3.7 514,-6.12 578.34,-11.92 597.71,-6.47 657,-32.12 671.63,-38.45 686.15,-47.15 699.53,-56.45"/>
<polygon fill="midnightblue" stroke="midnightblue" points="212.3,-67.3 206.41,-76.11 216.51,-72.9 212.3,-67.3"/>
</g>
<!-- Node8&#45;&gt;Node6 -->
<g id="edge12" class="edge">
<title>Node8&#45;&gt;Node6</title>
<path fill="none" stroke="midnightblue" d="M204.79,-114.31C219.84,-133.5 243.57,-160.11 270,-176.12 379.28,-242.29 422.69,-230.51 550,-241.12 597.39,-245.07 610.26,-249.88 657,-241.12 683.46,-236.16 711.81,-224.76 732.46,-215.24"/>
<polygon fill="midnightblue" stroke="midnightblue" points="207.55,-112.16 198.7,-106.33 201.99,-116.41 207.55,-112.16"/>
</g>
<!-- Node8&#45;&gt;Node7 -->
<g id="edge14" class="edge">
<title>Node8&#45;&gt;Node7</title>
<path fill="none" stroke="darkgreen" d="M244.27,-99.26C326.56,-111.18 478.3,-133.14 555.19,-144.27"/>
<polygon fill="darkgreen" stroke="darkgreen" points="244.74,-95.79 234.34,-97.83 243.74,-102.72 244.74,-95.79"/>
</g>
<!-- Node8&#45;&gt;Node9 -->
<g id="edge15" class="edge">
<title>Node8&#45;&gt;Node9</title>
<path fill="none" stroke="darkgreen" d="M231.09,-110.34C249.69,-118.64 271.13,-128.2 288.57,-135.98"/>
<polygon fill="darkgreen" stroke="darkgreen" points="232.5,-107.14 221.94,-106.26 229.65,-113.53 232.5,-107.14"/>
</g>
<!-- Node9&#45;&gt;Node3 -->
<g id="edge18" class="edge">
<title>Node9&#45;&gt;Node3</title>
<path fill="none" stroke="darkgreen" d="M349.67,-129.23C377.35,-105.16 421.08,-67.13 445.16,-46.19"/>
<polygon fill="darkgreen" stroke="darkgreen" points="347.23,-126.72 341.98,-135.92 351.82,-132 347.23,-126.72"/>
</g>
<!-- Node9&#45;&gt;Node4 -->
<g id="edge16" class="edge">
<title>Node9&#45;&gt;Node4</title>
<path fill="none" stroke="midnightblue" d="M387.27,-143.99C432.48,-138.97 494.97,-132.25 550,-127.12 597.54,-122.69 651.12,-118.41 692.59,-115.25"/>
<polygon fill="midnightblue" stroke="midnightblue" points="386.86,-140.52 377.31,-145.1 387.64,-147.47 386.86,-140.52"/>
</g>
<!-- Node9&#45;&gt;Node6 -->
<g id="edge17" class="edge">
<title>Node9&#45;&gt;Node6</title>
<path fill="none" stroke="midnightblue" d="M365.75,-170.34C380.48,-176.8 397.31,-183.72 413,-189.12 516.66,-224.77 548.12,-237.84 657,-225.12 675.98,-222.9 696.49,-218.51 714.34,-214.02"/>
<polygon fill="midnightblue" stroke="midnightblue" points="366.97,-167.05 356.41,-166.19 364.13,-173.45 366.97,-167.05"/>
</g>
<!-- Node9&#45;&gt;Node7 -->
<g id="edge19" class="edge">
<title>Node9&#45;&gt;Node7</title>
<path fill="none" stroke="darkgreen" d="M387.35,-151.12C438.29,-151.12 508.96,-151.12 555.19,-151.12"/>
<polygon fill="darkgreen" stroke="darkgreen" points="387.12,-147.62 377.12,-151.12 387.12,-154.62 387.12,-147.62"/>
</g>
<!-- Node9&#45;&gt;Node10 -->
<g id="edge20" class="edge">
<title>Node9&#45;&gt;Node10</title>
<path fill="none" stroke="darkgreen" d="M387.27,-162.18C436.21,-170.81 503.4,-182.65 549.63,-190.8"/>
<polygon fill="darkgreen" stroke="darkgreen" points="387.57,-158.68 377.12,-160.39 386.36,-165.57 387.57,-158.68"/>
</g>
<!-- Node10&#45;&gt;Node4 -->
<g id="edge21" class="edge">
<title>Node10&#45;&gt;Node4</title>
<path fill="none" stroke="midnightblue" d="M648.54,-180.5C651.42,-179.06 654.26,-177.59 657,-176.12 668.79,-169.77 681.06,-162.62 692.89,-155.44"/>
<polygon fill="midnightblue" stroke="midnightblue" points="646.74,-177.49 639.27,-185 649.79,-183.78 646.74,-177.49"/>
</g>
<!-- Node10&#45;&gt;Node6 -->
<g id="edge22" class="edge">
<title>Node10&#45;&gt;Node6</title>
<path fill="none" stroke="midnightblue" d="M667.26,-200.12C682.95,-200.12 699.53,-200.12 714.38,-200.12"/>
<polygon fill="midnightblue" stroke="midnightblue" points="667.11,-196.62 657.11,-200.12 667.11,-203.62 667.11,-196.62"/>
</g>
</g>
</svg>
