<?xml version="1.0" encoding="UTF-8" standalone="no"?>
<!DOCTYPE svg PUBLIC "-//W3C//DTD SVG 1.1//EN"
 "http://www.w3.org/Graphics/SVG/1.1/DTD/svg11.dtd">
<!-- Generated by graphviz version 2.44.1 (20220725.2034)
 -->
<!-- Title: plang::detail::path_manager Pages: 1 -->
<svg width="933pt" height="149pt"
 viewBox="0.00 0.00 933.00 149.00" xmlns="http://www.w3.org/2000/svg" xmlns:xlink="http://www.w3.org/1999/xlink">
<g id="graph0" class="graph" transform="scale(1 1) rotate(0) translate(4 145)">
<title>plang::detail::path_manager</title>
<!-- Node1 -->
<g id="node1" class="node">
<title>Node1</title>
<g id="a_node1"><a xlink:title="Handles database actions for paths.">
<polygon fill="#bfbfbf" stroke="black" points="140,-44.5 140,-74.5 234,-74.5 234,-44.5 140,-44.5"/>
<text text-anchor="start" x="148" y="-62.5" font-family="Helvetica,sans-Serif" font-size="10.00">plang::detail::path</text>
<text text-anchor="middle" x="187" y="-51.5" font-family="Helvetica,sans-Serif" font-size="10.00">_manager</text>
</a>
</g>
</g>
<!-- Node3 -->
<g id="node3" class="node">
<title>Node3</title>
<g id="a_node3"><a xlink:href="structplang_1_1detail_1_1mixin__base.html" target="_top" xlink:title=" ">
<polygon fill="none" stroke="black" points="556,-66.5 556,-140.5 674,-140.5 674,-66.5 556,-66.5"/>
<text text-anchor="start" x="564" y="-128.5" font-family="Helvetica,sans-Serif" font-size="10.00">plang::detail::mixin</text>
<text text-anchor="start" x="564" y="-117.5" font-family="Helvetica,sans-Serif" font-size="10.00">_base&lt; plang::detail</text>
<text text-anchor="start" x="564" y="-106.5" font-family="Helvetica,sans-Serif" font-size="10.00">::path_manager, plang</text>
<text text-anchor="start" x="564" y="-95.5" font-family="Helvetica,sans-Serif" font-size="10.00">::detail::symbol_class</text>
<text text-anchor="start" x="564" y="-84.5" font-family="Helvetica,sans-Serif" font-size="10.00">_manager, plang::detail</text>
<text text-anchor="middle" x="615" y="-73.5" font-family="Helvetica,sans-Serif" font-size="10.00">::symbol_manager &gt;</text>
</a>
</g>
</g>
<!-- Node1&#45;&gt;Node3 -->
<g id="edge2" class="edge">
<title>Node1&#45;&gt;Node3</title>
<path fill="none" stroke="midnightblue" d="M243.82,-76.96C252.53,-79.36 261.47,-81.64 270,-83.5 332.75,-97.22 348.93,-99.82 413,-104.5 460.43,-107.96 472.45,-104.75 520,-104.5 531.59,-104.44 543.98,-104.33 555.83,-104.22"/>
<polygon fill="midnightblue" stroke="midnightblue" points="244.69,-73.57 234.11,-74.21 242.78,-80.3 244.69,-73.57"/>
</g>
<!-- Node6 -->
<g id="node6" class="node">
<title>Node6</title>
<g id="a_node6"><a xlink:href="structplang_1_1detail_1_1mixin__base.html" target="_top" xlink:title="Common derived class template for distributed overloading.">
<polygon fill="none" stroke="black" points="566,-0.5 566,-30.5 664,-30.5 664,-0.5 566,-0.5"/>
<text text-anchor="start" x="574" y="-18.5" font-family="Helvetica,sans-Serif" font-size="10.00">plang::detail::mixin</text>
<text text-anchor="middle" x="615" y="-7.5" font-family="Helvetica,sans-Serif" font-size="10.00">_base&lt; Tps &gt;</text>
</a>
</g>
</g>
<!-- Node1&#45;&gt;Node6 -->
<g id="edge5" class="edge">
<title>Node1&#45;&gt;Node6</title>
<path fill="none" stroke="midnightblue" d="M242.16,-41.51C251.37,-38.88 260.91,-36.41 270,-34.5 373.75,-12.7 498.74,-11.98 565.82,-13.6"/>
<polygon fill="midnightblue" stroke="midnightblue" points="240.91,-38.23 232.31,-44.42 242.89,-44.94 240.91,-38.23"/>
</g>
<!-- Node7 -->
<g id="node7" class="node">
<title>Node7</title>
<g id="a_node7"><a xlink:href="classplang_1_1detail_1_1symbol__class__manager.html" target="_top" xlink:title=" ">
<polygon fill="none" stroke="black" points="270,-44.5 270,-74.5 377,-74.5 377,-44.5 270,-44.5"/>
<text text-anchor="start" x="278" y="-62.5" font-family="Helvetica,sans-Serif" font-size="10.00">plang::detail::symbol</text>
<text text-anchor="middle" x="323.5" y="-51.5" font-family="Helvetica,sans-Serif" font-size="10.00">_class_manager</text>
</a>
</g>
</g>
<!-- Node1&#45;&gt;Node7 -->
<g id="edge6" class="edge">
<title>Node1&#45;&gt;Node7</title>
<path fill="none" stroke="darkgreen" d="M244.36,-59.5C252.74,-59.5 261.35,-59.5 269.66,-59.5"/>
<polygon fill="darkgreen" stroke="darkgreen" points="244.29,-56 234.29,-59.5 244.29,-63 244.29,-56"/>
</g>
<!-- Node2 -->
<g id="node2" class="node">
<title>Node2</title>
<g id="a_node2"><a xlink:href="classplang_1_1detail_1_1corpus.html" target="_top" xlink:title="Provides a basic interface to a database.">
<polygon fill="none" stroke="black" points="0,-50 0,-69 104,-69 104,-50 0,-50"/>
<text text-anchor="middle" x="52" y="-57" font-family="Helvetica,sans-Serif" font-size="10.00">plang::detail::corpus</text>
</a>
</g>
</g>
<!-- Node2&#45;&gt;Node1 -->
<g id="edge1" class="edge">
<title>Node2&#45;&gt;Node1</title>
<path fill="none" stroke="darkgreen" d="M114.06,-59.5C122.67,-59.5 131.4,-59.5 139.67,-59.5"/>
<polygon fill="darkgreen" stroke="darkgreen" points="114.04,-56 104.04,-59.5 114.04,-63 114.04,-56"/>
</g>
<!-- Node4 -->
<g id="node4" class="node">
<title>Node4</title>
<g id="a_node4"><a xlink:href="structplang_1_1detail_1_1corpus__mixins.html" target="_top" xlink:title="Base class for the corpus.">
<polygon fill="none" stroke="black" points="710,-88.5 710,-118.5 814,-118.5 814,-88.5 710,-88.5"/>
<text text-anchor="start" x="718" y="-106.5" font-family="Helvetica,sans-Serif" font-size="10.00">plang::detail::corpus</text>
<text text-anchor="middle" x="762" y="-95.5" font-family="Helvetica,sans-Serif" font-size="10.00">_mixins</text>
</a>
</g>
</g>
<!-- Node3&#45;&gt;Node4 -->
<g id="edge3" class="edge">
<title>Node3&#45;&gt;Node4</title>
<path fill="none" stroke="midnightblue" d="M684.21,-103.5C692.84,-103.5 701.56,-103.5 709.86,-103.5"/>
<polygon fill="midnightblue" stroke="midnightblue" points="684.14,-100 674.14,-103.5 684.14,-107 684.14,-100"/>
</g>
<!-- Node5 -->
<g id="node5" class="node">
<title>Node5</title>
<g id="a_node5"><a xlink:href="classplang_1_1corpus.html" target="_top" xlink:title="The main interface for interacting with a corpus.">
<polygon fill="none" stroke="black" points="850,-94 850,-113 925,-113 925,-94 850,-94"/>
<text text-anchor="middle" x="887.5" y="-101" font-family="Helvetica,sans-Serif" font-size="10.00">plang::corpus</text>
</a>
</g>
</g>
<!-- Node4&#45;&gt;Node5 -->
<g id="edge4" class="edge">
<title>Node4&#45;&gt;Node5</title>
<path fill="none" stroke="midnightblue" d="M824.45,-103.5C833.14,-103.5 841.83,-103.5 849.85,-103.5"/>
<polygon fill="midnightblue" stroke="midnightblue" points="824.3,-100 814.3,-103.5 824.3,-107 824.3,-100"/>
</g>
<!-- Node7&#45;&gt;Node3 -->
<g id="edge7" class="edge">
<title>Node7&#45;&gt;Node3</title>
<path fill="none" stroke="midnightblue" d="M384.12,-77.11C393.72,-79.53 403.59,-81.77 413,-83.5 460.59,-92.26 515.28,-97.39 555.59,-100.25"/>
<polygon fill="midnightblue" stroke="midnightblue" points="384.81,-73.67 374.25,-74.54 383.04,-80.45 384.81,-73.67"/>
</g>
<!-- Node7&#45;&gt;Node6 -->
<g id="edge8" class="edge">
<title>Node7&#45;&gt;Node6</title>
<path fill="none" stroke="midnightblue" d="M381.66,-41.72C392.02,-38.97 402.77,-36.41 413,-34.5 464.68,-24.84 524.81,-19.98 565.74,-17.61"/>
<polygon fill="midnightblue" stroke="midnightblue" points="380.61,-38.38 371.89,-44.41 382.46,-45.13 380.61,-38.38"/>
</g>
<!-- Node8 -->
<g id="node8" class="node">
<title>Node8</title>
<g id="a_node8"><a xlink:href="classplang_1_1detail_1_1symbol__manager.html" target="_top" xlink:title=" ">
<polygon fill="none" stroke="black" points="413,-44.5 413,-74.5 520,-74.5 520,-44.5 413,-44.5"/>
<text text-anchor="start" x="421" y="-62.5" font-family="Helvetica,sans-Serif" font-size="10.00">plang::detail::symbol</text>
<text text-anchor="middle" x="466.5" y="-51.5" font-family="Helvetica,sans-Serif" font-size="10.00">_manager</text>
</a>
</g>
</g>
<!-- Node7&#45;&gt;Node8 -->
<g id="edge9" class="edge">
<title>Node7&#45;&gt;Node8</title>
<path fill="none" stroke="darkgreen" d="M387.05,-59.5C395.7,-59.5 404.51,-59.5 412.95,-59.5"/>
<polygon fill="darkgreen" stroke="darkgreen" points="387,-56 377,-59.5 387,-63 387,-56"/>
</g>
<!-- Node8&#45;&gt;Node3 -->
<g id="edge10" class="edge">
<title>Node8&#45;&gt;Node3</title>
<path fill="none" stroke="midnightblue" d="M527.23,-77.44C536.69,-80.28 546.47,-83.22 555.89,-86.05"/>
<polygon fill="midnightblue" stroke="midnightblue" points="528.09,-74.04 517.51,-74.52 526.08,-80.75 528.09,-74.04"/>
</g>
<!-- Node8&#45;&gt;Node6 -->
<g id="edge11" class="edge">
<title>Node8&#45;&gt;Node6</title>
<path fill="none" stroke="midnightblue" d="M527.17,-41.58C539.99,-37.73 553.38,-33.71 565.7,-30.01"/>
<polygon fill="midnightblue" stroke="midnightblue" points="526.08,-38.25 517.51,-44.48 528.09,-44.96 526.08,-38.25"/>
</g>
</g>
</svg>
