<?xml version="1.0" encoding="UTF-8" standalone="no"?>
<!DOCTYPE svg PUBLIC "-//W3C//DTD SVG 1.1//EN"
 "http://www.w3.org/Graphics/SVG/1.1/DTD/svg11.dtd">
<!-- Generated by graphviz version 2.44.1 (20220725.2034)
 -->
<!-- Title: plang::corpus Pages: 1 -->
<svg width="1088pt" height="266pt"
 viewBox="0.00 0.00 1088.00 265.95" xmlns="http://www.w3.org/2000/svg" xmlns:xlink="http://www.w3.org/1999/xlink">
<g id="graph0" class="graph" transform="scale(1 1) rotate(0) translate(4 261.95)">
<title>plang::corpus</title>
<!-- Node1 -->
<g id="node1" class="node">
<title>Node1</title>
<g id="a_node1"><a xlink:title="The main interface for interacting with a corpus.">
<polygon fill="#bfbfbf" stroke="black" points="1005,-191.45 1005,-210.45 1080,-210.45 1080,-191.45 1005,-191.45"/>
<text text-anchor="middle" x="1042.5" y="-198.45" font-family="Helvetica,sans-Serif" font-size="10.00">plang::corpus</text>
</a>
</g>
</g>
<!-- Node2 -->
<g id="node2" class="node">
<title>Node2</title>
<g id="a_node2"><a xlink:href="classplang_1_1detail_1_1corpus.html" target="_top" xlink:title="Provides a basic interface to a database.">
<polygon fill="none" stroke="black" points="0,-106.45 0,-125.45 104,-125.45 104,-106.45 0,-106.45"/>
<text text-anchor="middle" x="52" y="-113.45" font-family="Helvetica,sans-Serif" font-size="10.00">plang::detail::corpus</text>
</a>
</g>
</g>
<!-- Node2&#45;&gt;Node1 -->
<g id="edge1" class="edge">
<title>Node2&#45;&gt;Node1</title>
<path fill="none" stroke="midnightblue" d="M70.17,-132.72C110.54,-170.29 216.12,-257.95 322.5,-257.95 322.5,-257.95 322.5,-257.95 759.5,-257.95 854.15,-257.95 963.2,-226.72 1013.46,-210.49"/>
<polygon fill="midnightblue" stroke="midnightblue" points="72.44,-130.05 62.77,-125.71 67.63,-135.13 72.44,-130.05"/>
</g>
<!-- Node5 -->
<g id="node5" class="node">
<title>Node5</title>
<g id="a_node5"><a xlink:href="classplang_1_1detail_1_1path__manager.html" target="_top" xlink:title="Handles database actions for paths.">
<polygon fill="none" stroke="black" points="140,-34.95 140,-64.95 234,-64.95 234,-34.95 140,-34.95"/>
<text text-anchor="start" x="148" y="-52.95" font-family="Helvetica,sans-Serif" font-size="10.00">plang::detail::path</text>
<text text-anchor="middle" x="187" y="-41.95" font-family="Helvetica,sans-Serif" font-size="10.00">_manager</text>
</a>
</g>
</g>
<!-- Node2&#45;&gt;Node5 -->
<g id="edge5" class="edge">
<title>Node2&#45;&gt;Node5</title>
<path fill="none" stroke="darkgreen" d="M81.43,-101.84C103.23,-91.02 133.27,-76.12 155.56,-65.06"/>
<polygon fill="darkgreen" stroke="darkgreen" points="79.74,-98.77 72.34,-106.35 82.85,-105.04 79.74,-98.77"/>
</g>
<!-- Node6 -->
<g id="node6" class="node">
<title>Node6</title>
<g id="a_node6"><a xlink:href="classplang_1_1detail_1_1symbol__class__manager.html" target="_top" xlink:title=" ">
<polygon fill="none" stroke="black" points="270,-122.95 270,-152.95 377,-152.95 377,-122.95 270,-122.95"/>
<text text-anchor="start" x="278" y="-140.95" font-family="Helvetica,sans-Serif" font-size="10.00">plang::detail::symbol</text>
<text text-anchor="middle" x="323.5" y="-129.95" font-family="Helvetica,sans-Serif" font-size="10.00">_class_manager</text>
</a>
</g>
</g>
<!-- Node2&#45;&gt;Node6 -->
<g id="edge7" class="edge">
<title>Node2&#45;&gt;Node6</title>
<path fill="none" stroke="darkgreen" d="M114.05,-120.93C160.99,-124.77 225.16,-130 269.86,-133.65"/>
<polygon fill="darkgreen" stroke="darkgreen" points="114.26,-117.44 104.01,-120.11 113.69,-124.42 114.26,-117.44"/>
</g>
<!-- Node7 -->
<g id="node7" class="node">
<title>Node7</title>
<g id="a_node7"><a xlink:href="classplang_1_1detail_1_1symbol__manager.html" target="_top" xlink:title=" ">
<polygon fill="none" stroke="black" points="413,-172.95 413,-202.95 520,-202.95 520,-172.95 413,-172.95"/>
<text text-anchor="start" x="421" y="-190.95" font-family="Helvetica,sans-Serif" font-size="10.00">plang::detail::symbol</text>
<text text-anchor="middle" x="466.5" y="-179.95" font-family="Helvetica,sans-Serif" font-size="10.00">_manager</text>
</a>
</g>
</g>
<!-- Node2&#45;&gt;Node7 -->
<g id="edge10" class="edge">
<title>Node2&#45;&gt;Node7</title>
<path fill="none" stroke="darkgreen" d="M92.78,-128.46C107.51,-132.81 124.42,-137.47 140,-140.95 235.14,-162.22 348.17,-176.03 412.9,-182.86"/>
<polygon fill="darkgreen" stroke="darkgreen" points="93.55,-125.04 82.97,-125.52 91.54,-131.75 93.55,-125.04"/>
</g>
<!-- Node8 -->
<g id="node8" class="node">
<title>Node8</title>
<g id="a_node8"><a xlink:href="classplang_1_1detail_1_1point__class__manager.html" target="_top" xlink:title=" ">
<polygon fill="none" stroke="black" points="556,-46.95 556,-76.95 652,-76.95 652,-46.95 556,-46.95"/>
<text text-anchor="start" x="564" y="-64.95" font-family="Helvetica,sans-Serif" font-size="10.00">plang::detail::point</text>
<text text-anchor="middle" x="604" y="-53.95" font-family="Helvetica,sans-Serif" font-size="10.00">_class_manager</text>
</a>
</g>
</g>
<!-- Node2&#45;&gt;Node8 -->
<g id="edge13" class="edge">
<title>Node2&#45;&gt;Node8</title>
<path fill="none" stroke="darkgreen" d="M63.89,-97.61C78.17,-75.56 105.51,-39.69 140,-24.95 178.04,-8.69 290.76,22.04 520,-25.95 539.52,-30.04 560.1,-38.93 575.89,-46.85"/>
<polygon fill="darkgreen" stroke="darkgreen" points="60.74,-96.04 58.42,-106.37 66.68,-99.74 60.74,-96.04"/>
</g>
<!-- Node9 -->
<g id="node9" class="node">
<title>Node9</title>
<g id="a_node9"><a xlink:href="classplang_1_1detail_1_1object__class__manager.html" target="_top" xlink:title=" ">
<polygon fill="none" stroke="black" points="416,-46.95 416,-76.95 517,-76.95 517,-46.95 416,-46.95"/>
<text text-anchor="start" x="424" y="-64.95" font-family="Helvetica,sans-Serif" font-size="10.00">plang::detail::object</text>
<text text-anchor="middle" x="466.5" y="-53.95" font-family="Helvetica,sans-Serif" font-size="10.00">_class_manager</text>
</a>
</g>
</g>
<!-- Node2&#45;&gt;Node9 -->
<g id="edge17" class="edge">
<title>Node2&#45;&gt;Node9</title>
<path fill="none" stroke="darkgreen" d="M114.34,-107.92C196.32,-97.19 340.05,-78.37 415.7,-68.47"/>
<polygon fill="darkgreen" stroke="darkgreen" points="113.87,-104.45 104.41,-109.22 114.78,-111.39 113.87,-104.45"/>
</g>
<!-- Node3 -->
<g id="node3" class="node">
<title>Node3</title>
<g id="a_node3"><a xlink:href="structplang_1_1detail_1_1corpus__mixins.html" target="_top" xlink:title="Base class for the corpus.">
<polygon fill="none" stroke="black" points="865,-163.95 865,-193.95 969,-193.95 969,-163.95 865,-163.95"/>
<text text-anchor="start" x="873" y="-181.95" font-family="Helvetica,sans-Serif" font-size="10.00">plang::detail::corpus</text>
<text text-anchor="middle" x="917" y="-170.95" font-family="Helvetica,sans-Serif" font-size="10.00">_mixins</text>
</a>
</g>
</g>
<!-- Node3&#45;&gt;Node1 -->
<g id="edge2" class="edge">
<title>Node3&#45;&gt;Node1</title>
<path fill="none" stroke="midnightblue" d="M979.17,-189.85C987.95,-191.41 996.74,-192.98 1004.85,-194.42"/>
<polygon fill="midnightblue" stroke="midnightblue" points="979.76,-186.4 969.3,-188.09 978.53,-193.29 979.76,-186.4"/>
</g>
<!-- Node4 -->
<g id="node4" class="node">
<title>Node4</title>
<g id="a_node4"><a xlink:href="structplang_1_1detail_1_1mixin__base.html" target="_top" xlink:title=" ">
<polygon fill="none" stroke="black" points="688,-90.45 688,-197.45 829,-197.45 829,-90.45 688,-90.45"/>
<text text-anchor="start" x="696" y="-185.45" font-family="Helvetica,sans-Serif" font-size="10.00">plang::detail::mixin</text>
<text text-anchor="start" x="696" y="-174.45" font-family="Helvetica,sans-Serif" font-size="10.00">_base&lt; plang::detail</text>
<text text-anchor="start" x="696" y="-163.45" font-family="Helvetica,sans-Serif" font-size="10.00">::path_manager, plang</text>
<text text-anchor="start" x="696" y="-152.45" font-family="Helvetica,sans-Serif" font-size="10.00">::detail::symbol_class</text>
<text text-anchor="start" x="696" y="-141.45" font-family="Helvetica,sans-Serif" font-size="10.00">_manager, plang::detail</text>
<text text-anchor="start" x="696" y="-130.45" font-family="Helvetica,sans-Serif" font-size="10.00">::symbol_manager, plang::</text>
<text text-anchor="start" x="696" y="-119.45" font-family="Helvetica,sans-Serif" font-size="10.00">detail::point_class_manager,</text>
<text text-anchor="start" x="696" y="-108.45" font-family="Helvetica,sans-Serif" font-size="10.00"> plang::detail::object_class</text>
<text text-anchor="middle" x="758.5" y="-97.45" font-family="Helvetica,sans-Serif" font-size="10.00">_manager &gt;</text>
</a>
</g>
</g>
<!-- Node4&#45;&gt;Node3 -->
<g id="edge3" class="edge">
<title>Node4&#45;&gt;Node3</title>
<path fill="none" stroke="midnightblue" d="M839,-161.73C847.83,-163.7 856.64,-165.67 864.97,-167.54"/>
<polygon fill="midnightblue" stroke="midnightblue" points="839.58,-158.27 829.05,-159.51 838.05,-165.1 839.58,-158.27"/>
</g>
<!-- Node5&#45;&gt;Node4 -->
<g id="edge4" class="edge">
<title>Node5&#45;&gt;Node4</title>
<path fill="none" stroke="midnightblue" d="M244.02,-32.94C334.66,-8.7 516.93,26.28 652,-36.95 677.64,-48.95 700.49,-70 718.32,-90.27"/>
<polygon fill="midnightblue" stroke="midnightblue" points="242.95,-29.61 234.22,-35.62 244.79,-36.36 242.95,-29.61"/>
</g>
<!-- Node5&#45;&gt;Node6 -->
<g id="edge8" class="edge">
<title>Node5&#45;&gt;Node6</title>
<path fill="none" stroke="darkgreen" d="M219.68,-70.67C244.07,-86.64 277.24,-108.34 299.23,-122.73"/>
<polygon fill="darkgreen" stroke="darkgreen" points="221.41,-67.62 211.12,-65.08 217.57,-73.48 221.41,-67.62"/>
</g>
<!-- Node5&#45;&gt;Node8 -->
<g id="edge14" class="edge">
<title>Node5&#45;&gt;Node8</title>
<path fill="none" stroke="darkgreen" d="M244.44,-41.43C310.77,-32.87 423.99,-22.8 520,-36.95 533.85,-38.99 548.59,-42.85 561.74,-46.93"/>
<polygon fill="darkgreen" stroke="darkgreen" points="243.66,-38 234.21,-42.79 244.58,-44.94 243.66,-38"/>
</g>
<!-- Node5&#45;&gt;Node9 -->
<g id="edge18" class="edge">
<title>Node5&#45;&gt;Node9</title>
<path fill="none" stroke="darkgreen" d="M244.21,-52.38C294.58,-54.56 367.76,-57.72 415.97,-59.81"/>
<polygon fill="darkgreen" stroke="darkgreen" points="244.28,-48.88 234.13,-51.95 243.97,-55.87 244.28,-48.88"/>
</g>
<!-- Node6&#45;&gt;Node4 -->
<g id="edge6" class="edge">
<title>Node6&#45;&gt;Node4</title>
<path fill="none" stroke="midnightblue" d="M387.57,-138.82C467.47,-139.93 604.72,-141.83 687.7,-142.98"/>
<polygon fill="midnightblue" stroke="midnightblue" points="387.21,-135.32 377.16,-138.68 387.11,-142.32 387.21,-135.32"/>
</g>
<!-- Node6&#45;&gt;Node7 -->
<g id="edge11" class="edge">
<title>Node6&#45;&gt;Node7</title>
<path fill="none" stroke="darkgreen" d="M376.58,-156.42C391.77,-161.81 408.19,-167.63 422.74,-172.79"/>
<polygon fill="darkgreen" stroke="darkgreen" points="377.4,-153 366.8,-152.95 375.06,-159.59 377.4,-153"/>
</g>
<!-- Node6&#45;&gt;Node8 -->
<g id="edge15" class="edge">
<title>Node6&#45;&gt;Node8</title>
<path fill="none" stroke="darkgreen" d="M387.27,-121.62C425.66,-111.54 475.73,-98.24 520,-85.95 531.56,-82.74 544,-79.19 555.65,-75.83"/>
<polygon fill="darkgreen" stroke="darkgreen" points="386.06,-118.32 377.27,-124.24 387.83,-125.09 386.06,-118.32"/>
</g>
<!-- Node6&#45;&gt;Node9 -->
<g id="edge19" class="edge">
<title>Node6&#45;&gt;Node9</title>
<path fill="none" stroke="darkgreen" d="M361.41,-118.05C385.11,-105.28 415.43,-88.94 437.22,-77.19"/>
<polygon fill="darkgreen" stroke="darkgreen" points="359.5,-115.11 352.36,-122.93 362.82,-121.27 359.5,-115.11"/>
</g>
<!-- Node7&#45;&gt;Node4 -->
<g id="edge9" class="edge">
<title>Node7&#45;&gt;Node4</title>
<path fill="none" stroke="midnightblue" d="M529.96,-178.47C576.41,-171.43 639.82,-161.81 687.9,-154.51"/>
<polygon fill="midnightblue" stroke="midnightblue" points="529.38,-175.02 520.02,-179.98 530.43,-181.94 529.38,-175.02"/>
</g>
<!-- Node8&#45;&gt;Node4 -->
<g id="edge12" class="edge">
<title>Node8&#45;&gt;Node4</title>
<path fill="none" stroke="midnightblue" d="M642.12,-81.91C655.92,-89.33 672.07,-98.02 687.85,-106.5"/>
<polygon fill="midnightblue" stroke="midnightblue" points="643.44,-78.64 632.97,-76.99 640.12,-84.81 643.44,-78.64"/>
</g>
<!-- Node9&#45;&gt;Node4 -->
<g id="edge20" class="edge">
<title>Node9&#45;&gt;Node4</title>
<path fill="none" stroke="midnightblue" d="M526.69,-78.69C573.38,-91.89 638.6,-110.33 687.81,-124.24"/>
<polygon fill="midnightblue" stroke="midnightblue" points="527.6,-75.31 517.02,-75.95 525.69,-82.04 527.6,-75.31"/>
</g>
<!-- Node9&#45;&gt;Node8 -->
<g id="edge16" class="edge">
<title>Node9&#45;&gt;Node8</title>
<path fill="none" stroke="darkgreen" d="M527.33,-61.95C536.79,-61.95 546.45,-61.95 555.58,-61.95"/>
<polygon fill="darkgreen" stroke="darkgreen" points="527.19,-58.45 517.19,-61.95 527.19,-65.45 527.19,-58.45"/>
</g>
<!-- Node10 -->
<g id="node10" class="node">
<title>Node10</title>
<g id="a_node10"><a xlink:title=" ">
<polygon fill="none" stroke="#bfbfbf" points="587.5,-210.45 587.5,-229.45 620.5,-229.45 620.5,-210.45 587.5,-210.45"/>
<text text-anchor="middle" x="604" y="-217.45" font-family="Helvetica,sans-Serif" font-size="10.00">Tps</text>
</a>
</g>
</g>
<!-- Node10&#45;&gt;Node4 -->
<g id="edge21" class="edge">
<title>Node10&#45;&gt;Node4</title>
<path fill="none" stroke="midnightblue" d="M629.86,-207.56C645.73,-199.65 667.16,-188.97 687.93,-178.62"/>
<polygon fill="midnightblue" stroke="midnightblue" points="628.13,-204.51 620.75,-212.1 631.26,-210.78 628.13,-204.51"/>
</g>
</g>
</svg>
