<?xml version="1.0" encoding="UTF-8" standalone="no"?>
<!DOCTYPE svg PUBLIC "-//W3C//DTD SVG 1.1//EN"
 "http://www.w3.org/Graphics/SVG/1.1/DTD/svg11.dtd">
<!-- Generated by graphviz version 2.44.1 (20220725.2034)
 -->
<!-- Title: plang::exception::lang_error Pages: 1 -->
<svg width="426pt" height="382pt"
 viewBox="0.00 0.00 426.00 382.00" xmlns="http://www.w3.org/2000/svg" xmlns:xlink="http://www.w3.org/1999/xlink">
<g id="graph0" class="graph" transform="scale(1 1) rotate(0) translate(4 378)">
<title>plang::exception::lang_error</title>
<!-- Node1 -->
<g id="node1" class="node">
<title>Node1</title>
<g id="a_node1"><a xlink:title=" ">
<polygon fill="#bfbfbf" stroke="black" points="129,-171.5 129,-201.5 241,-201.5 241,-171.5 129,-171.5"/>
<text text-anchor="start" x="137" y="-189.5" font-family="Helvetica,sans-Serif" font-size="10.00">plang::exception::lang</text>
<text text-anchor="middle" x="185" y="-178.5" font-family="Helvetica,sans-Serif" font-size="10.00">_error</text>
</a>
</g>
</g>
<!-- Node3 -->
<g id="node3" class="node">
<title>Node3</title>
<g id="a_node3"><a xlink:href="classplang_1_1exception_1_1ambiguous__reference__error.html" target="_top" xlink:title=" ">
<polygon fill="none" stroke="black" points="277,-343.5 277,-373.5 418,-373.5 418,-343.5 277,-343.5"/>
<text text-anchor="start" x="285" y="-361.5" font-family="Helvetica,sans-Serif" font-size="10.00">plang::exception::ambiguous</text>
<text text-anchor="middle" x="347.5" y="-350.5" font-family="Helvetica,sans-Serif" font-size="10.00">_reference_error</text>
</a>
</g>
</g>
<!-- Node1&#45;&gt;Node3 -->
<g id="edge2" class="edge">
<title>Node1&#45;&gt;Node3</title>
<path fill="none" stroke="midnightblue" d="M195.19,-211.62C208.4,-244.4 235.81,-301.46 277,-334.5 281.28,-337.93 286.09,-340.89 291.12,-343.44"/>
<polygon fill="midnightblue" stroke="midnightblue" points="198.29,-209.94 191.4,-201.9 191.77,-212.48 198.29,-209.94"/>
</g>
<!-- Node4 -->
<g id="node4" class="node">
<title>Node4</title>
<g id="a_node4"><a xlink:href="classplang_1_1exception_1_1duplicate__object__class__error.html" target="_top" xlink:title=" ">
<polygon fill="none" stroke="black" points="281,-294.5 281,-324.5 414,-324.5 414,-294.5 281,-294.5"/>
<text text-anchor="start" x="289" y="-312.5" font-family="Helvetica,sans-Serif" font-size="10.00">plang::exception::duplicate</text>
<text text-anchor="middle" x="347.5" y="-301.5" font-family="Helvetica,sans-Serif" font-size="10.00">_object_class_error</text>
</a>
</g>
</g>
<!-- Node1&#45;&gt;Node4 -->
<g id="edge3" class="edge">
<title>Node1&#45;&gt;Node4</title>
<path fill="none" stroke="midnightblue" d="M202.23,-210.02C218.71,-232.3 246.14,-265.28 277,-285.5 282.13,-288.86 287.77,-291.8 293.56,-294.36"/>
<polygon fill="midnightblue" stroke="midnightblue" points="204.95,-207.82 196.26,-201.77 199.28,-211.92 204.95,-207.82"/>
</g>
<!-- Node5 -->
<g id="node5" class="node">
<title>Node5</title>
<g id="a_node5"><a xlink:href="classplang_1_1exception_1_1duplicate__path__error.html" target="_top" xlink:title=" ">
<polygon fill="none" stroke="black" points="281,-245.5 281,-275.5 414,-275.5 414,-245.5 281,-245.5"/>
<text text-anchor="start" x="289" y="-263.5" font-family="Helvetica,sans-Serif" font-size="10.00">plang::exception::duplicate</text>
<text text-anchor="middle" x="347.5" y="-252.5" font-family="Helvetica,sans-Serif" font-size="10.00">_path_error</text>
</a>
</g>
</g>
<!-- Node1&#45;&gt;Node5 -->
<g id="edge4" class="edge">
<title>Node1&#45;&gt;Node5</title>
<path fill="none" stroke="midnightblue" d="M219.82,-206.87C236.66,-216.55 257.54,-227.87 277,-236.5 284.12,-239.66 291.79,-242.67 299.35,-245.43"/>
<polygon fill="midnightblue" stroke="midnightblue" points="221.31,-203.7 210.91,-201.69 217.79,-209.75 221.31,-203.7"/>
</g>
<!-- Node6 -->
<g id="node6" class="node">
<title>Node6</title>
<g id="a_node6"><a xlink:href="classplang_1_1exception_1_1duplicate__symbol__error.html" target="_top" xlink:title=" ">
<polygon fill="none" stroke="black" points="281,-196.5 281,-226.5 414,-226.5 414,-196.5 281,-196.5"/>
<text text-anchor="start" x="289" y="-214.5" font-family="Helvetica,sans-Serif" font-size="10.00">plang::exception::duplicate</text>
<text text-anchor="middle" x="347.5" y="-203.5" font-family="Helvetica,sans-Serif" font-size="10.00">_symbol_error</text>
</a>
</g>
</g>
<!-- Node1&#45;&gt;Node6 -->
<g id="edge5" class="edge">
<title>Node1&#45;&gt;Node6</title>
<path fill="none" stroke="midnightblue" d="M251.29,-196.67C261.06,-198.19 271.15,-199.76 280.93,-201.29"/>
<polygon fill="midnightblue" stroke="midnightblue" points="251.65,-193.18 241.23,-195.1 250.58,-200.1 251.65,-193.18"/>
</g>
<!-- Node7 -->
<g id="node7" class="node">
<title>Node7</title>
<g id="a_node7"><a xlink:href="classplang_1_1exception_1_1hint__match__error.html" target="_top" xlink:title=" ">
<polygon fill="none" stroke="black" points="292.5,-147.5 292.5,-177.5 402.5,-177.5 402.5,-147.5 292.5,-147.5"/>
<text text-anchor="start" x="300.5" y="-165.5" font-family="Helvetica,sans-Serif" font-size="10.00">plang::exception::hint</text>
<text text-anchor="middle" x="347.5" y="-154.5" font-family="Helvetica,sans-Serif" font-size="10.00">_match_error</text>
</a>
</g>
</g>
<!-- Node1&#45;&gt;Node7 -->
<g id="edge6" class="edge">
<title>Node1&#45;&gt;Node7</title>
<path fill="none" stroke="midnightblue" d="M251.46,-176.71C265.01,-174.69 279.15,-172.57 292.25,-170.61"/>
<polygon fill="midnightblue" stroke="midnightblue" points="250.61,-173.3 241.23,-178.24 251.64,-180.22 250.61,-173.3"/>
</g>
<!-- Node8 -->
<g id="node8" class="node">
<title>Node8</title>
<g id="a_node8"><a xlink:href="classplang_1_1exception_1_1invalid__reference__error.html" target="_top" xlink:title=" ">
<polygon fill="none" stroke="black" points="286.5,-98.5 286.5,-128.5 408.5,-128.5 408.5,-98.5 286.5,-98.5"/>
<text text-anchor="start" x="294.5" y="-116.5" font-family="Helvetica,sans-Serif" font-size="10.00">plang::exception::invalid</text>
<text text-anchor="middle" x="347.5" y="-105.5" font-family="Helvetica,sans-Serif" font-size="10.00">_reference_error</text>
</a>
</g>
</g>
<!-- Node1&#45;&gt;Node8 -->
<g id="edge7" class="edge">
<title>Node1&#45;&gt;Node8</title>
<path fill="none" stroke="midnightblue" d="M220.22,-166.37C237.01,-156.94 257.73,-145.95 277,-137.5 284.13,-134.37 291.81,-131.37 299.37,-128.62"/>
<polygon fill="midnightblue" stroke="midnightblue" points="218.3,-163.44 211.34,-171.43 221.76,-169.53 218.3,-163.44"/>
</g>
<!-- Node9 -->
<g id="node9" class="node">
<title>Node9</title>
<g id="a_node9"><a xlink:href="classplang_1_1exception_1_1malformed__expression__error.html" target="_top" xlink:title=" ">
<polygon fill="none" stroke="black" points="277.5,-49.5 277.5,-79.5 417.5,-79.5 417.5,-49.5 277.5,-49.5"/>
<text text-anchor="start" x="285.5" y="-67.5" font-family="Helvetica,sans-Serif" font-size="10.00">plang::exception::malformed</text>
<text text-anchor="middle" x="347.5" y="-56.5" font-family="Helvetica,sans-Serif" font-size="10.00">_expression_error</text>
</a>
</g>
</g>
<!-- Node1&#45;&gt;Node9 -->
<g id="edge8" class="edge">
<title>Node1&#45;&gt;Node9</title>
<path fill="none" stroke="midnightblue" d="M202.28,-163.23C218.8,-141.17 246.26,-108.53 277,-88.5 282.24,-85.09 288.02,-82.1 293.94,-79.5"/>
<polygon fill="midnightblue" stroke="midnightblue" points="199.38,-161.26 196.29,-171.39 205.03,-165.39 199.38,-161.26"/>
</g>
<!-- Node10 -->
<g id="node10" class="node">
<title>Node10</title>
<g id="a_node10"><a xlink:href="classplang_1_1exception_1_1redefinition__error.html" target="_top" xlink:title=" ">
<polygon fill="none" stroke="black" points="277,-0.5 277,-30.5 418,-30.5 418,-0.5 277,-0.5"/>
<text text-anchor="start" x="285" y="-18.5" font-family="Helvetica,sans-Serif" font-size="10.00">plang::exception::redefinition</text>
<text text-anchor="middle" x="347.5" y="-7.5" font-family="Helvetica,sans-Serif" font-size="10.00">_error</text>
</a>
</g>
</g>
<!-- Node1&#45;&gt;Node10 -->
<g id="edge9" class="edge">
<title>Node1&#45;&gt;Node10</title>
<path fill="none" stroke="midnightblue" d="M195.23,-161.55C208.5,-128.99 235.96,-72.31 277,-39.5 281.29,-36.07 286.09,-33.12 291.13,-30.58"/>
<polygon fill="midnightblue" stroke="midnightblue" points="191.83,-160.62 191.42,-171.21 198.35,-163.19 191.83,-160.62"/>
</g>
<!-- Node2 -->
<g id="node2" class="node">
<title>Node2</title>
<g id="a_node2"><a xlink:title=" ">
<polygon fill="none" stroke="#bfbfbf" points="0,-177 0,-196 93,-196 93,-177 0,-177"/>
<text text-anchor="middle" x="46.5" y="-184" font-family="Helvetica,sans-Serif" font-size="10.00">std::runtime_error</text>
</a>
</g>
</g>
<!-- Node2&#45;&gt;Node1 -->
<g id="edge1" class="edge">
<title>Node2&#45;&gt;Node1</title>
<path fill="none" stroke="midnightblue" d="M103.33,-186.5C111.67,-186.5 120.26,-186.5 128.58,-186.5"/>
<polygon fill="midnightblue" stroke="midnightblue" points="103.33,-183 93.33,-186.5 103.33,-190 103.33,-183"/>
</g>
</g>
</svg>
