<?xml version="1.0" encoding="UTF-8" standalone="no"?>
<!DOCTYPE svg PUBLIC "-//W3C//DTD SVG 1.1//EN"
 "http://www.w3.org/Graphics/SVG/1.1/DTD/svg11.dtd">
<!-- Generated by graphviz version 2.44.1 (20220725.2034)
 -->
<!-- Title: plang::detail::base_types::sourced Pages: 1 -->
<svg width="239pt" height="165pt"
 viewBox="0.00 0.00 239.00 165.00" xmlns="http://www.w3.org/2000/svg" xmlns:xlink="http://www.w3.org/1999/xlink">
<g id="graph0" class="graph" transform="scale(1 1) rotate(0) translate(4 161)">
<title>plang::detail::base_types::sourced</title>
<!-- Node1 -->
<g id="node1" class="node">
<title>Node1</title>
<g id="a_node1"><a xlink:title="Base type for traceable classes.">
<polygon fill="#bfbfbf" stroke="black" points="0,-63 0,-93 96,-93 96,-63 0,-63"/>
<text text-anchor="start" x="8" y="-81" font-family="Helvetica,sans-Serif" font-size="10.00">plang::detail::base</text>
<text text-anchor="middle" x="48" y="-70" font-family="Helvetica,sans-Serif" font-size="10.00">_types::sourced</text>
</a>
</g>
</g>
<!-- Node2 -->
<g id="node2" class="node">
<title>Node2</title>
<g id="a_node2"><a xlink:href="classplang_1_1plot_1_1symbol.html" target="_top" xlink:title=" ">
<polygon fill="none" stroke="black" points="132,-137.5 132,-156.5 231,-156.5 231,-137.5 132,-137.5"/>
<text text-anchor="middle" x="181.5" y="-144.5" font-family="Helvetica,sans-Serif" font-size="10.00">plang::plot::symbol</text>
</a>
</g>
</g>
<!-- Node1&#45;&gt;Node2 -->
<g id="edge1" class="edge">
<title>Node1&#45;&gt;Node2</title>
<path fill="none" stroke="midnightblue" d="M80.21,-98.51C95.48,-108.1 114.34,-119.3 132,-128 138.9,-131.4 146.56,-134.63 153.72,-137.44"/>
<polygon fill="midnightblue" stroke="midnightblue" points="81.98,-95.5 71.67,-93.08 78.23,-101.4 81.98,-95.5"/>
</g>
<!-- Node3 -->
<g id="node3" class="node">
<title>Node3</title>
<g id="a_node3"><a xlink:href="classplang_1_1plot_1_1symbol_1_1clazz.html" target="_top" xlink:title=" ">
<polygon fill="none" stroke="black" points="132,-88 132,-118 231,-118 231,-88 132,-88"/>
<text text-anchor="start" x="140" y="-106" font-family="Helvetica,sans-Serif" font-size="10.00">plang::plot::symbol</text>
<text text-anchor="middle" x="181.5" y="-95" font-family="Helvetica,sans-Serif" font-size="10.00">::clazz</text>
</a>
</g>
</g>
<!-- Node1&#45;&gt;Node3 -->
<g id="edge2" class="edge">
<title>Node1&#45;&gt;Node3</title>
<path fill="none" stroke="midnightblue" d="M106.09,-88.85C114.71,-90.49 123.54,-92.17 131.95,-93.77"/>
<polygon fill="midnightblue" stroke="midnightblue" points="106.58,-85.38 96.1,-86.95 105.27,-92.26 106.58,-85.38"/>
</g>
<!-- Node4 -->
<g id="node4" class="node">
<title>Node4</title>
<g id="a_node4"><a xlink:href="classplang_1_1plot_1_1symbol_1_1clazz_1_1hint.html" target="_top" xlink:title=" ">
<polygon fill="none" stroke="black" points="132,-39 132,-69 231,-69 231,-39 132,-39"/>
<text text-anchor="start" x="140" y="-57" font-family="Helvetica,sans-Serif" font-size="10.00">plang::plot::symbol</text>
<text text-anchor="middle" x="181.5" y="-46" font-family="Helvetica,sans-Serif" font-size="10.00">::clazz::hint</text>
</a>
</g>
</g>
<!-- Node1&#45;&gt;Node4 -->
<g id="edge3" class="edge">
<title>Node1&#45;&gt;Node4</title>
<path fill="none" stroke="midnightblue" d="M106.09,-67.58C114.71,-66.01 123.54,-64.4 131.95,-62.86"/>
<polygon fill="midnightblue" stroke="midnightblue" points="105.31,-64.16 96.1,-69.4 106.57,-71.05 105.31,-64.16"/>
</g>
<!-- Node5 -->
<g id="node5" class="node">
<title>Node5</title>
<g id="a_node5"><a xlink:href="classplang_1_1root_1_1path.html" target="_top" xlink:title="A node in the corpus&#39; path tree.">
<polygon fill="none" stroke="black" points="138,-0.5 138,-19.5 225,-19.5 225,-0.5 138,-0.5"/>
<text text-anchor="middle" x="181.5" y="-7.5" font-family="Helvetica,sans-Serif" font-size="10.00">plang::root::path</text>
</a>
</g>
</g>
<!-- Node1&#45;&gt;Node5 -->
<g id="edge4" class="edge">
<title>Node1&#45;&gt;Node5</title>
<path fill="none" stroke="midnightblue" d="M82.12,-57.49C97.1,-48.57 115.18,-38.28 132,-30 139.52,-26.3 147.89,-22.67 155.54,-19.55"/>
<polygon fill="midnightblue" stroke="midnightblue" points="79.99,-54.69 73.23,-62.84 83.6,-60.68 79.99,-54.69"/>
</g>
</g>
</svg>
