<?xml version="1.0" encoding="UTF-8" standalone="no"?>
<!DOCTYPE svg PUBLIC "-//W3C//DTD SVG 1.1//EN"
 "http://www.w3.org/Graphics/SVG/1.1/DTD/svg11.dtd">
<!-- Generated by graphviz version 2.44.1 (20220725.2034)
 -->
<!-- Title: plang::detail::symbol_class_manager Pages: 1 -->
<svg width="1093pt" height="213pt"
 viewBox="0.00 0.00 1093.00 212.98" xmlns="http://www.w3.org/2000/svg" xmlns:xlink="http://www.w3.org/1999/xlink">
<g id="graph0" class="graph" transform="scale(1 1) rotate(0) translate(4 208.98)">
<title>plang::detail::symbol_class_manager</title>
<!-- Node1 -->
<g id="node1" class="node">
<title>Node1</title>
<g id="a_node1"><a xlink:title=" ">
<polygon fill="#bfbfbf" stroke="black" points="270,-64.98 270,-94.98 377,-94.98 377,-64.98 270,-64.98"/>
<text text-anchor="start" x="278" y="-82.98" font-family="Helvetica,sans-Serif" font-size="10.00">plang::detail::symbol</text>
<text text-anchor="middle" x="323.5" y="-71.98" font-family="Helvetica,sans-Serif" font-size="10.00">_class_manager</text>
</a>
</g>
</g>
<!-- Node4 -->
<g id="node4" class="node">
<title>Node4</title>
<g id="a_node4"><a xlink:href="structplang_1_1detail_1_1mixin__base.html" target="_top" xlink:title=" ">
<polygon fill="none" stroke="black" points="693,-97.48 693,-204.48 834,-204.48 834,-97.48 693,-97.48"/>
<text text-anchor="start" x="701" y="-192.48" font-family="Helvetica,sans-Serif" font-size="10.00">plang::detail::mixin</text>
<text text-anchor="start" x="701" y="-181.48" font-family="Helvetica,sans-Serif" font-size="10.00">_base&lt; plang::detail</text>
<text text-anchor="start" x="701" y="-170.48" font-family="Helvetica,sans-Serif" font-size="10.00">::path_manager, plang</text>
<text text-anchor="start" x="701" y="-159.48" font-family="Helvetica,sans-Serif" font-size="10.00">::detail::symbol_class</text>
<text text-anchor="start" x="701" y="-148.48" font-family="Helvetica,sans-Serif" font-size="10.00">_manager, plang::detail</text>
<text text-anchor="start" x="701" y="-137.48" font-family="Helvetica,sans-Serif" font-size="10.00">::symbol_manager, plang::</text>
<text text-anchor="start" x="701" y="-126.48" font-family="Helvetica,sans-Serif" font-size="10.00">detail::point_class_manager,</text>
<text text-anchor="start" x="701" y="-115.48" font-family="Helvetica,sans-Serif" font-size="10.00"> plang::detail::object_class</text>
<text text-anchor="middle" x="763.5" y="-104.48" font-family="Helvetica,sans-Serif" font-size="10.00">_manager &gt;</text>
</a>
</g>
</g>
<!-- Node1&#45;&gt;Node4 -->
<g id="edge4" class="edge">
<title>Node1&#45;&gt;Node4</title>
<path fill="none" stroke="midnightblue" d="M345.57,-102.58C362.16,-118.71 386.8,-139.21 413,-148.98 505.11,-183.29 620.6,-174.98 693,-164.25"/>
<polygon fill="midnightblue" stroke="midnightblue" points="347.63,-99.69 338.1,-95.08 342.67,-104.63 347.63,-99.69"/>
</g>
<!-- Node7 -->
<g id="node7" class="node">
<title>Node7</title>
<g id="a_node7"><a xlink:href="structplang_1_1detail_1_1mixin__base.html" target="_top" xlink:title="Common derived class template for distributed overloading.">
<polygon fill="none" stroke="black" points="714.5,-36.98 714.5,-66.98 812.5,-66.98 812.5,-36.98 714.5,-36.98"/>
<text text-anchor="start" x="722.5" y="-54.98" font-family="Helvetica,sans-Serif" font-size="10.00">plang::detail::mixin</text>
<text text-anchor="middle" x="763.5" y="-43.98" font-family="Helvetica,sans-Serif" font-size="10.00">_base&lt; Tps &gt;</text>
</a>
</g>
</g>
<!-- Node1&#45;&gt;Node7 -->
<g id="edge7" class="edge">
<title>Node1&#45;&gt;Node7</title>
<path fill="none" stroke="midnightblue" d="M363.18,-60.51C425.11,-31.79 550.39,16.26 657,-5.98 685.36,-11.89 715.44,-25.86 736.19,-36.87"/>
<polygon fill="midnightblue" stroke="midnightblue" points="361.35,-57.5 353.8,-64.94 364.34,-63.83 361.35,-57.5"/>
</g>
<!-- Node8 -->
<g id="node8" class="node">
<title>Node8</title>
<g id="a_node8"><a xlink:href="classplang_1_1detail_1_1object__class__manager.html" target="_top" xlink:title=" ">
<polygon fill="none" stroke="black" points="413,-108.98 413,-138.98 514,-138.98 514,-108.98 413,-108.98"/>
<text text-anchor="start" x="421" y="-126.98" font-family="Helvetica,sans-Serif" font-size="10.00">plang::detail::object</text>
<text text-anchor="middle" x="463.5" y="-115.98" font-family="Helvetica,sans-Serif" font-size="10.00">_class_manager</text>
</a>
</g>
</g>
<!-- Node1&#45;&gt;Node8 -->
<g id="edge8" class="edge">
<title>Node1&#45;&gt;Node8</title>
<path fill="none" stroke="darkgreen" d="M381.34,-98.1C392.57,-101.68 404.25,-105.4 415.14,-108.87"/>
<polygon fill="darkgreen" stroke="darkgreen" points="382.2,-94.7 371.61,-94.99 380.07,-101.37 382.2,-94.7"/>
</g>
<!-- Node9 -->
<g id="node9" class="node">
<title>Node9</title>
<g id="a_node9"><a xlink:href="classplang_1_1detail_1_1point__class__manager.html" target="_top" xlink:title=" ">
<polygon fill="none" stroke="black" points="555.5,-64.98 555.5,-94.98 651.5,-94.98 651.5,-64.98 555.5,-64.98"/>
<text text-anchor="start" x="563.5" y="-82.98" font-family="Helvetica,sans-Serif" font-size="10.00">plang::detail::point</text>
<text text-anchor="middle" x="603.5" y="-71.98" font-family="Helvetica,sans-Serif" font-size="10.00">_class_manager</text>
</a>
</g>
</g>
<!-- Node1&#45;&gt;Node9 -->
<g id="edge14" class="edge">
<title>Node1&#45;&gt;Node9</title>
<path fill="none" stroke="darkgreen" d="M387.35,-79.98C438.29,-79.98 508.96,-79.98 555.19,-79.98"/>
<polygon fill="darkgreen" stroke="darkgreen" points="387.12,-76.48 377.12,-79.98 387.12,-83.48 387.12,-76.48"/>
</g>
<!-- Node10 -->
<g id="node10" class="node">
<title>Node10</title>
<g id="a_node10"><a xlink:href="classplang_1_1detail_1_1symbol__manager.html" target="_top" xlink:title=" ">
<polygon fill="none" stroke="black" points="550,-15.98 550,-45.98 657,-45.98 657,-15.98 550,-15.98"/>
<text text-anchor="start" x="558" y="-33.98" font-family="Helvetica,sans-Serif" font-size="10.00">plang::detail::symbol</text>
<text text-anchor="middle" x="603.5" y="-22.98" font-family="Helvetica,sans-Serif" font-size="10.00">_manager</text>
</a>
</g>
</g>
<!-- Node1&#45;&gt;Node10 -->
<g id="edge15" class="edge">
<title>Node1&#45;&gt;Node10</title>
<path fill="none" stroke="darkgreen" d="M387.27,-68.91C436.21,-60.29 503.4,-48.44 549.63,-40.29"/>
<polygon fill="darkgreen" stroke="darkgreen" points="386.36,-65.52 377.12,-70.7 387.57,-72.41 386.36,-65.52"/>
</g>
<!-- Node2 -->
<g id="node2" class="node">
<title>Node2</title>
<g id="a_node2"><a xlink:href="classplang_1_1detail_1_1corpus.html" target="_top" xlink:title="Provides a basic interface to a database.">
<polygon fill="none" stroke="black" points="0,-70.48 0,-89.48 104,-89.48 104,-70.48 0,-70.48"/>
<text text-anchor="middle" x="52" y="-77.48" font-family="Helvetica,sans-Serif" font-size="10.00">plang::detail::corpus</text>
</a>
</g>
</g>
<!-- Node2&#45;&gt;Node1 -->
<g id="edge1" class="edge">
<title>Node2&#45;&gt;Node1</title>
<path fill="none" stroke="darkgreen" d="M114.15,-81.56C122.83,-81.73 131.64,-81.88 140,-81.98 181.78,-82.46 192.22,-82.45 234,-81.98 245.53,-81.85 257.89,-81.62 269.62,-81.37"/>
<polygon fill="darkgreen" stroke="darkgreen" points="114.13,-78.06 104.06,-81.35 113.98,-85.06 114.13,-78.06"/>
</g>
<!-- Node3 -->
<g id="node3" class="node">
<title>Node3</title>
<g id="a_node3"><a xlink:href="classplang_1_1detail_1_1path__manager.html" target="_top" xlink:title="Handles database actions for paths.">
<polygon fill="none" stroke="black" points="140,-42.98 140,-72.98 234,-72.98 234,-42.98 140,-42.98"/>
<text text-anchor="start" x="148" y="-60.98" font-family="Helvetica,sans-Serif" font-size="10.00">plang::detail::path</text>
<text text-anchor="middle" x="187" y="-49.98" font-family="Helvetica,sans-Serif" font-size="10.00">_manager</text>
</a>
</g>
</g>
<!-- Node2&#45;&gt;Node3 -->
<g id="edge3" class="edge">
<title>Node2&#45;&gt;Node3</title>
<path fill="none" stroke="darkgreen" d="M114.06,-69.88C122.67,-68.45 131.4,-67.01 139.67,-65.64"/>
<polygon fill="darkgreen" stroke="darkgreen" points="113.34,-66.45 104.04,-71.53 114.48,-73.35 113.34,-66.45"/>
</g>
<!-- Node3&#45;&gt;Node1 -->
<g id="edge2" class="edge">
<title>Node3&#45;&gt;Node1</title>
<path fill="none" stroke="darkgreen" d="M244.36,-67.19C252.74,-68.56 261.35,-69.97 269.66,-71.33"/>
<polygon fill="darkgreen" stroke="darkgreen" points="244.72,-63.71 234.29,-65.55 243.59,-70.61 244.72,-63.71"/>
</g>
<!-- Node5 -->
<g id="node5" class="node">
<title>Node5</title>
<g id="a_node5"><a xlink:href="structplang_1_1detail_1_1corpus__mixins.html" target="_top" xlink:title="Base class for the corpus.">
<polygon fill="none" stroke="black" points="870,-135.98 870,-165.98 974,-165.98 974,-135.98 870,-135.98"/>
<text text-anchor="start" x="878" y="-153.98" font-family="Helvetica,sans-Serif" font-size="10.00">plang::detail::corpus</text>
<text text-anchor="middle" x="922" y="-142.98" font-family="Helvetica,sans-Serif" font-size="10.00">_mixins</text>
</a>
</g>
</g>
<!-- Node4&#45;&gt;Node5 -->
<g id="edge5" class="edge">
<title>Node4&#45;&gt;Node5</title>
<path fill="none" stroke="midnightblue" d="M844.29,-150.98C853.02,-150.98 861.72,-150.98 869.97,-150.98"/>
<polygon fill="midnightblue" stroke="midnightblue" points="844.05,-147.48 834.05,-150.98 844.05,-154.48 844.05,-147.48"/>
</g>
<!-- Node6 -->
<g id="node6" class="node">
<title>Node6</title>
<g id="a_node6"><a xlink:href="classplang_1_1corpus.html" target="_top" xlink:title="The main interface for interacting with a corpus.">
<polygon fill="none" stroke="black" points="1010,-141.48 1010,-160.48 1085,-160.48 1085,-141.48 1010,-141.48"/>
<text text-anchor="middle" x="1047.5" y="-148.48" font-family="Helvetica,sans-Serif" font-size="10.00">plang::corpus</text>
</a>
</g>
</g>
<!-- Node5&#45;&gt;Node6 -->
<g id="edge6" class="edge">
<title>Node5&#45;&gt;Node6</title>
<path fill="none" stroke="midnightblue" d="M984.45,-150.98C993.14,-150.98 1001.83,-150.98 1009.85,-150.98"/>
<polygon fill="midnightblue" stroke="midnightblue" points="984.3,-147.48 974.3,-150.98 984.3,-154.48 984.3,-147.48"/>
</g>
<!-- Node8&#45;&gt;Node4 -->
<g id="edge9" class="edge">
<title>Node8&#45;&gt;Node4</title>
<path fill="none" stroke="midnightblue" d="M524.16,-134.54C532.81,-135.84 541.62,-137.04 550,-137.98 597.57,-143.31 651.39,-146.57 692.96,-148.5"/>
<polygon fill="midnightblue" stroke="midnightblue" points="524.53,-131.05 514.11,-132.97 523.46,-137.97 524.53,-131.05"/>
</g>
<!-- Node8&#45;&gt;Node7 -->
<g id="edge10" class="edge">
<title>Node8&#45;&gt;Node7</title>
<path fill="none" stroke="midnightblue" d="M524.1,-123.2C562.66,-121.38 613.58,-116.49 657,-103.98 664.92,-101.69 704.84,-81.59 733.22,-67.07"/>
<polygon fill="midnightblue" stroke="midnightblue" points="523.91,-119.7 514.07,-123.61 524.21,-126.7 523.91,-119.7"/>
</g>
<!-- Node8&#45;&gt;Node9 -->
<g id="edge11" class="edge">
<title>Node8&#45;&gt;Node9</title>
<path fill="none" stroke="darkgreen" d="M521.34,-105.85C532.57,-102.27 544.25,-98.55 555.14,-95.08"/>
<polygon fill="darkgreen" stroke="darkgreen" points="520.07,-102.58 511.61,-108.96 522.2,-109.25 520.07,-102.58"/>
</g>
<!-- Node9&#45;&gt;Node4 -->
<g id="edge12" class="edge">
<title>Node9&#45;&gt;Node4</title>
<path fill="none" stroke="midnightblue" d="M647.4,-99.25C661.45,-105.57 677.44,-112.75 692.95,-119.72"/>
<polygon fill="midnightblue" stroke="midnightblue" points="648.56,-95.94 638.01,-95.03 645.69,-102.32 648.56,-95.94"/>
</g>
<!-- Node9&#45;&gt;Node7 -->
<g id="edge13" class="edge">
<title>Node9&#45;&gt;Node7</title>
<path fill="none" stroke="midnightblue" d="M661.84,-69.81C679.05,-66.76 697.75,-63.45 714.31,-60.52"/>
<polygon fill="midnightblue" stroke="midnightblue" points="661.14,-66.38 651.91,-71.57 662.36,-73.28 661.14,-66.38"/>
</g>
<!-- Node10&#45;&gt;Node4 -->
<g id="edge16" class="edge">
<title>Node10&#45;&gt;Node4</title>
<path fill="none" stroke="midnightblue" d="M650.39,-50.9C652.66,-52.22 654.88,-53.57 657,-54.98 675.5,-67.19 693.95,-82.59 710.14,-97.47"/>
<polygon fill="midnightblue" stroke="midnightblue" points="651.9,-47.74 641.43,-46.09 648.58,-53.91 651.9,-47.74"/>
</g>
<!-- Node10&#45;&gt;Node7 -->
<g id="edge17" class="edge">
<title>Node10&#45;&gt;Node7</title>
<path fill="none" stroke="midnightblue" d="M667.26,-39.32C682.95,-41.4 699.53,-43.61 714.38,-45.58"/>
<polygon fill="midnightblue" stroke="midnightblue" points="667.49,-35.82 657.11,-37.97 666.56,-42.76 667.49,-35.82"/>
</g>
</g>
</svg>
