<?xml version="1.0" encoding="UTF-8" standalone="no"?>
<!DOCTYPE svg PUBLIC "-//W3C//DTD SVG 1.1//EN"
 "http://www.w3.org/Graphics/SVG/1.1/DTD/svg11.dtd">
<!-- Generated by graphviz version 2.44.1 (20220725.2034)
 -->
<!-- Title: plang::plot::symbol Pages: 1 -->
<svg width="284pt" height="137pt"
 viewBox="0.00 0.00 284.00 137.00" xmlns="http://www.w3.org/2000/svg" xmlns:xlink="http://www.w3.org/1999/xlink">
<g id="graph0" class="graph" transform="scale(1 1) rotate(0) translate(4 133)">
<title>plang::plot::symbol</title>
<!-- Node1 -->
<g id="node1" class="node">
<title>Node1</title>
<g id="a_node1"><a xlink:title=" ">
<polygon fill="#bfbfbf" stroke="black" points="177,-55 177,-74 276,-74 276,-55 177,-55"/>
<text text-anchor="middle" x="226.5" y="-62" font-family="Helvetica,sans-Serif" font-size="10.00">plang::plot::symbol</text>
</a>
</g>
</g>
<!-- Node2 -->
<g id="node2" class="node">
<title>Node2</title>
<g id="a_node2"><a xlink:href="classplang_1_1detail_1_1base__types_1_1persisted.html" target="_top" xlink:title=" ">
<polygon fill="none" stroke="black" points="0,-98.5 0,-128.5 141,-128.5 141,-98.5 0,-98.5"/>
<text text-anchor="start" x="8" y="-116.5" font-family="Helvetica,sans-Serif" font-size="10.00">plang::detail::base</text>
<text text-anchor="middle" x="70.5" y="-105.5" font-family="Helvetica,sans-Serif" font-size="10.00">_types::persisted&lt; symbol &gt;</text>
</a>
</g>
</g>
<!-- Node2&#45;&gt;Node1 -->
<g id="edge1" class="edge">
<title>Node2&#45;&gt;Node1</title>
<path fill="none" stroke="midnightblue" d="M128.51,-95.36C151.21,-88.14 176.39,-80.13 195.41,-74.08"/>
<polygon fill="midnightblue" stroke="midnightblue" points="127.43,-92.03 118.96,-98.4 129.55,-98.7 127.43,-92.03"/>
</g>
<!-- Node3 -->
<g id="node3" class="node">
<title>Node3</title>
<g id="a_node3"><a xlink:href="classplang_1_1detail_1_1base__types_1_1sourced.html" target="_top" xlink:title="Base type for traceable classes.">
<polygon fill="none" stroke="black" points="22.5,-49.5 22.5,-79.5 118.5,-79.5 118.5,-49.5 22.5,-49.5"/>
<text text-anchor="start" x="30.5" y="-67.5" font-family="Helvetica,sans-Serif" font-size="10.00">plang::detail::base</text>
<text text-anchor="middle" x="70.5" y="-56.5" font-family="Helvetica,sans-Serif" font-size="10.00">_types::sourced</text>
</a>
</g>
</g>
<!-- Node3&#45;&gt;Node1 -->
<g id="edge2" class="edge">
<title>Node3&#45;&gt;Node1</title>
<path fill="none" stroke="midnightblue" d="M128.74,-64.5C144.57,-64.5 161.59,-64.5 176.88,-64.5"/>
<polygon fill="midnightblue" stroke="midnightblue" points="128.54,-61 118.54,-64.5 128.54,-68 128.54,-61"/>
</g>
<!-- Node4 -->
<g id="node4" class="node">
<title>Node4</title>
<g id="a_node4"><a xlink:href="classplang_1_1detail_1_1base__types_1_1decorated.html" target="_top" xlink:title="Base type for decorated classes.">
<polygon fill="none" stroke="black" points="22.5,-0.5 22.5,-30.5 118.5,-30.5 118.5,-0.5 22.5,-0.5"/>
<text text-anchor="start" x="30.5" y="-18.5" font-family="Helvetica,sans-Serif" font-size="10.00">plang::detail::base</text>
<text text-anchor="middle" x="70.5" y="-7.5" font-family="Helvetica,sans-Serif" font-size="10.00">_types::decorated</text>
</a>
</g>
</g>
<!-- Node4&#45;&gt;Node1 -->
<g id="edge3" class="edge">
<title>Node4&#45;&gt;Node1</title>
<path fill="none" stroke="midnightblue" d="M128.1,-33.51C150.84,-40.74 176.13,-48.79 195.24,-54.87"/>
<polygon fill="midnightblue" stroke="midnightblue" points="129.13,-30.16 118.54,-30.47 127.01,-36.84 129.13,-30.16"/>
</g>
</g>
</svg>
