<?xml version="1.0" encoding="UTF-8" standalone="no"?>
<!DOCTYPE svg PUBLIC "-//W3C//DTD SVG 1.1//EN"
 "http://www.w3.org/Graphics/SVG/1.1/DTD/svg11.dtd">
<!-- Generated by graphviz version 2.44.1 (20220725.2034)
 -->
<!-- Title: plang::detail::object_class_manager Pages: 1 -->
<svg width="1082pt" height="166pt"
 viewBox="0.00 0.00 1082.00 165.50" xmlns="http://www.w3.org/2000/svg" xmlns:xlink="http://www.w3.org/1999/xlink">
<g id="graph0" class="graph" transform="scale(1 1) rotate(0) translate(4 161.5)">
<title>plang::detail::object_class_manager</title>
<!-- Node1 -->
<g id="node1" class="node">
<title>Node1</title>
<g id="a_node1"><a xlink:title=" ">
<polygon fill="#bfbfbf" stroke="black" points="413,-44.5 413,-74.5 514,-74.5 514,-44.5 413,-44.5"/>
<text text-anchor="start" x="421" y="-62.5" font-family="Helvetica,sans-Serif" font-size="10.00">plang::detail::object</text>
<text text-anchor="middle" x="463.5" y="-51.5" font-family="Helvetica,sans-Serif" font-size="10.00">_class_manager</text>
</a>
</g>
</g>
<!-- Node5 -->
<g id="node5" class="node">
<title>Node5</title>
<g id="a_node5"><a xlink:href="structplang_1_1detail_1_1mixin__base.html" target="_top" xlink:title=" ">
<polygon fill="none" stroke="black" points="682,-50 682,-157 823,-157 823,-50 682,-50"/>
<text text-anchor="start" x="690" y="-145" font-family="Helvetica,sans-Serif" font-size="10.00">plang::detail::mixin</text>
<text text-anchor="start" x="690" y="-134" font-family="Helvetica,sans-Serif" font-size="10.00">_base&lt; plang::detail</text>
<text text-anchor="start" x="690" y="-123" font-family="Helvetica,sans-Serif" font-size="10.00">::path_manager, plang</text>
<text text-anchor="start" x="690" y="-112" font-family="Helvetica,sans-Serif" font-size="10.00">::detail::symbol_class</text>
<text text-anchor="start" x="690" y="-101" font-family="Helvetica,sans-Serif" font-size="10.00">_manager, plang::detail</text>
<text text-anchor="start" x="690" y="-90" font-family="Helvetica,sans-Serif" font-size="10.00">::symbol_manager, plang::</text>
<text text-anchor="start" x="690" y="-79" font-family="Helvetica,sans-Serif" font-size="10.00">detail::point_class_manager,</text>
<text text-anchor="start" x="690" y="-68" font-family="Helvetica,sans-Serif" font-size="10.00"> plang::detail::object_class</text>
<text text-anchor="middle" x="752.5" y="-57" font-family="Helvetica,sans-Serif" font-size="10.00">_manager &gt;</text>
</a>
</g>
</g>
<!-- Node1&#45;&gt;Node5 -->
<g id="edge7" class="edge">
<title>Node1&#45;&gt;Node5</title>
<path fill="none" stroke="midnightblue" d="M520.01,-77.39C529.92,-80.11 540.2,-82.62 550,-84.5 593.31,-92.8 642.58,-97.52 681.56,-100.19"/>
<polygon fill="midnightblue" stroke="midnightblue" points="520.83,-73.98 510.25,-74.62 518.92,-80.72 520.83,-73.98"/>
</g>
<!-- Node8 -->
<g id="node8" class="node">
<title>Node8</title>
<g id="a_node8"><a xlink:href="structplang_1_1detail_1_1mixin__base.html" target="_top" xlink:title="Common derived class template for distributed overloading.">
<polygon fill="none" stroke="black" points="703.5,-0.5 703.5,-30.5 801.5,-30.5 801.5,-0.5 703.5,-0.5"/>
<text text-anchor="start" x="711.5" y="-18.5" font-family="Helvetica,sans-Serif" font-size="10.00">plang::detail::mixin</text>
<text text-anchor="middle" x="752.5" y="-7.5" font-family="Helvetica,sans-Serif" font-size="10.00">_base&lt; Tps &gt;</text>
</a>
</g>
</g>
<!-- Node1&#45;&gt;Node8 -->
<g id="edge10" class="edge">
<title>Node1&#45;&gt;Node8</title>
<path fill="none" stroke="midnightblue" d="M520.01,-41.61C529.92,-38.89 540.2,-36.38 550,-34.5 601.77,-24.59 662.05,-19.77 703.09,-17.48"/>
<polygon fill="midnightblue" stroke="midnightblue" points="518.92,-38.28 510.25,-44.38 520.83,-45.02 518.92,-38.28"/>
</g>
<!-- Node9 -->
<g id="node9" class="node">
<title>Node9</title>
<g id="a_node9"><a xlink:href="classplang_1_1detail_1_1point__class__manager.html" target="_top" xlink:title=" ">
<polygon fill="none" stroke="black" points="550,-44.5 550,-74.5 646,-74.5 646,-44.5 550,-44.5"/>
<text text-anchor="start" x="558" y="-62.5" font-family="Helvetica,sans-Serif" font-size="10.00">plang::detail::point</text>
<text text-anchor="middle" x="598" y="-51.5" font-family="Helvetica,sans-Serif" font-size="10.00">_class_manager</text>
</a>
</g>
</g>
<!-- Node1&#45;&gt;Node9 -->
<g id="edge11" class="edge">
<title>Node1&#45;&gt;Node9</title>
<path fill="none" stroke="darkgreen" d="M524.42,-59.5C532.87,-59.5 541.47,-59.5 549.64,-59.5"/>
<polygon fill="darkgreen" stroke="darkgreen" points="524.22,-56 514.22,-59.5 524.22,-63 524.22,-56"/>
</g>
<!-- Node2 -->
<g id="node2" class="node">
<title>Node2</title>
<g id="a_node2"><a xlink:href="classplang_1_1detail_1_1corpus.html" target="_top" xlink:title="Provides a basic interface to a database.">
<polygon fill="none" stroke="black" points="0,-47 0,-66 104,-66 104,-47 0,-47"/>
<text text-anchor="middle" x="52" y="-54" font-family="Helvetica,sans-Serif" font-size="10.00">plang::detail::corpus</text>
</a>
</g>
</g>
<!-- Node2&#45;&gt;Node1 -->
<g id="edge1" class="edge">
<title>Node2&#45;&gt;Node1</title>
<path fill="none" stroke="darkgreen" d="M88.95,-69.28C104.44,-74.14 122.89,-79.09 140,-81.5 236,-95.02 349.29,-80.27 412.82,-69.26"/>
<polygon fill="darkgreen" stroke="darkgreen" points="89.83,-65.88 79.24,-66.12 87.66,-72.54 89.83,-65.88"/>
</g>
<!-- Node3 -->
<g id="node3" class="node">
<title>Node3</title>
<g id="a_node3"><a xlink:href="classplang_1_1detail_1_1path__manager.html" target="_top" xlink:title="Handles database actions for paths.">
<polygon fill="none" stroke="black" points="140,-41.5 140,-71.5 234,-71.5 234,-41.5 140,-41.5"/>
<text text-anchor="start" x="148" y="-59.5" font-family="Helvetica,sans-Serif" font-size="10.00">plang::detail::path</text>
<text text-anchor="middle" x="187" y="-48.5" font-family="Helvetica,sans-Serif" font-size="10.00">_manager</text>
</a>
</g>
</g>
<!-- Node2&#45;&gt;Node3 -->
<g id="edge3" class="edge">
<title>Node2&#45;&gt;Node3</title>
<path fill="none" stroke="darkgreen" d="M114.06,-56.5C122.67,-56.5 131.4,-56.5 139.67,-56.5"/>
<polygon fill="darkgreen" stroke="darkgreen" points="114.04,-53 104.04,-56.5 114.04,-60 114.04,-53"/>
</g>
<!-- Node4 -->
<g id="node4" class="node">
<title>Node4</title>
<g id="a_node4"><a xlink:href="classplang_1_1detail_1_1symbol__class__manager.html" target="_top" xlink:title=" ">
<polygon fill="none" stroke="black" points="270,-0.5 270,-30.5 377,-30.5 377,-0.5 270,-0.5"/>
<text text-anchor="start" x="278" y="-18.5" font-family="Helvetica,sans-Serif" font-size="10.00">plang::detail::symbol</text>
<text text-anchor="middle" x="323.5" y="-7.5" font-family="Helvetica,sans-Serif" font-size="10.00">_class_manager</text>
</a>
</g>
</g>
<!-- Node2&#45;&gt;Node4 -->
<g id="edge5" class="edge">
<title>Node2&#45;&gt;Node4</title>
<path fill="none" stroke="darkgreen" d="M91.25,-43.79C106.29,-39.24 123.81,-34.51 140,-31.5 183.31,-23.46 233.17,-19.43 269.82,-17.43"/>
<polygon fill="darkgreen" stroke="darkgreen" points="89.79,-40.57 81.27,-46.88 91.86,-47.26 89.79,-40.57"/>
</g>
<!-- Node3&#45;&gt;Node1 -->
<g id="edge2" class="edge">
<title>Node3&#45;&gt;Node1</title>
<path fill="none" stroke="darkgreen" d="M244.48,-57.12C294.03,-57.66 365.38,-58.44 412.8,-58.96"/>
<polygon fill="darkgreen" stroke="darkgreen" points="244.29,-53.62 234.25,-57.01 244.22,-60.61 244.29,-53.62"/>
</g>
<!-- Node3&#45;&gt;Node4 -->
<g id="edge6" class="edge">
<title>Node3&#45;&gt;Node4</title>
<path fill="none" stroke="darkgreen" d="M244.11,-39.4C253.67,-36.48 263.54,-33.47 272.91,-30.62"/>
<polygon fill="darkgreen" stroke="darkgreen" points="242.83,-36.13 234.29,-42.39 244.87,-42.82 242.83,-36.13"/>
</g>
<!-- Node4&#45;&gt;Node1 -->
<g id="edge4" class="edge">
<title>Node4&#45;&gt;Node1</title>
<path fill="none" stroke="darkgreen" d="M381.34,-33.62C392.57,-37.2 404.25,-40.93 415.14,-44.4"/>
<polygon fill="darkgreen" stroke="darkgreen" points="382.2,-30.22 371.61,-30.52 380.07,-36.89 382.2,-30.22"/>
</g>
<!-- Node6 -->
<g id="node6" class="node">
<title>Node6</title>
<g id="a_node6"><a xlink:href="structplang_1_1detail_1_1corpus__mixins.html" target="_top" xlink:title="Base class for the corpus.">
<polygon fill="none" stroke="black" points="859,-88.5 859,-118.5 963,-118.5 963,-88.5 859,-88.5"/>
<text text-anchor="start" x="867" y="-106.5" font-family="Helvetica,sans-Serif" font-size="10.00">plang::detail::corpus</text>
<text text-anchor="middle" x="911" y="-95.5" font-family="Helvetica,sans-Serif" font-size="10.00">_mixins</text>
</a>
</g>
</g>
<!-- Node5&#45;&gt;Node6 -->
<g id="edge8" class="edge">
<title>Node5&#45;&gt;Node6</title>
<path fill="none" stroke="midnightblue" d="M833.29,-103.5C842.02,-103.5 850.72,-103.5 858.97,-103.5"/>
<polygon fill="midnightblue" stroke="midnightblue" points="833.05,-100 823.05,-103.5 833.05,-107 833.05,-100"/>
</g>
<!-- Node7 -->
<g id="node7" class="node">
<title>Node7</title>
<g id="a_node7"><a xlink:href="classplang_1_1corpus.html" target="_top" xlink:title="The main interface for interacting with a corpus.">
<polygon fill="none" stroke="black" points="999,-94 999,-113 1074,-113 1074,-94 999,-94"/>
<text text-anchor="middle" x="1036.5" y="-101" font-family="Helvetica,sans-Serif" font-size="10.00">plang::corpus</text>
</a>
</g>
</g>
<!-- Node6&#45;&gt;Node7 -->
<g id="edge9" class="edge">
<title>Node6&#45;&gt;Node7</title>
<path fill="none" stroke="midnightblue" d="M973.45,-103.5C982.14,-103.5 990.83,-103.5 998.85,-103.5"/>
<polygon fill="midnightblue" stroke="midnightblue" points="973.3,-100 963.3,-103.5 973.3,-107 973.3,-100"/>
</g>
<!-- Node9&#45;&gt;Node5 -->
<g id="edge12" class="edge">
<title>Node9&#45;&gt;Node5</title>
<path fill="none" stroke="midnightblue" d="M656.06,-75.96C664.43,-78.38 673.13,-80.89 681.72,-83.37"/>
<polygon fill="midnightblue" stroke="midnightblue" points="656.99,-72.59 646.42,-73.18 655.05,-79.32 656.99,-72.59"/>
</g>
<!-- Node9&#45;&gt;Node8 -->
<g id="edge13" class="edge">
<title>Node9&#45;&gt;Node8</title>
<path fill="none" stroke="midnightblue" d="M656.39,-42.94C671.85,-38.48 688.42,-33.7 703.32,-29.4"/>
<polygon fill="midnightblue" stroke="midnightblue" points="655.05,-39.68 646.42,-45.82 656.99,-46.41 655.05,-39.68"/>
</g>
</g>
</svg>
