<?xml version="1.0" encoding="UTF-8" standalone="no"?>
<!DOCTYPE svg PUBLIC "-//W3C//DTD SVG 1.1//EN"
 "http://www.w3.org/Graphics/SVG/1.1/DTD/svg11.dtd">
<!-- Generated by graphviz version 2.44.1 (20220725.2034)
 -->
<!-- Title: plang::plot::object::clazz::hint::pnt Pages: 1 -->
<svg width="246pt" height="106pt"
 viewBox="0.00 0.00 245.50 106.00" xmlns="http://www.w3.org/2000/svg" xmlns:xlink="http://www.w3.org/1999/xlink">
<g id="graph0" class="graph" transform="scale(1 1) rotate(0) translate(4 102)">
<title>plang::plot::object::clazz::hint::pnt</title>
<!-- Node1 -->
<g id="node1" class="node">
<title>Node1</title>
<g id="a_node1"><a xlink:title=" ">
<polygon fill="#bfbfbf" stroke="black" points="78.5,-0.5 78.5,-30.5 172.5,-30.5 172.5,-0.5 78.5,-0.5"/>
<text text-anchor="start" x="86.5" y="-18.5" font-family="Helvetica,sans-Serif" font-size="10.00">plang::plot::object</text>
<text text-anchor="middle" x="125.5" y="-7.5" font-family="Helvetica,sans-Serif" font-size="10.00">::clazz::hint::pnt</text>
</a>
</g>
</g>
<!-- Node2 -->
<g id="node2" class="node">
<title>Node2</title>
<g id="a_node2"><a xlink:href="classplang_1_1detail_1_1base__types_1_1persisted.html" target="_top" xlink:title=" ">
<polygon fill="none" stroke="black" points="0,-67.5 0,-97.5 123,-97.5 123,-67.5 0,-67.5"/>
<text text-anchor="start" x="8" y="-85.5" font-family="Helvetica,sans-Serif" font-size="10.00">plang::detail::base</text>
<text text-anchor="middle" x="61.5" y="-74.5" font-family="Helvetica,sans-Serif" font-size="10.00">_types::persisted&lt; pnt &gt;</text>
</a>
</g>
</g>
<!-- Node2&#45;&gt;Node1 -->
<g id="edge1" class="edge">
<title>Node2&#45;&gt;Node1</title>
<path fill="none" stroke="midnightblue" d="M82.65,-60.02C92.18,-50.34 103.17,-39.17 111.64,-30.58"/>
<polygon fill="midnightblue" stroke="midnightblue" points="79.91,-57.81 75.39,-67.4 84.9,-62.73 79.91,-57.81"/>
</g>
<!-- Node3 -->
<g id="node3" class="node">
<title>Node3</title>
<g id="a_node3"><a xlink:href="classplang_1_1detail_1_1base__types_1_1sourced.html" target="_top" xlink:title="Base type for traceable classes.">
<polygon fill="none" stroke="black" points="141.5,-67.5 141.5,-97.5 237.5,-97.5 237.5,-67.5 141.5,-67.5"/>
<text text-anchor="start" x="149.5" y="-85.5" font-family="Helvetica,sans-Serif" font-size="10.00">plang::detail::base</text>
<text text-anchor="middle" x="189.5" y="-74.5" font-family="Helvetica,sans-Serif" font-size="10.00">_types::sourced</text>
</a>
</g>
</g>
<!-- Node3&#45;&gt;Node1 -->
<g id="edge2" class="edge">
<title>Node3&#45;&gt;Node1</title>
<path fill="none" stroke="midnightblue" d="M168.35,-60.02C158.82,-50.34 147.83,-39.17 139.36,-30.58"/>
<polygon fill="midnightblue" stroke="midnightblue" points="166.1,-62.73 175.61,-67.4 171.09,-57.81 166.1,-62.73"/>
</g>
</g>
</svg>
