<?xml version="1.0" encoding="UTF-8" standalone="no"?>
<!DOCTYPE svg PUBLIC "-//W3C//DTD SVG 1.1//EN"
 "http://www.w3.org/Graphics/SVG/1.1/DTD/svg11.dtd">
<!-- Generated by graphviz version 2.44.1 (20220725.2034)
 -->
<!-- Title: include/plangcli/cli.hpp Pages: 1 -->
<svg width="1221pt" height="420pt"
 viewBox="0.00 0.00 1220.50 420.00" xmlns="http://www.w3.org/2000/svg" xmlns:xlink="http://www.w3.org/1999/xlink">
<g id="graph0" class="graph" transform="scale(1 1) rotate(0) translate(4 416)">
<title>include/plangcli/cli.hpp</title>
<!-- Node1 -->
<g id="node1" class="node">
<title>Node1</title>
<g id="a_node1"><a xlink:title=" ">
<polygon fill="#bfbfbf" stroke="black" points="71,-392.5 71,-411.5 186,-411.5 186,-392.5 71,-392.5"/>
<text text-anchor="middle" x="128.5" y="-399.5" font-family="Helvetica,sans-Serif" font-size="10.00">include/plangcli/cli.hpp</text>
</a>
</g>
</g>
<!-- Node2 -->
<g id="node2" class="node">
<title>Node2</title>
<g id="a_node2"><a xlink:title=" ">
<polygon fill="none" stroke="#bfbfbf" points="0,-336.5 0,-355.5 35,-355.5 35,-336.5 0,-336.5"/>
<text text-anchor="middle" x="17.5" y="-343.5" font-family="Helvetica,sans-Serif" font-size="10.00">map</text>
</a>
</g>
</g>
<!-- Node1&#45;&gt;Node2 -->
<g id="edge1" class="edge">
<title>Node1&#45;&gt;Node2</title>
<path fill="none" stroke="midnightblue" d="M110.67,-392.32C92.78,-383.62 65.02,-370.12 44.45,-360.11"/>
<polygon fill="midnightblue" stroke="midnightblue" points="45.81,-356.88 35.29,-355.65 42.75,-363.18 45.81,-356.88"/>
</g>
<!-- Node3 -->
<g id="node3" class="node">
<title>Node3</title>
<g id="a_node3"><a xlink:title=" ">
<polygon fill="none" stroke="#bfbfbf" points="133.5,-0.5 133.5,-19.5 183.5,-19.5 183.5,-0.5 133.5,-0.5"/>
<text text-anchor="middle" x="158.5" y="-7.5" font-family="Helvetica,sans-Serif" font-size="10.00">optional</text>
</a>
</g>
</g>
<!-- Node1&#45;&gt;Node3 -->
<g id="edge2" class="edge">
<title>Node1&#45;&gt;Node3</title>
<path fill="none" stroke="midnightblue" d="M118.91,-392.34C100.83,-375.02 63.5,-334.03 63.5,-291 63.5,-291 63.5,-291 63.5,-121 63.5,-77.74 106.11,-43.09 134.25,-24.91"/>
<polygon fill="midnightblue" stroke="midnightblue" points="136.16,-27.85 142.81,-19.6 132.47,-21.9 136.16,-27.85"/>
</g>
<!-- Node4 -->
<g id="node4" class="node">
<title>Node4</title>
<g id="a_node4"><a xlink:title=" ">
<polygon fill="none" stroke="#bfbfbf" points="285.5,-56.5 285.5,-75.5 325.5,-75.5 325.5,-56.5 285.5,-56.5"/>
<text text-anchor="middle" x="305.5" y="-63.5" font-family="Helvetica,sans-Serif" font-size="10.00">utility</text>
</a>
</g>
</g>
<!-- Node1&#45;&gt;Node4 -->
<g id="edge3" class="edge">
<title>Node1&#45;&gt;Node4</title>
<path fill="none" stroke="midnightblue" d="M124.86,-392.34C117.49,-374 101.5,-329.74 101.5,-291 101.5,-291 101.5,-291 101.5,-177 101.5,-99.13 218.08,-76.13 274.98,-69.54"/>
<polygon fill="midnightblue" stroke="midnightblue" points="275.62,-73 285.19,-68.46 274.88,-66.03 275.62,-73"/>
</g>
<!-- Node5 -->
<g id="node5" class="node">
<title>Node5</title>
<g id="a_node5"><a xlink:title=" ">
<polygon fill="none" stroke="#bfbfbf" points="200,-112.5 200,-131.5 283,-131.5 283,-112.5 200,-112.5"/>
<text text-anchor="middle" x="241.5" y="-119.5" font-family="Helvetica,sans-Serif" font-size="10.00">unordered_map</text>
</a>
</g>
</g>
<!-- Node1&#45;&gt;Node5 -->
<g id="edge4" class="edge">
<title>Node1&#45;&gt;Node5</title>
<path fill="none" stroke="midnightblue" d="M148.7,-392.49C181.2,-377.29 241.5,-342.2 241.5,-291 241.5,-291 241.5,-291 241.5,-233 241.5,-200.95 241.5,-163.64 241.5,-141.75"/>
<polygon fill="midnightblue" stroke="midnightblue" points="245,-141.56 241.5,-131.56 238,-141.56 245,-141.56"/>
</g>
<!-- Node6 -->
<g id="node6" class="node">
<title>Node6</title>
<g id="a_node6"><a xlink:href="corpus_8hpp.html" target="_top" xlink:title=" ">
<polygon fill="none" stroke="black" points="929,-336.5 929,-355.5 1020,-355.5 1020,-336.5 929,-336.5"/>
<text text-anchor="middle" x="974.5" y="-343.5" font-family="Helvetica,sans-Serif" font-size="10.00">plang/corpus.hpp</text>
</a>
</g>
</g>
<!-- Node1&#45;&gt;Node6 -->
<g id="edge5" class="edge">
<title>Node1&#45;&gt;Node6</title>
<path fill="none" stroke="midnightblue" d="M186.32,-397.31C341.57,-387.4 766.14,-360.3 918.86,-350.55"/>
<polygon fill="midnightblue" stroke="midnightblue" points="919.19,-354.04 928.95,-349.91 918.74,-347.05 919.19,-354.04"/>
</g>
<!-- Node27 -->
<g id="node27" class="node">
<title>Node27</title>
<g id="a_node27"><a xlink:href="intl_8hpp.html" target="_top" xlink:title=" ">
<polygon fill="none" stroke="black" points="129.5,-168.5 129.5,-187.5 213.5,-187.5 213.5,-168.5 129.5,-168.5"/>
<text text-anchor="middle" x="171.5" y="-175.5" font-family="Helvetica,sans-Serif" font-size="10.00">plangcli/intl.hpp</text>
</a>
</g>
</g>
<!-- Node1&#45;&gt;Node27 -->
<g id="edge45" class="edge">
<title>Node1&#45;&gt;Node27</title>
<path fill="none" stroke="midnightblue" d="M130.19,-392.3C136.51,-359.63 158.94,-243.87 167.83,-197.96"/>
<polygon fill="midnightblue" stroke="midnightblue" points="171.31,-198.37 169.78,-187.88 164.44,-197.04 171.31,-198.37"/>
</g>
<!-- Node7 -->
<g id="node7" class="node">
<title>Node7</title>
<g id="a_node7"><a xlink:title=" ">
<polygon fill="none" stroke="#bfbfbf" points="1002.5,-280.5 1002.5,-299.5 1034.5,-299.5 1034.5,-280.5 1002.5,-280.5"/>
<text text-anchor="middle" x="1018.5" y="-287.5" font-family="Helvetica,sans-Serif" font-size="10.00">any</text>
</a>
</g>
</g>
<!-- Node6&#45;&gt;Node7 -->
<g id="edge6" class="edge">
<title>Node6&#45;&gt;Node7</title>
<path fill="none" stroke="midnightblue" d="M981.77,-336.08C988.04,-328.38 997.29,-317.03 1004.93,-307.65"/>
<polygon fill="midnightblue" stroke="midnightblue" points="1007.77,-309.71 1011.37,-299.75 1002.34,-305.29 1007.77,-309.71"/>
</g>
<!-- Node8 -->
<g id="node8" class="node">
<title>Node8</title>
<g id="a_node8"><a xlink:title=" ">
<polygon fill="none" stroke="#bfbfbf" points="1053.5,-56.5 1053.5,-75.5 1115.5,-75.5 1115.5,-56.5 1053.5,-56.5"/>
<text text-anchor="middle" x="1084.5" y="-63.5" font-family="Helvetica,sans-Serif" font-size="10.00">filesystem</text>
</a>
</g>
</g>
<!-- Node6&#45;&gt;Node8 -->
<g id="edge7" class="edge">
<title>Node6&#45;&gt;Node8</title>
<path fill="none" stroke="midnightblue" d="M1020.33,-345.2C1059.6,-342.87 1115.12,-333.27 1149.5,-300 1171.13,-279.07 1168.5,-265.1 1168.5,-235 1168.5,-235 1168.5,-235 1168.5,-177 1168.5,-135.73 1130.69,-100.32 1105.81,-81.49"/>
<polygon fill="midnightblue" stroke="midnightblue" points="1107.77,-78.59 1097.62,-75.54 1103.65,-84.25 1107.77,-78.59"/>
</g>
<!-- Node9 -->
<g id="node9" class="node">
<title>Node9</title>
<g id="a_node9"><a xlink:title=" ">
<polygon fill="none" stroke="#bfbfbf" points="1091,-280.5 1091,-299.5 1140,-299.5 1140,-280.5 1091,-280.5"/>
<text text-anchor="middle" x="1115.5" y="-287.5" font-family="Helvetica,sans-Serif" font-size="10.00">istream</text>
</a>
</g>
</g>
<!-- Node6&#45;&gt;Node9 -->
<g id="edge8" class="edge">
<title>Node6&#45;&gt;Node9</title>
<path fill="none" stroke="midnightblue" d="M996.84,-336.44C1020.25,-327.48 1057.24,-313.31 1083.69,-303.18"/>
<polygon fill="midnightblue" stroke="midnightblue" points="1085.18,-306.36 1093.26,-299.52 1082.67,-299.82 1085.18,-306.36"/>
</g>
<!-- Node10 -->
<g id="node10" class="node">
<title>Node10</title>
<g id="a_node10"><a xlink:title=" ">
<polygon fill="none" stroke="#bfbfbf" points="1166.5,-56.5 1166.5,-75.5 1212.5,-75.5 1212.5,-56.5 1166.5,-56.5"/>
<text text-anchor="middle" x="1189.5" y="-63.5" font-family="Helvetica,sans-Serif" font-size="10.00">variant</text>
</a>
</g>
</g>
<!-- Node6&#45;&gt;Node10 -->
<g id="edge9" class="edge">
<title>Node6&#45;&gt;Node10</title>
<path fill="none" stroke="midnightblue" d="M1020.06,-343.19C1087.62,-337.79 1206.5,-316.69 1206.5,-235 1206.5,-235 1206.5,-235 1206.5,-177 1206.5,-144.58 1199.2,-107.42 1194.17,-85.64"/>
<polygon fill="midnightblue" stroke="midnightblue" points="1197.53,-84.67 1191.79,-75.77 1190.73,-86.31 1197.53,-84.67"/>
</g>
<!-- Node11 -->
<g id="node11" class="node">
<title>Node11</title>
<g id="a_node11"><a xlink:title=" ">
<polygon fill="none" stroke="#bfbfbf" points="477.5,-112.5 477.5,-131.5 521.5,-131.5 521.5,-112.5 477.5,-112.5"/>
<text text-anchor="middle" x="499.5" y="-119.5" font-family="Helvetica,sans-Serif" font-size="10.00">vector</text>
</a>
</g>
</g>
<!-- Node6&#45;&gt;Node11 -->
<g id="edge10" class="edge">
<title>Node6&#45;&gt;Node11</title>
<path fill="none" stroke="midnightblue" d="M928.9,-344.58C801.38,-342.35 445.7,-328.52 374.5,-244 368.77,-237.2 370.18,-231.77 374.5,-224 389.25,-197.49 408.59,-206.67 432.5,-188 451.75,-172.97 471.56,-153.11 484.59,-139.31"/>
<polygon fill="midnightblue" stroke="midnightblue" points="487.52,-141.31 491.77,-131.6 482.39,-136.54 487.52,-141.31"/>
</g>
<!-- Node12 -->
<g id="node12" class="node">
<title>Node12</title>
<g id="a_node12"><a xlink:href="base_8hpp.html" target="_top" xlink:title=" ">
<polygon fill="none" stroke="black" points="440,-56.5 440,-75.5 523,-75.5 523,-56.5 440,-56.5"/>
<text text-anchor="middle" x="481.5" y="-63.5" font-family="Helvetica,sans-Serif" font-size="10.00">plang/base.hpp</text>
</a>
</g>
</g>
<!-- Node6&#45;&gt;Node12 -->
<g id="edge11" class="edge">
<title>Node6&#45;&gt;Node12</title>
<path fill="none" stroke="midnightblue" d="M928.77,-345.34C787.87,-345.9 367.42,-343.86 326.5,-300 286.36,-256.98 306.53,-218.63 336.5,-168 362.32,-124.39 415.19,-95.01 449.46,-79.65"/>
<polygon fill="midnightblue" stroke="midnightblue" points="451.23,-82.69 459.01,-75.51 448.45,-76.27 451.23,-82.69"/>
</g>
<!-- Node17 -->
<g id="node17" class="node">
<title>Node17</title>
<g id="a_node17"><a xlink:href="detail_8hpp.html" target="_top" xlink:title=" ">
<polygon fill="none" stroke="black" points="866,-112.5 866,-131.5 983,-131.5 983,-112.5 866,-112.5"/>
<text text-anchor="middle" x="924.5" y="-119.5" font-family="Helvetica,sans-Serif" font-size="10.00">plang/corpus/detail.hpp</text>
</a>
</g>
</g>
<!-- Node6&#45;&gt;Node17 -->
<g id="edge17" class="edge">
<title>Node6&#45;&gt;Node17</title>
<path fill="none" stroke="midnightblue" d="M998.29,-336.5C1014.22,-329.41 1033.96,-317.61 1043.5,-300 1047.73,-292.18 1045.22,-288.72 1043.5,-280 1031.21,-217.74 974.22,-163.25 943.78,-137.98"/>
<polygon fill="midnightblue" stroke="midnightblue" points="945.93,-135.22 935.96,-131.64 941.53,-140.66 945.93,-135.22"/>
</g>
<!-- Node20 -->
<g id="node20" class="node">
<title>Node20</title>
<g id="a_node20"><a xlink:href="path_8hpp.html" target="_top" xlink:title=" ">
<polygon fill="none" stroke="black" points="705,-168.5 705,-187.5 818,-187.5 818,-168.5 705,-168.5"/>
<text text-anchor="middle" x="761.5" y="-175.5" font-family="Helvetica,sans-Serif" font-size="10.00">plang/corpus/path.hpp</text>
</a>
</g>
</g>
<!-- Node6&#45;&gt;Node20 -->
<g id="edge24" class="edge">
<title>Node6&#45;&gt;Node20</title>
<path fill="none" stroke="midnightblue" d="M976.98,-336.14C980.51,-323.6 987.25,-299.97 993.5,-280 998.53,-263.9 1002.8,-260.65 1005.5,-244 1006.92,-235.23 1011.19,-230.83 1005.5,-224 983.33,-197.37 892.65,-186.44 828.33,-181.99"/>
<polygon fill="midnightblue" stroke="midnightblue" points="828.45,-178.49 818.25,-181.33 828,-185.48 828.45,-178.49"/>
</g>
<!-- Node21 -->
<g id="node21" class="node">
<title>Node21</title>
<g id="a_node21"><a xlink:href="corpus_2plot_8hpp.html" target="_top" xlink:title=" ">
<polygon fill="none" stroke="black" points="708.5,-280.5 708.5,-299.5 818.5,-299.5 818.5,-280.5 708.5,-280.5"/>
<text text-anchor="middle" x="763.5" y="-287.5" font-family="Helvetica,sans-Serif" font-size="10.00">plang/corpus/plot.hpp</text>
</a>
</g>
</g>
<!-- Node6&#45;&gt;Node21 -->
<g id="edge30" class="edge">
<title>Node6&#45;&gt;Node21</title>
<path fill="none" stroke="midnightblue" d="M941.07,-336.44C904.64,-327.12 846.27,-312.18 806.47,-302"/>
<polygon fill="midnightblue" stroke="midnightblue" points="807.33,-298.61 796.78,-299.52 805.6,-305.39 807.33,-298.61"/>
</g>
<!-- Node23 -->
<g id="node23" class="node">
<title>Node23</title>
<g id="a_node23"><a xlink:href="plot_8hpp.html" target="_top" xlink:title=" ">
<polygon fill="none" stroke="black" points="346,-168.5 346,-187.5 423,-187.5 423,-168.5 346,-168.5"/>
<text text-anchor="middle" x="384.5" y="-175.5" font-family="Helvetica,sans-Serif" font-size="10.00">plang/plot.hpp</text>
</a>
</g>
</g>
<!-- Node6&#45;&gt;Node23 -->
<g id="edge44" class="edge">
<title>Node6&#45;&gt;Node23</title>
<path fill="none" stroke="midnightblue" d="M928.85,-345.25C790.25,-345.55 381.35,-342.78 341.5,-300 318.48,-275.28 328.93,-255.35 341.5,-224 346.18,-212.33 355.49,-201.97 364.26,-194.14"/>
<polygon fill="midnightblue" stroke="midnightblue" points="366.55,-196.78 372,-187.7 362.08,-191.4 366.55,-196.78"/>
</g>
<!-- Node12&#45;&gt;Node3 -->
<g id="edge14" class="edge">
<title>Node12&#45;&gt;Node3</title>
<path fill="none" stroke="midnightblue" d="M439.93,-58.05C375.8,-47.33 253.86,-26.94 193.77,-16.9"/>
<polygon fill="midnightblue" stroke="midnightblue" points="194.08,-13.4 183.64,-15.2 192.93,-20.3 194.08,-13.4"/>
</g>
<!-- Node13 -->
<g id="node13" class="node">
<title>Node13</title>
<g id="a_node13"><a xlink:title=" ">
<polygon fill="none" stroke="#bfbfbf" points="525.5,-0.5 525.5,-19.5 571.5,-19.5 571.5,-0.5 525.5,-0.5"/>
<text text-anchor="middle" x="548.5" y="-7.5" font-family="Helvetica,sans-Serif" font-size="10.00">chrono</text>
</a>
</g>
</g>
<!-- Node12&#45;&gt;Node13 -->
<g id="edge12" class="edge">
<title>Node12&#45;&gt;Node13</title>
<path fill="none" stroke="midnightblue" d="M492.26,-56.32C502.27,-48.26 517.39,-36.08 529.43,-26.37"/>
<polygon fill="midnightblue" stroke="midnightblue" points="531.95,-28.83 537.54,-19.83 527.56,-23.38 531.95,-28.83"/>
</g>
<!-- Node14 -->
<g id="node14" class="node">
<title>Node14</title>
<g id="a_node14"><a xlink:title=" ">
<polygon fill="none" stroke="#bfbfbf" points="393.5,-0.5 393.5,-19.5 437.5,-19.5 437.5,-0.5 393.5,-0.5"/>
<text text-anchor="middle" x="415.5" y="-7.5" font-family="Helvetica,sans-Serif" font-size="10.00">cmath</text>
</a>
</g>
</g>
<!-- Node12&#45;&gt;Node14 -->
<g id="edge13" class="edge">
<title>Node12&#45;&gt;Node14</title>
<path fill="none" stroke="midnightblue" d="M470.9,-56.32C461.04,-48.26 446.15,-36.08 434.28,-26.37"/>
<polygon fill="midnightblue" stroke="midnightblue" points="436.25,-23.46 426.3,-19.83 431.82,-28.88 436.25,-23.46"/>
</g>
<!-- Node15 -->
<g id="node15" class="node">
<title>Node15</title>
<g id="a_node15"><a xlink:title=" ">
<polygon fill="none" stroke="#bfbfbf" points="455.5,-0.5 455.5,-19.5 507.5,-19.5 507.5,-0.5 455.5,-0.5"/>
<text text-anchor="middle" x="481.5" y="-7.5" font-family="Helvetica,sans-Serif" font-size="10.00">sstream</text>
</a>
</g>
</g>
<!-- Node12&#45;&gt;Node15 -->
<g id="edge15" class="edge">
<title>Node12&#45;&gt;Node15</title>
<path fill="none" stroke="midnightblue" d="M481.5,-56.08C481.5,-49.01 481.5,-38.86 481.5,-29.99"/>
<polygon fill="midnightblue" stroke="midnightblue" points="485,-29.75 481.5,-19.75 478,-29.75 485,-29.75"/>
</g>
<!-- Node16 -->
<g id="node16" class="node">
<title>Node16</title>
<g id="a_node16"><a xlink:title=" ">
<polygon fill="none" stroke="#bfbfbf" points="656,-0.5 656,-19.5 697,-19.5 697,-0.5 656,-0.5"/>
<text text-anchor="middle" x="676.5" y="-7.5" font-family="Helvetica,sans-Serif" font-size="10.00">string</text>
</a>
</g>
</g>
<!-- Node12&#45;&gt;Node16 -->
<g id="edge16" class="edge">
<title>Node12&#45;&gt;Node16</title>
<path fill="none" stroke="midnightblue" d="M512.4,-56.44C548.95,-46.32 609.44,-29.57 645.87,-19.48"/>
<polygon fill="midnightblue" stroke="midnightblue" points="647.21,-22.74 655.92,-16.7 645.34,-16 647.21,-22.74"/>
</g>
<!-- Node17&#45;&gt;Node4 -->
<g id="edge20" class="edge">
<title>Node17&#45;&gt;Node4</title>
<path fill="none" stroke="midnightblue" d="M865.99,-115.9C737.16,-104.66 432.75,-78.1 335.75,-69.64"/>
<polygon fill="midnightblue" stroke="midnightblue" points="336,-66.15 325.74,-68.77 335.39,-73.12 336,-66.15"/>
</g>
<!-- Node17&#45;&gt;Node8 -->
<g id="edge18" class="edge">
<title>Node17&#45;&gt;Node8</title>
<path fill="none" stroke="midnightblue" d="M949.85,-112.44C976.77,-103.36 1019.5,-88.94 1049.59,-78.78"/>
<polygon fill="midnightblue" stroke="midnightblue" points="1050.91,-82.03 1059.27,-75.52 1048.67,-75.4 1050.91,-82.03"/>
</g>
<!-- Node17&#45;&gt;Node10 -->
<g id="edge21" class="edge">
<title>Node17&#45;&gt;Node10</title>
<path fill="none" stroke="midnightblue" d="M966.49,-112.44C1019.11,-101.72 1108.21,-83.57 1156.32,-73.76"/>
<polygon fill="midnightblue" stroke="midnightblue" points="1157.11,-77.17 1166.21,-71.75 1155.72,-70.31 1157.11,-77.17"/>
</g>
<!-- Node17&#45;&gt;Node12 -->
<g id="edge22" class="edge">
<title>Node17&#45;&gt;Node12</title>
<path fill="none" stroke="midnightblue" d="M865.67,-113.83C778.35,-103.18 615.84,-83.38 532.98,-73.27"/>
<polygon fill="midnightblue" stroke="midnightblue" points="533.38,-69.8 523.03,-72.06 532.54,-76.75 533.38,-69.8"/>
</g>
<!-- Node18 -->
<g id="node18" class="node">
<title>Node18</title>
<g id="a_node18"><a xlink:title=" ">
<polygon fill="none" stroke="#bfbfbf" points="911,-56.5 911,-75.5 970,-75.5 970,-56.5 911,-56.5"/>
<text text-anchor="middle" x="940.5" y="-63.5" font-family="Helvetica,sans-Serif" font-size="10.00">functional</text>
</a>
</g>
</g>
<!-- Node17&#45;&gt;Node18 -->
<g id="edge19" class="edge">
<title>Node17&#45;&gt;Node18</title>
<path fill="none" stroke="midnightblue" d="M927.14,-112.08C929.29,-104.85 932.38,-94.41 935.05,-85.4"/>
<polygon fill="midnightblue" stroke="midnightblue" points="938.42,-86.33 937.91,-75.75 931.71,-84.34 938.42,-86.33"/>
</g>
<!-- Node19 -->
<g id="node19" class="node">
<title>Node19</title>
<g id="a_node19"><a xlink:href="lang_8hpp.html" target="_top" xlink:title=" ">
<polygon fill="none" stroke="black" points="812.5,-56.5 812.5,-75.5 892.5,-75.5 892.5,-56.5 812.5,-56.5"/>
<text text-anchor="middle" x="852.5" y="-63.5" font-family="Helvetica,sans-Serif" font-size="10.00">plang/lang.hpp</text>
</a>
</g>
</g>
<!-- Node17&#45;&gt;Node19 -->
<g id="edge23" class="edge">
<title>Node17&#45;&gt;Node19</title>
<path fill="none" stroke="midnightblue" d="M912.93,-112.32C902.08,-104.18 885.62,-91.84 872.62,-82.09"/>
<polygon fill="midnightblue" stroke="midnightblue" points="874.38,-79.03 864.28,-75.83 870.18,-84.63 874.38,-79.03"/>
</g>
<!-- Node20&#45;&gt;Node5 -->
<g id="edge27" class="edge">
<title>Node20&#45;&gt;Node5</title>
<path fill="none" stroke="midnightblue" d="M704.86,-171.12C603.17,-160.56 391.13,-138.54 293.16,-128.37"/>
<polygon fill="midnightblue" stroke="midnightblue" points="293.51,-124.88 283.2,-127.33 292.79,-131.84 293.51,-124.88"/>
</g>
<!-- Node20&#45;&gt;Node11 -->
<g id="edge26" class="edge">
<title>Node20&#45;&gt;Node11</title>
<path fill="none" stroke="midnightblue" d="M719.99,-168.44C667.67,-157.66 578.88,-139.36 531.51,-129.6"/>
<polygon fill="midnightblue" stroke="midnightblue" points="532.01,-126.13 521.5,-127.54 530.59,-132.98 532.01,-126.13"/>
</g>
<!-- Node20&#45;&gt;Node12 -->
<g id="edge28" class="edge">
<title>Node20&#45;&gt;Node12</title>
<path fill="none" stroke="midnightblue" d="M742.61,-168.36C714.19,-155.47 658.64,-130.73 610.5,-112 579.47,-99.93 543.69,-87.56 517.69,-78.86"/>
<polygon fill="midnightblue" stroke="midnightblue" points="518.48,-75.43 507.89,-75.6 516.27,-82.08 518.48,-75.43"/>
</g>
<!-- Node20&#45;&gt;Node16 -->
<g id="edge25" class="edge">
<title>Node20&#45;&gt;Node16</title>
<path fill="none" stroke="midnightblue" d="M756.93,-168.08C743.43,-141.72 703.58,-63.88 685.54,-28.66"/>
<polygon fill="midnightblue" stroke="midnightblue" points="688.56,-26.87 680.89,-19.57 682.33,-30.06 688.56,-26.87"/>
</g>
<!-- Node20&#45;&gt;Node17 -->
<g id="edge29" class="edge">
<title>Node20&#45;&gt;Node17</title>
<path fill="none" stroke="midnightblue" d="M787.33,-168.44C814.75,-159.36 858.28,-144.94 888.93,-134.78"/>
<polygon fill="midnightblue" stroke="midnightblue" points="890.4,-137.98 898.79,-131.52 888.2,-131.34 890.4,-137.98"/>
</g>
<!-- Node22 -->
<g id="node22" class="node">
<title>Node22</title>
<g id="a_node22"><a xlink:href="symbol_8hpp.html" target="_top" xlink:title=" ">
<polygon fill="none" stroke="black" points="852.5,-224.5 852.5,-243.5 996.5,-243.5 996.5,-224.5 852.5,-224.5"/>
<text text-anchor="middle" x="924.5" y="-231.5" font-family="Helvetica,sans-Serif" font-size="10.00">plang/corpus/plot/symbol.hpp</text>
</a>
</g>
</g>
<!-- Node21&#45;&gt;Node22 -->
<g id="edge31" class="edge">
<title>Node21&#45;&gt;Node22</title>
<path fill="none" stroke="midnightblue" d="M789.01,-280.44C816.1,-271.36 859.09,-256.94 889.37,-246.78"/>
<polygon fill="midnightblue" stroke="midnightblue" points="890.74,-250.01 899.11,-243.52 888.51,-243.38 890.74,-250.01"/>
</g>
<!-- Node24 -->
<g id="node24" class="node">
<title>Node24</title>
<g id="a_node24"><a xlink:href="point_8hpp.html" target="_top" xlink:title=" ">
<polygon fill="none" stroke="black" points="383.5,-224.5 383.5,-243.5 517.5,-243.5 517.5,-224.5 383.5,-224.5"/>
<text text-anchor="middle" x="450.5" y="-231.5" font-family="Helvetica,sans-Serif" font-size="10.00">plang/corpus/plot/point.hpp</text>
</a>
</g>
</g>
<!-- Node21&#45;&gt;Node24 -->
<g id="edge41" class="edge">
<title>Node21&#45;&gt;Node24</title>
<path fill="none" stroke="midnightblue" d="M713.9,-280.44C658.5,-270.89 568.86,-255.42 509.79,-245.23"/>
<polygon fill="midnightblue" stroke="midnightblue" points="510.31,-241.77 499.86,-243.52 509.12,-248.67 510.31,-241.77"/>
</g>
<!-- Node25 -->
<g id="node25" class="node">
<title>Node25</title>
<g id="a_node25"><a xlink:href="object_8hpp.html" target="_top" xlink:title=" ">
<polygon fill="none" stroke="black" points="536,-224.5 536,-243.5 675,-243.5 675,-224.5 536,-224.5"/>
<text text-anchor="middle" x="605.5" y="-231.5" font-family="Helvetica,sans-Serif" font-size="10.00">plang/corpus/plot/object.hpp</text>
</a>
</g>
</g>
<!-- Node21&#45;&gt;Node25 -->
<g id="edge42" class="edge">
<title>Node21&#45;&gt;Node25</title>
<path fill="none" stroke="midnightblue" d="M738.46,-280.44C711.88,-271.36 669.69,-256.94 639.98,-246.78"/>
<polygon fill="midnightblue" stroke="midnightblue" points="641.01,-243.44 630.42,-243.52 638.75,-250.06 641.01,-243.44"/>
</g>
<!-- Node26 -->
<g id="node26" class="node">
<title>Node26</title>
<g id="a_node26"><a xlink:href="causal_8hpp.html" target="_top" xlink:title=" ">
<polygon fill="none" stroke="black" points="693,-224.5 693,-243.5 834,-243.5 834,-224.5 693,-224.5"/>
<text text-anchor="middle" x="763.5" y="-231.5" font-family="Helvetica,sans-Serif" font-size="10.00">plang/corpus/plot/causal.hpp</text>
</a>
</g>
</g>
<!-- Node21&#45;&gt;Node26 -->
<g id="edge43" class="edge">
<title>Node21&#45;&gt;Node26</title>
<path fill="none" stroke="midnightblue" d="M763.5,-280.08C763.5,-273.01 763.5,-262.86 763.5,-253.99"/>
<polygon fill="midnightblue" stroke="midnightblue" points="767,-253.75 763.5,-243.75 760,-253.75 767,-253.75"/>
</g>
<!-- Node22&#45;&gt;Node5 -->
<g id="edge34" class="edge">
<title>Node22&#45;&gt;Node5</title>
<path fill="none" stroke="midnightblue" d="M852.09,-224.81C849.19,-224.53 846.32,-224.26 843.5,-224 731.01,-213.76 443.15,-225.18 336.5,-188 306.01,-177.37 276.17,-154.27 258.3,-138.67"/>
<polygon fill="midnightblue" stroke="midnightblue" points="260.32,-135.78 250.54,-131.7 255.64,-140.99 260.32,-135.78"/>
</g>
<!-- Node22&#45;&gt;Node11 -->
<g id="edge33" class="edge">
<title>Node22&#45;&gt;Node11</title>
<path fill="none" stroke="midnightblue" d="M852.43,-224.5C755.78,-212.96 594.8,-193.17 582.5,-188 555.48,-176.65 529.8,-154.08 514.34,-138.76"/>
<polygon fill="midnightblue" stroke="midnightblue" points="516.74,-136.2 507.24,-131.5 511.74,-141.1 516.74,-136.2"/>
</g>
<!-- Node22&#45;&gt;Node12 -->
<g id="edge35" class="edge">
<title>Node22&#45;&gt;Node12</title>
<path fill="none" stroke="midnightblue" d="M855.76,-224.49C790.27,-215.8 696.74,-201.66 662.5,-188 596.4,-161.62 529.61,-108.58 498.91,-82.38"/>
<polygon fill="midnightblue" stroke="midnightblue" points="501.09,-79.64 491.24,-75.74 496.51,-84.93 501.09,-79.64"/>
</g>
<!-- Node22&#45;&gt;Node16 -->
<g id="edge32" class="edge">
<title>Node22&#45;&gt;Node16</title>
<path fill="none" stroke="midnightblue" d="M861.96,-224.5C798.4,-215.26 707.72,-200.19 696.5,-188 656.05,-144.07 665.24,-65.71 672.2,-29.85"/>
<polygon fill="midnightblue" stroke="midnightblue" points="675.68,-30.3 674.32,-19.8 668.83,-28.86 675.68,-30.3"/>
</g>
<!-- Node22&#45;&gt;Node17 -->
<g id="edge36" class="edge">
<title>Node22&#45;&gt;Node17</title>
<path fill="none" stroke="midnightblue" d="M924.5,-224.37C924.5,-206.62 924.5,-165.67 924.5,-141.6"/>
<polygon fill="midnightblue" stroke="midnightblue" points="928,-141.59 924.5,-131.59 921,-141.59 928,-141.59"/>
</g>
<!-- Node22&#45;&gt;Node20 -->
<g id="edge37" class="edge">
<title>Node22&#45;&gt;Node20</title>
<path fill="none" stroke="midnightblue" d="M898.67,-224.44C871.25,-215.36 827.72,-200.94 797.07,-190.78"/>
<polygon fill="midnightblue" stroke="midnightblue" points="797.8,-187.34 787.21,-187.52 795.6,-193.98 797.8,-187.34"/>
</g>
<!-- Node22&#45;&gt;Node23 -->
<g id="edge38" class="edge">
<title>Node22&#45;&gt;Node23</title>
<path fill="none" stroke="midnightblue" d="M852.08,-224.91C849.18,-224.6 846.31,-224.29 843.5,-224 694.05,-208.37 517.04,-191.47 433.2,-183.57"/>
<polygon fill="midnightblue" stroke="midnightblue" points="433.49,-180.08 423.2,-182.62 432.83,-187.05 433.49,-180.08"/>
</g>
<!-- Node23&#45;&gt;Node11 -->
<g id="edge39" class="edge">
<title>Node23&#45;&gt;Node11</title>
<path fill="none" stroke="midnightblue" d="M402.72,-168.44C421.4,-159.68 450.66,-145.94 472.12,-135.86"/>
<polygon fill="midnightblue" stroke="midnightblue" points="473.8,-138.93 481.36,-131.52 470.82,-132.6 473.8,-138.93"/>
</g>
<!-- Node23&#45;&gt;Node12 -->
<g id="edge40" class="edge">
<title>Node23&#45;&gt;Node12</title>
<path fill="none" stroke="midnightblue" d="M392.11,-168.37C408.26,-150.05 446.18,-107.05 467.07,-83.36"/>
<polygon fill="midnightblue" stroke="midnightblue" points="469.94,-85.41 473.92,-75.59 464.68,-80.78 469.94,-85.41"/>
</g>
<!-- Node27&#45;&gt;Node5 -->
<g id="edge46" class="edge">
<title>Node27&#45;&gt;Node5</title>
<path fill="none" stroke="midnightblue" d="M182.75,-168.32C193.3,-160.18 209.3,-147.84 221.94,-138.09"/>
<polygon fill="midnightblue" stroke="midnightblue" points="224.27,-140.71 230.05,-131.83 219.99,-135.17 224.27,-140.71"/>
</g>
<!-- Node27&#45;&gt;Node12 -->
<g id="edge47" class="edge">
<title>Node27&#45;&gt;Node12</title>
<path fill="none" stroke="midnightblue" d="M171.3,-168.31C171.48,-154.2 174.06,-126.42 190.5,-112 208.18,-96.5 350.76,-80.03 429.57,-72"/>
<polygon fill="midnightblue" stroke="midnightblue" points="430.19,-75.45 439.79,-70.97 429.49,-68.49 430.19,-75.45"/>
</g>
</g>
</svg>
