<?xml version="1.0" encoding="UTF-8" standalone="no"?>
<!DOCTYPE svg PUBLIC "-//W3C//DTD SVG 1.1//EN"
 "http://www.w3.org/Graphics/SVG/1.1/DTD/svg11.dtd">
<!-- Generated by graphviz version 2.44.1 (20220725.2034)
 -->
<!-- Title: include/plangcli/cli.hpp Pages: 1 -->
<svg width="1340pt" height="532pt"
 viewBox="0.00 0.00 1340.04 532.00" xmlns="http://www.w3.org/2000/svg" xmlns:xlink="http://www.w3.org/1999/xlink">
<g id="graph0" class="graph" transform="scale(1 1) rotate(0) translate(4 528)">
<title>include/plangcli/cli.hpp</title>
<!-- Node1 -->
<g id="node1" class="node">
<title>Node1</title>
<g id="a_node1"><a xlink:title=" ">
<polygon fill="#bfbfbf" stroke="black" points="101,-504.5 101,-523.5 216,-523.5 216,-504.5 101,-504.5"/>
<text text-anchor="middle" x="158.5" y="-511.5" font-family="Helvetica,sans-Serif" font-size="10.00">include/plangcli/cli.hpp</text>
</a>
</g>
</g>
<!-- Node2 -->
<g id="node2" class="node">
<title>Node2</title>
<g id="a_node2"><a xlink:title=" ">
<polygon fill="none" stroke="#bfbfbf" points="0,-448.5 0,-467.5 35,-467.5 35,-448.5 0,-448.5"/>
<text text-anchor="middle" x="17.5" y="-455.5" font-family="Helvetica,sans-Serif" font-size="10.00">map</text>
</a>
</g>
</g>
<!-- Node1&#45;&gt;Node2 -->
<g id="edge1" class="edge">
<title>Node1&#45;&gt;Node2</title>
<path fill="none" stroke="midnightblue" d="M136.16,-504.44C111.37,-494.95 71.37,-479.63 44.76,-469.44"/>
<polygon fill="midnightblue" stroke="midnightblue" points="45.86,-466.11 35.27,-465.81 43.36,-472.65 45.86,-466.11"/>
</g>
<!-- Node3 -->
<g id="node3" class="node">
<title>Node3</title>
<g id="a_node3"><a xlink:title=" ">
<polygon fill="none" stroke="#bfbfbf" points="232.5,-0.5 232.5,-19.5 282.5,-19.5 282.5,-0.5 232.5,-0.5"/>
<text text-anchor="middle" x="257.5" y="-7.5" font-family="Helvetica,sans-Serif" font-size="10.00">optional</text>
</a>
</g>
</g>
<!-- Node1&#45;&gt;Node3 -->
<g id="edge2" class="edge">
<title>Node1&#45;&gt;Node3</title>
<path fill="none" stroke="midnightblue" d="M142.81,-504.4C115.83,-488.31 63.5,-450.94 63.5,-403 63.5,-403 63.5,-403 63.5,-121 63.5,-48.98 165.92,-23.55 221.93,-15.02"/>
<polygon fill="midnightblue" stroke="midnightblue" points="222.73,-18.44 232.14,-13.58 221.75,-11.51 222.73,-18.44"/>
</g>
<!-- Node4 -->
<g id="node4" class="node">
<title>Node4</title>
<g id="a_node4"><a xlink:title=" ">
<polygon fill="none" stroke="#bfbfbf" points="1258.5,-56.5 1258.5,-75.5 1298.5,-75.5 1298.5,-56.5 1258.5,-56.5"/>
<text text-anchor="middle" x="1278.5" y="-63.5" font-family="Helvetica,sans-Serif" font-size="10.00">utility</text>
</a>
</g>
</g>
<!-- Node1&#45;&gt;Node4 -->
<g id="edge3" class="edge">
<title>Node1&#45;&gt;Node4</title>
<path fill="none" stroke="midnightblue" d="M216.03,-512.27C395.89,-509.69 946.03,-499.36 1121.5,-468 1215.59,-451.18 1326.5,-498.58 1326.5,-403 1326.5,-403 1326.5,-403 1326.5,-289 1326.5,-211.84 1298.45,-122.93 1285.24,-85.31"/>
<polygon fill="midnightblue" stroke="midnightblue" points="1288.47,-83.96 1281.8,-75.74 1281.88,-86.33 1288.47,-83.96"/>
</g>
<!-- Node5 -->
<g id="node5" class="node">
<title>Node5</title>
<g id="a_node5"><a xlink:title=" ">
<polygon fill="none" stroke="#bfbfbf" points="282,-112.5 282,-131.5 365,-131.5 365,-112.5 282,-112.5"/>
<text text-anchor="middle" x="323.5" y="-119.5" font-family="Helvetica,sans-Serif" font-size="10.00">unordered_map</text>
</a>
</g>
</g>
<!-- Node1&#45;&gt;Node5 -->
<g id="edge4" class="edge">
<title>Node1&#45;&gt;Node5</title>
<path fill="none" stroke="midnightblue" d="M150.33,-504.38C134.57,-486.81 101.5,-444.94 101.5,-403 101.5,-403 101.5,-403 101.5,-289 101.5,-204.15 198.14,-242.1 263.5,-188 281.33,-173.24 298.96,-153.33 310.45,-139.45"/>
<polygon fill="midnightblue" stroke="midnightblue" points="313.17,-141.66 316.76,-131.69 307.73,-137.24 313.17,-141.66"/>
</g>
<!-- Node6 -->
<g id="node6" class="node">
<title>Node6</title>
<g id="a_node6"><a xlink:href="corpus_8hpp.html" target="_top" xlink:title=" ">
<polygon fill="none" stroke="black" points="1022,-448.5 1022,-467.5 1113,-467.5 1113,-448.5 1022,-448.5"/>
<text text-anchor="middle" x="1067.5" y="-455.5" font-family="Helvetica,sans-Serif" font-size="10.00">plang/corpus.hpp</text>
</a>
</g>
</g>
<!-- Node1&#45;&gt;Node6 -->
<g id="edge5" class="edge">
<title>Node1&#45;&gt;Node6</title>
<path fill="none" stroke="midnightblue" d="M216.05,-509.58C380.26,-499.83 849.61,-471.94 1011.67,-462.32"/>
<polygon fill="midnightblue" stroke="midnightblue" points="1012.12,-465.8 1021.89,-461.71 1011.7,-458.81 1012.12,-465.8"/>
</g>
<!-- Node27 -->
<g id="node27" class="node">
<title>Node27</title>
<g id="a_node27"><a xlink:href="intl_8hpp.html" target="_top" xlink:title=" ">
<polygon fill="none" stroke="black" points="170.5,-168.5 170.5,-187.5 254.5,-187.5 254.5,-168.5 170.5,-168.5"/>
<text text-anchor="middle" x="212.5" y="-175.5" font-family="Helvetica,sans-Serif" font-size="10.00">plangcli/intl.hpp</text>
</a>
</g>
</g>
<!-- Node1&#45;&gt;Node27 -->
<g id="edge64" class="edge">
<title>Node1&#45;&gt;Node27</title>
<path fill="none" stroke="midnightblue" d="M166.67,-504.38C182.43,-486.81 215.5,-444.94 215.5,-403 215.5,-403 215.5,-403 215.5,-289 215.5,-256.94 214.21,-219.63 213.32,-197.74"/>
<polygon fill="midnightblue" stroke="midnightblue" points="216.81,-197.4 212.89,-187.56 209.82,-197.69 216.81,-197.4"/>
</g>
<!-- Node7 -->
<g id="node7" class="node">
<title>Node7</title>
<g id="a_node7"><a xlink:title=" ">
<polygon fill="none" stroke="#bfbfbf" points="1190.5,-392.5 1190.5,-411.5 1222.5,-411.5 1222.5,-392.5 1190.5,-392.5"/>
<text text-anchor="middle" x="1206.5" y="-399.5" font-family="Helvetica,sans-Serif" font-size="10.00">any</text>
</a>
</g>
</g>
<!-- Node6&#45;&gt;Node7 -->
<g id="edge6" class="edge">
<title>Node6&#45;&gt;Node7</title>
<path fill="none" stroke="midnightblue" d="M1089.52,-448.44C1114.26,-438.83 1154.36,-423.26 1180.58,-413.07"/>
<polygon fill="midnightblue" stroke="midnightblue" points="1182.17,-416.21 1190.22,-409.32 1179.64,-409.68 1182.17,-416.21"/>
</g>
<!-- Node8 -->
<g id="node8" class="node">
<title>Node8</title>
<g id="a_node8"><a xlink:title=" ">
<polygon fill="none" stroke="#bfbfbf" points="1107.5,-0.5 1107.5,-19.5 1153.5,-19.5 1153.5,-0.5 1107.5,-0.5"/>
<text text-anchor="middle" x="1130.5" y="-7.5" font-family="Helvetica,sans-Serif" font-size="10.00">chrono</text>
</a>
</g>
</g>
<!-- Node6&#45;&gt;Node8 -->
<g id="edge7" class="edge">
<title>Node6&#45;&gt;Node8</title>
<path fill="none" stroke="midnightblue" d="M1113.32,-455.94C1153.69,-452.83 1212.16,-442.78 1252.5,-412 1278.75,-391.97 1288.5,-380.02 1288.5,-347 1288.5,-347 1288.5,-347 1288.5,-289 1288.5,-185.1 1371.28,-138.02 1307.5,-56 1290.03,-33.53 1210.02,-20.45 1163.78,-14.63"/>
<polygon fill="midnightblue" stroke="midnightblue" points="1163.98,-11.13 1153.63,-13.41 1163.14,-18.08 1163.98,-11.13"/>
</g>
<!-- Node9 -->
<g id="node9" class="node">
<title>Node9</title>
<g id="a_node9"><a xlink:title=" ">
<polygon fill="none" stroke="#bfbfbf" points="1178.5,-56.5 1178.5,-75.5 1240.5,-75.5 1240.5,-56.5 1178.5,-56.5"/>
<text text-anchor="middle" x="1209.5" y="-63.5" font-family="Helvetica,sans-Serif" font-size="10.00">filesystem</text>
</a>
</g>
</g>
<!-- Node6&#45;&gt;Node9 -->
<g id="edge8" class="edge">
<title>Node6&#45;&gt;Node9</title>
<path fill="none" stroke="midnightblue" d="M1113.06,-456.15C1149.73,-453.03 1200.14,-442.85 1231.5,-412 1252.96,-390.89 1250.5,-377.1 1250.5,-347 1250.5,-347 1250.5,-347 1250.5,-177 1250.5,-142.52 1232.59,-105.56 1220.44,-84.47"/>
<polygon fill="midnightblue" stroke="midnightblue" points="1223.34,-82.49 1215.2,-75.71 1217.34,-86.09 1223.34,-82.49"/>
</g>
<!-- Node10 -->
<g id="node10" class="node">
<title>Node10</title>
<g id="a_node10"><a xlink:title=" ">
<polygon fill="none" stroke="#bfbfbf" points="670,-392.5 670,-411.5 719,-411.5 719,-392.5 670,-392.5"/>
<text text-anchor="middle" x="694.5" y="-399.5" font-family="Helvetica,sans-Serif" font-size="10.00">istream</text>
</a>
</g>
</g>
<!-- Node6&#45;&gt;Node10 -->
<g id="edge9" class="edge">
<title>Node6&#45;&gt;Node10</title>
<path fill="none" stroke="midnightblue" d="M1021.96,-452.81C958.52,-446.56 839.82,-433.4 729.28,-411.92"/>
<polygon fill="midnightblue" stroke="midnightblue" points="729.79,-408.45 719.3,-409.95 728.43,-415.32 729.79,-408.45"/>
</g>
<!-- Node11 -->
<g id="node11" class="node">
<title>Node11</title>
<g id="a_node11"><a xlink:title=" ">
<polygon fill="none" stroke="#bfbfbf" points="1016.5,-56.5 1016.5,-75.5 1062.5,-75.5 1062.5,-56.5 1016.5,-56.5"/>
<text text-anchor="middle" x="1039.5" y="-63.5" font-family="Helvetica,sans-Serif" font-size="10.00">variant</text>
</a>
</g>
</g>
<!-- Node6&#45;&gt;Node11 -->
<g id="edge10" class="edge">
<title>Node6&#45;&gt;Node11</title>
<path fill="none" stroke="midnightblue" d="M1083.19,-448.4C1110.17,-432.31 1162.5,-394.94 1162.5,-347 1162.5,-347 1162.5,-347 1162.5,-177 1162.5,-128.35 1108.37,-95.84 1071.93,-79.46"/>
<polygon fill="midnightblue" stroke="midnightblue" points="1073.2,-76.2 1062.64,-75.46 1070.44,-82.63 1073.2,-76.2"/>
</g>
<!-- Node12 -->
<g id="node12" class="node">
<title>Node12</title>
<g id="a_node12"><a xlink:title=" ">
<polygon fill="none" stroke="#bfbfbf" points="674.5,-112.5 674.5,-131.5 718.5,-131.5 718.5,-112.5 674.5,-112.5"/>
<text text-anchor="middle" x="696.5" y="-119.5" font-family="Helvetica,sans-Serif" font-size="10.00">vector</text>
</a>
</g>
</g>
<!-- Node6&#45;&gt;Node12 -->
<g id="edge11" class="edge">
<title>Node6&#45;&gt;Node12</title>
<path fill="none" stroke="midnightblue" d="M1064.94,-448.25C1059.75,-429.74 1048.5,-385.18 1048.5,-347 1048.5,-347 1048.5,-347 1048.5,-289 1048.5,-247.88 946.6,-183.46 908.5,-168 847.59,-143.29 771.09,-131.35 728.64,-126.26"/>
<polygon fill="midnightblue" stroke="midnightblue" points="728.94,-122.77 718.61,-125.11 728.14,-129.72 728.94,-122.77"/>
</g>
<!-- Node13 -->
<g id="node13" class="node">
<title>Node13</title>
<g id="a_node13"><a xlink:href="base_8hpp.html" target="_top" xlink:title=" ">
<polygon fill="none" stroke="black" points="766,-56.5 766,-75.5 849,-75.5 849,-56.5 766,-56.5"/>
<text text-anchor="middle" x="807.5" y="-63.5" font-family="Helvetica,sans-Serif" font-size="10.00">plang/base.hpp</text>
</a>
</g>
</g>
<!-- Node6&#45;&gt;Node13 -->
<g id="edge12" class="edge">
<title>Node6&#45;&gt;Node13</title>
<path fill="none" stroke="midnightblue" d="M1070.06,-448.25C1075.25,-429.74 1086.5,-385.18 1086.5,-347 1086.5,-347 1086.5,-347 1086.5,-289 1086.5,-168.89 926.21,-103.32 848.62,-78.61"/>
<polygon fill="midnightblue" stroke="midnightblue" points="849.28,-75.15 838.69,-75.53 847.21,-81.84 849.28,-75.15"/>
</g>
<!-- Node17 -->
<g id="node17" class="node">
<title>Node17</title>
<g id="a_node17"><a xlink:href="detail_8hpp.html" target="_top" xlink:title=" ">
<polygon fill="none" stroke="black" points="995,-112.5 995,-131.5 1112,-131.5 1112,-112.5 995,-112.5"/>
<text text-anchor="middle" x="1053.5" y="-119.5" font-family="Helvetica,sans-Serif" font-size="10.00">plang/corpus/detail.hpp</text>
</a>
</g>
</g>
<!-- Node6&#45;&gt;Node17 -->
<g id="edge18" class="edge">
<title>Node6&#45;&gt;Node17</title>
<path fill="none" stroke="midnightblue" d="M1075.67,-448.38C1091.43,-430.81 1124.5,-388.94 1124.5,-347 1124.5,-347 1124.5,-347 1124.5,-233 1124.5,-194.1 1092.77,-158.05 1071.73,-138.43"/>
<polygon fill="midnightblue" stroke="midnightblue" points="1074.06,-135.81 1064.28,-131.74 1069.39,-141.02 1074.06,-135.81"/>
</g>
<!-- Node20 -->
<g id="node20" class="node">
<title>Node20</title>
<g id="a_node20"><a xlink:href="path_8hpp.html" target="_top" xlink:title=" ">
<polygon fill="none" stroke="black" points="463,-168.5 463,-187.5 576,-187.5 576,-168.5 463,-168.5"/>
<text text-anchor="middle" x="519.5" y="-175.5" font-family="Helvetica,sans-Serif" font-size="10.00">plang/corpus/path.hpp</text>
</a>
</g>
</g>
<!-- Node6&#45;&gt;Node20 -->
<g id="edge25" class="edge">
<title>Node6&#45;&gt;Node20</title>
<path fill="none" stroke="midnightblue" d="M1021.53,-457.79C881.52,-459.09 465.01,-454.49 384.5,-356 335.91,-296.56 444,-222.8 494.88,-192.73"/>
<polygon fill="midnightblue" stroke="midnightblue" points="496.77,-195.68 503.67,-187.63 493.26,-189.62 496.77,-195.68"/>
</g>
<!-- Node21 -->
<g id="node21" class="node">
<title>Node21</title>
<g id="a_node21"><a xlink:href="corpus_2plot_8hpp.html" target="_top" xlink:title=" ">
<polygon fill="none" stroke="black" points="737.5,-392.5 737.5,-411.5 847.5,-411.5 847.5,-392.5 737.5,-392.5"/>
<text text-anchor="middle" x="792.5" y="-399.5" font-family="Helvetica,sans-Serif" font-size="10.00">plang/corpus/plot.hpp</text>
</a>
</g>
</g>
<!-- Node6&#45;&gt;Node21 -->
<g id="edge31" class="edge">
<title>Node6&#45;&gt;Node21</title>
<path fill="none" stroke="midnightblue" d="M1023.93,-448.44C975.65,-438.96 897.79,-423.67 845.89,-413.48"/>
<polygon fill="midnightblue" stroke="midnightblue" points="846.36,-410.01 835.87,-411.52 845.01,-416.88 846.36,-410.01"/>
</g>
<!-- Node23 -->
<g id="node23" class="node">
<title>Node23</title>
<g id="a_node23"><a xlink:href="plot_8hpp.html" target="_top" xlink:title=" ">
<polygon fill="none" stroke="black" points="823,-168.5 823,-187.5 900,-187.5 900,-168.5 823,-168.5"/>
<text text-anchor="middle" x="861.5" y="-175.5" font-family="Helvetica,sans-Serif" font-size="10.00">plang/plot.hpp</text>
</a>
</g>
</g>
<!-- Node6&#45;&gt;Node23 -->
<g id="edge63" class="edge">
<title>Node6&#45;&gt;Node23</title>
<path fill="none" stroke="midnightblue" d="M1059.33,-448.38C1043.57,-430.81 1010.5,-388.94 1010.5,-347 1010.5,-347 1010.5,-347 1010.5,-289 1010.5,-235.94 948.59,-205.58 904.58,-190.7"/>
<polygon fill="midnightblue" stroke="midnightblue" points="905.53,-187.33 894.94,-187.59 903.38,-193.99 905.53,-187.33"/>
</g>
<!-- Node13&#45;&gt;Node3 -->
<g id="edge15" class="edge">
<title>Node13&#45;&gt;Node3</title>
<path fill="none" stroke="midnightblue" d="M765.71,-60.9C661.21,-50.64 389.97,-24.01 292.79,-14.46"/>
<polygon fill="midnightblue" stroke="midnightblue" points="292.91,-10.96 282.61,-13.47 292.22,-17.93 292.91,-10.96"/>
</g>
<!-- Node13&#45;&gt;Node8 -->
<g id="edge13" class="edge">
<title>Node13&#45;&gt;Node8</title>
<path fill="none" stroke="midnightblue" d="M849.07,-58.05C914,-47.19 1038.2,-26.43 1097.46,-16.52"/>
<polygon fill="midnightblue" stroke="midnightblue" points="1098.12,-19.96 1107.4,-14.86 1096.96,-13.06 1098.12,-19.96"/>
</g>
<!-- Node14 -->
<g id="node14" class="node">
<title>Node14</title>
<g id="a_node14"><a xlink:title=" ">
<polygon fill="none" stroke="#bfbfbf" points="818.5,-0.5 818.5,-19.5 862.5,-19.5 862.5,-0.5 818.5,-0.5"/>
<text text-anchor="middle" x="840.5" y="-7.5" font-family="Helvetica,sans-Serif" font-size="10.00">cmath</text>
</a>
</g>
</g>
<!-- Node13&#45;&gt;Node14 -->
<g id="edge14" class="edge">
<title>Node13&#45;&gt;Node14</title>
<path fill="none" stroke="midnightblue" d="M812.95,-56.08C817.51,-48.61 824.17,-37.72 829.79,-28.52"/>
<polygon fill="midnightblue" stroke="midnightblue" points="832.92,-30.11 835.15,-19.75 826.95,-26.46 832.92,-30.11"/>
</g>
<!-- Node15 -->
<g id="node15" class="node">
<title>Node15</title>
<g id="a_node15"><a xlink:title=" ">
<polygon fill="none" stroke="#bfbfbf" points="748.5,-0.5 748.5,-19.5 800.5,-19.5 800.5,-0.5 748.5,-0.5"/>
<text text-anchor="middle" x="774.5" y="-7.5" font-family="Helvetica,sans-Serif" font-size="10.00">sstream</text>
</a>
</g>
</g>
<!-- Node13&#45;&gt;Node15 -->
<g id="edge16" class="edge">
<title>Node13&#45;&gt;Node15</title>
<path fill="none" stroke="midnightblue" d="M802.05,-56.08C797.49,-48.61 790.83,-37.72 785.21,-28.52"/>
<polygon fill="midnightblue" stroke="midnightblue" points="788.05,-26.46 779.85,-19.75 782.08,-30.11 788.05,-26.46"/>
</g>
<!-- Node16 -->
<g id="node16" class="node">
<title>Node16</title>
<g id="a_node16"><a xlink:title=" ">
<polygon fill="none" stroke="#bfbfbf" points="499,-0.5 499,-19.5 540,-19.5 540,-0.5 499,-0.5"/>
<text text-anchor="middle" x="519.5" y="-7.5" font-family="Helvetica,sans-Serif" font-size="10.00">string</text>
</a>
</g>
</g>
<!-- Node13&#45;&gt;Node16 -->
<g id="edge17" class="edge">
<title>Node13&#45;&gt;Node16</title>
<path fill="none" stroke="midnightblue" d="M765.93,-57.21C707.35,-46.22 601.86,-26.44 549.99,-16.72"/>
<polygon fill="midnightblue" stroke="midnightblue" points="550.54,-13.26 540.07,-14.86 549.25,-20.14 550.54,-13.26"/>
</g>
<!-- Node17&#45;&gt;Node4 -->
<g id="edge21" class="edge">
<title>Node17&#45;&gt;Node4</title>
<path fill="none" stroke="midnightblue" d="M1094.64,-112.5C1132.36,-104.49 1189.93,-91.75 1248.49,-76.12"/>
<polygon fill="midnightblue" stroke="midnightblue" points="1249.53,-79.47 1258.28,-73.49 1247.71,-72.71 1249.53,-79.47"/>
</g>
<!-- Node17&#45;&gt;Node9 -->
<g id="edge19" class="edge">
<title>Node17&#45;&gt;Node9</title>
<path fill="none" stroke="midnightblue" d="M1078.22,-112.44C1104.35,-103.4 1145.76,-89.06 1175.08,-78.92"/>
<polygon fill="midnightblue" stroke="midnightblue" points="1176.59,-82.1 1184.9,-75.52 1174.3,-75.48 1176.59,-82.1"/>
</g>
<!-- Node17&#45;&gt;Node11 -->
<g id="edge22" class="edge">
<title>Node17&#45;&gt;Node11</title>
<path fill="none" stroke="midnightblue" d="M1051.19,-112.08C1049.33,-104.93 1046.66,-94.64 1044.35,-85.69"/>
<polygon fill="midnightblue" stroke="midnightblue" points="1047.67,-84.55 1041.77,-75.75 1040.89,-86.31 1047.67,-84.55"/>
</g>
<!-- Node17&#45;&gt;Node13 -->
<g id="edge23" class="edge">
<title>Node17&#45;&gt;Node13</title>
<path fill="none" stroke="midnightblue" d="M1014.52,-112.44C971.61,-103.02 902.55,-87.87 856.13,-77.68"/>
<polygon fill="midnightblue" stroke="midnightblue" points="856.81,-74.24 846.3,-75.52 855.31,-81.08 856.81,-74.24"/>
</g>
<!-- Node18 -->
<g id="node18" class="node">
<title>Node18</title>
<g id="a_node18"><a xlink:title=" ">
<polygon fill="none" stroke="#bfbfbf" points="939,-56.5 939,-75.5 998,-75.5 998,-56.5 939,-56.5"/>
<text text-anchor="middle" x="968.5" y="-63.5" font-family="Helvetica,sans-Serif" font-size="10.00">functional</text>
</a>
</g>
</g>
<!-- Node17&#45;&gt;Node18 -->
<g id="edge20" class="edge">
<title>Node17&#45;&gt;Node18</title>
<path fill="none" stroke="midnightblue" d="M1039.84,-112.32C1026.58,-103.9 1006.23,-90.97 990.65,-81.07"/>
<polygon fill="midnightblue" stroke="midnightblue" points="992.44,-78.06 982.12,-75.65 988.69,-83.97 992.44,-78.06"/>
</g>
<!-- Node19 -->
<g id="node19" class="node">
<title>Node19</title>
<g id="a_node19"><a xlink:href="lang_8hpp.html" target="_top" xlink:title=" ">
<polygon fill="none" stroke="black" points="1080.5,-56.5 1080.5,-75.5 1160.5,-75.5 1160.5,-56.5 1080.5,-56.5"/>
<text text-anchor="middle" x="1120.5" y="-63.5" font-family="Helvetica,sans-Serif" font-size="10.00">plang/lang.hpp</text>
</a>
</g>
</g>
<!-- Node17&#45;&gt;Node19 -->
<g id="edge24" class="edge">
<title>Node17&#45;&gt;Node19</title>
<path fill="none" stroke="midnightblue" d="M1064.26,-112.32C1074.27,-104.26 1089.39,-92.08 1101.43,-82.37"/>
<polygon fill="midnightblue" stroke="midnightblue" points="1103.95,-84.83 1109.54,-75.83 1099.56,-79.38 1103.95,-84.83"/>
</g>
<!-- Node20&#45;&gt;Node5 -->
<g id="edge28" class="edge">
<title>Node20&#45;&gt;Node5</title>
<path fill="none" stroke="midnightblue" d="M488.44,-168.44C454.9,-159.2 401.3,-144.44 364.36,-134.26"/>
<polygon fill="midnightblue" stroke="midnightblue" points="364.98,-130.8 354.41,-131.52 363.12,-137.55 364.98,-130.8"/>
</g>
<!-- Node20&#45;&gt;Node12 -->
<g id="edge27" class="edge">
<title>Node20&#45;&gt;Node12</title>
<path fill="none" stroke="midnightblue" d="M547.55,-168.44C579.44,-158.71 631.39,-142.86 664.74,-132.69"/>
<polygon fill="midnightblue" stroke="midnightblue" points="665.91,-135.99 674.46,-129.73 663.87,-129.3 665.91,-135.99"/>
</g>
<!-- Node20&#45;&gt;Node13 -->
<g id="edge29" class="edge">
<title>Node20&#45;&gt;Node13</title>
<path fill="none" stroke="midnightblue" d="M531.31,-168.37C550.68,-154.58 590.83,-127.57 628.5,-112 669.91,-94.88 719.5,-83.03 755.97,-75.81"/>
<polygon fill="midnightblue" stroke="midnightblue" points="756.74,-79.23 765.89,-73.9 755.41,-72.36 756.74,-79.23"/>
</g>
<!-- Node20&#45;&gt;Node16 -->
<g id="edge26" class="edge">
<title>Node20&#45;&gt;Node16</title>
<path fill="none" stroke="midnightblue" d="M519.5,-168.08C519.5,-141.95 519.5,-65.21 519.5,-29.58"/>
<polygon fill="midnightblue" stroke="midnightblue" points="523,-29.57 519.5,-19.57 516,-29.57 523,-29.57"/>
</g>
<!-- Node20&#45;&gt;Node17 -->
<g id="edge30" class="edge">
<title>Node20&#45;&gt;Node17</title>
<path fill="none" stroke="midnightblue" d="M576.14,-171.27C674.82,-161.29 877.91,-140.76 984.59,-129.97"/>
<polygon fill="midnightblue" stroke="midnightblue" points="985.01,-133.44 994.6,-128.96 984.3,-126.48 985.01,-133.44"/>
</g>
<!-- Node22 -->
<g id="node22" class="node">
<title>Node22</title>
<g id="a_node22"><a xlink:href="symbol_8hpp.html" target="_top" xlink:title=" ">
<polygon fill="none" stroke="black" points="686.5,-224.5 686.5,-243.5 830.5,-243.5 830.5,-224.5 686.5,-224.5"/>
<text text-anchor="middle" x="758.5" y="-231.5" font-family="Helvetica,sans-Serif" font-size="10.00">plang/corpus/plot/symbol.hpp</text>
</a>
</g>
</g>
<!-- Node21&#45;&gt;Node22 -->
<g id="edge32" class="edge">
<title>Node21&#45;&gt;Node22</title>
<path fill="none" stroke="midnightblue" d="M790.67,-392.08C785.32,-365.95 769.6,-289.21 762.3,-253.58"/>
<polygon fill="midnightblue" stroke="midnightblue" points="765.69,-252.66 760.25,-243.57 758.83,-254.07 765.69,-252.66"/>
</g>
<!-- Node24 -->
<g id="node24" class="node">
<title>Node24</title>
<g id="a_node24"><a xlink:href="point_8hpp.html" target="_top" xlink:title=" ">
<polygon fill="none" stroke="black" points="591.5,-336.5 591.5,-355.5 725.5,-355.5 725.5,-336.5 591.5,-336.5"/>
<text text-anchor="middle" x="658.5" y="-343.5" font-family="Helvetica,sans-Serif" font-size="10.00">plang/corpus/plot/point.hpp</text>
</a>
</g>
</g>
<!-- Node21&#45;&gt;Node24 -->
<g id="edge43" class="edge">
<title>Node21&#45;&gt;Node24</title>
<path fill="none" stroke="midnightblue" d="M771.27,-392.44C749.12,-383.52 714.18,-369.44 689.06,-359.32"/>
<polygon fill="midnightblue" stroke="midnightblue" points="690.22,-356.01 679.63,-355.52 687.6,-362.5 690.22,-356.01"/>
</g>
<!-- Node25 -->
<g id="node25" class="node">
<title>Node25</title>
<g id="a_node25"><a xlink:href="object_8hpp.html" target="_top" xlink:title=" ">
<polygon fill="none" stroke="black" points="415,-280.5 415,-299.5 554,-299.5 554,-280.5 415,-280.5"/>
<text text-anchor="middle" x="484.5" y="-287.5" font-family="Helvetica,sans-Serif" font-size="10.00">plang/corpus/plot/object.hpp</text>
</a>
</g>
</g>
<!-- Node21&#45;&gt;Node25 -->
<g id="edge61" class="edge">
<title>Node21&#45;&gt;Node25</title>
<path fill="none" stroke="midnightblue" d="M742.03,-392.42C689.42,-383.08 610.77,-367.9 582.5,-356 552.28,-343.28 521.42,-320.95 502.61,-306.06"/>
<polygon fill="midnightblue" stroke="midnightblue" points="504.6,-303.18 494.62,-299.62 500.21,-308.62 504.6,-303.18"/>
</g>
<!-- Node26 -->
<g id="node26" class="node">
<title>Node26</title>
<g id="a_node26"><a xlink:href="causal_8hpp.html" target="_top" xlink:title=" ">
<polygon fill="none" stroke="black" points="394,-336.5 394,-355.5 535,-355.5 535,-336.5 394,-336.5"/>
<text text-anchor="middle" x="464.5" y="-343.5" font-family="Helvetica,sans-Serif" font-size="10.00">plang/corpus/plot/causal.hpp</text>
</a>
</g>
</g>
<!-- Node21&#45;&gt;Node26 -->
<g id="edge62" class="edge">
<title>Node21&#45;&gt;Node26</title>
<path fill="none" stroke="midnightblue" d="M740.53,-392.44C682.35,-382.87 588.14,-367.36 526.25,-357.17"/>
<polygon fill="midnightblue" stroke="midnightblue" points="526.67,-353.69 516.23,-355.52 525.53,-360.59 526.67,-353.69"/>
</g>
<!-- Node22&#45;&gt;Node5 -->
<g id="edge35" class="edge">
<title>Node22&#45;&gt;Node5</title>
<path fill="none" stroke="midnightblue" d="M686.5,-228.83C623.77,-223.68 530.97,-212.4 453.5,-188 413.59,-175.43 370.84,-151.88 345.67,-136.84"/>
<polygon fill="midnightblue" stroke="midnightblue" points="347.3,-133.73 336.93,-131.53 343.67,-139.71 347.3,-133.73"/>
</g>
<!-- Node22&#45;&gt;Node12 -->
<g id="edge34" class="edge">
<title>Node22&#45;&gt;Node12</title>
<path fill="none" stroke="midnightblue" d="M753.63,-224.37C743.45,-206.3 719.71,-164.18 706.26,-140.31"/>
<polygon fill="midnightblue" stroke="midnightblue" points="709.3,-138.58 701.34,-131.59 703.2,-142.02 709.3,-138.58"/>
</g>
<!-- Node22&#45;&gt;Node13 -->
<g id="edge36" class="edge">
<title>Node22&#45;&gt;Node13</title>
<path fill="none" stroke="midnightblue" d="M761.13,-224.08C768.85,-197.95 791.5,-121.21 802.02,-85.58"/>
<polygon fill="midnightblue" stroke="midnightblue" points="805.5,-86.15 804.97,-75.57 798.78,-84.17 805.5,-86.15"/>
</g>
<!-- Node22&#45;&gt;Node16 -->
<g id="edge33" class="edge">
<title>Node22&#45;&gt;Node16</title>
<path fill="none" stroke="midnightblue" d="M758.65,-224.29C758.55,-202.76 755.48,-146.27 727.5,-112 681.33,-55.46 595.81,-28.28 550.13,-17.28"/>
<polygon fill="midnightblue" stroke="midnightblue" points="550.75,-13.83 540.22,-15 549.18,-20.66 550.75,-13.83"/>
</g>
<!-- Node22&#45;&gt;Node17 -->
<g id="edge37" class="edge">
<title>Node22&#45;&gt;Node17</title>
<path fill="none" stroke="midnightblue" d="M791.38,-224.46C822.05,-216.19 868.88,-202.75 908.5,-188 950.82,-172.24 998.31,-150.06 1027.05,-136.11"/>
<polygon fill="midnightblue" stroke="midnightblue" points="1028.95,-139.08 1036.39,-131.54 1025.87,-132.79 1028.95,-139.08"/>
</g>
<!-- Node22&#45;&gt;Node20 -->
<g id="edge38" class="edge">
<title>Node22&#45;&gt;Node20</title>
<path fill="none" stroke="midnightblue" d="M720.63,-224.44C679.02,-215.04 612.13,-199.93 567.03,-189.74"/>
<polygon fill="midnightblue" stroke="midnightblue" points="567.72,-186.31 557.19,-187.52 566.18,-193.13 567.72,-186.31"/>
</g>
<!-- Node22&#45;&gt;Node23 -->
<g id="edge39" class="edge">
<title>Node22&#45;&gt;Node23</title>
<path fill="none" stroke="midnightblue" d="M775.05,-224.32C791.49,-215.7 816.93,-202.36 835.97,-192.39"/>
<polygon fill="midnightblue" stroke="midnightblue" points="837.76,-195.4 844.99,-187.65 834.51,-189.2 837.76,-195.4"/>
</g>
<!-- Node23&#45;&gt;Node11 -->
<g id="edge40" class="edge">
<title>Node23&#45;&gt;Node11</title>
<path fill="none" stroke="midnightblue" d="M875.47,-168.37C906.14,-149.41 979.63,-104 1016.94,-80.94"/>
<polygon fill="midnightblue" stroke="midnightblue" points="1018.93,-83.83 1025.6,-75.59 1015.25,-77.87 1018.93,-83.83"/>
</g>
<!-- Node23&#45;&gt;Node12 -->
<g id="edge41" class="edge">
<title>Node23&#45;&gt;Node12</title>
<path fill="none" stroke="midnightblue" d="M835.36,-168.44C806.25,-158.92 759.21,-143.52 728.07,-133.33"/>
<polygon fill="midnightblue" stroke="midnightblue" points="729.15,-130 718.56,-130.22 726.98,-136.66 729.15,-130"/>
</g>
<!-- Node23&#45;&gt;Node13 -->
<g id="edge42" class="edge">
<title>Node23&#45;&gt;Node13</title>
<path fill="none" stroke="midnightblue" d="M857.26,-168.37C848.43,-150.38 827.9,-108.55 816.15,-84.63"/>
<polygon fill="midnightblue" stroke="midnightblue" points="819.27,-83.03 811.72,-75.59 812.98,-86.11 819.27,-83.03"/>
</g>
<!-- Node24&#45;&gt;Node5 -->
<g id="edge46" class="edge">
<title>Node24&#45;&gt;Node5</title>
<path fill="none" stroke="midnightblue" d="M591.32,-338.58C527.2,-331.48 436,-318.53 405.5,-300 355.13,-269.4 352.8,-244.03 334.5,-188 329.55,-172.85 326.73,-154.96 325.19,-141.78"/>
<polygon fill="midnightblue" stroke="midnightblue" points="328.65,-141.2 324.14,-131.61 321.69,-141.91 328.65,-141.2"/>
</g>
<!-- Node24&#45;&gt;Node12 -->
<g id="edge45" class="edge">
<title>Node24&#45;&gt;Node12</title>
<path fill="none" stroke="midnightblue" d="M659.75,-336.48C662.66,-316.69 670.23,-266.12 677.5,-224 682.47,-195.21 688.86,-161.92 692.81,-141.67"/>
<polygon fill="midnightblue" stroke="midnightblue" points="696.29,-142.12 694.79,-131.63 689.42,-140.77 696.29,-142.12"/>
</g>
<!-- Node24&#45;&gt;Node13 -->
<g id="edge47" class="edge">
<title>Node24&#45;&gt;Node13</title>
<path fill="none" stroke="midnightblue" d="M655.55,-336.24C644.93,-302.96 612.08,-182.72 665.5,-112 686.46,-84.26 724.57,-73.24 756.04,-69.04"/>
<polygon fill="midnightblue" stroke="midnightblue" points="756.45,-72.51 765.99,-67.9 755.66,-65.56 756.45,-72.51"/>
</g>
<!-- Node24&#45;&gt;Node16 -->
<g id="edge44" class="edge">
<title>Node24&#45;&gt;Node16</title>
<path fill="none" stroke="midnightblue" d="M594.68,-336.46C466.44,-318.69 187.23,-276.67 158.5,-244 96.55,-173.55 168.89,-94.38 254.5,-56 333.81,-20.44 437.99,-12.8 488.87,-11.28"/>
<polygon fill="midnightblue" stroke="midnightblue" points="488.97,-14.78 498.89,-11.04 488.81,-7.78 488.97,-14.78"/>
</g>
<!-- Node24&#45;&gt;Node17 -->
<g id="edge48" class="edge">
<title>Node24&#45;&gt;Node17</title>
<path fill="none" stroke="midnightblue" d="M706.89,-336.44C741.47,-329.3 788.57,-317.45 827.5,-300 910.06,-262.99 929.54,-247.74 997.5,-188 1014.2,-173.32 1030.47,-153.65 1041.13,-139.81"/>
<polygon fill="midnightblue" stroke="midnightblue" points="1044.04,-141.76 1047.27,-131.67 1038.46,-137.54 1044.04,-141.76"/>
</g>
<!-- Node24&#45;&gt;Node20 -->
<g id="edge49" class="edge">
<title>Node24&#45;&gt;Node20</title>
<path fill="none" stroke="midnightblue" d="M647.07,-336.39C636.05,-327.8 619.22,-313.92 606.5,-300 575.38,-265.94 545.4,-220.62 530.07,-196.25"/>
<polygon fill="midnightblue" stroke="midnightblue" points="533.03,-194.37 524.77,-187.73 527.08,-198.07 533.03,-194.37"/>
</g>
<!-- Node24&#45;&gt;Node22 -->
<g id="edge50" class="edge">
<title>Node24&#45;&gt;Node22</title>
<path fill="none" stroke="midnightblue" d="M666.35,-336.37C683.07,-317.97 722.44,-274.67 743.91,-251.05"/>
<polygon fill="midnightblue" stroke="midnightblue" points="746.55,-253.35 750.69,-243.59 741.37,-248.64 746.55,-253.35"/>
</g>
<!-- Node24&#45;&gt;Node23 -->
<g id="edge60" class="edge">
<title>Node24&#45;&gt;Node23</title>
<path fill="none" stroke="midnightblue" d="M704.31,-336.44C752.55,-324.74 826.17,-298.6 860.5,-244 869.13,-230.28 868.39,-211.5 866.08,-197.65"/>
<polygon fill="midnightblue" stroke="midnightblue" points="869.49,-196.88 864.04,-187.79 862.64,-198.3 869.49,-196.88"/>
</g>
<!-- Node24&#45;&gt;Node25 -->
<g id="edge51" class="edge">
<title>Node24&#45;&gt;Node25</title>
<path fill="none" stroke="midnightblue" d="M630.93,-336.44C601.4,-327.28 554.38,-312.69 521.62,-302.52"/>
<polygon fill="midnightblue" stroke="midnightblue" points="522.53,-299.14 511.94,-299.52 520.46,-305.82 522.53,-299.14"/>
</g>
<!-- Node25&#45;&gt;Node5 -->
<g id="edge54" class="edge">
<title>Node25&#45;&gt;Node5</title>
<path fill="none" stroke="midnightblue" d="M450.3,-280.49C428.66,-273.64 401.33,-262.12 382.5,-244 352.3,-214.93 335.45,-167.19 328.08,-141.22"/>
<polygon fill="midnightblue" stroke="midnightblue" points="331.45,-140.29 325.48,-131.54 324.69,-142.1 331.45,-140.29"/>
</g>
<!-- Node25&#45;&gt;Node12 -->
<g id="edge53" class="edge">
<title>Node25&#45;&gt;Node12</title>
<path fill="none" stroke="midnightblue" d="M495.6,-280.31C529.87,-253.47 634.31,-171.69 677.5,-137.88"/>
<polygon fill="midnightblue" stroke="midnightblue" points="679.79,-140.53 685.51,-131.61 675.48,-135.01 679.79,-140.53"/>
</g>
<!-- Node25&#45;&gt;Node13 -->
<g id="edge55" class="edge">
<title>Node25&#45;&gt;Node13</title>
<path fill="none" stroke="midnightblue" d="M477.93,-280.3C462.89,-259.26 429.1,-204.64 453.5,-168 487.18,-117.42 666.17,-86.25 756,-73.57"/>
<polygon fill="midnightblue" stroke="midnightblue" points="756.55,-77.02 765.97,-72.18 755.59,-70.09 756.55,-77.02"/>
</g>
<!-- Node25&#45;&gt;Node16 -->
<g id="edge52" class="edge">
<title>Node25&#45;&gt;Node16</title>
<path fill="none" stroke="midnightblue" d="M414.98,-288.97C305.29,-285.97 109.57,-267.04 161.5,-168 225.63,-45.69 414.01,-18.63 488.59,-12.67"/>
<polygon fill="midnightblue" stroke="midnightblue" points="489.02,-16.15 498.74,-11.93 488.51,-9.17 489.02,-16.15"/>
</g>
<!-- Node25&#45;&gt;Node17 -->
<g id="edge56" class="edge">
<title>Node25&#45;&gt;Node17</title>
<path fill="none" stroke="midnightblue" d="M554.13,-289.69C631.2,-288.41 758.06,-280.18 860.5,-244 931.36,-218.97 1003.36,-164.43 1035.77,-137.98"/>
<polygon fill="midnightblue" stroke="midnightblue" points="1038,-140.68 1043.48,-131.61 1033.54,-135.28 1038,-140.68"/>
</g>
<!-- Node25&#45;&gt;Node20 -->
<g id="edge57" class="edge">
<title>Node25&#45;&gt;Node20</title>
<path fill="none" stroke="midnightblue" d="M487.25,-280.37C492.92,-262.54 506.04,-221.3 513.69,-197.27"/>
<polygon fill="midnightblue" stroke="midnightblue" points="517.07,-198.18 516.77,-187.59 510.4,-196.06 517.07,-198.18"/>
</g>
<!-- Node25&#45;&gt;Node22 -->
<g id="edge58" class="edge">
<title>Node25&#45;&gt;Node22</title>
<path fill="none" stroke="midnightblue" d="M527.92,-280.44C576.02,-270.96 653.59,-255.67 705.31,-245.48"/>
<polygon fill="midnightblue" stroke="midnightblue" points="706.15,-248.88 715.29,-243.52 704.8,-242.02 706.15,-248.88"/>
</g>
<!-- Node25&#45;&gt;Node23 -->
<g id="edge59" class="edge">
<title>Node25&#45;&gt;Node23</title>
<path fill="none" stroke="midnightblue" d="M554.05,-288.71C644.82,-286.92 797.11,-278.65 839.5,-244 853.17,-232.82 858.39,-212.8 860.35,-197.92"/>
<polygon fill="midnightblue" stroke="midnightblue" points="863.86,-198.06 861.31,-187.78 856.89,-197.4 863.86,-198.06"/>
</g>
<!-- Node27&#45;&gt;Node5 -->
<g id="edge65" class="edge">
<title>Node27&#45;&gt;Node5</title>
<path fill="none" stroke="midnightblue" d="M230.33,-168.32C248.22,-159.62 275.98,-146.12 296.55,-136.11"/>
<polygon fill="midnightblue" stroke="midnightblue" points="298.25,-139.18 305.71,-131.65 295.19,-132.88 298.25,-139.18"/>
</g>
<!-- Node27&#45;&gt;Node13 -->
<g id="edge66" class="edge">
<title>Node27&#45;&gt;Node13</title>
<path fill="none" stroke="midnightblue" d="M217.46,-168.36C226.36,-153.79 246.56,-124.68 272.5,-112 356.63,-70.88 638.29,-66.59 755.57,-66.64"/>
<polygon fill="midnightblue" stroke="midnightblue" points="755.72,-70.14 765.73,-66.66 755.73,-63.14 755.72,-70.14"/>
</g>
</g>
</svg>
