<?xml version="1.0" encoding="UTF-8" standalone="no"?>
<!DOCTYPE svg PUBLIC "-//W3C//DTD SVG 1.1//EN"
 "http://www.w3.org/Graphics/SVG/1.1/DTD/svg11.dtd">
<!-- Generated by graphviz version 2.44.1 (20220725.2034)
 -->
<!-- Title: include/plangcli/cli.hpp Pages: 1 -->
<svg width="807pt" height="308pt"
 viewBox="0.00 0.00 806.50 308.00" xmlns="http://www.w3.org/2000/svg" xmlns:xlink="http://www.w3.org/1999/xlink">
<g id="graph0" class="graph" transform="scale(1 1) rotate(0) translate(4 304)">
<title>include/plangcli/cli.hpp</title>
<!-- Node1 -->
<g id="node1" class="node">
<title>Node1</title>
<g id="a_node1"><a xlink:title=" ">
<polygon fill="#bfbfbf" stroke="black" points="127,-280.5 127,-299.5 242,-299.5 242,-280.5 127,-280.5"/>
<text text-anchor="middle" x="184.5" y="-287.5" font-family="Helvetica,sans-Serif" font-size="10.00">include/plangcli/cli.hpp</text>
</a>
</g>
</g>
<!-- Node2 -->
<g id="node2" class="node">
<title>Node2</title>
<g id="a_node2"><a xlink:title=" ">
<polygon fill="none" stroke="#bfbfbf" points="0,-224.5 0,-243.5 35,-243.5 35,-224.5 0,-224.5"/>
<text text-anchor="middle" x="17.5" y="-231.5" font-family="Helvetica,sans-Serif" font-size="10.00">map</text>
</a>
</g>
</g>
<!-- Node1&#45;&gt;Node2 -->
<g id="edge1" class="edge">
<title>Node1&#45;&gt;Node2</title>
<path fill="none" stroke="midnightblue" d="M158.04,-280.44C127.13,-270.45 76.26,-254 44.94,-243.87"/>
<polygon fill="midnightblue" stroke="midnightblue" points="45.72,-240.45 35.13,-240.7 43.57,-247.11 45.72,-240.45"/>
</g>
<!-- Node3 -->
<g id="node3" class="node">
<title>Node3</title>
<g id="a_node3"><a xlink:title=" ">
<polygon fill="none" stroke="#bfbfbf" points="82.5,-0.5 82.5,-19.5 132.5,-19.5 132.5,-0.5 82.5,-0.5"/>
<text text-anchor="middle" x="107.5" y="-7.5" font-family="Helvetica,sans-Serif" font-size="10.00">optional</text>
</a>
</g>
</g>
<!-- Node1&#45;&gt;Node3 -->
<g id="edge2" class="edge">
<title>Node1&#45;&gt;Node3</title>
<path fill="none" stroke="midnightblue" d="M161.74,-280.43C126.69,-265.58 63.5,-231.52 63.5,-179 63.5,-179 63.5,-179 63.5,-121 63.5,-86.04 82.9,-49.01 95.93,-28.07"/>
<polygon fill="midnightblue" stroke="midnightblue" points="98.89,-29.95 101.38,-19.65 93.01,-26.15 98.89,-29.95"/>
</g>
<!-- Node4 -->
<g id="node4" class="node">
<title>Node4</title>
<g id="a_node4"><a xlink:title=" ">
<polygon fill="none" stroke="#bfbfbf" points="758.5,-56.5 758.5,-75.5 798.5,-75.5 798.5,-56.5 758.5,-56.5"/>
<text text-anchor="middle" x="778.5" y="-63.5" font-family="Helvetica,sans-Serif" font-size="10.00">utility</text>
</a>
</g>
</g>
<!-- Node1&#45;&gt;Node4 -->
<g id="edge3" class="edge">
<title>Node1&#45;&gt;Node4</title>
<path fill="none" stroke="midnightblue" d="M242.37,-289.6C336.48,-287.9 525.16,-273.09 654.5,-188 700.36,-157.83 743.84,-109.19 765.04,-83.74"/>
<polygon fill="midnightblue" stroke="midnightblue" points="767.94,-85.73 771.58,-75.77 762.53,-81.29 767.94,-85.73"/>
</g>
<!-- Node5 -->
<g id="node5" class="node">
<title>Node5</title>
<g id="a_node5"><a xlink:title=" ">
<polygon fill="none" stroke="#bfbfbf" points="130,-112.5 130,-131.5 213,-131.5 213,-112.5 130,-112.5"/>
<text text-anchor="middle" x="171.5" y="-119.5" font-family="Helvetica,sans-Serif" font-size="10.00">unordered_map</text>
</a>
</g>
</g>
<!-- Node1&#45;&gt;Node5 -->
<g id="edge4" class="edge">
<title>Node1&#45;&gt;Node5</title>
<path fill="none" stroke="midnightblue" d="M185.32,-280.43C187.04,-260.56 190.42,-209.81 184.5,-168 183.23,-159.04 180.61,-149.37 178.05,-141.3"/>
<polygon fill="midnightblue" stroke="midnightblue" points="181.36,-140.16 174.84,-131.8 174.73,-142.4 181.36,-140.16"/>
</g>
<!-- Node6 -->
<g id="node6" class="node">
<title>Node6</title>
<g id="a_node6"><a xlink:href="corpus_8hpp.html" target="_top" xlink:title=" ">
<polygon fill="none" stroke="black" points="418,-224.5 418,-243.5 509,-243.5 509,-224.5 418,-224.5"/>
<text text-anchor="middle" x="463.5" y="-231.5" font-family="Helvetica,sans-Serif" font-size="10.00">plang/corpus.hpp</text>
</a>
</g>
</g>
<!-- Node1&#45;&gt;Node6 -->
<g id="edge5" class="edge">
<title>Node1&#45;&gt;Node6</title>
<path fill="none" stroke="midnightblue" d="M228.71,-280.44C277.79,-270.94 357.01,-255.61 409.66,-245.42"/>
<polygon fill="midnightblue" stroke="midnightblue" points="410.35,-248.85 419.5,-243.52 409.02,-241.98 410.35,-248.85"/>
</g>
<!-- Node22 -->
<g id="node22" class="node">
<title>Node22</title>
<g id="a_node22"><a xlink:href="intl_8hpp.html" target="_top" xlink:title=" ">
<polygon fill="none" stroke="black" points="91.5,-168.5 91.5,-187.5 175.5,-187.5 175.5,-168.5 91.5,-168.5"/>
<text text-anchor="middle" x="133.5" y="-175.5" font-family="Helvetica,sans-Serif" font-size="10.00">plangcli/intl.hpp</text>
</a>
</g>
</g>
<!-- Node1&#45;&gt;Node22 -->
<g id="edge32" class="edge">
<title>Node1&#45;&gt;Node22</title>
<path fill="none" stroke="midnightblue" d="M180.5,-280.37C172.19,-262.46 152.94,-220.92 141.82,-196.95"/>
<polygon fill="midnightblue" stroke="midnightblue" points="144.86,-195.19 137.48,-187.59 138.51,-198.14 144.86,-195.19"/>
</g>
<!-- Node7 -->
<g id="node7" class="node">
<title>Node7</title>
<g id="a_node7"><a xlink:title=" ">
<polygon fill="none" stroke="#bfbfbf" points="276.5,-168.5 276.5,-187.5 308.5,-187.5 308.5,-168.5 276.5,-168.5"/>
<text text-anchor="middle" x="292.5" y="-175.5" font-family="Helvetica,sans-Serif" font-size="10.00">any</text>
</a>
</g>
</g>
<!-- Node6&#45;&gt;Node7 -->
<g id="edge6" class="edge">
<title>Node6&#45;&gt;Node7</title>
<path fill="none" stroke="midnightblue" d="M436.4,-224.44C404.08,-214.24 350.43,-197.29 318.57,-187.23"/>
<polygon fill="midnightblue" stroke="midnightblue" points="319.25,-183.78 308.66,-184.1 317.14,-190.45 319.25,-183.78"/>
</g>
<!-- Node8 -->
<g id="node8" class="node">
<title>Node8</title>
<g id="a_node8"><a xlink:title=" ">
<polygon fill="none" stroke="#bfbfbf" points="614.5,-56.5 614.5,-75.5 676.5,-75.5 676.5,-56.5 614.5,-56.5"/>
<text text-anchor="middle" x="645.5" y="-63.5" font-family="Helvetica,sans-Serif" font-size="10.00">filesystem</text>
</a>
</g>
</g>
<!-- Node6&#45;&gt;Node8 -->
<g id="edge7" class="edge">
<title>Node6&#45;&gt;Node8</title>
<path fill="none" stroke="midnightblue" d="M509.26,-228.95C540.81,-223.96 581.89,-212.83 609.5,-188 638.74,-161.7 644.68,-112.82 645.61,-85.93"/>
<polygon fill="midnightblue" stroke="midnightblue" points="649.12,-85.64 645.76,-75.59 642.12,-85.54 649.12,-85.64"/>
</g>
<!-- Node9 -->
<g id="node9" class="node">
<title>Node9</title>
<g id="a_node9"><a xlink:title=" ">
<polygon fill="none" stroke="#bfbfbf" points="535,-168.5 535,-187.5 584,-187.5 584,-168.5 535,-168.5"/>
<text text-anchor="middle" x="559.5" y="-175.5" font-family="Helvetica,sans-Serif" font-size="10.00">istream</text>
</a>
</g>
</g>
<!-- Node6&#45;&gt;Node9 -->
<g id="edge8" class="edge">
<title>Node6&#45;&gt;Node9</title>
<path fill="none" stroke="midnightblue" d="M478.92,-224.32C494.04,-215.82 517.32,-202.73 534.97,-192.8"/>
<polygon fill="midnightblue" stroke="midnightblue" points="537.11,-195.61 544.11,-187.65 533.68,-189.51 537.11,-195.61"/>
</g>
<!-- Node10 -->
<g id="node10" class="node">
<title>Node10</title>
<g id="a_node10"><a xlink:title=" ">
<polygon fill="none" stroke="#bfbfbf" points="694.5,-56.5 694.5,-75.5 740.5,-75.5 740.5,-56.5 694.5,-56.5"/>
<text text-anchor="middle" x="717.5" y="-63.5" font-family="Helvetica,sans-Serif" font-size="10.00">variant</text>
</a>
</g>
</g>
<!-- Node6&#45;&gt;Node10 -->
<g id="edge9" class="edge">
<title>Node6&#45;&gt;Node10</title>
<path fill="none" stroke="midnightblue" d="M509.17,-229.08C544.86,-224.15 594.33,-213.03 630.5,-188 669.19,-161.23 696.82,-111.43 709.57,-84.83"/>
<polygon fill="midnightblue" stroke="midnightblue" points="712.83,-86.12 713.86,-75.57 706.48,-83.18 712.83,-86.12"/>
</g>
<!-- Node11 -->
<g id="node11" class="node">
<title>Node11</title>
<g id="a_node11"><a xlink:title=" ">
<polygon fill="none" stroke="#bfbfbf" points="442.5,-112.5 442.5,-131.5 486.5,-131.5 486.5,-112.5 442.5,-112.5"/>
<text text-anchor="middle" x="464.5" y="-119.5" font-family="Helvetica,sans-Serif" font-size="10.00">vector</text>
</a>
</g>
</g>
<!-- Node6&#45;&gt;Node11 -->
<g id="edge10" class="edge">
<title>Node6&#45;&gt;Node11</title>
<path fill="none" stroke="midnightblue" d="M469.87,-224.23C475.76,-215.53 484.11,-201.57 487.5,-188 491.62,-171.53 484.11,-153.35 476.6,-140.42"/>
<polygon fill="midnightblue" stroke="midnightblue" points="479.36,-138.24 471.04,-131.67 473.45,-141.99 479.36,-138.24"/>
</g>
<!-- Node12 -->
<g id="node12" class="node">
<title>Node12</title>
<g id="a_node12"><a xlink:href="base_8hpp.html" target="_top" xlink:title=" ">
<polygon fill="none" stroke="black" points="270,-56.5 270,-75.5 353,-75.5 353,-56.5 270,-56.5"/>
<text text-anchor="middle" x="311.5" y="-63.5" font-family="Helvetica,sans-Serif" font-size="10.00">plang/base.hpp</text>
</a>
</g>
</g>
<!-- Node6&#45;&gt;Node12 -->
<g id="edge11" class="edge">
<title>Node6&#45;&gt;Node12</title>
<path fill="none" stroke="midnightblue" d="M423.39,-224.46C401.1,-217.87 374.35,-206.62 356.5,-188 328.8,-159.11 317.85,-111.65 313.76,-85.58"/>
<polygon fill="midnightblue" stroke="midnightblue" points="317.21,-84.97 312.36,-75.54 310.27,-85.93 317.21,-84.97"/>
</g>
<!-- Node17 -->
<g id="node17" class="node">
<title>Node17</title>
<g id="a_node17"><a xlink:href="detail_8hpp.html" target="_top" xlink:title=" ">
<polygon fill="none" stroke="black" points="507,-112.5 507,-131.5 624,-131.5 624,-112.5 507,-112.5"/>
<text text-anchor="middle" x="565.5" y="-119.5" font-family="Helvetica,sans-Serif" font-size="10.00">plang/corpus/detail.hpp</text>
</a>
</g>
</g>
<!-- Node6&#45;&gt;Node17 -->
<g id="edge17" class="edge">
<title>Node6&#45;&gt;Node17</title>
<path fill="none" stroke="midnightblue" d="M509.03,-230.2C538.36,-225.75 574.45,-214.75 593.5,-188 604.24,-172.91 592.63,-153.06 581.26,-139.28"/>
<polygon fill="midnightblue" stroke="midnightblue" points="583.68,-136.73 574.42,-131.59 578.45,-141.39 583.68,-136.73"/>
</g>
<!-- Node20 -->
<g id="node20" class="node">
<title>Node20</title>
<g id="a_node20"><a xlink:href="path_8hpp.html" target="_top" xlink:title=" ">
<polygon fill="none" stroke="black" points="365,-168.5 365,-187.5 478,-187.5 478,-168.5 365,-168.5"/>
<text text-anchor="middle" x="421.5" y="-175.5" font-family="Helvetica,sans-Serif" font-size="10.00">plang/corpus/path.hpp</text>
</a>
</g>
</g>
<!-- Node6&#45;&gt;Node20 -->
<g id="edge24" class="edge">
<title>Node6&#45;&gt;Node20</title>
<path fill="none" stroke="midnightblue" d="M456.56,-224.08C450.57,-216.38 441.75,-205.03 434.45,-195.65"/>
<polygon fill="midnightblue" stroke="midnightblue" points="437.21,-193.5 428.31,-187.75 431.68,-197.79 437.21,-193.5"/>
</g>
<!-- Node21 -->
<g id="node21" class="node">
<title>Node21</title>
<g id="a_node21"><a xlink:href="plot_8hpp.html" target="_top" xlink:title=" ">
<polygon fill="none" stroke="black" points="231,-112.5 231,-131.5 308,-131.5 308,-112.5 231,-112.5"/>
<text text-anchor="middle" x="269.5" y="-119.5" font-family="Helvetica,sans-Serif" font-size="10.00">plang/plot.hpp</text>
</a>
</g>
</g>
<!-- Node6&#45;&gt;Node21 -->
<g id="edge30" class="edge">
<title>Node6&#45;&gt;Node21</title>
<path fill="none" stroke="midnightblue" d="M417.8,-228.99C365.88,-223.37 285.93,-211.15 267.5,-188 257.19,-175.05 259.34,-155.61 263.07,-141.37"/>
<polygon fill="midnightblue" stroke="midnightblue" points="266.45,-142.26 266.04,-131.68 259.76,-140.21 266.45,-142.26"/>
</g>
<!-- Node12&#45;&gt;Node3 -->
<g id="edge14" class="edge">
<title>Node12&#45;&gt;Node3</title>
<path fill="none" stroke="midnightblue" d="M279.18,-56.44C241.84,-46.56 180.65,-30.36 142.3,-20.21"/>
<polygon fill="midnightblue" stroke="midnightblue" points="143.16,-16.82 132.6,-17.64 141.37,-23.59 143.16,-16.82"/>
</g>
<!-- Node13 -->
<g id="node13" class="node">
<title>Node13</title>
<g id="a_node13"><a xlink:title=" ">
<polygon fill="none" stroke="#bfbfbf" points="263.5,-0.5 263.5,-19.5 309.5,-19.5 309.5,-0.5 263.5,-0.5"/>
<text text-anchor="middle" x="286.5" y="-7.5" font-family="Helvetica,sans-Serif" font-size="10.00">chrono</text>
</a>
</g>
</g>
<!-- Node12&#45;&gt;Node13 -->
<g id="edge12" class="edge">
<title>Node12&#45;&gt;Node13</title>
<path fill="none" stroke="midnightblue" d="M307.37,-56.08C303.99,-48.77 299.08,-38.18 294.88,-29.1"/>
<polygon fill="midnightblue" stroke="midnightblue" points="297.93,-27.36 290.55,-19.75 291.58,-30.3 297.93,-27.36"/>
</g>
<!-- Node14 -->
<g id="node14" class="node">
<title>Node14</title>
<g id="a_node14"><a xlink:title=" ">
<polygon fill="none" stroke="#bfbfbf" points="327.5,-0.5 327.5,-19.5 371.5,-19.5 371.5,-0.5 327.5,-0.5"/>
<text text-anchor="middle" x="349.5" y="-7.5" font-family="Helvetica,sans-Serif" font-size="10.00">cmath</text>
</a>
</g>
</g>
<!-- Node12&#45;&gt;Node14 -->
<g id="edge13" class="edge">
<title>Node12&#45;&gt;Node14</title>
<path fill="none" stroke="midnightblue" d="M317.77,-56.08C323.14,-48.46 331.02,-37.26 337.58,-27.94"/>
<polygon fill="midnightblue" stroke="midnightblue" points="340.45,-29.94 343.34,-19.75 334.72,-25.91 340.45,-29.94"/>
</g>
<!-- Node15 -->
<g id="node15" class="node">
<title>Node15</title>
<g id="a_node15"><a xlink:title=" ">
<polygon fill="none" stroke="#bfbfbf" points="193.5,-0.5 193.5,-19.5 245.5,-19.5 245.5,-0.5 193.5,-0.5"/>
<text text-anchor="middle" x="219.5" y="-7.5" font-family="Helvetica,sans-Serif" font-size="10.00">sstream</text>
</a>
</g>
</g>
<!-- Node12&#45;&gt;Node15 -->
<g id="edge15" class="edge">
<title>Node12&#45;&gt;Node15</title>
<path fill="none" stroke="midnightblue" d="M296.72,-56.32C282.23,-47.82 259.93,-34.73 243.01,-24.8"/>
<polygon fill="midnightblue" stroke="midnightblue" points="244.64,-21.7 234.24,-19.65 241.1,-27.74 244.64,-21.7"/>
</g>
<!-- Node16 -->
<g id="node16" class="node">
<title>Node16</title>
<g id="a_node16"><a xlink:title=" ">
<polygon fill="none" stroke="#bfbfbf" points="390,-0.5 390,-19.5 431,-19.5 431,-0.5 390,-0.5"/>
<text text-anchor="middle" x="410.5" y="-7.5" font-family="Helvetica,sans-Serif" font-size="10.00">string</text>
</a>
</g>
</g>
<!-- Node12&#45;&gt;Node16 -->
<g id="edge16" class="edge">
<title>Node12&#45;&gt;Node16</title>
<path fill="none" stroke="midnightblue" d="M327.41,-56.32C343.14,-47.74 367.44,-34.49 385.71,-24.52"/>
<polygon fill="midnightblue" stroke="midnightblue" points="387.53,-27.52 394.63,-19.65 384.18,-21.37 387.53,-27.52"/>
</g>
<!-- Node17&#45;&gt;Node4 -->
<g id="edge20" class="edge">
<title>Node17&#45;&gt;Node4</title>
<path fill="none" stroke="midnightblue" d="M603.38,-112.45C638.66,-104.33 692.93,-91.43 748.59,-76.13"/>
<polygon fill="midnightblue" stroke="midnightblue" points="749.56,-79.5 758.27,-73.45 747.69,-72.75 749.56,-79.5"/>
</g>
<!-- Node17&#45;&gt;Node8 -->
<g id="edge18" class="edge">
<title>Node17&#45;&gt;Node8</title>
<path fill="none" stroke="midnightblue" d="M578.35,-112.32C590.72,-103.98 609.63,-91.21 624.24,-81.35"/>
<polygon fill="midnightblue" stroke="midnightblue" points="626.35,-84.15 632.68,-75.65 622.43,-78.35 626.35,-84.15"/>
</g>
<!-- Node17&#45;&gt;Node10 -->
<g id="edge21" class="edge">
<title>Node17&#45;&gt;Node10</title>
<path fill="none" stroke="midnightblue" d="M589.58,-112.44C615.19,-103.35 655.87,-88.9 684.46,-78.74"/>
<polygon fill="midnightblue" stroke="midnightblue" points="685.78,-81.98 694.03,-75.34 683.43,-75.39 685.78,-81.98"/>
</g>
<!-- Node17&#45;&gt;Node12 -->
<g id="edge22" class="edge">
<title>Node17&#45;&gt;Node12</title>
<path fill="none" stroke="midnightblue" d="M525.25,-112.44C480.85,-103 409.35,-87.8 361.41,-77.61"/>
<polygon fill="midnightblue" stroke="midnightblue" points="362.07,-74.17 351.56,-75.52 360.61,-81.02 362.07,-74.17"/>
</g>
<!-- Node18 -->
<g id="node18" class="node">
<title>Node18</title>
<g id="a_node18"><a xlink:title=" ">
<polygon fill="none" stroke="#bfbfbf" points="537,-56.5 537,-75.5 596,-75.5 596,-56.5 537,-56.5"/>
<text text-anchor="middle" x="566.5" y="-63.5" font-family="Helvetica,sans-Serif" font-size="10.00">functional</text>
</a>
</g>
</g>
<!-- Node17&#45;&gt;Node18 -->
<g id="edge19" class="edge">
<title>Node17&#45;&gt;Node18</title>
<path fill="none" stroke="midnightblue" d="M565.67,-112.08C565.8,-105.01 565.98,-94.86 566.15,-85.99"/>
<polygon fill="midnightblue" stroke="midnightblue" points="569.65,-85.81 566.34,-75.75 562.65,-85.68 569.65,-85.81"/>
</g>
<!-- Node19 -->
<g id="node19" class="node">
<title>Node19</title>
<g id="a_node19"><a xlink:href="lang_8hpp.html" target="_top" xlink:title=" ">
<polygon fill="none" stroke="black" points="438.5,-56.5 438.5,-75.5 518.5,-75.5 518.5,-56.5 438.5,-56.5"/>
<text text-anchor="middle" x="478.5" y="-63.5" font-family="Helvetica,sans-Serif" font-size="10.00">plang/lang.hpp</text>
</a>
</g>
</g>
<!-- Node17&#45;&gt;Node19 -->
<g id="edge23" class="edge">
<title>Node17&#45;&gt;Node19</title>
<path fill="none" stroke="midnightblue" d="M551.52,-112.32C537.95,-103.9 517.12,-90.97 501.18,-81.07"/>
<polygon fill="midnightblue" stroke="midnightblue" points="502.79,-77.95 492.44,-75.65 499.09,-83.9 502.79,-77.95"/>
</g>
<!-- Node20&#45;&gt;Node5 -->
<g id="edge29" class="edge">
<title>Node20&#45;&gt;Node5</title>
<path fill="none" stroke="midnightblue" d="M381.89,-168.44C338.27,-159.02 268.1,-143.87 220.92,-133.68"/>
<polygon fill="midnightblue" stroke="midnightblue" points="221.44,-130.21 210.93,-131.52 219.96,-137.05 221.44,-130.21"/>
</g>
<!-- Node20&#45;&gt;Node11 -->
<g id="edge26" class="edge">
<title>Node20&#45;&gt;Node11</title>
<path fill="none" stroke="midnightblue" d="M428.6,-168.08C434.74,-160.38 443.77,-149.03 451.24,-139.65"/>
<polygon fill="midnightblue" stroke="midnightblue" points="454.04,-141.75 457.53,-131.75 448.56,-137.39 454.04,-141.75"/>
</g>
<!-- Node20&#45;&gt;Node12 -->
<g id="edge27" class="edge">
<title>Node20&#45;&gt;Node12</title>
<path fill="none" stroke="midnightblue" d="M412.87,-168.37C394.39,-149.89 350.79,-106.29 327.24,-82.74"/>
<polygon fill="midnightblue" stroke="midnightblue" points="329.64,-80.19 320.09,-75.59 324.69,-85.14 329.64,-80.19"/>
</g>
<!-- Node20&#45;&gt;Node16 -->
<g id="edge25" class="edge">
<title>Node20&#45;&gt;Node16</title>
<path fill="none" stroke="midnightblue" d="M420.91,-168.08C419.18,-141.95 414.09,-65.21 411.73,-29.58"/>
<polygon fill="midnightblue" stroke="midnightblue" points="415.22,-29.31 411.07,-19.57 408.24,-29.78 415.22,-29.31"/>
</g>
<!-- Node20&#45;&gt;Node17 -->
<g id="edge28" class="edge">
<title>Node20&#45;&gt;Node17</title>
<path fill="none" stroke="midnightblue" d="M444.32,-168.44C468.33,-159.44 506.33,-145.19 533.37,-135.05"/>
<polygon fill="midnightblue" stroke="midnightblue" points="534.66,-138.3 542.79,-131.52 532.2,-131.75 534.66,-138.3"/>
</g>
<!-- Node21&#45;&gt;Node12 -->
<g id="edge31" class="edge">
<title>Node21&#45;&gt;Node12</title>
<path fill="none" stroke="midnightblue" d="M276.44,-112.08C282.43,-104.38 291.25,-93.03 298.55,-83.65"/>
<polygon fill="midnightblue" stroke="midnightblue" points="301.32,-85.79 304.69,-75.75 295.79,-81.5 301.32,-85.79"/>
</g>
<!-- Node22&#45;&gt;Node5 -->
<g id="edge33" class="edge">
<title>Node22&#45;&gt;Node5</title>
<path fill="none" stroke="midnightblue" d="M139.77,-168.08C145.14,-160.46 153.02,-149.26 159.58,-139.94"/>
<polygon fill="midnightblue" stroke="midnightblue" points="162.45,-141.94 165.34,-131.75 156.72,-137.91 162.45,-141.94"/>
</g>
<!-- Node22&#45;&gt;Node12 -->
<g id="edge34" class="edge">
<title>Node22&#45;&gt;Node12</title>
<path fill="none" stroke="midnightblue" d="M127.87,-168.41C119.82,-154.92 107.36,-128.6 120.5,-112 137.56,-90.45 209.02,-78.19 259.51,-72.07"/>
<polygon fill="midnightblue" stroke="midnightblue" points="260.09,-75.52 269.62,-70.89 259.28,-68.57 260.09,-75.52"/>
</g>
</g>
</svg>
