<?xml version="1.0" encoding="UTF-8" standalone="no"?>
<!DOCTYPE svg PUBLIC "-//W3C//DTD SVG 1.1//EN"
 "http://www.w3.org/Graphics/SVG/1.1/DTD/svg11.dtd">
<!-- Generated by graphviz version 2.44.1 (20220725.2034)
 -->
<!-- Title: include/plang/corpus.hpp Pages: 1 -->
<svg width="647pt" height="252pt"
 viewBox="0.00 0.00 646.50 252.00" xmlns="http://www.w3.org/2000/svg" xmlns:xlink="http://www.w3.org/1999/xlink">
<g id="graph0" class="graph" transform="scale(1 1) rotate(0) translate(4 248)">
<title>include/plang/corpus.hpp</title>
<!-- Node1 -->
<g id="node1" class="node">
<title>Node1</title>
<g id="a_node1"><a xlink:title=" ">
<polygon fill="#bfbfbf" stroke="black" points="141.5,-224.5 141.5,-243.5 266.5,-243.5 266.5,-224.5 141.5,-224.5"/>
<text text-anchor="middle" x="204" y="-231.5" font-family="Helvetica,sans-Serif" font-size="10.00">include/plang/corpus.hpp</text>
</a>
</g>
</g>
<!-- Node2 -->
<g id="node2" class="node">
<title>Node2</title>
<g id="a_node2"><a xlink:title=" ">
<polygon fill="none" stroke="#bfbfbf" points="0,-168.5 0,-187.5 32,-187.5 32,-168.5 0,-168.5"/>
<text text-anchor="middle" x="16" y="-175.5" font-family="Helvetica,sans-Serif" font-size="10.00">any</text>
</a>
</g>
</g>
<!-- Node1&#45;&gt;Node2 -->
<g id="edge1" class="edge">
<title>Node1&#45;&gt;Node2</title>
<path fill="none" stroke="midnightblue" d="M173.67,-224.5C141.84,-215.54 90.35,-200.97 46,-188 44.74,-187.63 43.45,-187.25 42.14,-186.87"/>
<polygon fill="midnightblue" stroke="midnightblue" points="42.76,-183.4 32.18,-183.9 40.76,-190.11 42.76,-183.4"/>
</g>
<!-- Node3 -->
<g id="node3" class="node">
<title>Node3</title>
<g id="a_node3"><a xlink:title=" ">
<polygon fill="none" stroke="#bfbfbf" points="45,-56.5 45,-75.5 107,-75.5 107,-56.5 45,-56.5"/>
<text text-anchor="middle" x="76" y="-63.5" font-family="Helvetica,sans-Serif" font-size="10.00">filesystem</text>
</a>
</g>
</g>
<!-- Node1&#45;&gt;Node3 -->
<g id="edge2" class="edge">
<title>Node1&#45;&gt;Node3</title>
<path fill="none" stroke="midnightblue" d="M141.26,-225.44C117.87,-219.26 93.51,-208.11 79,-188 57.15,-157.72 64.19,-111.17 70.54,-85.53"/>
<polygon fill="midnightblue" stroke="midnightblue" points="73.98,-86.21 73.22,-75.65 67.22,-84.38 73.98,-86.21"/>
</g>
<!-- Node4 -->
<g id="node4" class="node">
<title>Node4</title>
<g id="a_node4"><a xlink:title=" ">
<polygon fill="none" stroke="#bfbfbf" points="88.5,-168.5 88.5,-187.5 137.5,-187.5 137.5,-168.5 88.5,-168.5"/>
<text text-anchor="middle" x="113" y="-175.5" font-family="Helvetica,sans-Serif" font-size="10.00">istream</text>
</a>
</g>
</g>
<!-- Node1&#45;&gt;Node4 -->
<g id="edge3" class="edge">
<title>Node1&#45;&gt;Node4</title>
<path fill="none" stroke="midnightblue" d="M189.38,-224.32C175.05,-215.82 152.99,-202.73 136.25,-192.8"/>
<polygon fill="midnightblue" stroke="midnightblue" points="137.97,-189.75 127.58,-187.65 134.4,-195.77 137.97,-189.75"/>
</g>
<!-- Node5 -->
<g id="node5" class="node">
<title>Node5</title>
<g id="a_node5"><a xlink:title=" ">
<polygon fill="none" stroke="#bfbfbf" points="133,-56.5 133,-75.5 179,-75.5 179,-56.5 133,-56.5"/>
<text text-anchor="middle" x="156" y="-63.5" font-family="Helvetica,sans-Serif" font-size="10.00">variant</text>
</a>
</g>
</g>
<!-- Node1&#45;&gt;Node5 -->
<g id="edge4" class="edge">
<title>Node1&#45;&gt;Node5</title>
<path fill="none" stroke="midnightblue" d="M200.6,-224.48C193.83,-207.24 178.49,-166.92 169,-132 164.84,-116.71 161.4,-99.07 159.1,-86.02"/>
<polygon fill="midnightblue" stroke="midnightblue" points="162.51,-85.2 157.39,-75.92 155.61,-86.36 162.51,-85.2"/>
</g>
<!-- Node6 -->
<g id="node6" class="node">
<title>Node6</title>
<g id="a_node6"><a xlink:title=" ">
<polygon fill="none" stroke="#bfbfbf" points="178,-112.5 178,-131.5 222,-131.5 222,-112.5 178,-112.5"/>
<text text-anchor="middle" x="200" y="-119.5" font-family="Helvetica,sans-Serif" font-size="10.00">vector</text>
</a>
</g>
</g>
<!-- Node1&#45;&gt;Node6 -->
<g id="edge5" class="edge">
<title>Node1&#45;&gt;Node6</title>
<path fill="none" stroke="midnightblue" d="M203.69,-224.37C203.04,-206.62 201.55,-165.67 200.68,-141.6"/>
<polygon fill="midnightblue" stroke="midnightblue" points="204.17,-141.46 200.31,-131.59 197.18,-141.71 204.17,-141.46"/>
</g>
<!-- Node7 -->
<g id="node7" class="node">
<title>Node7</title>
<g id="a_node7"><a xlink:href="base_8hpp.html" target="_top" xlink:title=" ">
<polygon fill="none" stroke="black" points="439.5,-56.5 439.5,-75.5 522.5,-75.5 522.5,-56.5 439.5,-56.5"/>
<text text-anchor="middle" x="481" y="-63.5" font-family="Helvetica,sans-Serif" font-size="10.00">plang/base.hpp</text>
</a>
</g>
</g>
<!-- Node1&#45;&gt;Node7 -->
<g id="edge6" class="edge">
<title>Node1&#45;&gt;Node7</title>
<path fill="none" stroke="midnightblue" d="M266.51,-232.13C331.38,-229.39 434.8,-219.81 518,-188 559.91,-171.98 580.83,-171.56 602,-132 619.17,-99.92 572.89,-82.99 532.7,-74.55"/>
<polygon fill="midnightblue" stroke="midnightblue" points="533.14,-71.07 522.66,-72.58 531.8,-77.94 533.14,-71.07"/>
</g>
<!-- Node13 -->
<g id="node13" class="node">
<title>Node13</title>
<g id="a_node13"><a xlink:href="detail_8hpp.html" target="_top" xlink:title=" ">
<polygon fill="none" stroke="black" points="240.5,-112.5 240.5,-131.5 357.5,-131.5 357.5,-112.5 240.5,-112.5"/>
<text text-anchor="middle" x="299" y="-119.5" font-family="Helvetica,sans-Serif" font-size="10.00">plang/corpus/detail.hpp</text>
</a>
</g>
</g>
<!-- Node1&#45;&gt;Node13 -->
<g id="edge12" class="edge">
<title>Node1&#45;&gt;Node13</title>
<path fill="none" stroke="midnightblue" d="M211.45,-224.37C227.27,-206.05 264.41,-163.05 284.87,-139.36"/>
<polygon fill="midnightblue" stroke="midnightblue" points="287.69,-141.45 291.58,-131.59 282.4,-136.87 287.69,-141.45"/>
</g>
<!-- Node17 -->
<g id="node17" class="node">
<title>Node17</title>
<g id="a_node17"><a xlink:href="path_8hpp.html" target="_top" xlink:title=" ">
<polygon fill="none" stroke="black" points="395.5,-168.5 395.5,-187.5 508.5,-187.5 508.5,-168.5 395.5,-168.5"/>
<text text-anchor="middle" x="452" y="-175.5" font-family="Helvetica,sans-Serif" font-size="10.00">plang/corpus/path.hpp</text>
</a>
</g>
</g>
<!-- Node1&#45;&gt;Node17 -->
<g id="edge19" class="edge">
<title>Node1&#45;&gt;Node17</title>
<path fill="none" stroke="midnightblue" d="M243.3,-224.44C286.56,-215.02 356.17,-199.87 402.97,-189.68"/>
<polygon fill="midnightblue" stroke="midnightblue" points="403.86,-193.06 412.89,-187.52 402.37,-186.22 403.86,-193.06"/>
</g>
<!-- Node19 -->
<g id="node19" class="node">
<title>Node19</title>
<g id="a_node19"><a xlink:href="plot_8hpp.html" target="_top" xlink:title=" ">
<polygon fill="none" stroke="black" points="375.5,-112.5 375.5,-131.5 452.5,-131.5 452.5,-112.5 375.5,-112.5"/>
<text text-anchor="middle" x="414" y="-119.5" font-family="Helvetica,sans-Serif" font-size="10.00">plang/plot.hpp</text>
</a>
</g>
</g>
<!-- Node1&#45;&gt;Node19 -->
<g id="edge25" class="edge">
<title>Node1&#45;&gt;Node19</title>
<path fill="none" stroke="midnightblue" d="M220.48,-224.37C256.97,-205.25 344.84,-159.23 388.49,-136.36"/>
<polygon fill="midnightblue" stroke="midnightblue" points="390.36,-139.33 397.6,-131.59 387.12,-133.13 390.36,-139.33"/>
</g>
<!-- Node8 -->
<g id="node8" class="node">
<title>Node8</title>
<g id="a_node8"><a xlink:title=" ">
<polygon fill="none" stroke="#bfbfbf" points="398,-0.5 398,-19.5 444,-19.5 444,-0.5 398,-0.5"/>
<text text-anchor="middle" x="421" y="-7.5" font-family="Helvetica,sans-Serif" font-size="10.00">chrono</text>
</a>
</g>
</g>
<!-- Node7&#45;&gt;Node8 -->
<g id="edge7" class="edge">
<title>Node7&#45;&gt;Node8</title>
<path fill="none" stroke="midnightblue" d="M471.36,-56.32C462.49,-48.34 449.13,-36.31 438.39,-26.65"/>
<polygon fill="midnightblue" stroke="midnightblue" points="440.59,-23.92 430.82,-19.83 435.91,-29.13 440.59,-23.92"/>
</g>
<!-- Node9 -->
<g id="node9" class="node">
<title>Node9</title>
<g id="a_node9"><a xlink:title=" ">
<polygon fill="none" stroke="#bfbfbf" points="462,-0.5 462,-19.5 506,-19.5 506,-0.5 462,-0.5"/>
<text text-anchor="middle" x="484" y="-7.5" font-family="Helvetica,sans-Serif" font-size="10.00">cmath</text>
</a>
</g>
</g>
<!-- Node7&#45;&gt;Node9 -->
<g id="edge8" class="edge">
<title>Node7&#45;&gt;Node9</title>
<path fill="none" stroke="midnightblue" d="M481.5,-56.08C481.89,-49.01 482.45,-38.86 482.95,-29.99"/>
<polygon fill="midnightblue" stroke="midnightblue" points="486.45,-29.93 483.51,-19.75 479.46,-29.54 486.45,-29.93"/>
</g>
<!-- Node10 -->
<g id="node10" class="node">
<title>Node10</title>
<g id="a_node10"><a xlink:title=" ">
<polygon fill="none" stroke="#bfbfbf" points="524,-0.5 524,-19.5 574,-19.5 574,-0.5 524,-0.5"/>
<text text-anchor="middle" x="549" y="-7.5" font-family="Helvetica,sans-Serif" font-size="10.00">optional</text>
</a>
</g>
</g>
<!-- Node7&#45;&gt;Node10 -->
<g id="edge9" class="edge">
<title>Node7&#45;&gt;Node10</title>
<path fill="none" stroke="midnightblue" d="M491.93,-56.32C502.17,-48.18 517.72,-35.84 530,-26.09"/>
<polygon fill="midnightblue" stroke="midnightblue" points="532.22,-28.79 537.88,-19.83 527.87,-23.31 532.22,-28.79"/>
</g>
<!-- Node11 -->
<g id="node11" class="node">
<title>Node11</title>
<g id="a_node11"><a xlink:title=" ">
<polygon fill="none" stroke="#bfbfbf" points="328,-0.5 328,-19.5 380,-19.5 380,-0.5 328,-0.5"/>
<text text-anchor="middle" x="354" y="-7.5" font-family="Helvetica,sans-Serif" font-size="10.00">sstream</text>
</a>
</g>
</g>
<!-- Node7&#45;&gt;Node11 -->
<g id="edge10" class="edge">
<title>Node7&#45;&gt;Node11</title>
<path fill="none" stroke="midnightblue" d="M460.88,-56.44C439.98,-47.56 407.07,-33.56 383.28,-23.45"/>
<polygon fill="midnightblue" stroke="midnightblue" points="384.6,-20.21 374.03,-19.52 381.86,-26.65 384.6,-20.21"/>
</g>
<!-- Node12 -->
<g id="node12" class="node">
<title>Node12</title>
<g id="a_node12"><a xlink:title=" ">
<polygon fill="none" stroke="#bfbfbf" points="597.5,-0.5 597.5,-19.5 638.5,-19.5 638.5,-0.5 597.5,-0.5"/>
<text text-anchor="middle" x="618" y="-7.5" font-family="Helvetica,sans-Serif" font-size="10.00">string</text>
</a>
</g>
</g>
<!-- Node7&#45;&gt;Node12 -->
<g id="edge11" class="edge">
<title>Node7&#45;&gt;Node12</title>
<path fill="none" stroke="midnightblue" d="M502.71,-56.44C525.62,-47.41 561.91,-33.11 587.65,-22.96"/>
<polygon fill="midnightblue" stroke="midnightblue" points="589.27,-26.09 597.29,-19.16 586.7,-19.57 589.27,-26.09"/>
</g>
<!-- Node13&#45;&gt;Node3 -->
<g id="edge13" class="edge">
<title>Node13&#45;&gt;Node3</title>
<path fill="none" stroke="midnightblue" d="M263.66,-112.44C223.84,-102.8 159.19,-87.14 117.13,-76.96"/>
<polygon fill="midnightblue" stroke="midnightblue" points="117.75,-73.51 107.21,-74.56 116.11,-80.31 117.75,-73.51"/>
</g>
<!-- Node13&#45;&gt;Node5 -->
<g id="edge16" class="edge">
<title>Node13&#45;&gt;Node5</title>
<path fill="none" stroke="midnightblue" d="M276.34,-112.44C252.6,-103.48 215.09,-89.31 188.26,-79.18"/>
<polygon fill="midnightblue" stroke="midnightblue" points="189.14,-75.77 178.55,-75.52 186.67,-82.32 189.14,-75.77"/>
</g>
<!-- Node13&#45;&gt;Node7 -->
<g id="edge17" class="edge">
<title>Node13&#45;&gt;Node7</title>
<path fill="none" stroke="midnightblue" d="M327.84,-112.44C358.86,-103.24 408.33,-88.56 442.62,-78.39"/>
<polygon fill="midnightblue" stroke="midnightblue" points="443.71,-81.72 452.3,-75.52 441.71,-75.01 443.71,-81.72"/>
</g>
<!-- Node14 -->
<g id="node14" class="node">
<title>Node14</title>
<g id="a_node14"><a xlink:title=" ">
<polygon fill="none" stroke="#bfbfbf" points="201.5,-56.5 201.5,-75.5 260.5,-75.5 260.5,-56.5 201.5,-56.5"/>
<text text-anchor="middle" x="231" y="-63.5" font-family="Helvetica,sans-Serif" font-size="10.00">functional</text>
</a>
</g>
</g>
<!-- Node13&#45;&gt;Node14 -->
<g id="edge14" class="edge">
<title>Node13&#45;&gt;Node14</title>
<path fill="none" stroke="midnightblue" d="M288.07,-112.32C277.83,-104.18 262.28,-91.84 250,-82.09"/>
<polygon fill="midnightblue" stroke="midnightblue" points="252.13,-79.31 242.12,-75.83 247.78,-84.79 252.13,-79.31"/>
</g>
<!-- Node15 -->
<g id="node15" class="node">
<title>Node15</title>
<g id="a_node15"><a xlink:title=" ">
<polygon fill="none" stroke="#bfbfbf" points="279,-56.5 279,-75.5 319,-75.5 319,-56.5 279,-56.5"/>
<text text-anchor="middle" x="299" y="-63.5" font-family="Helvetica,sans-Serif" font-size="10.00">utility</text>
</a>
</g>
</g>
<!-- Node13&#45;&gt;Node15 -->
<g id="edge15" class="edge">
<title>Node13&#45;&gt;Node15</title>
<path fill="none" stroke="midnightblue" d="M299,-112.08C299,-105.01 299,-94.86 299,-85.99"/>
<polygon fill="midnightblue" stroke="midnightblue" points="302.5,-85.75 299,-75.75 295.5,-85.75 302.5,-85.75"/>
</g>
<!-- Node16 -->
<g id="node16" class="node">
<title>Node16</title>
<g id="a_node16"><a xlink:href="lang_8hpp.html" target="_top" xlink:title=" ">
<polygon fill="none" stroke="black" points="337,-56.5 337,-75.5 417,-75.5 417,-56.5 337,-56.5"/>
<text text-anchor="middle" x="377" y="-63.5" font-family="Helvetica,sans-Serif" font-size="10.00">plang/lang.hpp</text>
</a>
</g>
</g>
<!-- Node13&#45;&gt;Node16 -->
<g id="edge18" class="edge">
<title>Node13&#45;&gt;Node16</title>
<path fill="none" stroke="midnightblue" d="M311.53,-112.32C323.59,-103.98 342.03,-91.21 356.27,-81.35"/>
<polygon fill="midnightblue" stroke="midnightblue" points="358.27,-84.22 364.5,-75.65 354.28,-78.47 358.27,-84.22"/>
</g>
<!-- Node17&#45;&gt;Node6 -->
<g id="edge21" class="edge">
<title>Node17&#45;&gt;Node6</title>
<path fill="none" stroke="midnightblue" d="M404.33,-168.46C361.59,-160.54 297,-147.93 232.26,-132.16"/>
<polygon fill="midnightblue" stroke="midnightblue" points="232.84,-128.7 222.29,-129.71 231.17,-135.5 232.84,-128.7"/>
</g>
<!-- Node17&#45;&gt;Node7 -->
<g id="edge22" class="edge">
<title>Node17&#45;&gt;Node7</title>
<path fill="none" stroke="midnightblue" d="M454.28,-168.37C458.98,-150.54 469.85,-109.3 476.18,-85.27"/>
<polygon fill="midnightblue" stroke="midnightblue" points="479.57,-86.15 478.73,-75.59 472.8,-84.37 479.57,-86.15"/>
</g>
<!-- Node17&#45;&gt;Node12 -->
<g id="edge20" class="edge">
<title>Node17&#45;&gt;Node12</title>
<path fill="none" stroke="midnightblue" d="M508.59,-174.58C540.76,-170.09 579.08,-158.91 602,-132 626.53,-103.19 624.63,-55.7 621.23,-29.6"/>
<polygon fill="midnightblue" stroke="midnightblue" points="624.66,-28.92 619.7,-19.56 617.74,-29.97 624.66,-28.92"/>
</g>
<!-- Node17&#45;&gt;Node13 -->
<g id="edge23" class="edge">
<title>Node17&#45;&gt;Node13</title>
<path fill="none" stroke="midnightblue" d="M427.76,-168.44C402.13,-159.4 361.51,-145.06 332.76,-134.92"/>
<polygon fill="midnightblue" stroke="midnightblue" points="333.72,-131.54 323.13,-131.52 331.39,-138.15 333.72,-131.54"/>
</g>
<!-- Node18 -->
<g id="node18" class="node">
<title>Node18</title>
<g id="a_node18"><a xlink:title=" ">
<polygon fill="none" stroke="#bfbfbf" points="509.5,-112.5 509.5,-131.5 592.5,-131.5 592.5,-112.5 509.5,-112.5"/>
<text text-anchor="middle" x="551" y="-119.5" font-family="Helvetica,sans-Serif" font-size="10.00">unordered_map</text>
</a>
</g>
</g>
<!-- Node17&#45;&gt;Node18 -->
<g id="edge24" class="edge">
<title>Node17&#45;&gt;Node18</title>
<path fill="none" stroke="midnightblue" d="M467.91,-168.32C483.64,-159.74 507.94,-146.49 526.21,-136.52"/>
<polygon fill="midnightblue" stroke="midnightblue" points="528.03,-139.52 535.13,-131.65 524.68,-133.37 528.03,-139.52"/>
</g>
<!-- Node19&#45;&gt;Node7 -->
<g id="edge26" class="edge">
<title>Node19&#45;&gt;Node7</title>
<path fill="none" stroke="midnightblue" d="M424.76,-112.32C434.77,-104.26 449.89,-92.08 461.93,-82.37"/>
<polygon fill="midnightblue" stroke="midnightblue" points="464.45,-84.83 470.04,-75.83 460.06,-79.38 464.45,-84.83"/>
</g>
</g>
</svg>
