<?xml version="1.0" encoding="UTF-8" standalone="no"?>
<!DOCTYPE svg PUBLIC "-//W3C//DTD SVG 1.1//EN"
 "http://www.w3.org/Graphics/SVG/1.1/DTD/svg11.dtd">
<!-- Generated by graphviz version 2.44.1 (20220725.2034)
 -->
<!-- Title: include/plang/corpus/plot.hpp Pages: 1 -->
<svg width="621pt" height="95pt"
 viewBox="0.00 0.00 620.50 95.00" xmlns="http://www.w3.org/2000/svg" xmlns:xlink="http://www.w3.org/1999/xlink">
<g id="graph0" class="graph" transform="scale(1 1) rotate(0) translate(4 91)">
<title>include/plang/corpus/plot.hpp</title>
<!-- Node1 -->
<g id="node1" class="node">
<title>Node1</title>
<g id="a_node1"><a xlink:title=" ">
<polygon fill="#bfbfbf" stroke="black" points="253,-56.5 253,-86.5 359,-86.5 359,-56.5 253,-56.5"/>
<text text-anchor="start" x="261" y="-74.5" font-family="Helvetica,sans-Serif" font-size="10.00">include/plang/corpus</text>
<text text-anchor="middle" x="306" y="-63.5" font-family="Helvetica,sans-Serif" font-size="10.00">/plot.hpp</text>
</a>
</g>
</g>
<!-- Node2 -->
<g id="node2" class="node">
<title>Node2</title>
<g id="a_node2"><a xlink:href="symbol_8hpp.html" target="_top" xlink:title=" ">
<polygon fill="none" stroke="black" points="0,-0.5 0,-19.5 144,-19.5 144,-0.5 0,-0.5"/>
<text text-anchor="middle" x="72" y="-7.5" font-family="Helvetica,sans-Serif" font-size="10.00">plang/corpus/plot/symbol.hpp</text>
</a>
</g>
</g>
<!-- Node1&#45;&gt;Node2 -->
<g id="edge1" class="edge">
<title>Node1&#45;&gt;Node2</title>
<path fill="none" stroke="midnightblue" d="M252.9,-57C211.43,-46.45 154.52,-31.98 115.67,-22.1"/>
<polygon fill="midnightblue" stroke="midnightblue" points="116.27,-18.65 105.72,-19.57 114.54,-25.43 116.27,-18.65"/>
</g>
<!-- Node3 -->
<g id="node3" class="node">
<title>Node3</title>
<g id="a_node3"><a xlink:href="point_8hpp.html" target="_top" xlink:title=" ">
<polygon fill="none" stroke="black" points="162,-0.5 162,-19.5 296,-19.5 296,-0.5 162,-0.5"/>
<text text-anchor="middle" x="229" y="-7.5" font-family="Helvetica,sans-Serif" font-size="10.00">plang/corpus/plot/point.hpp</text>
</a>
</g>
</g>
<!-- Node1&#45;&gt;Node3 -->
<g id="edge2" class="edge">
<title>Node1&#45;&gt;Node3</title>
<path fill="none" stroke="midnightblue" d="M287.75,-56.4C275.87,-47.22 260.39,-35.26 248.31,-25.92"/>
<polygon fill="midnightblue" stroke="midnightblue" points="250.26,-23 240.2,-19.66 245.98,-28.54 250.26,-23"/>
</g>
<!-- Node4 -->
<g id="node4" class="node">
<title>Node4</title>
<g id="a_node4"><a xlink:href="object_8hpp.html" target="_top" xlink:title=" ">
<polygon fill="none" stroke="black" points="314.5,-0.5 314.5,-19.5 453.5,-19.5 453.5,-0.5 314.5,-0.5"/>
<text text-anchor="middle" x="384" y="-7.5" font-family="Helvetica,sans-Serif" font-size="10.00">plang/corpus/plot/object.hpp</text>
</a>
</g>
</g>
<!-- Node1&#45;&gt;Node4 -->
<g id="edge3" class="edge">
<title>Node1&#45;&gt;Node4</title>
<path fill="none" stroke="midnightblue" d="M324.48,-56.4C336.52,-47.22 352.2,-35.26 364.44,-25.92"/>
<polygon fill="midnightblue" stroke="midnightblue" points="366.82,-28.51 372.65,-19.66 362.58,-22.94 366.82,-28.51"/>
</g>
<!-- Node5 -->
<g id="node5" class="node">
<title>Node5</title>
<g id="a_node5"><a xlink:href="causal_8hpp.html" target="_top" xlink:title=" ">
<polygon fill="none" stroke="black" points="471.5,-0.5 471.5,-19.5 612.5,-19.5 612.5,-0.5 471.5,-0.5"/>
<text text-anchor="middle" x="542" y="-7.5" font-family="Helvetica,sans-Serif" font-size="10.00">plang/corpus/plot/causal.hpp</text>
</a>
</g>
</g>
<!-- Node1&#45;&gt;Node5 -->
<g id="edge4" class="edge">
<title>Node1&#45;&gt;Node5</title>
<path fill="none" stroke="midnightblue" d="M359.26,-57.07C401.28,-46.48 459.16,-31.88 498.45,-21.98"/>
<polygon fill="midnightblue" stroke="midnightblue" points="499.42,-25.35 508.26,-19.51 497.71,-18.56 499.42,-25.35"/>
</g>
</g>
</svg>
