<?xml version="1.0" encoding="UTF-8" standalone="no"?>
<!DOCTYPE svg PUBLIC "-//W3C//DTD SVG 1.1//EN"
 "http://www.w3.org/Graphics/SVG/1.1/DTD/svg11.dtd">
<!-- Generated by graphviz version 2.44.1 (20220725.2034)
 -->
<!-- Title: include/plang/corpus.hpp Pages: 1 -->
<svg width="1110pt" height="476pt"
 viewBox="0.00 0.00 1110.03 476.00" xmlns="http://www.w3.org/2000/svg" xmlns:xlink="http://www.w3.org/1999/xlink">
<g id="graph0" class="graph" transform="scale(1 1) rotate(0) translate(4 472)">
<title>include/plang/corpus.hpp</title>
<!-- Node1 -->
<g id="node1" class="node">
<title>Node1</title>
<g id="a_node1"><a xlink:title=" ">
<polygon fill="#bfbfbf" stroke="black" points="179.5,-448.5 179.5,-467.5 304.5,-467.5 304.5,-448.5 179.5,-448.5"/>
<text text-anchor="middle" x="242" y="-455.5" font-family="Helvetica,sans-Serif" font-size="10.00">include/plang/corpus.hpp</text>
</a>
</g>
</g>
<!-- Node2 -->
<g id="node2" class="node">
<title>Node2</title>
<g id="a_node2"><a xlink:title=" ">
<polygon fill="none" stroke="#bfbfbf" points="0,-392.5 0,-411.5 32,-411.5 32,-392.5 0,-392.5"/>
<text text-anchor="middle" x="16" y="-399.5" font-family="Helvetica,sans-Serif" font-size="10.00">any</text>
</a>
</g>
</g>
<!-- Node1&#45;&gt;Node2 -->
<g id="edge1" class="edge">
<title>Node1&#45;&gt;Node2</title>
<path fill="none" stroke="midnightblue" d="M201.27,-448.47C161.49,-439.94 99.33,-426.1 46,-412 44.73,-411.66 43.43,-411.31 42.12,-410.95"/>
<polygon fill="midnightblue" stroke="midnightblue" points="42.72,-407.48 32.14,-408.05 40.77,-414.2 42.72,-407.48"/>
</g>
<!-- Node3 -->
<g id="node3" class="node">
<title>Node3</title>
<g id="a_node3"><a xlink:title=" ">
<polygon fill="none" stroke="#bfbfbf" points="90,-0.5 90,-19.5 136,-19.5 136,-0.5 90,-0.5"/>
<text text-anchor="middle" x="113" y="-7.5" font-family="Helvetica,sans-Serif" font-size="10.00">chrono</text>
</a>
</g>
</g>
<!-- Node1&#45;&gt;Node3 -->
<g id="edge2" class="edge">
<title>Node1&#45;&gt;Node3</title>
<path fill="none" stroke="midnightblue" d="M190.33,-448.5C136.53,-436.34 60,-408.29 60,-347 60,-347 60,-347 60,-121 60,-84.99 83.33,-48.34 99.04,-27.75"/>
<polygon fill="midnightblue" stroke="midnightblue" points="101.93,-29.73 105.41,-19.72 96.45,-25.38 101.93,-29.73"/>
</g>
<!-- Node4 -->
<g id="node4" class="node">
<title>Node4</title>
<g id="a_node4"><a xlink:title=" ">
<polygon fill="none" stroke="#bfbfbf" points="1027,-56.5 1027,-75.5 1089,-75.5 1089,-56.5 1027,-56.5"/>
<text text-anchor="middle" x="1058" y="-63.5" font-family="Helvetica,sans-Serif" font-size="10.00">filesystem</text>
</a>
</g>
</g>
<!-- Node1&#45;&gt;Node4 -->
<g id="edge3" class="edge">
<title>Node1&#45;&gt;Node4</title>
<path fill="none" stroke="midnightblue" d="M304.51,-456.36C451.91,-454.3 817.63,-445.83 935,-412 993.28,-395.2 1055,-407.65 1055,-347 1055,-347 1055,-347 1055,-177 1055,-144.94 1056.29,-107.63 1057.18,-85.74"/>
<polygon fill="midnightblue" stroke="midnightblue" points="1060.68,-85.69 1057.61,-75.56 1053.69,-85.4 1060.68,-85.69"/>
</g>
<!-- Node5 -->
<g id="node5" class="node">
<title>Node5</title>
<g id="a_node5"><a xlink:title=" ">
<polygon fill="none" stroke="#bfbfbf" points="126.5,-392.5 126.5,-411.5 175.5,-411.5 175.5,-392.5 126.5,-392.5"/>
<text text-anchor="middle" x="151" y="-399.5" font-family="Helvetica,sans-Serif" font-size="10.00">istream</text>
</a>
</g>
</g>
<!-- Node1&#45;&gt;Node5 -->
<g id="edge4" class="edge">
<title>Node1&#45;&gt;Node5</title>
<path fill="none" stroke="midnightblue" d="M227.38,-448.32C213.05,-439.82 190.99,-426.73 174.25,-416.8"/>
<polygon fill="midnightblue" stroke="midnightblue" points="175.97,-413.75 165.58,-411.65 172.4,-419.77 175.97,-413.75"/>
</g>
<!-- Node6 -->
<g id="node6" class="node">
<title>Node6</title>
<g id="a_node6"><a xlink:title=" ">
<polygon fill="none" stroke="#bfbfbf" points="963,-56.5 963,-75.5 1009,-75.5 1009,-56.5 963,-56.5"/>
<text text-anchor="middle" x="986" y="-63.5" font-family="Helvetica,sans-Serif" font-size="10.00">variant</text>
</a>
</g>
</g>
<!-- Node1&#45;&gt;Node6 -->
<g id="edge5" class="edge">
<title>Node1&#45;&gt;Node6</title>
<path fill="none" stroke="midnightblue" d="M304.67,-454.9C439.03,-450 750.96,-436.33 854,-412 927.9,-394.55 1012,-422.93 1012,-347 1012,-347 1012,-347 1012,-177 1012,-143.93 1000.73,-106.73 993.03,-85.17"/>
<polygon fill="midnightblue" stroke="midnightblue" points="996.27,-83.83 989.51,-75.68 989.71,-86.27 996.27,-83.83"/>
</g>
<!-- Node7 -->
<g id="node7" class="node">
<title>Node7</title>
<g id="a_node7"><a xlink:title=" ">
<polygon fill="none" stroke="#bfbfbf" points="364,-112.5 364,-131.5 408,-131.5 408,-112.5 364,-112.5"/>
<text text-anchor="middle" x="386" y="-119.5" font-family="Helvetica,sans-Serif" font-size="10.00">vector</text>
</a>
</g>
</g>
<!-- Node1&#45;&gt;Node7 -->
<g id="edge6" class="edge">
<title>Node1&#45;&gt;Node7</title>
<path fill="none" stroke="midnightblue" d="M239.72,-448.3C230.33,-410.38 198.28,-257.55 266,-168 286.59,-140.78 325.59,-130.02 353.55,-125.77"/>
<polygon fill="midnightblue" stroke="midnightblue" points="354.2,-129.22 363.66,-124.44 353.29,-122.28 354.2,-129.22"/>
</g>
<!-- Node8 -->
<g id="node8" class="node">
<title>Node8</title>
<g id="a_node8"><a xlink:href="base_8hpp.html" target="_top" xlink:title=" ">
<polygon fill="none" stroke="black" points="256.5,-56.5 256.5,-75.5 339.5,-75.5 339.5,-56.5 256.5,-56.5"/>
<text text-anchor="middle" x="298" y="-63.5" font-family="Helvetica,sans-Serif" font-size="10.00">plang/base.hpp</text>
</a>
</g>
</g>
<!-- Node1&#45;&gt;Node8 -->
<g id="edge7" class="edge">
<title>Node1&#45;&gt;Node8</title>
<path fill="none" stroke="midnightblue" d="M187.11,-448.45C163.02,-442.1 136.16,-431.08 118,-412 97.16,-390.1 98,-377.23 98,-347 98,-347 98,-347 98,-177 98,-109.38 186.85,-83.04 246.11,-72.98"/>
<polygon fill="midnightblue" stroke="midnightblue" points="246.75,-76.42 256.07,-71.4 245.65,-69.51 246.75,-76.42"/>
</g>
<!-- Node13 -->
<g id="node13" class="node">
<title>Node13</title>
<g id="a_node13"><a xlink:href="detail_8hpp.html" target="_top" xlink:title=" ">
<polygon fill="none" stroke="black" points="801.5,-112.5 801.5,-131.5 918.5,-131.5 918.5,-112.5 801.5,-112.5"/>
<text text-anchor="middle" x="860" y="-119.5" font-family="Helvetica,sans-Serif" font-size="10.00">plang/corpus/detail.hpp</text>
</a>
</g>
</g>
<!-- Node1&#45;&gt;Node13 -->
<g id="edge13" class="edge">
<title>Node1&#45;&gt;Node13</title>
<path fill="none" stroke="midnightblue" d="M304.73,-454.14C482.01,-445.23 974,-414.43 974,-347 974,-347 974,-347 974,-233 974,-186.11 923.45,-152.89 889.67,-135.93"/>
<polygon fill="midnightblue" stroke="midnightblue" points="891.17,-132.77 880.64,-131.58 888.13,-139.07 891.17,-132.77"/>
</g>
<!-- Node17 -->
<g id="node17" class="node">
<title>Node17</title>
<g id="a_node17"><a xlink:href="path_8hpp.html" target="_top" xlink:title=" ">
<polygon fill="none" stroke="black" points="642.5,-168.5 642.5,-187.5 755.5,-187.5 755.5,-168.5 642.5,-168.5"/>
<text text-anchor="middle" x="699" y="-175.5" font-family="Helvetica,sans-Serif" font-size="10.00">plang/corpus/path.hpp</text>
</a>
</g>
</g>
<!-- Node1&#45;&gt;Node17 -->
<g id="edge20" class="edge">
<title>Node1&#45;&gt;Node17</title>
<path fill="none" stroke="midnightblue" d="M304.65,-454.77C385.43,-450.83 529.8,-440.19 650,-412 729.56,-393.34 822,-428.72 822,-347 822,-347 822,-347 822,-289 822,-240.48 768.16,-208.01 731.73,-191.6"/>
<polygon fill="midnightblue" stroke="midnightblue" points="732.99,-188.33 722.42,-187.58 730.22,-194.76 732.99,-188.33"/>
</g>
<!-- Node19 -->
<g id="node19" class="node">
<title>Node19</title>
<g id="a_node19"><a xlink:href="corpus_2plot_8hpp.html" target="_top" xlink:title=" ">
<polygon fill="none" stroke="black" points="531,-392.5 531,-411.5 641,-411.5 641,-392.5 531,-392.5"/>
<text text-anchor="middle" x="586" y="-399.5" font-family="Helvetica,sans-Serif" font-size="10.00">plang/corpus/plot.hpp</text>
</a>
</g>
</g>
<!-- Node1&#45;&gt;Node19 -->
<g id="edge26" class="edge">
<title>Node1&#45;&gt;Node19</title>
<path fill="none" stroke="midnightblue" d="M296.51,-448.44C357.65,-438.85 456.74,-423.29 521.64,-413.1"/>
<polygon fill="midnightblue" stroke="midnightblue" points="522.41,-416.52 531.75,-411.52 521.33,-409.61 522.41,-416.52"/>
</g>
<!-- Node21 -->
<g id="node21" class="node">
<title>Node21</title>
<g id="a_node21"><a xlink:href="plot_8hpp.html" target="_top" xlink:title=" ">
<polygon fill="none" stroke="black" points="280.5,-168.5 280.5,-187.5 357.5,-187.5 357.5,-168.5 280.5,-168.5"/>
<text text-anchor="middle" x="319" y="-175.5" font-family="Helvetica,sans-Serif" font-size="10.00">plang/plot.hpp</text>
</a>
</g>
</g>
<!-- Node1&#45;&gt;Node21 -->
<g id="edge58" class="edge">
<title>Node1&#45;&gt;Node21</title>
<path fill="none" stroke="midnightblue" d="M244.39,-448.38C255.1,-409.7 298.84,-251.79 313.89,-197.47"/>
<polygon fill="midnightblue" stroke="midnightblue" points="317.34,-198.1 316.64,-187.52 310.6,-196.23 317.34,-198.1"/>
</g>
<!-- Node8&#45;&gt;Node3 -->
<g id="edge8" class="edge">
<title>Node8&#45;&gt;Node3</title>
<path fill="none" stroke="midnightblue" d="M268.69,-56.44C235.21,-46.67 180.58,-30.73 145.74,-20.56"/>
<polygon fill="midnightblue" stroke="midnightblue" points="146.62,-17.17 136.04,-17.73 144.66,-23.89 146.62,-17.17"/>
</g>
<!-- Node9 -->
<g id="node9" class="node">
<title>Node9</title>
<g id="a_node9"><a xlink:title=" ">
<polygon fill="none" stroke="#bfbfbf" points="276,-0.5 276,-19.5 320,-19.5 320,-0.5 276,-0.5"/>
<text text-anchor="middle" x="298" y="-7.5" font-family="Helvetica,sans-Serif" font-size="10.00">cmath</text>
</a>
</g>
</g>
<!-- Node8&#45;&gt;Node9 -->
<g id="edge9" class="edge">
<title>Node8&#45;&gt;Node9</title>
<path fill="none" stroke="midnightblue" d="M298,-56.08C298,-49.01 298,-38.86 298,-29.99"/>
<polygon fill="midnightblue" stroke="midnightblue" points="301.5,-29.75 298,-19.75 294.5,-29.75 301.5,-29.75"/>
</g>
<!-- Node10 -->
<g id="node10" class="node">
<title>Node10</title>
<g id="a_node10"><a xlink:title=" ">
<polygon fill="none" stroke="#bfbfbf" points="338,-0.5 338,-19.5 388,-19.5 388,-0.5 338,-0.5"/>
<text text-anchor="middle" x="363" y="-7.5" font-family="Helvetica,sans-Serif" font-size="10.00">optional</text>
</a>
</g>
</g>
<!-- Node8&#45;&gt;Node10 -->
<g id="edge10" class="edge">
<title>Node8&#45;&gt;Node10</title>
<path fill="none" stroke="midnightblue" d="M308.44,-56.32C318.15,-48.26 332.82,-36.08 344.5,-26.37"/>
<polygon fill="midnightblue" stroke="midnightblue" points="346.91,-28.92 352.37,-19.83 342.44,-23.53 346.91,-28.92"/>
</g>
<!-- Node11 -->
<g id="node11" class="node">
<title>Node11</title>
<g id="a_node11"><a xlink:title=" ">
<polygon fill="none" stroke="#bfbfbf" points="206,-0.5 206,-19.5 258,-19.5 258,-0.5 206,-0.5"/>
<text text-anchor="middle" x="232" y="-7.5" font-family="Helvetica,sans-Serif" font-size="10.00">sstream</text>
</a>
</g>
</g>
<!-- Node8&#45;&gt;Node11 -->
<g id="edge11" class="edge">
<title>Node8&#45;&gt;Node11</title>
<path fill="none" stroke="midnightblue" d="M287.4,-56.32C277.54,-48.26 262.65,-36.08 250.78,-26.37"/>
<polygon fill="midnightblue" stroke="midnightblue" points="252.75,-23.46 242.8,-19.83 248.32,-28.88 252.75,-23.46"/>
</g>
<!-- Node12 -->
<g id="node12" class="node">
<title>Node12</title>
<g id="a_node12"><a xlink:title=" ">
<polygon fill="none" stroke="#bfbfbf" points="642.5,-0.5 642.5,-19.5 683.5,-19.5 683.5,-0.5 642.5,-0.5"/>
<text text-anchor="middle" x="663" y="-7.5" font-family="Helvetica,sans-Serif" font-size="10.00">string</text>
</a>
</g>
</g>
<!-- Node8&#45;&gt;Node12 -->
<g id="edge12" class="edge">
<title>Node8&#45;&gt;Node12</title>
<path fill="none" stroke="midnightblue" d="M339.51,-58.86C413.5,-47.91 566.52,-25.27 632.08,-15.57"/>
<polygon fill="midnightblue" stroke="midnightblue" points="632.81,-19 642.19,-14.08 631.79,-12.08 632.81,-19"/>
</g>
<!-- Node13&#45;&gt;Node4 -->
<g id="edge14" class="edge">
<title>Node13&#45;&gt;Node4</title>
<path fill="none" stroke="midnightblue" d="M891.37,-112.44C925.26,-103.2 979.4,-88.44 1016.72,-78.26"/>
<polygon fill="midnightblue" stroke="midnightblue" points="1018.05,-81.52 1026.77,-75.52 1016.2,-74.77 1018.05,-81.52"/>
</g>
<!-- Node13&#45;&gt;Node6 -->
<g id="edge17" class="edge">
<title>Node13&#45;&gt;Node6</title>
<path fill="none" stroke="midnightblue" d="M879.97,-112.44C900.61,-103.6 933.06,-89.69 956.63,-79.59"/>
<polygon fill="midnightblue" stroke="midnightblue" points="958.32,-82.67 966.13,-75.52 955.56,-76.24 958.32,-82.67"/>
</g>
<!-- Node13&#45;&gt;Node8 -->
<g id="edge18" class="edge">
<title>Node13&#45;&gt;Node8</title>
<path fill="none" stroke="midnightblue" d="M801.45,-115.37C691.26,-104.79 454.74,-82.06 349.88,-71.99"/>
<polygon fill="midnightblue" stroke="midnightblue" points="350.14,-68.49 339.85,-71.02 349.47,-75.46 350.14,-68.49"/>
</g>
<!-- Node14 -->
<g id="node14" class="node">
<title>Node14</title>
<g id="a_node14"><a xlink:title=" ">
<polygon fill="none" stroke="#bfbfbf" points="827.5,-56.5 827.5,-75.5 886.5,-75.5 886.5,-56.5 827.5,-56.5"/>
<text text-anchor="middle" x="857" y="-63.5" font-family="Helvetica,sans-Serif" font-size="10.00">functional</text>
</a>
</g>
</g>
<!-- Node13&#45;&gt;Node14 -->
<g id="edge15" class="edge">
<title>Node13&#45;&gt;Node14</title>
<path fill="none" stroke="midnightblue" d="M859.5,-112.08C859.11,-105.01 858.55,-94.86 858.05,-85.99"/>
<polygon fill="midnightblue" stroke="midnightblue" points="861.54,-85.54 857.49,-75.75 854.55,-85.93 861.54,-85.54"/>
</g>
<!-- Node15 -->
<g id="node15" class="node">
<title>Node15</title>
<g id="a_node15"><a xlink:title=" ">
<polygon fill="none" stroke="#bfbfbf" points="905,-56.5 905,-75.5 945,-75.5 945,-56.5 905,-56.5"/>
<text text-anchor="middle" x="925" y="-63.5" font-family="Helvetica,sans-Serif" font-size="10.00">utility</text>
</a>
</g>
</g>
<!-- Node13&#45;&gt;Node15 -->
<g id="edge16" class="edge">
<title>Node13&#45;&gt;Node15</title>
<path fill="none" stroke="midnightblue" d="M870.44,-112.32C880.15,-104.26 894.82,-92.08 906.5,-82.37"/>
<polygon fill="midnightblue" stroke="midnightblue" points="908.91,-84.92 914.37,-75.83 904.44,-79.53 908.91,-84.92"/>
</g>
<!-- Node16 -->
<g id="node16" class="node">
<title>Node16</title>
<g id="a_node16"><a xlink:href="lang_8hpp.html" target="_top" xlink:title=" ">
<polygon fill="none" stroke="black" points="729,-56.5 729,-75.5 809,-75.5 809,-56.5 729,-56.5"/>
<text text-anchor="middle" x="769" y="-63.5" font-family="Helvetica,sans-Serif" font-size="10.00">plang/lang.hpp</text>
</a>
</g>
</g>
<!-- Node13&#45;&gt;Node16 -->
<g id="edge19" class="edge">
<title>Node13&#45;&gt;Node16</title>
<path fill="none" stroke="midnightblue" d="M845.38,-112.32C831.05,-103.82 808.99,-90.73 792.25,-80.8"/>
<polygon fill="midnightblue" stroke="midnightblue" points="793.97,-77.75 783.58,-75.65 790.4,-83.77 793.97,-77.75"/>
</g>
<!-- Node17&#45;&gt;Node7 -->
<g id="edge22" class="edge">
<title>Node17&#45;&gt;Node7</title>
<path fill="none" stroke="midnightblue" d="M648.76,-168.44C596.01,-159.44 510.66,-144.82 437,-132 430.93,-130.94 424.45,-129.81 418.22,-128.71"/>
<polygon fill="midnightblue" stroke="midnightblue" points="418.54,-125.21 408.09,-126.92 417.33,-132.11 418.54,-125.21"/>
</g>
<!-- Node17&#45;&gt;Node8 -->
<g id="edge24" class="edge">
<title>Node17&#45;&gt;Node8</title>
<path fill="none" stroke="midnightblue" d="M687.96,-168.42C669.06,-154.2 628.77,-125.95 590,-112 509.41,-83.01 409.72,-72.69 350.14,-69.02"/>
<polygon fill="midnightblue" stroke="midnightblue" points="350.04,-65.51 339.85,-68.43 349.64,-72.5 350.04,-65.51"/>
</g>
<!-- Node17&#45;&gt;Node12 -->
<g id="edge21" class="edge">
<title>Node17&#45;&gt;Node12</title>
<path fill="none" stroke="midnightblue" d="M697.06,-168.08C691.4,-141.95 674.76,-65.21 667.03,-29.58"/>
<polygon fill="midnightblue" stroke="midnightblue" points="670.4,-28.6 664.86,-19.57 663.56,-30.08 670.4,-28.6"/>
</g>
<!-- Node17&#45;&gt;Node13 -->
<g id="edge25" class="edge">
<title>Node17&#45;&gt;Node13</title>
<path fill="none" stroke="midnightblue" d="M724.51,-168.44C751.6,-159.36 794.59,-144.94 824.87,-134.78"/>
<polygon fill="midnightblue" stroke="midnightblue" points="826.24,-138.01 834.61,-131.52 824.01,-131.38 826.24,-138.01"/>
</g>
<!-- Node18 -->
<g id="node18" class="node">
<title>Node18</title>
<g id="a_node18"><a xlink:title=" ">
<polygon fill="none" stroke="#bfbfbf" points="445.5,-112.5 445.5,-131.5 528.5,-131.5 528.5,-112.5 445.5,-112.5"/>
<text text-anchor="middle" x="487" y="-119.5" font-family="Helvetica,sans-Serif" font-size="10.00">unordered_map</text>
</a>
</g>
</g>
<!-- Node17&#45;&gt;Node18 -->
<g id="edge23" class="edge">
<title>Node17&#45;&gt;Node18</title>
<path fill="none" stroke="midnightblue" d="M665.41,-168.44C628.81,-159.12 570.16,-144.18 530.17,-134"/>
<polygon fill="midnightblue" stroke="midnightblue" points="530.99,-130.59 520.43,-131.52 529.26,-137.38 530.99,-130.59"/>
</g>
<!-- Node20 -->
<g id="node20" class="node">
<title>Node20</title>
<g id="a_node20"><a xlink:href="symbol_8hpp.html" target="_top" xlink:title=" ">
<polygon fill="none" stroke="black" points="536,-224.5 536,-243.5 680,-243.5 680,-224.5 536,-224.5"/>
<text text-anchor="middle" x="608" y="-231.5" font-family="Helvetica,sans-Serif" font-size="10.00">plang/corpus/plot/symbol.hpp</text>
</a>
</g>
</g>
<!-- Node19&#45;&gt;Node20 -->
<g id="edge27" class="edge">
<title>Node19&#45;&gt;Node20</title>
<path fill="none" stroke="midnightblue" d="M588.35,-392.44C592.99,-375.14 603.16,-334.71 607,-300 608.71,-284.56 608.87,-266.92 608.65,-253.93"/>
<polygon fill="midnightblue" stroke="midnightblue" points="612.15,-253.77 608.39,-243.86 605.15,-253.95 612.15,-253.77"/>
</g>
<!-- Node22 -->
<g id="node22" class="node">
<title>Node22</title>
<g id="a_node22"><a xlink:href="point_8hpp.html" target="_top" xlink:title=" ">
<polygon fill="none" stroke="black" points="424,-336.5 424,-355.5 558,-355.5 558,-336.5 424,-336.5"/>
<text text-anchor="middle" x="491" y="-343.5" font-family="Helvetica,sans-Serif" font-size="10.00">plang/corpus/plot/point.hpp</text>
</a>
</g>
</g>
<!-- Node19&#45;&gt;Node22 -->
<g id="edge38" class="edge">
<title>Node19&#45;&gt;Node22</title>
<path fill="none" stroke="midnightblue" d="M570.74,-392.32C555.78,-383.82 532.75,-370.73 515.27,-360.8"/>
<polygon fill="midnightblue" stroke="midnightblue" points="516.65,-357.55 506.23,-355.65 513.19,-363.64 516.65,-357.55"/>
</g>
<!-- Node23 -->
<g id="node23" class="node">
<title>Node23</title>
<g id="a_node23"><a xlink:href="object_8hpp.html" target="_top" xlink:title=" ">
<polygon fill="none" stroke="black" points="439.5,-280.5 439.5,-299.5 578.5,-299.5 578.5,-280.5 439.5,-280.5"/>
<text text-anchor="middle" x="509" y="-287.5" font-family="Helvetica,sans-Serif" font-size="10.00">plang/corpus/plot/object.hpp</text>
</a>
</g>
</g>
<!-- Node19&#45;&gt;Node23 -->
<g id="edge56" class="edge">
<title>Node19&#45;&gt;Node23</title>
<path fill="none" stroke="midnightblue" d="M585.17,-392.28C583.56,-379.08 579.04,-353.69 567,-336 558.43,-323.41 545.22,-312.76 533.57,-304.99"/>
<polygon fill="midnightblue" stroke="midnightblue" points="535.39,-302.01 525.06,-299.63 531.65,-307.93 535.39,-302.01"/>
</g>
<!-- Node24 -->
<g id="node24" class="node">
<title>Node24</title>
<g id="a_node24"><a xlink:href="causal_8hpp.html" target="_top" xlink:title=" ">
<polygon fill="none" stroke="black" points="652.5,-336.5 652.5,-355.5 793.5,-355.5 793.5,-336.5 652.5,-336.5"/>
<text text-anchor="middle" x="723" y="-343.5" font-family="Helvetica,sans-Serif" font-size="10.00">plang/corpus/plot/causal.hpp</text>
</a>
</g>
</g>
<!-- Node19&#45;&gt;Node24 -->
<g id="edge57" class="edge">
<title>Node19&#45;&gt;Node24</title>
<path fill="none" stroke="midnightblue" d="M607.71,-392.44C630.35,-383.52 666.07,-369.44 691.75,-359.32"/>
<polygon fill="midnightblue" stroke="midnightblue" points="693.37,-362.44 701.39,-355.52 690.81,-355.93 693.37,-362.44"/>
</g>
<!-- Node20&#45;&gt;Node7 -->
<g id="edge29" class="edge">
<title>Node20&#45;&gt;Node7</title>
<path fill="none" stroke="midnightblue" d="M590.58,-224.37C551.84,-205.17 458.34,-158.84 412.39,-136.07"/>
<polygon fill="midnightblue" stroke="midnightblue" points="413.85,-132.9 403.34,-131.59 410.75,-139.17 413.85,-132.9"/>
</g>
<!-- Node20&#45;&gt;Node8 -->
<g id="edge31" class="edge">
<title>Node20&#45;&gt;Node8</title>
<path fill="none" stroke="midnightblue" d="M605.7,-224.26C599.27,-201.63 578.81,-140.88 538,-112 508.4,-91.05 411.15,-78 349.91,-71.65"/>
<polygon fill="midnightblue" stroke="midnightblue" points="349.97,-68.14 339.66,-70.62 349.26,-75.1 349.97,-68.14"/>
</g>
<!-- Node20&#45;&gt;Node12 -->
<g id="edge28" class="edge">
<title>Node20&#45;&gt;Node12</title>
<path fill="none" stroke="midnightblue" d="M610.16,-224.3C618.27,-191.56 647.05,-75.38 658.38,-29.67"/>
<polygon fill="midnightblue" stroke="midnightblue" points="661.79,-30.43 660.8,-19.88 655,-28.75 661.79,-30.43"/>
</g>
<!-- Node20&#45;&gt;Node13 -->
<g id="edge32" class="edge">
<title>Node20&#45;&gt;Node13</title>
<path fill="none" stroke="midnightblue" d="M651.66,-224.45C683.93,-217.19 728.44,-205.2 765,-188 793.75,-174.48 823.43,-152.68 841.8,-138.1"/>
<polygon fill="midnightblue" stroke="midnightblue" points="844.27,-140.6 849.85,-131.6 839.87,-135.16 844.27,-140.6"/>
</g>
<!-- Node20&#45;&gt;Node17 -->
<g id="edge33" class="edge">
<title>Node20&#45;&gt;Node17</title>
<path fill="none" stroke="midnightblue" d="M622.62,-224.32C636.95,-215.82 659.01,-202.73 675.75,-192.8"/>
<polygon fill="midnightblue" stroke="midnightblue" points="677.6,-195.77 684.42,-187.65 674.03,-189.75 677.6,-195.77"/>
</g>
<!-- Node20&#45;&gt;Node18 -->
<g id="edge30" class="edge">
<title>Node20&#45;&gt;Node18</title>
<path fill="none" stroke="midnightblue" d="M598.51,-224.37C578.1,-205.81 529.8,-161.91 503.98,-138.44"/>
<polygon fill="midnightblue" stroke="midnightblue" points="506.2,-135.73 496.45,-131.59 501.5,-140.91 506.2,-135.73"/>
</g>
<!-- Node20&#45;&gt;Node21 -->
<g id="edge34" class="edge">
<title>Node20&#45;&gt;Node21</title>
<path fill="none" stroke="midnightblue" d="M562.21,-224.44C509.13,-214.53 422.01,-198.25 367.71,-188.1"/>
<polygon fill="midnightblue" stroke="midnightblue" points="368.11,-184.62 357.64,-186.22 366.83,-191.5 368.11,-184.62"/>
</g>
<!-- Node21&#45;&gt;Node6 -->
<g id="edge35" class="edge">
<title>Node21&#45;&gt;Node6</title>
<path fill="none" stroke="midnightblue" d="M320.93,-168.42C324.69,-153.93 334.49,-124.93 355,-112 409.31,-77.76 853.44,-86.36 952.8,-75.52"/>
<polygon fill="midnightblue" stroke="midnightblue" points="953.27,-78.98 962.71,-74.17 952.33,-72.05 953.27,-78.98"/>
</g>
<!-- Node21&#45;&gt;Node7 -->
<g id="edge36" class="edge">
<title>Node21&#45;&gt;Node7</title>
<path fill="none" stroke="midnightblue" d="M329.76,-168.32C339.77,-160.26 354.89,-148.08 366.93,-138.37"/>
<polygon fill="midnightblue" stroke="midnightblue" points="369.45,-140.83 375.04,-131.83 365.06,-135.38 369.45,-140.83"/>
</g>
<!-- Node21&#45;&gt;Node8 -->
<g id="edge37" class="edge">
<title>Node21&#45;&gt;Node8</title>
<path fill="none" stroke="midnightblue" d="M317.35,-168.37C313.96,-150.62 306.15,-109.67 301.55,-85.6"/>
<polygon fill="midnightblue" stroke="midnightblue" points="304.95,-84.76 299.64,-75.59 298.08,-86.07 304.95,-84.76"/>
</g>
<!-- Node22&#45;&gt;Node7 -->
<g id="edge40" class="edge">
<title>Node22&#45;&gt;Node7</title>
<path fill="none" stroke="midnightblue" d="M444.79,-336.43C417.67,-329.76 383.77,-318.44 358,-300 306.96,-263.48 292.18,-247.43 272,-188 259.34,-150.73 315.68,-134.16 353.66,-127.33"/>
<polygon fill="midnightblue" stroke="midnightblue" points="354.52,-130.73 363.82,-125.65 353.38,-123.83 354.52,-130.73"/>
</g>
<!-- Node22&#45;&gt;Node8 -->
<g id="edge42" class="edge">
<title>Node22&#45;&gt;Node8</title>
<path fill="none" stroke="midnightblue" d="M424.4,-336.45C392.93,-330.08 356,-319.04 327,-300 300.31,-282.48 298.02,-271.62 282,-244 252.23,-192.67 241.36,-167.63 262,-112 266.07,-101.03 273.94,-90.68 281.29,-82.69"/>
<polygon fill="midnightblue" stroke="midnightblue" points="283.79,-85.13 288.3,-75.54 278.8,-80.23 283.79,-85.13"/>
</g>
<!-- Node22&#45;&gt;Node12 -->
<g id="edge39" class="edge">
<title>Node22&#45;&gt;Node12</title>
<path fill="none" stroke="midnightblue" d="M558.09,-340.4C692.6,-326.99 991.46,-275.06 1098,-76 1102.19,-68.16 1103.95,-62.6 1098,-56 1070.95,-26.01 788.3,-14.78 693.67,-11.85"/>
<polygon fill="midnightblue" stroke="midnightblue" points="693.69,-8.35 683.59,-11.55 693.48,-15.35 693.69,-8.35"/>
</g>
<!-- Node22&#45;&gt;Node13 -->
<g id="edge43" class="edge">
<title>Node22&#45;&gt;Node13</title>
<path fill="none" stroke="midnightblue" d="M558.22,-339.38C630.47,-330.22 745.26,-306.28 822,-244 844.97,-225.36 849.23,-216.26 858,-188 862.66,-172.99 862.84,-155.08 862.04,-141.87"/>
<polygon fill="midnightblue" stroke="midnightblue" points="865.51,-141.32 861.17,-131.65 858.53,-141.91 865.51,-141.32"/>
</g>
<!-- Node22&#45;&gt;Node17 -->
<g id="edge44" class="edge">
<title>Node22&#45;&gt;Node17</title>
<path fill="none" stroke="midnightblue" d="M548.68,-336.42C600.81,-325.19 674.24,-299.89 707,-244 715.34,-229.77 711.66,-210.8 706.91,-197.03"/>
<polygon fill="midnightblue" stroke="midnightblue" points="710.15,-195.71 703.24,-187.68 703.63,-198.27 710.15,-195.71"/>
</g>
<!-- Node22&#45;&gt;Node18 -->
<g id="edge41" class="edge">
<title>Node22&#45;&gt;Node18</title>
<path fill="none" stroke="midnightblue" d="M471.7,-336.48C457.57,-329.08 439.44,-316.89 431,-300 403.2,-244.4 449.07,-172.11 473.39,-139.84"/>
<polygon fill="midnightblue" stroke="midnightblue" points="476.23,-141.89 479.6,-131.85 470.7,-137.6 476.23,-141.89"/>
</g>
<!-- Node22&#45;&gt;Node20 -->
<g id="edge45" class="edge">
<title>Node22&#45;&gt;Node20</title>
<path fill="none" stroke="midnightblue" d="M526.36,-336.4C546.99,-329.68 572.01,-318.32 588,-300 599.27,-287.08 604.19,-267.91 606.34,-253.73"/>
<polygon fill="midnightblue" stroke="midnightblue" points="609.83,-253.99 607.53,-243.65 602.88,-253.17 609.83,-253.99"/>
</g>
<!-- Node22&#45;&gt;Node21 -->
<g id="edge55" class="edge">
<title>Node22&#45;&gt;Node21</title>
<path fill="none" stroke="midnightblue" d="M451.78,-336.49C428.63,-329.81 400.03,-318.46 380,-300 348.97,-271.41 331.47,-223.48 323.78,-197.35"/>
<polygon fill="midnightblue" stroke="midnightblue" points="327.12,-196.3 321.08,-187.6 320.38,-198.17 327.12,-196.3"/>
</g>
<!-- Node22&#45;&gt;Node23 -->
<g id="edge46" class="edge">
<title>Node22&#45;&gt;Node23</title>
<path fill="none" stroke="midnightblue" d="M493.97,-336.08C496.38,-328.85 499.86,-318.41 502.87,-309.4"/>
<polygon fill="midnightblue" stroke="midnightblue" points="506.24,-310.34 506.08,-299.75 499.6,-308.13 506.24,-310.34"/>
</g>
<!-- Node23&#45;&gt;Node7 -->
<g id="edge48" class="edge">
<title>Node23&#45;&gt;Node7</title>
<path fill="none" stroke="midnightblue" d="M502.39,-280.08C482.69,-253.49 424.19,-174.54 398.42,-139.76"/>
<polygon fill="midnightblue" stroke="midnightblue" points="401.11,-137.52 392.35,-131.57 395.49,-141.69 401.11,-137.52"/>
</g>
<!-- Node23&#45;&gt;Node8 -->
<g id="edge50" class="edge">
<title>Node23&#45;&gt;Node8</title>
<path fill="none" stroke="midnightblue" d="M439.29,-280.5C383.21,-269.54 308.04,-244.59 272,-188 251.32,-155.52 272.33,-109.22 286.8,-84.36"/>
<polygon fill="midnightblue" stroke="midnightblue" points="289.88,-86.04 292.11,-75.68 283.91,-82.39 289.88,-86.04"/>
</g>
<!-- Node23&#45;&gt;Node12 -->
<g id="edge47" class="edge">
<title>Node23&#45;&gt;Node12</title>
<path fill="none" stroke="midnightblue" d="M578.62,-286.61C643.75,-279.95 735.31,-257.93 765,-188 778.92,-155.21 708.18,-64.88 677.08,-27.51"/>
<polygon fill="midnightblue" stroke="midnightblue" points="679.54,-25.01 670.43,-19.61 674.19,-29.51 679.54,-25.01"/>
</g>
<!-- Node23&#45;&gt;Node13 -->
<g id="edge51" class="edge">
<title>Node23&#45;&gt;Node13</title>
<path fill="none" stroke="midnightblue" d="M578.71,-285.36C652.8,-280.25 763.89,-268.65 798,-244 832.64,-218.96 849.29,-168.82 856.08,-141.6"/>
<polygon fill="midnightblue" stroke="midnightblue" points="859.5,-142.32 858.34,-131.78 852.68,-140.74 859.5,-142.32"/>
</g>
<!-- Node23&#45;&gt;Node17 -->
<g id="edge52" class="edge">
<title>Node23&#45;&gt;Node17</title>
<path fill="none" stroke="midnightblue" d="M573.71,-280.46C618.76,-273.15 673.43,-261.08 689,-244 700.17,-231.75 701.88,-212.49 701.28,-198.11"/>
<polygon fill="midnightblue" stroke="midnightblue" points="704.74,-197.53 700.43,-187.85 697.77,-198.1 704.74,-197.53"/>
</g>
<!-- Node23&#45;&gt;Node18 -->
<g id="edge49" class="edge">
<title>Node23&#45;&gt;Node18</title>
<path fill="none" stroke="midnightblue" d="M507.82,-280.08C504.35,-253.95 494.18,-177.21 489.46,-141.58"/>
<polygon fill="midnightblue" stroke="midnightblue" points="492.92,-141.02 488.14,-131.57 485.98,-141.94 492.92,-141.02"/>
</g>
<!-- Node23&#45;&gt;Node20 -->
<g id="edge53" class="edge">
<title>Node23&#45;&gt;Node20</title>
<path fill="none" stroke="midnightblue" d="M524.91,-280.32C540.64,-271.74 564.94,-258.49 583.21,-248.52"/>
<polygon fill="midnightblue" stroke="midnightblue" points="585.03,-251.52 592.13,-243.65 581.68,-245.37 585.03,-251.52"/>
</g>
<!-- Node23&#45;&gt;Node21 -->
<g id="edge54" class="edge">
<title>Node23&#45;&gt;Node21</title>
<path fill="none" stroke="midnightblue" d="M494.09,-280.37C461.21,-261.33 382.24,-215.62 342.58,-192.65"/>
<polygon fill="midnightblue" stroke="midnightblue" points="344.25,-189.57 333.84,-187.59 340.74,-195.63 344.25,-189.57"/>
</g>
</g>
</svg>
