<?xml version="1.0" encoding="UTF-8" standalone="no"?>
<!DOCTYPE svg PUBLIC "-//W3C//DTD SVG 1.1//EN"
 "http://www.w3.org/Graphics/SVG/1.1/DTD/svg11.dtd">
<!-- Generated by graphviz version 2.44.1 (20220725.2034)
 -->
<!-- Title: include/plang/corpus/plot.hpp Pages: 1 -->
<svg width="768pt" height="431pt"
 viewBox="0.00 0.00 768.00 431.00" xmlns="http://www.w3.org/2000/svg" xmlns:xlink="http://www.w3.org/1999/xlink">
<g id="graph0" class="graph" transform="scale(1 1) rotate(0) translate(4 427)">
<title>include/plang/corpus/plot.hpp</title>
<!-- Node1 -->
<g id="node1" class="node">
<title>Node1</title>
<g id="a_node1"><a xlink:title=" ">
<polygon fill="#bfbfbf" stroke="black" points="397,-392.5 397,-422.5 503,-422.5 503,-392.5 397,-392.5"/>
<text text-anchor="start" x="405" y="-410.5" font-family="Helvetica,sans-Serif" font-size="10.00">include/plang/corpus</text>
<text text-anchor="middle" x="450" y="-399.5" font-family="Helvetica,sans-Serif" font-size="10.00">/plot.hpp</text>
</a>
</g>
</g>
<!-- Node2 -->
<g id="node2" class="node">
<title>Node2</title>
<g id="a_node2"><a xlink:href="symbol_8hpp.html" target="_top" xlink:title=" ">
<polygon fill="none" stroke="black" points="431,-224.5 431,-243.5 575,-243.5 575,-224.5 431,-224.5"/>
<text text-anchor="middle" x="503" y="-231.5" font-family="Helvetica,sans-Serif" font-size="10.00">plang/corpus/plot/symbol.hpp</text>
</a>
</g>
</g>
<!-- Node1&#45;&gt;Node2 -->
<g id="edge1" class="edge">
<title>Node1&#45;&gt;Node2</title>
<path fill="none" stroke="midnightblue" d="M459.96,-392.1C466.29,-382.32 474.18,-368.88 479,-356 492.04,-321.2 498.43,-277.99 501.19,-253.75"/>
<polygon fill="midnightblue" stroke="midnightblue" points="504.68,-254.09 502.24,-243.77 497.71,-253.35 504.68,-254.09"/>
</g>
<!-- Node19 -->
<g id="node19" class="node">
<title>Node19</title>
<g id="a_node19"><a xlink:href="point_8hpp.html" target="_top" xlink:title=" ">
<polygon fill="none" stroke="black" points="336,-336.5 336,-355.5 470,-355.5 470,-336.5 336,-336.5"/>
<text text-anchor="middle" x="403" y="-343.5" font-family="Helvetica,sans-Serif" font-size="10.00">plang/corpus/plot/point.hpp</text>
</a>
</g>
</g>
<!-- Node1&#45;&gt;Node19 -->
<g id="edge28" class="edge">
<title>Node1&#45;&gt;Node19</title>
<path fill="none" stroke="midnightblue" d="M438.86,-392.4C432.03,-383.75 423.26,-372.64 416.09,-363.58"/>
<polygon fill="midnightblue" stroke="midnightblue" points="418.78,-361.34 409.84,-355.66 413.29,-365.67 418.78,-361.34"/>
</g>
<!-- Node20 -->
<g id="node20" class="node">
<title>Node20</title>
<g id="a_node20"><a xlink:href="object_8hpp.html" target="_top" xlink:title=" ">
<polygon fill="none" stroke="black" points="181.5,-280.5 181.5,-299.5 320.5,-299.5 320.5,-280.5 181.5,-280.5"/>
<text text-anchor="middle" x="251" y="-287.5" font-family="Helvetica,sans-Serif" font-size="10.00">plang/corpus/plot/object.hpp</text>
</a>
</g>
</g>
<!-- Node1&#45;&gt;Node20 -->
<g id="edge46" class="edge">
<title>Node1&#45;&gt;Node20</title>
<path fill="none" stroke="midnightblue" d="M406.55,-392.5C382.24,-383.74 351.92,-371.23 327,-356 304,-341.94 280.95,-321.03 266.36,-306.75"/>
<polygon fill="midnightblue" stroke="midnightblue" points="268.73,-304.17 259.18,-299.58 263.79,-309.12 268.73,-304.17"/>
</g>
<!-- Node21 -->
<g id="node21" class="node">
<title>Node21</title>
<g id="a_node21"><a xlink:href="causal_8hpp.html" target="_top" xlink:title=" ">
<polygon fill="none" stroke="black" points="526.5,-336.5 526.5,-355.5 667.5,-355.5 667.5,-336.5 526.5,-336.5"/>
<text text-anchor="middle" x="597" y="-343.5" font-family="Helvetica,sans-Serif" font-size="10.00">plang/corpus/plot/causal.hpp</text>
</a>
</g>
</g>
<!-- Node1&#45;&gt;Node21 -->
<g id="edge47" class="edge">
<title>Node1&#45;&gt;Node21</title>
<path fill="none" stroke="midnightblue" d="M484.84,-392.4C509.5,-382.42 542.29,-369.15 566.03,-359.53"/>
<polygon fill="midnightblue" stroke="midnightblue" points="567.65,-362.65 575.61,-355.66 565.03,-356.17 567.65,-362.65"/>
</g>
<!-- Node3 -->
<g id="node3" class="node">
<title>Node3</title>
<g id="a_node3"><a xlink:title=" ">
<polygon fill="none" stroke="#bfbfbf" points="101.5,-0.5 101.5,-19.5 142.5,-19.5 142.5,-0.5 101.5,-0.5"/>
<text text-anchor="middle" x="122" y="-7.5" font-family="Helvetica,sans-Serif" font-size="10.00">string</text>
</a>
</g>
</g>
<!-- Node2&#45;&gt;Node3 -->
<g id="edge2" class="edge">
<title>Node2&#45;&gt;Node3</title>
<path fill="none" stroke="midnightblue" d="M503.66,-224.31C505.34,-195.31 506.46,-101.15 455,-56 410.38,-16.85 226.29,-11.51 152.65,-10.96"/>
<polygon fill="midnightblue" stroke="midnightblue" points="152.63,-7.46 142.62,-10.91 152.6,-14.46 152.63,-7.46"/>
</g>
<!-- Node4 -->
<g id="node4" class="node">
<title>Node4</title>
<g id="a_node4"><a xlink:title=" ">
<polygon fill="none" stroke="#bfbfbf" points="507,-112.5 507,-131.5 551,-131.5 551,-112.5 507,-112.5"/>
<text text-anchor="middle" x="529" y="-119.5" font-family="Helvetica,sans-Serif" font-size="10.00">vector</text>
</a>
</g>
</g>
<!-- Node2&#45;&gt;Node4 -->
<g id="edge3" class="edge">
<title>Node2&#45;&gt;Node4</title>
<path fill="none" stroke="midnightblue" d="M508.76,-224.49C514.32,-215.75 522.4,-201.57 526,-188 530.03,-172.8 530.57,-154.91 530.21,-141.75"/>
<polygon fill="midnightblue" stroke="midnightblue" points="533.7,-141.41 529.74,-131.59 526.71,-141.74 533.7,-141.41"/>
</g>
<!-- Node5 -->
<g id="node5" class="node">
<title>Node5</title>
<g id="a_node5"><a xlink:title=" ">
<polygon fill="none" stroke="#bfbfbf" points="66.5,-112.5 66.5,-131.5 149.5,-131.5 149.5,-112.5 66.5,-112.5"/>
<text text-anchor="middle" x="108" y="-119.5" font-family="Helvetica,sans-Serif" font-size="10.00">unordered_map</text>
</a>
</g>
</g>
<!-- Node2&#45;&gt;Node5 -->
<g id="edge4" class="edge">
<title>Node2&#45;&gt;Node5</title>
<path fill="none" stroke="midnightblue" d="M430.78,-230.35C369.92,-226.16 281.44,-215.42 209,-188 177.38,-176.03 145.29,-153.14 126.01,-137.97"/>
<polygon fill="midnightblue" stroke="midnightblue" points="128.09,-135.15 118.11,-131.61 123.71,-140.61 128.09,-135.15"/>
</g>
<!-- Node6 -->
<g id="node6" class="node">
<title>Node6</title>
<g id="a_node6"><a xlink:href="base_8hpp.html" target="_top" xlink:title=" ">
<polygon fill="none" stroke="black" points="566.5,-56.5 566.5,-75.5 649.5,-75.5 649.5,-56.5 566.5,-56.5"/>
<text text-anchor="middle" x="608" y="-63.5" font-family="Helvetica,sans-Serif" font-size="10.00">plang/base.hpp</text>
</a>
</g>
</g>
<!-- Node2&#45;&gt;Node6 -->
<g id="edge5" class="edge">
<title>Node2&#45;&gt;Node6</title>
<path fill="none" stroke="midnightblue" d="M560.74,-224.46C601.92,-217.05 652.19,-204.85 665,-188 690.74,-154.14 650.46,-106.78 625.46,-82.58"/>
<polygon fill="midnightblue" stroke="midnightblue" points="627.68,-79.86 617.99,-75.59 622.9,-84.97 627.68,-79.86"/>
</g>
<!-- Node11 -->
<g id="node11" class="node">
<title>Node11</title>
<g id="a_node11"><a xlink:href="detail_8hpp.html" target="_top" xlink:title=" ">
<polygon fill="none" stroke="black" points="216.5,-112.5 216.5,-131.5 333.5,-131.5 333.5,-112.5 216.5,-112.5"/>
<text text-anchor="middle" x="275" y="-119.5" font-family="Helvetica,sans-Serif" font-size="10.00">plang/corpus/detail.hpp</text>
</a>
</g>
</g>
<!-- Node2&#45;&gt;Node11 -->
<g id="edge11" class="edge">
<title>Node2&#45;&gt;Node11</title>
<path fill="none" stroke="midnightblue" d="M493.02,-224.3C476.94,-210.66 443.87,-184.14 412,-168 382.86,-153.24 347.84,-141.84 320.49,-134.2"/>
<polygon fill="midnightblue" stroke="midnightblue" points="321.36,-130.81 310.79,-131.56 319.52,-137.57 321.36,-130.81"/>
</g>
<!-- Node17 -->
<g id="node17" class="node">
<title>Node17</title>
<g id="a_node17"><a xlink:href="path_8hpp.html" target="_top" xlink:title=" ">
<polygon fill="none" stroke="black" points="218.5,-168.5 218.5,-187.5 331.5,-187.5 331.5,-168.5 218.5,-168.5"/>
<text text-anchor="middle" x="275" y="-175.5" font-family="Helvetica,sans-Serif" font-size="10.00">plang/corpus/path.hpp</text>
</a>
</g>
</g>
<!-- Node2&#45;&gt;Node17 -->
<g id="edge18" class="edge">
<title>Node2&#45;&gt;Node17</title>
<path fill="none" stroke="midnightblue" d="M466.87,-224.44C427.35,-215.08 363.9,-200.06 320.89,-189.87"/>
<polygon fill="midnightblue" stroke="midnightblue" points="321.5,-186.42 310.96,-187.52 319.88,-193.23 321.5,-186.42"/>
</g>
<!-- Node18 -->
<g id="node18" class="node">
<title>Node18</title>
<g id="a_node18"><a xlink:href="plot_8hpp.html" target="_top" xlink:title=" ">
<polygon fill="none" stroke="black" points="578.5,-168.5 578.5,-187.5 655.5,-187.5 655.5,-168.5 578.5,-168.5"/>
<text text-anchor="middle" x="617" y="-175.5" font-family="Helvetica,sans-Serif" font-size="10.00">plang/plot.hpp</text>
</a>
</g>
</g>
<!-- Node2&#45;&gt;Node18 -->
<g id="edge24" class="edge">
<title>Node2&#45;&gt;Node18</title>
<path fill="none" stroke="midnightblue" d="M521.06,-224.44C539.57,-215.68 568.58,-201.94 589.86,-191.86"/>
<polygon fill="midnightblue" stroke="midnightblue" points="591.48,-194.96 599.02,-187.52 588.49,-188.63 591.48,-194.96"/>
</g>
<!-- Node6&#45;&gt;Node3 -->
<g id="edge10" class="edge">
<title>Node6&#45;&gt;Node3</title>
<path fill="none" stroke="midnightblue" d="M566.29,-57.39C563.15,-56.89 560.03,-56.42 557,-56 406.09,-34.91 224.44,-19.23 153,-13.44"/>
<polygon fill="midnightblue" stroke="midnightblue" points="153.14,-9.94 142.89,-12.63 152.58,-16.92 153.14,-9.94"/>
</g>
<!-- Node7 -->
<g id="node7" class="node">
<title>Node7</title>
<g id="a_node7"><a xlink:title=" ">
<polygon fill="none" stroke="#bfbfbf" points="686,-0.5 686,-19.5 732,-19.5 732,-0.5 686,-0.5"/>
<text text-anchor="middle" x="709" y="-7.5" font-family="Helvetica,sans-Serif" font-size="10.00">chrono</text>
</a>
</g>
</g>
<!-- Node6&#45;&gt;Node7 -->
<g id="edge6" class="edge">
<title>Node6&#45;&gt;Node7</title>
<path fill="none" stroke="midnightblue" d="M624.23,-56.32C640.35,-47.7 665.3,-34.36 683.96,-24.39"/>
<polygon fill="midnightblue" stroke="midnightblue" points="685.64,-27.46 692.81,-19.65 682.34,-21.28 685.64,-27.46"/>
</g>
<!-- Node8 -->
<g id="node8" class="node">
<title>Node8</title>
<g id="a_node8"><a xlink:title=" ">
<polygon fill="none" stroke="#bfbfbf" points="486,-0.5 486,-19.5 530,-19.5 530,-0.5 486,-0.5"/>
<text text-anchor="middle" x="508" y="-7.5" font-family="Helvetica,sans-Serif" font-size="10.00">cmath</text>
</a>
</g>
</g>
<!-- Node6&#45;&gt;Node8 -->
<g id="edge7" class="edge">
<title>Node6&#45;&gt;Node8</title>
<path fill="none" stroke="midnightblue" d="M591.93,-56.32C576.04,-47.74 551.49,-34.49 533.04,-24.52"/>
<polygon fill="midnightblue" stroke="midnightblue" points="534.49,-21.33 524.03,-19.65 531.16,-27.49 534.49,-21.33"/>
</g>
<!-- Node9 -->
<g id="node9" class="node">
<title>Node9</title>
<g id="a_node9"><a xlink:title=" ">
<polygon fill="none" stroke="#bfbfbf" points="548,-0.5 548,-19.5 598,-19.5 598,-0.5 548,-0.5"/>
<text text-anchor="middle" x="573" y="-7.5" font-family="Helvetica,sans-Serif" font-size="10.00">optional</text>
</a>
</g>
</g>
<!-- Node6&#45;&gt;Node9 -->
<g id="edge8" class="edge">
<title>Node6&#45;&gt;Node9</title>
<path fill="none" stroke="midnightblue" d="M602.22,-56.08C597.33,-48.53 590.17,-37.49 584.17,-28.23"/>
<polygon fill="midnightblue" stroke="midnightblue" points="587.05,-26.24 578.67,-19.75 581.17,-30.05 587.05,-26.24"/>
</g>
<!-- Node10 -->
<g id="node10" class="node">
<title>Node10</title>
<g id="a_node10"><a xlink:title=" ">
<polygon fill="none" stroke="#bfbfbf" points="616,-0.5 616,-19.5 668,-19.5 668,-0.5 616,-0.5"/>
<text text-anchor="middle" x="642" y="-7.5" font-family="Helvetica,sans-Serif" font-size="10.00">sstream</text>
</a>
</g>
</g>
<!-- Node6&#45;&gt;Node10 -->
<g id="edge9" class="edge">
<title>Node6&#45;&gt;Node10</title>
<path fill="none" stroke="midnightblue" d="M613.61,-56.08C618.37,-48.53 625.32,-37.49 631.15,-28.23"/>
<polygon fill="midnightblue" stroke="midnightblue" points="634.12,-30.08 636.49,-19.75 628.2,-26.35 634.12,-30.08"/>
</g>
<!-- Node11&#45;&gt;Node6 -->
<g id="edge16" class="edge">
<title>Node11&#45;&gt;Node6</title>
<path fill="none" stroke="midnightblue" d="M330.16,-112.47C384.87,-103.95 471.38,-90.31 556.2,-76.11"/>
<polygon fill="midnightblue" stroke="midnightblue" points="556.98,-79.53 566.26,-74.42 555.82,-72.63 556.98,-79.53"/>
</g>
<!-- Node12 -->
<g id="node12" class="node">
<title>Node12</title>
<g id="a_node12"><a xlink:title=" ">
<polygon fill="none" stroke="#bfbfbf" points="384,-56.5 384,-75.5 446,-75.5 446,-56.5 384,-56.5"/>
<text text-anchor="middle" x="415" y="-63.5" font-family="Helvetica,sans-Serif" font-size="10.00">filesystem</text>
</a>
</g>
</g>
<!-- Node11&#45;&gt;Node12 -->
<g id="edge12" class="edge">
<title>Node11&#45;&gt;Node12</title>
<path fill="none" stroke="midnightblue" d="M297.18,-112.44C320.43,-103.48 357.15,-89.31 383.42,-79.18"/>
<polygon fill="midnightblue" stroke="midnightblue" points="384.85,-82.38 392.92,-75.52 382.33,-75.85 384.85,-82.38"/>
</g>
<!-- Node13 -->
<g id="node13" class="node">
<title>Node13</title>
<g id="a_node13"><a xlink:title=" ">
<polygon fill="none" stroke="#bfbfbf" points="150.5,-56.5 150.5,-75.5 209.5,-75.5 209.5,-56.5 150.5,-56.5"/>
<text text-anchor="middle" x="180" y="-63.5" font-family="Helvetica,sans-Serif" font-size="10.00">functional</text>
</a>
</g>
</g>
<!-- Node11&#45;&gt;Node13 -->
<g id="edge13" class="edge">
<title>Node11&#45;&gt;Node13</title>
<path fill="none" stroke="midnightblue" d="M259.74,-112.32C244.78,-103.82 221.75,-90.73 204.27,-80.8"/>
<polygon fill="midnightblue" stroke="midnightblue" points="205.65,-77.55 195.23,-75.65 202.19,-83.64 205.65,-77.55"/>
</g>
<!-- Node14 -->
<g id="node14" class="node">
<title>Node14</title>
<g id="a_node14"><a xlink:title=" ">
<polygon fill="none" stroke="#bfbfbf" points="228,-56.5 228,-75.5 268,-75.5 268,-56.5 228,-56.5"/>
<text text-anchor="middle" x="248" y="-63.5" font-family="Helvetica,sans-Serif" font-size="10.00">utility</text>
</a>
</g>
</g>
<!-- Node11&#45;&gt;Node14 -->
<g id="edge14" class="edge">
<title>Node11&#45;&gt;Node14</title>
<path fill="none" stroke="midnightblue" d="M270.54,-112.08C266.85,-104.69 261.48,-93.95 256.91,-84.81"/>
<polygon fill="midnightblue" stroke="midnightblue" points="259.98,-83.13 252.38,-75.75 253.72,-86.26 259.98,-83.13"/>
</g>
<!-- Node15 -->
<g id="node15" class="node">
<title>Node15</title>
<g id="a_node15"><a xlink:title=" ">
<polygon fill="none" stroke="#bfbfbf" points="502,-56.5 502,-75.5 548,-75.5 548,-56.5 502,-56.5"/>
<text text-anchor="middle" x="525" y="-63.5" font-family="Helvetica,sans-Serif" font-size="10.00">variant</text>
</a>
</g>
</g>
<!-- Node11&#45;&gt;Node15 -->
<g id="edge15" class="edge">
<title>Node11&#45;&gt;Node15</title>
<path fill="none" stroke="midnightblue" d="M314.61,-112.44C363.53,-101.88 445.88,-84.09 491.7,-74.19"/>
<polygon fill="midnightblue" stroke="midnightblue" points="492.67,-77.56 501.71,-72.03 491.19,-70.72 492.67,-77.56"/>
</g>
<!-- Node16 -->
<g id="node16" class="node">
<title>Node16</title>
<g id="a_node16"><a xlink:href="lang_8hpp.html" target="_top" xlink:title=" ">
<polygon fill="none" stroke="black" points="286,-56.5 286,-75.5 366,-75.5 366,-56.5 286,-56.5"/>
<text text-anchor="middle" x="326" y="-63.5" font-family="Helvetica,sans-Serif" font-size="10.00">plang/lang.hpp</text>
</a>
</g>
</g>
<!-- Node11&#45;&gt;Node16 -->
<g id="edge17" class="edge">
<title>Node11&#45;&gt;Node16</title>
<path fill="none" stroke="midnightblue" d="M283.42,-112.08C290.85,-104.22 301.85,-92.57 310.81,-83.08"/>
<polygon fill="midnightblue" stroke="midnightblue" points="313.41,-85.42 317.74,-75.75 308.32,-80.62 313.41,-85.42"/>
</g>
<!-- Node17&#45;&gt;Node3 -->
<g id="edge19" class="edge">
<title>Node17&#45;&gt;Node3</title>
<path fill="none" stroke="midnightblue" d="M256.57,-168.43C227.26,-153.82 170.35,-121.2 141,-76 131.9,-61.98 127.05,-43.48 124.53,-29.8"/>
<polygon fill="midnightblue" stroke="midnightblue" points="127.94,-28.99 122.92,-19.65 121.03,-30.08 127.94,-28.99"/>
</g>
<!-- Node17&#45;&gt;Node4 -->
<g id="edge20" class="edge">
<title>Node17&#45;&gt;Node4</title>
<path fill="none" stroke="midnightblue" d="M315.25,-168.44C365.47,-157.77 450.37,-139.72 496.61,-129.89"/>
<polygon fill="midnightblue" stroke="midnightblue" points="497.63,-133.25 506.68,-127.75 496.17,-126.4 497.63,-133.25"/>
</g>
<!-- Node17&#45;&gt;Node5 -->
<g id="edge21" class="edge">
<title>Node17&#45;&gt;Node5</title>
<path fill="none" stroke="midnightblue" d="M248.54,-168.44C220.32,-159.32 175.46,-144.81 144.03,-134.65"/>
<polygon fill="midnightblue" stroke="midnightblue" points="144.93,-131.26 134.34,-131.52 142.78,-137.92 144.93,-131.26"/>
</g>
<!-- Node17&#45;&gt;Node6 -->
<g id="edge22" class="edge">
<title>Node17&#45;&gt;Node6</title>
<path fill="none" stroke="midnightblue" d="M286.66,-168.4C306.18,-154.42 347.2,-126.82 386,-112 401.71,-106 495.59,-87.92 556.13,-76.58"/>
<polygon fill="midnightblue" stroke="midnightblue" points="557.09,-79.97 566.28,-74.69 555.81,-73.08 557.09,-79.97"/>
</g>
<!-- Node17&#45;&gt;Node11 -->
<g id="edge23" class="edge">
<title>Node17&#45;&gt;Node11</title>
<path fill="none" stroke="midnightblue" d="M275,-168.08C275,-161.01 275,-150.86 275,-141.99"/>
<polygon fill="midnightblue" stroke="midnightblue" points="278.5,-141.75 275,-131.75 271.5,-141.75 278.5,-141.75"/>
</g>
<!-- Node18&#45;&gt;Node4 -->
<g id="edge26" class="edge">
<title>Node18&#45;&gt;Node4</title>
<path fill="none" stroke="midnightblue" d="M602.86,-168.32C589.13,-159.9 568.06,-146.97 551.94,-137.07"/>
<polygon fill="midnightblue" stroke="midnightblue" points="553.46,-133.9 543.1,-131.65 549.8,-139.87 553.46,-133.9"/>
</g>
<!-- Node18&#45;&gt;Node6 -->
<g id="edge27" class="edge">
<title>Node18&#45;&gt;Node6</title>
<path fill="none" stroke="midnightblue" d="M616.29,-168.37C614.84,-150.62 611.49,-109.67 609.52,-85.6"/>
<polygon fill="midnightblue" stroke="midnightblue" points="613.01,-85.27 608.7,-75.59 606.03,-85.84 613.01,-85.27"/>
</g>
<!-- Node18&#45;&gt;Node15 -->
<g id="edge25" class="edge">
<title>Node18&#45;&gt;Node15</title>
<path fill="none" stroke="midnightblue" d="M609.78,-168.37C594.46,-150.05 558.5,-107.05 538.68,-83.36"/>
<polygon fill="midnightblue" stroke="midnightblue" points="541.29,-81.02 532.19,-75.59 535.92,-85.51 541.29,-81.02"/>
</g>
<!-- Node19&#45;&gt;Node2 -->
<g id="edge35" class="edge">
<title>Node19&#45;&gt;Node2</title>
<path fill="none" stroke="midnightblue" d="M410.85,-336.37C427.57,-317.97 466.94,-274.67 488.41,-251.05"/>
<polygon fill="midnightblue" stroke="midnightblue" points="491.05,-253.35 495.19,-243.59 485.87,-248.64 491.05,-253.35"/>
</g>
<!-- Node19&#45;&gt;Node3 -->
<g id="edge29" class="edge">
<title>Node19&#45;&gt;Node3</title>
<path fill="none" stroke="midnightblue" d="M335.55,-340.5C220.82,-330.97 0,-303.72 0,-235 0,-235 0,-235 0,-121 0,-71.73 55.56,-38.87 91.69,-22.7"/>
<polygon fill="midnightblue" stroke="midnightblue" points="93.49,-25.74 101.3,-18.58 90.73,-19.3 93.49,-25.74"/>
</g>
<!-- Node19&#45;&gt;Node4 -->
<g id="edge30" class="edge">
<title>Node19&#45;&gt;Node4</title>
<path fill="none" stroke="midnightblue" d="M464.01,-336.44C496.78,-329.94 536.92,-318.78 569,-300 625.58,-266.88 644.63,-250.32 665,-188 679.68,-143.1 606.03,-129.2 561.32,-124.91"/>
<polygon fill="midnightblue" stroke="midnightblue" points="561.45,-121.41 551.19,-124.05 560.86,-128.38 561.45,-121.41"/>
</g>
<!-- Node19&#45;&gt;Node5 -->
<g id="edge31" class="edge">
<title>Node19&#45;&gt;Node5</title>
<path fill="none" stroke="midnightblue" d="M335.88,-339.25C276.69,-332.9 196.21,-320.73 172,-300 123.85,-258.77 111.92,-178.38 108.97,-141.86"/>
<polygon fill="midnightblue" stroke="midnightblue" points="112.45,-141.4 108.29,-131.65 105.46,-141.86 112.45,-141.4"/>
</g>
<!-- Node19&#45;&gt;Node6 -->
<g id="edge32" class="edge">
<title>Node19&#45;&gt;Node6</title>
<path fill="none" stroke="midnightblue" d="M470.15,-338.15C573.56,-325.72 760,-294.99 760,-235 760,-235 760,-235 760,-177 760,-123.44 697.29,-93.3 652.43,-78.59"/>
<polygon fill="midnightblue" stroke="midnightblue" points="653.46,-75.25 642.87,-75.6 651.37,-81.93 653.46,-75.25"/>
</g>
<!-- Node19&#45;&gt;Node11 -->
<g id="edge33" class="edge">
<title>Node19&#45;&gt;Node11</title>
<path fill="none" stroke="midnightblue" d="M401.84,-336.36C397.8,-309.06 382.24,-223.16 340,-168 329.99,-154.94 315.1,-144.24 302.1,-136.56"/>
<polygon fill="midnightblue" stroke="midnightblue" points="303.49,-133.33 293.06,-131.5 300.08,-139.44 303.49,-133.33"/>
</g>
<!-- Node19&#45;&gt;Node17 -->
<g id="edge34" class="edge">
<title>Node19&#45;&gt;Node17</title>
<path fill="none" stroke="midnightblue" d="M396.12,-336.08C375.62,-309.49 314.74,-230.54 287.93,-195.76"/>
<polygon fill="midnightblue" stroke="midnightblue" points="290.48,-193.35 281.61,-187.57 284.94,-197.62 290.48,-193.35"/>
</g>
<!-- Node19&#45;&gt;Node18 -->
<g id="edge45" class="edge">
<title>Node19&#45;&gt;Node18</title>
<path fill="none" stroke="midnightblue" d="M443.66,-336.44C490.59,-324.33 566.36,-297.42 606,-244 615.8,-230.79 618.07,-211.92 618.16,-197.91"/>
<polygon fill="midnightblue" stroke="midnightblue" points="621.65,-197.41 617.86,-187.52 614.65,-197.62 621.65,-197.41"/>
</g>
<!-- Node19&#45;&gt;Node20 -->
<g id="edge36" class="edge">
<title>Node19&#45;&gt;Node20</title>
<path fill="none" stroke="midnightblue" d="M378.92,-336.44C353.46,-327.4 313.11,-313.06 284.54,-302.92"/>
<polygon fill="midnightblue" stroke="midnightblue" points="285.57,-299.57 274.97,-299.52 283.22,-306.16 285.57,-299.57"/>
</g>
<!-- Node20&#45;&gt;Node2 -->
<g id="edge43" class="edge">
<title>Node20&#45;&gt;Node2</title>
<path fill="none" stroke="midnightblue" d="M290.93,-280.44C334.89,-271.02 405.63,-255.87 453.18,-245.68"/>
<polygon fill="midnightblue" stroke="midnightblue" points="454.21,-249.03 463.26,-243.52 452.75,-242.19 454.21,-249.03"/>
</g>
<!-- Node20&#45;&gt;Node3 -->
<g id="edge37" class="edge">
<title>Node20&#45;&gt;Node3</title>
<path fill="none" stroke="midnightblue" d="M181.26,-281.89C119.14,-271.25 38,-244.76 38,-179 38,-179 38,-179 38,-121 38,-79.73 75.81,-44.32 100.69,-25.49"/>
<polygon fill="midnightblue" stroke="midnightblue" points="102.85,-28.25 108.88,-19.54 98.73,-22.59 102.85,-28.25"/>
</g>
<!-- Node20&#45;&gt;Node4 -->
<g id="edge38" class="edge">
<title>Node20&#45;&gt;Node4</title>
<path fill="none" stroke="midnightblue" d="M265.56,-280.31C310.97,-253.19 450.32,-169.98 505.83,-136.83"/>
<polygon fill="midnightblue" stroke="midnightblue" points="507.8,-139.74 514.59,-131.61 504.21,-133.73 507.8,-139.74"/>
</g>
<!-- Node20&#45;&gt;Node5 -->
<g id="edge39" class="edge">
<title>Node20&#45;&gt;Node5</title>
<path fill="none" stroke="midnightblue" d="M241.75,-280.3C232.45,-271.43 217.83,-257.14 206,-244 173.76,-208.2 138.91,-163.6 120.71,-139.8"/>
<polygon fill="midnightblue" stroke="midnightblue" points="123.43,-137.6 114.59,-131.76 117.86,-141.84 123.43,-137.6"/>
</g>
<!-- Node20&#45;&gt;Node6 -->
<g id="edge40" class="edge">
<title>Node20&#45;&gt;Node6</title>
<path fill="none" stroke="midnightblue" d="M259.9,-280.08C273.1,-267.05 298.9,-242.39 323,-224 396.41,-167.98 416.04,-154.55 498,-112 522.62,-99.22 551.71,-87.46 573.79,-79.16"/>
<polygon fill="midnightblue" stroke="midnightblue" points="575.24,-82.36 583.4,-75.61 572.81,-75.79 575.24,-82.36"/>
</g>
<!-- Node20&#45;&gt;Node11 -->
<g id="edge41" class="edge">
<title>Node20&#45;&gt;Node11</title>
<path fill="none" stroke="midnightblue" d="M243.38,-280.42C226.3,-260.09 188.01,-207.71 209,-168 216.42,-153.95 230.42,-143.47 243.62,-136.17"/>
<polygon fill="midnightblue" stroke="midnightblue" points="245.22,-139.28 252.54,-131.62 242.04,-133.04 245.22,-139.28"/>
</g>
<!-- Node20&#45;&gt;Node17 -->
<g id="edge42" class="edge">
<title>Node20&#45;&gt;Node17</title>
<path fill="none" stroke="midnightblue" d="M252.88,-280.37C256.76,-262.62 265.69,-221.67 270.94,-197.6"/>
<polygon fill="midnightblue" stroke="midnightblue" points="274.41,-198.11 273.13,-187.59 267.57,-196.62 274.41,-198.11"/>
</g>
<!-- Node20&#45;&gt;Node18 -->
<g id="edge44" class="edge">
<title>Node20&#45;&gt;Node18</title>
<path fill="none" stroke="midnightblue" d="M320.71,-287.08C405.65,-283.47 542.92,-273.18 584,-244 599.44,-233.03 608.11,-212.67 612.64,-197.65"/>
<polygon fill="midnightblue" stroke="midnightblue" points="616.06,-198.43 615.25,-187.86 609.29,-196.62 616.06,-198.43"/>
</g>
</g>
</svg>
