<?xml version="1.0" encoding="UTF-8" standalone="no"?>
<!DOCTYPE svg PUBLIC "-//W3C//DTD SVG 1.1//EN"
 "http://www.w3.org/Graphics/SVG/1.1/DTD/svg11.dtd">
<!-- Generated by graphviz version 2.44.1 (20220725.2034)
 -->
<!-- Title: include/plang/corpus/plot.hpp Pages: 1 -->
<svg width="936pt" height="319pt"
 viewBox="0.00 0.00 935.92 319.00" xmlns="http://www.w3.org/2000/svg" xmlns:xlink="http://www.w3.org/1999/xlink">
<g id="graph0" class="graph" transform="scale(1 1) rotate(0) translate(4 315)">
<title>include/plang/corpus/plot.hpp</title>
<!-- Node1 -->
<g id="node1" class="node">
<title>Node1</title>
<g id="a_node1"><a xlink:title=" ">
<polygon fill="#bfbfbf" stroke="black" points="568.42,-280.5 568.42,-310.5 674.42,-310.5 674.42,-280.5 568.42,-280.5"/>
<text text-anchor="start" x="576.42" y="-298.5" font-family="Helvetica,sans-Serif" font-size="10.00">include/plang/corpus</text>
<text text-anchor="middle" x="621.42" y="-287.5" font-family="Helvetica,sans-Serif" font-size="10.00">/plot.hpp</text>
</a>
</g>
</g>
<!-- Node2 -->
<g id="node2" class="node">
<title>Node2</title>
<g id="a_node2"><a xlink:href="symbol_8hpp.html" target="_top" xlink:title=" ">
<polygon fill="none" stroke="black" points="315.42,-224.5 315.42,-243.5 459.42,-243.5 459.42,-224.5 315.42,-224.5"/>
<text text-anchor="middle" x="387.42" y="-231.5" font-family="Helvetica,sans-Serif" font-size="10.00">plang/corpus/plot/symbol.hpp</text>
</a>
</g>
</g>
<!-- Node1&#45;&gt;Node2 -->
<g id="edge1" class="edge">
<title>Node1&#45;&gt;Node2</title>
<path fill="none" stroke="midnightblue" d="M568.33,-281C526.86,-270.45 469.94,-255.98 431.1,-246.1"/>
<polygon fill="midnightblue" stroke="midnightblue" points="431.69,-242.65 421.14,-243.57 429.97,-249.43 431.69,-242.65"/>
</g>
<!-- Node19 -->
<g id="node19" class="node">
<title>Node19</title>
<g id="a_node19"><a xlink:href="point_8hpp.html" target="_top" xlink:title=" ">
<polygon fill="none" stroke="black" points="477.42,-224.5 477.42,-243.5 611.42,-243.5 611.42,-224.5 477.42,-224.5"/>
<text text-anchor="middle" x="544.42" y="-231.5" font-family="Helvetica,sans-Serif" font-size="10.00">plang/corpus/plot/point.hpp</text>
</a>
</g>
</g>
<!-- Node1&#45;&gt;Node19 -->
<g id="edge27" class="edge">
<title>Node1&#45;&gt;Node19</title>
<path fill="none" stroke="midnightblue" d="M603.18,-280.4C591.29,-271.22 575.82,-259.26 563.73,-249.92"/>
<polygon fill="midnightblue" stroke="midnightblue" points="565.68,-247 555.63,-243.66 561.4,-252.54 565.68,-247"/>
</g>
<!-- Node20 -->
<g id="node20" class="node">
<title>Node20</title>
<g id="a_node20"><a xlink:href="object_8hpp.html" target="_top" xlink:title=" ">
<polygon fill="none" stroke="black" points="629.92,-224.5 629.92,-243.5 768.92,-243.5 768.92,-224.5 629.92,-224.5"/>
<text text-anchor="middle" x="699.42" y="-231.5" font-family="Helvetica,sans-Serif" font-size="10.00">plang/corpus/plot/object.hpp</text>
</a>
</g>
</g>
<!-- Node1&#45;&gt;Node20 -->
<g id="edge28" class="edge">
<title>Node1&#45;&gt;Node20</title>
<path fill="none" stroke="midnightblue" d="M639.91,-280.4C651.94,-271.22 667.62,-259.26 679.87,-249.92"/>
<polygon fill="midnightblue" stroke="midnightblue" points="682.25,-252.51 688.07,-243.66 678,-246.94 682.25,-252.51"/>
</g>
<!-- Node21 -->
<g id="node21" class="node">
<title>Node21</title>
<g id="a_node21"><a xlink:href="causal_8hpp.html" target="_top" xlink:title=" ">
<polygon fill="none" stroke="black" points="786.92,-224.5 786.92,-243.5 927.92,-243.5 927.92,-224.5 786.92,-224.5"/>
<text text-anchor="middle" x="857.42" y="-231.5" font-family="Helvetica,sans-Serif" font-size="10.00">plang/corpus/plot/causal.hpp</text>
</a>
</g>
</g>
<!-- Node1&#45;&gt;Node21 -->
<g id="edge29" class="edge">
<title>Node1&#45;&gt;Node21</title>
<path fill="none" stroke="midnightblue" d="M674.68,-281.07C716.7,-270.48 774.59,-255.88 813.87,-245.98"/>
<polygon fill="midnightblue" stroke="midnightblue" points="814.84,-249.35 823.68,-243.51 813.13,-242.56 814.84,-249.35"/>
</g>
<!-- Node3 -->
<g id="node3" class="node">
<title>Node3</title>
<g id="a_node3"><a xlink:title=" ">
<polygon fill="none" stroke="#bfbfbf" points="364.92,-0.5 364.92,-19.5 405.92,-19.5 405.92,-0.5 364.92,-0.5"/>
<text text-anchor="middle" x="385.42" y="-7.5" font-family="Helvetica,sans-Serif" font-size="10.00">string</text>
</a>
</g>
</g>
<!-- Node2&#45;&gt;Node3 -->
<g id="edge2" class="edge">
<title>Node2&#45;&gt;Node3</title>
<path fill="none" stroke="midnightblue" d="M315.32,-224.77C184.3,-207.11 -71.29,-158.55 19.42,-56 41.54,-30.99 270.64,-16.86 354.71,-12.48"/>
<polygon fill="midnightblue" stroke="midnightblue" points="355.09,-15.97 364.9,-11.97 354.73,-8.98 355.09,-15.97"/>
</g>
<!-- Node4 -->
<g id="node4" class="node">
<title>Node4</title>
<g id="a_node4"><a xlink:title=" ">
<polygon fill="none" stroke="#bfbfbf" points="482.42,-112.5 482.42,-131.5 526.42,-131.5 526.42,-112.5 482.42,-112.5"/>
<text text-anchor="middle" x="504.42" y="-119.5" font-family="Helvetica,sans-Serif" font-size="10.00">vector</text>
</a>
</g>
</g>
<!-- Node2&#45;&gt;Node4 -->
<g id="edge3" class="edge">
<title>Node2&#45;&gt;Node4</title>
<path fill="none" stroke="midnightblue" d="M402.81,-224.37C416.84,-216.08 437.72,-202.68 453.42,-188 468.91,-173.51 483.53,-154.07 493.11,-140.24"/>
<polygon fill="midnightblue" stroke="midnightblue" points="496.19,-141.93 498.88,-131.68 490.38,-138.01 496.19,-141.93"/>
</g>
<!-- Node5 -->
<g id="node5" class="node">
<title>Node5</title>
<g id="a_node5"><a xlink:title=" ">
<polygon fill="none" stroke="#bfbfbf" points="304.92,-112.5 304.92,-131.5 387.92,-131.5 387.92,-112.5 304.92,-112.5"/>
<text text-anchor="middle" x="346.42" y="-119.5" font-family="Helvetica,sans-Serif" font-size="10.00">unordered_map</text>
</a>
</g>
</g>
<!-- Node2&#45;&gt;Node5 -->
<g id="edge4" class="edge">
<title>Node2&#45;&gt;Node5</title>
<path fill="none" stroke="midnightblue" d="M365.62,-224.45C350.48,-217.22 331.47,-205.26 322.42,-188 314.26,-172.42 323.26,-153.42 332.47,-140"/>
<polygon fill="midnightblue" stroke="midnightblue" points="335.49,-141.82 338.68,-131.71 329.88,-137.62 335.49,-141.82"/>
</g>
<!-- Node6 -->
<g id="node6" class="node">
<title>Node6</title>
<g id="a_node6"><a xlink:href="base_8hpp.html" target="_top" xlink:title=" ">
<polygon fill="none" stroke="black" points="476.92,-56.5 476.92,-75.5 559.92,-75.5 559.92,-56.5 476.92,-56.5"/>
<text text-anchor="middle" x="518.42" y="-63.5" font-family="Helvetica,sans-Serif" font-size="10.00">plang/base.hpp</text>
</a>
</g>
</g>
<!-- Node2&#45;&gt;Node6 -->
<g id="edge5" class="edge">
<title>Node2&#45;&gt;Node6</title>
<path fill="none" stroke="midnightblue" d="M441.03,-224.46C497.09,-214.98 578.21,-199.52 587.42,-188 615.2,-153.28 567.49,-106.02 538.39,-82.14"/>
<polygon fill="midnightblue" stroke="midnightblue" points="540.42,-79.28 530.41,-75.79 536.06,-84.75 540.42,-79.28"/>
</g>
<!-- Node11 -->
<g id="node11" class="node">
<title>Node11</title>
<g id="a_node11"><a xlink:href="detail_8hpp.html" target="_top" xlink:title=" ">
<polygon fill="none" stroke="black" points="169.92,-112.5 169.92,-131.5 286.92,-131.5 286.92,-112.5 169.92,-112.5"/>
<text text-anchor="middle" x="228.42" y="-119.5" font-family="Helvetica,sans-Serif" font-size="10.00">plang/corpus/detail.hpp</text>
</a>
</g>
</g>
<!-- Node2&#45;&gt;Node11 -->
<g id="edge11" class="edge">
<title>Node2&#45;&gt;Node11</title>
<path fill="none" stroke="midnightblue" d="M372.62,-224.43C357.69,-215.66 334.09,-201.45 314.42,-188 290.61,-171.72 264.3,-151.48 247.13,-137.95"/>
<polygon fill="midnightblue" stroke="midnightblue" points="249.05,-135.01 239.04,-131.54 244.71,-140.5 249.05,-135.01"/>
</g>
<!-- Node17 -->
<g id="node17" class="node">
<title>Node17</title>
<g id="a_node17"><a xlink:href="path_8hpp.html" target="_top" xlink:title=" ">
<polygon fill="none" stroke="black" points="330.92,-168.5 330.92,-187.5 443.92,-187.5 443.92,-168.5 330.92,-168.5"/>
<text text-anchor="middle" x="387.42" y="-175.5" font-family="Helvetica,sans-Serif" font-size="10.00">plang/corpus/path.hpp</text>
</a>
</g>
</g>
<!-- Node2&#45;&gt;Node17 -->
<g id="edge18" class="edge">
<title>Node2&#45;&gt;Node17</title>
<path fill="none" stroke="midnightblue" d="M387.42,-224.08C387.42,-217.01 387.42,-206.86 387.42,-197.99"/>
<polygon fill="midnightblue" stroke="midnightblue" points="390.92,-197.75 387.42,-187.75 383.92,-197.75 390.92,-197.75"/>
</g>
<!-- Node18 -->
<g id="node18" class="node">
<title>Node18</title>
<g id="a_node18"><a xlink:href="plot_8hpp.html" target="_top" xlink:title=" ">
<polygon fill="none" stroke="black" points="500.92,-168.5 500.92,-187.5 577.92,-187.5 577.92,-168.5 500.92,-168.5"/>
<text text-anchor="middle" x="539.42" y="-175.5" font-family="Helvetica,sans-Serif" font-size="10.00">plang/plot.hpp</text>
</a>
</g>
</g>
<!-- Node2&#45;&gt;Node18 -->
<g id="edge24" class="edge">
<title>Node2&#45;&gt;Node18</title>
<path fill="none" stroke="midnightblue" d="M411.51,-224.44C436.97,-215.4 477.32,-201.06 505.88,-190.92"/>
<polygon fill="midnightblue" stroke="midnightblue" points="507.2,-194.16 515.45,-187.52 504.86,-187.57 507.2,-194.16"/>
</g>
<!-- Node6&#45;&gt;Node3 -->
<g id="edge10" class="edge">
<title>Node6&#45;&gt;Node3</title>
<path fill="none" stroke="midnightblue" d="M497.35,-56.44C475.23,-47.46 440.28,-33.27 415.32,-23.14"/>
<polygon fill="midnightblue" stroke="midnightblue" points="416.54,-19.86 405.96,-19.34 413.91,-26.34 416.54,-19.86"/>
</g>
<!-- Node7 -->
<g id="node7" class="node">
<title>Node7</title>
<g id="a_node7"><a xlink:title=" ">
<polygon fill="none" stroke="#bfbfbf" points="562.42,-0.5 562.42,-19.5 608.42,-19.5 608.42,-0.5 562.42,-0.5"/>
<text text-anchor="middle" x="585.42" y="-7.5" font-family="Helvetica,sans-Serif" font-size="10.00">chrono</text>
</a>
</g>
</g>
<!-- Node6&#45;&gt;Node7 -->
<g id="edge6" class="edge">
<title>Node6&#45;&gt;Node7</title>
<path fill="none" stroke="midnightblue" d="M529.19,-56.32C539.19,-48.26 554.31,-36.08 566.35,-26.37"/>
<polygon fill="midnightblue" stroke="midnightblue" points="568.87,-28.83 574.46,-19.83 564.48,-23.38 568.87,-28.83"/>
</g>
<!-- Node8 -->
<g id="node8" class="node">
<title>Node8</title>
<g id="a_node8"><a xlink:title=" ">
<polygon fill="none" stroke="#bfbfbf" points="626.42,-0.5 626.42,-19.5 670.42,-19.5 670.42,-0.5 626.42,-0.5"/>
<text text-anchor="middle" x="648.42" y="-7.5" font-family="Helvetica,sans-Serif" font-size="10.00">cmath</text>
</a>
</g>
</g>
<!-- Node6&#45;&gt;Node8 -->
<g id="edge7" class="edge">
<title>Node6&#45;&gt;Node8</title>
<path fill="none" stroke="midnightblue" d="M539.02,-56.44C560.42,-47.56 594.1,-33.56 618.45,-23.45"/>
<polygon fill="midnightblue" stroke="midnightblue" points="620.03,-26.58 627.92,-19.52 617.34,-20.12 620.03,-26.58"/>
</g>
<!-- Node9 -->
<g id="node9" class="node">
<title>Node9</title>
<g id="a_node9"><a xlink:title=" ">
<polygon fill="none" stroke="#bfbfbf" points="424.42,-0.5 424.42,-19.5 474.42,-19.5 474.42,-0.5 424.42,-0.5"/>
<text text-anchor="middle" x="449.42" y="-7.5" font-family="Helvetica,sans-Serif" font-size="10.00">optional</text>
</a>
</g>
</g>
<!-- Node6&#45;&gt;Node9 -->
<g id="edge8" class="edge">
<title>Node6&#45;&gt;Node9</title>
<path fill="none" stroke="midnightblue" d="M507.34,-56.32C496.94,-48.18 481.16,-35.84 468.7,-26.09"/>
<polygon fill="midnightblue" stroke="midnightblue" points="470.74,-23.24 460.71,-19.83 466.43,-28.75 470.74,-23.24"/>
</g>
<!-- Node10 -->
<g id="node10" class="node">
<title>Node10</title>
<g id="a_node10"><a xlink:title=" ">
<polygon fill="none" stroke="#bfbfbf" points="492.42,-0.5 492.42,-19.5 544.42,-19.5 544.42,-0.5 492.42,-0.5"/>
<text text-anchor="middle" x="518.42" y="-7.5" font-family="Helvetica,sans-Serif" font-size="10.00">sstream</text>
</a>
</g>
</g>
<!-- Node6&#45;&gt;Node10 -->
<g id="edge9" class="edge">
<title>Node6&#45;&gt;Node10</title>
<path fill="none" stroke="midnightblue" d="M518.42,-56.08C518.42,-49.01 518.42,-38.86 518.42,-29.99"/>
<polygon fill="midnightblue" stroke="midnightblue" points="521.92,-29.75 518.42,-19.75 514.92,-29.75 521.92,-29.75"/>
</g>
<!-- Node11&#45;&gt;Node6 -->
<g id="edge16" class="edge">
<title>Node11&#45;&gt;Node6</title>
<path fill="none" stroke="midnightblue" d="M274.37,-112.44C326.74,-102.69 412.12,-86.8 466.75,-76.62"/>
<polygon fill="midnightblue" stroke="midnightblue" points="467.73,-80 476.92,-74.73 466.44,-73.12 467.73,-80"/>
</g>
<!-- Node12 -->
<g id="node12" class="node">
<title>Node12</title>
<g id="a_node12"><a xlink:title=" ">
<polygon fill="none" stroke="#bfbfbf" points="190.42,-56.5 190.42,-75.5 252.42,-75.5 252.42,-56.5 190.42,-56.5"/>
<text text-anchor="middle" x="221.42" y="-63.5" font-family="Helvetica,sans-Serif" font-size="10.00">filesystem</text>
</a>
</g>
</g>
<!-- Node11&#45;&gt;Node12 -->
<g id="edge12" class="edge">
<title>Node11&#45;&gt;Node12</title>
<path fill="none" stroke="midnightblue" d="M227.27,-112.08C226.34,-104.93 225.01,-94.64 223.85,-85.69"/>
<polygon fill="midnightblue" stroke="midnightblue" points="227.31,-85.22 222.56,-75.75 220.37,-86.12 227.31,-85.22"/>
</g>
<!-- Node13 -->
<g id="node13" class="node">
<title>Node13</title>
<g id="a_node13"><a xlink:title=" ">
<polygon fill="none" stroke="#bfbfbf" points="270.92,-56.5 270.92,-75.5 329.92,-75.5 329.92,-56.5 270.92,-56.5"/>
<text text-anchor="middle" x="300.42" y="-63.5" font-family="Helvetica,sans-Serif" font-size="10.00">functional</text>
</a>
</g>
</g>
<!-- Node11&#45;&gt;Node13 -->
<g id="edge13" class="edge">
<title>Node11&#45;&gt;Node13</title>
<path fill="none" stroke="midnightblue" d="M239.99,-112.32C250.84,-104.18 267.3,-91.84 280.31,-82.09"/>
<polygon fill="midnightblue" stroke="midnightblue" points="282.74,-84.63 288.64,-75.83 278.54,-79.03 282.74,-84.63"/>
</g>
<!-- Node14 -->
<g id="node14" class="node">
<title>Node14</title>
<g id="a_node14"><a xlink:title=" ">
<polygon fill="none" stroke="#bfbfbf" points="348.42,-56.5 348.42,-75.5 388.42,-75.5 388.42,-56.5 348.42,-56.5"/>
<text text-anchor="middle" x="368.42" y="-63.5" font-family="Helvetica,sans-Serif" font-size="10.00">utility</text>
</a>
</g>
</g>
<!-- Node11&#45;&gt;Node14 -->
<g id="edge14" class="edge">
<title>Node11&#45;&gt;Node14</title>
<path fill="none" stroke="midnightblue" d="M250.61,-112.44C274.4,-103.27 312.31,-88.64 338.67,-78.47"/>
<polygon fill="midnightblue" stroke="midnightblue" points="340.09,-81.68 348.16,-74.82 337.57,-75.15 340.09,-81.68"/>
</g>
<!-- Node15 -->
<g id="node15" class="node">
<title>Node15</title>
<g id="a_node15"><a xlink:title=" ">
<polygon fill="none" stroke="#bfbfbf" points="28.42,-56.5 28.42,-75.5 74.42,-75.5 74.42,-56.5 28.42,-56.5"/>
<text text-anchor="middle" x="51.42" y="-63.5" font-family="Helvetica,sans-Serif" font-size="10.00">variant</text>
</a>
</g>
</g>
<!-- Node11&#45;&gt;Node15 -->
<g id="edge15" class="edge">
<title>Node11&#45;&gt;Node15</title>
<path fill="none" stroke="midnightblue" d="M200.38,-112.44C168.84,-102.82 117.68,-87.21 84.29,-77.03"/>
<polygon fill="midnightblue" stroke="midnightblue" points="85.13,-73.62 74.54,-74.05 83.09,-80.32 85.13,-73.62"/>
</g>
<!-- Node16 -->
<g id="node16" class="node">
<title>Node16</title>
<g id="a_node16"><a xlink:href="lang_8hpp.html" target="_top" xlink:title=" ">
<polygon fill="none" stroke="black" points="92.42,-56.5 92.42,-75.5 172.42,-75.5 172.42,-56.5 92.42,-56.5"/>
<text text-anchor="middle" x="132.42" y="-63.5" font-family="Helvetica,sans-Serif" font-size="10.00">plang/lang.hpp</text>
</a>
</g>
</g>
<!-- Node11&#45;&gt;Node16 -->
<g id="edge17" class="edge">
<title>Node11&#45;&gt;Node16</title>
<path fill="none" stroke="midnightblue" d="M213,-112.32C197.88,-103.82 174.61,-90.73 156.95,-80.8"/>
<polygon fill="midnightblue" stroke="midnightblue" points="158.24,-77.51 147.81,-75.65 154.81,-83.61 158.24,-77.51"/>
</g>
<!-- Node17&#45;&gt;Node3 -->
<g id="edge19" class="edge">
<title>Node17&#45;&gt;Node3</title>
<path fill="none" stroke="midnightblue" d="M389.91,-168.47C392.38,-159.48 396.01,-144.89 397.42,-132 401.11,-98.42 401.81,-89.49 397.42,-56 396.27,-47.18 393.89,-37.63 391.55,-29.61"/>
<polygon fill="midnightblue" stroke="midnightblue" points="394.82,-28.34 388.51,-19.83 388.14,-30.42 394.82,-28.34"/>
</g>
<!-- Node17&#45;&gt;Node4 -->
<g id="edge20" class="edge">
<title>Node17&#45;&gt;Node4</title>
<path fill="none" stroke="midnightblue" d="M405.96,-168.44C425.05,-159.64 455,-145.81 476.86,-135.72"/>
<polygon fill="midnightblue" stroke="midnightblue" points="478.36,-138.88 485.97,-131.52 475.42,-132.53 478.36,-138.88"/>
</g>
<!-- Node17&#45;&gt;Node5 -->
<g id="edge21" class="edge">
<title>Node17&#45;&gt;Node5</title>
<path fill="none" stroke="midnightblue" d="M380.65,-168.08C374.86,-160.46 366.36,-149.26 359.29,-139.94"/>
<polygon fill="midnightblue" stroke="midnightblue" points="361.9,-137.6 353.07,-131.75 356.33,-141.83 361.9,-137.6"/>
</g>
<!-- Node17&#45;&gt;Node6 -->
<g id="edge22" class="edge">
<title>Node17&#45;&gt;Node6</title>
<path fill="none" stroke="midnightblue" d="M397.7,-168.37C419.9,-149.73 472.53,-105.53 500.4,-82.13"/>
<polygon fill="midnightblue" stroke="midnightblue" points="502.78,-84.7 508.19,-75.59 498.28,-79.34 502.78,-84.7"/>
</g>
<!-- Node17&#45;&gt;Node11 -->
<g id="edge23" class="edge">
<title>Node17&#45;&gt;Node11</title>
<path fill="none" stroke="midnightblue" d="M362.23,-168.44C335.48,-159.36 293.02,-144.94 263.12,-134.78"/>
<polygon fill="midnightblue" stroke="midnightblue" points="264.09,-131.42 253.5,-131.52 261.84,-138.05 264.09,-131.42"/>
</g>
<!-- Node18&#45;&gt;Node4 -->
<g id="edge25" class="edge">
<title>Node18&#45;&gt;Node4</title>
<path fill="none" stroke="midnightblue" d="M533.64,-168.08C528.75,-160.53 521.6,-149.49 515.59,-140.23"/>
<polygon fill="midnightblue" stroke="midnightblue" points="518.47,-138.24 510.1,-131.75 512.6,-142.05 518.47,-138.24"/>
</g>
<!-- Node18&#45;&gt;Node6 -->
<g id="edge26" class="edge">
<title>Node18&#45;&gt;Node6</title>
<path fill="none" stroke="midnightblue" d="M539.7,-168.48C539.94,-155.95 539.69,-131.9 535.42,-112 533.45,-102.81 529.93,-93.01 526.6,-84.91"/>
<polygon fill="midnightblue" stroke="midnightblue" points="529.81,-83.51 522.62,-75.73 523.39,-86.29 529.81,-83.51"/>
</g>
</g>
</svg>
