<?xml version="1.0" encoding="UTF-8" standalone="no"?>
<!DOCTYPE svg PUBLIC "-//W3C//DTD SVG 1.1//EN"
 "http://www.w3.org/Graphics/SVG/1.1/DTD/svg11.dtd">
<!-- Generated by graphviz version 2.44.1 (20220725.2034)
 -->
<!-- Title: include/plang/corpus.hpp Pages: 1 -->
<svg width="1060pt" height="364pt"
 viewBox="0.00 0.00 1059.99 364.00" xmlns="http://www.w3.org/2000/svg" xmlns:xlink="http://www.w3.org/1999/xlink">
<g id="graph0" class="graph" transform="scale(1 1) rotate(0) translate(4 360)">
<title>include/plang/corpus.hpp</title>
<!-- Node1 -->
<g id="node1" class="node">
<title>Node1</title>
<g id="a_node1"><a xlink:title=" ">
<polygon fill="#bfbfbf" stroke="black" points="209.5,-336.5 209.5,-355.5 334.5,-355.5 334.5,-336.5 209.5,-336.5"/>
<text text-anchor="middle" x="272" y="-343.5" font-family="Helvetica,sans-Serif" font-size="10.00">include/plang/corpus.hpp</text>
</a>
</g>
</g>
<!-- Node2 -->
<g id="node2" class="node">
<title>Node2</title>
<g id="a_node2"><a xlink:title=" ">
<polygon fill="none" stroke="#bfbfbf" points="0,-280.5 0,-299.5 32,-299.5 32,-280.5 0,-280.5"/>
<text text-anchor="middle" x="16" y="-287.5" font-family="Helvetica,sans-Serif" font-size="10.00">any</text>
</a>
</g>
</g>
<!-- Node1&#45;&gt;Node2 -->
<g id="edge1" class="edge">
<title>Node1&#45;&gt;Node2</title>
<path fill="none" stroke="midnightblue" d="M221.88,-336.43C175.88,-328.23 105.98,-314.93 46,-300 44.72,-299.68 43.42,-299.34 42.11,-298.99"/>
<polygon fill="midnightblue" stroke="midnightblue" points="42.69,-295.52 32.11,-296.14 40.77,-302.25 42.69,-295.52"/>
</g>
<!-- Node3 -->
<g id="node3" class="node">
<title>Node3</title>
<g id="a_node3"><a xlink:title=" ">
<polygon fill="none" stroke="#bfbfbf" points="11,-56.5 11,-75.5 73,-75.5 73,-56.5 11,-56.5"/>
<text text-anchor="middle" x="42" y="-63.5" font-family="Helvetica,sans-Serif" font-size="10.00">filesystem</text>
</a>
</g>
</g>
<!-- Node1&#45;&gt;Node3 -->
<g id="edge2" class="edge">
<title>Node1&#45;&gt;Node3</title>
<path fill="none" stroke="midnightblue" d="M209.28,-337.29C160.36,-330.05 97.68,-317.68 79,-300 57.14,-279.31 60,-265.1 60,-235 60,-235 60,-235 60,-177 60,-144.54 52.27,-107.38 46.94,-85.63"/>
<polygon fill="midnightblue" stroke="midnightblue" points="50.29,-84.59 44.43,-75.76 43.51,-86.32 50.29,-84.59"/>
</g>
<!-- Node4 -->
<g id="node4" class="node">
<title>Node4</title>
<g id="a_node4"><a xlink:title=" ">
<polygon fill="none" stroke="#bfbfbf" points="88.5,-280.5 88.5,-299.5 137.5,-299.5 137.5,-280.5 88.5,-280.5"/>
<text text-anchor="middle" x="113" y="-287.5" font-family="Helvetica,sans-Serif" font-size="10.00">istream</text>
</a>
</g>
</g>
<!-- Node1&#45;&gt;Node4 -->
<g id="edge3" class="edge">
<title>Node1&#45;&gt;Node4</title>
<path fill="none" stroke="midnightblue" d="M246.81,-336.44C219.9,-327.31 177.1,-312.77 147.17,-302.6"/>
<polygon fill="midnightblue" stroke="midnightblue" points="148.15,-299.24 137.55,-299.34 145.9,-305.87 148.15,-299.24"/>
</g>
<!-- Node5 -->
<g id="node5" class="node">
<title>Node5</title>
<g id="a_node5"><a xlink:title=" ">
<polygon fill="none" stroke="#bfbfbf" points="91,-56.5 91,-75.5 137,-75.5 137,-56.5 91,-56.5"/>
<text text-anchor="middle" x="114" y="-63.5" font-family="Helvetica,sans-Serif" font-size="10.00">variant</text>
</a>
</g>
</g>
<!-- Node1&#45;&gt;Node5 -->
<g id="edge4" class="edge">
<title>Node1&#45;&gt;Node5</title>
<path fill="none" stroke="midnightblue" d="M253.54,-336.39C223.17,-320.81 166,-284.86 166,-235 166,-235 166,-235 166,-177 166,-141.12 143.11,-104.42 127.7,-83.79"/>
<polygon fill="midnightblue" stroke="midnightblue" points="130.35,-81.5 121.45,-75.74 124.82,-85.79 130.35,-81.5"/>
</g>
<!-- Node6 -->
<g id="node6" class="node">
<title>Node6</title>
<g id="a_node6"><a xlink:title=" ">
<polygon fill="none" stroke="#bfbfbf" points="599,-112.5 599,-131.5 643,-131.5 643,-112.5 599,-112.5"/>
<text text-anchor="middle" x="621" y="-119.5" font-family="Helvetica,sans-Serif" font-size="10.00">vector</text>
</a>
</g>
</g>
<!-- Node1&#45;&gt;Node6 -->
<g id="edge5" class="edge">
<title>Node1&#45;&gt;Node6</title>
<path fill="none" stroke="midnightblue" d="M334.81,-341.59C511.03,-331.36 1000.26,-298.27 1046,-244 1099.35,-180.7 760.71,-138.13 653.07,-126.33"/>
<polygon fill="midnightblue" stroke="midnightblue" points="653.43,-122.85 643.11,-125.25 652.68,-129.81 653.43,-122.85"/>
</g>
<!-- Node7 -->
<g id="node7" class="node">
<title>Node7</title>
<g id="a_node7"><a xlink:href="base_8hpp.html" target="_top" xlink:title=" ">
<polygon fill="none" stroke="black" points="388.5,-56.5 388.5,-75.5 471.5,-75.5 471.5,-56.5 388.5,-56.5"/>
<text text-anchor="middle" x="430" y="-63.5" font-family="Helvetica,sans-Serif" font-size="10.00">plang/base.hpp</text>
</a>
</g>
</g>
<!-- Node1&#45;&gt;Node7 -->
<g id="edge6" class="edge">
<title>Node1&#45;&gt;Node7</title>
<path fill="none" stroke="midnightblue" d="M274.91,-336.13C283.84,-309.52 312.46,-228.53 349,-168 368.53,-135.65 397.34,-102.23 414.82,-83.1"/>
<polygon fill="midnightblue" stroke="midnightblue" points="417.55,-85.31 421.77,-75.59 412.41,-80.55 417.55,-85.31"/>
</g>
<!-- Node13 -->
<g id="node13" class="node">
<title>Node13</title>
<g id="a_node13"><a xlink:href="detail_8hpp.html" target="_top" xlink:title=" ">
<polygon fill="none" stroke="black" points="194.5,-112.5 194.5,-131.5 311.5,-131.5 311.5,-112.5 194.5,-112.5"/>
<text text-anchor="middle" x="253" y="-119.5" font-family="Helvetica,sans-Serif" font-size="10.00">plang/corpus/detail.hpp</text>
</a>
</g>
</g>
<!-- Node1&#45;&gt;Node13 -->
<g id="edge12" class="edge">
<title>Node1&#45;&gt;Node13</title>
<path fill="none" stroke="midnightblue" d="M271.26,-336.3C268.46,-303.63 258.55,-187.87 254.62,-141.96"/>
<polygon fill="midnightblue" stroke="midnightblue" points="258.1,-141.55 253.76,-131.88 251.13,-142.15 258.1,-141.55"/>
</g>
<!-- Node17 -->
<g id="node17" class="node">
<title>Node17</title>
<g id="a_node17"><a xlink:href="path_8hpp.html" target="_top" xlink:title=" ">
<polygon fill="none" stroke="black" points="357.5,-168.5 357.5,-187.5 470.5,-187.5 470.5,-168.5 357.5,-168.5"/>
<text text-anchor="middle" x="414" y="-175.5" font-family="Helvetica,sans-Serif" font-size="10.00">plang/corpus/path.hpp</text>
</a>
</g>
</g>
<!-- Node1&#45;&gt;Node17 -->
<g id="edge19" class="edge">
<title>Node1&#45;&gt;Node17</title>
<path fill="none" stroke="midnightblue" d="M278.98,-336.38C295.2,-316.4 336.85,-265.45 373,-224 381.53,-214.22 391.31,-203.47 399.17,-194.93"/>
<polygon fill="midnightblue" stroke="midnightblue" points="401.8,-197.24 406.03,-187.53 396.67,-192.49 401.8,-197.24"/>
</g>
<!-- Node19 -->
<g id="node19" class="node">
<title>Node19</title>
<g id="a_node19"><a xlink:href="corpus_2plot_8hpp.html" target="_top" xlink:title=" ">
<polygon fill="none" stroke="black" points="601,-280.5 601,-299.5 711,-299.5 711,-280.5 601,-280.5"/>
<text text-anchor="middle" x="656" y="-287.5" font-family="Helvetica,sans-Serif" font-size="10.00">plang/corpus/plot.hpp</text>
</a>
</g>
</g>
<!-- Node1&#45;&gt;Node19 -->
<g id="edge25" class="edge">
<title>Node1&#45;&gt;Node19</title>
<path fill="none" stroke="midnightblue" d="M332.85,-336.44C403.09,-326.57 518.2,-310.38 590.4,-300.22"/>
<polygon fill="midnightblue" stroke="midnightblue" points="591.32,-303.63 600.73,-298.77 590.34,-296.7 591.32,-303.63"/>
</g>
<!-- Node21 -->
<g id="node21" class="node">
<title>Node21</title>
<g id="a_node21"><a xlink:href="plot_8hpp.html" target="_top" xlink:title=" ">
<polygon fill="none" stroke="black" points="527.5,-168.5 527.5,-187.5 604.5,-187.5 604.5,-168.5 527.5,-168.5"/>
<text text-anchor="middle" x="566" y="-175.5" font-family="Helvetica,sans-Serif" font-size="10.00">plang/plot.hpp</text>
</a>
</g>
</g>
<!-- Node1&#45;&gt;Node21 -->
<g id="edge39" class="edge">
<title>Node1&#45;&gt;Node21</title>
<path fill="none" stroke="midnightblue" d="M284,-336.34C296.09,-327.5 315.19,-313.22 331,-300 369.37,-267.91 370.46,-248.62 414,-224 446.07,-205.87 486.16,-194.39 517.12,-187.57"/>
<polygon fill="midnightblue" stroke="midnightblue" points="518.18,-190.93 527.24,-185.43 516.74,-184.08 518.18,-190.93"/>
</g>
<!-- Node8 -->
<g id="node8" class="node">
<title>Node8</title>
<g id="a_node8"><a xlink:title=" ">
<polygon fill="none" stroke="#bfbfbf" points="279,-0.5 279,-19.5 325,-19.5 325,-0.5 279,-0.5"/>
<text text-anchor="middle" x="302" y="-7.5" font-family="Helvetica,sans-Serif" font-size="10.00">chrono</text>
</a>
</g>
</g>
<!-- Node7&#45;&gt;Node8 -->
<g id="edge7" class="edge">
<title>Node7&#45;&gt;Node8</title>
<path fill="none" stroke="midnightblue" d="M409.72,-56.44C388.65,-47.56 355.48,-33.56 331.51,-23.45"/>
<polygon fill="midnightblue" stroke="midnightblue" points="332.76,-20.18 322.19,-19.52 330.04,-26.63 332.76,-20.18"/>
</g>
<!-- Node9 -->
<g id="node9" class="node">
<title>Node9</title>
<g id="a_node9"><a xlink:title=" ">
<polygon fill="none" stroke="#bfbfbf" points="343,-0.5 343,-19.5 387,-19.5 387,-0.5 343,-0.5"/>
<text text-anchor="middle" x="365" y="-7.5" font-family="Helvetica,sans-Serif" font-size="10.00">cmath</text>
</a>
</g>
</g>
<!-- Node7&#45;&gt;Node9 -->
<g id="edge8" class="edge">
<title>Node7&#45;&gt;Node9</title>
<path fill="none" stroke="midnightblue" d="M419.56,-56.32C409.85,-48.26 395.18,-36.08 383.5,-26.37"/>
<polygon fill="midnightblue" stroke="midnightblue" points="385.56,-23.53 375.63,-19.83 381.09,-28.92 385.56,-23.53"/>
</g>
<!-- Node10 -->
<g id="node10" class="node">
<title>Node10</title>
<g id="a_node10"><a xlink:title=" ">
<polygon fill="none" stroke="#bfbfbf" points="405,-0.5 405,-19.5 455,-19.5 455,-0.5 405,-0.5"/>
<text text-anchor="middle" x="430" y="-7.5" font-family="Helvetica,sans-Serif" font-size="10.00">optional</text>
</a>
</g>
</g>
<!-- Node7&#45;&gt;Node10 -->
<g id="edge9" class="edge">
<title>Node7&#45;&gt;Node10</title>
<path fill="none" stroke="midnightblue" d="M430,-56.08C430,-49.01 430,-38.86 430,-29.99"/>
<polygon fill="midnightblue" stroke="midnightblue" points="433.5,-29.75 430,-19.75 426.5,-29.75 433.5,-29.75"/>
</g>
<!-- Node11 -->
<g id="node11" class="node">
<title>Node11</title>
<g id="a_node11"><a xlink:title=" ">
<polygon fill="none" stroke="#bfbfbf" points="473,-0.5 473,-19.5 525,-19.5 525,-0.5 473,-0.5"/>
<text text-anchor="middle" x="499" y="-7.5" font-family="Helvetica,sans-Serif" font-size="10.00">sstream</text>
</a>
</g>
</g>
<!-- Node7&#45;&gt;Node11 -->
<g id="edge10" class="edge">
<title>Node7&#45;&gt;Node11</title>
<path fill="none" stroke="midnightblue" d="M441.09,-56.32C451.49,-48.18 467.26,-35.84 479.72,-26.09"/>
<polygon fill="midnightblue" stroke="midnightblue" points="481.99,-28.75 487.71,-19.83 477.68,-23.24 481.99,-28.75"/>
</g>
<!-- Node12 -->
<g id="node12" class="node">
<title>Node12</title>
<g id="a_node12"><a xlink:title=" ">
<polygon fill="none" stroke="#bfbfbf" points="543.5,-0.5 543.5,-19.5 584.5,-19.5 584.5,-0.5 543.5,-0.5"/>
<text text-anchor="middle" x="564" y="-7.5" font-family="Helvetica,sans-Serif" font-size="10.00">string</text>
</a>
</g>
</g>
<!-- Node7&#45;&gt;Node12 -->
<g id="edge11" class="edge">
<title>Node7&#45;&gt;Node12</title>
<path fill="none" stroke="midnightblue" d="M451.23,-56.44C473.51,-47.46 508.73,-33.27 533.88,-23.14"/>
<polygon fill="midnightblue" stroke="midnightblue" points="535.34,-26.32 543.31,-19.34 532.72,-19.83 535.34,-26.32"/>
</g>
<!-- Node13&#45;&gt;Node3 -->
<g id="edge13" class="edge">
<title>Node13&#45;&gt;Node3</title>
<path fill="none" stroke="midnightblue" d="M219.57,-112.44C182.58,-102.98 122.96,-87.72 83.13,-77.53"/>
<polygon fill="midnightblue" stroke="midnightblue" points="83.77,-74.08 73.21,-74.99 82.03,-80.86 83.77,-74.08"/>
</g>
<!-- Node13&#45;&gt;Node5 -->
<g id="edge16" class="edge">
<title>Node13&#45;&gt;Node5</title>
<path fill="none" stroke="midnightblue" d="M230.98,-112.44C207.9,-103.48 171.44,-89.31 145.36,-79.18"/>
<polygon fill="midnightblue" stroke="midnightblue" points="146.51,-75.88 135.92,-75.52 143.98,-82.4 146.51,-75.88"/>
</g>
<!-- Node13&#45;&gt;Node7 -->
<g id="edge17" class="edge">
<title>Node13&#45;&gt;Node7</title>
<path fill="none" stroke="midnightblue" d="M281.05,-112.44C311.08,-103.28 358.91,-88.69 392.24,-78.52"/>
<polygon fill="midnightblue" stroke="midnightblue" points="393.54,-81.78 402.09,-75.52 391.5,-75.09 393.54,-81.78"/>
</g>
<!-- Node14 -->
<g id="node14" class="node">
<title>Node14</title>
<g id="a_node14"><a xlink:title=" ">
<polygon fill="none" stroke="#bfbfbf" points="311.5,-56.5 311.5,-75.5 370.5,-75.5 370.5,-56.5 311.5,-56.5"/>
<text text-anchor="middle" x="341" y="-63.5" font-family="Helvetica,sans-Serif" font-size="10.00">functional</text>
</a>
</g>
</g>
<!-- Node13&#45;&gt;Node14 -->
<g id="edge14" class="edge">
<title>Node13&#45;&gt;Node14</title>
<path fill="none" stroke="midnightblue" d="M267.14,-112.32C280.87,-103.9 301.94,-90.97 318.06,-81.07"/>
<polygon fill="midnightblue" stroke="midnightblue" points="320.2,-83.87 326.9,-75.65 316.54,-77.9 320.2,-83.87"/>
</g>
<!-- Node15 -->
<g id="node15" class="node">
<title>Node15</title>
<g id="a_node15"><a xlink:title=" ">
<polygon fill="none" stroke="#bfbfbf" points="155,-56.5 155,-75.5 195,-75.5 195,-56.5 155,-56.5"/>
<text text-anchor="middle" x="175" y="-63.5" font-family="Helvetica,sans-Serif" font-size="10.00">utility</text>
</a>
</g>
</g>
<!-- Node13&#45;&gt;Node15 -->
<g id="edge15" class="edge">
<title>Node13&#45;&gt;Node15</title>
<path fill="none" stroke="midnightblue" d="M240.47,-112.32C228.41,-103.98 209.97,-91.21 195.73,-81.35"/>
<polygon fill="midnightblue" stroke="midnightblue" points="197.72,-78.47 187.5,-75.65 193.73,-84.22 197.72,-78.47"/>
</g>
<!-- Node16 -->
<g id="node16" class="node">
<title>Node16</title>
<g id="a_node16"><a xlink:href="lang_8hpp.html" target="_top" xlink:title=" ">
<polygon fill="none" stroke="black" points="213,-56.5 213,-75.5 293,-75.5 293,-56.5 213,-56.5"/>
<text text-anchor="middle" x="253" y="-63.5" font-family="Helvetica,sans-Serif" font-size="10.00">plang/lang.hpp</text>
</a>
</g>
</g>
<!-- Node13&#45;&gt;Node16 -->
<g id="edge18" class="edge">
<title>Node13&#45;&gt;Node16</title>
<path fill="none" stroke="midnightblue" d="M253,-112.08C253,-105.01 253,-94.86 253,-85.99"/>
<polygon fill="midnightblue" stroke="midnightblue" points="256.5,-85.75 253,-75.75 249.5,-85.75 256.5,-85.75"/>
</g>
<!-- Node17&#45;&gt;Node6 -->
<g id="edge21" class="edge">
<title>Node17&#45;&gt;Node6</title>
<path fill="none" stroke="midnightblue" d="M446.8,-168.44C485.83,-158.26 550.57,-141.37 589.17,-131.3"/>
<polygon fill="midnightblue" stroke="midnightblue" points="590.06,-134.69 598.86,-128.78 588.3,-127.91 590.06,-134.69"/>
</g>
<!-- Node17&#45;&gt;Node7 -->
<g id="edge23" class="edge">
<title>Node17&#45;&gt;Node7</title>
<path fill="none" stroke="midnightblue" d="M413.75,-168.1C413.55,-155.51 413.72,-131.84 417,-112 418.47,-103.07 421.12,-93.41 423.65,-85.33"/>
<polygon fill="midnightblue" stroke="midnightblue" points="426.97,-86.42 426.78,-75.82 420.32,-84.22 426.97,-86.42"/>
</g>
<!-- Node17&#45;&gt;Node12 -->
<g id="edge20" class="edge">
<title>Node17&#45;&gt;Node12</title>
<path fill="none" stroke="midnightblue" d="M417.77,-168.45C423.71,-155.48 436.15,-130.38 451,-112 479.13,-77.18 519.77,-44.04 543.87,-25.72"/>
<polygon fill="midnightblue" stroke="midnightblue" points="546.05,-28.46 551.95,-19.67 541.85,-22.86 546.05,-28.46"/>
</g>
<!-- Node17&#45;&gt;Node13 -->
<g id="edge24" class="edge">
<title>Node17&#45;&gt;Node13</title>
<path fill="none" stroke="midnightblue" d="M388.49,-168.44C361.4,-159.36 318.41,-144.94 288.13,-134.78"/>
<polygon fill="midnightblue" stroke="midnightblue" points="288.99,-131.38 278.39,-131.52 286.76,-138.01 288.99,-131.38"/>
</g>
<!-- Node18 -->
<g id="node18" class="node">
<title>Node18</title>
<g id="a_node18"><a xlink:title=" ">
<polygon fill="none" stroke="#bfbfbf" points="459.5,-112.5 459.5,-131.5 542.5,-131.5 542.5,-112.5 459.5,-112.5"/>
<text text-anchor="middle" x="501" y="-119.5" font-family="Helvetica,sans-Serif" font-size="10.00">unordered_map</text>
</a>
</g>
</g>
<!-- Node17&#45;&gt;Node18 -->
<g id="edge22" class="edge">
<title>Node17&#45;&gt;Node18</title>
<path fill="none" stroke="midnightblue" d="M427.98,-168.32C441.55,-159.9 462.38,-146.97 478.32,-137.07"/>
<polygon fill="midnightblue" stroke="midnightblue" points="480.41,-139.9 487.06,-131.65 476.71,-133.95 480.41,-139.9"/>
</g>
<!-- Node20 -->
<g id="node20" class="node">
<title>Node20</title>
<g id="a_node20"><a xlink:href="symbol_8hpp.html" target="_top" xlink:title=" ">
<polygon fill="none" stroke="black" points="423,-224.5 423,-243.5 567,-243.5 567,-224.5 423,-224.5"/>
<text text-anchor="middle" x="495" y="-231.5" font-family="Helvetica,sans-Serif" font-size="10.00">plang/corpus/plot/symbol.hpp</text>
</a>
</g>
</g>
<!-- Node19&#45;&gt;Node20 -->
<g id="edge26" class="edge">
<title>Node19&#45;&gt;Node20</title>
<path fill="none" stroke="midnightblue" d="M630.49,-280.44C603.4,-271.36 560.41,-256.94 530.13,-246.78"/>
<polygon fill="midnightblue" stroke="midnightblue" points="530.99,-243.38 520.39,-243.52 528.76,-250.01 530.99,-243.38"/>
</g>
<!-- Node22 -->
<g id="node22" class="node">
<title>Node22</title>
<g id="a_node22"><a xlink:href="point_8hpp.html" target="_top" xlink:title=" ">
<polygon fill="none" stroke="black" points="745,-224.5 745,-243.5 879,-243.5 879,-224.5 745,-224.5"/>
<text text-anchor="middle" x="812" y="-231.5" font-family="Helvetica,sans-Serif" font-size="10.00">plang/corpus/plot/point.hpp</text>
</a>
</g>
</g>
<!-- Node19&#45;&gt;Node22 -->
<g id="edge36" class="edge">
<title>Node19&#45;&gt;Node22</title>
<path fill="none" stroke="midnightblue" d="M680.72,-280.44C706.85,-271.4 748.26,-257.06 777.58,-246.92"/>
<polygon fill="midnightblue" stroke="midnightblue" points="779.09,-250.1 787.4,-243.52 776.8,-243.48 779.09,-250.1"/>
</g>
<!-- Node23 -->
<g id="node23" class="node">
<title>Node23</title>
<g id="a_node23"><a xlink:href="object_8hpp.html" target="_top" xlink:title=" ">
<polygon fill="none" stroke="black" points="897.5,-224.5 897.5,-243.5 1036.5,-243.5 1036.5,-224.5 897.5,-224.5"/>
<text text-anchor="middle" x="967" y="-231.5" font-family="Helvetica,sans-Serif" font-size="10.00">plang/corpus/plot/object.hpp</text>
</a>
</g>
</g>
<!-- Node19&#45;&gt;Node23 -->
<g id="edge37" class="edge">
<title>Node19&#45;&gt;Node23</title>
<path fill="none" stroke="midnightblue" d="M705.28,-280.44C760.33,-270.89 849.4,-255.42 908.08,-245.23"/>
<polygon fill="midnightblue" stroke="midnightblue" points="908.7,-248.68 917.95,-243.52 907.5,-241.78 908.7,-248.68"/>
</g>
<!-- Node24 -->
<g id="node24" class="node">
<title>Node24</title>
<g id="a_node24"><a xlink:href="causal_8hpp.html" target="_top" xlink:title=" ">
<polygon fill="none" stroke="black" points="585.5,-224.5 585.5,-243.5 726.5,-243.5 726.5,-224.5 585.5,-224.5"/>
<text text-anchor="middle" x="656" y="-231.5" font-family="Helvetica,sans-Serif" font-size="10.00">plang/corpus/plot/causal.hpp</text>
</a>
</g>
</g>
<!-- Node19&#45;&gt;Node24 -->
<g id="edge38" class="edge">
<title>Node19&#45;&gt;Node24</title>
<path fill="none" stroke="midnightblue" d="M656,-280.08C656,-273.01 656,-262.86 656,-253.99"/>
<polygon fill="midnightblue" stroke="midnightblue" points="659.5,-253.75 656,-243.75 652.5,-253.75 659.5,-253.75"/>
</g>
<!-- Node20&#45;&gt;Node6 -->
<g id="edge28" class="edge">
<title>Node20&#45;&gt;Node6</title>
<path fill="none" stroke="midnightblue" d="M552.77,-224.45C575.29,-218.13 599.2,-207.13 614,-188 624.08,-174.96 624.98,-155.81 623.87,-141.67"/>
<polygon fill="midnightblue" stroke="midnightblue" points="627.33,-141.13 622.68,-131.61 620.38,-141.95 627.33,-141.13"/>
</g>
<!-- Node20&#45;&gt;Node7 -->
<g id="edge30" class="edge">
<title>Node20&#45;&gt;Node7</title>
<path fill="none" stroke="midnightblue" d="M558.96,-224.45C584.47,-218.13 612.37,-207.13 632,-188 657.01,-163.62 674.11,-139.04 652,-112 630.92,-86.22 540.6,-74.86 481.86,-70.12"/>
<polygon fill="midnightblue" stroke="midnightblue" points="481.88,-66.61 471.64,-69.33 481.34,-73.59 481.88,-66.61"/>
</g>
<!-- Node20&#45;&gt;Node12 -->
<g id="edge27" class="edge">
<title>Node20&#45;&gt;Node12</title>
<path fill="none" stroke="midnightblue" d="M544.36,-224.46C585.05,-216.46 638.51,-203.45 654,-188 678.44,-163.62 683.59,-143.73 670,-112 653.26,-72.92 613.13,-41.79 587.34,-24.9"/>
<polygon fill="midnightblue" stroke="midnightblue" points="589.19,-21.93 578.87,-19.53 585.44,-27.84 589.19,-21.93"/>
</g>
<!-- Node20&#45;&gt;Node13 -->
<g id="edge31" class="edge">
<title>Node20&#45;&gt;Node13</title>
<path fill="none" stroke="midnightblue" d="M456.64,-224.49C426.5,-217.02 383.92,-204.74 349,-188 320.01,-174.1 289.83,-152.25 271.23,-137.77"/>
<polygon fill="midnightblue" stroke="midnightblue" points="273.32,-134.97 263.31,-131.51 268.98,-140.46 273.32,-134.97"/>
</g>
<!-- Node20&#45;&gt;Node17 -->
<g id="edge32" class="edge">
<title>Node20&#45;&gt;Node17</title>
<path fill="none" stroke="midnightblue" d="M481.99,-224.32C469.47,-215.98 450.32,-203.21 435.53,-193.35"/>
<polygon fill="midnightblue" stroke="midnightblue" points="437.24,-190.29 426.98,-187.65 433.36,-196.11 437.24,-190.29"/>
</g>
<!-- Node20&#45;&gt;Node18 -->
<g id="edge29" class="edge">
<title>Node20&#45;&gt;Node18</title>
<path fill="none" stroke="midnightblue" d="M495.47,-224.37C496.44,-206.62 498.67,-165.67 499.99,-141.6"/>
<polygon fill="midnightblue" stroke="midnightblue" points="503.48,-141.77 500.53,-131.59 496.49,-141.39 503.48,-141.77"/>
</g>
<!-- Node20&#45;&gt;Node21 -->
<g id="edge33" class="edge">
<title>Node20&#45;&gt;Node21</title>
<path fill="none" stroke="midnightblue" d="M506.41,-224.32C517.11,-216.18 533.34,-203.84 546.16,-194.09"/>
<polygon fill="midnightblue" stroke="midnightblue" points="548.54,-196.67 554.39,-187.83 544.31,-191.1 548.54,-196.67"/>
</g>
<!-- Node21&#45;&gt;Node6 -->
<g id="edge34" class="edge">
<title>Node21&#45;&gt;Node6</title>
<path fill="none" stroke="midnightblue" d="M575.08,-168.08C583.17,-160.14 595.2,-148.34 604.91,-138.8"/>
<polygon fill="midnightblue" stroke="midnightblue" points="607.4,-141.25 612.09,-131.75 602.5,-136.26 607.4,-141.25"/>
</g>
<!-- Node21&#45;&gt;Node7 -->
<g id="edge35" class="edge">
<title>Node21&#45;&gt;Node7</title>
<path fill="none" stroke="midnightblue" d="M566.6,-168.27C567.06,-154.6 565.92,-128.04 552,-112 534.25,-91.55 506.34,-80.38 481.7,-74.29"/>
<polygon fill="midnightblue" stroke="midnightblue" points="482.25,-70.83 471.73,-72.05 480.72,-77.66 482.25,-70.83"/>
</g>
</g>
</svg>
