<?xml version="1.0" encoding="UTF-8" standalone="no"?>
<!DOCTYPE svg PUBLIC "-//W3C//DTD SVG 1.1//EN"
 "http://www.w3.org/Graphics/SVG/1.1/DTD/svg11.dtd">
<!-- Generated by graphviz version 2.44.1 (20220725.2034)
 -->
<!-- Title: Graphical Class Hierarchy Pages: 1 -->
<svg width="633pt" height="116pt"
 viewBox="0.00 0.00 633.00 115.50" xmlns="http://www.w3.org/2000/svg" xmlns:xlink="http://www.w3.org/1999/xlink">
<g id="graph0" class="graph" transform="scale(1 1) rotate(0) translate(4 111.5)">
<title>Graphical Class Hierarchy</title>
<!-- Node0 -->
<g id="node1" class="node">
<title>Node0</title>
<g id="a_node1"><a xlink:href="classplang_1_1detail_1_1corpus.html" target="_top" xlink:title="Provides a basic interface to a database.">
<polygon fill="none" stroke="black" points="0,-24.5 0,-43.5 104,-43.5 104,-24.5 0,-24.5"/>
<text text-anchor="middle" x="52" y="-31.5" font-family="Helvetica,sans-Serif" font-size="10.00">plang::detail::corpus</text>
</a>
</g>
</g>
<!-- Node1 -->
<g id="node2" class="node">
<title>Node1</title>
<g id="a_node2"><a xlink:href="classplang_1_1corpus.html" target="_top" xlink:title="The main interface for interacting with a corpus.">
<polygon fill="none" stroke="black" points="550,-0.5 550,-19.5 625,-19.5 625,-0.5 550,-0.5"/>
<text text-anchor="middle" x="587.5" y="-7.5" font-family="Helvetica,sans-Serif" font-size="10.00">plang::corpus</text>
</a>
</g>
</g>
<!-- Node0&#45;&gt;Node1 -->
<g id="edge1" class="edge">
<title>Node0&#45;&gt;Node1</title>
<path fill="none" stroke="midnightblue" d="M110.39,-22.63C120.24,-20.91 130.4,-19.29 140,-18 291,2.22 473.26,-3.89 549.82,-7.82"/>
<polygon fill="midnightblue" stroke="midnightblue" points="109.5,-19.23 100.28,-24.44 110.74,-26.12 109.5,-19.23"/>
</g>
<!-- Node2 -->
<g id="node3" class="node">
<title>Node2</title>
<g id="a_node3"><a xlink:href="classplang_1_1detail_1_1path__manager.html" target="_top" xlink:title="Handles database actions for paths.">
<polygon fill="none" stroke="black" points="140,-66 140,-96 234,-96 234,-66 140,-66"/>
<text text-anchor="start" x="148" y="-84" font-family="Helvetica,sans-Serif" font-size="10.00">plang::detail::path</text>
<text text-anchor="middle" x="187" y="-73" font-family="Helvetica,sans-Serif" font-size="10.00">_manager</text>
</a>
</g>
</g>
<!-- Node0&#45;&gt;Node2 -->
<g id="edge2" class="edge">
<title>Node0&#45;&gt;Node2</title>
<path fill="none" stroke="darkgreen" d="M89.81,-47.01C106.43,-52.88 126.16,-59.85 143.41,-65.95"/>
<polygon fill="darkgreen" stroke="darkgreen" points="90.51,-43.54 79.91,-43.51 88.18,-50.14 90.51,-43.54"/>
</g>
<!-- Node3 -->
<g id="node4" class="node">
<title>Node3</title>
<g id="a_node4"><a xlink:href="structplang_1_1detail_1_1mixin__base.html" target="_top" xlink:title=" ">
<polygon fill="none" stroke="black" points="270,-16.5 270,-57.5 374,-57.5 374,-16.5 270,-16.5"/>
<text text-anchor="start" x="278" y="-45.5" font-family="Helvetica,sans-Serif" font-size="10.00">plang::detail::mixin</text>
<text text-anchor="start" x="278" y="-34.5" font-family="Helvetica,sans-Serif" font-size="10.00">_base&lt; plang::detail</text>
<text text-anchor="middle" x="322" y="-23.5" font-family="Helvetica,sans-Serif" font-size="10.00">::path_manager &gt;</text>
</a>
</g>
</g>
<!-- Node2&#45;&gt;Node3 -->
<g id="edge3" class="edge">
<title>Node2&#45;&gt;Node3</title>
<path fill="none" stroke="midnightblue" d="M242.93,-62.83C251.84,-59.88 261.05,-56.83 269.87,-53.92"/>
<polygon fill="midnightblue" stroke="midnightblue" points="241.79,-59.52 233.4,-65.98 243.99,-66.16 241.79,-59.52"/>
</g>
<!-- Node5 -->
<g id="node6" class="node">
<title>Node5</title>
<g id="a_node6"><a xlink:href="structplang_1_1detail_1_1mixin__base.html" target="_top" xlink:title="Common derived class template for distributed overloading.">
<polygon fill="none" stroke="black" points="273,-77 273,-107 371,-107 371,-77 273,-77"/>
<text text-anchor="start" x="281" y="-95" font-family="Helvetica,sans-Serif" font-size="10.00">plang::detail::mixin</text>
<text text-anchor="middle" x="322" y="-84" font-family="Helvetica,sans-Serif" font-size="10.00">_base&lt; Tps &gt;</text>
</a>
</g>
</g>
<!-- Node2&#45;&gt;Node5 -->
<g id="edge6" class="edge">
<title>Node2&#45;&gt;Node5</title>
<path fill="none" stroke="midnightblue" d="M244.25,-85.65C253.71,-86.43 263.45,-87.24 272.68,-88"/>
<polygon fill="midnightblue" stroke="midnightblue" points="244.4,-82.15 234.14,-84.82 243.82,-89.13 244.4,-82.15"/>
</g>
<!-- Node4 -->
<g id="node5" class="node">
<title>Node4</title>
<g id="a_node5"><a xlink:href="structplang_1_1detail_1_1corpus__mixins.html" target="_top" xlink:title="Base class for the corpus.">
<polygon fill="none" stroke="black" points="410,-19 410,-49 514,-49 514,-19 410,-19"/>
<text text-anchor="start" x="418" y="-37" font-family="Helvetica,sans-Serif" font-size="10.00">plang::detail::corpus</text>
<text text-anchor="middle" x="462" y="-26" font-family="Helvetica,sans-Serif" font-size="10.00">_mixins</text>
</a>
</g>
</g>
<!-- Node3&#45;&gt;Node4 -->
<g id="edge4" class="edge">
<title>Node3&#45;&gt;Node4</title>
<path fill="none" stroke="midnightblue" d="M384.5,-35.66C392.87,-35.48 401.4,-35.3 409.57,-35.12"/>
<polygon fill="midnightblue" stroke="midnightblue" points="384.31,-32.17 374.39,-35.88 384.46,-39.16 384.31,-32.17"/>
</g>
<!-- Node4&#45;&gt;Node1 -->
<g id="edge5" class="edge">
<title>Node4&#45;&gt;Node1</title>
<path fill="none" stroke="midnightblue" d="M524.17,-22.11C532.95,-20.41 541.74,-18.7 549.85,-17.12"/>
<polygon fill="midnightblue" stroke="midnightblue" points="523.45,-18.69 514.3,-24.03 524.79,-25.56 523.45,-18.69"/>
</g>
<!-- Node74 -->
<g id="node7" class="node">
<title>Node74</title>
<g id="a_node7"><a xlink:title=" ">
<polygon fill="none" stroke="#bfbfbf" points="170.5,-27.5 170.5,-46.5 203.5,-46.5 203.5,-27.5 170.5,-27.5"/>
<text text-anchor="middle" x="187" y="-34.5" font-family="Helvetica,sans-Serif" font-size="10.00">Tps</text>
</a>
</g>
</g>
<!-- Node74&#45;&gt;Node3 -->
<g id="edge7" class="edge">
<title>Node74&#45;&gt;Node3</title>
<path fill="none" stroke="midnightblue" d="M213.64,-37C229.55,-37 250.57,-37 269.79,-37"/>
<polygon fill="midnightblue" stroke="midnightblue" points="213.52,-33.5 203.52,-37 213.52,-40.5 213.52,-33.5"/>
</g>
<!-- Node74&#45;&gt;Node5 -->
<g id="edge8" class="edge">
<title>Node74&#45;&gt;Node5</title>
<path fill="none" stroke="midnightblue" d="M212.94,-47.31C233.11,-55.66 261.8,-67.52 284.55,-76.93"/>
<polygon fill="midnightblue" stroke="midnightblue" points="214.1,-44 203.52,-43.42 211.42,-50.47 214.1,-44"/>
</g>
</g>
</svg>
