<?xml version="1.0" encoding="UTF-8" standalone="no"?>
<!DOCTYPE svg PUBLIC "-//W3C//DTD SVG 1.1//EN"
 "http://www.w3.org/Graphics/SVG/1.1/DTD/svg11.dtd">
<!-- Generated by graphviz version 2.44.1 (20220725.2034)
 -->
<!-- Title: Graphical Class Hierarchy Pages: 1 -->
<svg width="1088pt" height="429pt"
 viewBox="0.00 0.00 1088.00 428.87" xmlns="http://www.w3.org/2000/svg" xmlns:xlink="http://www.w3.org/1999/xlink">
<g id="graph0" class="graph" transform="scale(1 1) rotate(0) translate(4 424.87)">
<title>Graphical Class Hierarchy</title>
<!-- Node0 -->
<g id="node1" class="node">
<title>Node0</title>
<g id="a_node1"><a xlink:href="classplang_1_1detail_1_1corpus.html" target="_top" xlink:title="Provides a basic interface to a database.">
<polygon fill="none" stroke="black" points="0,-275.37 0,-294.37 104,-294.37 104,-275.37 0,-275.37"/>
<text text-anchor="middle" x="52" y="-282.37" font-family="Helvetica,sans-Serif" font-size="10.00">plang::detail::corpus</text>
</a>
</g>
</g>
<!-- Node1 -->
<g id="node2" class="node">
<title>Node1</title>
<g id="a_node2"><a xlink:href="classplang_1_1corpus.html" target="_top" xlink:title="The main interface for interacting with a corpus.">
<polygon fill="none" stroke="black" points="1005,-332.37 1005,-351.37 1080,-351.37 1080,-332.37 1005,-332.37"/>
<text text-anchor="middle" x="1042.5" y="-339.37" font-family="Helvetica,sans-Serif" font-size="10.00">plang::corpus</text>
</a>
</g>
</g>
<!-- Node0&#45;&gt;Node1 -->
<g id="edge1" class="edge">
<title>Node0&#45;&gt;Node1</title>
<path fill="none" stroke="midnightblue" d="M70.87,-301.44C111.93,-337.69 217.58,-420.87 322.5,-420.87 322.5,-420.87 322.5,-420.87 759.5,-420.87 861.44,-420.87 976.68,-372.41 1021.86,-351.4"/>
<polygon fill="midnightblue" stroke="midnightblue" points="73.1,-298.74 63.33,-294.65 68.42,-303.94 73.1,-298.74"/>
</g>
<!-- Node2 -->
<g id="node3" class="node">
<title>Node2</title>
<g id="a_node3"><a xlink:href="classplang_1_1detail_1_1object__class__manager.html" target="_top" xlink:title=" ">
<polygon fill="none" stroke="black" points="416,-231.87 416,-261.87 517,-261.87 517,-231.87 416,-231.87"/>
<text text-anchor="start" x="424" y="-249.87" font-family="Helvetica,sans-Serif" font-size="10.00">plang::detail::object</text>
<text text-anchor="middle" x="466.5" y="-238.87" font-family="Helvetica,sans-Serif" font-size="10.00">_class_manager</text>
</a>
</g>
</g>
<!-- Node0&#45;&gt;Node2 -->
<g id="edge2" class="edge">
<title>Node0&#45;&gt;Node2</title>
<path fill="none" stroke="darkgreen" d="M114.3,-281.85C179.56,-278.28 285.79,-271.45 377,-260.87 389.67,-259.4 403.3,-257.44 415.98,-255.45"/>
<polygon fill="darkgreen" stroke="darkgreen" points="113.99,-278.36 104.19,-282.4 114.36,-285.35 113.99,-278.36"/>
</g>
<!-- Node6 -->
<g id="node7" class="node">
<title>Node6</title>
<g id="a_node7"><a xlink:href="classplang_1_1detail_1_1point__class__manager.html" target="_top" xlink:title=" ">
<polygon fill="none" stroke="black" points="556,-291.87 556,-321.87 652,-321.87 652,-291.87 556,-291.87"/>
<text text-anchor="start" x="564" y="-309.87" font-family="Helvetica,sans-Serif" font-size="10.00">plang::detail::point</text>
<text text-anchor="middle" x="604" y="-298.87" font-family="Helvetica,sans-Serif" font-size="10.00">_class_manager</text>
</a>
</g>
</g>
<!-- Node0&#45;&gt;Node6 -->
<g id="edge23" class="edge">
<title>Node0&#45;&gt;Node6</title>
<path fill="none" stroke="darkgreen" d="M114.13,-290.16C122.81,-290.8 131.63,-291.4 140,-291.87 291.96,-300.49 472.27,-304.56 555.98,-306.1"/>
<polygon fill="darkgreen" stroke="darkgreen" points="114.27,-286.66 104.04,-289.39 113.74,-293.64 114.27,-286.66"/>
</g>
<!-- Node7 -->
<g id="node8" class="node">
<title>Node7</title>
<g id="a_node8"><a xlink:href="classplang_1_1detail_1_1path__manager.html" target="_top" xlink:title="Handles database actions for paths.">
<polygon fill="none" stroke="black" points="140,-231.87 140,-261.87 234,-261.87 234,-231.87 140,-231.87"/>
<text text-anchor="start" x="148" y="-249.87" font-family="Helvetica,sans-Serif" font-size="10.00">plang::detail::path</text>
<text text-anchor="middle" x="187" y="-238.87" font-family="Helvetica,sans-Serif" font-size="10.00">_manager</text>
</a>
</g>
</g>
<!-- Node0&#45;&gt;Node7 -->
<g id="edge10" class="edge">
<title>Node0&#45;&gt;Node7</title>
<path fill="none" stroke="darkgreen" d="M96.39,-272.48C110.31,-268.5 125.78,-264.08 139.89,-260.05"/>
<polygon fill="darkgreen" stroke="darkgreen" points="95.22,-269.17 86.56,-275.28 97.14,-275.9 95.22,-269.17"/>
</g>
<!-- Node8 -->
<g id="node9" class="node">
<title>Node8</title>
<g id="a_node9"><a xlink:href="classplang_1_1detail_1_1symbol__class__manager.html" target="_top" xlink:title=" ">
<polygon fill="none" stroke="black" points="270,-171.87 270,-201.87 377,-201.87 377,-171.87 270,-171.87"/>
<text text-anchor="start" x="278" y="-189.87" font-family="Helvetica,sans-Serif" font-size="10.00">plang::detail::symbol</text>
<text text-anchor="middle" x="323.5" y="-178.87" font-family="Helvetica,sans-Serif" font-size="10.00">_class_manager</text>
</a>
</g>
</g>
<!-- Node0&#45;&gt;Node8 -->
<g id="edge24" class="edge">
<title>Node0&#45;&gt;Node8</title>
<path fill="none" stroke="darkgreen" d="M70.83,-268.3C87.47,-253.79 113.62,-233.28 140,-221.87 181.6,-203.88 232.51,-195.1 269.98,-190.83"/>
<polygon fill="darkgreen" stroke="darkgreen" points="68.17,-265.99 63.05,-275.27 72.83,-271.21 68.17,-265.99"/>
</g>
<!-- Node9 -->
<g id="node10" class="node">
<title>Node9</title>
<g id="a_node10"><a xlink:href="classplang_1_1detail_1_1symbol__manager.html" target="_top" xlink:title=" ">
<polygon fill="none" stroke="black" points="413,-25.87 413,-55.87 520,-55.87 520,-25.87 413,-25.87"/>
<text text-anchor="start" x="421" y="-43.87" font-family="Helvetica,sans-Serif" font-size="10.00">plang::detail::symbol</text>
<text text-anchor="middle" x="466.5" y="-32.87" font-family="Helvetica,sans-Serif" font-size="10.00">_manager</text>
</a>
</g>
</g>
<!-- Node0&#45;&gt;Node9 -->
<g id="edge25" class="edge">
<title>Node0&#45;&gt;Node9</title>
<path fill="none" stroke="darkgreen" d="M66.37,-267.13C82.19,-247.06 110.19,-214.39 140,-192.87 230.78,-127.36 354.29,-78.99 419.99,-55.93"/>
<polygon fill="darkgreen" stroke="darkgreen" points="63.53,-265.08 60.18,-275.13 69.06,-269.36 63.53,-265.08"/>
</g>
<!-- Node3 -->
<g id="node4" class="node">
<title>Node3</title>
<g id="a_node4"><a xlink:href="structplang_1_1detail_1_1mixin__base.html" target="_top" xlink:title=" ">
<polygon fill="none" stroke="black" points="688,-209.37 688,-316.37 829,-316.37 829,-209.37 688,-209.37"/>
<text text-anchor="start" x="696" y="-304.37" font-family="Helvetica,sans-Serif" font-size="10.00">plang::detail::mixin</text>
<text text-anchor="start" x="696" y="-293.37" font-family="Helvetica,sans-Serif" font-size="10.00">_base&lt; plang::detail</text>
<text text-anchor="start" x="696" y="-282.37" font-family="Helvetica,sans-Serif" font-size="10.00">::path_manager, plang</text>
<text text-anchor="start" x="696" y="-271.37" font-family="Helvetica,sans-Serif" font-size="10.00">::detail::symbol_class</text>
<text text-anchor="start" x="696" y="-260.37" font-family="Helvetica,sans-Serif" font-size="10.00">_manager, plang::detail</text>
<text text-anchor="start" x="696" y="-249.37" font-family="Helvetica,sans-Serif" font-size="10.00">::symbol_manager, plang::</text>
<text text-anchor="start" x="696" y="-238.37" font-family="Helvetica,sans-Serif" font-size="10.00">detail::point_class_manager,</text>
<text text-anchor="start" x="696" y="-227.37" font-family="Helvetica,sans-Serif" font-size="10.00"> plang::detail::object_class</text>
<text text-anchor="middle" x="758.5" y="-216.37" font-family="Helvetica,sans-Serif" font-size="10.00">_manager &gt;</text>
</a>
</g>
</g>
<!-- Node2&#45;&gt;Node3 -->
<g id="edge3" class="edge">
<title>Node2&#45;&gt;Node3</title>
<path fill="none" stroke="midnightblue" d="M527.28,-250.17C573.92,-252.74 638.81,-256.32 687.81,-259.03"/>
<polygon fill="midnightblue" stroke="midnightblue" points="527.2,-246.66 517.02,-249.61 526.82,-253.65 527.2,-246.66"/>
</g>
<!-- Node5 -->
<g id="node6" class="node">
<title>Node5</title>
<g id="a_node6"><a xlink:href="structplang_1_1detail_1_1mixin__base.html" target="_top" xlink:title="Common derived class template for distributed overloading.">
<polygon fill="none" stroke="black" points="709.5,-76.87 709.5,-106.87 807.5,-106.87 807.5,-76.87 709.5,-76.87"/>
<text text-anchor="start" x="717.5" y="-94.87" font-family="Helvetica,sans-Serif" font-size="10.00">plang::detail::mixin</text>
<text text-anchor="middle" x="758.5" y="-83.87" font-family="Helvetica,sans-Serif" font-size="10.00">_base&lt; Tps &gt;</text>
</a>
</g>
</g>
<!-- Node2&#45;&gt;Node5 -->
<g id="edge6" class="edge">
<title>Node2&#45;&gt;Node5</title>
<path fill="none" stroke="midnightblue" d="M478.93,-222.62C493.06,-195.47 519.75,-152.34 556,-129.87 602.6,-100.99 666.05,-93.11 709.22,-91.41"/>
<polygon fill="midnightblue" stroke="midnightblue" points="475.67,-221.33 474.3,-231.83 481.92,-224.47 475.67,-221.33"/>
</g>
<!-- Node2&#45;&gt;Node6 -->
<g id="edge7" class="edge">
<title>Node2&#45;&gt;Node6</title>
<path fill="none" stroke="darkgreen" d="M510.91,-266.1C529.65,-274.39 551.25,-283.96 568.82,-291.74"/>
<polygon fill="darkgreen" stroke="darkgreen" points="512.25,-262.86 501.69,-262.01 509.42,-269.26 512.25,-262.86"/>
</g>
<!-- Node4 -->
<g id="node5" class="node">
<title>Node4</title>
<g id="a_node5"><a xlink:href="structplang_1_1detail_1_1corpus__mixins.html" target="_top" xlink:title="Base class for the corpus.">
<polygon fill="none" stroke="black" points="865,-304.87 865,-334.87 969,-334.87 969,-304.87 865,-304.87"/>
<text text-anchor="start" x="873" y="-322.87" font-family="Helvetica,sans-Serif" font-size="10.00">plang::detail::corpus</text>
<text text-anchor="middle" x="917" y="-311.87" font-family="Helvetica,sans-Serif" font-size="10.00">_mixins</text>
</a>
</g>
</g>
<!-- Node3&#45;&gt;Node4 -->
<g id="edge4" class="edge">
<title>Node3&#45;&gt;Node4</title>
<path fill="none" stroke="midnightblue" d="M838.54,-291.66C850.97,-296.19 863.37,-300.7 874.49,-304.76"/>
<polygon fill="midnightblue" stroke="midnightblue" points="839.65,-288.34 829.05,-288.21 837.25,-294.92 839.65,-288.34"/>
</g>
<!-- Node4&#45;&gt;Node1 -->
<g id="edge5" class="edge">
<title>Node4&#45;&gt;Node1</title>
<path fill="none" stroke="midnightblue" d="M979.17,-330.77C987.95,-332.33 996.74,-333.9 1004.85,-335.34"/>
<polygon fill="midnightblue" stroke="midnightblue" points="979.76,-327.32 969.3,-329.01 978.53,-334.21 979.76,-327.32"/>
</g>
<!-- Node6&#45;&gt;Node3 -->
<g id="edge8" class="edge">
<title>Node6&#45;&gt;Node3</title>
<path fill="none" stroke="midnightblue" d="M662.06,-290.41C670.43,-287.99 679.13,-285.48 687.72,-283.01"/>
<polygon fill="midnightblue" stroke="midnightblue" points="661.05,-287.06 652.42,-293.19 662.99,-293.78 661.05,-287.06"/>
</g>
<!-- Node6&#45;&gt;Node5 -->
<g id="edge9" class="edge">
<title>Node6&#45;&gt;Node5</title>
<path fill="none" stroke="midnightblue" d="M621.7,-283.33C653.21,-238.91 720.61,-143.89 746.79,-106.97"/>
<polygon fill="midnightblue" stroke="midnightblue" points="618.65,-281.57 615.72,-291.75 624.36,-285.62 618.65,-281.57"/>
</g>
<!-- Node7&#45;&gt;Node2 -->
<g id="edge13" class="edge">
<title>Node7&#45;&gt;Node2</title>
<path fill="none" stroke="darkgreen" d="M244.21,-246.87C294.58,-246.87 367.76,-246.87 415.97,-246.87"/>
<polygon fill="darkgreen" stroke="darkgreen" points="244.14,-243.37 234.13,-246.87 244.13,-250.37 244.14,-243.37"/>
</g>
<!-- Node7&#45;&gt;Node3 -->
<g id="edge11" class="edge">
<title>Node7&#45;&gt;Node3</title>
<path fill="none" stroke="midnightblue" d="M227.71,-266.27C308.73,-303.21 498.43,-376.08 652,-330.87 664.23,-327.27 676.38,-321.77 687.85,-315.42"/>
<polygon fill="midnightblue" stroke="midnightblue" points="228.92,-262.98 218.38,-261.96 225.98,-269.33 228.92,-262.98"/>
</g>
<!-- Node7&#45;&gt;Node5 -->
<g id="edge12" class="edge">
<title>Node7&#45;&gt;Node5</title>
<path fill="none" stroke="midnightblue" d="M202.01,-222.75C232.67,-172.69 311.18,-58.67 413,-15.87 527.05,32.07 675.61,-42.97 733.21,-76.76"/>
<polygon fill="midnightblue" stroke="midnightblue" points="198.84,-221.22 196.69,-231.59 204.84,-224.83 198.84,-221.22"/>
</g>
<!-- Node7&#45;&gt;Node6 -->
<g id="edge14" class="edge">
<title>Node7&#45;&gt;Node6</title>
<path fill="none" stroke="darkgreen" d="M244.35,-255.02C326.86,-266.95 479.07,-288.96 555.95,-300.07"/>
<polygon fill="darkgreen" stroke="darkgreen" points="244.8,-251.55 234.4,-253.58 243.79,-258.48 244.8,-251.55"/>
</g>
<!-- Node7&#45;&gt;Node8 -->
<g id="edge15" class="edge">
<title>Node7&#45;&gt;Node8</title>
<path fill="none" stroke="darkgreen" d="M231.09,-227.65C249.69,-219.35 271.13,-209.79 288.57,-202.01"/>
<polygon fill="darkgreen" stroke="darkgreen" points="229.65,-224.46 221.94,-231.73 232.5,-230.85 229.65,-224.46"/>
</g>
<!-- Node8&#45;&gt;Node2 -->
<g id="edge18" class="edge">
<title>Node8&#45;&gt;Node2</title>
<path fill="none" stroke="darkgreen" d="M369.41,-205.98C388.96,-214.3 411.56,-223.92 429.93,-231.74"/>
<polygon fill="darkgreen" stroke="darkgreen" points="370.65,-202.71 360.08,-202.01 367.91,-209.15 370.65,-202.71"/>
</g>
<!-- Node8&#45;&gt;Node3 -->
<g id="edge16" class="edge">
<title>Node8&#45;&gt;Node3</title>
<path fill="none" stroke="midnightblue" d="M387.48,-180.69C426.15,-178.49 476.44,-178.51 520,-187.87 537.12,-191.55 539.56,-197.84 556,-203.87 599.12,-219.69 648.61,-234.23 687.75,-244.92"/>
<polygon fill="midnightblue" stroke="midnightblue" points="387.17,-177.2 377.41,-181.32 387.61,-184.19 387.17,-177.2"/>
</g>
<!-- Node8&#45;&gt;Node5 -->
<g id="edge17" class="edge">
<title>Node8&#45;&gt;Node5</title>
<path fill="none" stroke="midnightblue" d="M361.31,-167.07C405.9,-144.28 484.01,-108.16 556,-93.87 607.64,-83.62 668.21,-84.73 709.35,-87.39"/>
<polygon fill="midnightblue" stroke="midnightblue" points="359.59,-164.02 352.32,-171.72 362.81,-170.23 359.59,-164.02"/>
</g>
<!-- Node8&#45;&gt;Node6 -->
<g id="edge19" class="edge">
<title>Node8&#45;&gt;Node6</title>
<path fill="none" stroke="darkgreen" d="M387.29,-188.38C427.28,-191.63 479.08,-200.19 520,-221.87 551.89,-238.77 578.97,-272.29 592.91,-291.8"/>
<polygon fill="darkgreen" stroke="darkgreen" points="387.35,-184.88 377.13,-187.65 386.85,-191.86 387.35,-184.88"/>
</g>
<!-- Node8&#45;&gt;Node9 -->
<g id="edge20" class="edge">
<title>Node8&#45;&gt;Node9</title>
<path fill="none" stroke="darkgreen" d="M338.5,-163.24C354.26,-138.09 381.77,-98.22 413,-70.87 419.4,-65.27 427,-60.21 434.41,-55.91"/>
<polygon fill="darkgreen" stroke="darkgreen" points="335.5,-161.44 333.24,-171.79 341.46,-165.11 335.5,-161.44"/>
</g>
<!-- Node9&#45;&gt;Node3 -->
<g id="edge21" class="edge">
<title>Node9&#45;&gt;Node3</title>
<path fill="none" stroke="midnightblue" d="M479.31,-65.28C493.92,-93.29 521.19,-139.05 556,-167.87 592.01,-197.69 609.69,-190.98 652,-210.87 663.64,-216.35 675.94,-222.28 687.87,-228.1"/>
<polygon fill="midnightblue" stroke="midnightblue" points="482.33,-63.5 474.68,-56.17 476.09,-66.67 482.33,-63.5"/>
</g>
<!-- Node9&#45;&gt;Node5 -->
<g id="edge22" class="edge">
<title>Node9&#45;&gt;Node5</title>
<path fill="none" stroke="midnightblue" d="M530.35,-43.79C566.25,-46.25 611.95,-50.75 652,-58.87 673.63,-63.26 697.12,-70.37 716.43,-76.86"/>
<polygon fill="midnightblue" stroke="midnightblue" points="530.22,-40.27 520.02,-43.12 529.77,-47.26 530.22,-40.27"/>
</g>
<!-- Node84 -->
<g id="node11" class="node">
<title>Node84</title>
<g id="a_node11"><a xlink:title=" ">
<polygon fill="none" stroke="#bfbfbf" points="587.5,-139.37 587.5,-158.37 620.5,-158.37 620.5,-139.37 587.5,-139.37"/>
<text text-anchor="middle" x="604" y="-146.37" font-family="Helvetica,sans-Serif" font-size="10.00">Tps</text>
</a>
</g>
</g>
<!-- Node84&#45;&gt;Node3 -->
<g id="edge26" class="edge">
<title>Node84&#45;&gt;Node3</title>
<path fill="none" stroke="midnightblue" d="M630.16,-160.36C637.41,-164.02 645.19,-168.32 652,-172.87 668.11,-183.64 684.52,-196.54 699.45,-209.16"/>
<polygon fill="midnightblue" stroke="midnightblue" points="631.28,-157.01 620.75,-155.78 628.22,-163.3 631.28,-157.01"/>
</g>
<!-- Node84&#45;&gt;Node5 -->
<g id="edge27" class="edge">
<title>Node84&#45;&gt;Node5</title>
<path fill="none" stroke="midnightblue" d="M630.41,-139.38C654.1,-130.52 689.82,-117.17 717.37,-106.87"/>
<polygon fill="midnightblue" stroke="midnightblue" points="628.89,-136.21 620.75,-142.99 631.34,-142.76 628.89,-136.21"/>
</g>
</g>
</svg>
