<?xml version="1.0" encoding="UTF-8" standalone="no"?>
<!DOCTYPE svg PUBLIC "-//W3C//DTD SVG 1.1//EN"
 "http://www.w3.org/Graphics/SVG/1.1/DTD/svg11.dtd">
<!-- Generated by graphviz version 2.44.1 (20220725.2034)
 -->
<!-- Title: Graphical Class Hierarchy Pages: 1 -->
<svg width="291pt" height="127pt"
 viewBox="0.00 0.00 291.00 127.00" xmlns="http://www.w3.org/2000/svg" xmlns:xlink="http://www.w3.org/1999/xlink">
<g id="graph0" class="graph" transform="scale(1 1) rotate(0) translate(4 123)">
<title>Graphical Class Hierarchy</title>
<!-- Node0 -->
<g id="node1" class="node">
<title>Node0</title>
<g id="a_node1"><a xlink:href="classplang_1_1detail_1_1base__types_1_1persisted.html" target="_top" xlink:title=" ">
<polygon fill="none" stroke="black" points="0,-44.5 0,-74.5 128,-74.5 128,-44.5 0,-44.5"/>
<text text-anchor="start" x="8" y="-62.5" font-family="Helvetica,sans-Serif" font-size="10.00">plang::detail::base</text>
<text text-anchor="middle" x="64" y="-51.5" font-family="Helvetica,sans-Serif" font-size="10.00">_types::persisted&lt; sym &gt;</text>
</a>
</g>
</g>
<!-- Node1 -->
<g id="node2" class="node">
<title>Node1</title>
<g id="a_node2"><a xlink:href="classplang_1_1plot_1_1object_1_1clazz_1_1hint_1_1sym.html" target="_top" xlink:title=" ">
<polygon fill="none" stroke="black" points="176.5,-88.5 176.5,-118.5 270.5,-118.5 270.5,-88.5 176.5,-88.5"/>
<text text-anchor="start" x="184.5" y="-106.5" font-family="Helvetica,sans-Serif" font-size="10.00">plang::plot::object</text>
<text text-anchor="middle" x="223.5" y="-95.5" font-family="Helvetica,sans-Serif" font-size="10.00">::clazz::hint::sym</text>
</a>
</g>
</g>
<!-- Node0&#45;&gt;Node1 -->
<g id="edge1" class="edge">
<title>Node0&#45;&gt;Node1</title>
<path fill="none" stroke="midnightblue" d="M128.57,-77.26C144.55,-81.72 161.39,-86.43 176.33,-90.6"/>
<polygon fill="midnightblue" stroke="midnightblue" points="129.34,-73.84 118.76,-74.52 127.45,-80.58 129.34,-73.84"/>
</g>
<!-- Node2 -->
<g id="node3" class="node">
<title>Node2</title>
<g id="a_node3"><a xlink:href="classplang_1_1plot_1_1object_1_1sym.html" target="_top" xlink:title=" ">
<polygon fill="none" stroke="black" points="164,-50 164,-69 283,-69 283,-50 164,-50"/>
<text text-anchor="middle" x="223.5" y="-57" font-family="Helvetica,sans-Serif" font-size="10.00">plang::plot::object::sym</text>
</a>
</g>
</g>
<!-- Node0&#45;&gt;Node2 -->
<g id="edge2" class="edge">
<title>Node0&#45;&gt;Node2</title>
<path fill="none" stroke="midnightblue" d="M138.21,-59.5C146.83,-59.5 155.54,-59.5 163.93,-59.5"/>
<polygon fill="midnightblue" stroke="midnightblue" points="138.15,-56 128.15,-59.5 138.15,-63 138.15,-56"/>
</g>
<!-- Node3 -->
<g id="node4" class="node">
<title>Node3</title>
<g id="a_node4"><a xlink:href="classplang_1_1plot_1_1point_1_1subject_1_1sym.html" target="_top" xlink:title=" ">
<polygon fill="none" stroke="black" points="179,-0.5 179,-30.5 268,-30.5 268,-0.5 179,-0.5"/>
<text text-anchor="start" x="187" y="-18.5" font-family="Helvetica,sans-Serif" font-size="10.00">plang::plot::point</text>
<text text-anchor="middle" x="223.5" y="-7.5" font-family="Helvetica,sans-Serif" font-size="10.00">::subject::sym</text>
</a>
</g>
</g>
<!-- Node0&#45;&gt;Node3 -->
<g id="edge3" class="edge">
<title>Node0&#45;&gt;Node3</title>
<path fill="none" stroke="midnightblue" d="M128.57,-41.74C145.47,-37.02 163.33,-32.03 178.89,-27.68"/>
<polygon fill="midnightblue" stroke="midnightblue" points="127.45,-38.42 118.76,-44.48 129.34,-45.16 127.45,-38.42"/>
</g>
</g>
</svg>
