<?xml version="1.0" encoding="UTF-8" standalone="no"?>
<!DOCTYPE svg PUBLIC "-//W3C//DTD SVG 1.1//EN"
 "http://www.w3.org/Graphics/SVG/1.1/DTD/svg11.dtd">
<!-- Generated by graphviz version 2.44.1 (20220725.2034)
 -->
<!-- Title: Graphical Class Hierarchy Pages: 1 -->
<svg width="237pt" height="88pt"
 viewBox="0.00 0.00 237.00 88.00" xmlns="http://www.w3.org/2000/svg" xmlns:xlink="http://www.w3.org/1999/xlink">
<g id="graph0" class="graph" transform="scale(1 1) rotate(0) translate(4 84)">
<title>Graphical Class Hierarchy</title>
<!-- Node22 -->
<g id="node1" class="node">
<title>Node22</title>
<g id="a_node1"><a xlink:title=" ">
<polygon fill="none" stroke="#bfbfbf" points="0,-30 0,-49 38,-49 38,-30 0,-30"/>
<text text-anchor="middle" x="19" y="-37" font-family="Helvetica,sans-Serif" font-size="10.00">hash</text>
</a>
</g>
</g>
<!-- Node0 -->
<g id="node2" class="node">
<title>Node0</title>
<g id="a_node2"><a xlink:href="structstd_1_1hash_3_01plang_1_1detail_1_1cls__col_3_01_table_tp_00_01_col_tp_00_01_i_01_4_01_4.html" target="_top" xlink:title=" ">
<polygon fill="none" stroke="black" points="74,-49.5 74,-79.5 229,-79.5 229,-49.5 74,-49.5"/>
<text text-anchor="start" x="82" y="-67.5" font-family="Helvetica,sans-Serif" font-size="10.00">std::hash&lt; plang::detail</text>
<text text-anchor="middle" x="151.5" y="-56.5" font-family="Helvetica,sans-Serif" font-size="10.00">::cls_col&lt; TableTp, ColTp, I &gt; &gt;</text>
</a>
</g>
</g>
<!-- Node22&#45;&gt;Node0 -->
<g id="edge1" class="edge">
<title>Node22&#45;&gt;Node0</title>
<path fill="none" stroke="midnightblue" d="M48.08,-44.88C55.9,-46.38 64.79,-48.08 73.99,-49.84"/>
<polygon fill="midnightblue" stroke="midnightblue" points="48.63,-41.42 38.15,-42.98 47.31,-48.3 48.63,-41.42"/>
</g>
<!-- Node24 -->
<g id="node3" class="node">
<title>Node24</title>
<g id="a_node3"><a xlink:href="structstd_1_1hash_3_01plang_1_1entry__type_01_4.html" target="_top" xlink:title=" ">
<polygon fill="none" stroke="black" points="93,-0.5 93,-30.5 210,-30.5 210,-0.5 93,-0.5"/>
<text text-anchor="start" x="101" y="-18.5" font-family="Helvetica,sans-Serif" font-size="10.00">std::hash&lt; plang::entry</text>
<text text-anchor="middle" x="151.5" y="-7.5" font-family="Helvetica,sans-Serif" font-size="10.00">_type &gt;</text>
</a>
</g>
</g>
<!-- Node22&#45;&gt;Node24 -->
<g id="edge2" class="edge">
<title>Node22&#45;&gt;Node24</title>
<path fill="none" stroke="midnightblue" d="M48.37,-34.28C61.46,-31.88 77.5,-28.93 92.95,-26.08"/>
<polygon fill="midnightblue" stroke="midnightblue" points="47.35,-30.91 38.15,-36.16 48.61,-37.8 47.35,-30.91"/>
</g>
</g>
</svg>
