<?xml version="1.0" encoding="UTF-8" standalone="no"?>
<!DOCTYPE svg PUBLIC "-//W3C//DTD SVG 1.1//EN"
 "http://www.w3.org/Graphics/SVG/1.1/DTD/svg11.dtd">
<!-- Generated by graphviz version 2.44.1 (20220725.2034)
 -->
<!-- Title: Graphical Class Hierarchy Pages: 1 -->
<svg width="259pt" height="836pt"
 viewBox="0.00 0.00 259.00 836.00" xmlns="http://www.w3.org/2000/svg" xmlns:xlink="http://www.w3.org/1999/xlink">
<g id="graph0" class="graph" transform="scale(1 1) rotate(0) translate(4 832)">
<title>Graphical Class Hierarchy</title>
<!-- Node0 -->
<g id="node1" class="node">
<title>Node0</title>
<g id="a_node1"><a xlink:href="classplang_1_1detail_1_1base__types_1_1decorated.html" target="_top" xlink:title="Base type for decorated classes.">
<polygon fill="none" stroke="black" points="0,-753.5 0,-783.5 96,-783.5 96,-753.5 0,-753.5"/>
<text text-anchor="start" x="8" y="-771.5" font-family="Helvetica,sans-Serif" font-size="10.00">plang::detail::base</text>
<text text-anchor="middle" x="48" y="-760.5" font-family="Helvetica,sans-Serif" font-size="10.00">_types::decorated</text>
</a>
</g>
</g>
<!-- Node1 -->
<g id="node2" class="node">
<title>Node1</title>
<g id="a_node2"><a xlink:href="classplang_1_1plot_1_1object_1_1clazz.html" target="_top" xlink:title=" ">
<polygon fill="none" stroke="black" points="144.5,-797.5 144.5,-827.5 238.5,-827.5 238.5,-797.5 144.5,-797.5"/>
<text text-anchor="start" x="152.5" y="-815.5" font-family="Helvetica,sans-Serif" font-size="10.00">plang::plot::object</text>
<text text-anchor="middle" x="191.5" y="-804.5" font-family="Helvetica,sans-Serif" font-size="10.00">::clazz</text>
</a>
</g>
</g>
<!-- Node0&#45;&gt;Node1 -->
<g id="edge1" class="edge">
<title>Node0&#45;&gt;Node1</title>
<path fill="none" stroke="midnightblue" d="M105.7,-786.13C118.44,-790.09 131.81,-794.25 144.07,-798.06"/>
<polygon fill="midnightblue" stroke="midnightblue" points="106.71,-782.78 96.12,-783.15 104.63,-789.46 106.71,-782.78"/>
</g>
<!-- Node2 -->
<g id="node3" class="node">
<title>Node2</title>
<g id="a_node3"><a xlink:href="classplang_1_1plot_1_1symbol.html" target="_top" xlink:title=" ">
<polygon fill="none" stroke="black" points="142,-759 142,-778 241,-778 241,-759 142,-759"/>
<text text-anchor="middle" x="191.5" y="-766" font-family="Helvetica,sans-Serif" font-size="10.00">plang::plot::symbol</text>
</a>
</g>
</g>
<!-- Node0&#45;&gt;Node2 -->
<g id="edge2" class="edge">
<title>Node0&#45;&gt;Node2</title>
<path fill="none" stroke="midnightblue" d="M106.26,-768.5C118,-768.5 130.25,-768.5 141.65,-768.5"/>
<polygon fill="midnightblue" stroke="midnightblue" points="106.12,-765 96.12,-768.5 106.12,-772 106.12,-765"/>
</g>
<!-- Node3 -->
<g id="node4" class="node">
<title>Node3</title>
<g id="a_node4"><a xlink:href="classplang_1_1root_1_1path.html" target="_top" xlink:title="A node in the corpus&#39; path tree.">
<polygon fill="none" stroke="black" points="148,-721 148,-740 235,-740 235,-721 148,-721"/>
<text text-anchor="middle" x="191.5" y="-728" font-family="Helvetica,sans-Serif" font-size="10.00">plang::root::path</text>
</a>
</g>
</g>
<!-- Node0&#45;&gt;Node3 -->
<g id="edge3" class="edge">
<title>Node0&#45;&gt;Node3</title>
<path fill="none" stroke="midnightblue" d="M106.18,-753.14C122.61,-748.73 140.05,-744.05 154.78,-740.09"/>
<polygon fill="midnightblue" stroke="midnightblue" points="104.87,-749.87 96.12,-755.85 106.68,-756.63 104.87,-749.87"/>
</g>
<!-- Node28 -->
<g id="node5" class="node">
<title>Node28</title>
<g id="a_node5"><a xlink:href="classplang_1_1detail_1_1base__types_1_1persisted.html" target="_top" xlink:title="Base type for persisted classes.">
<polygon fill="none" stroke="black" points="0,-392.5 0,-422.5 96,-422.5 96,-392.5 0,-392.5"/>
<text text-anchor="start" x="8" y="-410.5" font-family="Helvetica,sans-Serif" font-size="10.00">plang::detail::base</text>
<text text-anchor="middle" x="48" y="-399.5" font-family="Helvetica,sans-Serif" font-size="10.00">_types::persisted</text>
</a>
</g>
</g>
<!-- Node28&#45;&gt;Node1 -->
<g id="edge4" class="edge">
<title>Node28&#45;&gt;Node1</title>
<path fill="none" stroke="midnightblue" d="M53.21,-433.19C66.66,-514.07 109.03,-759.73 132,-787.5 135.45,-791.67 139.72,-795.16 144.37,-798.08"/>
<polygon fill="midnightblue" stroke="midnightblue" points="56.6,-432.21 51.51,-422.91 49.69,-433.35 56.6,-432.21"/>
</g>
<!-- Node28&#45;&gt;Node2 -->
<g id="edge17" class="edge">
<title>Node28&#45;&gt;Node2</title>
<path fill="none" stroke="midnightblue" d="M51.94,-432.81C60.66,-503.78 88.54,-702.6 132,-749.5 135.63,-753.42 140.07,-756.53 144.87,-759"/>
<polygon fill="midnightblue" stroke="midnightblue" points="55.38,-432.07 50.7,-422.56 48.43,-432.9 55.38,-432.07"/>
</g>
<!-- Node28&#45;&gt;Node3 -->
<g id="edge21" class="edge">
<title>Node28&#45;&gt;Node3</title>
<path fill="none" stroke="midnightblue" d="M48.34,-432.87C48.25,-490.43 56.25,-632.07 132,-711.5 136.42,-716.14 141.98,-719.64 147.91,-722.3"/>
<polygon fill="midnightblue" stroke="midnightblue" points="51.84,-432.56 48.44,-422.52 44.84,-432.48 51.84,-432.56"/>
</g>
<!-- Node29 -->
<g id="node6" class="node">
<title>Node29</title>
<g id="a_node6"><a xlink:href="classplang_1_1plot_1_1object_1_1clazz_1_1hint_1_1lit.html" target="_top" xlink:title=" ">
<polygon fill="none" stroke="black" points="144.5,-534.5 144.5,-564.5 238.5,-564.5 238.5,-534.5 144.5,-534.5"/>
<text text-anchor="start" x="152.5" y="-552.5" font-family="Helvetica,sans-Serif" font-size="10.00">plang::plot::object</text>
<text text-anchor="middle" x="191.5" y="-541.5" font-family="Helvetica,sans-Serif" font-size="10.00">::clazz::hint::lit</text>
</a>
</g>
</g>
<!-- Node28&#45;&gt;Node29 -->
<g id="edge5" class="edge">
<title>Node28&#45;&gt;Node29</title>
<path fill="none" stroke="midnightblue" d="M61.13,-432.01C75.08,-458.03 100.2,-498.85 132,-524.5 136.64,-528.24 141.93,-531.52 147.38,-534.36"/>
<polygon fill="midnightblue" stroke="midnightblue" points="64.06,-430.08 56.34,-422.83 57.86,-433.32 64.06,-430.08"/>
</g>
<!-- Node30 -->
<g id="node7" class="node">
<title>Node30</title>
<g id="a_node7"><a xlink:href="classplang_1_1plot_1_1object_1_1clazz_1_1hint_1_1pnt.html" target="_top" xlink:title=" ">
<polygon fill="none" stroke="black" points="144.5,-485.5 144.5,-515.5 238.5,-515.5 238.5,-485.5 144.5,-485.5"/>
<text text-anchor="start" x="152.5" y="-503.5" font-family="Helvetica,sans-Serif" font-size="10.00">plang::plot::object</text>
<text text-anchor="middle" x="191.5" y="-492.5" font-family="Helvetica,sans-Serif" font-size="10.00">::clazz::hint::pnt</text>
</a>
</g>
</g>
<!-- Node28&#45;&gt;Node30 -->
<g id="edge6" class="edge">
<title>Node28&#45;&gt;Node30</title>
<path fill="none" stroke="midnightblue" d="M72.55,-429.85C88.46,-444.16 110.43,-462.42 132,-475.5 137.95,-479.11 144.51,-482.45 151.03,-485.45"/>
<polygon fill="midnightblue" stroke="midnightblue" points="74.55,-426.94 64.81,-422.78 69.83,-432.11 74.55,-426.94"/>
</g>
<!-- Node31 -->
<g id="node8" class="node">
<title>Node31</title>
<g id="a_node8"><a xlink:href="classplang_1_1plot_1_1object_1_1clazz_1_1hint_1_1sym.html" target="_top" xlink:title=" ">
<polygon fill="none" stroke="black" points="144.5,-436.5 144.5,-466.5 238.5,-466.5 238.5,-436.5 144.5,-436.5"/>
<text text-anchor="start" x="152.5" y="-454.5" font-family="Helvetica,sans-Serif" font-size="10.00">plang::plot::object</text>
<text text-anchor="middle" x="191.5" y="-443.5" font-family="Helvetica,sans-Serif" font-size="10.00">::clazz::hint::sym</text>
</a>
</g>
</g>
<!-- Node28&#45;&gt;Node31 -->
<g id="edge7" class="edge">
<title>Node28&#45;&gt;Node31</title>
<path fill="none" stroke="midnightblue" d="M105.7,-425.13C118.44,-429.09 131.81,-433.25 144.07,-437.06"/>
<polygon fill="midnightblue" stroke="midnightblue" points="106.71,-421.78 96.12,-422.15 104.63,-428.46 106.71,-421.78"/>
</g>
<!-- Node32 -->
<g id="node9" class="node">
<title>Node32</title>
<g id="a_node9"><a xlink:href="classplang_1_1plot_1_1object_1_1cls.html" target="_top" xlink:title=" ">
<polygon fill="none" stroke="black" points="135,-398 135,-417 248,-417 248,-398 135,-398"/>
<text text-anchor="middle" x="191.5" y="-405" font-family="Helvetica,sans-Serif" font-size="10.00">plang::plot::object::cls</text>
</a>
</g>
</g>
<!-- Node28&#45;&gt;Node32 -->
<g id="edge8" class="edge">
<title>Node28&#45;&gt;Node32</title>
<path fill="none" stroke="midnightblue" d="M106.18,-407.5C115.61,-407.5 125.37,-407.5 134.76,-407.5"/>
<polygon fill="midnightblue" stroke="midnightblue" points="106.12,-404 96.12,-407.5 106.12,-411 106.12,-404"/>
</g>
<!-- Node33 -->
<g id="node10" class="node">
<title>Node33</title>
<g id="a_node10"><a xlink:href="classplang_1_1plot_1_1object_1_1lit.html" target="_top" xlink:title=" ">
<polygon fill="none" stroke="black" points="138,-360 138,-379 245,-379 245,-360 138,-360"/>
<text text-anchor="middle" x="191.5" y="-367" font-family="Helvetica,sans-Serif" font-size="10.00">plang::plot::object::lit</text>
</a>
</g>
</g>
<!-- Node28&#45;&gt;Node33 -->
<g id="edge9" class="edge">
<title>Node28&#45;&gt;Node33</title>
<path fill="none" stroke="midnightblue" d="M106.18,-392.14C122.61,-387.73 140.05,-383.05 154.78,-379.09"/>
<polygon fill="midnightblue" stroke="midnightblue" points="104.87,-388.87 96.12,-394.85 106.68,-395.63 104.87,-388.87"/>
</g>
<!-- Node34 -->
<g id="node11" class="node">
<title>Node34</title>
<g id="a_node11"><a xlink:href="classplang_1_1plot_1_1object_1_1pnt.html" target="_top" xlink:title=" ">
<polygon fill="none" stroke="black" points="135,-322 135,-341 248,-341 248,-322 135,-322"/>
<text text-anchor="middle" x="191.5" y="-329" font-family="Helvetica,sans-Serif" font-size="10.00">plang::plot::object::pnt</text>
</a>
</g>
</g>
<!-- Node28&#45;&gt;Node34 -->
<g id="edge10" class="edge">
<title>Node28&#45;&gt;Node34</title>
<path fill="none" stroke="midnightblue" d="M75.67,-386.25C91.37,-374.51 112.02,-360.35 132,-350.5 139.38,-346.87 147.61,-343.7 155.51,-341.05"/>
<polygon fill="midnightblue" stroke="midnightblue" points="73.32,-383.64 67.49,-392.49 77.56,-389.21 73.32,-383.64"/>
</g>
<!-- Node35 -->
<g id="node12" class="node">
<title>Node35</title>
<g id="a_node12"><a xlink:href="classplang_1_1plot_1_1object_1_1sym.html" target="_top" xlink:title=" ">
<polygon fill="none" stroke="black" points="132,-284 132,-303 251,-303 251,-284 132,-284"/>
<text text-anchor="middle" x="191.5" y="-291" font-family="Helvetica,sans-Serif" font-size="10.00">plang::plot::object::sym</text>
</a>
</g>
</g>
<!-- Node28&#45;&gt;Node35 -->
<g id="edge11" class="edge">
<title>Node28&#45;&gt;Node35</title>
<path fill="none" stroke="midnightblue" d="M64.12,-383.85C78.98,-362.38 103.53,-331.29 132,-312.5 137.79,-308.68 144.42,-305.57 151.07,-303.06"/>
<polygon fill="midnightblue" stroke="midnightblue" points="61.04,-382.15 58.36,-392.4 66.85,-386.06 61.04,-382.15"/>
</g>
<!-- Node36 -->
<g id="node13" class="node">
<title>Node36</title>
<g id="a_node13"><a xlink:href="classplang_1_1plot_1_1point.html" target="_top" xlink:title=" ">
<polygon fill="none" stroke="black" points="147,-246 147,-265 236,-265 236,-246 147,-246"/>
<text text-anchor="middle" x="191.5" y="-253" font-family="Helvetica,sans-Serif" font-size="10.00">plang::plot::point</text>
</a>
</g>
</g>
<!-- Node28&#45;&gt;Node36 -->
<g id="edge12" class="edge">
<title>Node28&#45;&gt;Node36</title>
<path fill="none" stroke="midnightblue" d="M58.28,-382.65C70.66,-352.79 95.36,-303.14 132,-274.5 136.96,-270.62 142.75,-267.52 148.71,-265.04"/>
<polygon fill="midnightblue" stroke="midnightblue" points="54.87,-381.74 54.41,-392.32 61.37,-384.34 54.87,-381.74"/>
</g>
<!-- Node37 -->
<g id="node14" class="node">
<title>Node37</title>
<g id="a_node14"><a xlink:href="classplang_1_1plot_1_1point_1_1clazz.html" target="_top" xlink:title=" ">
<polygon fill="none" stroke="black" points="147,-196.5 147,-226.5 236,-226.5 236,-196.5 147,-196.5"/>
<text text-anchor="start" x="155" y="-214.5" font-family="Helvetica,sans-Serif" font-size="10.00">plang::plot::point</text>
<text text-anchor="middle" x="191.5" y="-203.5" font-family="Helvetica,sans-Serif" font-size="10.00">::clazz</text>
</a>
</g>
</g>
<!-- Node28&#45;&gt;Node37 -->
<g id="edge13" class="edge">
<title>Node28&#45;&gt;Node37</title>
<path fill="none" stroke="midnightblue" d="M55.2,-382.2C65.38,-345.53 88.95,-277.53 132,-236.5 136.32,-232.39 141.42,-228.89 146.77,-225.95"/>
<polygon fill="midnightblue" stroke="midnightblue" points="51.76,-381.52 52.57,-392.09 58.52,-383.32 51.76,-381.52"/>
</g>
<!-- Node38 -->
<g id="node15" class="node">
<title>Node38</title>
<g id="a_node15"><a xlink:href="classplang_1_1plot_1_1point_1_1clazz_1_1hint.html" target="_top" xlink:title=" ">
<polygon fill="none" stroke="black" points="147,-147.5 147,-177.5 236,-177.5 236,-147.5 147,-147.5"/>
<text text-anchor="start" x="155" y="-165.5" font-family="Helvetica,sans-Serif" font-size="10.00">plang::plot::point</text>
<text text-anchor="middle" x="191.5" y="-154.5" font-family="Helvetica,sans-Serif" font-size="10.00">::clazz::hint</text>
</a>
</g>
</g>
<!-- Node28&#45;&gt;Node38 -->
<g id="edge14" class="edge">
<title>Node28&#45;&gt;Node38</title>
<path fill="none" stroke="midnightblue" d="M51.86,-382.37C58.25,-337.36 77.68,-242.47 132,-186.5 136.2,-182.17 141.3,-178.59 146.72,-175.64"/>
<polygon fill="midnightblue" stroke="midnightblue" points="48.37,-382.06 50.53,-392.44 55.31,-382.98 48.37,-382.06"/>
</g>
<!-- Node39 -->
<g id="node16" class="node">
<title>Node39</title>
<g id="a_node16"><a xlink:href="classplang_1_1plot_1_1point_1_1subject_1_1cls.html" target="_top" xlink:title=" ">
<polygon fill="none" stroke="black" points="147,-98.5 147,-128.5 236,-128.5 236,-98.5 147,-98.5"/>
<text text-anchor="start" x="155" y="-116.5" font-family="Helvetica,sans-Serif" font-size="10.00">plang::plot::point</text>
<text text-anchor="middle" x="191.5" y="-105.5" font-family="Helvetica,sans-Serif" font-size="10.00">::subject::cls</text>
</a>
</g>
</g>
<!-- Node28&#45;&gt;Node39 -->
<g id="edge15" class="edge">
<title>Node28&#45;&gt;Node39</title>
<path fill="none" stroke="midnightblue" d="M49.82,-382.45C52.83,-330.26 66.87,-208.85 132,-137.5 136.14,-132.96 141.28,-129.26 146.76,-126.24"/>
<polygon fill="midnightblue" stroke="midnightblue" points="46.32,-382.33 49.33,-392.49 53.31,-382.67 46.32,-382.33"/>
</g>
<!-- Node40 -->
<g id="node17" class="node">
<title>Node40</title>
<g id="a_node17"><a xlink:href="classplang_1_1plot_1_1point_1_1subject_1_1sym.html" target="_top" xlink:title=" ">
<polygon fill="none" stroke="black" points="147,-49.5 147,-79.5 236,-79.5 236,-49.5 147,-49.5"/>
<text text-anchor="start" x="155" y="-67.5" font-family="Helvetica,sans-Serif" font-size="10.00">plang::plot::point</text>
<text text-anchor="middle" x="191.5" y="-56.5" font-family="Helvetica,sans-Serif" font-size="10.00">::subject::sym</text>
</a>
</g>
</g>
<!-- Node28&#45;&gt;Node40 -->
<g id="edge16" class="edge">
<title>Node28&#45;&gt;Node40</title>
<path fill="none" stroke="midnightblue" d="M48.37,-382.1C48.28,-323.13 56.13,-175.35 132,-88.5 136.12,-83.79 141.3,-79.98 146.87,-76.92"/>
<polygon fill="midnightblue" stroke="midnightblue" points="44.87,-382.39 48.47,-392.36 51.87,-382.32 44.87,-382.39"/>
</g>
<!-- Node41 -->
<g id="node18" class="node">
<title>Node41</title>
<g id="a_node18"><a xlink:href="classplang_1_1plot_1_1symbol_1_1clazz.html" target="_top" xlink:title=" ">
<polygon fill="none" stroke="black" points="142,-622.5 142,-652.5 241,-652.5 241,-622.5 142,-622.5"/>
<text text-anchor="start" x="150" y="-640.5" font-family="Helvetica,sans-Serif" font-size="10.00">plang::plot::symbol</text>
<text text-anchor="middle" x="191.5" y="-629.5" font-family="Helvetica,sans-Serif" font-size="10.00">::clazz</text>
</a>
</g>
</g>
<!-- Node28&#45;&gt;Node41 -->
<g id="edge18" class="edge">
<title>Node28&#45;&gt;Node41</title>
<path fill="none" stroke="midnightblue" d="M52.8,-432.53C60.46,-474.88 81.54,-561.06 132,-612.5 135.79,-616.36 140.27,-619.66 145.04,-622.47"/>
<polygon fill="midnightblue" stroke="midnightblue" points="56.22,-431.79 51.09,-422.52 49.32,-432.96 56.22,-431.79"/>
</g>
<!-- Node42 -->
<g id="node19" class="node">
<title>Node42</title>
<g id="a_node19"><a xlink:href="classplang_1_1plot_1_1symbol_1_1clazz_1_1hint.html" target="_top" xlink:title=" ">
<polygon fill="none" stroke="black" points="142,-671.5 142,-701.5 241,-701.5 241,-671.5 142,-671.5"/>
<text text-anchor="start" x="150" y="-689.5" font-family="Helvetica,sans-Serif" font-size="10.00">plang::plot::symbol</text>
<text text-anchor="middle" x="191.5" y="-678.5" font-family="Helvetica,sans-Serif" font-size="10.00">::clazz::hint</text>
</a>
</g>
</g>
<!-- Node28&#45;&gt;Node42 -->
<g id="edge19" class="edge">
<title>Node28&#45;&gt;Node42</title>
<path fill="none" stroke="midnightblue" d="M50.5,-432.7C54.77,-482.59 70.98,-594.86 132,-661.5 135.51,-665.33 139.7,-668.59 144.2,-671.37"/>
<polygon fill="midnightblue" stroke="midnightblue" points="53.97,-432.21 49.72,-422.5 46.99,-432.74 53.97,-432.21"/>
</g>
<!-- Node43 -->
<g id="node20" class="node">
<title>Node43</title>
<g id="a_node20"><a xlink:href="classplang_1_1plot_1_1symbol_1_1compound.html" target="_top" xlink:title=" ">
<polygon fill="none" stroke="black" points="142,-0.5 142,-30.5 241,-30.5 241,-0.5 142,-0.5"/>
<text text-anchor="start" x="150" y="-18.5" font-family="Helvetica,sans-Serif" font-size="10.00">plang::plot::symbol</text>
<text text-anchor="middle" x="191.5" y="-7.5" font-family="Helvetica,sans-Serif" font-size="10.00">::compound</text>
</a>
</g>
</g>
<!-- Node28&#45;&gt;Node43 -->
<g id="edge20" class="edge">
<title>Node28&#45;&gt;Node43</title>
<path fill="none" stroke="midnightblue" d="M51.7,-381.94C60.02,-307.4 87.47,-92.19 132,-39.5 134.91,-36.06 138.38,-33.11 142.17,-30.58"/>
<polygon fill="midnightblue" stroke="midnightblue" points="48.17,-381.95 50.56,-392.27 55.13,-382.71 48.17,-381.95"/>
</g>
<!-- Node44 -->
<g id="node21" class="node">
<title>Node44</title>
<g id="a_node21"><a xlink:href="classplang_1_1root_1_1source.html" target="_top" xlink:title="A source of data inside a corpus.">
<polygon fill="none" stroke="black" points="142.5,-584 142.5,-603 240.5,-603 240.5,-584 142.5,-584"/>
<text text-anchor="middle" x="191.5" y="-591" font-family="Helvetica,sans-Serif" font-size="10.00">plang::root::source</text>
</a>
</g>
</g>
<!-- Node28&#45;&gt;Node44 -->
<g id="edge22" class="edge">
<title>Node28&#45;&gt;Node44</title>
<path fill="none" stroke="midnightblue" d="M55.02,-432.49C64.98,-468.61 88.28,-535.29 132,-573.5 137.01,-577.88 143.03,-581.31 149.26,-584"/>
<polygon fill="midnightblue" stroke="midnightblue" points="58.38,-431.52 52.45,-422.74 51.62,-433.3 58.38,-431.52"/>
</g>
<!-- Node61 -->
<g id="node22" class="node">
<title>Node61</title>
<g id="a_node22"><a xlink:href="classplang_1_1detail_1_1base__types_1_1sourced.html" target="_top" xlink:title="Base type for traceable classes.">
<polygon fill="none" stroke="black" points="0,-687.5 0,-717.5 96,-717.5 96,-687.5 0,-687.5"/>
<text text-anchor="start" x="8" y="-705.5" font-family="Helvetica,sans-Serif" font-size="10.00">plang::detail::base</text>
<text text-anchor="middle" x="48" y="-694.5" font-family="Helvetica,sans-Serif" font-size="10.00">_types::sourced</text>
</a>
</g>
</g>
<!-- Node61&#45;&gt;Node2 -->
<g id="edge23" class="edge">
<title>Node61&#45;&gt;Node2</title>
<path fill="none" stroke="midnightblue" d="M81.55,-722.95C96.55,-731.84 114.8,-741.93 132,-749.5 140.01,-753.03 148.9,-756.24 157.27,-758.99"/>
<polygon fill="midnightblue" stroke="midnightblue" points="83.04,-719.76 72.67,-717.6 79.43,-725.76 83.04,-719.76"/>
</g>
<!-- Node61&#45;&gt;Node3 -->
<g id="edge26" class="edge">
<title>Node61&#45;&gt;Node3</title>
<path fill="none" stroke="midnightblue" d="M106.11,-713.8C120.06,-716.56 134.74,-719.47 147.88,-722.07"/>
<polygon fill="midnightblue" stroke="midnightblue" points="106.61,-710.33 96.12,-711.82 105.25,-717.2 106.61,-710.33"/>
</g>
<!-- Node61&#45;&gt;Node41 -->
<g id="edge24" class="edge">
<title>Node61&#45;&gt;Node41</title>
<path fill="none" stroke="midnightblue" d="M87.61,-682.73C101.5,-675.81 117.36,-668.11 132,-661.5 138.6,-658.52 145.69,-655.48 152.57,-652.61"/>
<polygon fill="midnightblue" stroke="midnightblue" points="85.71,-679.77 78.34,-687.39 88.85,-686.03 85.71,-679.77"/>
</g>
<!-- Node61&#45;&gt;Node42 -->
<g id="edge25" class="edge">
<title>Node61&#45;&gt;Node42</title>
<path fill="none" stroke="midnightblue" d="M106.26,-696.03C118,-694.7 130.25,-693.31 141.65,-692.02"/>
<polygon fill="midnightblue" stroke="midnightblue" points="105.66,-692.57 96.12,-697.17 106.45,-699.53 105.66,-692.57"/>
</g>
</g>
</svg>
