<?xml version="1.0" encoding="UTF-8" standalone="no"?>
<!DOCTYPE svg PUBLIC "-//W3C//DTD SVG 1.1//EN"
 "http://www.w3.org/Graphics/SVG/1.1/DTD/svg11.dtd">
<!-- Generated by graphviz version 2.44.1 (20220725.2034)
 -->
<!-- Title: Graphical Class Hierarchy Pages: 1 -->
<svg width="259pt" height="844pt"
 viewBox="0.00 0.00 259.00 843.50" xmlns="http://www.w3.org/2000/svg" xmlns:xlink="http://www.w3.org/1999/xlink">
<g id="graph0" class="graph" transform="scale(1 1) rotate(0) translate(4 839.5)">
<title>Graphical Class Hierarchy</title>
<!-- Node0 -->
<g id="node1" class="node">
<title>Node0</title>
<g id="a_node1"><a xlink:href="classplang_1_1detail_1_1base__types_1_1decorated.html" target="_top" xlink:title="Base type for decorated classes.">
<polygon fill="none" stroke="black" points="0,-756 0,-786 96,-786 96,-756 0,-756"/>
<text text-anchor="start" x="8" y="-774" font-family="Helvetica,sans-Serif" font-size="10.00">plang::detail::base</text>
<text text-anchor="middle" x="48" y="-763" font-family="Helvetica,sans-Serif" font-size="10.00">_types::decorated</text>
</a>
</g>
</g>
<!-- Node1 -->
<g id="node2" class="node">
<title>Node1</title>
<g id="a_node2"><a xlink:href="classplang_1_1plot_1_1object_1_1clazz.html" target="_top" xlink:title=" ">
<polygon fill="none" stroke="black" points="144.5,-759 144.5,-789 238.5,-789 238.5,-759 144.5,-759"/>
<text text-anchor="start" x="152.5" y="-777" font-family="Helvetica,sans-Serif" font-size="10.00">plang::plot::object</text>
<text text-anchor="middle" x="191.5" y="-766" font-family="Helvetica,sans-Serif" font-size="10.00">::clazz</text>
</a>
</g>
</g>
<!-- Node0&#45;&gt;Node1 -->
<g id="edge1" class="edge">
<title>Node0&#45;&gt;Node1</title>
<path fill="none" stroke="midnightblue" d="M106.45,-772.22C118.96,-772.48 132.05,-772.76 144.07,-773.02"/>
<polygon fill="midnightblue" stroke="midnightblue" points="106.19,-768.71 96.12,-772 106.04,-775.71 106.19,-768.71"/>
</g>
<!-- Node2 -->
<g id="node3" class="node">
<title>Node2</title>
<g id="a_node3"><a xlink:href="classplang_1_1plot_1_1symbol.html" target="_top" xlink:title=" ">
<polygon fill="none" stroke="black" points="142,-720.5 142,-739.5 241,-739.5 241,-720.5 142,-720.5"/>
<text text-anchor="middle" x="191.5" y="-727.5" font-family="Helvetica,sans-Serif" font-size="10.00">plang::plot::symbol</text>
</a>
</g>
</g>
<!-- Node0&#45;&gt;Node2 -->
<g id="edge2" class="edge">
<title>Node0&#45;&gt;Node2</title>
<path fill="none" stroke="midnightblue" d="M106.21,-754.42C123.63,-749.38 142.18,-744 157.44,-739.58"/>
<polygon fill="midnightblue" stroke="midnightblue" points="104.75,-751.2 96.12,-757.35 106.7,-757.93 104.75,-751.2"/>
</g>
<!-- Node3 -->
<g id="node4" class="node">
<title>Node3</title>
<g id="a_node4"><a xlink:href="classplang_1_1root_1_1path.html" target="_top" xlink:title="A node in the corpus&#39; path tree.">
<polygon fill="none" stroke="black" points="148,-808.5 148,-827.5 235,-827.5 235,-808.5 148,-808.5"/>
<text text-anchor="middle" x="191.5" y="-815.5" font-family="Helvetica,sans-Serif" font-size="10.00">plang::root::path</text>
</a>
</g>
</g>
<!-- Node0&#45;&gt;Node3 -->
<g id="edge3" class="edge">
<title>Node0&#45;&gt;Node3</title>
<path fill="none" stroke="midnightblue" d="M102.88,-789.28C112.57,-792.53 122.58,-795.88 132,-799 141.43,-802.12 151.73,-805.48 161.02,-808.5"/>
<polygon fill="midnightblue" stroke="midnightblue" points="103.93,-785.94 93.34,-786.06 101.7,-792.57 103.93,-785.94"/>
</g>
<!-- Node33 -->
<g id="node5" class="node">
<title>Node33</title>
<g id="a_node5"><a xlink:href="classplang_1_1detail_1_1base__types_1_1persisted.html" target="_top" xlink:title="Base type for persisted classes.">
<polygon fill="none" stroke="black" points="0,-388 0,-418 96,-418 96,-388 0,-388"/>
<text text-anchor="start" x="8" y="-406" font-family="Helvetica,sans-Serif" font-size="10.00">plang::detail::base</text>
<text text-anchor="middle" x="48" y="-395" font-family="Helvetica,sans-Serif" font-size="10.00">_types::persisted</text>
</a>
</g>
</g>
<!-- Node33&#45;&gt;Node1 -->
<g id="edge4" class="edge">
<title>Node33&#45;&gt;Node1</title>
<path fill="none" stroke="midnightblue" d="M52.11,-428.41C61.3,-499.7 90.29,-699.6 132,-749 135.49,-753.14 139.79,-756.6 144.46,-759.51"/>
<polygon fill="midnightblue" stroke="midnightblue" points="55.54,-427.59 50.81,-418.11 48.6,-428.47 55.54,-427.59"/>
</g>
<!-- Node33&#45;&gt;Node2 -->
<g id="edge17" class="edge">
<title>Node33&#45;&gt;Node2</title>
<path fill="none" stroke="midnightblue" d="M48.23,-428.33C47.88,-486.4 55.3,-630.3 132,-711 135.68,-714.87 140.15,-717.95 144.97,-720.41"/>
<polygon fill="midnightblue" stroke="midnightblue" points="51.73,-428.26 48.38,-418.21 44.73,-428.16 51.73,-428.26"/>
</g>
<!-- Node33&#45;&gt;Node3 -->
<g id="edge21" class="edge">
<title>Node33&#45;&gt;Node3</title>
<path fill="none" stroke="midnightblue" d="M51.05,-428.55C57.85,-507.17 82.12,-743.46 132,-799 136.35,-803.85 141.95,-807.46 147.96,-810.16"/>
<polygon fill="midnightblue" stroke="midnightblue" points="54.5,-427.81 50.17,-418.14 47.53,-428.4 54.5,-427.81"/>
</g>
<!-- Node34 -->
<g id="node6" class="node">
<title>Node34</title>
<g id="a_node6"><a xlink:href="classplang_1_1plot_1_1object_1_1clazz_1_1hint_1_1lit.html" target="_top" xlink:title=" ">
<polygon fill="none" stroke="black" points="144.5,-251 144.5,-281 238.5,-281 238.5,-251 144.5,-251"/>
<text text-anchor="start" x="152.5" y="-269" font-family="Helvetica,sans-Serif" font-size="10.00">plang::plot::object</text>
<text text-anchor="middle" x="191.5" y="-258" font-family="Helvetica,sans-Serif" font-size="10.00">::clazz::hint::lit</text>
</a>
</g>
</g>
<!-- Node33&#45;&gt;Node34 -->
<g id="edge5" class="edge">
<title>Node33&#45;&gt;Node34</title>
<path fill="none" stroke="midnightblue" d="M61.6,-379.15C75.81,-354.24 101.01,-315.47 132,-291 136.77,-287.24 142.19,-283.93 147.76,-281.07"/>
<polygon fill="midnightblue" stroke="midnightblue" points="58.51,-377.51 56.71,-387.95 64.63,-380.91 58.51,-377.51"/>
</g>
<!-- Node35 -->
<g id="node7" class="node">
<title>Node35</title>
<g id="a_node7"><a xlink:href="classplang_1_1plot_1_1object_1_1clazz_1_1hint_1_1pnt.html" target="_top" xlink:title=" ">
<polygon fill="none" stroke="black" points="144.5,-202 144.5,-232 238.5,-232 238.5,-202 144.5,-202"/>
<text text-anchor="start" x="152.5" y="-220" font-family="Helvetica,sans-Serif" font-size="10.00">plang::plot::object</text>
<text text-anchor="middle" x="191.5" y="-209" font-family="Helvetica,sans-Serif" font-size="10.00">::clazz::hint::pnt</text>
</a>
</g>
</g>
<!-- Node33&#45;&gt;Node35 -->
<g id="edge6" class="edge">
<title>Node33&#45;&gt;Node35</title>
<path fill="none" stroke="midnightblue" d="M55.79,-377.96C66.49,-342.9 90.46,-279.18 132,-241 135.72,-237.58 139.99,-234.62 144.49,-232.06"/>
<polygon fill="midnightblue" stroke="midnightblue" points="52.34,-377.28 52.89,-387.87 59.06,-379.25 52.34,-377.28"/>
</g>
<!-- Node36 -->
<g id="node8" class="node">
<title>Node36</title>
<g id="a_node8"><a xlink:href="classplang_1_1plot_1_1object_1_1clazz_1_1hint_1_1sym.html" target="_top" xlink:title=" ">
<polygon fill="none" stroke="black" points="144.5,-153 144.5,-183 238.5,-183 238.5,-153 144.5,-153"/>
<text text-anchor="start" x="152.5" y="-171" font-family="Helvetica,sans-Serif" font-size="10.00">plang::plot::object</text>
<text text-anchor="middle" x="191.5" y="-160" font-family="Helvetica,sans-Serif" font-size="10.00">::clazz::hint::sym</text>
</a>
</g>
</g>
<!-- Node33&#45;&gt;Node36 -->
<g id="edge7" class="edge">
<title>Node33&#45;&gt;Node36</title>
<path fill="none" stroke="midnightblue" d="M52.4,-377.77C59.53,-334.29 79.91,-244.86 132,-192 135.62,-188.33 139.89,-185.19 144.43,-182.52"/>
<polygon fill="midnightblue" stroke="midnightblue" points="48.92,-377.36 50.87,-387.78 55.84,-378.43 48.92,-377.36"/>
</g>
<!-- Node37 -->
<g id="node9" class="node">
<title>Node37</title>
<g id="a_node9"><a xlink:href="classplang_1_1plot_1_1object_1_1cls.html" target="_top" xlink:title=" ">
<polygon fill="none" stroke="black" points="135,-114.5 135,-133.5 248,-133.5 248,-114.5 135,-114.5"/>
<text text-anchor="middle" x="191.5" y="-121.5" font-family="Helvetica,sans-Serif" font-size="10.00">plang::plot::object::cls</text>
</a>
</g>
</g>
<!-- Node33&#45;&gt;Node37 -->
<g id="edge8" class="edge">
<title>Node33&#45;&gt;Node37</title>
<path fill="none" stroke="midnightblue" d="M49.74,-377.78C52.63,-326.4 66.46,-208.87 132,-143 135.84,-139.14 140.47,-136.06 145.43,-133.61"/>
<polygon fill="midnightblue" stroke="midnightblue" points="46.24,-377.83 49.27,-387.98 53.23,-378.15 46.24,-377.83"/>
</g>
<!-- Node38 -->
<g id="node10" class="node">
<title>Node38</title>
<g id="a_node10"><a xlink:href="classplang_1_1plot_1_1object_1_1lit.html" target="_top" xlink:title=" ">
<polygon fill="none" stroke="black" points="138,-76.5 138,-95.5 245,-95.5 245,-76.5 138,-76.5"/>
<text text-anchor="middle" x="191.5" y="-83.5" font-family="Helvetica,sans-Serif" font-size="10.00">plang::plot::object::lit</text>
</a>
</g>
</g>
<!-- Node33&#45;&gt;Node38 -->
<g id="edge9" class="edge">
<title>Node33&#45;&gt;Node38</title>
<path fill="none" stroke="midnightblue" d="M48.51,-377.72C48.81,-321.03 57.62,-182.6 132,-105 135.69,-101.15 140.18,-98.07 145,-95.62"/>
<polygon fill="midnightblue" stroke="midnightblue" points="45.01,-377.94 48.54,-387.93 52.01,-377.92 45.01,-377.94"/>
</g>
<!-- Node39 -->
<g id="node11" class="node">
<title>Node39</title>
<g id="a_node11"><a xlink:href="classplang_1_1plot_1_1object_1_1pnt.html" target="_top" xlink:title=" ">
<polygon fill="none" stroke="black" points="135,-38.5 135,-57.5 248,-57.5 248,-38.5 135,-38.5"/>
<text text-anchor="middle" x="191.5" y="-45.5" font-family="Helvetica,sans-Serif" font-size="10.00">plang::plot::object::pnt</text>
</a>
</g>
</g>
<!-- Node33&#45;&gt;Node39 -->
<g id="edge10" class="edge">
<title>Node33&#45;&gt;Node39</title>
<path fill="none" stroke="midnightblue" d="M52.06,-377.66C61.02,-307.51 89.26,-112.93 132,-67 135.64,-63.09 140.09,-59.98 144.89,-57.52"/>
<polygon fill="midnightblue" stroke="midnightblue" points="48.56,-377.45 50.79,-387.81 55.51,-378.32 48.56,-377.45"/>
</g>
<!-- Node40 -->
<g id="node12" class="node">
<title>Node40</title>
<g id="a_node12"><a xlink:href="classplang_1_1plot_1_1object_1_1sym.html" target="_top" xlink:title=" ">
<polygon fill="none" stroke="black" points="132,-0.5 132,-19.5 251,-19.5 251,-0.5 132,-0.5"/>
<text text-anchor="middle" x="191.5" y="-7.5" font-family="Helvetica,sans-Serif" font-size="10.00">plang::plot::object::sym</text>
</a>
</g>
</g>
<!-- Node33&#45;&gt;Node40 -->
<g id="edge11" class="edge">
<title>Node33&#45;&gt;Node40</title>
<path fill="none" stroke="midnightblue" d="M51.35,-377.85C58.88,-302.57 84.68,-81.08 132,-29 135.52,-25.13 139.83,-22.04 144.51,-19.58"/>
<polygon fill="midnightblue" stroke="midnightblue" points="47.87,-377.56 50.38,-387.85 54.83,-378.24 47.87,-377.56"/>
</g>
<!-- Node41 -->
<g id="node13" class="node">
<title>Node41</title>
<g id="a_node13"><a xlink:href="classplang_1_1plot_1_1point.html" target="_top" xlink:title=" ">
<polygon fill="none" stroke="black" points="147,-682.5 147,-701.5 236,-701.5 236,-682.5 147,-682.5"/>
<text text-anchor="middle" x="191.5" y="-689.5" font-family="Helvetica,sans-Serif" font-size="10.00">plang::plot::point</text>
</a>
</g>
</g>
<!-- Node33&#45;&gt;Node41 -->
<g id="edge12" class="edge">
<title>Node33&#45;&gt;Node41</title>
<path fill="none" stroke="midnightblue" d="M49.51,-428.28C51.95,-480.87 64.96,-602.9 132,-672 136.26,-676.39 141.52,-679.82 147.13,-682.49"/>
<polygon fill="midnightblue" stroke="midnightblue" points="53,-428.02 49.14,-418.15 46.01,-428.28 53,-428.02"/>
</g>
<!-- Node42 -->
<g id="node14" class="node">
<title>Node42</title>
<g id="a_node14"><a xlink:href="classplang_1_1plot_1_1point_1_1clazz.html" target="_top" xlink:title=" ">
<polygon fill="none" stroke="black" points="147,-633 147,-663 236,-663 236,-633 147,-633"/>
<text text-anchor="start" x="155" y="-651" font-family="Helvetica,sans-Serif" font-size="10.00">plang::plot::point</text>
<text text-anchor="middle" x="191.5" y="-640" font-family="Helvetica,sans-Serif" font-size="10.00">::clazz</text>
</a>
</g>
</g>
<!-- Node33&#45;&gt;Node42 -->
<g id="edge13" class="edge">
<title>Node33&#45;&gt;Node42</title>
<path fill="none" stroke="midnightblue" d="M52.02,-428.27C58.65,-473.08 78.39,-567.03 132,-623 136.2,-627.39 141.3,-631.04 146.71,-634.08"/>
<polygon fill="midnightblue" stroke="midnightblue" points="55.47,-427.66 50.64,-418.23 48.54,-428.62 55.47,-427.66"/>
</g>
<!-- Node43 -->
<g id="node15" class="node">
<title>Node43</title>
<g id="a_node15"><a xlink:href="classplang_1_1plot_1_1point_1_1clazz_1_1hint.html" target="_top" xlink:title=" ">
<polygon fill="none" stroke="black" points="147,-584 147,-614 236,-614 236,-584 147,-584"/>
<text text-anchor="start" x="155" y="-602" font-family="Helvetica,sans-Serif" font-size="10.00">plang::plot::point</text>
<text text-anchor="middle" x="191.5" y="-591" font-family="Helvetica,sans-Serif" font-size="10.00">::clazz::hint</text>
</a>
</g>
</g>
<!-- Node33&#45;&gt;Node43 -->
<g id="edge14" class="edge">
<title>Node33&#45;&gt;Node43</title>
<path fill="none" stroke="midnightblue" d="M55.2,-428.3C65.38,-464.97 88.95,-532.97 132,-574 136.32,-578.11 141.42,-581.61 146.77,-584.55"/>
<polygon fill="midnightblue" stroke="midnightblue" points="58.52,-427.18 52.57,-418.41 51.76,-428.98 58.52,-427.18"/>
</g>
<!-- Node44 -->
<g id="node16" class="node">
<title>Node44</title>
<g id="a_node16"><a xlink:href="classplang_1_1plot_1_1point_1_1subject_1_1cls.html" target="_top" xlink:title=" ">
<polygon fill="none" stroke="black" points="147,-535 147,-565 236,-565 236,-535 147,-535"/>
<text text-anchor="start" x="155" y="-553" font-family="Helvetica,sans-Serif" font-size="10.00">plang::plot::point</text>
<text text-anchor="middle" x="191.5" y="-542" font-family="Helvetica,sans-Serif" font-size="10.00">::subject::cls</text>
</a>
</g>
</g>
<!-- Node33&#45;&gt;Node44 -->
<g id="edge15" class="edge">
<title>Node33&#45;&gt;Node44</title>
<path fill="none" stroke="midnightblue" d="M60.25,-427.35C73.85,-454.42 99.06,-497.89 132,-525 136.61,-528.79 141.87,-532.09 147.31,-534.95"/>
<polygon fill="midnightblue" stroke="midnightblue" points="63.31,-425.63 55.78,-418.18 57.02,-428.7 63.31,-425.63"/>
</g>
<!-- Node45 -->
<g id="node17" class="node">
<title>Node45</title>
<g id="a_node17"><a xlink:href="classplang_1_1plot_1_1point_1_1subject_1_1sym.html" target="_top" xlink:title=" ">
<polygon fill="none" stroke="black" points="147,-486 147,-516 236,-516 236,-486 147,-486"/>
<text text-anchor="start" x="155" y="-504" font-family="Helvetica,sans-Serif" font-size="10.00">plang::plot::point</text>
<text text-anchor="middle" x="191.5" y="-493" font-family="Helvetica,sans-Serif" font-size="10.00">::subject::sym</text>
</a>
</g>
</g>
<!-- Node33&#45;&gt;Node45 -->
<g id="edge16" class="edge">
<title>Node33&#45;&gt;Node45</title>
<path fill="none" stroke="midnightblue" d="M70.36,-425.24C86.28,-440.91 109.12,-461.57 132,-476 137.79,-479.65 144.21,-483 150.61,-485.98"/>
<polygon fill="midnightblue" stroke="midnightblue" points="72.68,-422.61 63.14,-418 67.73,-427.55 72.68,-422.61"/>
</g>
<!-- Node46 -->
<g id="node18" class="node">
<title>Node46</title>
<g id="a_node18"><a xlink:href="classplang_1_1plot_1_1symbol_1_1clazz.html" target="_top" xlink:title=" ">
<polygon fill="none" stroke="black" points="142,-437 142,-467 241,-467 241,-437 142,-437"/>
<text text-anchor="start" x="150" y="-455" font-family="Helvetica,sans-Serif" font-size="10.00">plang::plot::symbol</text>
<text text-anchor="middle" x="191.5" y="-444" font-family="Helvetica,sans-Serif" font-size="10.00">::clazz</text>
</a>
</g>
</g>
<!-- Node33&#45;&gt;Node46 -->
<g id="edge18" class="edge">
<title>Node33&#45;&gt;Node46</title>
<path fill="none" stroke="midnightblue" d="M102.1,-421.39C116.84,-426.49 132.66,-431.97 146.79,-436.86"/>
<polygon fill="midnightblue" stroke="midnightblue" points="103.2,-418.07 92.61,-418.1 100.91,-424.68 103.2,-418.07"/>
</g>
<!-- Node47 -->
<g id="node19" class="node">
<title>Node47</title>
<g id="a_node19"><a xlink:href="classplang_1_1plot_1_1symbol_1_1clazz_1_1hint.html" target="_top" xlink:title=" ">
<polygon fill="none" stroke="black" points="142,-388 142,-418 241,-418 241,-388 142,-388"/>
<text text-anchor="start" x="150" y="-406" font-family="Helvetica,sans-Serif" font-size="10.00">plang::plot::symbol</text>
<text text-anchor="middle" x="191.5" y="-395" font-family="Helvetica,sans-Serif" font-size="10.00">::clazz::hint</text>
</a>
</g>
</g>
<!-- Node33&#45;&gt;Node47 -->
<g id="edge19" class="edge">
<title>Node33&#45;&gt;Node47</title>
<path fill="none" stroke="midnightblue" d="M106.26,-403C118,-403 130.25,-403 141.65,-403"/>
<polygon fill="midnightblue" stroke="midnightblue" points="106.12,-399.5 96.12,-403 106.12,-406.5 106.12,-399.5"/>
</g>
<!-- Node48 -->
<g id="node20" class="node">
<title>Node48</title>
<g id="a_node20"><a xlink:href="classplang_1_1plot_1_1symbol_1_1compound.html" target="_top" xlink:title=" ">
<polygon fill="none" stroke="black" points="142,-339 142,-369 241,-369 241,-339 142,-339"/>
<text text-anchor="start" x="150" y="-357" font-family="Helvetica,sans-Serif" font-size="10.00">plang::plot::symbol</text>
<text text-anchor="middle" x="191.5" y="-346" font-family="Helvetica,sans-Serif" font-size="10.00">::compound</text>
</a>
</g>
</g>
<!-- Node33&#45;&gt;Node48 -->
<g id="edge20" class="edge">
<title>Node33&#45;&gt;Node48</title>
<path fill="none" stroke="midnightblue" d="M102.1,-384.61C116.84,-379.51 132.66,-374.03 146.79,-369.14"/>
<polygon fill="midnightblue" stroke="midnightblue" points="100.91,-381.32 92.61,-387.9 103.2,-387.93 100.91,-381.32"/>
</g>
<!-- Node49 -->
<g id="node21" class="node">
<title>Node49</title>
<g id="a_node21"><a xlink:href="classplang_1_1root_1_1source.html" target="_top" xlink:title="A source of data inside a corpus.">
<polygon fill="none" stroke="black" points="142.5,-300.5 142.5,-319.5 240.5,-319.5 240.5,-300.5 142.5,-300.5"/>
<text text-anchor="middle" x="191.5" y="-307.5" font-family="Helvetica,sans-Serif" font-size="10.00">plang::root::source</text>
</a>
</g>
</g>
<!-- Node33&#45;&gt;Node49 -->
<g id="edge22" class="edge">
<title>Node33&#45;&gt;Node49</title>
<path fill="none" stroke="midnightblue" d="M69.36,-380.39C85.08,-364.12 108.12,-342.71 132,-329 138.58,-325.23 146,-322.08 153.31,-319.51"/>
<polygon fill="midnightblue" stroke="midnightblue" points="66.58,-378.23 62.26,-387.91 71.67,-383.04 66.58,-378.23"/>
</g>
<!-- Node66 -->
<g id="node22" class="node">
<title>Node66</title>
<g id="a_node22"><a xlink:href="classplang_1_1detail_1_1base__types_1_1sourced.html" target="_top" xlink:title="Base type for traceable classes.">
<polygon fill="none" stroke="black" points="0,-805 0,-835 96,-835 96,-805 0,-805"/>
<text text-anchor="start" x="8" y="-823" font-family="Helvetica,sans-Serif" font-size="10.00">plang::detail::base</text>
<text text-anchor="middle" x="48" y="-812" font-family="Helvetica,sans-Serif" font-size="10.00">_types::sourced</text>
</a>
</g>
</g>
<!-- Node66&#45;&gt;Node3 -->
<g id="edge23" class="edge">
<title>Node66&#45;&gt;Node3</title>
<path fill="none" stroke="midnightblue" d="M106.52,-819.19C120.34,-818.99 134.87,-818.79 147.88,-818.6"/>
<polygon fill="midnightblue" stroke="midnightblue" points="106.07,-815.69 96.12,-819.33 106.17,-822.69 106.07,-815.69"/>
</g>
</g>
</svg>
