<?xml version="1.0" encoding="UTF-8" standalone="no"?>
<!DOCTYPE svg PUBLIC "-//W3C//DTD SVG 1.1//EN"
 "http://www.w3.org/Graphics/SVG/1.1/DTD/svg11.dtd">
<!-- Generated by graphviz version 2.44.1 (20220725.2034)
 -->
<!-- Title: Graphical Class Hierarchy Pages: 1 -->
<svg width="426pt" height="578pt"
 viewBox="0.00 0.00 426.00 578.00" xmlns="http://www.w3.org/2000/svg" xmlns:xlink="http://www.w3.org/1999/xlink">
<g id="graph0" class="graph" transform="scale(1 1) rotate(0) translate(4 574)">
<title>Graphical Class Hierarchy</title>
<!-- Node61 -->
<g id="node1" class="node">
<title>Node61</title>
<g id="a_node1"><a xlink:title=" ">
<polygon fill="none" stroke="#bfbfbf" points="0,-324 0,-343 93,-343 93,-324 0,-324"/>
<text text-anchor="middle" x="46.5" y="-331" font-family="Helvetica,sans-Serif" font-size="10.00">std::runtime_error</text>
</a>
</g>
</g>
<!-- Node0 -->
<g id="node2" class="node">
<title>Node0</title>
<g id="a_node2"><a xlink:href="classplang_1_1exception_1_1cli__error.html" target="_top" xlink:title=" ">
<polygon fill="none" stroke="black" points="133,-441.5 133,-471.5 237,-471.5 237,-441.5 133,-441.5"/>
<text text-anchor="start" x="141" y="-459.5" font-family="Helvetica,sans-Serif" font-size="10.00">plang::exception::cli</text>
<text text-anchor="middle" x="185" y="-448.5" font-family="Helvetica,sans-Serif" font-size="10.00">_error</text>
</a>
</g>
</g>
<!-- Node61&#45;&gt;Node0 -->
<g id="edge1" class="edge">
<title>Node61&#45;&gt;Node0</title>
<path fill="none" stroke="midnightblue" d="M65.68,-349.88C92.24,-373.81 141.27,-418 167.09,-441.26"/>
<polygon fill="midnightblue" stroke="midnightblue" points="67.98,-347.25 58.21,-343.15 63.3,-352.45 67.98,-347.25"/>
</g>
<!-- Node67 -->
<g id="node7" class="node">
<title>Node67</title>
<g id="a_node7"><a xlink:href="classplang_1_1exception_1_1lang__error.html" target="_top" xlink:title=" ">
<polygon fill="none" stroke="black" points="129,-196.5 129,-226.5 241,-226.5 241,-196.5 129,-196.5"/>
<text text-anchor="start" x="137" y="-214.5" font-family="Helvetica,sans-Serif" font-size="10.00">plang::exception::lang</text>
<text text-anchor="middle" x="185" y="-203.5" font-family="Helvetica,sans-Serif" font-size="10.00">_error</text>
</a>
</g>
</g>
<!-- Node61&#45;&gt;Node67 -->
<g id="edge6" class="edge">
<title>Node61&#45;&gt;Node67</title>
<path fill="none" stroke="midnightblue" d="M65.68,-317.25C92.24,-293.52 141.27,-249.69 167.09,-226.61"/>
<polygon fill="midnightblue" stroke="midnightblue" points="63.33,-314.65 58.21,-323.93 68,-319.87 63.33,-314.65"/>
</g>
<!-- Node1 -->
<g id="node3" class="node">
<title>Node1</title>
<g id="a_node3"><a xlink:href="classplang_1_1exception_1_1io__error.html" target="_top" xlink:title=" ">
<polygon fill="none" stroke="black" points="297,-539.5 297,-569.5 398,-569.5 398,-539.5 297,-539.5"/>
<text text-anchor="start" x="305" y="-557.5" font-family="Helvetica,sans-Serif" font-size="10.00">plang::exception::io</text>
<text text-anchor="middle" x="347.5" y="-546.5" font-family="Helvetica,sans-Serif" font-size="10.00">_error</text>
</a>
</g>
</g>
<!-- Node0&#45;&gt;Node1 -->
<g id="edge2" class="edge">
<title>Node0&#45;&gt;Node1</title>
<path fill="none" stroke="midnightblue" d="M208.63,-478.72C226.11,-494.89 251.54,-516.34 277,-530.5 283.25,-533.97 290.09,-537.08 296.96,-539.81"/>
<polygon fill="midnightblue" stroke="midnightblue" points="210.87,-476.02 201.19,-471.71 206.07,-481.12 210.87,-476.02"/>
</g>
<!-- Node2 -->
<g id="node4" class="node">
<title>Node2</title>
<g id="a_node4"><a xlink:href="classplang_1_1exception_1_1malformed__command__error.html" target="_top" xlink:title=" ">
<polygon fill="none" stroke="black" points="277.5,-490.5 277.5,-520.5 417.5,-520.5 417.5,-490.5 277.5,-490.5"/>
<text text-anchor="start" x="285.5" y="-508.5" font-family="Helvetica,sans-Serif" font-size="10.00">plang::exception::malformed</text>
<text text-anchor="middle" x="347.5" y="-497.5" font-family="Helvetica,sans-Serif" font-size="10.00">_command_error</text>
</a>
</g>
</g>
<!-- Node0&#45;&gt;Node2 -->
<g id="edge3" class="edge">
<title>Node0&#45;&gt;Node2</title>
<path fill="none" stroke="midnightblue" d="M245.33,-474.61C262.39,-479.82 280.81,-485.45 297.2,-490.45"/>
<polygon fill="midnightblue" stroke="midnightblue" points="246.05,-471.17 235.46,-471.6 244.01,-477.87 246.05,-471.17"/>
</g>
<!-- Node3 -->
<g id="node5" class="node">
<title>Node3</title>
<g id="a_node5"><a xlink:href="classplang_1_1exception_1_1no__corpus__error.html" target="_top" xlink:title=" ">
<polygon fill="none" stroke="black" points="295.5,-441.5 295.5,-471.5 399.5,-471.5 399.5,-441.5 295.5,-441.5"/>
<text text-anchor="start" x="303.5" y="-459.5" font-family="Helvetica,sans-Serif" font-size="10.00">plang::exception::no</text>
<text text-anchor="middle" x="347.5" y="-448.5" font-family="Helvetica,sans-Serif" font-size="10.00">_corpus_error</text>
</a>
</g>
</g>
<!-- Node0&#45;&gt;Node3 -->
<g id="edge4" class="edge">
<title>Node0&#45;&gt;Node3</title>
<path fill="none" stroke="midnightblue" d="M247.47,-456.5C263.33,-456.5 280.22,-456.5 295.49,-456.5"/>
<polygon fill="midnightblue" stroke="midnightblue" points="247.22,-453 237.22,-456.5 247.22,-460 247.22,-453"/>
</g>
<!-- Node4 -->
<g id="node6" class="node">
<title>Node4</title>
<g id="a_node6"><a xlink:href="classplang_1_1exception_1_1unknown__command__error.html" target="_top" xlink:title=" ">
<polygon fill="none" stroke="black" points="281,-392.5 281,-422.5 414,-422.5 414,-392.5 281,-392.5"/>
<text text-anchor="start" x="289" y="-410.5" font-family="Helvetica,sans-Serif" font-size="10.00">plang::exception::unknown</text>
<text text-anchor="middle" x="347.5" y="-399.5" font-family="Helvetica,sans-Serif" font-size="10.00">_command_error</text>
</a>
</g>
</g>
<!-- Node0&#45;&gt;Node4 -->
<g id="edge5" class="edge">
<title>Node0&#45;&gt;Node4</title>
<path fill="none" stroke="midnightblue" d="M245.33,-438.39C262.39,-433.18 280.81,-427.55 297.2,-422.55"/>
<polygon fill="midnightblue" stroke="midnightblue" points="244.01,-435.13 235.46,-441.4 246.05,-441.83 244.01,-435.13"/>
</g>
<!-- Node68 -->
<g id="node8" class="node">
<title>Node68</title>
<g id="a_node8"><a xlink:href="classplang_1_1exception_1_1ambiguous__reference__error.html" target="_top" xlink:title=" ">
<polygon fill="none" stroke="black" points="277,-343.5 277,-373.5 418,-373.5 418,-343.5 277,-343.5"/>
<text text-anchor="start" x="285" y="-361.5" font-family="Helvetica,sans-Serif" font-size="10.00">plang::exception::ambiguous</text>
<text text-anchor="middle" x="347.5" y="-350.5" font-family="Helvetica,sans-Serif" font-size="10.00">_reference_error</text>
</a>
</g>
</g>
<!-- Node67&#45;&gt;Node68 -->
<g id="edge7" class="edge">
<title>Node67&#45;&gt;Node68</title>
<path fill="none" stroke="midnightblue" d="M198.07,-235.67C213.02,-263.28 240.99,-308.07 277,-334.5 281.63,-337.9 286.78,-340.84 292.13,-343.39"/>
<polygon fill="midnightblue" stroke="midnightblue" points="201.09,-233.89 193.33,-226.67 194.89,-237.15 201.09,-233.89"/>
</g>
<!-- Node69 -->
<g id="node9" class="node">
<title>Node69</title>
<g id="a_node9"><a xlink:href="classplang_1_1exception_1_1duplicate__object__class__error.html" target="_top" xlink:title=" ">
<polygon fill="none" stroke="black" points="281,-294.5 281,-324.5 414,-324.5 414,-294.5 281,-294.5"/>
<text text-anchor="start" x="289" y="-312.5" font-family="Helvetica,sans-Serif" font-size="10.00">plang::exception::duplicate</text>
<text text-anchor="middle" x="347.5" y="-301.5" font-family="Helvetica,sans-Serif" font-size="10.00">_object_class_error</text>
</a>
</g>
</g>
<!-- Node67&#45;&gt;Node69 -->
<g id="edge8" class="edge">
<title>Node67&#45;&gt;Node69</title>
<path fill="none" stroke="midnightblue" d="M208.63,-233.72C226.11,-249.89 251.54,-271.34 277,-285.5 282.91,-288.79 289.36,-291.74 295.86,-294.36"/>
<polygon fill="midnightblue" stroke="midnightblue" points="210.87,-231.02 201.19,-226.71 206.07,-236.12 210.87,-231.02"/>
</g>
<!-- Node70 -->
<g id="node10" class="node">
<title>Node70</title>
<g id="a_node10"><a xlink:href="classplang_1_1exception_1_1duplicate__path__error.html" target="_top" xlink:title=" ">
<polygon fill="none" stroke="black" points="281,-245.5 281,-275.5 414,-275.5 414,-245.5 281,-245.5"/>
<text text-anchor="start" x="289" y="-263.5" font-family="Helvetica,sans-Serif" font-size="10.00">plang::exception::duplicate</text>
<text text-anchor="middle" x="347.5" y="-252.5" font-family="Helvetica,sans-Serif" font-size="10.00">_path_error</text>
</a>
</g>
</g>
<!-- Node67&#45;&gt;Node70 -->
<g id="edge9" class="edge">
<title>Node67&#45;&gt;Node70</title>
<path fill="none" stroke="midnightblue" d="M245.33,-229.61C262.39,-234.82 280.81,-240.45 297.2,-245.45"/>
<polygon fill="midnightblue" stroke="midnightblue" points="246.05,-226.17 235.46,-226.6 244.01,-232.87 246.05,-226.17"/>
</g>
<!-- Node71 -->
<g id="node11" class="node">
<title>Node71</title>
<g id="a_node11"><a xlink:href="classplang_1_1exception_1_1duplicate__symbol__error.html" target="_top" xlink:title=" ">
<polygon fill="none" stroke="black" points="281,-196.5 281,-226.5 414,-226.5 414,-196.5 281,-196.5"/>
<text text-anchor="start" x="289" y="-214.5" font-family="Helvetica,sans-Serif" font-size="10.00">plang::exception::duplicate</text>
<text text-anchor="middle" x="347.5" y="-203.5" font-family="Helvetica,sans-Serif" font-size="10.00">_symbol_error</text>
</a>
</g>
</g>
<!-- Node67&#45;&gt;Node71 -->
<g id="edge10" class="edge">
<title>Node67&#45;&gt;Node71</title>
<path fill="none" stroke="midnightblue" d="M251.29,-211.5C261.06,-211.5 271.15,-211.5 280.93,-211.5"/>
<polygon fill="midnightblue" stroke="midnightblue" points="251.24,-208 241.23,-211.5 251.23,-215 251.24,-208"/>
</g>
<!-- Node72 -->
<g id="node12" class="node">
<title>Node72</title>
<g id="a_node12"><a xlink:href="classplang_1_1exception_1_1hint__match__error.html" target="_top" xlink:title=" ">
<polygon fill="none" stroke="black" points="292.5,-147.5 292.5,-177.5 402.5,-177.5 402.5,-147.5 292.5,-147.5"/>
<text text-anchor="start" x="300.5" y="-165.5" font-family="Helvetica,sans-Serif" font-size="10.00">plang::exception::hint</text>
<text text-anchor="middle" x="347.5" y="-154.5" font-family="Helvetica,sans-Serif" font-size="10.00">_match_error</text>
</a>
</g>
</g>
<!-- Node67&#45;&gt;Node72 -->
<g id="edge11" class="edge">
<title>Node67&#45;&gt;Node72</title>
<path fill="none" stroke="midnightblue" d="M245.33,-193.39C262.39,-188.18 280.81,-182.55 297.2,-177.55"/>
<polygon fill="midnightblue" stroke="midnightblue" points="244.01,-190.13 235.46,-196.4 246.05,-196.83 244.01,-190.13"/>
</g>
<!-- Node73 -->
<g id="node13" class="node">
<title>Node73</title>
<g id="a_node13"><a xlink:href="classplang_1_1exception_1_1invalid__reference__error.html" target="_top" xlink:title=" ">
<polygon fill="none" stroke="black" points="286.5,-98.5 286.5,-128.5 408.5,-128.5 408.5,-98.5 286.5,-98.5"/>
<text text-anchor="start" x="294.5" y="-116.5" font-family="Helvetica,sans-Serif" font-size="10.00">plang::exception::invalid</text>
<text text-anchor="middle" x="347.5" y="-105.5" font-family="Helvetica,sans-Serif" font-size="10.00">_reference_error</text>
</a>
</g>
</g>
<!-- Node67&#45;&gt;Node73 -->
<g id="edge12" class="edge">
<title>Node67&#45;&gt;Node73</title>
<path fill="none" stroke="midnightblue" d="M209.06,-189.4C226.58,-173.54 251.87,-152.58 277,-138.5 283.6,-134.8 290.85,-131.48 298.1,-128.56"/>
<polygon fill="midnightblue" stroke="midnightblue" points="206.57,-186.93 201.58,-196.28 211.31,-192.08 206.57,-186.93"/>
</g>
<!-- Node74 -->
<g id="node14" class="node">
<title>Node74</title>
<g id="a_node14"><a xlink:href="classplang_1_1exception_1_1malformed__expression__error.html" target="_top" xlink:title=" ">
<polygon fill="none" stroke="black" points="277.5,-49.5 277.5,-79.5 417.5,-79.5 417.5,-49.5 277.5,-49.5"/>
<text text-anchor="start" x="285.5" y="-67.5" font-family="Helvetica,sans-Serif" font-size="10.00">plang::exception::malformed</text>
<text text-anchor="middle" x="347.5" y="-56.5" font-family="Helvetica,sans-Serif" font-size="10.00">_expression_error</text>
</a>
</g>
</g>
<!-- Node67&#45;&gt;Node74 -->
<g id="edge13" class="edge">
<title>Node67&#45;&gt;Node74</title>
<path fill="none" stroke="midnightblue" d="M198.42,-187.18C213.53,-159.83 241.48,-115.81 277,-89.5 282.15,-85.68 287.94,-82.4 293.93,-79.6"/>
<polygon fill="midnightblue" stroke="midnightblue" points="195.27,-185.63 193.62,-196.1 201.44,-188.95 195.27,-185.63"/>
</g>
<!-- Node75 -->
<g id="node15" class="node">
<title>Node75</title>
<g id="a_node15"><a xlink:href="classplang_1_1exception_1_1redefinition__error.html" target="_top" xlink:title=" ">
<polygon fill="none" stroke="black" points="277,-0.5 277,-30.5 418,-30.5 418,-0.5 277,-0.5"/>
<text text-anchor="start" x="285" y="-18.5" font-family="Helvetica,sans-Serif" font-size="10.00">plang::exception::redefinition</text>
<text text-anchor="middle" x="347.5" y="-7.5" font-family="Helvetica,sans-Serif" font-size="10.00">_error</text>
</a>
</g>
</g>
<!-- Node67&#45;&gt;Node75 -->
<g id="edge14" class="edge">
<title>Node67&#45;&gt;Node75</title>
<path fill="none" stroke="midnightblue" d="M192.98,-186.4C204.51,-149.42 230.95,-80.37 277,-40.5 281.46,-36.64 286.56,-33.36 291.93,-30.57"/>
<polygon fill="midnightblue" stroke="midnightblue" points="189.52,-185.77 190,-196.36 196.22,-187.78 189.52,-185.77"/>
</g>
</g>
</svg>
