<?xml version="1.0" encoding="UTF-8" standalone="no"?>
<!DOCTYPE svg PUBLIC "-//W3C//DTD SVG 1.1//EN"
 "http://www.w3.org/Graphics/SVG/1.1/DTD/svg11.dtd">
<!-- Generated by graphviz version 2.44.1 (20220725.2034)
 -->
<!-- Title: Graphical Class Hierarchy Pages: 1 -->
<svg width="280pt" height="78pt"
 viewBox="0.00 0.00 280.00 77.50" xmlns="http://www.w3.org/2000/svg" xmlns:xlink="http://www.w3.org/1999/xlink">
<g id="graph0" class="graph" transform="scale(1 1) rotate(0) translate(4 73.5)">
<title>Graphical Class Hierarchy</title>
<!-- Node0 -->
<g id="node1" class="node">
<title>Node0</title>
<g id="a_node1"><a xlink:href="classplang_1_1detail_1_1base__types_1_1persisted.html" target="_top" xlink:title=" ">
<polygon fill="none" stroke="black" points="0,-17 0,-47 123,-47 123,-17 0,-17"/>
<text text-anchor="start" x="8" y="-35" font-family="Helvetica,sans-Serif" font-size="10.00">plang::detail::base</text>
<text text-anchor="middle" x="61.5" y="-24" font-family="Helvetica,sans-Serif" font-size="10.00">_types::persisted&lt; pnt &gt;</text>
</a>
</g>
</g>
<!-- Node1 -->
<g id="node2" class="node">
<title>Node1</title>
<g id="a_node2"><a xlink:href="classplang_1_1plot_1_1object_1_1clazz_1_1hint_1_1pnt.html" target="_top" xlink:title=" ">
<polygon fill="none" stroke="black" points="168.5,-39 168.5,-69 262.5,-69 262.5,-39 168.5,-39"/>
<text text-anchor="start" x="176.5" y="-57" font-family="Helvetica,sans-Serif" font-size="10.00">plang::plot::object</text>
<text text-anchor="middle" x="215.5" y="-46" font-family="Helvetica,sans-Serif" font-size="10.00">::clazz::hint::pnt</text>
</a>
</g>
</g>
<!-- Node0&#45;&gt;Node1 -->
<g id="edge1" class="edge">
<title>Node0&#45;&gt;Node1</title>
<path fill="none" stroke="midnightblue" d="M132.99,-42.2C144.96,-43.94 157.11,-45.69 168.25,-47.31"/>
<polygon fill="midnightblue" stroke="midnightblue" points="133.41,-38.73 123.01,-40.76 132.41,-45.65 133.41,-38.73"/>
</g>
<!-- Node2 -->
<g id="node3" class="node">
<title>Node2</title>
<g id="a_node3"><a xlink:href="classplang_1_1plot_1_1object_1_1pnt.html" target="_top" xlink:title=" ">
<polygon fill="none" stroke="black" points="159,-0.5 159,-19.5 272,-19.5 272,-0.5 159,-0.5"/>
<text text-anchor="middle" x="215.5" y="-7.5" font-family="Helvetica,sans-Serif" font-size="10.00">plang::plot::object::pnt</text>
</a>
</g>
</g>
<!-- Node0&#45;&gt;Node2 -->
<g id="edge2" class="edge">
<title>Node0&#45;&gt;Node2</title>
<path fill="none" stroke="midnightblue" d="M133.03,-21.79C141.62,-20.55 150.3,-19.29 158.64,-18.09"/>
<polygon fill="midnightblue" stroke="midnightblue" points="132.41,-18.35 123.01,-23.24 133.41,-25.27 132.41,-18.35"/>
</g>
</g>
</svg>
