<?xml version="1.0" encoding="UTF-8" standalone="no"?>
<!DOCTYPE svg PUBLIC "-//W3C//DTD SVG 1.1//EN"
 "http://www.w3.org/Graphics/SVG/1.1/DTD/svg11.dtd">
<!-- Generated by graphviz version 2.44.1 (20220725.2034)
 -->
<!-- Title: Graphical Class Hierarchy Pages: 1 -->
<svg width="933pt" height="209pt"
 viewBox="0.00 0.00 933.00 208.88" xmlns="http://www.w3.org/2000/svg" xmlns:xlink="http://www.w3.org/1999/xlink">
<g id="graph0" class="graph" transform="scale(1 1) rotate(0) translate(4 204.88)">
<title>Graphical Class Hierarchy</title>
<!-- Node0 -->
<g id="node1" class="node">
<title>Node0</title>
<g id="a_node1"><a xlink:href="classplang_1_1detail_1_1corpus.html" target="_top" xlink:title="Provides a basic interface to a database.">
<polygon fill="none" stroke="black" points="0,-93.38 0,-112.38 104,-112.38 104,-93.38 0,-93.38"/>
<text text-anchor="middle" x="52" y="-100.38" font-family="Helvetica,sans-Serif" font-size="10.00">plang::detail::corpus</text>
</a>
</g>
</g>
<!-- Node1 -->
<g id="node2" class="node">
<title>Node1</title>
<g id="a_node2"><a xlink:href="classplang_1_1corpus.html" target="_top" xlink:title="The main interface for interacting with a corpus.">
<polygon fill="none" stroke="black" points="850,-150.38 850,-169.38 925,-169.38 925,-150.38 850,-150.38"/>
<text text-anchor="middle" x="887.5" y="-157.38" font-family="Helvetica,sans-Serif" font-size="10.00">plang::corpus</text>
</a>
</g>
</g>
<!-- Node0&#45;&gt;Node1 -->
<g id="edge1" class="edge">
<title>Node0&#45;&gt;Node1</title>
<path fill="none" stroke="midnightblue" d="M76.34,-117.68C121.82,-145.06 226.32,-200.88 322.5,-200.88 322.5,-200.88 322.5,-200.88 616,-200.88 700.31,-200.88 797.75,-181.16 849.58,-169.08"/>
<polygon fill="midnightblue" stroke="midnightblue" points="78.16,-114.69 67.8,-112.45 74.5,-120.66 78.16,-114.69"/>
</g>
<!-- Node2 -->
<g id="node3" class="node">
<title>Node2</title>
<g id="a_node3"><a xlink:href="classplang_1_1detail_1_1path__manager.html" target="_top" xlink:title="Handles database actions for paths.">
<polygon fill="none" stroke="black" points="140,-24.88 140,-54.88 234,-54.88 234,-24.88 140,-24.88"/>
<text text-anchor="start" x="148" y="-42.88" font-family="Helvetica,sans-Serif" font-size="10.00">plang::detail::path</text>
<text text-anchor="middle" x="187" y="-31.88" font-family="Helvetica,sans-Serif" font-size="10.00">_manager</text>
</a>
</g>
</g>
<!-- Node0&#45;&gt;Node2 -->
<g id="edge2" class="edge">
<title>Node0&#45;&gt;Node2</title>
<path fill="none" stroke="darkgreen" d="M82.4,-88.95C103.67,-78.87 132.39,-65.27 154.2,-54.94"/>
<polygon fill="darkgreen" stroke="darkgreen" points="80.74,-85.86 73.2,-93.31 83.74,-92.19 80.74,-85.86"/>
</g>
<!-- Node6 -->
<g id="node7" class="node">
<title>Node6</title>
<g id="a_node7"><a xlink:href="classplang_1_1detail_1_1symbol__class__manager.html" target="_top" xlink:title=" ">
<polygon fill="none" stroke="black" points="270,-59.88 270,-89.88 377,-89.88 377,-59.88 270,-59.88"/>
<text text-anchor="start" x="278" y="-77.88" font-family="Helvetica,sans-Serif" font-size="10.00">plang::detail::symbol</text>
<text text-anchor="middle" x="323.5" y="-66.88" font-family="Helvetica,sans-Serif" font-size="10.00">_class_manager</text>
</a>
</g>
</g>
<!-- Node0&#45;&gt;Node6 -->
<g id="edge13" class="edge">
<title>Node0&#45;&gt;Node6</title>
<path fill="none" stroke="darkgreen" d="M114.05,-96.53C160.99,-91.66 225.16,-84.99 269.86,-80.34"/>
<polygon fill="darkgreen" stroke="darkgreen" points="113.59,-93.06 104.01,-97.58 114.32,-100.02 113.59,-93.06"/>
</g>
<!-- Node7 -->
<g id="node8" class="node">
<title>Node7</title>
<g id="a_node8"><a xlink:href="classplang_1_1detail_1_1symbol__manager.html" target="_top" xlink:title=" ">
<polygon fill="none" stroke="black" points="413,-103.88 413,-133.88 520,-133.88 520,-103.88 413,-103.88"/>
<text text-anchor="start" x="421" y="-121.88" font-family="Helvetica,sans-Serif" font-size="10.00">plang::detail::symbol</text>
<text text-anchor="middle" x="466.5" y="-110.88" font-family="Helvetica,sans-Serif" font-size="10.00">_manager</text>
</a>
</g>
</g>
<!-- Node0&#45;&gt;Node7 -->
<g id="edge14" class="edge">
<title>Node0&#45;&gt;Node7</title>
<path fill="none" stroke="darkgreen" d="M114.46,-105.26C195.42,-108.4 336.45,-113.87 412.79,-116.83"/>
<polygon fill="darkgreen" stroke="darkgreen" points="114.54,-101.76 104.41,-104.87 114.27,-108.75 114.54,-101.76"/>
</g>
<!-- Node3 -->
<g id="node4" class="node">
<title>Node3</title>
<g id="a_node4"><a xlink:href="structplang_1_1detail_1_1mixin__base.html" target="_top" xlink:title=" ">
<polygon fill="none" stroke="black" points="556,-81.88 556,-155.88 674,-155.88 674,-81.88 556,-81.88"/>
<text text-anchor="start" x="564" y="-143.88" font-family="Helvetica,sans-Serif" font-size="10.00">plang::detail::mixin</text>
<text text-anchor="start" x="564" y="-132.88" font-family="Helvetica,sans-Serif" font-size="10.00">_base&lt; plang::detail</text>
<text text-anchor="start" x="564" y="-121.88" font-family="Helvetica,sans-Serif" font-size="10.00">::path_manager, plang</text>
<text text-anchor="start" x="564" y="-110.88" font-family="Helvetica,sans-Serif" font-size="10.00">::detail::symbol_class</text>
<text text-anchor="start" x="564" y="-99.88" font-family="Helvetica,sans-Serif" font-size="10.00">_manager, plang::detail</text>
<text text-anchor="middle" x="615" y="-88.88" font-family="Helvetica,sans-Serif" font-size="10.00">::symbol_manager &gt;</text>
</a>
</g>
</g>
<!-- Node2&#45;&gt;Node3 -->
<g id="edge3" class="edge">
<title>Node2&#45;&gt;Node3</title>
<path fill="none" stroke="midnightblue" d="M213.55,-61.52C229.08,-73.82 249.76,-88.74 270,-98.88 329.57,-128.71 347.14,-133.76 413,-143.88 460,-151.1 472.85,-150.04 520,-143.88 531.72,-142.34 544.06,-139.78 555.8,-136.86"/>
<polygon fill="midnightblue" stroke="midnightblue" points="215.47,-58.57 205.49,-55.01 211.07,-64.02 215.47,-58.57"/>
</g>
<!-- Node5 -->
<g id="node6" class="node">
<title>Node5</title>
<g id="a_node6"><a xlink:href="structplang_1_1detail_1_1mixin__base.html" target="_top" xlink:title="Common derived class template for distributed overloading.">
<polygon fill="none" stroke="black" points="566,-2.88 566,-32.88 664,-32.88 664,-2.88 566,-2.88"/>
<text text-anchor="start" x="574" y="-20.88" font-family="Helvetica,sans-Serif" font-size="10.00">plang::detail::mixin</text>
<text text-anchor="middle" x="615" y="-9.88" font-family="Helvetica,sans-Serif" font-size="10.00">_base&lt; Tps &gt;</text>
</a>
</g>
</g>
<!-- Node2&#45;&gt;Node5 -->
<g id="edge6" class="edge">
<title>Node2&#45;&gt;Node5</title>
<path fill="none" stroke="midnightblue" d="M244.19,-28.02C289.52,-19.09 355.04,-7.61 413,-2.88 460.4,1 472.59,0.88 520,-2.88 534.99,-4.06 551.2,-6.3 565.87,-8.7"/>
<polygon fill="midnightblue" stroke="midnightblue" points="243.39,-24.61 234.27,-30 244.76,-31.48 243.39,-24.61"/>
</g>
<!-- Node2&#45;&gt;Node6 -->
<g id="edge7" class="edge">
<title>Node2&#45;&gt;Node6</title>
<path fill="none" stroke="darkgreen" d="M244.08,-54.47C252.55,-56.67 261.26,-58.94 269.66,-61.12"/>
<polygon fill="darkgreen" stroke="darkgreen" points="244.85,-51.05 234.29,-51.92 243.08,-57.83 244.85,-51.05"/>
</g>
<!-- Node4 -->
<g id="node5" class="node">
<title>Node4</title>
<g id="a_node5"><a xlink:href="structplang_1_1detail_1_1corpus__mixins.html" target="_top" xlink:title="Base class for the corpus.">
<polygon fill="none" stroke="black" points="710,-122.88 710,-152.88 814,-152.88 814,-122.88 710,-122.88"/>
<text text-anchor="start" x="718" y="-140.88" font-family="Helvetica,sans-Serif" font-size="10.00">plang::detail::corpus</text>
<text text-anchor="middle" x="762" y="-129.88" font-family="Helvetica,sans-Serif" font-size="10.00">_mixins</text>
</a>
</g>
</g>
<!-- Node3&#45;&gt;Node4 -->
<g id="edge4" class="edge">
<title>Node3&#45;&gt;Node4</title>
<path fill="none" stroke="midnightblue" d="M684.21,-127.81C692.84,-128.94 701.56,-130.09 709.86,-131.17"/>
<polygon fill="midnightblue" stroke="midnightblue" points="684.51,-124.32 674.14,-126.49 683.6,-131.26 684.51,-124.32"/>
</g>
<!-- Node4&#45;&gt;Node1 -->
<g id="edge5" class="edge">
<title>Node4&#45;&gt;Node1</title>
<path fill="none" stroke="midnightblue" d="M824.17,-148.77C832.95,-150.34 841.74,-151.9 849.85,-153.35"/>
<polygon fill="midnightblue" stroke="midnightblue" points="824.76,-145.32 814.3,-147.01 823.53,-152.21 824.76,-145.32"/>
</g>
<!-- Node6&#45;&gt;Node3 -->
<g id="edge8" class="edge">
<title>Node6&#45;&gt;Node3</title>
<path fill="none" stroke="midnightblue" d="M387.1,-78.91C425.63,-81.98 475.9,-87.04 520,-94.88 531.69,-96.95 544.07,-99.71 555.88,-102.61"/>
<polygon fill="midnightblue" stroke="midnightblue" points="387.31,-75.41 377.07,-78.13 386.77,-82.39 387.31,-75.41"/>
</g>
<!-- Node6&#45;&gt;Node5 -->
<g id="edge9" class="edge">
<title>Node6&#45;&gt;Node5</title>
<path fill="none" stroke="midnightblue" d="M349.43,-53.25C366.17,-40.2 389.41,-24.81 413,-17.88 463.55,-3 524.4,-5.68 565.81,-10.37"/>
<polygon fill="midnightblue" stroke="midnightblue" points="346.89,-50.8 341.3,-59.79 351.28,-56.25 346.89,-50.8"/>
</g>
<!-- Node6&#45;&gt;Node7 -->
<g id="edge10" class="edge">
<title>Node6&#45;&gt;Node7</title>
<path fill="none" stroke="darkgreen" d="M382.22,-92.89C393.81,-96.5 405.88,-100.27 417.11,-103.77"/>
<polygon fill="darkgreen" stroke="darkgreen" points="383.22,-89.53 372.63,-89.89 381.13,-96.21 383.22,-89.53"/>
</g>
<!-- Node7&#45;&gt;Node3 -->
<g id="edge11" class="edge">
<title>Node7&#45;&gt;Node3</title>
<path fill="none" stroke="midnightblue" d="M530.49,-118.88C538.87,-118.88 547.44,-118.88 555.73,-118.88"/>
<polygon fill="midnightblue" stroke="midnightblue" points="530.39,-115.38 520.39,-118.88 530.39,-122.38 530.39,-115.38"/>
</g>
<!-- Node7&#45;&gt;Node5 -->
<g id="edge12" class="edge">
<title>Node7&#45;&gt;Node5</title>
<path fill="none" stroke="midnightblue" d="M497.68,-98.07C525.73,-78.73 566.82,-50.4 591.92,-33.1"/>
<polygon fill="midnightblue" stroke="midnightblue" points="495.68,-95.2 489.43,-103.75 499.65,-100.96 495.68,-95.2"/>
</g>
<!-- Node82 -->
<g id="node9" class="node">
<title>Node82</title>
<g id="a_node9"><a xlink:title=" ">
<polygon fill="none" stroke="#bfbfbf" points="450,-27.38 450,-46.38 483,-46.38 483,-27.38 450,-27.38"/>
<text text-anchor="middle" x="466.5" y="-34.38" font-family="Helvetica,sans-Serif" font-size="10.00">Tps</text>
</a>
</g>
</g>
<!-- Node82&#45;&gt;Node3 -->
<g id="edge15" class="edge">
<title>Node82&#45;&gt;Node3</title>
<path fill="none" stroke="midnightblue" d="M492.69,-47.63C501.45,-51.57 511.27,-56.21 520,-60.88 532.01,-67.29 544.59,-74.61 556.49,-81.84"/>
<polygon fill="midnightblue" stroke="midnightblue" points="493.93,-44.35 483.37,-43.52 491.11,-50.75 493.93,-44.35"/>
</g>
<!-- Node82&#45;&gt;Node5 -->
<g id="edge16" class="edge">
<title>Node82&#45;&gt;Node5</title>
<path fill="none" stroke="midnightblue" d="M493.35,-33.52C513.34,-30.93 541.57,-27.27 565.69,-24.14"/>
<polygon fill="midnightblue" stroke="midnightblue" points="492.64,-30.08 483.18,-34.84 493.55,-37.03 492.64,-30.08"/>
</g>
</g>
</svg>
