<?xml version="1.0" encoding="UTF-8" standalone="no"?>
<!DOCTYPE svg PUBLIC "-//W3C//DTD SVG 1.1//EN"
 "http://www.w3.org/Graphics/SVG/1.1/DTD/svg11.dtd">
<!-- Generated by graphviz version 2.44.1 (20220725.2034)
 -->
<!-- Title: Graphical Class Hierarchy Pages: 1 -->
<svg width="304pt" height="681pt"
 viewBox="0.00 0.00 304.00 680.50" xmlns="http://www.w3.org/2000/svg" xmlns:xlink="http://www.w3.org/1999/xlink">
<g id="graph0" class="graph" transform="scale(1 1) rotate(0) translate(4 676.5)">
<title>Graphical Class Hierarchy</title>
<!-- Node0 -->
<g id="node1" class="node">
<title>Node0</title>
<g id="a_node1"><a xlink:href="classplang_1_1detail_1_1base__types_1_1decorated.html" target="_top" xlink:title="Base type for decorated classes.">
<polygon fill="none" stroke="black" points="22.5,-593 22.5,-623 118.5,-623 118.5,-593 22.5,-593"/>
<text text-anchor="start" x="30.5" y="-611" font-family="Helvetica,sans-Serif" font-size="10.00">plang::detail::base</text>
<text text-anchor="middle" x="70.5" y="-600" font-family="Helvetica,sans-Serif" font-size="10.00">_types::decorated</text>
</a>
</g>
</g>
<!-- Node1 -->
<g id="node2" class="node">
<title>Node1</title>
<g id="a_node2"><a xlink:href="classplang_1_1plot_1_1object_1_1clazz.html" target="_top" xlink:title=" ">
<polygon fill="none" stroke="black" points="189.5,-547 189.5,-577 283.5,-577 283.5,-547 189.5,-547"/>
<text text-anchor="start" x="197.5" y="-565" font-family="Helvetica,sans-Serif" font-size="10.00">plang::plot::object</text>
<text text-anchor="middle" x="236.5" y="-554" font-family="Helvetica,sans-Serif" font-size="10.00">::clazz</text>
</a>
</g>
</g>
<!-- Node0&#45;&gt;Node1 -->
<g id="edge1" class="edge">
<title>Node0&#45;&gt;Node1</title>
<path fill="none" stroke="midnightblue" d="M128.77,-591.94C148.57,-586.38 170.5,-580.23 189.3,-574.96"/>
<polygon fill="midnightblue" stroke="midnightblue" points="127.62,-588.62 118.94,-594.69 129.51,-595.36 127.62,-588.62"/>
</g>
<!-- Node2 -->
<g id="node3" class="node">
<title>Node2</title>
<g id="a_node3"><a xlink:href="classplang_1_1plot_1_1symbol.html" target="_top" xlink:title=" ">
<polygon fill="none" stroke="black" points="187,-634.5 187,-653.5 286,-653.5 286,-634.5 187,-634.5"/>
<text text-anchor="middle" x="236.5" y="-641.5" font-family="Helvetica,sans-Serif" font-size="10.00">plang::plot::symbol</text>
</a>
</g>
</g>
<!-- Node0&#45;&gt;Node2 -->
<g id="edge2" class="edge">
<title>Node0&#45;&gt;Node2</title>
<path fill="none" stroke="midnightblue" d="M128.91,-620.6C149.67,-625.16 172.74,-630.22 192.1,-634.47"/>
<polygon fill="midnightblue" stroke="midnightblue" points="129.45,-617.14 118.94,-618.41 127.95,-623.98 129.45,-617.14"/>
</g>
<!-- Node3 -->
<g id="node4" class="node">
<title>Node3</title>
<g id="a_node4"><a xlink:href="classplang_1_1root_1_1path.html" target="_top" xlink:title="A node in the corpus&#39; path tree.">
<polygon fill="none" stroke="black" points="193,-596.5 193,-615.5 280,-615.5 280,-596.5 193,-596.5"/>
<text text-anchor="middle" x="236.5" y="-603.5" font-family="Helvetica,sans-Serif" font-size="10.00">plang::root::path</text>
</a>
</g>
</g>
<!-- Node0&#45;&gt;Node3 -->
<g id="edge3" class="edge">
<title>Node0&#45;&gt;Node3</title>
<path fill="none" stroke="midnightblue" d="M129.04,-607.3C150.06,-607.04 173.44,-606.76 192.92,-606.52"/>
<polygon fill="midnightblue" stroke="midnightblue" points="128.89,-603.8 118.94,-607.42 128.98,-610.8 128.89,-603.8"/>
</g>
<!-- Node32 -->
<g id="node5" class="node">
<title>Node32</title>
<g id="a_node5"><a xlink:href="classplang_1_1detail_1_1base__types_1_1persisted.html" target="_top" xlink:title=" ">
<polygon fill="none" stroke="black" points="4,-495 4,-525 137,-525 137,-495 4,-495"/>
<text text-anchor="start" x="12" y="-513" font-family="Helvetica,sans-Serif" font-size="10.00">plang::detail::base</text>
<text text-anchor="middle" x="70.5" y="-502" font-family="Helvetica,sans-Serif" font-size="10.00">_types::persisted&lt; clazz &gt;</text>
</a>
</g>
</g>
<!-- Node32&#45;&gt;Node1 -->
<g id="edge4" class="edge">
<title>Node32&#45;&gt;Node1</title>
<path fill="none" stroke="midnightblue" d="M128.5,-528.07C148.37,-534.37 170.41,-541.36 189.3,-547.35"/>
<polygon fill="midnightblue" stroke="midnightblue" points="129.53,-524.73 118.94,-525.04 127.41,-531.4 129.53,-524.73"/>
</g>
<!-- Node33 -->
<g id="node6" class="node">
<title>Node33</title>
<g id="a_node6"><a xlink:href="classplang_1_1plot_1_1point_1_1clazz.html" target="_top" xlink:title=" ">
<polygon fill="none" stroke="black" points="192,-449 192,-479 281,-479 281,-449 192,-449"/>
<text text-anchor="start" x="200" y="-467" font-family="Helvetica,sans-Serif" font-size="10.00">plang::plot::point</text>
<text text-anchor="middle" x="236.5" y="-456" font-family="Helvetica,sans-Serif" font-size="10.00">::clazz</text>
</a>
</g>
</g>
<!-- Node32&#45;&gt;Node33 -->
<g id="edge5" class="edge">
<title>Node32&#45;&gt;Node33</title>
<path fill="none" stroke="midnightblue" d="M134.98,-492.19C153.98,-486.87 174.38,-481.14 191.8,-476.26"/>
<polygon fill="midnightblue" stroke="midnightblue" points="133.88,-488.87 125.2,-494.94 135.77,-495.61 133.88,-488.87"/>
</g>
<!-- Node34 -->
<g id="node7" class="node">
<title>Node34</title>
<g id="a_node7"><a xlink:href="classplang_1_1plot_1_1symbol_1_1clazz.html" target="_top" xlink:title=" ">
<polygon fill="none" stroke="black" points="187,-498 187,-528 286,-528 286,-498 187,-498"/>
<text text-anchor="start" x="195" y="-516" font-family="Helvetica,sans-Serif" font-size="10.00">plang::plot::symbol</text>
<text text-anchor="middle" x="236.5" y="-505" font-family="Helvetica,sans-Serif" font-size="10.00">::clazz</text>
</a>
</g>
</g>
<!-- Node32&#45;&gt;Node34 -->
<g id="edge6" class="edge">
<title>Node32&#45;&gt;Node34</title>
<path fill="none" stroke="midnightblue" d="M147.45,-511.39C160.86,-511.63 174.49,-511.88 186.89,-512.11"/>
<polygon fill="midnightblue" stroke="midnightblue" points="147.32,-507.89 137.26,-511.2 147.19,-514.89 147.32,-507.89"/>
</g>
<!-- Node40 -->
<g id="node8" class="node">
<title>Node40</title>
<g id="a_node8"><a xlink:href="classplang_1_1detail_1_1base__types_1_1persisted.html" target="_top" xlink:title=" ">
<polygon fill="none" stroke="black" points="8,-353 8,-383 133,-383 133,-353 8,-353"/>
<text text-anchor="start" x="16" y="-371" font-family="Helvetica,sans-Serif" font-size="10.00">plang::detail::base</text>
<text text-anchor="middle" x="70.5" y="-360" font-family="Helvetica,sans-Serif" font-size="10.00">_types::persisted&lt; hint &gt;</text>
</a>
</g>
</g>
<!-- Node41 -->
<g id="node9" class="node">
<title>Node41</title>
<g id="a_node9"><a xlink:href="classplang_1_1plot_1_1point_1_1clazz_1_1hint.html" target="_top" xlink:title=" ">
<polygon fill="none" stroke="black" points="192,-351 192,-381 281,-381 281,-351 192,-351"/>
<text text-anchor="start" x="200" y="-369" font-family="Helvetica,sans-Serif" font-size="10.00">plang::plot::point</text>
<text text-anchor="middle" x="236.5" y="-358" font-family="Helvetica,sans-Serif" font-size="10.00">::clazz::hint</text>
</a>
</g>
</g>
<!-- Node40&#45;&gt;Node41 -->
<g id="edge7" class="edge">
<title>Node40&#45;&gt;Node41</title>
<path fill="none" stroke="midnightblue" d="M143.23,-367.13C159.77,-366.92 176.87,-366.71 191.79,-366.53"/>
<polygon fill="midnightblue" stroke="midnightblue" points="142.99,-363.63 133.03,-367.25 143.08,-370.63 142.99,-363.63"/>
</g>
<!-- Node42 -->
<g id="node10" class="node">
<title>Node42</title>
<g id="a_node10"><a xlink:href="classplang_1_1plot_1_1symbol_1_1clazz_1_1hint.html" target="_top" xlink:title=" ">
<polygon fill="none" stroke="black" points="187,-400 187,-430 286,-430 286,-400 187,-400"/>
<text text-anchor="start" x="195" y="-418" font-family="Helvetica,sans-Serif" font-size="10.00">plang::plot::symbol</text>
<text text-anchor="middle" x="236.5" y="-407" font-family="Helvetica,sans-Serif" font-size="10.00">::clazz::hint</text>
</a>
</g>
</g>
<!-- Node40&#45;&gt;Node42 -->
<g id="edge8" class="edge">
<title>Node40&#45;&gt;Node42</title>
<path fill="none" stroke="midnightblue" d="M133.51,-385.77C151.21,-390.84 170.23,-396.29 186.99,-401.1"/>
<polygon fill="midnightblue" stroke="midnightblue" points="134.42,-382.39 123.84,-383 132.49,-389.12 134.42,-382.39"/>
</g>
<!-- Node43 -->
<g id="node11" class="node">
<title>Node43</title>
<g id="a_node11"><a xlink:href="classplang_1_1detail_1_1base__types_1_1persisted.html" target="_top" xlink:title=" ">
<polygon fill="none" stroke="black" points="12,-219 12,-249 129,-249 129,-219 12,-219"/>
<text text-anchor="start" x="20" y="-237" font-family="Helvetica,sans-Serif" font-size="10.00">plang::detail::base</text>
<text text-anchor="middle" x="70.5" y="-226" font-family="Helvetica,sans-Serif" font-size="10.00">_types::persisted&lt; lit &gt;</text>
</a>
</g>
</g>
<!-- Node44 -->
<g id="node12" class="node">
<title>Node44</title>
<g id="a_node12"><a xlink:href="classplang_1_1plot_1_1object_1_1clazz_1_1hint_1_1lit.html" target="_top" xlink:title=" ">
<polygon fill="none" stroke="black" points="189.5,-263 189.5,-293 283.5,-293 283.5,-263 189.5,-263"/>
<text text-anchor="start" x="197.5" y="-281" font-family="Helvetica,sans-Serif" font-size="10.00">plang::plot::object</text>
<text text-anchor="middle" x="236.5" y="-270" font-family="Helvetica,sans-Serif" font-size="10.00">::clazz::hint::lit</text>
</a>
</g>
</g>
<!-- Node43&#45;&gt;Node44 -->
<g id="edge9" class="edge">
<title>Node43&#45;&gt;Node44</title>
<path fill="none" stroke="midnightblue" d="M137.56,-251.72C154.9,-256.38 173.24,-261.3 189.3,-265.6"/>
<polygon fill="midnightblue" stroke="midnightblue" points="138.05,-248.23 127.48,-249.02 136.23,-254.99 138.05,-248.23"/>
</g>
<!-- Node45 -->
<g id="node13" class="node">
<title>Node45</title>
<g id="a_node13"><a xlink:href="classplang_1_1plot_1_1object_1_1lit.html" target="_top" xlink:title=" ">
<polygon fill="none" stroke="black" points="183,-175.5 183,-194.5 290,-194.5 290,-175.5 183,-175.5"/>
<text text-anchor="middle" x="236.5" y="-182.5" font-family="Helvetica,sans-Serif" font-size="10.00">plang::plot::object::lit</text>
</a>
</g>
</g>
<!-- Node43&#45;&gt;Node45 -->
<g id="edge10" class="edge">
<title>Node43&#45;&gt;Node45</title>
<path fill="none" stroke="midnightblue" d="M131.89,-215.96C156.14,-208.71 183.11,-200.65 203.45,-194.58"/>
<polygon fill="midnightblue" stroke="midnightblue" points="130.62,-212.68 122.04,-218.9 132.63,-219.39 130.62,-212.68"/>
</g>
<!-- Node46 -->
<g id="node14" class="node">
<title>Node46</title>
<g id="a_node14"><a xlink:href="classplang_1_1detail_1_1base__types_1_1persisted.html" target="_top" xlink:title=" ">
<polygon fill="none" stroke="black" points="6.5,-544 6.5,-574 134.5,-574 134.5,-544 6.5,-544"/>
<text text-anchor="start" x="14.5" y="-562" font-family="Helvetica,sans-Serif" font-size="10.00">plang::detail::base</text>
<text text-anchor="middle" x="70.5" y="-551" font-family="Helvetica,sans-Serif" font-size="10.00">_types::persisted&lt; path &gt;</text>
</a>
</g>
</g>
<!-- Node46&#45;&gt;Node3 -->
<g id="edge11" class="edge">
<title>Node46&#45;&gt;Node3</title>
<path fill="none" stroke="midnightblue" d="M133.66,-576.81C156.95,-583.49 182.51,-590.81 202.2,-596.46"/>
<polygon fill="midnightblue" stroke="midnightblue" points="134.42,-573.39 123.84,-574 132.49,-580.12 134.42,-573.39"/>
</g>
<!-- Node47 -->
<g id="node15" class="node">
<title>Node47</title>
<g id="a_node15"><a xlink:href="classplang_1_1detail_1_1base__types_1_1persisted.html" target="_top" xlink:title=" ">
<polygon fill="none" stroke="black" points="9,-151 9,-181 132,-181 132,-151 9,-151"/>
<text text-anchor="start" x="17" y="-169" font-family="Helvetica,sans-Serif" font-size="10.00">plang::detail::base</text>
<text text-anchor="middle" x="70.5" y="-158" font-family="Helvetica,sans-Serif" font-size="10.00">_types::persisted&lt; pnt &gt;</text>
</a>
</g>
</g>
<!-- Node48 -->
<g id="node16" class="node">
<title>Node48</title>
<g id="a_node16"><a xlink:href="classplang_1_1plot_1_1object_1_1clazz_1_1hint_1_1pnt.html" target="_top" xlink:title=" ">
<polygon fill="none" stroke="black" points="189.5,-214 189.5,-244 283.5,-244 283.5,-214 189.5,-214"/>
<text text-anchor="start" x="197.5" y="-232" font-family="Helvetica,sans-Serif" font-size="10.00">plang::plot::object</text>
<text text-anchor="middle" x="236.5" y="-221" font-family="Helvetica,sans-Serif" font-size="10.00">::clazz::hint::pnt</text>
</a>
</g>
</g>
<!-- Node47&#45;&gt;Node48 -->
<g id="edge12" class="edge">
<title>Node47&#45;&gt;Node48</title>
<path fill="none" stroke="midnightblue" d="M120.18,-184.7C144.45,-194.02 173.42,-205.15 196.25,-213.92"/>
<polygon fill="midnightblue" stroke="midnightblue" points="121.37,-181.41 110.78,-181.09 118.86,-187.94 121.37,-181.41"/>
</g>
<!-- Node49 -->
<g id="node17" class="node">
<title>Node49</title>
<g id="a_node17"><a xlink:href="classplang_1_1plot_1_1object_1_1pnt.html" target="_top" xlink:title=" ">
<polygon fill="none" stroke="black" points="180,-137.5 180,-156.5 293,-156.5 293,-137.5 180,-137.5"/>
<text text-anchor="middle" x="236.5" y="-144.5" font-family="Helvetica,sans-Serif" font-size="10.00">plang::plot::object::pnt</text>
</a>
</g>
</g>
<!-- Node47&#45;&gt;Node49 -->
<g id="edge13" class="edge">
<title>Node47&#45;&gt;Node49</title>
<path fill="none" stroke="midnightblue" d="M142.1,-157.82C154.69,-156.36 167.66,-154.86 179.76,-153.46"/>
<polygon fill="midnightblue" stroke="midnightblue" points="141.63,-154.35 132.1,-158.98 142.44,-161.3 141.63,-154.35"/>
</g>
<!-- Node50 -->
<g id="node18" class="node">
<title>Node50</title>
<g id="a_node18"><a xlink:href="classplang_1_1detail_1_1base__types_1_1persisted.html" target="_top" xlink:title=" ">
<polygon fill="none" stroke="black" points="5,-304 5,-334 136,-334 136,-304 5,-304"/>
<text text-anchor="start" x="13" y="-322" font-family="Helvetica,sans-Serif" font-size="10.00">plang::detail::base</text>
<text text-anchor="middle" x="70.5" y="-311" font-family="Helvetica,sans-Serif" font-size="10.00">_types::persisted&lt; point &gt;</text>
</a>
</g>
</g>
<!-- Node51 -->
<g id="node19" class="node">
<title>Node51</title>
<g id="a_node19"><a xlink:href="classplang_1_1plot_1_1point.html" target="_top" xlink:title=" ">
<polygon fill="none" stroke="black" points="192,-312.5 192,-331.5 281,-331.5 281,-312.5 192,-312.5"/>
<text text-anchor="middle" x="236.5" y="-319.5" font-family="Helvetica,sans-Serif" font-size="10.00">plang::plot::point</text>
</a>
</g>
</g>
<!-- Node50&#45;&gt;Node51 -->
<g id="edge14" class="edge">
<title>Node50&#45;&gt;Node51</title>
<path fill="none" stroke="midnightblue" d="M146.45,-320.37C161.99,-320.66 177.86,-320.95 191.82,-321.2"/>
<polygon fill="midnightblue" stroke="midnightblue" points="146.38,-316.87 136.32,-320.19 146.25,-323.87 146.38,-316.87"/>
</g>
<!-- Node54 -->
<g id="node20" class="node">
<title>Node54</title>
<g id="a_node20"><a xlink:href="classplang_1_1detail_1_1base__types_1_1persisted.html" target="_top" xlink:title=" ">
<polygon fill="none" stroke="black" points="6.5,-39 6.5,-69 134.5,-69 134.5,-39 6.5,-39"/>
<text text-anchor="start" x="14.5" y="-57" font-family="Helvetica,sans-Serif" font-size="10.00">plang::detail::base</text>
<text text-anchor="middle" x="70.5" y="-46" font-family="Helvetica,sans-Serif" font-size="10.00">_types::persisted&lt; sym &gt;</text>
</a>
</g>
</g>
<!-- Node55 -->
<g id="node21" class="node">
<title>Node55</title>
<g id="a_node21"><a xlink:href="classplang_1_1plot_1_1object_1_1clazz_1_1hint_1_1sym.html" target="_top" xlink:title=" ">
<polygon fill="none" stroke="black" points="189.5,-88 189.5,-118 283.5,-118 283.5,-88 189.5,-88"/>
<text text-anchor="start" x="197.5" y="-106" font-family="Helvetica,sans-Serif" font-size="10.00">plang::plot::object</text>
<text text-anchor="middle" x="236.5" y="-95" font-family="Helvetica,sans-Serif" font-size="10.00">::clazz::hint::sym</text>
</a>
</g>
</g>
<!-- Node54&#45;&gt;Node55 -->
<g id="edge15" class="edge">
<title>Node54&#45;&gt;Node55</title>
<path fill="none" stroke="midnightblue" d="M131.8,-72.02C150.79,-77.69 171.46,-83.87 189.31,-89.2"/>
<polygon fill="midnightblue" stroke="midnightblue" points="132.63,-68.61 122.04,-69.1 130.62,-75.32 132.63,-68.61"/>
</g>
<!-- Node56 -->
<g id="node22" class="node">
<title>Node56</title>
<g id="a_node22"><a xlink:href="classplang_1_1plot_1_1object_1_1sym.html" target="_top" xlink:title=" ">
<polygon fill="none" stroke="black" points="177,-0.5 177,-19.5 296,-19.5 296,-0.5 177,-0.5"/>
<text text-anchor="middle" x="236.5" y="-7.5" font-family="Helvetica,sans-Serif" font-size="10.00">plang::plot::object::sym</text>
</a>
</g>
</g>
<!-- Node54&#45;&gt;Node56 -->
<g id="edge16" class="edge">
<title>Node54&#45;&gt;Node56</title>
<path fill="none" stroke="midnightblue" d="M137.17,-36.38C158.55,-30.65 181.47,-24.5 199.8,-19.58"/>
<polygon fill="midnightblue" stroke="midnightblue" points="136.23,-33.01 127.48,-38.98 138.05,-39.77 136.23,-33.01"/>
</g>
<!-- Node57 -->
<g id="node23" class="node">
<title>Node57</title>
<g id="a_node23"><a xlink:href="classplang_1_1plot_1_1point_1_1subject_1_1sym.html" target="_top" xlink:title=" ">
<polygon fill="none" stroke="black" points="192,-39 192,-69 281,-69 281,-39 192,-39"/>
<text text-anchor="start" x="200" y="-57" font-family="Helvetica,sans-Serif" font-size="10.00">plang::plot::point</text>
<text text-anchor="middle" x="236.5" y="-46" font-family="Helvetica,sans-Serif" font-size="10.00">::subject::sym</text>
</a>
</g>
</g>
<!-- Node54&#45;&gt;Node57 -->
<g id="edge17" class="edge">
<title>Node54&#45;&gt;Node57</title>
<path fill="none" stroke="midnightblue" d="M145.22,-54C161.04,-54 177.28,-54 191.55,-54"/>
<polygon fill="midnightblue" stroke="midnightblue" points="144.91,-50.5 134.91,-54 144.91,-57.5 144.91,-50.5"/>
</g>
<!-- Node58 -->
<g id="node24" class="node">
<title>Node58</title>
<g id="a_node24"><a xlink:href="classplang_1_1detail_1_1base__types_1_1persisted.html" target="_top" xlink:title=" ">
<polygon fill="none" stroke="black" points="0,-642 0,-672 141,-672 141,-642 0,-642"/>
<text text-anchor="start" x="8" y="-660" font-family="Helvetica,sans-Serif" font-size="10.00">plang::detail::base</text>
<text text-anchor="middle" x="70.5" y="-649" font-family="Helvetica,sans-Serif" font-size="10.00">_types::persisted&lt; symbol &gt;</text>
</a>
</g>
</g>
<!-- Node58&#45;&gt;Node2 -->
<g id="edge18" class="edge">
<title>Node58&#45;&gt;Node2</title>
<path fill="none" stroke="midnightblue" d="M151.2,-650.68C163.32,-649.72 175.51,-648.76 186.71,-647.87"/>
<polygon fill="midnightblue" stroke="midnightblue" points="150.74,-647.21 141.05,-651.49 151.3,-654.19 150.74,-647.21"/>
</g>
<!-- Node76 -->
<g id="node25" class="node">
<title>Node76</title>
<g id="a_node25"><a xlink:href="classplang_1_1detail_1_1base__types_1_1sourced.html" target="_top" xlink:title="Base type for traceable classes.">
<polygon fill="none" stroke="black" points="22.5,-402 22.5,-432 118.5,-432 118.5,-402 22.5,-402"/>
<text text-anchor="start" x="30.5" y="-420" font-family="Helvetica,sans-Serif" font-size="10.00">plang::detail::base</text>
<text text-anchor="middle" x="70.5" y="-409" font-family="Helvetica,sans-Serif" font-size="10.00">_types::sourced</text>
</a>
</g>
</g>
<!-- Node76&#45;&gt;Node1 -->
<g id="edge19" class="edge">
<title>Node76&#45;&gt;Node1</title>
<path fill="none" stroke="midnightblue" d="M96.07,-439.28C109.9,-452.32 127.13,-469.44 141,-486 159.05,-507.55 155.1,-520.38 177,-538 181.19,-541.37 185.92,-544.33 190.83,-546.91"/>
<polygon fill="midnightblue" stroke="midnightblue" points="98.08,-436.36 88.37,-432.1 93.31,-441.48 98.08,-436.36"/>
</g>
<!-- Node76&#45;&gt;Node2 -->
<g id="edge26" class="edge">
<title>Node76&#45;&gt;Node2</title>
<path fill="none" stroke="midnightblue" d="M99.49,-438.52C113.86,-450.95 130.5,-467.71 141,-486 172.78,-541.34 133.26,-578.53 177,-625 180.66,-628.89 185.12,-631.98 189.93,-634.44"/>
<polygon fill="midnightblue" stroke="midnightblue" points="101.72,-435.82 91.8,-432.09 97.22,-441.19 101.72,-435.82"/>
</g>
<!-- Node76&#45;&gt;Node3 -->
<g id="edge29" class="edge">
<title>Node76&#45;&gt;Node3</title>
<path fill="none" stroke="midnightblue" d="M98.57,-438.66C112.8,-451.22 129.62,-468.08 141,-486 166.54,-526.23 142.83,-553.78 177,-587 181.52,-591.39 187.06,-594.77 192.92,-597.36"/>
<polygon fill="midnightblue" stroke="midnightblue" points="100.84,-435.99 90.97,-432.14 96.28,-441.31 100.84,-435.99"/>
</g>
<!-- Node76&#45;&gt;Node33 -->
<g id="edge24" class="edge">
<title>Node76&#45;&gt;Node33</title>
<path fill="none" stroke="midnightblue" d="M128.59,-433.36C149.33,-439.3 172.42,-445.92 191.82,-451.48"/>
<polygon fill="midnightblue" stroke="midnightblue" points="129.51,-429.98 118.94,-430.59 127.58,-436.71 129.51,-429.98"/>
</g>
<!-- Node76&#45;&gt;Node34 -->
<g id="edge27" class="edge">
<title>Node76&#45;&gt;Node34</title>
<path fill="none" stroke="midnightblue" d="M98.97,-438.11C119.69,-453.44 149.2,-474.03 177,-489 182.9,-492.18 189.3,-495.2 195.64,-497.97"/>
<polygon fill="midnightblue" stroke="midnightblue" points="101.04,-435.29 90.93,-432.1 96.85,-440.89 101.04,-435.29"/>
</g>
<!-- Node76&#45;&gt;Node41 -->
<g id="edge25" class="edge">
<title>Node76&#45;&gt;Node41</title>
<path fill="none" stroke="midnightblue" d="M128.59,-399.25C149.33,-392.8 172.42,-385.62 191.82,-379.58"/>
<polygon fill="midnightblue" stroke="midnightblue" points="127.45,-395.94 118.94,-402.25 129.52,-402.62 127.45,-395.94"/>
</g>
<!-- Node76&#45;&gt;Node42 -->
<g id="edge28" class="edge">
<title>Node76&#45;&gt;Node42</title>
<path fill="none" stroke="midnightblue" d="M129.16,-416.3C147.97,-416.07 168.66,-415.82 186.75,-415.59"/>
<polygon fill="midnightblue" stroke="midnightblue" points="128.89,-412.8 118.94,-416.42 128.98,-419.8 128.89,-412.8"/>
</g>
<!-- Node76&#45;&gt;Node44 -->
<g id="edge20" class="edge">
<title>Node76&#45;&gt;Node44</title>
<path fill="none" stroke="midnightblue" d="M128.06,-402.37C132.76,-399.75 137.17,-396.65 141,-393 172.19,-363.28 146.89,-333.82 177,-303 180.78,-299.13 185.26,-295.82 190.03,-293.01"/>
<polygon fill="midnightblue" stroke="midnightblue" points="126.22,-399.38 118.73,-406.87 129.26,-405.68 126.22,-399.38"/>
</g>
<!-- Node76&#45;&gt;Node48 -->
<g id="edge21" class="edge">
<title>Node76&#45;&gt;Node48</title>
<path fill="none" stroke="midnightblue" d="M127.79,-403.32C132.69,-400.5 137.21,-397.1 141,-393 184.31,-346.13 135.39,-302.39 177,-254 180.46,-249.98 184.67,-246.59 189.24,-243.73"/>
<polygon fill="midnightblue" stroke="midnightblue" points="126.09,-400.26 118.65,-407.8 129.17,-406.54 126.09,-400.26"/>
</g>
<!-- Node76&#45;&gt;Node51 -->
<g id="edge23" class="edge">
<title>Node76&#45;&gt;Node51</title>
<path fill="none" stroke="midnightblue" d="M128.22,-400.87C132.73,-398.57 137.06,-395.96 141,-393 163.18,-376.33 154.79,-358.63 177,-342 182.76,-337.69 189.51,-334.27 196.34,-331.56"/>
<polygon fill="midnightblue" stroke="midnightblue" points="126.41,-397.85 118.76,-405.18 129.31,-404.22 126.41,-397.85"/>
</g>
<!-- Node76&#45;&gt;Node55 -->
<g id="edge22" class="edge">
<title>Node76&#45;&gt;Node55</title>
<path fill="none" stroke="midnightblue" d="M127.89,-404.02C132.85,-401.06 137.36,-397.44 141,-393 216.35,-301.08 104.98,-222.55 177,-128 180.35,-123.61 184.62,-119.98 189.32,-116.98"/>
<polygon fill="midnightblue" stroke="midnightblue" points="125.97,-401.06 118.57,-408.64 129.08,-407.33 125.97,-401.06"/>
</g>
</g>
</svg>
