<?xml version="1.0" encoding="UTF-8" standalone="no"?>
<!DOCTYPE svg PUBLIC "-//W3C//DTD SVG 1.1//EN"
 "http://www.w3.org/Graphics/SVG/1.1/DTD/svg11.dtd">
<!-- Generated by graphviz version 2.44.1 (20220725.2034)
 -->
<!-- Title: Graphical Class Hierarchy Pages: 1 -->
<svg width="231pt" height="78pt"
 viewBox="0.00 0.00 231.00 77.50" xmlns="http://www.w3.org/2000/svg" xmlns:xlink="http://www.w3.org/1999/xlink">
<g id="graph0" class="graph" transform="scale(1 1) rotate(0) translate(4 73.5)">
<title>Graphical Class Hierarchy</title>
<!-- Node85 -->
<g id="node1" class="node">
<title>Node85</title>
<g id="a_node1"><a xlink:title=" ">
<polygon fill="none" stroke="#bfbfbf" points="0,-22.5 0,-41.5 57,-41.5 57,-22.5 0,-22.5"/>
<text text-anchor="middle" x="28.5" y="-29.5" font-family="Helvetica,sans-Serif" font-size="10.00">std::tuple</text>
</a>
</g>
</g>
<!-- Node0 -->
<g id="node2" class="node">
<title>Node0</title>
<g id="a_node2"><a xlink:href="classplang_1_1resolve__entry__result.html" target="_top" xlink:title="Result type of variant&#45;typed resolve methods.">
<polygon fill="none" stroke="black" points="106,-39 106,-69 210,-69 210,-39 106,-39"/>
<text text-anchor="start" x="114" y="-57" font-family="Helvetica,sans-Serif" font-size="10.00">plang::resolve_entry</text>
<text text-anchor="middle" x="158" y="-46" font-family="Helvetica,sans-Serif" font-size="10.00">_result</text>
</a>
</g>
</g>
<!-- Node85&#45;&gt;Node0 -->
<g id="edge1" class="edge">
<title>Node85&#45;&gt;Node0</title>
<path fill="none" stroke="midnightblue" d="M67.32,-38.53C79.37,-40.6 92.91,-42.94 105.75,-45.16"/>
<polygon fill="midnightblue" stroke="midnightblue" points="67.62,-35.03 57.17,-36.77 66.42,-41.92 67.62,-35.03"/>
</g>
<!-- Node87 -->
<g id="node3" class="node">
<title>Node87</title>
<g id="a_node3"><a xlink:href="classplang_1_1resolve__result.html" target="_top" xlink:title="Result type of direct resolve methods.">
<polygon fill="none" stroke="black" points="93,-0.5 93,-19.5 223,-19.5 223,-0.5 93,-0.5"/>
<text text-anchor="middle" x="158" y="-7.5" font-family="Helvetica,sans-Serif" font-size="10.00">plang::resolve_result&lt; T &gt;</text>
</a>
</g>
</g>
<!-- Node85&#45;&gt;Node87 -->
<g id="edge2" class="edge">
<title>Node85&#45;&gt;Node87</title>
<path fill="none" stroke="midnightblue" d="M67.17,-25.5C78.06,-23.62 90.16,-21.53 101.88,-19.51"/>
<polygon fill="midnightblue" stroke="midnightblue" points="66.42,-22.08 57.17,-27.23 67.62,-28.97 66.42,-22.08"/>
</g>
</g>
</svg>
