<?xml version="1.0" encoding="UTF-8" standalone="no"?>
<!DOCTYPE svg PUBLIC "-//W3C//DTD SVG 1.1//EN"
 "http://www.w3.org/Graphics/SVG/1.1/DTD/svg11.dtd">
<!-- Generated by graphviz version 2.44.1 (20220725.2034)
 -->
<!-- Title: Graphical Class Hierarchy Pages: 1 -->
<svg width="798pt" height="193pt"
 viewBox="0.00 0.00 798.00 192.50" xmlns="http://www.w3.org/2000/svg" xmlns:xlink="http://www.w3.org/1999/xlink">
<g id="graph0" class="graph" transform="scale(1 1) rotate(0) translate(4 188.5)">
<title>Graphical Class Hierarchy</title>
<!-- Node0 -->
<g id="node1" class="node">
<title>Node0</title>
<g id="a_node1"><a xlink:href="classplang_1_1detail_1_1corpus.html" target="_top" xlink:title="Provides a basic interface to a database.">
<polygon fill="none" stroke="black" points="0,-77 0,-96 104,-96 104,-77 0,-77"/>
<text text-anchor="middle" x="52" y="-84" font-family="Helvetica,sans-Serif" font-size="10.00">plang::detail::corpus</text>
</a>
</g>
</g>
<!-- Node1 -->
<g id="node2" class="node">
<title>Node1</title>
<g id="a_node2"><a xlink:href="classplang_1_1corpus.html" target="_top" xlink:title="The main interface for interacting with a corpus.">
<polygon fill="none" stroke="black" points="715,-115 715,-134 790,-134 790,-115 715,-115"/>
<text text-anchor="middle" x="752.5" y="-122" font-family="Helvetica,sans-Serif" font-size="10.00">plang::corpus</text>
</a>
</g>
</g>
<!-- Node0&#45;&gt;Node1 -->
<g id="edge1" class="edge">
<title>Node0&#45;&gt;Node1</title>
<path fill="none" stroke="midnightblue" d="M77.26,-101.13C124.95,-128.46 235,-184.5 335.5,-184.5 335.5,-184.5 335.5,-184.5 483.5,-184.5 574.81,-184.5 679.48,-150.93 726.42,-134.01"/>
<polygon fill="midnightblue" stroke="midnightblue" points="78.98,-98.08 68.58,-96.08 75.46,-104.13 78.98,-98.08"/>
</g>
<!-- Node2 -->
<g id="node3" class="node">
<title>Node2</title>
<g id="a_node3"><a xlink:href="classplang_1_1detail_1_1path__manager.html" target="_top" xlink:title="Handles database actions for paths.">
<polygon fill="none" stroke="black" points="146.5,-49.5 146.5,-79.5 240.5,-79.5 240.5,-49.5 146.5,-49.5"/>
<text text-anchor="start" x="154.5" y="-67.5" font-family="Helvetica,sans-Serif" font-size="10.00">plang::detail::path</text>
<text text-anchor="middle" x="193.5" y="-56.5" font-family="Helvetica,sans-Serif" font-size="10.00">_manager</text>
</a>
</g>
</g>
<!-- Node0&#45;&gt;Node2 -->
<g id="edge2" class="edge">
<title>Node0&#45;&gt;Node2</title>
<path fill="none" stroke="darkgreen" d="M114.36,-76.82C125.13,-75.12 136.17,-73.38 146.43,-71.77"/>
<polygon fill="darkgreen" stroke="darkgreen" points="113.49,-73.42 104.15,-78.43 114.58,-80.33 113.49,-73.42"/>
</g>
<!-- Node6 -->
<g id="node7" class="node">
<title>Node6</title>
<g id="a_node7"><a xlink:href="classplang_1_1detail_1_1symbol__class__manager.html" target="_top" xlink:title=" ">
<polygon fill="none" stroke="black" points="283,-49.5 283,-79.5 390,-79.5 390,-49.5 283,-49.5"/>
<text text-anchor="start" x="291" y="-67.5" font-family="Helvetica,sans-Serif" font-size="10.00">plang::detail::symbol</text>
<text text-anchor="middle" x="336.5" y="-56.5" font-family="Helvetica,sans-Serif" font-size="10.00">_class_manager</text>
</a>
</g>
</g>
<!-- Node0&#45;&gt;Node6 -->
<g id="edge10" class="edge">
<title>Node0&#45;&gt;Node6</title>
<path fill="none" stroke="darkgreen" d="M114.78,-92.24C153.04,-94.62 203.08,-95.58 247,-89.5 261.71,-87.46 277.41,-83.61 291.44,-79.52"/>
<polygon fill="darkgreen" stroke="darkgreen" points="114.53,-88.72 104.32,-91.54 114.06,-95.7 114.53,-88.72"/>
</g>
<!-- Node7 -->
<g id="node8" class="node">
<title>Node7</title>
<g id="a_node8"><a xlink:href="classplang_1_1detail_1_1symbol__manager.html" target="_top" xlink:title=" ">
<polygon fill="none" stroke="black" points="140,-0.5 140,-30.5 247,-30.5 247,-0.5 140,-0.5"/>
<text text-anchor="start" x="148" y="-18.5" font-family="Helvetica,sans-Serif" font-size="10.00">plang::detail::symbol</text>
<text text-anchor="middle" x="193.5" y="-7.5" font-family="Helvetica,sans-Serif" font-size="10.00">_manager</text>
</a>
</g>
</g>
<!-- Node0&#45;&gt;Node7 -->
<g id="edge11" class="edge">
<title>Node0&#45;&gt;Node7</title>
<path fill="none" stroke="darkgreen" d="M79.44,-72.15C96.61,-62.92 119.52,-50.79 140,-40.5 146.5,-37.24 153.49,-33.83 160.19,-30.62"/>
<polygon fill="darkgreen" stroke="darkgreen" points="77.69,-69.12 70.55,-76.94 81.01,-75.28 77.69,-69.12"/>
</g>
<!-- Node3 -->
<g id="node4" class="node">
<title>Node3</title>
<g id="a_node4"><a xlink:href="structplang_1_1detail_1_1mixin__base.html" target="_top" xlink:title=" ">
<polygon fill="none" stroke="black" points="426,-33 426,-96 539,-96 539,-33 426,-33"/>
<text text-anchor="start" x="434" y="-84" font-family="Helvetica,sans-Serif" font-size="10.00">plang::detail::mixin</text>
<text text-anchor="start" x="434" y="-73" font-family="Helvetica,sans-Serif" font-size="10.00">_base&lt; plang::detail</text>
<text text-anchor="start" x="434" y="-62" font-family="Helvetica,sans-Serif" font-size="10.00">::path_manager, plang</text>
<text text-anchor="start" x="434" y="-51" font-family="Helvetica,sans-Serif" font-size="10.00">::detail::symbol_class</text>
<text text-anchor="middle" x="482.5" y="-40" font-family="Helvetica,sans-Serif" font-size="10.00">_manager &gt;</text>
</a>
</g>
</g>
<!-- Node2&#45;&gt;Node3 -->
<g id="edge3" class="edge">
<title>Node2&#45;&gt;Node3</title>
<path fill="none" stroke="midnightblue" d="M250.85,-46.84C261.43,-44.2 272.48,-41.9 283,-40.5 330.14,-34.22 342.84,-34.42 390,-40.5 401.73,-42.01 414.1,-44.57 425.82,-47.47"/>
<polygon fill="midnightblue" stroke="midnightblue" points="249.66,-43.53 240.88,-49.45 251.44,-50.3 249.66,-43.53"/>
</g>
<!-- Node5 -->
<g id="node6" class="node">
<title>Node5</title>
<g id="a_node6"><a xlink:href="structplang_1_1detail_1_1mixin__base.html" target="_top" xlink:title="Common derived class template for distributed overloading.">
<polygon fill="none" stroke="black" points="433.5,-115.5 433.5,-145.5 531.5,-145.5 531.5,-115.5 433.5,-115.5"/>
<text text-anchor="start" x="441.5" y="-133.5" font-family="Helvetica,sans-Serif" font-size="10.00">plang::detail::mixin</text>
<text text-anchor="middle" x="482.5" y="-122.5" font-family="Helvetica,sans-Serif" font-size="10.00">_base&lt; Tps &gt;</text>
</a>
</g>
</g>
<!-- Node2&#45;&gt;Node5 -->
<g id="edge6" class="edge">
<title>Node2&#45;&gt;Node5</title>
<path fill="none" stroke="midnightblue" d="M217.06,-86.49C233.77,-101.18 257.9,-119.27 283,-127.5 332.29,-143.66 392.23,-141.86 433.26,-137.63"/>
<polygon fill="midnightblue" stroke="midnightblue" points="219.24,-83.74 209.49,-79.61 214.54,-88.92 219.24,-83.74"/>
</g>
<!-- Node2&#45;&gt;Node6 -->
<g id="edge7" class="edge">
<title>Node2&#45;&gt;Node6</title>
<path fill="none" stroke="#8b1a1a" d="M250.68,-64.5C261.3,-64.5 272.37,-64.5 282.87,-64.5"/>
<polygon fill="#8b1a1a" stroke="#8b1a1a" points="250.67,-61 240.67,-64.5 250.67,-68 250.67,-61"/>
</g>
<!-- Node4 -->
<g id="node5" class="node">
<title>Node4</title>
<g id="a_node5"><a xlink:href="structplang_1_1detail_1_1corpus__mixins.html" target="_top" xlink:title="Base class for the corpus.">
<polygon fill="none" stroke="black" points="575,-87.5 575,-117.5 679,-117.5 679,-87.5 575,-87.5"/>
<text text-anchor="start" x="583" y="-105.5" font-family="Helvetica,sans-Serif" font-size="10.00">plang::detail::corpus</text>
<text text-anchor="middle" x="627" y="-94.5" font-family="Helvetica,sans-Serif" font-size="10.00">_mixins</text>
</a>
</g>
</g>
<!-- Node3&#45;&gt;Node4 -->
<g id="edge4" class="edge">
<title>Node3&#45;&gt;Node4</title>
<path fill="none" stroke="midnightblue" d="M548.72,-81.89C557.41,-84.21 566.21,-86.56 574.61,-88.8"/>
<polygon fill="midnightblue" stroke="midnightblue" points="549.57,-78.5 539,-79.3 547.76,-85.26 549.57,-78.5"/>
</g>
<!-- Node4&#45;&gt;Node1 -->
<g id="edge5" class="edge">
<title>Node4&#45;&gt;Node1</title>
<path fill="none" stroke="midnightblue" d="M689.17,-113.4C697.95,-114.96 706.74,-116.53 714.85,-117.97"/>
<polygon fill="midnightblue" stroke="midnightblue" points="689.76,-109.95 679.3,-111.64 688.53,-116.84 689.76,-109.95"/>
</g>
<!-- Node6&#45;&gt;Node3 -->
<g id="edge8" class="edge">
<title>Node6&#45;&gt;Node3</title>
<path fill="none" stroke="midnightblue" d="M400.47,-64.5C408.9,-64.5 417.5,-64.5 425.8,-64.5"/>
<polygon fill="midnightblue" stroke="midnightblue" points="400.3,-61 390.3,-64.5 400.3,-68 400.3,-61"/>
</g>
<!-- Node6&#45;&gt;Node5 -->
<g id="edge9" class="edge">
<title>Node6&#45;&gt;Node5</title>
<path fill="none" stroke="midnightblue" d="M379.21,-83.93C393.98,-90.78 410.71,-98.52 426,-105.5 433.11,-108.75 440.75,-112.21 448.02,-115.49"/>
<polygon fill="midnightblue" stroke="midnightblue" points="380.37,-80.61 369.83,-79.58 377.42,-86.96 380.37,-80.61"/>
</g>
<!-- Node69 -->
<g id="node9" class="node">
<title>Node69</title>
<g id="a_node9"><a xlink:title=" ">
<polygon fill="none" stroke="#bfbfbf" points="320,-99 320,-118 353,-118 353,-99 320,-99"/>
<text text-anchor="middle" x="336.5" y="-106" font-family="Helvetica,sans-Serif" font-size="10.00">Tps</text>
</a>
</g>
</g>
<!-- Node69&#45;&gt;Node3 -->
<g id="edge12" class="edge">
<title>Node69&#45;&gt;Node3</title>
<path fill="none" stroke="midnightblue" d="M363.13,-100.67C380.53,-95.35 404.21,-88.12 425.82,-81.51"/>
<polygon fill="midnightblue" stroke="midnightblue" points="361.73,-97.44 353.18,-103.71 363.77,-104.13 361.73,-97.44"/>
</g>
<!-- Node69&#45;&gt;Node5 -->
<g id="edge13" class="edge">
<title>Node69&#45;&gt;Node5</title>
<path fill="none" stroke="midnightblue" d="M363.09,-112.41C382.51,-115.38 409.78,-119.54 433.26,-123.13"/>
<polygon fill="midnightblue" stroke="midnightblue" points="363.6,-108.95 353.18,-110.9 362.54,-115.87 363.6,-108.95"/>
</g>
</g>
</svg>
