<?xml version="1.0" encoding="UTF-8" standalone="no"?>
<!DOCTYPE svg PUBLIC "-//W3C//DTD SVG 1.1//EN"
 "http://www.w3.org/Graphics/SVG/1.1/DTD/svg11.dtd">
<!-- Generated by graphviz version 2.44.1 (20220725.2034)
 -->
<!-- Title: Graphical Class Hierarchy Pages: 1 -->
<svg width="284pt" height="322pt"
 viewBox="0.00 0.00 284.00 322.00" xmlns="http://www.w3.org/2000/svg" xmlns:xlink="http://www.w3.org/1999/xlink">
<g id="graph0" class="graph" transform="scale(1 1) rotate(0) translate(4 318)">
<title>Graphical Class Hierarchy</title>
<!-- Node0 -->
<g id="node1" class="node">
<title>Node0</title>
<g id="a_node1"><a xlink:href="classplang_1_1detail_1_1base__types_1_1decorated.html" target="_top" xlink:title="Base type for decorated classes.">
<polygon fill="none" stroke="black" points="22.5,-196.5 22.5,-226.5 118.5,-226.5 118.5,-196.5 22.5,-196.5"/>
<text text-anchor="start" x="30.5" y="-214.5" font-family="Helvetica,sans-Serif" font-size="10.00">plang::detail::base</text>
<text text-anchor="middle" x="70.5" y="-203.5" font-family="Helvetica,sans-Serif" font-size="10.00">_types::decorated</text>
</a>
</g>
</g>
<!-- Node1 -->
<g id="node2" class="node">
<title>Node1</title>
<g id="a_node2"><a xlink:href="classplang_1_1plot_1_1object_1_1clazz.html" target="_top" xlink:title=" ">
<polygon fill="none" stroke="black" points="179.5,-234.5 179.5,-264.5 273.5,-264.5 273.5,-234.5 179.5,-234.5"/>
<text text-anchor="start" x="187.5" y="-252.5" font-family="Helvetica,sans-Serif" font-size="10.00">plang::plot::object</text>
<text text-anchor="middle" x="226.5" y="-241.5" font-family="Helvetica,sans-Serif" font-size="10.00">::clazz</text>
</a>
</g>
</g>
<!-- Node0&#45;&gt;Node1 -->
<g id="edge1" class="edge">
<title>Node0&#45;&gt;Node1</title>
<path fill="none" stroke="midnightblue" d="M128.72,-225.62C145.38,-229.73 163.38,-234.17 179.28,-238.09"/>
<polygon fill="midnightblue" stroke="midnightblue" points="129.09,-222.11 118.54,-223.11 127.41,-228.9 129.09,-222.11"/>
</g>
<!-- Node2 -->
<g id="node3" class="node">
<title>Node2</title>
<g id="a_node3"><a xlink:href="classplang_1_1plot_1_1symbol.html" target="_top" xlink:title=" ">
<polygon fill="none" stroke="black" points="177,-147 177,-166 276,-166 276,-147 177,-147"/>
<text text-anchor="middle" x="226.5" y="-154" font-family="Helvetica,sans-Serif" font-size="10.00">plang::plot::symbol</text>
</a>
</g>
</g>
<!-- Node0&#45;&gt;Node2 -->
<g id="edge2" class="edge">
<title>Node0&#45;&gt;Node2</title>
<path fill="none" stroke="midnightblue" d="M125.23,-193.06C130.56,-191.2 135.89,-189.32 141,-187.5 160.73,-180.48 182.95,-172.31 199.66,-166.13"/>
<polygon fill="midnightblue" stroke="midnightblue" points="123.96,-189.8 115.66,-196.39 126.26,-196.41 123.96,-189.8"/>
</g>
<!-- Node3 -->
<g id="node4" class="node">
<title>Node3</title>
<g id="a_node4"><a xlink:href="classplang_1_1root_1_1path.html" target="_top" xlink:title="A node in the corpus&#39; path tree.">
<polygon fill="none" stroke="black" points="183,-104 183,-123 270,-123 270,-104 183,-104"/>
<text text-anchor="middle" x="226.5" y="-111" font-family="Helvetica,sans-Serif" font-size="10.00">plang::root::path</text>
</a>
</g>
</g>
<!-- Node0&#45;&gt;Node3 -->
<g id="edge3" class="edge">
<title>Node0&#45;&gt;Node3</title>
<path fill="none" stroke="midnightblue" d="M128.19,-195.33C132.71,-193.04 137.05,-190.44 141,-187.5 162.97,-171.15 156.11,-155.21 177,-137.5 183.88,-131.67 192.42,-126.84 200.41,-123.07"/>
<polygon fill="midnightblue" stroke="midnightblue" points="126.38,-192.31 118.72,-199.63 129.27,-198.69 126.38,-192.31"/>
</g>
<!-- Node30 -->
<g id="node5" class="node">
<title>Node30</title>
<g id="a_node5"><a xlink:href="classplang_1_1detail_1_1base__types_1_1persisted.html" target="_top" xlink:title=" ">
<polygon fill="none" stroke="black" points="4,-245.5 4,-275.5 137,-275.5 137,-245.5 4,-245.5"/>
<text text-anchor="start" x="12" y="-263.5" font-family="Helvetica,sans-Serif" font-size="10.00">plang::detail::base</text>
<text text-anchor="middle" x="70.5" y="-252.5" font-family="Helvetica,sans-Serif" font-size="10.00">_types::persisted&lt; clazz &gt;</text>
</a>
</g>
</g>
<!-- Node30&#45;&gt;Node1 -->
<g id="edge4" class="edge">
<title>Node30&#45;&gt;Node1</title>
<path fill="none" stroke="midnightblue" d="M147.54,-255.07C158.29,-254.3 169.08,-253.53 179.04,-252.82"/>
<polygon fill="midnightblue" stroke="midnightblue" points="146.98,-251.6 137.26,-255.8 147.48,-258.58 146.98,-251.6"/>
</g>
<!-- Node31 -->
<g id="node6" class="node">
<title>Node31</title>
<g id="a_node6"><a xlink:href="classplang_1_1plot_1_1point_1_1clazz.html" target="_top" xlink:title=" ">
<polygon fill="none" stroke="black" points="182,-283.5 182,-313.5 271,-313.5 271,-283.5 182,-283.5"/>
<text text-anchor="start" x="190" y="-301.5" font-family="Helvetica,sans-Serif" font-size="10.00">plang::plot::point</text>
<text text-anchor="middle" x="226.5" y="-290.5" font-family="Helvetica,sans-Serif" font-size="10.00">::clazz</text>
</a>
</g>
</g>
<!-- Node30&#45;&gt;Node31 -->
<g id="edge5" class="edge">
<title>Node30&#45;&gt;Node31</title>
<path fill="none" stroke="midnightblue" d="M142.11,-277.92C155.6,-281.25 169.35,-284.64 181.69,-287.69"/>
<polygon fill="midnightblue" stroke="midnightblue" points="142.91,-274.52 132.36,-275.52 141.24,-281.31 142.91,-274.52"/>
</g>
<!-- Node32 -->
<g id="node7" class="node">
<title>Node32</title>
<g id="a_node7"><a xlink:href="classplang_1_1plot_1_1symbol_1_1clazz.html" target="_top" xlink:title=" ">
<polygon fill="none" stroke="black" points="177,-185.5 177,-215.5 276,-215.5 276,-185.5 177,-185.5"/>
<text text-anchor="start" x="185" y="-203.5" font-family="Helvetica,sans-Serif" font-size="10.00">plang::plot::symbol</text>
<text text-anchor="middle" x="226.5" y="-192.5" font-family="Helvetica,sans-Serif" font-size="10.00">::clazz</text>
</a>
</g>
</g>
<!-- Node30&#45;&gt;Node32 -->
<g id="edge6" class="edge">
<title>Node30&#45;&gt;Node32</title>
<path fill="none" stroke="midnightblue" d="M126.18,-242.02C131.21,-240.2 136.21,-238.35 141,-236.5 157.82,-230.02 176.25,-222.25 191.6,-215.59"/>
<polygon fill="midnightblue" stroke="midnightblue" points="124.77,-238.81 116.53,-245.47 127.13,-245.4 124.77,-238.81"/>
</g>
<!-- Node38 -->
<g id="node8" class="node">
<title>Node38</title>
<g id="a_node8"><a xlink:href="classplang_1_1detail_1_1base__types_1_1persisted.html" target="_top" xlink:title=" ">
<polygon fill="none" stroke="black" points="8,-0.5 8,-30.5 133,-30.5 133,-0.5 8,-0.5"/>
<text text-anchor="start" x="16" y="-18.5" font-family="Helvetica,sans-Serif" font-size="10.00">plang::detail::base</text>
<text text-anchor="middle" x="70.5" y="-7.5" font-family="Helvetica,sans-Serif" font-size="10.00">_types::persisted&lt; hint &gt;</text>
</a>
</g>
</g>
<!-- Node39 -->
<g id="node9" class="node">
<title>Node39</title>
<g id="a_node9"><a xlink:href="classplang_1_1plot_1_1point_1_1clazz_1_1hint.html" target="_top" xlink:title=" ">
<polygon fill="none" stroke="black" points="182,-0.5 182,-30.5 271,-30.5 271,-0.5 182,-0.5"/>
<text text-anchor="start" x="190" y="-18.5" font-family="Helvetica,sans-Serif" font-size="10.00">plang::plot::point</text>
<text text-anchor="middle" x="226.5" y="-7.5" font-family="Helvetica,sans-Serif" font-size="10.00">::clazz::hint</text>
</a>
</g>
</g>
<!-- Node38&#45;&gt;Node39 -->
<g id="edge7" class="edge">
<title>Node38&#45;&gt;Node39</title>
<path fill="none" stroke="midnightblue" d="M143.62,-15.5C156.64,-15.5 169.84,-15.5 181.73,-15.5"/>
<polygon fill="midnightblue" stroke="midnightblue" points="143.25,-12 133.25,-15.5 143.25,-19 143.25,-12"/>
</g>
<!-- Node40 -->
<g id="node10" class="node">
<title>Node40</title>
<g id="a_node10"><a xlink:href="classplang_1_1plot_1_1symbol_1_1clazz_1_1hint.html" target="_top" xlink:title=" ">
<polygon fill="none" stroke="black" points="177,-52.5 177,-82.5 276,-82.5 276,-52.5 177,-52.5"/>
<text text-anchor="start" x="185" y="-70.5" font-family="Helvetica,sans-Serif" font-size="10.00">plang::plot::symbol</text>
<text text-anchor="middle" x="226.5" y="-59.5" font-family="Helvetica,sans-Serif" font-size="10.00">::clazz::hint</text>
</a>
</g>
</g>
<!-- Node38&#45;&gt;Node40 -->
<g id="edge8" class="edge">
<title>Node38&#45;&gt;Node40</title>
<path fill="none" stroke="midnightblue" d="M125.61,-33.77C143.75,-39.9 163.75,-46.65 181.06,-52.49"/>
<polygon fill="midnightblue" stroke="midnightblue" points="126.64,-30.42 116.04,-30.54 124.4,-37.06 126.64,-30.42"/>
</g>
<!-- Node44 -->
<g id="node11" class="node">
<title>Node44</title>
<g id="a_node11"><a xlink:href="classplang_1_1detail_1_1base__types_1_1persisted.html" target="_top" xlink:title=" ">
<polygon fill="none" stroke="black" points="6.5,-49.5 6.5,-79.5 134.5,-79.5 134.5,-49.5 6.5,-49.5"/>
<text text-anchor="start" x="14.5" y="-67.5" font-family="Helvetica,sans-Serif" font-size="10.00">plang::detail::base</text>
<text text-anchor="middle" x="70.5" y="-56.5" font-family="Helvetica,sans-Serif" font-size="10.00">_types::persisted&lt; path &gt;</text>
</a>
</g>
</g>
<!-- Node44&#45;&gt;Node3 -->
<g id="edge9" class="edge">
<title>Node44&#45;&gt;Node3</title>
<path fill="none" stroke="midnightblue" d="M128.51,-82.64C151.21,-89.86 176.39,-97.87 195.41,-103.92"/>
<polygon fill="midnightblue" stroke="midnightblue" points="129.55,-79.3 118.96,-79.6 127.43,-85.97 129.55,-79.3"/>
</g>
<!-- Node56 -->
<g id="node12" class="node">
<title>Node56</title>
<g id="a_node12"><a xlink:href="classplang_1_1detail_1_1base__types_1_1persisted.html" target="_top" xlink:title=" ">
<polygon fill="none" stroke="black" points="0,-147.5 0,-177.5 141,-177.5 141,-147.5 0,-147.5"/>
<text text-anchor="start" x="8" y="-165.5" font-family="Helvetica,sans-Serif" font-size="10.00">plang::detail::base</text>
<text text-anchor="middle" x="70.5" y="-154.5" font-family="Helvetica,sans-Serif" font-size="10.00">_types::persisted&lt; symbol &gt;</text>
</a>
</g>
</g>
<!-- Node56&#45;&gt;Node2 -->
<g id="edge10" class="edge">
<title>Node56&#45;&gt;Node2</title>
<path fill="none" stroke="midnightblue" d="M151.39,-159.39C160,-159.05 168.56,-158.72 176.64,-158.4"/>
<polygon fill="midnightblue" stroke="midnightblue" points="151.15,-155.89 141.29,-159.78 151.42,-162.89 151.15,-155.89"/>
</g>
<!-- Node74 -->
<g id="node13" class="node">
<title>Node74</title>
<g id="a_node13"><a xlink:href="classplang_1_1detail_1_1base__types_1_1sourced.html" target="_top" xlink:title="Base type for traceable classes.">
<polygon fill="none" stroke="black" points="22.5,-98.5 22.5,-128.5 118.5,-128.5 118.5,-98.5 22.5,-98.5"/>
<text text-anchor="start" x="30.5" y="-116.5" font-family="Helvetica,sans-Serif" font-size="10.00">plang::detail::base</text>
<text text-anchor="middle" x="70.5" y="-105.5" font-family="Helvetica,sans-Serif" font-size="10.00">_types::sourced</text>
</a>
</g>
</g>
<!-- Node74&#45;&gt;Node2 -->
<g id="edge11" class="edge">
<title>Node74&#45;&gt;Node2</title>
<path fill="none" stroke="midnightblue" d="M128.41,-129.39C149.59,-135.3 172.95,-141.83 191.45,-146.99"/>
<polygon fill="midnightblue" stroke="midnightblue" points="129.11,-125.95 118.54,-126.64 127.23,-132.7 129.11,-125.95"/>
</g>
<!-- Node74&#45;&gt;Node3 -->
<g id="edge14" class="edge">
<title>Node74&#45;&gt;Node3</title>
<path fill="none" stroke="midnightblue" d="M128.63,-113.5C146.61,-113.5 166.15,-113.5 182.93,-113.5"/>
<polygon fill="midnightblue" stroke="midnightblue" points="128.54,-110 118.54,-113.5 128.54,-117 128.54,-110"/>
</g>
<!-- Node74&#45;&gt;Node32 -->
<g id="edge12" class="edge">
<title>Node74&#45;&gt;Node32</title>
<path fill="none" stroke="midnightblue" d="M128.16,-131.37C132.63,-133.53 136.97,-135.9 141,-138.5 160.29,-150.92 158.56,-161.84 177,-175.5 181.87,-179.11 187.34,-182.48 192.8,-185.5"/>
<polygon fill="midnightblue" stroke="midnightblue" points="129.42,-128.1 118.86,-127.24 126.58,-134.5 129.42,-128.1"/>
</g>
<!-- Node74&#45;&gt;Node40 -->
<g id="edge13" class="edge">
<title>Node74&#45;&gt;Node40</title>
<path fill="none" stroke="midnightblue" d="M128.29,-96.54C144.25,-91.77 161.45,-86.63 176.88,-82.02"/>
<polygon fill="midnightblue" stroke="midnightblue" points="127.12,-93.23 118.54,-99.45 129.13,-99.94 127.12,-93.23"/>
</g>
</g>
</svg>
