<?xml version="1.0" encoding="UTF-8" standalone="no"?>
<!DOCTYPE svg PUBLIC "-//W3C//DTD SVG 1.1//EN"
 "http://www.w3.org/Graphics/SVG/1.1/DTD/svg11.dtd">
<!-- Generated by graphviz version 2.44.1 (20220725.2034)
 -->
<!-- Title: Graphical Class Hierarchy Pages: 1 -->
<svg width="273pt" height="88pt"
 viewBox="0.00 0.00 273.00 88.00" xmlns="http://www.w3.org/2000/svg" xmlns:xlink="http://www.w3.org/1999/xlink">
<g id="graph0" class="graph" transform="scale(1 1) rotate(0) translate(4 84)">
<title>Graphical Class Hierarchy</title>
<!-- Node29 -->
<g id="node1" class="node">
<title>Node29</title>
<g id="a_node1"><a xlink:title=" ">
<polygon fill="none" stroke="#bfbfbf" points="0,-30 0,-49 110,-49 110,-30 0,-30"/>
<text text-anchor="middle" x="55" y="-37" font-family="Helvetica,sans-Serif" font-size="10.00">std::integral_constant</text>
</a>
</g>
</g>
<!-- Node0 -->
<g id="node2" class="node">
<title>Node0</title>
<g id="a_node2"><a xlink:href="structstd_1_1tuple__size_3_01plang_1_1resolve__entry__result_01_4.html" target="_top" xlink:title=" ">
<polygon fill="none" stroke="black" points="146,-49.5 146,-79.5 265,-79.5 265,-49.5 146,-49.5"/>
<text text-anchor="start" x="154" y="-67.5" font-family="Helvetica,sans-Serif" font-size="10.00">std::tuple_size&lt; plang</text>
<text text-anchor="middle" x="205.5" y="-56.5" font-family="Helvetica,sans-Serif" font-size="10.00">::resolve_entry_result &gt;</text>
</a>
</g>
</g>
<!-- Node29&#45;&gt;Node0 -->
<g id="edge1" class="edge">
<title>Node29&#45;&gt;Node0</title>
<path fill="none" stroke="midnightblue" d="M120.04,-50.28C128.67,-51.73 137.48,-53.22 146,-54.65"/>
<polygon fill="midnightblue" stroke="midnightblue" points="120.47,-46.81 110.03,-48.6 119.31,-53.71 120.47,-46.81"/>
</g>
<!-- Node31 -->
<g id="node3" class="node">
<title>Node31</title>
<g id="a_node3"><a xlink:href="structstd_1_1tuple__size_3_01plang_1_1resolve__result_3_01_t_01_4_01_4.html" target="_top" xlink:title=" ">
<polygon fill="none" stroke="black" points="147.5,-0.5 147.5,-30.5 263.5,-30.5 263.5,-0.5 147.5,-0.5"/>
<text text-anchor="start" x="155.5" y="-18.5" font-family="Helvetica,sans-Serif" font-size="10.00">std::tuple_size&lt; plang</text>
<text text-anchor="middle" x="205.5" y="-7.5" font-family="Helvetica,sans-Serif" font-size="10.00">::resolve_result&lt; T &gt; &gt;</text>
</a>
</g>
</g>
<!-- Node29&#45;&gt;Node31 -->
<g id="edge2" class="edge">
<title>Node29&#45;&gt;Node31</title>
<path fill="none" stroke="midnightblue" d="M120.11,-29.14C129.14,-27.68 138.37,-26.19 147.26,-24.75"/>
<polygon fill="midnightblue" stroke="midnightblue" points="119.35,-25.72 110.03,-30.77 120.46,-32.63 119.35,-25.72"/>
</g>
</g>
</svg>
