<?xml version="1.0" encoding="UTF-8" standalone="no"?>
<!DOCTYPE svg PUBLIC "-//W3C//DTD SVG 1.1//EN"
 "http://www.w3.org/Graphics/SVG/1.1/DTD/svg11.dtd">
<!-- Generated by graphviz version 2.44.1 (20220725.2034)
 -->
<!-- Title: include/plang/lang.hpp Pages: 1 -->
<svg width="332pt" height="542pt"
 viewBox="0.00 0.00 332.00 542.00" xmlns="http://www.w3.org/2000/svg" xmlns:xlink="http://www.w3.org/1999/xlink">
<g id="graph0" class="graph" transform="scale(1 1) rotate(0) translate(4 538)">
<title>include/plang/lang.hpp</title>
<!-- Node1 -->
<g id="node1" class="node">
<title>Node1</title>
<g id="a_node1"><a xlink:title=" ">
<polygon fill="#bfbfbf" stroke="black" points="43.5,-514.5 43.5,-533.5 156.5,-533.5 156.5,-514.5 43.5,-514.5"/>
<text text-anchor="middle" x="100" y="-521.5" font-family="Helvetica,sans-Serif" font-size="10.00">include/plang/lang.hpp</text>
</a>
</g>
</g>
<!-- Node2 -->
<g id="node2" class="node">
<title>Node2</title>
<g id="a_node2"><a xlink:href="detail_8hpp.html" target="_top" xlink:title=" ">
<polygon fill="none" stroke="black" points="47,-447.5 47,-477.5 153,-477.5 153,-447.5 47,-447.5"/>
<text text-anchor="start" x="55" y="-465.5" font-family="Helvetica,sans-Serif" font-size="10.00">include/plang/corpus</text>
<text text-anchor="middle" x="100" y="-454.5" font-family="Helvetica,sans-Serif" font-size="10.00">/detail.hpp</text>
</a>
</g>
</g>
<!-- Node1&#45;&gt;Node2 -->
<g id="edge1" class="edge">
<title>Node1&#45;&gt;Node2</title>
<path fill="none" stroke="midnightblue" d="M100,-504.23C100,-495.59 100,-485.5 100,-477.52"/>
<polygon fill="midnightblue" stroke="midnightblue" points="96.5,-504.48 100,-514.48 103.5,-504.48 96.5,-504.48"/>
</g>
<!-- Node3 -->
<g id="node3" class="node">
<title>Node3</title>
<g id="a_node3"><a xlink:href="corpus_8hpp.html" target="_top" xlink:title=" ">
<polygon fill="none" stroke="black" points="99.5,-56.5 99.5,-75.5 224.5,-75.5 224.5,-56.5 99.5,-56.5"/>
<text text-anchor="middle" x="162" y="-63.5" font-family="Helvetica,sans-Serif" font-size="10.00">include/plang/corpus.hpp</text>
</a>
</g>
</g>
<!-- Node2&#45;&gt;Node3 -->
<g id="edge2" class="edge">
<title>Node2&#45;&gt;Node3</title>
<path fill="none" stroke="midnightblue" d="M70.82,-441.1C41.31,-417.83 0,-376.8 0,-329.5 0,-329.5 0,-329.5 0,-193.5 0,-127.48 84.6,-90.82 131.53,-75.56"/>
<polygon fill="midnightblue" stroke="midnightblue" points="68.72,-443.9 78.79,-447.19 72.97,-438.34 68.72,-443.9"/>
</g>
<!-- Node5 -->
<g id="node5" class="node">
<title>Node5</title>
<g id="a_node5"><a xlink:href="path_8hpp.html" target="_top" xlink:title=" ">
<polygon fill="none" stroke="black" points="128,-380.5 128,-410.5 234,-410.5 234,-380.5 128,-380.5"/>
<text text-anchor="start" x="136" y="-398.5" font-family="Helvetica,sans-Serif" font-size="10.00">include/plang/corpus</text>
<text text-anchor="middle" x="181" y="-387.5" font-family="Helvetica,sans-Serif" font-size="10.00">/path.hpp</text>
</a>
</g>
</g>
<!-- Node2&#45;&gt;Node5 -->
<g id="edge4" class="edge">
<title>Node2&#45;&gt;Node5</title>
<path fill="none" stroke="midnightblue" d="M125.69,-440.88C138,-431.01 152.43,-419.43 163.46,-410.58"/>
<polygon fill="midnightblue" stroke="midnightblue" points="123.18,-438.41 117.58,-447.4 127.57,-443.87 123.18,-438.41"/>
</g>
<!-- Node6 -->
<g id="node6" class="node">
<title>Node6</title>
<g id="a_node6"><a xlink:href="object_8hpp.html" target="_top" xlink:title=" ">
<polygon fill="none" stroke="black" points="190,-246.5 190,-276.5 296,-276.5 296,-246.5 190,-246.5"/>
<text text-anchor="start" x="198" y="-264.5" font-family="Helvetica,sans-Serif" font-size="10.00">include/plang/corpus</text>
<text text-anchor="middle" x="243" y="-253.5" font-family="Helvetica,sans-Serif" font-size="10.00">/plot/object.hpp</text>
</a>
</g>
</g>
<!-- Node2&#45;&gt;Node6 -->
<g id="edge16" class="edge">
<title>Node2&#45;&gt;Node6</title>
<path fill="none" stroke="midnightblue" d="M163.5,-455.56C192.75,-449.28 224.91,-436.57 243,-411 272.03,-369.96 256.84,-305.28 247.95,-276.79"/>
<polygon fill="midnightblue" stroke="midnightblue" points="162.47,-452.2 153.31,-457.53 163.79,-459.07 162.47,-452.2"/>
</g>
<!-- Node8 -->
<g id="node8" class="node">
<title>Node8</title>
<g id="a_node8"><a xlink:href="point_8hpp.html" target="_top" xlink:title=" ">
<polygon fill="none" stroke="black" points="28,-179.5 28,-209.5 134,-209.5 134,-179.5 28,-179.5"/>
<text text-anchor="start" x="36" y="-197.5" font-family="Helvetica,sans-Serif" font-size="10.00">include/plang/corpus</text>
<text text-anchor="middle" x="81" y="-186.5" font-family="Helvetica,sans-Serif" font-size="10.00">/plot/point.hpp</text>
</a>
</g>
</g>
<!-- Node2&#45;&gt;Node8 -->
<g id="edge17" class="edge">
<title>Node2&#45;&gt;Node8</title>
<path fill="none" stroke="midnightblue" d="M93.81,-437.63C84.23,-397.95 67.5,-315.9 73,-246 73.98,-233.61 76.28,-219.67 78.16,-209.58"/>
<polygon fill="midnightblue" stroke="midnightblue" points="90.43,-438.56 96.23,-447.43 97.23,-436.88 90.43,-438.56"/>
</g>
<!-- Node9 -->
<g id="node9" class="node">
<title>Node9</title>
<g id="a_node9"><a xlink:href="symbol_8hpp.html" target="_top" xlink:title=" ">
<polygon fill="none" stroke="black" points="109,-313.5 109,-343.5 215,-343.5 215,-313.5 109,-313.5"/>
<text text-anchor="start" x="117" y="-331.5" font-family="Helvetica,sans-Serif" font-size="10.00">include/plang/corpus</text>
<text text-anchor="middle" x="162" y="-320.5" font-family="Helvetica,sans-Serif" font-size="10.00">/plot/symbol.hpp</text>
</a>
</g>
</g>
<!-- Node2&#45;&gt;Node9 -->
<g id="edge18" class="edge">
<title>Node2&#45;&gt;Node9</title>
<path fill="none" stroke="midnightblue" d="M102.6,-437.16C105.11,-420.39 109.93,-397.98 119,-380 125.95,-366.22 137.41,-353.03 146.75,-343.59"/>
<polygon fill="midnightblue" stroke="midnightblue" points="99.1,-436.88 101.26,-447.26 106.04,-437.8 99.1,-436.88"/>
</g>
<!-- Node4 -->
<g id="node4" class="node">
<title>Node4</title>
<g id="a_node4"><a xlink:href="cli_8hpp.html" target="_top" xlink:title=" ">
<polygon fill="none" stroke="black" points="104.5,-0.5 104.5,-19.5 219.5,-19.5 219.5,-0.5 104.5,-0.5"/>
<text text-anchor="middle" x="162" y="-7.5" font-family="Helvetica,sans-Serif" font-size="10.00">include/plangcli/cli.hpp</text>
</a>
</g>
</g>
<!-- Node3&#45;&gt;Node4 -->
<g id="edge3" class="edge">
<title>Node3&#45;&gt;Node4</title>
<path fill="none" stroke="midnightblue" d="M162,-45.8C162,-36.91 162,-26.78 162,-19.75"/>
<polygon fill="midnightblue" stroke="midnightblue" points="158.5,-46.08 162,-56.08 165.5,-46.08 158.5,-46.08"/>
</g>
<!-- Node5&#45;&gt;Node3 -->
<g id="edge5" class="edge">
<title>Node5&#45;&gt;Node3</title>
<path fill="none" stroke="midnightblue" d="M225.23,-376.05C267.23,-355.22 324,-317 324,-262.5 324,-262.5 324,-262.5 324,-193.5 324,-127.48 239.4,-90.82 192.47,-75.56"/>
<polygon fill="midnightblue" stroke="midnightblue" points="223.49,-373 215.98,-380.47 226.51,-379.31 223.49,-373"/>
</g>
<!-- Node5&#45;&gt;Node6 -->
<g id="edge6" class="edge">
<title>Node5&#45;&gt;Node6</title>
<path fill="none" stroke="midnightblue" d="M203.32,-372.93C210.88,-364.54 218.73,-354.44 224,-344 235.06,-322.08 239.8,-293.58 241.74,-276.74"/>
<polygon fill="midnightblue" stroke="midnightblue" points="200.58,-370.74 196.25,-380.41 205.67,-375.55 200.58,-370.74"/>
</g>
<!-- Node5&#45;&gt;Node8 -->
<g id="edge11" class="edge">
<title>Node5&#45;&gt;Node8</title>
<path fill="none" stroke="midnightblue" d="M135.68,-375.67C122.12,-367.84 108.59,-357.39 100,-344 72.64,-301.34 75.94,-237.51 79.06,-209.51"/>
<polygon fill="midnightblue" stroke="midnightblue" points="134.09,-378.78 144.55,-380.44 137.4,-372.62 134.09,-378.78"/>
</g>
<!-- Node5&#45;&gt;Node9 -->
<g id="edge12" class="edge">
<title>Node5&#45;&gt;Node9</title>
<path fill="none" stroke="midnightblue" d="M174.04,-370.7C171.38,-361.59 168.43,-351.49 166.11,-343.58"/>
<polygon fill="midnightblue" stroke="midnightblue" points="170.71,-371.78 176.88,-380.4 177.43,-369.82 170.71,-371.78"/>
</g>
<!-- Node7 -->
<g id="node7" class="node">
<title>Node7</title>
<g id="a_node7"><a xlink:href="corpus_2plot_8hpp.html" target="_top" xlink:title=" ">
<polygon fill="none" stroke="black" points="109,-112.5 109,-142.5 215,-142.5 215,-112.5 109,-112.5"/>
<text text-anchor="start" x="117" y="-130.5" font-family="Helvetica,sans-Serif" font-size="10.00">include/plang/corpus</text>
<text text-anchor="middle" x="162" y="-119.5" font-family="Helvetica,sans-Serif" font-size="10.00">/plot.hpp</text>
</a>
</g>
</g>
<!-- Node6&#45;&gt;Node7 -->
<g id="edge7" class="edge">
<title>Node6&#45;&gt;Node7</title>
<path fill="none" stroke="midnightblue" d="M229.09,-237.83C212.3,-210.47 184.57,-165.28 170.61,-142.52"/>
<polygon fill="midnightblue" stroke="midnightblue" points="226.12,-239.68 234.33,-246.37 232.08,-236.02 226.12,-239.68"/>
</g>
<!-- Node6&#45;&gt;Node8 -->
<g id="edge9" class="edge">
<title>Node6&#45;&gt;Node8</title>
<path fill="none" stroke="midnightblue" d="M198.25,-242.54C172.33,-232.14 140.16,-219.24 116.08,-209.58"/>
<polygon fill="midnightblue" stroke="midnightblue" points="197.26,-245.92 207.85,-246.4 199.87,-239.42 197.26,-245.92"/>
</g>
<!-- Node7&#45;&gt;Node3 -->
<g id="edge8" class="edge">
<title>Node7&#45;&gt;Node3</title>
<path fill="none" stroke="midnightblue" d="M162,-102.29C162,-92.86 162,-82.65 162,-75.66"/>
<polygon fill="midnightblue" stroke="midnightblue" points="158.5,-102.4 162,-112.4 165.5,-102.4 158.5,-102.4"/>
</g>
<!-- Node8&#45;&gt;Node7 -->
<g id="edge10" class="edge">
<title>Node8&#45;&gt;Node7</title>
<path fill="none" stroke="midnightblue" d="M106.69,-172.88C119,-163.01 133.43,-151.43 144.46,-142.58"/>
<polygon fill="midnightblue" stroke="midnightblue" points="104.18,-170.41 98.58,-179.4 108.57,-175.87 104.18,-170.41"/>
</g>
<!-- Node9&#45;&gt;Node6 -->
<g id="edge14" class="edge">
<title>Node9&#45;&gt;Node6</title>
<path fill="none" stroke="midnightblue" d="M187.69,-306.88C200,-297.01 214.43,-285.43 225.46,-276.58"/>
<polygon fill="midnightblue" stroke="midnightblue" points="185.18,-304.41 179.58,-313.4 189.57,-309.87 185.18,-304.41"/>
</g>
<!-- Node9&#45;&gt;Node7 -->
<g id="edge13" class="edge">
<title>Node9&#45;&gt;Node7</title>
<path fill="none" stroke="midnightblue" d="M162,-303C162,-260.93 162,-176.26 162,-142.68"/>
<polygon fill="midnightblue" stroke="midnightblue" points="158.5,-303.19 162,-313.19 165.5,-303.19 158.5,-303.19"/>
</g>
<!-- Node9&#45;&gt;Node8 -->
<g id="edge15" class="edge">
<title>Node9&#45;&gt;Node8</title>
<path fill="none" stroke="midnightblue" d="M148.09,-304.83C131.3,-277.47 103.57,-232.28 89.61,-209.52"/>
<polygon fill="midnightblue" stroke="midnightblue" points="145.12,-306.68 153.33,-313.37 151.08,-303.02 145.12,-306.68"/>
</g>
</g>
</svg>
