<?xml version="1.0" encoding="UTF-8" standalone="no"?>
<!DOCTYPE svg PUBLIC "-//W3C//DTD SVG 1.1//EN"
 "http://www.w3.org/Graphics/SVG/1.1/DTD/svg11.dtd">
<!-- Generated by graphviz version 2.44.1 (20220725.2034)
 -->
<!-- Title: include/plang/lang.hpp Pages: 1 -->
<svg width="205pt" height="408pt"
 viewBox="0.00 0.00 204.50 408.00" xmlns="http://www.w3.org/2000/svg" xmlns:xlink="http://www.w3.org/1999/xlink">
<g id="graph0" class="graph" transform="scale(1 1) rotate(0) translate(4 404)">
<title>include/plang/lang.hpp</title>
<!-- Node1 -->
<g id="node1" class="node">
<title>Node1</title>
<g id="a_node1"><a xlink:title=" ">
<polygon fill="#bfbfbf" stroke="black" points="28,-380.5 28,-399.5 141,-399.5 141,-380.5 28,-380.5"/>
<text text-anchor="middle" x="84.5" y="-387.5" font-family="Helvetica,sans-Serif" font-size="10.00">include/plang/lang.hpp</text>
</a>
</g>
</g>
<!-- Node2 -->
<g id="node2" class="node">
<title>Node2</title>
<g id="a_node2"><a xlink:href="detail_8hpp.html" target="_top" xlink:title=" ">
<polygon fill="none" stroke="black" points="31.5,-313.5 31.5,-343.5 137.5,-343.5 137.5,-313.5 31.5,-313.5"/>
<text text-anchor="start" x="39.5" y="-331.5" font-family="Helvetica,sans-Serif" font-size="10.00">include/plang/corpus</text>
<text text-anchor="middle" x="84.5" y="-320.5" font-family="Helvetica,sans-Serif" font-size="10.00">/detail.hpp</text>
</a>
</g>
</g>
<!-- Node1&#45;&gt;Node2 -->
<g id="edge1" class="edge">
<title>Node1&#45;&gt;Node2</title>
<path fill="none" stroke="midnightblue" d="M84.5,-370.23C84.5,-361.59 84.5,-351.5 84.5,-343.52"/>
<polygon fill="midnightblue" stroke="midnightblue" points="81,-370.48 84.5,-380.48 88,-370.48 81,-370.48"/>
</g>
<!-- Node3 -->
<g id="node3" class="node">
<title>Node3</title>
<g id="a_node3"><a xlink:href="corpus_8hpp.html" target="_top" xlink:title=" ">
<polygon fill="none" stroke="black" points="0,-56.5 0,-75.5 125,-75.5 125,-56.5 0,-56.5"/>
<text text-anchor="middle" x="62.5" y="-63.5" font-family="Helvetica,sans-Serif" font-size="10.00">include/plang/corpus.hpp</text>
</a>
</g>
</g>
<!-- Node2&#45;&gt;Node3 -->
<g id="edge2" class="edge">
<title>Node2&#45;&gt;Node3</title>
<path fill="none" stroke="midnightblue" d="M49.42,-307.54C38.76,-299.54 28.33,-289.27 22.5,-277 -11.75,-204.93 39.74,-105.79 57.12,-75.89"/>
<polygon fill="midnightblue" stroke="midnightblue" points="47.73,-310.63 57.94,-313.47 51.73,-304.88 47.73,-310.63"/>
</g>
<!-- Node5 -->
<g id="node5" class="node">
<title>Node5</title>
<g id="a_node5"><a xlink:href="path_8hpp.html" target="_top" xlink:title=" ">
<polygon fill="none" stroke="black" points="31.5,-246.5 31.5,-276.5 137.5,-276.5 137.5,-246.5 31.5,-246.5"/>
<text text-anchor="start" x="39.5" y="-264.5" font-family="Helvetica,sans-Serif" font-size="10.00">include/plang/corpus</text>
<text text-anchor="middle" x="84.5" y="-253.5" font-family="Helvetica,sans-Serif" font-size="10.00">/path.hpp</text>
</a>
</g>
</g>
<!-- Node2&#45;&gt;Node5 -->
<g id="edge4" class="edge">
<title>Node2&#45;&gt;Node5</title>
<path fill="none" stroke="midnightblue" d="M84.5,-303.11C84.5,-294.15 84.5,-284.32 84.5,-276.58"/>
<polygon fill="midnightblue" stroke="midnightblue" points="81,-303.4 84.5,-313.4 88,-303.4 81,-303.4"/>
</g>
<!-- Node6 -->
<g id="node6" class="node">
<title>Node6</title>
<g id="a_node6"><a xlink:href="symbol_8hpp.html" target="_top" xlink:title=" ">
<polygon fill="none" stroke="black" points="90.5,-179.5 90.5,-209.5 196.5,-209.5 196.5,-179.5 90.5,-179.5"/>
<text text-anchor="start" x="98.5" y="-197.5" font-family="Helvetica,sans-Serif" font-size="10.00">include/plang/corpus</text>
<text text-anchor="middle" x="143.5" y="-186.5" font-family="Helvetica,sans-Serif" font-size="10.00">/plot/symbol.hpp</text>
</a>
</g>
</g>
<!-- Node2&#45;&gt;Node6 -->
<g id="edge9" class="edge">
<title>Node2&#45;&gt;Node6</title>
<path fill="none" stroke="midnightblue" d="M119.58,-307.54C130.24,-299.54 140.67,-289.27 146.5,-277 156.83,-255.26 152.12,-226.45 147.79,-209.55"/>
<polygon fill="midnightblue" stroke="midnightblue" points="117.27,-304.88 111.06,-313.47 121.27,-310.63 117.27,-304.88"/>
</g>
<!-- Node4 -->
<g id="node4" class="node">
<title>Node4</title>
<g id="a_node4"><a xlink:href="cli_8hpp.html" target="_top" xlink:title=" ">
<polygon fill="none" stroke="black" points="5,-0.5 5,-19.5 120,-19.5 120,-0.5 5,-0.5"/>
<text text-anchor="middle" x="62.5" y="-7.5" font-family="Helvetica,sans-Serif" font-size="10.00">include/plangcli/cli.hpp</text>
</a>
</g>
</g>
<!-- Node3&#45;&gt;Node4 -->
<g id="edge3" class="edge">
<title>Node3&#45;&gt;Node4</title>
<path fill="none" stroke="midnightblue" d="M62.5,-45.8C62.5,-36.91 62.5,-26.78 62.5,-19.75"/>
<polygon fill="midnightblue" stroke="midnightblue" points="59,-46.08 62.5,-56.08 66,-46.08 59,-46.08"/>
</g>
<!-- Node5&#45;&gt;Node3 -->
<g id="edge5" class="edge">
<title>Node5&#45;&gt;Node3</title>
<path fill="none" stroke="midnightblue" d="M81.75,-236.28C76.81,-192.82 66.66,-103.55 63.48,-75.58"/>
<polygon fill="midnightblue" stroke="midnightblue" points="78.27,-236.73 82.88,-246.27 85.23,-235.94 78.27,-236.73"/>
</g>
<!-- Node5&#45;&gt;Node6 -->
<g id="edge6" class="edge">
<title>Node5&#45;&gt;Node6</title>
<path fill="none" stroke="midnightblue" d="M104.25,-238.74C112.98,-229.12 123,-218.09 130.72,-209.58"/>
<polygon fill="midnightblue" stroke="midnightblue" points="101.43,-236.64 97.3,-246.4 106.61,-241.34 101.43,-236.64"/>
</g>
<!-- Node7 -->
<g id="node7" class="node">
<title>Node7</title>
<g id="a_node7"><a xlink:href="corpus_2plot_8hpp.html" target="_top" xlink:title=" ">
<polygon fill="none" stroke="black" points="90.5,-112.5 90.5,-142.5 196.5,-142.5 196.5,-112.5 90.5,-112.5"/>
<text text-anchor="start" x="98.5" y="-130.5" font-family="Helvetica,sans-Serif" font-size="10.00">include/plang/corpus</text>
<text text-anchor="middle" x="143.5" y="-119.5" font-family="Helvetica,sans-Serif" font-size="10.00">/plot.hpp</text>
</a>
</g>
</g>
<!-- Node6&#45;&gt;Node7 -->
<g id="edge7" class="edge">
<title>Node6&#45;&gt;Node7</title>
<path fill="none" stroke="midnightblue" d="M143.5,-169.11C143.5,-160.15 143.5,-150.32 143.5,-142.58"/>
<polygon fill="midnightblue" stroke="midnightblue" points="140,-169.4 143.5,-179.4 147,-169.4 140,-169.4"/>
</g>
<!-- Node7&#45;&gt;Node3 -->
<g id="edge8" class="edge">
<title>Node7&#45;&gt;Node3</title>
<path fill="none" stroke="midnightblue" d="M115.85,-106.19C101.67,-95.77 85.14,-83.63 74.29,-75.66"/>
<polygon fill="midnightblue" stroke="midnightblue" points="114.17,-109.3 124.3,-112.4 118.32,-103.66 114.17,-109.3"/>
</g>
</g>
</svg>
