<?xml version="1.0" encoding="UTF-8" standalone="no"?>
<!DOCTYPE svg PUBLIC "-//W3C//DTD SVG 1.1//EN"
 "http://www.w3.org/Graphics/SVG/1.1/DTD/svg11.dtd">
<!-- Generated by graphviz version 2.44.1 (20220725.2034)
 -->
<!-- Title: include/plang/corpus/plot/object.hpp Pages: 1 -->
<svg width="799pt" height="319pt"
 viewBox="0.00 0.00 798.62 319.00" xmlns="http://www.w3.org/2000/svg" xmlns:xlink="http://www.w3.org/1999/xlink">
<g id="graph0" class="graph" transform="scale(1 1) rotate(0) translate(4 315)">
<title>include/plang/corpus/plot/object.hpp</title>
<!-- Node1 -->
<g id="node1" class="node">
<title>Node1</title>
<g id="a_node1"><a xlink:title=" ">
<polygon fill="#bfbfbf" stroke="black" points="203.6,-280.5 203.6,-310.5 309.6,-310.5 309.6,-280.5 203.6,-280.5"/>
<text text-anchor="start" x="211.6" y="-298.5" font-family="Helvetica,sans-Serif" font-size="10.00">include/plang/corpus</text>
<text text-anchor="middle" x="256.6" y="-287.5" font-family="Helvetica,sans-Serif" font-size="10.00">/plot/object.hpp</text>
</a>
</g>
</g>
<!-- Node2 -->
<g id="node2" class="node">
<title>Node2</title>
<g id="a_node2"><a xlink:title=" ">
<polygon fill="none" stroke="#bfbfbf" points="334.1,-0.5 334.1,-19.5 375.1,-19.5 375.1,-0.5 334.1,-0.5"/>
<text text-anchor="middle" x="354.6" y="-7.5" font-family="Helvetica,sans-Serif" font-size="10.00">string</text>
</a>
</g>
</g>
<!-- Node1&#45;&gt;Node2 -->
<g id="edge1" class="edge">
<title>Node1&#45;&gt;Node2</title>
<path fill="none" stroke="midnightblue" d="M309.65,-294.16C444.47,-291.88 789.6,-276.52 789.6,-179 789.6,-179 789.6,-179 789.6,-121 789.6,-90.9 793.67,-75.32 770.6,-56 741.16,-31.35 476.65,-16.72 385.39,-12.38"/>
<polygon fill="midnightblue" stroke="midnightblue" points="385.3,-8.87 375.15,-11.9 384.97,-15.86 385.3,-8.87"/>
</g>
<!-- Node3 -->
<g id="node3" class="node">
<title>Node3</title>
<g id="a_node3"><a xlink:title=" ">
<polygon fill="none" stroke="#bfbfbf" points="123.6,-112.5 123.6,-131.5 167.6,-131.5 167.6,-112.5 123.6,-112.5"/>
<text text-anchor="middle" x="145.6" y="-119.5" font-family="Helvetica,sans-Serif" font-size="10.00">vector</text>
</a>
</g>
</g>
<!-- Node1&#45;&gt;Node3 -->
<g id="edge2" class="edge">
<title>Node1&#45;&gt;Node3</title>
<path fill="none" stroke="midnightblue" d="M245.22,-280.2C237.45,-270.24 227.07,-256.55 218.6,-244 194.45,-208.24 169.03,-164.51 155.48,-140.63"/>
<polygon fill="midnightblue" stroke="midnightblue" points="158.4,-138.69 150.44,-131.7 152.3,-142.13 158.4,-138.69"/>
</g>
<!-- Node4 -->
<g id="node4" class="node">
<title>Node4</title>
<g id="a_node4"><a xlink:title=" ">
<polygon fill="none" stroke="#bfbfbf" points="186.1,-112.5 186.1,-131.5 269.1,-131.5 269.1,-112.5 186.1,-112.5"/>
<text text-anchor="middle" x="227.6" y="-119.5" font-family="Helvetica,sans-Serif" font-size="10.00">unordered_map</text>
</a>
</g>
</g>
<!-- Node1&#45;&gt;Node4 -->
<g id="edge3" class="edge">
<title>Node1&#45;&gt;Node4</title>
<path fill="none" stroke="midnightblue" d="M245.06,-280.49C237.91,-270.88 229.4,-257.46 225.6,-244 215.69,-208.92 220.13,-165.8 224.02,-141.66"/>
<polygon fill="midnightblue" stroke="midnightblue" points="227.49,-142.18 225.77,-131.73 220.59,-140.97 227.49,-142.18"/>
</g>
<!-- Node5 -->
<g id="node5" class="node">
<title>Node5</title>
<g id="a_node5"><a xlink:href="base_8hpp.html" target="_top" xlink:title=" ">
<polygon fill="none" stroke="black" points="88.1,-56.5 88.1,-75.5 171.1,-75.5 171.1,-56.5 88.1,-56.5"/>
<text text-anchor="middle" x="129.6" y="-63.5" font-family="Helvetica,sans-Serif" font-size="10.00">plang/base.hpp</text>
</a>
</g>
</g>
<!-- Node1&#45;&gt;Node5 -->
<g id="edge4" class="edge">
<title>Node1&#45;&gt;Node5</title>
<path fill="none" stroke="midnightblue" d="M203.39,-290.53C141.48,-282.61 42.77,-258.92 3.6,-188 -8.28,-166.49 13.38,-120.93 21.6,-112 36.54,-95.75 58.27,-85.18 78.33,-78.41"/>
<polygon fill="midnightblue" stroke="midnightblue" points="79.5,-81.7 88,-75.38 77.41,-75.02 79.5,-81.7"/>
</g>
<!-- Node10 -->
<g id="node10" class="node">
<title>Node10</title>
<g id="a_node10"><a xlink:href="detail_8hpp.html" target="_top" xlink:title=" ">
<polygon fill="none" stroke="black" points="432.1,-112.5 432.1,-131.5 549.1,-131.5 549.1,-112.5 432.1,-112.5"/>
<text text-anchor="middle" x="490.6" y="-119.5" font-family="Helvetica,sans-Serif" font-size="10.00">plang/corpus/detail.hpp</text>
</a>
</g>
</g>
<!-- Node1&#45;&gt;Node10 -->
<g id="edge10" class="edge">
<title>Node1&#45;&gt;Node10</title>
<path fill="none" stroke="midnightblue" d="M309.84,-283.11C339.13,-275.2 375.19,-262.68 403.6,-244 442.92,-218.15 470.28,-167.97 482.83,-141.06"/>
<polygon fill="midnightblue" stroke="midnightblue" points="486.13,-142.25 487.04,-131.69 479.75,-139.38 486.13,-142.25"/>
</g>
<!-- Node16 -->
<g id="node16" class="node">
<title>Node16</title>
<g id="a_node16"><a xlink:href="path_8hpp.html" target="_top" xlink:title=" ">
<polygon fill="none" stroke="black" points="273.1,-168.5 273.1,-187.5 386.1,-187.5 386.1,-168.5 273.1,-168.5"/>
<text text-anchor="middle" x="329.6" y="-175.5" font-family="Helvetica,sans-Serif" font-size="10.00">plang/corpus/path.hpp</text>
</a>
</g>
</g>
<!-- Node1&#45;&gt;Node16 -->
<g id="edge17" class="edge">
<title>Node1&#45;&gt;Node16</title>
<path fill="none" stroke="midnightblue" d="M309.86,-288.32C337.96,-282.05 370.15,-269.42 387.6,-244 400.78,-224.8 377.11,-205.17 356.16,-192.59"/>
<polygon fill="midnightblue" stroke="midnightblue" points="357.89,-189.54 347.46,-187.65 354.43,-195.63 357.89,-189.54"/>
</g>
<!-- Node17 -->
<g id="node17" class="node">
<title>Node17</title>
<g id="a_node17"><a xlink:href="symbol_8hpp.html" target="_top" xlink:title=" ">
<polygon fill="none" stroke="black" points="234.6,-224.5 234.6,-243.5 378.6,-243.5 378.6,-224.5 234.6,-224.5"/>
<text text-anchor="middle" x="306.6" y="-231.5" font-family="Helvetica,sans-Serif" font-size="10.00">plang/corpus/plot/symbol.hpp</text>
</a>
</g>
</g>
<!-- Node1&#45;&gt;Node17 -->
<g id="edge23" class="edge">
<title>Node1&#45;&gt;Node17</title>
<path fill="none" stroke="midnightblue" d="M268.45,-280.4C275.71,-271.75 285.05,-260.64 292.67,-251.58"/>
<polygon fill="midnightblue" stroke="midnightblue" points="295.57,-253.57 299.32,-243.66 290.21,-249.06 295.57,-253.57"/>
</g>
<!-- Node18 -->
<g id="node18" class="node">
<title>Node18</title>
<g id="a_node18"><a xlink:href="plot_8hpp.html" target="_top" xlink:title=" ">
<polygon fill="none" stroke="black" points="25.1,-168.5 25.1,-187.5 102.1,-187.5 102.1,-168.5 25.1,-168.5"/>
<text text-anchor="middle" x="63.6" y="-175.5" font-family="Helvetica,sans-Serif" font-size="10.00">plang/plot.hpp</text>
</a>
</g>
</g>
<!-- Node1&#45;&gt;Node18 -->
<g id="edge34" class="edge">
<title>Node1&#45;&gt;Node18</title>
<path fill="none" stroke="midnightblue" d="M203.5,-282.65C175.86,-274.75 142.53,-262.37 116.6,-244 98.67,-231.29 83.46,-210.97 73.99,-196.44"/>
<polygon fill="midnightblue" stroke="midnightblue" points="76.9,-194.48 68.63,-187.86 70.96,-198.19 76.9,-194.48"/>
</g>
<!-- Node5&#45;&gt;Node2 -->
<g id="edge9" class="edge">
<title>Node5&#45;&gt;Node2</title>
<path fill="none" stroke="midnightblue" d="M165.25,-56.44C209.12,-45.92 282.84,-28.22 324.16,-18.3"/>
<polygon fill="midnightblue" stroke="midnightblue" points="325.03,-21.7 333.93,-15.96 323.39,-14.89 325.03,-21.7"/>
</g>
<!-- Node6 -->
<g id="node6" class="node">
<title>Node6</title>
<g id="a_node6"><a xlink:title=" ">
<polygon fill="none" stroke="#bfbfbf" points="11.6,-0.5 11.6,-19.5 57.6,-19.5 57.6,-0.5 11.6,-0.5"/>
<text text-anchor="middle" x="34.6" y="-7.5" font-family="Helvetica,sans-Serif" font-size="10.00">chrono</text>
</a>
</g>
</g>
<!-- Node5&#45;&gt;Node6 -->
<g id="edge5" class="edge">
<title>Node5&#45;&gt;Node6</title>
<path fill="none" stroke="midnightblue" d="M114.33,-56.32C99.38,-47.82 76.34,-34.73 58.87,-24.8"/>
<polygon fill="midnightblue" stroke="midnightblue" points="60.25,-21.55 49.82,-19.65 56.79,-27.64 60.25,-21.55"/>
</g>
<!-- Node7 -->
<g id="node7" class="node">
<title>Node7</title>
<g id="a_node7"><a xlink:title=" ">
<polygon fill="none" stroke="#bfbfbf" points="75.6,-0.5 75.6,-19.5 119.6,-19.5 119.6,-0.5 75.6,-0.5"/>
<text text-anchor="middle" x="97.6" y="-7.5" font-family="Helvetica,sans-Serif" font-size="10.00">cmath</text>
</a>
</g>
</g>
<!-- Node5&#45;&gt;Node7 -->
<g id="edge6" class="edge">
<title>Node5&#45;&gt;Node7</title>
<path fill="none" stroke="midnightblue" d="M124.31,-56.08C119.89,-48.61 113.43,-37.72 107.98,-28.52"/>
<polygon fill="midnightblue" stroke="midnightblue" points="110.89,-26.57 102.78,-19.75 104.87,-30.14 110.89,-26.57"/>
</g>
<!-- Node8 -->
<g id="node8" class="node">
<title>Node8</title>
<g id="a_node8"><a xlink:title=" ">
<polygon fill="none" stroke="#bfbfbf" points="137.6,-0.5 137.6,-19.5 187.6,-19.5 187.6,-0.5 137.6,-0.5"/>
<text text-anchor="middle" x="162.6" y="-7.5" font-family="Helvetica,sans-Serif" font-size="10.00">optional</text>
</a>
</g>
</g>
<!-- Node5&#45;&gt;Node8 -->
<g id="edge7" class="edge">
<title>Node5&#45;&gt;Node8</title>
<path fill="none" stroke="midnightblue" d="M135.05,-56.08C139.61,-48.61 146.27,-37.72 151.89,-28.52"/>
<polygon fill="midnightblue" stroke="midnightblue" points="155.02,-30.11 157.25,-19.75 149.05,-26.46 155.02,-30.11"/>
</g>
<!-- Node9 -->
<g id="node9" class="node">
<title>Node9</title>
<g id="a_node9"><a xlink:title=" ">
<polygon fill="none" stroke="#bfbfbf" points="205.6,-0.5 205.6,-19.5 257.6,-19.5 257.6,-0.5 205.6,-0.5"/>
<text text-anchor="middle" x="231.6" y="-7.5" font-family="Helvetica,sans-Serif" font-size="10.00">sstream</text>
</a>
</g>
</g>
<!-- Node5&#45;&gt;Node9 -->
<g id="edge8" class="edge">
<title>Node5&#45;&gt;Node9</title>
<path fill="none" stroke="midnightblue" d="M145.99,-56.32C162.27,-47.7 187.47,-34.36 206.31,-24.39"/>
<polygon fill="midnightblue" stroke="midnightblue" points="208.05,-27.43 215.25,-19.65 204.78,-21.24 208.05,-27.43"/>
</g>
<!-- Node10&#45;&gt;Node5 -->
<g id="edge15" class="edge">
<title>Node10&#45;&gt;Node5</title>
<path fill="none" stroke="midnightblue" d="M433.4,-112.44C364.14,-102.08 248.49,-84.78 181.63,-74.78"/>
<polygon fill="midnightblue" stroke="midnightblue" points="181.75,-71.26 171.34,-73.24 180.71,-78.18 181.75,-71.26"/>
</g>
<!-- Node11 -->
<g id="node11" class="node">
<title>Node11</title>
<g id="a_node11"><a xlink:title=" ">
<polygon fill="none" stroke="#bfbfbf" points="465.6,-56.5 465.6,-75.5 527.6,-75.5 527.6,-56.5 465.6,-56.5"/>
<text text-anchor="middle" x="496.6" y="-63.5" font-family="Helvetica,sans-Serif" font-size="10.00">filesystem</text>
</a>
</g>
</g>
<!-- Node10&#45;&gt;Node11 -->
<g id="edge11" class="edge">
<title>Node10&#45;&gt;Node11</title>
<path fill="none" stroke="midnightblue" d="M491.59,-112.08C492.38,-104.93 493.53,-94.64 494.52,-85.69"/>
<polygon fill="midnightblue" stroke="midnightblue" points="498,-86.08 495.63,-75.75 491.04,-85.3 498,-86.08"/>
</g>
<!-- Node12 -->
<g id="node12" class="node">
<title>Node12</title>
<g id="a_node12"><a xlink:title=" ">
<polygon fill="none" stroke="#bfbfbf" points="546.1,-56.5 546.1,-75.5 605.1,-75.5 605.1,-56.5 546.1,-56.5"/>
<text text-anchor="middle" x="575.6" y="-63.5" font-family="Helvetica,sans-Serif" font-size="10.00">functional</text>
</a>
</g>
</g>
<!-- Node10&#45;&gt;Node12 -->
<g id="edge12" class="edge">
<title>Node10&#45;&gt;Node12</title>
<path fill="none" stroke="midnightblue" d="M504.25,-112.32C517.51,-103.9 537.87,-90.97 553.44,-81.07"/>
<polygon fill="midnightblue" stroke="midnightblue" points="555.41,-83.97 561.98,-75.65 551.66,-78.06 555.41,-83.97"/>
</g>
<!-- Node13 -->
<g id="node13" class="node">
<title>Node13</title>
<g id="a_node13"><a xlink:title=" ">
<polygon fill="none" stroke="#bfbfbf" points="623.6,-56.5 623.6,-75.5 663.6,-75.5 663.6,-56.5 623.6,-56.5"/>
<text text-anchor="middle" x="643.6" y="-63.5" font-family="Helvetica,sans-Serif" font-size="10.00">utility</text>
</a>
</g>
</g>
<!-- Node10&#45;&gt;Node13 -->
<g id="edge13" class="edge">
<title>Node10&#45;&gt;Node13</title>
<path fill="none" stroke="midnightblue" d="M514.84,-112.44C541.67,-102.97 584.94,-87.7 613.81,-77.51"/>
<polygon fill="midnightblue" stroke="midnightblue" points="615.11,-80.77 623.38,-74.14 612.78,-74.16 615.11,-80.77"/>
</g>
<!-- Node14 -->
<g id="node14" class="node">
<title>Node14</title>
<g id="a_node14"><a xlink:title=" ">
<polygon fill="none" stroke="#bfbfbf" points="401.6,-56.5 401.6,-75.5 447.6,-75.5 447.6,-56.5 401.6,-56.5"/>
<text text-anchor="middle" x="424.6" y="-63.5" font-family="Helvetica,sans-Serif" font-size="10.00">variant</text>
</a>
</g>
</g>
<!-- Node10&#45;&gt;Node14 -->
<g id="edge14" class="edge">
<title>Node10&#45;&gt;Node14</title>
<path fill="none" stroke="midnightblue" d="M479.99,-112.32C470.14,-104.26 455.25,-92.08 443.38,-82.37"/>
<polygon fill="midnightblue" stroke="midnightblue" points="445.35,-79.46 435.4,-75.83 440.92,-84.88 445.35,-79.46"/>
</g>
<!-- Node15 -->
<g id="node15" class="node">
<title>Node15</title>
<g id="a_node15"><a xlink:href="lang_8hpp.html" target="_top" xlink:title=" ">
<polygon fill="none" stroke="black" points="681.6,-56.5 681.6,-75.5 761.6,-75.5 761.6,-56.5 681.6,-56.5"/>
<text text-anchor="middle" x="721.6" y="-63.5" font-family="Helvetica,sans-Serif" font-size="10.00">plang/lang.hpp</text>
</a>
</g>
</g>
<!-- Node10&#45;&gt;Node15 -->
<g id="edge16" class="edge">
<title>Node10&#45;&gt;Node15</title>
<path fill="none" stroke="midnightblue" d="M527.2,-112.44C567.33,-103.06 631.8,-87.99 675.38,-77.8"/>
<polygon fill="midnightblue" stroke="midnightblue" points="676.23,-81.2 685.17,-75.52 674.63,-74.38 676.23,-81.2"/>
</g>
<!-- Node16&#45;&gt;Node2 -->
<g id="edge18" class="edge">
<title>Node16&#45;&gt;Node2</title>
<path fill="none" stroke="midnightblue" d="M330.94,-168.08C334.88,-141.95 346.43,-65.21 351.8,-29.58"/>
<polygon fill="midnightblue" stroke="midnightblue" points="355.28,-29.98 353.31,-19.57 348.36,-28.94 355.28,-29.98"/>
</g>
<!-- Node16&#45;&gt;Node3 -->
<g id="edge19" class="edge">
<title>Node16&#45;&gt;Node3</title>
<path fill="none" stroke="midnightblue" d="M300.44,-168.44C266.87,-158.59 211.91,-142.46 177.3,-132.3"/>
<polygon fill="midnightblue" stroke="midnightblue" points="178.27,-128.94 167.69,-129.48 176.3,-135.66 178.27,-128.94"/>
</g>
<!-- Node16&#45;&gt;Node4 -->
<g id="edge20" class="edge">
<title>Node16&#45;&gt;Node4</title>
<path fill="none" stroke="midnightblue" d="M313.21,-168.32C296.93,-159.7 271.73,-146.36 252.88,-136.39"/>
<polygon fill="midnightblue" stroke="midnightblue" points="254.42,-133.24 243.95,-131.65 251.15,-139.43 254.42,-133.24"/>
</g>
<!-- Node16&#45;&gt;Node5 -->
<g id="edge21" class="edge">
<title>Node16&#45;&gt;Node5</title>
<path fill="none" stroke="midnightblue" d="M325.05,-168.46C317.22,-154.56 299.85,-127.08 277.6,-112 248.84,-92.51 211.35,-81.22 181.3,-74.83"/>
<polygon fill="midnightblue" stroke="midnightblue" points="181.91,-71.38 171.41,-72.85 180.53,-78.25 181.91,-71.38"/>
</g>
<!-- Node16&#45;&gt;Node10 -->
<g id="edge22" class="edge">
<title>Node16&#45;&gt;Node10</title>
<path fill="none" stroke="midnightblue" d="M355.11,-168.44C382.19,-159.36 425.19,-144.94 455.47,-134.78"/>
<polygon fill="midnightblue" stroke="midnightblue" points="456.84,-138.01 465.21,-131.52 454.61,-131.38 456.84,-138.01"/>
</g>
<!-- Node17&#45;&gt;Node2 -->
<g id="edge24" class="edge">
<title>Node17&#45;&gt;Node2</title>
<path fill="none" stroke="midnightblue" d="M342.45,-224.4C361.48,-217.81 383.23,-206.59 394.6,-188 426.32,-136.15 387.5,-61.91 366.45,-28.48"/>
<polygon fill="midnightblue" stroke="midnightblue" points="369.22,-26.31 360.83,-19.84 363.35,-30.13 369.22,-26.31"/>
</g>
<!-- Node17&#45;&gt;Node3 -->
<g id="edge25" class="edge">
<title>Node17&#45;&gt;Node3</title>
<path fill="none" stroke="midnightblue" d="M293.96,-224.37C266.34,-205.49 200.32,-160.38 166.44,-137.24"/>
<polygon fill="midnightblue" stroke="midnightblue" points="168.4,-134.34 158.17,-131.59 164.46,-140.12 168.4,-134.34"/>
</g>
<!-- Node17&#45;&gt;Node4 -->
<g id="edge26" class="edge">
<title>Node17&#45;&gt;Node4</title>
<path fill="none" stroke="midnightblue" d="M296.97,-224.31C287.72,-215.67 273.72,-201.75 263.6,-188 252.63,-173.1 242.65,-154.49 236,-141"/>
<polygon fill="midnightblue" stroke="midnightblue" points="239.08,-139.34 231.59,-131.84 232.77,-142.37 239.08,-139.34"/>
</g>
<!-- Node17&#45;&gt;Node5 -->
<g id="edge27" class="edge">
<title>Node17&#45;&gt;Node5</title>
<path fill="none" stroke="midnightblue" d="M234.57,-232.18C157.72,-229.6 43.26,-220.26 15.6,-188 -19.4,-147.17 56.94,-101.68 101.09,-79.94"/>
<polygon fill="midnightblue" stroke="midnightblue" points="102.73,-83.03 110.23,-75.55 99.7,-76.72 102.73,-83.03"/>
</g>
<!-- Node17&#45;&gt;Node10 -->
<g id="edge28" class="edge">
<title>Node17&#45;&gt;Node10</title>
<path fill="none" stroke="midnightblue" d="M342.23,-224.5C367.69,-217.35 401.99,-205.48 428.6,-188 448.46,-174.95 466.64,-154.41 478.11,-139.92"/>
<polygon fill="midnightblue" stroke="midnightblue" points="481.03,-141.86 484.34,-131.79 475.47,-137.6 481.03,-141.86"/>
</g>
<!-- Node17&#45;&gt;Node16 -->
<g id="edge29" class="edge">
<title>Node17&#45;&gt;Node16</title>
<path fill="none" stroke="midnightblue" d="M310.4,-224.08C313.51,-216.77 318.02,-206.18 321.89,-197.1"/>
<polygon fill="midnightblue" stroke="midnightblue" points="325.17,-198.32 325.87,-187.75 318.73,-195.58 325.17,-198.32"/>
</g>
<!-- Node17&#45;&gt;Node18 -->
<g id="edge30" class="edge">
<title>Node17&#45;&gt;Node18</title>
<path fill="none" stroke="midnightblue" d="M268.09,-224.44C225.79,-215.04 157.78,-199.93 111.93,-189.74"/>
<polygon fill="midnightblue" stroke="midnightblue" points="112.44,-186.27 101.92,-187.52 110.92,-193.1 112.44,-186.27"/>
</g>
<!-- Node18&#45;&gt;Node3 -->
<g id="edge32" class="edge">
<title>Node18&#45;&gt;Node3</title>
<path fill="none" stroke="midnightblue" d="M76.77,-168.32C89.44,-159.98 108.83,-147.21 123.8,-137.35"/>
<polygon fill="midnightblue" stroke="midnightblue" points="126.03,-140.08 132.46,-131.65 122.18,-134.23 126.03,-140.08"/>
</g>
<!-- Node18&#45;&gt;Node5 -->
<g id="edge33" class="edge">
<title>Node18&#45;&gt;Node5</title>
<path fill="none" stroke="midnightblue" d="M64.48,-168.42C66.12,-155.4 70.57,-130.24 81.6,-112 88.64,-100.36 99.52,-89.81 109.14,-81.85"/>
<polygon fill="midnightblue" stroke="midnightblue" points="111.44,-84.5 117.15,-75.57 107.12,-78.99 111.44,-84.5"/>
</g>
<!-- Node18&#45;&gt;Node14 -->
<g id="edge31" class="edge">
<title>Node18&#45;&gt;Node14</title>
<path fill="none" stroke="midnightblue" d="M67.77,-168.08C75.05,-153.62 91.51,-125.37 114.6,-112 161.15,-85.04 320.9,-72.88 391.08,-68.74"/>
<polygon fill="midnightblue" stroke="midnightblue" points="391.37,-72.23 401.15,-68.16 390.97,-65.24 391.37,-72.23"/>
</g>
</g>
</svg>
