<?xml version="1.0" encoding="UTF-8" standalone="no"?>
<!DOCTYPE svg PUBLIC "-//W3C//DTD SVG 1.1//EN"
 "http://www.w3.org/Graphics/SVG/1.1/DTD/svg11.dtd">
<!-- Generated by graphviz version 2.44.1 (20220725.2034)
 -->
<!-- Title: include/plang/corpus/path.hpp Pages: 1 -->
<svg width="560pt" height="207pt"
 viewBox="0.00 0.00 559.50 207.00" xmlns="http://www.w3.org/2000/svg" xmlns:xlink="http://www.w3.org/1999/xlink">
<g id="graph0" class="graph" transform="scale(1 1) rotate(0) translate(4 203)">
<title>include/plang/corpus/path.hpp</title>
<!-- Node1 -->
<g id="node1" class="node">
<title>Node1</title>
<g id="a_node1"><a xlink:title=" ">
<polygon fill="#bfbfbf" stroke="black" points="120.5,-168.5 120.5,-198.5 226.5,-198.5 226.5,-168.5 120.5,-168.5"/>
<text text-anchor="start" x="128.5" y="-186.5" font-family="Helvetica,sans-Serif" font-size="10.00">include/plang/corpus</text>
<text text-anchor="middle" x="173.5" y="-175.5" font-family="Helvetica,sans-Serif" font-size="10.00">/path.hpp</text>
</a>
</g>
</g>
<!-- Node2 -->
<g id="node2" class="node">
<title>Node2</title>
<g id="a_node2"><a xlink:title=" ">
<polygon fill="none" stroke="#bfbfbf" points="0,-0.5 0,-19.5 41,-19.5 41,-0.5 0,-0.5"/>
<text text-anchor="middle" x="20.5" y="-7.5" font-family="Helvetica,sans-Serif" font-size="10.00">string</text>
</a>
</g>
</g>
<!-- Node1&#45;&gt;Node2 -->
<g id="edge1" class="edge">
<title>Node1&#45;&gt;Node2</title>
<path fill="none" stroke="midnightblue" d="M143.74,-168.41C127.28,-159.58 107.23,-147.04 92.5,-132 61.97,-100.83 39.01,-54.3 27.91,-28.98"/>
<polygon fill="midnightblue" stroke="midnightblue" points="31.02,-27.37 23.89,-19.54 24.58,-30.11 31.02,-27.37"/>
</g>
<!-- Node3 -->
<g id="node3" class="node">
<title>Node3</title>
<g id="a_node3"><a xlink:title=" ">
<polygon fill="none" stroke="#bfbfbf" points="101.5,-112.5 101.5,-131.5 145.5,-131.5 145.5,-112.5 101.5,-112.5"/>
<text text-anchor="middle" x="123.5" y="-119.5" font-family="Helvetica,sans-Serif" font-size="10.00">vector</text>
</a>
</g>
</g>
<!-- Node1&#45;&gt;Node3 -->
<g id="edge2" class="edge">
<title>Node1&#45;&gt;Node3</title>
<path fill="none" stroke="midnightblue" d="M161.65,-168.4C154.39,-159.75 145.05,-148.64 137.43,-139.58"/>
<polygon fill="midnightblue" stroke="midnightblue" points="139.89,-137.06 130.78,-131.66 134.53,-141.57 139.89,-137.06"/>
</g>
<!-- Node4 -->
<g id="node4" class="node">
<title>Node4</title>
<g id="a_node4"><a xlink:href="base_8hpp.html" target="_top" xlink:title=" ">
<polygon fill="none" stroke="black" points="90,-56.5 90,-75.5 173,-75.5 173,-56.5 90,-56.5"/>
<text text-anchor="middle" x="131.5" y="-63.5" font-family="Helvetica,sans-Serif" font-size="10.00">plang/base.hpp</text>
</a>
</g>
</g>
<!-- Node1&#45;&gt;Node4 -->
<g id="edge3" class="edge">
<title>Node1&#45;&gt;Node4</title>
<path fill="none" stroke="midnightblue" d="M170.62,-168.45C167.46,-154.02 161.84,-131.04 154.5,-112 150.91,-102.69 145.97,-92.77 141.59,-84.62"/>
<polygon fill="midnightblue" stroke="midnightblue" points="144.56,-82.76 136.65,-75.71 138.44,-86.15 144.56,-82.76"/>
</g>
<!-- Node9 -->
<g id="node9" class="node">
<title>Node9</title>
<g id="a_node9"><a xlink:href="detail_8hpp.html" target="_top" xlink:title=" ">
<polygon fill="none" stroke="black" points="215,-112.5 215,-131.5 332,-131.5 332,-112.5 215,-112.5"/>
<text text-anchor="middle" x="273.5" y="-119.5" font-family="Helvetica,sans-Serif" font-size="10.00">plang/corpus/detail.hpp</text>
</a>
</g>
</g>
<!-- Node1&#45;&gt;Node9 -->
<g id="edge9" class="edge">
<title>Node1&#45;&gt;Node9</title>
<path fill="none" stroke="midnightblue" d="M197.2,-168.4C213.23,-158.86 234.3,-146.32 250.24,-136.84"/>
<polygon fill="midnightblue" stroke="midnightblue" points="252.14,-139.78 258.95,-131.66 248.57,-133.76 252.14,-139.78"/>
</g>
<!-- Node15 -->
<g id="node15" class="node">
<title>Node15</title>
<g id="a_node15"><a xlink:title=" ">
<polygon fill="none" stroke="#bfbfbf" points="350,-112.5 350,-131.5 433,-131.5 433,-112.5 350,-112.5"/>
<text text-anchor="middle" x="391.5" y="-119.5" font-family="Helvetica,sans-Serif" font-size="10.00">unordered_map</text>
</a>
</g>
</g>
<!-- Node1&#45;&gt;Node15 -->
<g id="edge16" class="edge">
<title>Node1&#45;&gt;Node15</title>
<path fill="none" stroke="midnightblue" d="M224.89,-168.47C263.15,-158.03 314.71,-143.96 350.29,-134.25"/>
<polygon fill="midnightblue" stroke="midnightblue" points="351.61,-137.52 360.33,-131.51 349.77,-130.76 351.61,-137.52"/>
</g>
<!-- Node4&#45;&gt;Node2 -->
<g id="edge8" class="edge">
<title>Node4&#45;&gt;Node2</title>
<path fill="none" stroke="midnightblue" d="M113.67,-56.32C95.78,-47.62 68.02,-34.12 47.45,-24.11"/>
<polygon fill="midnightblue" stroke="midnightblue" points="48.81,-20.88 38.29,-19.65 45.75,-27.18 48.81,-20.88"/>
</g>
<!-- Node5 -->
<g id="node5" class="node">
<title>Node5</title>
<g id="a_node5"><a xlink:title=" ">
<polygon fill="none" stroke="#bfbfbf" points="59.5,-0.5 59.5,-19.5 105.5,-19.5 105.5,-0.5 59.5,-0.5"/>
<text text-anchor="middle" x="82.5" y="-7.5" font-family="Helvetica,sans-Serif" font-size="10.00">chrono</text>
</a>
</g>
</g>
<!-- Node4&#45;&gt;Node5 -->
<g id="edge4" class="edge">
<title>Node4&#45;&gt;Node5</title>
<path fill="none" stroke="midnightblue" d="M123.41,-56.08C116.34,-48.3 105.91,-36.8 97.35,-27.37"/>
<polygon fill="midnightblue" stroke="midnightblue" points="99.75,-24.8 90.44,-19.75 94.57,-29.51 99.75,-24.8"/>
</g>
<!-- Node6 -->
<g id="node6" class="node">
<title>Node6</title>
<g id="a_node6"><a xlink:title=" ">
<polygon fill="none" stroke="#bfbfbf" points="123.5,-0.5 123.5,-19.5 167.5,-19.5 167.5,-0.5 123.5,-0.5"/>
<text text-anchor="middle" x="145.5" y="-7.5" font-family="Helvetica,sans-Serif" font-size="10.00">cmath</text>
</a>
</g>
</g>
<!-- Node4&#45;&gt;Node6 -->
<g id="edge5" class="edge">
<title>Node4&#45;&gt;Node6</title>
<path fill="none" stroke="midnightblue" d="M133.81,-56.08C135.67,-48.93 138.34,-38.64 140.65,-29.69"/>
<polygon fill="midnightblue" stroke="midnightblue" points="144.11,-30.31 143.23,-19.75 137.33,-28.55 144.11,-30.31"/>
</g>
<!-- Node7 -->
<g id="node7" class="node">
<title>Node7</title>
<g id="a_node7"><a xlink:title=" ">
<polygon fill="none" stroke="#bfbfbf" points="185.5,-0.5 185.5,-19.5 235.5,-19.5 235.5,-0.5 185.5,-0.5"/>
<text text-anchor="middle" x="210.5" y="-7.5" font-family="Helvetica,sans-Serif" font-size="10.00">optional</text>
</a>
</g>
</g>
<!-- Node4&#45;&gt;Node7 -->
<g id="edge6" class="edge">
<title>Node4&#45;&gt;Node7</title>
<path fill="none" stroke="midnightblue" d="M144.19,-56.32C156.4,-47.98 175.08,-35.21 189.5,-25.35"/>
<polygon fill="midnightblue" stroke="midnightblue" points="191.56,-28.19 197.84,-19.65 187.61,-22.41 191.56,-28.19"/>
</g>
<!-- Node8 -->
<g id="node8" class="node">
<title>Node8</title>
<g id="a_node8"><a xlink:title=" ">
<polygon fill="none" stroke="#bfbfbf" points="253.5,-0.5 253.5,-19.5 305.5,-19.5 305.5,-0.5 253.5,-0.5"/>
<text text-anchor="middle" x="279.5" y="-7.5" font-family="Helvetica,sans-Serif" font-size="10.00">sstream</text>
</a>
</g>
</g>
<!-- Node4&#45;&gt;Node8 -->
<g id="edge7" class="edge">
<title>Node4&#45;&gt;Node8</title>
<path fill="none" stroke="midnightblue" d="M154.95,-56.44C179.63,-47.44 218.69,-33.19 246.48,-23.05"/>
<polygon fill="midnightblue" stroke="midnightblue" points="247.96,-26.23 256.16,-19.52 245.56,-19.66 247.96,-26.23"/>
</g>
<!-- Node9&#45;&gt;Node4 -->
<g id="edge14" class="edge">
<title>Node9&#45;&gt;Node4</title>
<path fill="none" stroke="midnightblue" d="M251,-112.44C227.42,-103.48 190.18,-89.31 163.54,-79.18"/>
<polygon fill="midnightblue" stroke="midnightblue" points="164.49,-75.8 153.9,-75.52 162,-82.34 164.49,-75.8"/>
</g>
<!-- Node10 -->
<g id="node10" class="node">
<title>Node10</title>
<g id="a_node10"><a xlink:title=" ">
<polygon fill="none" stroke="#bfbfbf" points="191.5,-56.5 191.5,-75.5 253.5,-75.5 253.5,-56.5 191.5,-56.5"/>
<text text-anchor="middle" x="222.5" y="-63.5" font-family="Helvetica,sans-Serif" font-size="10.00">filesystem</text>
</a>
</g>
</g>
<!-- Node9&#45;&gt;Node10 -->
<g id="edge10" class="edge">
<title>Node9&#45;&gt;Node10</title>
<path fill="none" stroke="midnightblue" d="M265.08,-112.08C257.65,-104.22 246.65,-92.57 237.69,-83.08"/>
<polygon fill="midnightblue" stroke="midnightblue" points="240.18,-80.62 230.76,-75.75 235.09,-85.42 240.18,-80.62"/>
</g>
<!-- Node11 -->
<g id="node11" class="node">
<title>Node11</title>
<g id="a_node11"><a xlink:title=" ">
<polygon fill="none" stroke="#bfbfbf" points="272,-56.5 272,-75.5 331,-75.5 331,-56.5 272,-56.5"/>
<text text-anchor="middle" x="301.5" y="-63.5" font-family="Helvetica,sans-Serif" font-size="10.00">functional</text>
</a>
</g>
</g>
<!-- Node9&#45;&gt;Node11 -->
<g id="edge11" class="edge">
<title>Node9&#45;&gt;Node11</title>
<path fill="none" stroke="midnightblue" d="M278.12,-112.08C281.96,-104.69 287.52,-93.95 292.26,-84.81"/>
<polygon fill="midnightblue" stroke="midnightblue" points="295.47,-86.24 296.96,-75.75 289.25,-83.02 295.47,-86.24"/>
</g>
<!-- Node12 -->
<g id="node12" class="node">
<title>Node12</title>
<g id="a_node12"><a xlink:title=" ">
<polygon fill="none" stroke="#bfbfbf" points="349.5,-56.5 349.5,-75.5 389.5,-75.5 389.5,-56.5 349.5,-56.5"/>
<text text-anchor="middle" x="369.5" y="-63.5" font-family="Helvetica,sans-Serif" font-size="10.00">utility</text>
</a>
</g>
</g>
<!-- Node9&#45;&gt;Node12 -->
<g id="edge12" class="edge">
<title>Node9&#45;&gt;Node12</title>
<path fill="none" stroke="midnightblue" d="M288.92,-112.32C304.04,-103.82 327.32,-90.73 344.97,-80.8"/>
<polygon fill="midnightblue" stroke="midnightblue" points="347.11,-83.61 354.11,-75.65 343.68,-77.51 347.11,-83.61"/>
</g>
<!-- Node13 -->
<g id="node13" class="node">
<title>Node13</title>
<g id="a_node13"><a xlink:title=" ">
<polygon fill="none" stroke="#bfbfbf" points="407.5,-56.5 407.5,-75.5 453.5,-75.5 453.5,-56.5 407.5,-56.5"/>
<text text-anchor="middle" x="430.5" y="-63.5" font-family="Helvetica,sans-Serif" font-size="10.00">variant</text>
</a>
</g>
</g>
<!-- Node9&#45;&gt;Node13 -->
<g id="edge13" class="edge">
<title>Node9&#45;&gt;Node13</title>
<path fill="none" stroke="midnightblue" d="M298.38,-112.44C325.26,-103.2 368.2,-88.43 397.79,-78.25"/>
<polygon fill="midnightblue" stroke="midnightblue" points="398.96,-81.55 407.27,-74.99 396.68,-74.93 398.96,-81.55"/>
</g>
<!-- Node14 -->
<g id="node14" class="node">
<title>Node14</title>
<g id="a_node14"><a xlink:href="lang_8hpp.html" target="_top" xlink:title=" ">
<polygon fill="none" stroke="black" points="471.5,-56.5 471.5,-75.5 551.5,-75.5 551.5,-56.5 471.5,-56.5"/>
<text text-anchor="middle" x="511.5" y="-63.5" font-family="Helvetica,sans-Serif" font-size="10.00">plang/lang.hpp</text>
</a>
</g>
</g>
<!-- Node9&#45;&gt;Node14 -->
<g id="edge15" class="edge">
<title>Node9&#45;&gt;Node14</title>
<path fill="none" stroke="midnightblue" d="M311.21,-112.44C352.64,-103.04 419.26,-87.93 464.17,-77.74"/>
<polygon fill="midnightblue" stroke="midnightblue" points="464.99,-81.14 473.96,-75.52 463.44,-74.32 464.99,-81.14"/>
</g>
</g>
</svg>
