<?xml version="1.0" encoding="UTF-8" standalone="no"?>
<!DOCTYPE svg PUBLIC "-//W3C//DTD SVG 1.1//EN"
 "http://www.w3.org/Graphics/SVG/1.1/DTD/svg11.dtd">
<!-- Generated by graphviz version 2.44.1 (20220725.2034)
 -->
<!-- Title: include/plang/corpus/path.hpp Pages: 1 -->
<svg width="574pt" height="207pt"
 viewBox="0.00 0.00 573.50 207.00" xmlns="http://www.w3.org/2000/svg" xmlns:xlink="http://www.w3.org/1999/xlink">
<g id="graph0" class="graph" transform="scale(1 1) rotate(0) translate(4 203)">
<title>include/plang/corpus/path.hpp</title>
<!-- Node1 -->
<g id="node1" class="node">
<title>Node1</title>
<g id="a_node1"><a xlink:title=" ">
<polygon fill="#bfbfbf" stroke="black" points="99.5,-168.5 99.5,-198.5 205.5,-198.5 205.5,-168.5 99.5,-168.5"/>
<text text-anchor="start" x="107.5" y="-186.5" font-family="Helvetica,sans-Serif" font-size="10.00">include/plang/corpus</text>
<text text-anchor="middle" x="152.5" y="-175.5" font-family="Helvetica,sans-Serif" font-size="10.00">/path.hpp</text>
</a>
</g>
</g>
<!-- Node2 -->
<g id="node2" class="node">
<title>Node2</title>
<g id="a_node2"><a xlink:title=" ">
<polygon fill="none" stroke="#bfbfbf" points="0,-0.5 0,-19.5 41,-19.5 41,-0.5 0,-0.5"/>
<text text-anchor="middle" x="20.5" y="-7.5" font-family="Helvetica,sans-Serif" font-size="10.00">string</text>
</a>
</g>
</g>
<!-- Node1&#45;&gt;Node2 -->
<g id="edge1" class="edge">
<title>Node1&#45;&gt;Node2</title>
<path fill="none" stroke="midnightblue" d="M99.34,-170.68C77.58,-163.17 54.12,-151.11 39.5,-132 16.64,-102.12 16.3,-55.76 18.27,-29.96"/>
<polygon fill="midnightblue" stroke="midnightblue" points="21.79,-29.98 19.27,-19.68 14.82,-29.3 21.79,-29.98"/>
</g>
<!-- Node3 -->
<g id="node3" class="node">
<title>Node3</title>
<g id="a_node3"><a xlink:title=" ">
<polygon fill="none" stroke="#bfbfbf" points="48.5,-112.5 48.5,-131.5 92.5,-131.5 92.5,-112.5 48.5,-112.5"/>
<text text-anchor="middle" x="70.5" y="-119.5" font-family="Helvetica,sans-Serif" font-size="10.00">vector</text>
</a>
</g>
</g>
<!-- Node1&#45;&gt;Node3 -->
<g id="edge2" class="edge">
<title>Node1&#45;&gt;Node3</title>
<path fill="none" stroke="midnightblue" d="M133.07,-168.4C120.29,-159.13 103.61,-147.03 90.69,-137.65"/>
<polygon fill="midnightblue" stroke="midnightblue" points="92.58,-134.7 82.43,-131.66 88.47,-140.36 92.58,-134.7"/>
</g>
<!-- Node4 -->
<g id="node4" class="node">
<title>Node4</title>
<g id="a_node4"><a xlink:title=" ">
<polygon fill="none" stroke="#bfbfbf" points="111,-112.5 111,-131.5 194,-131.5 194,-112.5 111,-112.5"/>
<text text-anchor="middle" x="152.5" y="-119.5" font-family="Helvetica,sans-Serif" font-size="10.00">unordered_map</text>
</a>
</g>
</g>
<!-- Node1&#45;&gt;Node4 -->
<g id="edge3" class="edge">
<title>Node1&#45;&gt;Node4</title>
<path fill="none" stroke="midnightblue" d="M152.5,-168.4C152.5,-160.47 152.5,-150.46 152.5,-141.86"/>
<polygon fill="midnightblue" stroke="midnightblue" points="156,-141.66 152.5,-131.66 149,-141.66 156,-141.66"/>
</g>
<!-- Node5 -->
<g id="node5" class="node">
<title>Node5</title>
<g id="a_node5"><a xlink:href="base_8hpp.html" target="_top" xlink:title=" ">
<polygon fill="none" stroke="black" points="104,-56.5 104,-75.5 187,-75.5 187,-56.5 104,-56.5"/>
<text text-anchor="middle" x="145.5" y="-63.5" font-family="Helvetica,sans-Serif" font-size="10.00">plang/base.hpp</text>
</a>
</g>
</g>
<!-- Node1&#45;&gt;Node5 -->
<g id="edge4" class="edge">
<title>Node1&#45;&gt;Node5</title>
<path fill="none" stroke="midnightblue" d="M174.1,-168.27C191.91,-154.64 212.71,-133.07 202.5,-112 196.1,-98.8 183.75,-88.3 172.17,-80.78"/>
<polygon fill="midnightblue" stroke="midnightblue" points="173.95,-77.77 163.58,-75.61 170.34,-83.77 173.95,-77.77"/>
</g>
<!-- Node10 -->
<g id="node10" class="node">
<title>Node10</title>
<g id="a_node10"><a xlink:href="detail_8hpp.html" target="_top" xlink:title=" ">
<polygon fill="none" stroke="black" points="257,-112.5 257,-131.5 374,-131.5 374,-112.5 257,-112.5"/>
<text text-anchor="middle" x="315.5" y="-119.5" font-family="Helvetica,sans-Serif" font-size="10.00">plang/corpus/detail.hpp</text>
</a>
</g>
</g>
<!-- Node1&#45;&gt;Node10 -->
<g id="edge10" class="edge">
<title>Node1&#45;&gt;Node10</title>
<path fill="none" stroke="midnightblue" d="M191.13,-168.4C218.84,-158.28 255.81,-144.79 282.22,-135.15"/>
<polygon fill="midnightblue" stroke="midnightblue" points="283.59,-138.37 291.78,-131.66 281.19,-131.8 283.59,-138.37"/>
</g>
<!-- Node5&#45;&gt;Node2 -->
<g id="edge9" class="edge">
<title>Node5&#45;&gt;Node2</title>
<path fill="none" stroke="midnightblue" d="M125.69,-56.44C105.21,-47.6 73.02,-33.69 49.64,-23.59"/>
<polygon fill="midnightblue" stroke="midnightblue" points="50.78,-20.27 40.21,-19.52 48.01,-26.7 50.78,-20.27"/>
</g>
<!-- Node6 -->
<g id="node6" class="node">
<title>Node6</title>
<g id="a_node6"><a xlink:title=" ">
<polygon fill="none" stroke="#bfbfbf" points="59.5,-0.5 59.5,-19.5 105.5,-19.5 105.5,-0.5 59.5,-0.5"/>
<text text-anchor="middle" x="82.5" y="-7.5" font-family="Helvetica,sans-Serif" font-size="10.00">chrono</text>
</a>
</g>
</g>
<!-- Node5&#45;&gt;Node6 -->
<g id="edge5" class="edge">
<title>Node5&#45;&gt;Node6</title>
<path fill="none" stroke="midnightblue" d="M135.38,-56.32C125.97,-48.26 111.76,-36.08 100.43,-26.37"/>
<polygon fill="midnightblue" stroke="midnightblue" points="102.68,-23.68 92.81,-19.83 98.12,-29 102.68,-23.68"/>
</g>
<!-- Node7 -->
<g id="node7" class="node">
<title>Node7</title>
<g id="a_node7"><a xlink:title=" ">
<polygon fill="none" stroke="#bfbfbf" points="123.5,-0.5 123.5,-19.5 167.5,-19.5 167.5,-0.5 123.5,-0.5"/>
<text text-anchor="middle" x="145.5" y="-7.5" font-family="Helvetica,sans-Serif" font-size="10.00">cmath</text>
</a>
</g>
</g>
<!-- Node5&#45;&gt;Node7 -->
<g id="edge6" class="edge">
<title>Node5&#45;&gt;Node7</title>
<path fill="none" stroke="midnightblue" d="M145.5,-56.08C145.5,-49.01 145.5,-38.86 145.5,-29.99"/>
<polygon fill="midnightblue" stroke="midnightblue" points="149,-29.75 145.5,-19.75 142,-29.75 149,-29.75"/>
</g>
<!-- Node8 -->
<g id="node8" class="node">
<title>Node8</title>
<g id="a_node8"><a xlink:title=" ">
<polygon fill="none" stroke="#bfbfbf" points="185.5,-0.5 185.5,-19.5 235.5,-19.5 235.5,-0.5 185.5,-0.5"/>
<text text-anchor="middle" x="210.5" y="-7.5" font-family="Helvetica,sans-Serif" font-size="10.00">optional</text>
</a>
</g>
</g>
<!-- Node5&#45;&gt;Node8 -->
<g id="edge7" class="edge">
<title>Node5&#45;&gt;Node8</title>
<path fill="none" stroke="midnightblue" d="M155.94,-56.32C165.65,-48.26 180.32,-36.08 192,-26.37"/>
<polygon fill="midnightblue" stroke="midnightblue" points="194.41,-28.92 199.87,-19.83 189.94,-23.53 194.41,-28.92"/>
</g>
<!-- Node9 -->
<g id="node9" class="node">
<title>Node9</title>
<g id="a_node9"><a xlink:title=" ">
<polygon fill="none" stroke="#bfbfbf" points="253.5,-0.5 253.5,-19.5 305.5,-19.5 305.5,-0.5 253.5,-0.5"/>
<text text-anchor="middle" x="279.5" y="-7.5" font-family="Helvetica,sans-Serif" font-size="10.00">sstream</text>
</a>
</g>
</g>
<!-- Node5&#45;&gt;Node9 -->
<g id="edge8" class="edge">
<title>Node5&#45;&gt;Node9</title>
<path fill="none" stroke="midnightblue" d="M166.73,-56.44C188.88,-47.52 223.82,-33.44 248.94,-23.32"/>
<polygon fill="midnightblue" stroke="midnightblue" points="250.4,-26.5 258.37,-19.52 247.78,-20.01 250.4,-26.5"/>
</g>
<!-- Node10&#45;&gt;Node5 -->
<g id="edge15" class="edge">
<title>Node10&#45;&gt;Node5</title>
<path fill="none" stroke="midnightblue" d="M288.56,-112.44C259.84,-103.32 214.17,-88.81 182.18,-78.65"/>
<polygon fill="midnightblue" stroke="midnightblue" points="182.9,-75.21 172.31,-75.52 180.78,-81.88 182.9,-75.21"/>
</g>
<!-- Node11 -->
<g id="node11" class="node">
<title>Node11</title>
<g id="a_node11"><a xlink:title=" ">
<polygon fill="none" stroke="#bfbfbf" points="205.5,-56.5 205.5,-75.5 267.5,-75.5 267.5,-56.5 205.5,-56.5"/>
<text text-anchor="middle" x="236.5" y="-63.5" font-family="Helvetica,sans-Serif" font-size="10.00">filesystem</text>
</a>
</g>
</g>
<!-- Node10&#45;&gt;Node11 -->
<g id="edge11" class="edge">
<title>Node10&#45;&gt;Node11</title>
<path fill="none" stroke="midnightblue" d="M302.81,-112.32C290.6,-103.98 271.92,-91.21 257.5,-81.35"/>
<polygon fill="midnightblue" stroke="midnightblue" points="259.39,-78.41 249.16,-75.65 255.44,-84.19 259.39,-78.41"/>
</g>
<!-- Node12 -->
<g id="node12" class="node">
<title>Node12</title>
<g id="a_node12"><a xlink:title=" ">
<polygon fill="none" stroke="#bfbfbf" points="286,-56.5 286,-75.5 345,-75.5 345,-56.5 286,-56.5"/>
<text text-anchor="middle" x="315.5" y="-63.5" font-family="Helvetica,sans-Serif" font-size="10.00">functional</text>
</a>
</g>
</g>
<!-- Node10&#45;&gt;Node12 -->
<g id="edge12" class="edge">
<title>Node10&#45;&gt;Node12</title>
<path fill="none" stroke="midnightblue" d="M315.5,-112.08C315.5,-105.01 315.5,-94.86 315.5,-85.99"/>
<polygon fill="midnightblue" stroke="midnightblue" points="319,-85.75 315.5,-75.75 312,-85.75 319,-85.75"/>
</g>
<!-- Node13 -->
<g id="node13" class="node">
<title>Node13</title>
<g id="a_node13"><a xlink:title=" ">
<polygon fill="none" stroke="#bfbfbf" points="363.5,-56.5 363.5,-75.5 403.5,-75.5 403.5,-56.5 363.5,-56.5"/>
<text text-anchor="middle" x="383.5" y="-63.5" font-family="Helvetica,sans-Serif" font-size="10.00">utility</text>
</a>
</g>
</g>
<!-- Node10&#45;&gt;Node13 -->
<g id="edge13" class="edge">
<title>Node10&#45;&gt;Node13</title>
<path fill="none" stroke="midnightblue" d="M326.43,-112.32C336.67,-104.18 352.22,-91.84 364.5,-82.09"/>
<polygon fill="midnightblue" stroke="midnightblue" points="366.72,-84.79 372.38,-75.83 362.37,-79.31 366.72,-84.79"/>
</g>
<!-- Node14 -->
<g id="node14" class="node">
<title>Node14</title>
<g id="a_node14"><a xlink:title=" ">
<polygon fill="none" stroke="#bfbfbf" points="421.5,-56.5 421.5,-75.5 467.5,-75.5 467.5,-56.5 421.5,-56.5"/>
<text text-anchor="middle" x="444.5" y="-63.5" font-family="Helvetica,sans-Serif" font-size="10.00">variant</text>
</a>
</g>
</g>
<!-- Node10&#45;&gt;Node14 -->
<g id="edge14" class="edge">
<title>Node10&#45;&gt;Node14</title>
<path fill="none" stroke="midnightblue" d="M335.94,-112.44C357.17,-103.56 390.6,-89.56 414.75,-79.45"/>
<polygon fill="midnightblue" stroke="midnightblue" points="416.28,-82.61 424.16,-75.52 413.58,-76.15 416.28,-82.61"/>
</g>
<!-- Node15 -->
<g id="node15" class="node">
<title>Node15</title>
<g id="a_node15"><a xlink:href="lang_8hpp.html" target="_top" xlink:title=" ">
<polygon fill="none" stroke="black" points="485.5,-56.5 485.5,-75.5 565.5,-75.5 565.5,-56.5 485.5,-56.5"/>
<text text-anchor="middle" x="525.5" y="-63.5" font-family="Helvetica,sans-Serif" font-size="10.00">plang/lang.hpp</text>
</a>
</g>
</g>
<!-- Node10&#45;&gt;Node15 -->
<g id="edge16" class="edge">
<title>Node10&#45;&gt;Node15</title>
<path fill="none" stroke="midnightblue" d="M348.78,-112.44C384.95,-103.14 442.88,-88.25 482.48,-78.06"/>
<polygon fill="midnightblue" stroke="midnightblue" points="483.57,-81.4 492.38,-75.52 481.82,-74.62 483.57,-81.4"/>
</g>
</g>
</svg>
