<?xml version="1.0" encoding="UTF-8" standalone="no"?>
<!DOCTYPE svg PUBLIC "-//W3C//DTD SVG 1.1//EN"
 "http://www.w3.org/Graphics/SVG/1.1/DTD/svg11.dtd">
<!-- Generated by graphviz version 2.44.1 (20220725.2034)
 -->
<!-- Title: include/plang/plot.hpp Pages: 1 -->
<svg width="331pt" height="140pt"
 viewBox="0.00 0.00 330.50 140.00" xmlns="http://www.w3.org/2000/svg" xmlns:xlink="http://www.w3.org/1999/xlink">
<g id="graph0" class="graph" transform="scale(1 1) rotate(0) translate(4 136)">
<title>include/plang/plot.hpp</title>
<!-- Node1 -->
<g id="node1" class="node">
<title>Node1</title>
<g id="a_node1"><a xlink:title=" ">
<polygon fill="#bfbfbf" stroke="black" points="30.5,-112.5 30.5,-131.5 141.5,-131.5 141.5,-112.5 30.5,-112.5"/>
<text text-anchor="middle" x="86" y="-119.5" font-family="Helvetica,sans-Serif" font-size="10.00">include/plang/plot.hpp</text>
</a>
</g>
</g>
<!-- Node2 -->
<g id="node2" class="node">
<title>Node2</title>
<g id="a_node2"><a xlink:title=" ">
<polygon fill="none" stroke="#bfbfbf" points="0,-56.5 0,-75.5 46,-75.5 46,-56.5 0,-56.5"/>
<text text-anchor="middle" x="23" y="-63.5" font-family="Helvetica,sans-Serif" font-size="10.00">variant</text>
</a>
</g>
</g>
<!-- Node1&#45;&gt;Node2 -->
<g id="edge1" class="edge">
<title>Node1&#45;&gt;Node2</title>
<path fill="none" stroke="midnightblue" d="M75.88,-112.32C66.47,-104.26 52.26,-92.08 40.93,-82.37"/>
<polygon fill="midnightblue" stroke="midnightblue" points="43.18,-79.68 33.31,-75.83 38.62,-85 43.18,-79.68"/>
</g>
<!-- Node3 -->
<g id="node3" class="node">
<title>Node3</title>
<g id="a_node3"><a xlink:title=" ">
<polygon fill="none" stroke="#bfbfbf" points="64,-56.5 64,-75.5 108,-75.5 108,-56.5 64,-56.5"/>
<text text-anchor="middle" x="86" y="-63.5" font-family="Helvetica,sans-Serif" font-size="10.00">vector</text>
</a>
</g>
</g>
<!-- Node1&#45;&gt;Node3 -->
<g id="edge2" class="edge">
<title>Node1&#45;&gt;Node3</title>
<path fill="none" stroke="midnightblue" d="M86,-112.08C86,-105.01 86,-94.86 86,-85.99"/>
<polygon fill="midnightblue" stroke="midnightblue" points="89.5,-85.75 86,-75.75 82.5,-85.75 89.5,-85.75"/>
</g>
<!-- Node4 -->
<g id="node4" class="node">
<title>Node4</title>
<g id="a_node4"><a xlink:href="base_8hpp.html" target="_top" xlink:title=" ">
<polygon fill="none" stroke="black" points="126.5,-56.5 126.5,-75.5 209.5,-75.5 209.5,-56.5 126.5,-56.5"/>
<text text-anchor="middle" x="168" y="-63.5" font-family="Helvetica,sans-Serif" font-size="10.00">plang/base.hpp</text>
</a>
</g>
</g>
<!-- Node1&#45;&gt;Node4 -->
<g id="edge3" class="edge">
<title>Node1&#45;&gt;Node4</title>
<path fill="none" stroke="midnightblue" d="M99.17,-112.32C111.85,-103.98 131.23,-91.21 146.21,-81.35"/>
<polygon fill="midnightblue" stroke="midnightblue" points="148.43,-84.08 154.86,-75.65 144.58,-78.23 148.43,-84.08"/>
</g>
<!-- Node5 -->
<g id="node5" class="node">
<title>Node5</title>
<g id="a_node5"><a xlink:title=" ">
<polygon fill="none" stroke="#bfbfbf" points="17,-0.5 17,-19.5 63,-19.5 63,-0.5 17,-0.5"/>
<text text-anchor="middle" x="40" y="-7.5" font-family="Helvetica,sans-Serif" font-size="10.00">chrono</text>
</a>
</g>
</g>
<!-- Node4&#45;&gt;Node5 -->
<g id="edge4" class="edge">
<title>Node4&#45;&gt;Node5</title>
<path fill="none" stroke="midnightblue" d="M147.72,-56.44C126.65,-47.56 93.48,-33.56 69.51,-23.45"/>
<polygon fill="midnightblue" stroke="midnightblue" points="70.76,-20.18 60.19,-19.52 68.04,-26.63 70.76,-20.18"/>
</g>
<!-- Node6 -->
<g id="node6" class="node">
<title>Node6</title>
<g id="a_node6"><a xlink:title=" ">
<polygon fill="none" stroke="#bfbfbf" points="81,-0.5 81,-19.5 125,-19.5 125,-0.5 81,-0.5"/>
<text text-anchor="middle" x="103" y="-7.5" font-family="Helvetica,sans-Serif" font-size="10.00">cmath</text>
</a>
</g>
</g>
<!-- Node4&#45;&gt;Node6 -->
<g id="edge5" class="edge">
<title>Node4&#45;&gt;Node6</title>
<path fill="none" stroke="midnightblue" d="M157.56,-56.32C147.85,-48.26 133.18,-36.08 121.5,-26.37"/>
<polygon fill="midnightblue" stroke="midnightblue" points="123.56,-23.53 113.63,-19.83 119.09,-28.92 123.56,-23.53"/>
</g>
<!-- Node7 -->
<g id="node7" class="node">
<title>Node7</title>
<g id="a_node7"><a xlink:title=" ">
<polygon fill="none" stroke="#bfbfbf" points="143,-0.5 143,-19.5 193,-19.5 193,-0.5 143,-0.5"/>
<text text-anchor="middle" x="168" y="-7.5" font-family="Helvetica,sans-Serif" font-size="10.00">optional</text>
</a>
</g>
</g>
<!-- Node4&#45;&gt;Node7 -->
<g id="edge6" class="edge">
<title>Node4&#45;&gt;Node7</title>
<path fill="none" stroke="midnightblue" d="M168,-56.08C168,-49.01 168,-38.86 168,-29.99"/>
<polygon fill="midnightblue" stroke="midnightblue" points="171.5,-29.75 168,-19.75 164.5,-29.75 171.5,-29.75"/>
</g>
<!-- Node8 -->
<g id="node8" class="node">
<title>Node8</title>
<g id="a_node8"><a xlink:title=" ">
<polygon fill="none" stroke="#bfbfbf" points="211,-0.5 211,-19.5 263,-19.5 263,-0.5 211,-0.5"/>
<text text-anchor="middle" x="237" y="-7.5" font-family="Helvetica,sans-Serif" font-size="10.00">sstream</text>
</a>
</g>
</g>
<!-- Node4&#45;&gt;Node8 -->
<g id="edge7" class="edge">
<title>Node4&#45;&gt;Node8</title>
<path fill="none" stroke="midnightblue" d="M179.09,-56.32C189.49,-48.18 205.26,-35.84 217.72,-26.09"/>
<polygon fill="midnightblue" stroke="midnightblue" points="219.99,-28.75 225.71,-19.83 215.68,-23.24 219.99,-28.75"/>
</g>
<!-- Node9 -->
<g id="node9" class="node">
<title>Node9</title>
<g id="a_node9"><a xlink:title=" ">
<polygon fill="none" stroke="#bfbfbf" points="281.5,-0.5 281.5,-19.5 322.5,-19.5 322.5,-0.5 281.5,-0.5"/>
<text text-anchor="middle" x="302" y="-7.5" font-family="Helvetica,sans-Serif" font-size="10.00">string</text>
</a>
</g>
</g>
<!-- Node4&#45;&gt;Node9 -->
<g id="edge8" class="edge">
<title>Node4&#45;&gt;Node9</title>
<path fill="none" stroke="midnightblue" d="M189.23,-56.44C211.51,-47.46 246.73,-33.27 271.88,-23.14"/>
<polygon fill="midnightblue" stroke="midnightblue" points="273.34,-26.32 281.31,-19.34 270.72,-19.83 273.34,-26.32"/>
</g>
</g>
</svg>
