<?xml version="1.0" encoding="UTF-8" standalone="no"?>
<!DOCTYPE svg PUBLIC "-//W3C//DTD SVG 1.1//EN"
 "http://www.w3.org/Graphics/SVG/1.1/DTD/svg11.dtd">
<!-- Generated by graphviz version 2.44.1 (20220725.2034)
 -->
<!-- Title: include/plang/plot.hpp Pages: 1 -->
<svg width="327pt" height="408pt"
 viewBox="0.00 0.00 326.50 408.00" xmlns="http://www.w3.org/2000/svg" xmlns:xlink="http://www.w3.org/1999/xlink">
<g id="graph0" class="graph" transform="scale(1 1) rotate(0) translate(4 404)">
<title>include/plang/plot.hpp</title>
<!-- Node1 -->
<g id="node1" class="node">
<title>Node1</title>
<g id="a_node1"><a xlink:title=" ">
<polygon fill="#bfbfbf" stroke="black" points="88,-380.5 88,-399.5 199,-399.5 199,-380.5 88,-380.5"/>
<text text-anchor="middle" x="143.5" y="-387.5" font-family="Helvetica,sans-Serif" font-size="10.00">include/plang/plot.hpp</text>
</a>
</g>
</g>
<!-- Node2 -->
<g id="node2" class="node">
<title>Node2</title>
<g id="a_node2"><a xlink:href="corpus_8hpp.html" target="_top" xlink:title=" ">
<polygon fill="none" stroke="black" points="0,-56.5 0,-75.5 125,-75.5 125,-56.5 0,-56.5"/>
<text text-anchor="middle" x="62.5" y="-63.5" font-family="Helvetica,sans-Serif" font-size="10.00">include/plang/corpus.hpp</text>
</a>
</g>
</g>
<!-- Node1&#45;&gt;Node2 -->
<g id="edge1" class="edge">
<title>Node1&#45;&gt;Node2</title>
<path fill="none" stroke="midnightblue" d="M116.14,-375.72C80.45,-356.25 22.5,-316.34 22.5,-262.5 22.5,-262.5 22.5,-262.5 22.5,-193.5 22.5,-147.2 47.16,-95.62 57.75,-75.6"/>
<polygon fill="midnightblue" stroke="midnightblue" points="114.64,-378.88 125.12,-380.44 117.9,-372.69 114.64,-378.88"/>
</g>
<!-- Node4 -->
<g id="node4" class="node">
<title>Node4</title>
<g id="a_node4"><a xlink:href="object_8hpp.html" target="_top" xlink:title=" ">
<polygon fill="none" stroke="black" points="212.5,-246.5 212.5,-276.5 318.5,-276.5 318.5,-246.5 212.5,-246.5"/>
<text text-anchor="start" x="220.5" y="-264.5" font-family="Helvetica,sans-Serif" font-size="10.00">include/plang/corpus</text>
<text text-anchor="middle" x="265.5" y="-253.5" font-family="Helvetica,sans-Serif" font-size="10.00">/plot/object.hpp</text>
</a>
</g>
</g>
<!-- Node1&#45;&gt;Node4 -->
<g id="edge3" class="edge">
<title>Node1&#45;&gt;Node4</title>
<path fill="none" stroke="midnightblue" d="M194.28,-377.22C213.17,-370.44 233.21,-359.97 246.5,-344 262.58,-324.68 265.6,-294.25 265.87,-276.55"/>
<polygon fill="midnightblue" stroke="midnightblue" points="192.95,-373.97 184.55,-380.44 195.15,-380.62 192.95,-373.97"/>
</g>
<!-- Node6 -->
<g id="node6" class="node">
<title>Node6</title>
<g id="a_node6"><a xlink:href="point_8hpp.html" target="_top" xlink:title=" ">
<polygon fill="none" stroke="black" points="50.5,-179.5 50.5,-209.5 156.5,-209.5 156.5,-179.5 50.5,-179.5"/>
<text text-anchor="start" x="58.5" y="-197.5" font-family="Helvetica,sans-Serif" font-size="10.00">include/plang/corpus</text>
<text text-anchor="middle" x="103.5" y="-186.5" font-family="Helvetica,sans-Serif" font-size="10.00">/plot/point.hpp</text>
</a>
</g>
</g>
<!-- Node1&#45;&gt;Node6 -->
<g id="edge8" class="edge">
<title>Node1&#45;&gt;Node6</title>
<path fill="none" stroke="midnightblue" d="M133.78,-371.48C129.68,-363.35 125.23,-353.42 122.5,-344 108.62,-296.07 104.87,-236.5 103.87,-209.72"/>
<polygon fill="midnightblue" stroke="midnightblue" points="130.7,-373.15 138.47,-380.35 136.89,-369.88 130.7,-373.15"/>
</g>
<!-- Node7 -->
<g id="node7" class="node">
<title>Node7</title>
<g id="a_node7"><a xlink:href="symbol_8hpp.html" target="_top" xlink:title=" ">
<polygon fill="none" stroke="black" points="131.5,-313.5 131.5,-343.5 237.5,-343.5 237.5,-313.5 131.5,-313.5"/>
<text text-anchor="start" x="139.5" y="-331.5" font-family="Helvetica,sans-Serif" font-size="10.00">include/plang/corpus</text>
<text text-anchor="middle" x="184.5" y="-320.5" font-family="Helvetica,sans-Serif" font-size="10.00">/plot/symbol.hpp</text>
</a>
</g>
</g>
<!-- Node1&#45;&gt;Node7 -->
<g id="edge9" class="edge">
<title>Node1&#45;&gt;Node7</title>
<path fill="none" stroke="midnightblue" d="M155.24,-371.96C161.45,-362.96 168.97,-352.03 174.84,-343.52"/>
<polygon fill="midnightblue" stroke="midnightblue" points="152.17,-370.25 149.37,-380.48 157.93,-374.23 152.17,-370.25"/>
</g>
<!-- Node3 -->
<g id="node3" class="node">
<title>Node3</title>
<g id="a_node3"><a xlink:href="cli_8hpp.html" target="_top" xlink:title=" ">
<polygon fill="none" stroke="black" points="5,-0.5 5,-19.5 120,-19.5 120,-0.5 5,-0.5"/>
<text text-anchor="middle" x="62.5" y="-7.5" font-family="Helvetica,sans-Serif" font-size="10.00">include/plangcli/cli.hpp</text>
</a>
</g>
</g>
<!-- Node2&#45;&gt;Node3 -->
<g id="edge2" class="edge">
<title>Node2&#45;&gt;Node3</title>
<path fill="none" stroke="midnightblue" d="M62.5,-45.8C62.5,-36.91 62.5,-26.78 62.5,-19.75"/>
<polygon fill="midnightblue" stroke="midnightblue" points="59,-46.08 62.5,-56.08 66,-46.08 59,-46.08"/>
</g>
<!-- Node5 -->
<g id="node5" class="node">
<title>Node5</title>
<g id="a_node5"><a xlink:href="corpus_2plot_8hpp.html" target="_top" xlink:title=" ">
<polygon fill="none" stroke="black" points="90.5,-112.5 90.5,-142.5 196.5,-142.5 196.5,-112.5 90.5,-112.5"/>
<text text-anchor="start" x="98.5" y="-130.5" font-family="Helvetica,sans-Serif" font-size="10.00">include/plang/corpus</text>
<text text-anchor="middle" x="143.5" y="-119.5" font-family="Helvetica,sans-Serif" font-size="10.00">/plot.hpp</text>
</a>
</g>
</g>
<!-- Node4&#45;&gt;Node5 -->
<g id="edge4" class="edge">
<title>Node4&#45;&gt;Node5</title>
<path fill="none" stroke="midnightblue" d="M248.64,-238.32C235.54,-221.52 216.62,-198.14 198.5,-179 186.2,-166.01 171.18,-152.35 159.94,-142.52"/>
<polygon fill="midnightblue" stroke="midnightblue" points="246.04,-240.68 254.92,-246.45 251.57,-236.4 246.04,-240.68"/>
</g>
<!-- Node4&#45;&gt;Node6 -->
<g id="edge6" class="edge">
<title>Node4&#45;&gt;Node6</title>
<path fill="none" stroke="midnightblue" d="M220.75,-242.54C194.83,-232.14 162.66,-219.24 138.58,-209.58"/>
<polygon fill="midnightblue" stroke="midnightblue" points="219.76,-245.92 230.35,-246.4 222.37,-239.42 219.76,-245.92"/>
</g>
<!-- Node5&#45;&gt;Node2 -->
<g id="edge5" class="edge">
<title>Node5&#45;&gt;Node2</title>
<path fill="none" stroke="midnightblue" d="M115.85,-106.19C101.67,-95.77 85.14,-83.63 74.29,-75.66"/>
<polygon fill="midnightblue" stroke="midnightblue" points="114.17,-109.3 124.3,-112.4 118.32,-103.66 114.17,-109.3"/>
</g>
<!-- Node6&#45;&gt;Node5 -->
<g id="edge7" class="edge">
<title>Node6&#45;&gt;Node5</title>
<path fill="none" stroke="midnightblue" d="M117.43,-170.87C123.22,-161.46 129.76,-150.83 134.84,-142.58"/>
<polygon fill="midnightblue" stroke="midnightblue" points="114.44,-169.05 112.18,-179.4 120.4,-172.71 114.44,-169.05"/>
</g>
<!-- Node7&#45;&gt;Node4 -->
<g id="edge11" class="edge">
<title>Node7&#45;&gt;Node4</title>
<path fill="none" stroke="midnightblue" d="M210.19,-306.88C222.5,-297.01 236.93,-285.43 247.96,-276.58"/>
<polygon fill="midnightblue" stroke="midnightblue" points="207.68,-304.41 202.08,-313.4 212.07,-309.87 207.68,-304.41"/>
</g>
<!-- Node7&#45;&gt;Node5 -->
<g id="edge10" class="edge">
<title>Node7&#45;&gt;Node5</title>
<path fill="none" stroke="midnightblue" d="M183.49,-303.04C181.78,-273.26 177.26,-221.66 165.5,-179 161.99,-166.28 155.87,-152.6 150.98,-142.69"/>
<polygon fill="midnightblue" stroke="midnightblue" points="180.01,-303.51 184.02,-313.32 187,-303.15 180.01,-303.51"/>
</g>
<!-- Node7&#45;&gt;Node6 -->
<g id="edge12" class="edge">
<title>Node7&#45;&gt;Node6</title>
<path fill="none" stroke="midnightblue" d="M170.59,-304.83C153.8,-277.47 126.07,-232.28 112.11,-209.52"/>
<polygon fill="midnightblue" stroke="midnightblue" points="167.62,-306.68 175.83,-313.37 173.58,-303.02 167.62,-306.68"/>
</g>
</g>
</svg>
