<?xml version="1.0" encoding="UTF-8" standalone="no"?>
<!DOCTYPE svg PUBLIC "-//W3C//DTD SVG 1.1//EN"
 "http://www.w3.org/Graphics/SVG/1.1/DTD/svg11.dtd">
<!-- Generated by graphviz version 2.44.1 (20220725.2034)
 -->
<!-- Title: include/plang/corpus/plot/point.hpp Pages: 1 -->
<svg width="831pt" height="375pt"
 viewBox="0.00 0.00 831.03 375.00" xmlns="http://www.w3.org/2000/svg" xmlns:xlink="http://www.w3.org/1999/xlink">
<g id="graph0" class="graph" transform="scale(1 1) rotate(0) translate(4 371)">
<title>include/plang/corpus/plot/point.hpp</title>
<!-- Node1 -->
<g id="node1" class="node">
<title>Node1</title>
<g id="a_node1"><a xlink:title=" ">
<polygon fill="#bfbfbf" stroke="black" points="349,-336.5 349,-366.5 455,-366.5 455,-336.5 349,-336.5"/>
<text text-anchor="start" x="357" y="-354.5" font-family="Helvetica,sans-Serif" font-size="10.00">include/plang/corpus</text>
<text text-anchor="middle" x="402" y="-343.5" font-family="Helvetica,sans-Serif" font-size="10.00">/plot/point.hpp</text>
</a>
</g>
</g>
<!-- Node2 -->
<g id="node2" class="node">
<title>Node2</title>
<g id="a_node2"><a xlink:title=" ">
<polygon fill="none" stroke="#bfbfbf" points="351.5,-0.5 351.5,-19.5 392.5,-19.5 392.5,-0.5 351.5,-0.5"/>
<text text-anchor="middle" x="372" y="-7.5" font-family="Helvetica,sans-Serif" font-size="10.00">string</text>
</a>
</g>
</g>
<!-- Node1&#45;&gt;Node2 -->
<g id="edge1" class="edge">
<title>Node1&#45;&gt;Node2</title>
<path fill="none" stroke="midnightblue" d="M455.19,-347.06C568.21,-338.3 822,-310.25 822,-235 822,-235 822,-235 822,-121 822,-90.9 826.11,-75.28 803,-56 772.37,-30.45 496.63,-16.35 402.97,-12.26"/>
<polygon fill="midnightblue" stroke="midnightblue" points="402.87,-8.75 392.73,-11.82 402.57,-15.75 402.87,-8.75"/>
</g>
<!-- Node3 -->
<g id="node3" class="node">
<title>Node3</title>
<g id="a_node3"><a xlink:title=" ">
<polygon fill="none" stroke="#bfbfbf" points="209,-112.5 209,-131.5 253,-131.5 253,-112.5 209,-112.5"/>
<text text-anchor="middle" x="231" y="-119.5" font-family="Helvetica,sans-Serif" font-size="10.00">vector</text>
</a>
</g>
</g>
<!-- Node1&#45;&gt;Node3 -->
<g id="edge2" class="edge">
<title>Node1&#45;&gt;Node3</title>
<path fill="none" stroke="midnightblue" d="M348.95,-345.88C305.79,-340.19 244.61,-327.62 198,-300 139.82,-265.52 119.57,-251.01 95,-188 77.76,-143.78 153.21,-129.59 198.67,-125.08"/>
<polygon fill="midnightblue" stroke="midnightblue" points="199.04,-128.56 208.69,-124.19 198.42,-121.59 199.04,-128.56"/>
</g>
<!-- Node4 -->
<g id="node4" class="node">
<title>Node4</title>
<g id="a_node4"><a xlink:title=" ">
<polygon fill="none" stroke="#bfbfbf" points="390.5,-112.5 390.5,-131.5 473.5,-131.5 473.5,-112.5 390.5,-112.5"/>
<text text-anchor="middle" x="432" y="-119.5" font-family="Helvetica,sans-Serif" font-size="10.00">unordered_map</text>
</a>
</g>
</g>
<!-- Node1&#45;&gt;Node4 -->
<g id="edge3" class="edge">
<title>Node1&#45;&gt;Node4</title>
<path fill="none" stroke="midnightblue" d="M430.58,-336.42C474.66,-312.84 557.33,-260.69 588,-188 606.87,-143.27 536.18,-129.21 483.81,-124.86"/>
<polygon fill="midnightblue" stroke="midnightblue" points="483.84,-121.35 473.61,-124.11 483.33,-128.33 483.84,-121.35"/>
</g>
<!-- Node5 -->
<g id="node5" class="node">
<title>Node5</title>
<g id="a_node5"><a xlink:href="base_8hpp.html" target="_top" xlink:title=" ">
<polygon fill="none" stroke="black" points="201.5,-56.5 201.5,-75.5 284.5,-75.5 284.5,-56.5 201.5,-56.5"/>
<text text-anchor="middle" x="243" y="-63.5" font-family="Helvetica,sans-Serif" font-size="10.00">plang/base.hpp</text>
</a>
</g>
</g>
<!-- Node1&#45;&gt;Node5 -->
<g id="edge4" class="edge">
<title>Node1&#45;&gt;Node5</title>
<path fill="none" stroke="midnightblue" d="M348.62,-346.4C239.27,-336.52 0,-306.71 0,-235 0,-235 0,-235 0,-177 0,-93.8 119.69,-73.2 191.07,-68.32"/>
<polygon fill="midnightblue" stroke="midnightblue" points="191.46,-71.8 201.23,-67.7 191.03,-64.81 191.46,-71.8"/>
</g>
<!-- Node10 -->
<g id="node10" class="node">
<title>Node10</title>
<g id="a_node10"><a xlink:href="detail_8hpp.html" target="_top" xlink:title=" ">
<polygon fill="none" stroke="black" points="568.5,-112.5 568.5,-131.5 685.5,-131.5 685.5,-112.5 568.5,-112.5"/>
<text text-anchor="middle" x="627" y="-119.5" font-family="Helvetica,sans-Serif" font-size="10.00">plang/corpus/detail.hpp</text>
</a>
</g>
</g>
<!-- Node1&#45;&gt;Node10 -->
<g id="edge10" class="edge">
<title>Node1&#45;&gt;Node10</title>
<path fill="none" stroke="midnightblue" d="M442.83,-336.44C465.4,-327.7 493.37,-315.23 516,-300 575.19,-260.16 603.41,-253.79 631,-188 637.15,-173.34 635.34,-155.17 632.45,-141.77"/>
<polygon fill="midnightblue" stroke="midnightblue" points="635.78,-140.66 629.93,-131.82 628.99,-142.38 635.78,-140.66"/>
</g>
<!-- Node16 -->
<g id="node16" class="node">
<title>Node16</title>
<g id="a_node16"><a xlink:href="path_8hpp.html" target="_top" xlink:title=" ">
<polygon fill="none" stroke="black" points="466.5,-168.5 466.5,-187.5 579.5,-187.5 579.5,-168.5 466.5,-168.5"/>
<text text-anchor="middle" x="523" y="-175.5" font-family="Helvetica,sans-Serif" font-size="10.00">plang/corpus/path.hpp</text>
</a>
</g>
</g>
<!-- Node1&#45;&gt;Node16 -->
<g id="edge17" class="edge">
<title>Node1&#45;&gt;Node16</title>
<path fill="none" stroke="midnightblue" d="M416.34,-336.36C435.56,-316.86 469.91,-280.04 493,-244 502.52,-229.14 510.71,-210.76 516.12,-197.34"/>
<polygon fill="midnightblue" stroke="midnightblue" points="519.46,-198.39 519.83,-187.8 512.94,-195.85 519.46,-198.39"/>
</g>
<!-- Node17 -->
<g id="node17" class="node">
<title>Node17</title>
<g id="a_node17"><a xlink:href="symbol_8hpp.html" target="_top" xlink:title=" ">
<polygon fill="none" stroke="black" points="281,-224.5 281,-243.5 425,-243.5 425,-224.5 281,-224.5"/>
<text text-anchor="middle" x="353" y="-231.5" font-family="Helvetica,sans-Serif" font-size="10.00">plang/corpus/plot/symbol.hpp</text>
</a>
</g>
</g>
<!-- Node1&#45;&gt;Node17 -->
<g id="edge23" class="edge">
<title>Node1&#45;&gt;Node17</title>
<path fill="none" stroke="midnightblue" d="M399.27,-336.29C396.17,-321.74 390.44,-298.67 382,-280 377.55,-270.15 371.16,-259.97 365.51,-251.79"/>
<polygon fill="midnightblue" stroke="midnightblue" points="368.26,-249.61 359.59,-243.52 362.57,-253.69 368.26,-249.61"/>
</g>
<!-- Node18 -->
<g id="node18" class="node">
<title>Node18</title>
<g id="a_node18"><a xlink:href="plot_8hpp.html" target="_top" xlink:title=" ">
<polygon fill="none" stroke="black" points="104.5,-168.5 104.5,-187.5 181.5,-187.5 181.5,-168.5 104.5,-168.5"/>
<text text-anchor="middle" x="143" y="-175.5" font-family="Helvetica,sans-Serif" font-size="10.00">plang/plot.hpp</text>
</a>
</g>
</g>
<!-- Node1&#45;&gt;Node18 -->
<g id="edge43" class="edge">
<title>Node1&#45;&gt;Node18</title>
<path fill="none" stroke="midnightblue" d="M348.79,-343.47C311.83,-336.72 262.65,-323.87 225,-300 185.83,-275.17 160.8,-224.13 149.68,-196.96"/>
<polygon fill="midnightblue" stroke="midnightblue" points="152.89,-195.55 145.99,-187.51 146.37,-198.1 152.89,-195.55"/>
</g>
<!-- Node19 -->
<g id="node19" class="node">
<title>Node19</title>
<g id="a_node19"><a xlink:href="object_8hpp.html" target="_top" xlink:title=" ">
<polygon fill="none" stroke="black" points="234.5,-280.5 234.5,-299.5 373.5,-299.5 373.5,-280.5 234.5,-280.5"/>
<text text-anchor="middle" x="304" y="-287.5" font-family="Helvetica,sans-Serif" font-size="10.00">plang/corpus/plot/object.hpp</text>
</a>
</g>
</g>
<!-- Node1&#45;&gt;Node19 -->
<g id="edge34" class="edge">
<title>Node1&#45;&gt;Node19</title>
<path fill="none" stroke="midnightblue" d="M378.78,-336.4C363.21,-326.95 342.8,-314.56 327.24,-305.11"/>
<polygon fill="midnightblue" stroke="midnightblue" points="328.62,-301.86 318.26,-299.66 324.99,-307.84 328.62,-301.86"/>
</g>
<!-- Node5&#45;&gt;Node2 -->
<g id="edge9" class="edge">
<title>Node5&#45;&gt;Node2</title>
<path fill="none" stroke="midnightblue" d="M263.44,-56.44C284.67,-47.56 318.1,-33.56 342.25,-23.45"/>
<polygon fill="midnightblue" stroke="midnightblue" points="343.78,-26.61 351.66,-19.52 341.08,-20.15 343.78,-26.61"/>
</g>
<!-- Node6 -->
<g id="node6" class="node">
<title>Node6</title>
<g id="a_node6"><a xlink:title=" ">
<polygon fill="none" stroke="#bfbfbf" points="287,-0.5 287,-19.5 333,-19.5 333,-0.5 287,-0.5"/>
<text text-anchor="middle" x="310" y="-7.5" font-family="Helvetica,sans-Serif" font-size="10.00">chrono</text>
</a>
</g>
</g>
<!-- Node5&#45;&gt;Node6 -->
<g id="edge5" class="edge">
<title>Node5&#45;&gt;Node6</title>
<path fill="none" stroke="midnightblue" d="M253.76,-56.32C263.77,-48.26 278.89,-36.08 290.93,-26.37"/>
<polygon fill="midnightblue" stroke="midnightblue" points="293.45,-28.83 299.04,-19.83 289.06,-23.38 293.45,-28.83"/>
</g>
<!-- Node7 -->
<g id="node7" class="node">
<title>Node7</title>
<g id="a_node7"><a xlink:title=" ">
<polygon fill="none" stroke="#bfbfbf" points="87,-0.5 87,-19.5 131,-19.5 131,-0.5 87,-0.5"/>
<text text-anchor="middle" x="109" y="-7.5" font-family="Helvetica,sans-Serif" font-size="10.00">cmath</text>
</a>
</g>
</g>
<!-- Node5&#45;&gt;Node7 -->
<g id="edge6" class="edge">
<title>Node5&#45;&gt;Node7</title>
<path fill="none" stroke="midnightblue" d="M221.77,-56.44C199.62,-47.52 164.68,-33.44 139.56,-23.32"/>
<polygon fill="midnightblue" stroke="midnightblue" points="140.72,-20.01 130.13,-19.52 138.1,-26.5 140.72,-20.01"/>
</g>
<!-- Node8 -->
<g id="node8" class="node">
<title>Node8</title>
<g id="a_node8"><a xlink:title=" ">
<polygon fill="none" stroke="#bfbfbf" points="149,-0.5 149,-19.5 199,-19.5 199,-0.5 149,-0.5"/>
<text text-anchor="middle" x="174" y="-7.5" font-family="Helvetica,sans-Serif" font-size="10.00">optional</text>
</a>
</g>
</g>
<!-- Node5&#45;&gt;Node8 -->
<g id="edge7" class="edge">
<title>Node5&#45;&gt;Node8</title>
<path fill="none" stroke="midnightblue" d="M231.91,-56.32C221.51,-48.18 205.74,-35.84 193.28,-26.09"/>
<polygon fill="midnightblue" stroke="midnightblue" points="195.32,-23.24 185.29,-19.83 191.01,-28.75 195.32,-23.24"/>
</g>
<!-- Node9 -->
<g id="node9" class="node">
<title>Node9</title>
<g id="a_node9"><a xlink:title=" ">
<polygon fill="none" stroke="#bfbfbf" points="217,-0.5 217,-19.5 269,-19.5 269,-0.5 217,-0.5"/>
<text text-anchor="middle" x="243" y="-7.5" font-family="Helvetica,sans-Serif" font-size="10.00">sstream</text>
</a>
</g>
</g>
<!-- Node5&#45;&gt;Node9 -->
<g id="edge8" class="edge">
<title>Node5&#45;&gt;Node9</title>
<path fill="none" stroke="midnightblue" d="M243,-56.08C243,-49.01 243,-38.86 243,-29.99"/>
<polygon fill="midnightblue" stroke="midnightblue" points="246.5,-29.75 243,-19.75 239.5,-29.75 246.5,-29.75"/>
</g>
<!-- Node10&#45;&gt;Node5 -->
<g id="edge15" class="edge">
<title>Node10&#45;&gt;Node5</title>
<path fill="none" stroke="midnightblue" d="M568.26,-112.74C493.57,-102.24 365.78,-84.27 294.65,-74.26"/>
<polygon fill="midnightblue" stroke="midnightblue" points="294.96,-70.77 284.57,-72.85 293.99,-77.7 294.96,-70.77"/>
</g>
<!-- Node11 -->
<g id="node11" class="node">
<title>Node11</title>
<g id="a_node11"><a xlink:title=" ">
<polygon fill="none" stroke="#bfbfbf" points="596,-56.5 596,-75.5 658,-75.5 658,-56.5 596,-56.5"/>
<text text-anchor="middle" x="627" y="-63.5" font-family="Helvetica,sans-Serif" font-size="10.00">filesystem</text>
</a>
</g>
</g>
<!-- Node10&#45;&gt;Node11 -->
<g id="edge11" class="edge">
<title>Node10&#45;&gt;Node11</title>
<path fill="none" stroke="midnightblue" d="M627,-112.08C627,-105.01 627,-94.86 627,-85.99"/>
<polygon fill="midnightblue" stroke="midnightblue" points="630.5,-85.75 627,-75.75 623.5,-85.75 630.5,-85.75"/>
</g>
<!-- Node12 -->
<g id="node12" class="node">
<title>Node12</title>
<g id="a_node12"><a xlink:title=" ">
<polygon fill="none" stroke="#bfbfbf" points="676.5,-56.5 676.5,-75.5 735.5,-75.5 735.5,-56.5 676.5,-56.5"/>
<text text-anchor="middle" x="706" y="-63.5" font-family="Helvetica,sans-Serif" font-size="10.00">functional</text>
</a>
</g>
</g>
<!-- Node10&#45;&gt;Node12 -->
<g id="edge12" class="edge">
<title>Node10&#45;&gt;Node12</title>
<path fill="none" stroke="midnightblue" d="M639.69,-112.32C651.9,-103.98 670.58,-91.21 685,-81.35"/>
<polygon fill="midnightblue" stroke="midnightblue" points="687.06,-84.19 693.34,-75.65 683.11,-78.41 687.06,-84.19"/>
</g>
<!-- Node13 -->
<g id="node13" class="node">
<title>Node13</title>
<g id="a_node13"><a xlink:title=" ">
<polygon fill="none" stroke="#bfbfbf" points="754,-56.5 754,-75.5 794,-75.5 794,-56.5 754,-56.5"/>
<text text-anchor="middle" x="774" y="-63.5" font-family="Helvetica,sans-Serif" font-size="10.00">utility</text>
</a>
</g>
</g>
<!-- Node10&#45;&gt;Node13 -->
<g id="edge13" class="edge">
<title>Node10&#45;&gt;Node13</title>
<path fill="none" stroke="midnightblue" d="M650.29,-112.44C675.67,-103.12 716.35,-88.18 744.08,-77.99"/>
<polygon fill="midnightblue" stroke="midnightblue" points="745.48,-81.21 753.66,-74.47 743.06,-74.64 745.48,-81.21"/>
</g>
<!-- Node14 -->
<g id="node14" class="node">
<title>Node14</title>
<g id="a_node14"><a xlink:title=" ">
<polygon fill="none" stroke="#bfbfbf" points="393,-56.5 393,-75.5 439,-75.5 439,-56.5 393,-56.5"/>
<text text-anchor="middle" x="416" y="-63.5" font-family="Helvetica,sans-Serif" font-size="10.00">variant</text>
</a>
</g>
</g>
<!-- Node10&#45;&gt;Node14 -->
<g id="edge14" class="edge">
<title>Node10&#45;&gt;Node14</title>
<path fill="none" stroke="midnightblue" d="M593.57,-112.44C553.99,-102.32 488.5,-85.55 449.08,-75.47"/>
<polygon fill="midnightblue" stroke="midnightblue" points="449.73,-72.02 439.17,-72.93 447.99,-78.8 449.73,-72.02"/>
</g>
<!-- Node15 -->
<g id="node15" class="node">
<title>Node15</title>
<g id="a_node15"><a xlink:href="lang_8hpp.html" target="_top" xlink:title=" ">
<polygon fill="none" stroke="black" points="498,-56.5 498,-75.5 578,-75.5 578,-56.5 498,-56.5"/>
<text text-anchor="middle" x="538" y="-63.5" font-family="Helvetica,sans-Serif" font-size="10.00">plang/lang.hpp</text>
</a>
</g>
</g>
<!-- Node10&#45;&gt;Node15 -->
<g id="edge16" class="edge">
<title>Node10&#45;&gt;Node15</title>
<path fill="none" stroke="midnightblue" d="M612.7,-112.32C598.82,-103.9 577.51,-90.97 561.2,-81.07"/>
<polygon fill="midnightblue" stroke="midnightblue" points="562.63,-77.85 552.26,-75.65 559,-83.83 562.63,-77.85"/>
</g>
<!-- Node16&#45;&gt;Node2 -->
<g id="edge18" class="edge">
<title>Node16&#45;&gt;Node2</title>
<path fill="none" stroke="midnightblue" d="M522.25,-168.44C520.79,-155.45 516.72,-130.32 506,-112 481.6,-70.3 432.58,-40.24 401.07,-24.24"/>
<polygon fill="midnightblue" stroke="midnightblue" points="402.42,-21 391.91,-19.73 399.33,-27.29 402.42,-21"/>
</g>
<!-- Node16&#45;&gt;Node3 -->
<g id="edge19" class="edge">
<title>Node16&#45;&gt;Node3</title>
<path fill="none" stroke="midnightblue" d="M476.73,-168.44C417.15,-157.43 315.14,-138.56 263.29,-128.97"/>
<polygon fill="midnightblue" stroke="midnightblue" points="263.79,-125.5 253.32,-127.13 262.52,-132.39 263.79,-125.5"/>
</g>
<!-- Node16&#45;&gt;Node4 -->
<g id="edge20" class="edge">
<title>Node16&#45;&gt;Node4</title>
<path fill="none" stroke="midnightblue" d="M508.38,-168.32C494.05,-159.82 471.99,-146.73 455.25,-136.8"/>
<polygon fill="midnightblue" stroke="midnightblue" points="456.97,-133.75 446.58,-131.65 453.4,-139.77 456.97,-133.75"/>
</g>
<!-- Node16&#45;&gt;Node5 -->
<g id="edge21" class="edge">
<title>Node16&#45;&gt;Node5</title>
<path fill="none" stroke="midnightblue" d="M520.08,-168.21C514.87,-153.94 502.52,-125.95 482,-112 452.21,-91.75 355.96,-78.5 295.07,-71.92"/>
<polygon fill="midnightblue" stroke="midnightblue" points="295.19,-68.41 284.88,-70.84 294.46,-75.37 295.19,-68.41"/>
</g>
<!-- Node16&#45;&gt;Node10 -->
<g id="edge22" class="edge">
<title>Node16&#45;&gt;Node10</title>
<path fill="none" stroke="midnightblue" d="M539.71,-168.32C556.31,-159.7 582,-146.36 601.22,-136.39"/>
<polygon fill="midnightblue" stroke="midnightblue" points="603.07,-139.37 610.33,-131.65 599.84,-133.16 603.07,-139.37"/>
</g>
<!-- Node17&#45;&gt;Node2 -->
<g id="edge24" class="edge">
<title>Node17&#45;&gt;Node2</title>
<path fill="none" stroke="midnightblue" d="M353.74,-224.3C356.54,-191.63 366.45,-75.87 370.38,-29.96"/>
<polygon fill="midnightblue" stroke="midnightblue" points="373.87,-30.15 371.24,-19.88 366.9,-29.55 373.87,-30.15"/>
</g>
<!-- Node17&#45;&gt;Node3 -->
<g id="edge25" class="edge">
<title>Node17&#45;&gt;Node3</title>
<path fill="none" stroke="midnightblue" d="M331.15,-224.47C313.67,-216.84 289.3,-204.36 272,-188 257.65,-174.43 246.18,-154.81 239.07,-140.68"/>
<polygon fill="midnightblue" stroke="midnightblue" points="242.16,-139.03 234.67,-131.53 235.84,-142.06 242.16,-139.03"/>
</g>
<!-- Node17&#45;&gt;Node4 -->
<g id="edge26" class="edge">
<title>Node17&#45;&gt;Node4</title>
<path fill="none" stroke="midnightblue" d="M359.2,-224.37C372.24,-206.22 402.7,-163.8 419.8,-139.99"/>
<polygon fill="midnightblue" stroke="midnightblue" points="422.84,-141.76 425.83,-131.59 417.15,-137.67 422.84,-141.76"/>
</g>
<!-- Node17&#45;&gt;Node5 -->
<g id="edge27" class="edge">
<title>Node17&#45;&gt;Node5</title>
<path fill="none" stroke="midnightblue" d="M347.09,-224.08C329.55,-197.61 277.6,-119.21 254.4,-84.21"/>
<polygon fill="midnightblue" stroke="midnightblue" points="257.12,-81.97 248.68,-75.57 251.28,-85.84 257.12,-81.97"/>
</g>
<!-- Node17&#45;&gt;Node10 -->
<g id="edge28" class="edge">
<title>Node17&#45;&gt;Node10</title>
<path fill="none" stroke="midnightblue" d="M425.03,-225.71C484.13,-218.55 562.12,-206.08 588,-188 604.15,-176.72 614.74,-156.41 620.76,-141.49"/>
<polygon fill="midnightblue" stroke="midnightblue" points="624.17,-142.37 624.35,-131.78 617.6,-139.95 624.17,-142.37"/>
</g>
<!-- Node17&#45;&gt;Node16 -->
<g id="edge29" class="edge">
<title>Node17&#45;&gt;Node16</title>
<path fill="none" stroke="midnightblue" d="M379.94,-224.44C408.66,-215.32 454.33,-200.81 486.32,-190.65"/>
<polygon fill="midnightblue" stroke="midnightblue" points="487.72,-193.88 496.19,-187.52 485.6,-187.21 487.72,-193.88"/>
</g>
<!-- Node17&#45;&gt;Node18 -->
<g id="edge30" class="edge">
<title>Node17&#45;&gt;Node18</title>
<path fill="none" stroke="midnightblue" d="M319.72,-224.44C283.55,-215.14 225.62,-200.25 186.02,-190.06"/>
<polygon fill="midnightblue" stroke="midnightblue" points="186.68,-186.62 176.12,-187.52 184.93,-193.4 186.68,-186.62"/>
</g>
<!-- Node18&#45;&gt;Node3 -->
<g id="edge32" class="edge">
<title>Node18&#45;&gt;Node3</title>
<path fill="none" stroke="midnightblue" d="M157.14,-168.32C170.87,-159.9 191.94,-146.97 208.06,-137.07"/>
<polygon fill="midnightblue" stroke="midnightblue" points="210.2,-139.87 216.9,-131.65 206.54,-133.9 210.2,-139.87"/>
</g>
<!-- Node18&#45;&gt;Node5 -->
<g id="edge33" class="edge">
<title>Node18&#45;&gt;Node5</title>
<path fill="none" stroke="midnightblue" d="M144.34,-168.06C146.76,-154.57 152.98,-128.82 167,-112 178.71,-97.96 196,-87.23 211.13,-79.78"/>
<polygon fill="midnightblue" stroke="midnightblue" points="212.61,-82.95 220.21,-75.56 209.66,-76.6 212.61,-82.95"/>
</g>
<!-- Node18&#45;&gt;Node14 -->
<g id="edge31" class="edge">
<title>Node18&#45;&gt;Node14</title>
<path fill="none" stroke="midnightblue" d="M148.05,-168.23C156.72,-154.01 175.89,-126.07 200,-112 258.07,-78.12 338.06,-69.54 382.6,-67.5"/>
<polygon fill="midnightblue" stroke="midnightblue" points="383,-70.99 392.87,-67.12 382.74,-63.99 383,-70.99"/>
</g>
<!-- Node19&#45;&gt;Node2 -->
<g id="edge35" class="edge">
<title>Node19&#45;&gt;Node2</title>
<path fill="none" stroke="midnightblue" d="M295.25,-280.29C287.44,-271.84 276.55,-258.25 272,-244 269.3,-235.53 270.06,-232.68 272,-224 289.32,-146.37 338.13,-63.62 360.52,-28.44"/>
<polygon fill="midnightblue" stroke="midnightblue" points="363.6,-30.12 366.09,-19.82 357.72,-26.32 363.6,-30.12"/>
</g>
<!-- Node19&#45;&gt;Node3 -->
<g id="edge36" class="edge">
<title>Node19&#45;&gt;Node3</title>
<path fill="none" stroke="midnightblue" d="M282.84,-280.42C267.83,-273.12 248.68,-261.08 239,-244 220.73,-211.76 223.8,-166.64 227.51,-141.6"/>
<polygon fill="midnightblue" stroke="midnightblue" points="230.98,-142.07 229.18,-131.63 224.07,-140.91 230.98,-142.07"/>
</g>
<!-- Node19&#45;&gt;Node4 -->
<g id="edge37" class="edge">
<title>Node19&#45;&gt;Node4</title>
<path fill="none" stroke="midnightblue" d="M373.53,-281.19C396.59,-274.91 419.94,-263.75 434,-244 455.75,-213.45 446.2,-166.68 438.42,-141.15"/>
<polygon fill="midnightblue" stroke="midnightblue" points="441.74,-140.04 435.29,-131.63 435.09,-142.22 441.74,-140.04"/>
</g>
<!-- Node19&#45;&gt;Node5 -->
<g id="edge38" class="edge">
<title>Node19&#45;&gt;Node5</title>
<path fill="none" stroke="midnightblue" d="M247.1,-280.4C195.88,-269.16 124.29,-243.86 95,-188 67.34,-135.26 151.17,-97.01 203.78,-78.84"/>
<polygon fill="midnightblue" stroke="midnightblue" points="205.15,-82.07 213.53,-75.58 202.93,-75.44 205.15,-82.07"/>
</g>
<!-- Node19&#45;&gt;Node10 -->
<g id="edge39" class="edge">
<title>Node19&#45;&gt;Node10</title>
<path fill="none" stroke="midnightblue" d="M373.61,-286.96C445.29,-280.81 554.4,-259.39 612,-188 622.56,-174.91 625.97,-155.76 626.94,-141.64"/>
<polygon fill="midnightblue" stroke="midnightblue" points="630.44,-141.71 627.28,-131.6 623.44,-141.47 630.44,-141.71"/>
</g>
<!-- Node19&#45;&gt;Node16 -->
<g id="edge40" class="edge">
<title>Node19&#45;&gt;Node16</title>
<path fill="none" stroke="midnightblue" d="M367.54,-280.43C399.25,-274 437.11,-262.93 467,-244 486.2,-231.84 502.41,-211.09 512.37,-196.3"/>
<polygon fill="midnightblue" stroke="midnightblue" points="515.5,-197.9 517.98,-187.6 509.62,-194.1 515.5,-197.9"/>
</g>
<!-- Node19&#45;&gt;Node17 -->
<g id="edge41" class="edge">
<title>Node19&#45;&gt;Node17</title>
<path fill="none" stroke="midnightblue" d="M312.09,-280.08C319.16,-272.3 329.59,-260.8 338.15,-251.37"/>
<polygon fill="midnightblue" stroke="midnightblue" points="340.93,-253.51 345.06,-243.75 335.75,-248.8 340.93,-253.51"/>
</g>
<!-- Node19&#45;&gt;Node18 -->
<g id="edge42" class="edge">
<title>Node19&#45;&gt;Node18</title>
<path fill="none" stroke="midnightblue" d="M276.07,-280.47C254.33,-273 224.07,-260.72 201,-244 182.52,-230.61 165.67,-210.41 154.95,-196.09"/>
<polygon fill="midnightblue" stroke="midnightblue" points="157.54,-193.7 148.84,-187.66 151.87,-197.81 157.54,-193.7"/>
</g>
</g>
</svg>
