<?xml version="1.0" encoding="UTF-8" standalone="no"?>
<!DOCTYPE svg PUBLIC "-//W3C//DTD SVG 1.1//EN"
 "http://www.w3.org/Graphics/SVG/1.1/DTD/svg11.dtd">
<!-- Generated by graphviz version 2.44.1 (20220725.2034)
 -->
<!-- Title: plang::detail::corpus_mixins Pages: 1 -->
<svg width="933pt" height="160pt"
 viewBox="0.00 0.00 933.00 159.50" xmlns="http://www.w3.org/2000/svg" xmlns:xlink="http://www.w3.org/1999/xlink">
<g id="graph0" class="graph" transform="scale(1 1) rotate(0) translate(4 155.5)">
<title>plang::detail::corpus_mixins</title>
<!-- Node1 -->
<g id="node1" class="node">
<title>Node1</title>
<g id="a_node1"><a xlink:title="Base class for the corpus.">
<polygon fill="#bfbfbf" stroke="black" points="710,-61 710,-91 814,-91 814,-61 710,-61"/>
<text text-anchor="start" x="718" y="-79" font-family="Helvetica,sans-Serif" font-size="10.00">plang::detail::corpus</text>
<text text-anchor="middle" x="762" y="-68" font-family="Helvetica,sans-Serif" font-size="10.00">_mixins</text>
</a>
</g>
</g>
<!-- Node8 -->
<g id="node8" class="node">
<title>Node8</title>
<g id="a_node8"><a xlink:href="classplang_1_1corpus.html" target="_top" xlink:title="The main interface for interacting with a corpus.">
<polygon fill="none" stroke="black" points="850,-66.5 850,-85.5 925,-85.5 925,-66.5 850,-66.5"/>
<text text-anchor="middle" x="887.5" y="-73.5" font-family="Helvetica,sans-Serif" font-size="10.00">plang::corpus</text>
</a>
</g>
</g>
<!-- Node1&#45;&gt;Node8 -->
<g id="edge11" class="edge">
<title>Node1&#45;&gt;Node8</title>
<path fill="none" stroke="midnightblue" d="M824.45,-76C833.14,-76 841.83,-76 849.85,-76"/>
<polygon fill="midnightblue" stroke="midnightblue" points="824.3,-72.5 814.3,-76 824.3,-79.5 824.3,-72.5"/>
</g>
<!-- Node2 -->
<g id="node2" class="node">
<title>Node2</title>
<g id="a_node2"><a xlink:href="structplang_1_1detail_1_1mixin__base.html" target="_top" xlink:title=" ">
<polygon fill="none" stroke="black" points="556,-39 556,-113 674,-113 674,-39 556,-39"/>
<text text-anchor="start" x="564" y="-101" font-family="Helvetica,sans-Serif" font-size="10.00">plang::detail::mixin</text>
<text text-anchor="start" x="564" y="-90" font-family="Helvetica,sans-Serif" font-size="10.00">_base&lt; plang::detail</text>
<text text-anchor="start" x="564" y="-79" font-family="Helvetica,sans-Serif" font-size="10.00">::path_manager, plang</text>
<text text-anchor="start" x="564" y="-68" font-family="Helvetica,sans-Serif" font-size="10.00">::detail::symbol_class</text>
<text text-anchor="start" x="564" y="-57" font-family="Helvetica,sans-Serif" font-size="10.00">_manager, plang::detail</text>
<text text-anchor="middle" x="615" y="-46" font-family="Helvetica,sans-Serif" font-size="10.00">::symbol_manager &gt;</text>
</a>
</g>
</g>
<!-- Node2&#45;&gt;Node1 -->
<g id="edge1" class="edge">
<title>Node2&#45;&gt;Node1</title>
<path fill="none" stroke="midnightblue" d="M684.21,-76C692.84,-76 701.56,-76 709.86,-76"/>
<polygon fill="midnightblue" stroke="midnightblue" points="684.14,-72.5 674.14,-76 684.14,-79.5 684.14,-72.5"/>
</g>
<!-- Node3 -->
<g id="node3" class="node">
<title>Node3</title>
<g id="a_node3"><a xlink:href="classplang_1_1detail_1_1path__manager.html" target="_top" xlink:title="Handles database actions for paths.">
<polygon fill="none" stroke="black" points="140,-121 140,-151 234,-151 234,-121 140,-121"/>
<text text-anchor="start" x="148" y="-139" font-family="Helvetica,sans-Serif" font-size="10.00">plang::detail::path</text>
<text text-anchor="middle" x="187" y="-128" font-family="Helvetica,sans-Serif" font-size="10.00">_manager</text>
</a>
</g>
</g>
<!-- Node3&#45;&gt;Node2 -->
<g id="edge2" class="edge">
<title>Node3&#45;&gt;Node2</title>
<path fill="none" stroke="midnightblue" d="M244.27,-132.87C310.66,-128.5 424.16,-118.88 520,-100 531.65,-97.71 544.01,-94.85 555.81,-91.93"/>
<polygon fill="midnightblue" stroke="midnightblue" points="243.78,-129.4 234.03,-133.53 244.23,-136.38 243.78,-129.4"/>
</g>
<!-- Node5 -->
<g id="node5" class="node">
<title>Node5</title>
<g id="a_node5"><a xlink:href="classplang_1_1detail_1_1symbol__class__manager.html" target="_top" xlink:title=" ">
<polygon fill="none" stroke="black" points="270,-80 270,-110 377,-110 377,-80 270,-80"/>
<text text-anchor="start" x="278" y="-98" font-family="Helvetica,sans-Serif" font-size="10.00">plang::detail::symbol</text>
<text text-anchor="middle" x="323.5" y="-87" font-family="Helvetica,sans-Serif" font-size="10.00">_class_manager</text>
</a>
</g>
</g>
<!-- Node3&#45;&gt;Node5 -->
<g id="edge6" class="edge">
<title>Node3&#45;&gt;Node5</title>
<path fill="none" stroke="darkgreen" d="M244.11,-118.9C253.67,-115.98 263.54,-112.97 272.91,-110.12"/>
<polygon fill="darkgreen" stroke="darkgreen" points="242.83,-115.63 234.29,-121.89 244.87,-122.32 242.83,-115.63"/>
</g>
<!-- Node4 -->
<g id="node4" class="node">
<title>Node4</title>
<g id="a_node4"><a xlink:href="classplang_1_1detail_1_1corpus.html" target="_top" xlink:title="Provides a basic interface to a database.">
<polygon fill="none" stroke="black" points="0,-82.5 0,-101.5 104,-101.5 104,-82.5 0,-82.5"/>
<text text-anchor="middle" x="52" y="-89.5" font-family="Helvetica,sans-Serif" font-size="10.00">plang::detail::corpus</text>
</a>
</g>
</g>
<!-- Node4&#45;&gt;Node3 -->
<g id="edge3" class="edge">
<title>Node4&#45;&gt;Node3</title>
<path fill="none" stroke="darkgreen" d="M91.52,-104.74C106.82,-109.8 124.53,-115.67 140.46,-120.93"/>
<polygon fill="darkgreen" stroke="darkgreen" points="92.45,-101.37 81.86,-101.55 90.25,-108.01 92.45,-101.37"/>
</g>
<!-- Node4&#45;&gt;Node5 -->
<g id="edge5" class="edge">
<title>Node4&#45;&gt;Node5</title>
<path fill="none" stroke="darkgreen" d="M114.05,-92.68C160.99,-93.2 225.16,-93.92 269.86,-94.41"/>
<polygon fill="darkgreen" stroke="darkgreen" points="114.05,-89.18 104.01,-92.57 113.97,-96.18 114.05,-89.18"/>
</g>
<!-- Node6 -->
<g id="node6" class="node">
<title>Node6</title>
<g id="a_node6"><a xlink:href="classplang_1_1detail_1_1symbol__manager.html" target="_top" xlink:title=" ">
<polygon fill="none" stroke="black" points="413,-39 413,-69 520,-69 520,-39 413,-39"/>
<text text-anchor="start" x="421" y="-57" font-family="Helvetica,sans-Serif" font-size="10.00">plang::detail::symbol</text>
<text text-anchor="middle" x="466.5" y="-46" font-family="Helvetica,sans-Serif" font-size="10.00">_manager</text>
</a>
</g>
</g>
<!-- Node4&#45;&gt;Node6 -->
<g id="edge8" class="edge">
<title>Node4&#45;&gt;Node6</title>
<path fill="none" stroke="darkgreen" d="M114.39,-85.46C157.83,-80.9 217.46,-74.81 270,-70 318.33,-65.57 373.43,-61.12 412.79,-58.04"/>
<polygon fill="darkgreen" stroke="darkgreen" points="113.85,-81.99 104.27,-86.52 114.58,-88.95 113.85,-81.99"/>
</g>
<!-- Node5&#45;&gt;Node2 -->
<g id="edge4" class="edge">
<title>Node5&#45;&gt;Node2</title>
<path fill="none" stroke="midnightblue" d="M387.33,-90.88C437.43,-87.59 507.06,-83.02 555.88,-79.81"/>
<polygon fill="midnightblue" stroke="midnightblue" points="387.01,-87.39 377.26,-91.54 387.47,-94.37 387.01,-87.39"/>
</g>
<!-- Node5&#45;&gt;Node6 -->
<g id="edge9" class="edge">
<title>Node5&#45;&gt;Node6</title>
<path fill="none" stroke="darkgreen" d="M385.82,-77.17C395.15,-74.46 404.7,-71.68 413.8,-69.03"/>
<polygon fill="darkgreen" stroke="darkgreen" points="384.83,-73.81 376.2,-79.97 386.78,-80.53 384.83,-73.81"/>
</g>
<!-- Node6&#45;&gt;Node2 -->
<g id="edge7" class="edge">
<title>Node6&#45;&gt;Node2</title>
<path fill="none" stroke="midnightblue" d="M530.49,-63.46C538.87,-64.72 547.44,-66 555.73,-67.25"/>
<polygon fill="midnightblue" stroke="midnightblue" points="530.8,-59.97 520.39,-61.94 529.76,-66.89 530.8,-59.97"/>
</g>
<!-- Node7 -->
<g id="node7" class="node">
<title>Node7</title>
<g id="a_node7"><a xlink:title=" ">
<polygon fill="none" stroke="#bfbfbf" points="450,-0.5 450,-19.5 483,-19.5 483,-0.5 450,-0.5"/>
<text text-anchor="middle" x="466.5" y="-7.5" font-family="Helvetica,sans-Serif" font-size="10.00">Tps</text>
</a>
</g>
</g>
<!-- Node7&#45;&gt;Node2 -->
<g id="edge10" class="edge">
<title>Node7&#45;&gt;Node2</title>
<path fill="none" stroke="midnightblue" d="M492.9,-18.52C501.58,-21.61 511.29,-25.26 520,-29 531.74,-34.04 544.08,-39.83 555.83,-45.6"/>
<polygon fill="midnightblue" stroke="midnightblue" points="493.9,-15.16 483.31,-15.18 491.6,-21.77 493.9,-15.16"/>
</g>
</g>
</svg>
