<?xml version="1.0" encoding="UTF-8" standalone="no"?>
<!DOCTYPE svg PUBLIC "-//W3C//DTD SVG 1.1//EN"
 "http://www.w3.org/Graphics/SVG/1.1/DTD/svg11.dtd">
<!-- Generated by graphviz version 2.44.1 (20220725.2034)
 -->
<!-- Title: plang::detail::corpus_mixins Pages: 1 -->
<svg width="1088pt" height="242pt"
 viewBox="0.00 0.00 1088.00 241.50" xmlns="http://www.w3.org/2000/svg" xmlns:xlink="http://www.w3.org/1999/xlink">
<g id="graph0" class="graph" transform="scale(1 1) rotate(0) translate(4 237.5)">
<title>plang::detail::corpus_mixins</title>
<!-- Node1 -->
<g id="node1" class="node">
<title>Node1</title>
<g id="a_node1"><a xlink:title="Base class for the corpus.">
<polygon fill="#bfbfbf" stroke="black" points="865,-102 865,-132 969,-132 969,-102 865,-102"/>
<text text-anchor="start" x="873" y="-120" font-family="Helvetica,sans-Serif" font-size="10.00">plang::detail::corpus</text>
<text text-anchor="middle" x="917" y="-109" font-family="Helvetica,sans-Serif" font-size="10.00">_mixins</text>
</a>
</g>
</g>
<!-- Node10 -->
<g id="node10" class="node">
<title>Node10</title>
<g id="a_node10"><a xlink:href="classplang_1_1corpus.html" target="_top" xlink:title="The main interface for interacting with a corpus.">
<polygon fill="none" stroke="black" points="1005,-107.5 1005,-126.5 1080,-126.5 1080,-107.5 1005,-107.5"/>
<text text-anchor="middle" x="1042.5" y="-114.5" font-family="Helvetica,sans-Serif" font-size="10.00">plang::corpus</text>
</a>
</g>
</g>
<!-- Node1&#45;&gt;Node10 -->
<g id="edge20" class="edge">
<title>Node1&#45;&gt;Node10</title>
<path fill="none" stroke="midnightblue" d="M979.45,-117C988.14,-117 996.83,-117 1004.85,-117"/>
<polygon fill="midnightblue" stroke="midnightblue" points="979.3,-113.5 969.3,-117 979.3,-120.5 979.3,-113.5"/>
</g>
<!-- Node2 -->
<g id="node2" class="node">
<title>Node2</title>
<g id="a_node2"><a xlink:href="structplang_1_1detail_1_1mixin__base.html" target="_top" xlink:title=" ">
<polygon fill="none" stroke="black" points="688,-63.5 688,-170.5 829,-170.5 829,-63.5 688,-63.5"/>
<text text-anchor="start" x="696" y="-158.5" font-family="Helvetica,sans-Serif" font-size="10.00">plang::detail::mixin</text>
<text text-anchor="start" x="696" y="-147.5" font-family="Helvetica,sans-Serif" font-size="10.00">_base&lt; plang::detail</text>
<text text-anchor="start" x="696" y="-136.5" font-family="Helvetica,sans-Serif" font-size="10.00">::path_manager, plang</text>
<text text-anchor="start" x="696" y="-125.5" font-family="Helvetica,sans-Serif" font-size="10.00">::detail::symbol_class</text>
<text text-anchor="start" x="696" y="-114.5" font-family="Helvetica,sans-Serif" font-size="10.00">_manager, plang::detail</text>
<text text-anchor="start" x="696" y="-103.5" font-family="Helvetica,sans-Serif" font-size="10.00">::symbol_manager, plang::</text>
<text text-anchor="start" x="696" y="-92.5" font-family="Helvetica,sans-Serif" font-size="10.00">detail::point_class_manager,</text>
<text text-anchor="start" x="696" y="-81.5" font-family="Helvetica,sans-Serif" font-size="10.00"> plang::detail::object_class</text>
<text text-anchor="middle" x="758.5" y="-70.5" font-family="Helvetica,sans-Serif" font-size="10.00">_manager &gt;</text>
</a>
</g>
</g>
<!-- Node2&#45;&gt;Node1 -->
<g id="edge1" class="edge">
<title>Node2&#45;&gt;Node1</title>
<path fill="none" stroke="midnightblue" d="M839.29,-117C848.02,-117 856.72,-117 864.97,-117"/>
<polygon fill="midnightblue" stroke="midnightblue" points="839.05,-113.5 829.05,-117 839.05,-120.5 839.05,-113.5"/>
</g>
<!-- Node3 -->
<g id="node3" class="node">
<title>Node3</title>
<g id="a_node3"><a xlink:href="classplang_1_1detail_1_1path__manager.html" target="_top" xlink:title="Handles database actions for paths.">
<polygon fill="none" stroke="black" points="140,-99 140,-129 234,-129 234,-99 140,-99"/>
<text text-anchor="start" x="148" y="-117" font-family="Helvetica,sans-Serif" font-size="10.00">plang::detail::path</text>
<text text-anchor="middle" x="187" y="-106" font-family="Helvetica,sans-Serif" font-size="10.00">_manager</text>
</a>
</g>
</g>
<!-- Node3&#45;&gt;Node2 -->
<g id="edge2" class="edge">
<title>Node3&#45;&gt;Node2</title>
<path fill="none" stroke="midnightblue" d="M244.18,-114.3C348.91,-114.85 573.71,-116.03 687.88,-116.63"/>
<polygon fill="midnightblue" stroke="midnightblue" points="244.14,-110.8 234.12,-114.24 244.1,-117.8 244.14,-110.8"/>
</g>
<!-- Node5 -->
<g id="node5" class="node">
<title>Node5</title>
<g id="a_node5"><a xlink:href="classplang_1_1detail_1_1symbol__class__manager.html" target="_top" xlink:title=" ">
<polygon fill="none" stroke="black" points="270,-159 270,-189 377,-189 377,-159 270,-159"/>
<text text-anchor="start" x="278" y="-177" font-family="Helvetica,sans-Serif" font-size="10.00">plang::detail::symbol</text>
<text text-anchor="middle" x="323.5" y="-166" font-family="Helvetica,sans-Serif" font-size="10.00">_class_manager</text>
</a>
</g>
</g>
<!-- Node3&#45;&gt;Node5 -->
<g id="edge6" class="edge">
<title>Node3&#45;&gt;Node5</title>
<path fill="none" stroke="darkgreen" d="M231.09,-133.22C249.69,-141.52 271.13,-151.08 288.57,-158.86"/>
<polygon fill="darkgreen" stroke="darkgreen" points="232.5,-130.02 221.94,-129.14 229.65,-136.41 232.5,-130.02"/>
</g>
<!-- Node7 -->
<g id="node7" class="node">
<title>Node7</title>
<g id="a_node7"><a xlink:href="classplang_1_1detail_1_1point__class__manager.html" target="_top" xlink:title=" ">
<polygon fill="none" stroke="black" points="556,-39 556,-69 652,-69 652,-39 556,-39"/>
<text text-anchor="start" x="564" y="-57" font-family="Helvetica,sans-Serif" font-size="10.00">plang::detail::point</text>
<text text-anchor="middle" x="604" y="-46" font-family="Helvetica,sans-Serif" font-size="10.00">_class_manager</text>
</a>
</g>
</g>
<!-- Node3&#45;&gt;Node7 -->
<g id="edge12" class="edge">
<title>Node3&#45;&gt;Node7</title>
<path fill="none" stroke="darkgreen" d="M221.88,-93.72C236.36,-85.6 253.67,-76.63 270,-70 331.26,-45.12 347.53,-38.2 413,-29 460.09,-22.38 472.95,-22.07 520,-29 533.85,-31.04 548.59,-34.9 561.74,-38.98"/>
<polygon fill="darkgreen" stroke="darkgreen" points="219.76,-90.89 212.81,-98.89 223.23,-96.98 219.76,-90.89"/>
</g>
<!-- Node8 -->
<g id="node8" class="node">
<title>Node8</title>
<g id="a_node8"><a xlink:href="classplang_1_1detail_1_1object__class__manager.html" target="_top" xlink:title=" ">
<polygon fill="none" stroke="black" points="416,-39 416,-69 517,-69 517,-39 416,-39"/>
<text text-anchor="start" x="424" y="-57" font-family="Helvetica,sans-Serif" font-size="10.00">plang::detail::object</text>
<text text-anchor="middle" x="466.5" y="-46" font-family="Helvetica,sans-Serif" font-size="10.00">_class_manager</text>
</a>
</g>
</g>
<!-- Node3&#45;&gt;Node8 -->
<g id="edge16" class="edge">
<title>Node3&#45;&gt;Node8</title>
<path fill="none" stroke="darkgreen" d="M244.21,-101.85C294.58,-90.96 367.76,-75.13 415.97,-64.71"/>
<polygon fill="darkgreen" stroke="darkgreen" points="243.17,-98.49 234.13,-104.02 244.65,-105.33 243.17,-98.49"/>
</g>
<!-- Node4 -->
<g id="node4" class="node">
<title>Node4</title>
<g id="a_node4"><a xlink:href="classplang_1_1detail_1_1corpus.html" target="_top" xlink:title="Provides a basic interface to a database.">
<polygon fill="none" stroke="black" points="0,-104.5 0,-123.5 104,-123.5 104,-104.5 0,-104.5"/>
<text text-anchor="middle" x="52" y="-111.5" font-family="Helvetica,sans-Serif" font-size="10.00">plang::detail::corpus</text>
</a>
</g>
</g>
<!-- Node4&#45;&gt;Node3 -->
<g id="edge3" class="edge">
<title>Node4&#45;&gt;Node3</title>
<path fill="none" stroke="darkgreen" d="M114.06,-114C122.67,-114 131.4,-114 139.67,-114"/>
<polygon fill="darkgreen" stroke="darkgreen" points="114.04,-110.5 104.04,-114 114.04,-117.5 114.04,-110.5"/>
</g>
<!-- Node4&#45;&gt;Node5 -->
<g id="edge5" class="edge">
<title>Node4&#45;&gt;Node5</title>
<path fill="none" stroke="darkgreen" d="M93.55,-126.47C108.12,-130.74 124.72,-135.35 140,-139 183.46,-149.39 233.31,-158.78 269.92,-165.21"/>
<polygon fill="darkgreen" stroke="darkgreen" points="94.41,-123.08 83.82,-123.59 92.42,-129.79 94.41,-123.08"/>
</g>
<!-- Node6 -->
<g id="node6" class="node">
<title>Node6</title>
<g id="a_node6"><a xlink:href="classplang_1_1detail_1_1symbol__manager.html" target="_top" xlink:title=" ">
<polygon fill="none" stroke="black" points="413,-203 413,-233 520,-233 520,-203 413,-203"/>
<text text-anchor="start" x="421" y="-221" font-family="Helvetica,sans-Serif" font-size="10.00">plang::detail::symbol</text>
<text text-anchor="middle" x="466.5" y="-210" font-family="Helvetica,sans-Serif" font-size="10.00">_manager</text>
</a>
</g>
</g>
<!-- Node4&#45;&gt;Node6 -->
<g id="edge8" class="edge">
<title>Node4&#45;&gt;Node6</title>
<path fill="none" stroke="darkgreen" d="M76.62,-128.96C93.72,-139.3 117.66,-152.8 140,-162 195.54,-184.88 210.98,-187.83 270,-199 317.91,-208.07 373.3,-212.94 412.86,-215.46"/>
<polygon fill="darkgreen" stroke="darkgreen" points="78.23,-125.84 67.88,-123.58 74.57,-131.8 78.23,-125.84"/>
</g>
<!-- Node4&#45;&gt;Node7 -->
<g id="edge11" class="edge">
<title>Node4&#45;&gt;Node7</title>
<path fill="none" stroke="darkgreen" d="M79.57,-99.48C96.54,-90.55 119.19,-79.28 140,-71 254.68,-25.36 289.66,-24.74 413,-20 460.52,-18.17 473.34,-10.81 520,-20 538.64,-23.67 558.36,-31.56 573.91,-38.82"/>
<polygon fill="darkgreen" stroke="darkgreen" points="77.47,-96.63 70.29,-104.42 80.76,-102.81 77.47,-96.63"/>
</g>
<!-- Node4&#45;&gt;Node8 -->
<g id="edge15" class="edge">
<title>Node4&#45;&gt;Node8</title>
<path fill="none" stroke="darkgreen" d="M93.86,-101.67C108.34,-97.58 124.81,-93.25 140,-90 236.46,-69.35 351.68,-60.15 415.93,-56.37"/>
<polygon fill="darkgreen" stroke="darkgreen" points="92.84,-98.32 84.19,-104.45 94.77,-105.05 92.84,-98.32"/>
</g>
<!-- Node5&#45;&gt;Node2 -->
<g id="edge4" class="edge">
<title>Node5&#45;&gt;Node2</title>
<path fill="none" stroke="midnightblue" d="M387.45,-173.66C453.81,-172.32 561.1,-167.31 652,-150 663.78,-147.76 676.1,-144.64 687.99,-141.21"/>
<polygon fill="midnightblue" stroke="midnightblue" points="387.1,-170.17 377.17,-173.85 387.23,-177.17 387.1,-170.17"/>
</g>
<!-- Node5&#45;&gt;Node6 -->
<g id="edge9" class="edge">
<title>Node5&#45;&gt;Node6</title>
<path fill="none" stroke="darkgreen" d="M382.22,-192.01C393.81,-195.63 405.88,-199.39 417.11,-202.9"/>
<polygon fill="darkgreen" stroke="darkgreen" points="383.22,-188.66 372.63,-189.02 381.13,-195.34 383.22,-188.66"/>
</g>
<!-- Node5&#45;&gt;Node7 -->
<g id="edge13" class="edge">
<title>Node5&#45;&gt;Node7</title>
<path fill="none" stroke="darkgreen" d="M368.68,-154.96C423.91,-131.16 517.35,-90.91 567.93,-69.11"/>
<polygon fill="darkgreen" stroke="darkgreen" points="367.29,-151.75 359.49,-158.92 370.06,-158.18 367.29,-151.75"/>
</g>
<!-- Node5&#45;&gt;Node8 -->
<g id="edge17" class="edge">
<title>Node5&#45;&gt;Node8</title>
<path fill="none" stroke="darkgreen" d="M343.89,-151C360.88,-131.7 386.87,-104.13 413,-84 419.99,-78.62 428.04,-73.54 435.71,-69.14"/>
<polygon fill="darkgreen" stroke="darkgreen" points="341.1,-148.87 337.19,-158.72 346.39,-153.46 341.1,-148.87"/>
</g>
<!-- Node6&#45;&gt;Node2 -->
<g id="edge7" class="edge">
<title>Node6&#45;&gt;Node2</title>
<path fill="none" stroke="midnightblue" d="M530.42,-214.5C566.94,-210.83 613.25,-203.33 652,-188 664.11,-183.21 676.24,-176.85 687.75,-169.91"/>
<polygon fill="midnightblue" stroke="midnightblue" points="530.02,-211.02 520.39,-215.43 530.67,-217.99 530.02,-211.02"/>
</g>
<!-- Node7&#45;&gt;Node2 -->
<g id="edge10" class="edge">
<title>Node7&#45;&gt;Node2</title>
<path fill="none" stroke="midnightblue" d="M650.99,-73C662.59,-77.79 675.32,-83.05 687.81,-88.21"/>
<polygon fill="midnightblue" stroke="midnightblue" points="652.11,-69.67 641.53,-69.09 649.43,-76.14 652.11,-69.67"/>
</g>
<!-- Node8&#45;&gt;Node2 -->
<g id="edge18" class="edge">
<title>Node8&#45;&gt;Node2</title>
<path fill="none" stroke="midnightblue" d="M527.28,-70.85C536.85,-73.37 546.68,-75.84 556,-78 599.56,-88.11 648.84,-97.68 687.76,-104.81"/>
<polygon fill="midnightblue" stroke="midnightblue" points="527.98,-67.42 517.42,-68.23 526.18,-74.18 527.98,-67.42"/>
</g>
<!-- Node8&#45;&gt;Node7 -->
<g id="edge14" class="edge">
<title>Node8&#45;&gt;Node7</title>
<path fill="none" stroke="darkgreen" d="M527.33,-54C536.79,-54 546.45,-54 555.58,-54"/>
<polygon fill="darkgreen" stroke="darkgreen" points="527.19,-50.5 517.19,-54 527.19,-57.5 527.19,-50.5"/>
</g>
<!-- Node9 -->
<g id="node9" class="node">
<title>Node9</title>
<g id="a_node9"><a xlink:title=" ">
<polygon fill="none" stroke="#bfbfbf" points="587.5,-0.5 587.5,-19.5 620.5,-19.5 620.5,-0.5 587.5,-0.5"/>
<text text-anchor="middle" x="604" y="-7.5" font-family="Helvetica,sans-Serif" font-size="10.00">Tps</text>
</a>
</g>
</g>
<!-- Node9&#45;&gt;Node2 -->
<g id="edge19" class="edge">
<title>Node9&#45;&gt;Node2</title>
<path fill="none" stroke="midnightblue" d="M630.24,-18.53C637.49,-21.42 645.25,-24.96 652,-29 668.37,-38.81 684.81,-51.08 699.68,-63.31"/>
<polygon fill="midnightblue" stroke="midnightblue" points="631.41,-15.23 620.82,-15 628.95,-21.79 631.41,-15.23"/>
</g>
</g>
</svg>
