<?xml version="1.0" encoding="UTF-8" standalone="no"?>
<!DOCTYPE svg PUBLIC "-//W3C//DTD SVG 1.1//EN"
 "http://www.w3.org/Graphics/SVG/1.1/DTD/svg11.dtd">
<!-- Generated by graphviz version 2.44.1 (20220725.2034)
 -->
<!-- Title: plang::detail::mixin_base&lt; Tps &gt; Pages: 1 -->
<svg width="794pt" height="242pt"
 viewBox="0.00 0.00 794.00 241.50" xmlns="http://www.w3.org/2000/svg" xmlns:xlink="http://www.w3.org/1999/xlink">
<g id="graph0" class="graph" transform="scale(1 1) rotate(0) translate(4 237.5)">
<title>plang::detail::mixin_base&lt; Tps &gt;</title>
<!-- Node1 -->
<g id="node1" class="node">
<title>Node1</title>
<g id="a_node1"><a xlink:title="Common derived class template for distributed overloading.">
<polygon fill="#bfbfbf" stroke="black" points="688,-102 688,-132 786,-132 786,-102 688,-102"/>
<text text-anchor="start" x="696" y="-120" font-family="Helvetica,sans-Serif" font-size="10.00">plang::detail::mixin</text>
<text text-anchor="middle" x="737" y="-109" font-family="Helvetica,sans-Serif" font-size="10.00">_base&lt; Tps &gt;</text>
</a>
</g>
</g>
<!-- Node2 -->
<g id="node2" class="node">
<title>Node2</title>
<g id="a_node2"><a xlink:href="classplang_1_1detail_1_1path__manager.html" target="_top" xlink:title="Handles database actions for paths.">
<polygon fill="none" stroke="black" points="140,-99 140,-129 234,-129 234,-99 140,-99"/>
<text text-anchor="start" x="148" y="-117" font-family="Helvetica,sans-Serif" font-size="10.00">plang::detail::path</text>
<text text-anchor="middle" x="187" y="-106" font-family="Helvetica,sans-Serif" font-size="10.00">_manager</text>
</a>
</g>
</g>
<!-- Node2&#45;&gt;Node1 -->
<g id="edge1" class="edge">
<title>Node2&#45;&gt;Node1</title>
<path fill="none" stroke="midnightblue" d="M244.29,-114.31C352.2,-114.9 586.44,-116.18 687.73,-116.74"/>
<polygon fill="midnightblue" stroke="midnightblue" points="244.27,-110.81 234.25,-114.25 244.23,-117.81 244.27,-110.81"/>
</g>
<!-- Node4 -->
<g id="node4" class="node">
<title>Node4</title>
<g id="a_node4"><a xlink:href="classplang_1_1detail_1_1symbol__class__manager.html" target="_top" xlink:title=" ">
<polygon fill="none" stroke="black" points="270,-159 270,-189 377,-189 377,-159 270,-159"/>
<text text-anchor="start" x="278" y="-177" font-family="Helvetica,sans-Serif" font-size="10.00">plang::detail::symbol</text>
<text text-anchor="middle" x="323.5" y="-166" font-family="Helvetica,sans-Serif" font-size="10.00">_class_manager</text>
</a>
</g>
</g>
<!-- Node2&#45;&gt;Node4 -->
<g id="edge5" class="edge">
<title>Node2&#45;&gt;Node4</title>
<path fill="none" stroke="darkgreen" d="M231.09,-133.22C249.69,-141.52 271.13,-151.08 288.57,-158.86"/>
<polygon fill="darkgreen" stroke="darkgreen" points="232.5,-130.02 221.94,-129.14 229.65,-136.41 232.5,-130.02"/>
</g>
<!-- Node6 -->
<g id="node6" class="node">
<title>Node6</title>
<g id="a_node6"><a xlink:href="classplang_1_1detail_1_1point__class__manager.html" target="_top" xlink:title=" ">
<polygon fill="none" stroke="black" points="556,-39 556,-69 652,-69 652,-39 556,-39"/>
<text text-anchor="start" x="564" y="-57" font-family="Helvetica,sans-Serif" font-size="10.00">plang::detail::point</text>
<text text-anchor="middle" x="604" y="-46" font-family="Helvetica,sans-Serif" font-size="10.00">_class_manager</text>
</a>
</g>
</g>
<!-- Node2&#45;&gt;Node6 -->
<g id="edge11" class="edge">
<title>Node2&#45;&gt;Node6</title>
<path fill="none" stroke="darkgreen" d="M221.88,-93.72C236.36,-85.6 253.67,-76.63 270,-70 331.26,-45.12 347.53,-38.2 413,-29 460.09,-22.38 472.95,-22.07 520,-29 533.85,-31.04 548.59,-34.9 561.74,-38.98"/>
<polygon fill="darkgreen" stroke="darkgreen" points="219.76,-90.89 212.81,-98.89 223.23,-96.98 219.76,-90.89"/>
</g>
<!-- Node7 -->
<g id="node7" class="node">
<title>Node7</title>
<g id="a_node7"><a xlink:href="classplang_1_1detail_1_1object__class__manager.html" target="_top" xlink:title=" ">
<polygon fill="none" stroke="black" points="416,-39 416,-69 517,-69 517,-39 416,-39"/>
<text text-anchor="start" x="424" y="-57" font-family="Helvetica,sans-Serif" font-size="10.00">plang::detail::object</text>
<text text-anchor="middle" x="466.5" y="-46" font-family="Helvetica,sans-Serif" font-size="10.00">_class_manager</text>
</a>
</g>
</g>
<!-- Node2&#45;&gt;Node7 -->
<g id="edge15" class="edge">
<title>Node2&#45;&gt;Node7</title>
<path fill="none" stroke="darkgreen" d="M244.21,-101.85C294.58,-90.96 367.76,-75.13 415.97,-64.71"/>
<polygon fill="darkgreen" stroke="darkgreen" points="243.17,-98.49 234.13,-104.02 244.65,-105.33 243.17,-98.49"/>
</g>
<!-- Node3 -->
<g id="node3" class="node">
<title>Node3</title>
<g id="a_node3"><a xlink:href="classplang_1_1detail_1_1corpus.html" target="_top" xlink:title="Provides a basic interface to a database.">
<polygon fill="none" stroke="black" points="0,-104.5 0,-123.5 104,-123.5 104,-104.5 0,-104.5"/>
<text text-anchor="middle" x="52" y="-111.5" font-family="Helvetica,sans-Serif" font-size="10.00">plang::detail::corpus</text>
</a>
</g>
</g>
<!-- Node3&#45;&gt;Node2 -->
<g id="edge2" class="edge">
<title>Node3&#45;&gt;Node2</title>
<path fill="none" stroke="darkgreen" d="M114.06,-114C122.67,-114 131.4,-114 139.67,-114"/>
<polygon fill="darkgreen" stroke="darkgreen" points="114.04,-110.5 104.04,-114 114.04,-117.5 114.04,-110.5"/>
</g>
<!-- Node3&#45;&gt;Node4 -->
<g id="edge4" class="edge">
<title>Node3&#45;&gt;Node4</title>
<path fill="none" stroke="darkgreen" d="M93.55,-126.47C108.12,-130.74 124.72,-135.35 140,-139 183.46,-149.39 233.31,-158.78 269.92,-165.21"/>
<polygon fill="darkgreen" stroke="darkgreen" points="94.41,-123.08 83.82,-123.59 92.42,-129.79 94.41,-123.08"/>
</g>
<!-- Node5 -->
<g id="node5" class="node">
<title>Node5</title>
<g id="a_node5"><a xlink:href="classplang_1_1detail_1_1symbol__manager.html" target="_top" xlink:title=" ">
<polygon fill="none" stroke="black" points="413,-203 413,-233 520,-233 520,-203 413,-203"/>
<text text-anchor="start" x="421" y="-221" font-family="Helvetica,sans-Serif" font-size="10.00">plang::detail::symbol</text>
<text text-anchor="middle" x="466.5" y="-210" font-family="Helvetica,sans-Serif" font-size="10.00">_manager</text>
</a>
</g>
</g>
<!-- Node3&#45;&gt;Node5 -->
<g id="edge7" class="edge">
<title>Node3&#45;&gt;Node5</title>
<path fill="none" stroke="darkgreen" d="M76.62,-128.96C93.72,-139.3 117.66,-152.8 140,-162 195.54,-184.88 210.98,-187.83 270,-199 317.91,-208.07 373.3,-212.94 412.86,-215.46"/>
<polygon fill="darkgreen" stroke="darkgreen" points="78.23,-125.84 67.88,-123.58 74.57,-131.8 78.23,-125.84"/>
</g>
<!-- Node3&#45;&gt;Node6 -->
<g id="edge10" class="edge">
<title>Node3&#45;&gt;Node6</title>
<path fill="none" stroke="darkgreen" d="M79.57,-99.48C96.54,-90.55 119.19,-79.28 140,-71 254.68,-25.36 289.66,-24.74 413,-20 460.52,-18.17 473.34,-10.81 520,-20 538.64,-23.67 558.36,-31.56 573.91,-38.82"/>
<polygon fill="darkgreen" stroke="darkgreen" points="77.47,-96.63 70.29,-104.42 80.76,-102.81 77.47,-96.63"/>
</g>
<!-- Node3&#45;&gt;Node7 -->
<g id="edge14" class="edge">
<title>Node3&#45;&gt;Node7</title>
<path fill="none" stroke="darkgreen" d="M93.86,-101.67C108.34,-97.58 124.81,-93.25 140,-90 236.46,-69.35 351.68,-60.15 415.93,-56.37"/>
<polygon fill="darkgreen" stroke="darkgreen" points="92.84,-98.32 84.19,-104.45 94.77,-105.05 92.84,-98.32"/>
</g>
<!-- Node4&#45;&gt;Node1 -->
<g id="edge3" class="edge">
<title>Node4&#45;&gt;Node1</title>
<path fill="none" stroke="midnightblue" d="M387.43,-174.96C453.99,-174.69 561.64,-170.56 652,-150 669.88,-145.93 688.96,-138.69 704.41,-132.02"/>
<polygon fill="midnightblue" stroke="midnightblue" points="387.11,-171.46 377.11,-174.97 387.12,-178.46 387.11,-171.46"/>
</g>
<!-- Node4&#45;&gt;Node5 -->
<g id="edge8" class="edge">
<title>Node4&#45;&gt;Node5</title>
<path fill="none" stroke="darkgreen" d="M382.22,-192.01C393.81,-195.63 405.88,-199.39 417.11,-202.9"/>
<polygon fill="darkgreen" stroke="darkgreen" points="383.22,-188.66 372.63,-189.02 381.13,-195.34 383.22,-188.66"/>
</g>
<!-- Node4&#45;&gt;Node6 -->
<g id="edge12" class="edge">
<title>Node4&#45;&gt;Node6</title>
<path fill="none" stroke="darkgreen" d="M368.68,-154.96C423.91,-131.16 517.35,-90.91 567.93,-69.11"/>
<polygon fill="darkgreen" stroke="darkgreen" points="367.29,-151.75 359.49,-158.92 370.06,-158.18 367.29,-151.75"/>
</g>
<!-- Node4&#45;&gt;Node7 -->
<g id="edge16" class="edge">
<title>Node4&#45;&gt;Node7</title>
<path fill="none" stroke="darkgreen" d="M343.89,-151C360.88,-131.7 386.87,-104.13 413,-84 419.99,-78.62 428.04,-73.54 435.71,-69.14"/>
<polygon fill="darkgreen" stroke="darkgreen" points="341.1,-148.87 337.19,-158.72 346.39,-153.46 341.1,-148.87"/>
</g>
<!-- Node5&#45;&gt;Node1 -->
<g id="edge6" class="edge">
<title>Node5&#45;&gt;Node1</title>
<path fill="none" stroke="midnightblue" d="M530.3,-216.13C567.18,-213.03 613.87,-205.55 652,-188 680.79,-174.74 707.56,-148.83 722.83,-132.24"/>
<polygon fill="midnightblue" stroke="midnightblue" points="529.89,-212.65 520.18,-216.89 530.41,-219.63 529.89,-212.65"/>
</g>
<!-- Node6&#45;&gt;Node1 -->
<g id="edge9" class="edge">
<title>Node6&#45;&gt;Node1</title>
<path fill="none" stroke="midnightblue" d="M645.4,-73.43C664.39,-82.56 686.7,-93.29 704.42,-101.81"/>
<polygon fill="midnightblue" stroke="midnightblue" points="646.91,-70.27 636.38,-69.09 643.87,-76.58 646.91,-70.27"/>
</g>
<!-- Node7&#45;&gt;Node1 -->
<g id="edge17" class="edge">
<title>Node7&#45;&gt;Node1</title>
<path fill="none" stroke="midnightblue" d="M527.32,-70.67C536.89,-73.21 546.7,-75.73 556,-78 600.42,-88.83 651.38,-99.73 687.71,-107.24"/>
<polygon fill="midnightblue" stroke="midnightblue" points="528.03,-67.24 517.46,-68.03 526.22,-74 528.03,-67.24"/>
</g>
<!-- Node7&#45;&gt;Node6 -->
<g id="edge13" class="edge">
<title>Node7&#45;&gt;Node6</title>
<path fill="none" stroke="darkgreen" d="M527.33,-54C536.79,-54 546.45,-54 555.58,-54"/>
<polygon fill="darkgreen" stroke="darkgreen" points="527.19,-50.5 517.19,-54 527.19,-57.5 527.19,-50.5"/>
</g>
<!-- Node8 -->
<g id="node8" class="node">
<title>Node8</title>
<g id="a_node8"><a xlink:title=" ">
<polygon fill="none" stroke="#bfbfbf" points="587.5,-0.5 587.5,-19.5 620.5,-19.5 620.5,-0.5 587.5,-0.5"/>
<text text-anchor="middle" x="604" y="-7.5" font-family="Helvetica,sans-Serif" font-size="10.00">Tps</text>
</a>
</g>
</g>
<!-- Node8&#45;&gt;Node1 -->
<g id="edge18" class="edge">
<title>Node8&#45;&gt;Node1</title>
<path fill="none" stroke="midnightblue" d="M630.21,-17.92C637.56,-20.82 645.39,-24.51 652,-29 682.23,-49.52 709.96,-82.5 724.77,-101.72"/>
<polygon fill="midnightblue" stroke="midnightblue" points="631.23,-14.57 620.63,-14.46 628.85,-21.15 631.23,-14.57"/>
</g>
</g>
</svg>
