<?xml version="1.0" encoding="UTF-8" standalone="no"?>
<!DOCTYPE svg PUBLIC "-//W3C//DTD SVG 1.1//EN"
 "http://www.w3.org/Graphics/SVG/1.1/DTD/svg11.dtd">
<!-- Generated by graphviz version 2.44.1 (20220725.2034)
 -->
<!-- Title: plang::detail::mixin_base&lt; Tps &gt; Pages: 1 -->
<svg width="159pt" height="162pt"
 viewBox="0.00 0.00 158.50 162.00" xmlns="http://www.w3.org/2000/svg" xmlns:xlink="http://www.w3.org/1999/xlink">
<g id="graph0" class="graph" transform="scale(1 1) rotate(0) translate(4 158)">
<title>plang::detail::mixin_base&lt; Tps &gt;</title>
<!-- Node1 -->
<g id="node1" class="node">
<title>Node1</title>
<g id="a_node1"><a xlink:title="Common derived class template for distributed overloading.">
<polygon fill="#bfbfbf" stroke="black" points="44,-0.5 44,-30.5 142,-30.5 142,-0.5 44,-0.5"/>
<text text-anchor="start" x="52" y="-18.5" font-family="Helvetica,sans-Serif" font-size="10.00">plang::detail::mixin</text>
<text text-anchor="middle" x="93" y="-7.5" font-family="Helvetica,sans-Serif" font-size="10.00">_base&lt; Tps &gt;</text>
</a>
</g>
</g>
<!-- Node2 -->
<g id="node2" class="node">
<title>Node2</title>
<g id="a_node2"><a xlink:href="classplang_1_1detail_1_1path__manager.html" target="_top" xlink:title="Handles database actions for paths.">
<polygon fill="none" stroke="black" points="5,-67.5 5,-97.5 99,-97.5 99,-67.5 5,-67.5"/>
<text text-anchor="start" x="13" y="-85.5" font-family="Helvetica,sans-Serif" font-size="10.00">plang::detail::path</text>
<text text-anchor="middle" x="52" y="-74.5" font-family="Helvetica,sans-Serif" font-size="10.00">_manager</text>
</a>
</g>
</g>
<!-- Node2&#45;&gt;Node1 -->
<g id="edge1" class="edge">
<title>Node2&#45;&gt;Node1</title>
<path fill="none" stroke="midnightblue" d="M66.28,-58.87C72.21,-49.46 78.91,-38.83 84.12,-30.58"/>
<polygon fill="midnightblue" stroke="midnightblue" points="63.27,-57.07 60.9,-67.4 69.19,-60.81 63.27,-57.07"/>
</g>
<!-- Node3 -->
<g id="node3" class="node">
<title>Node3</title>
<g id="a_node3"><a xlink:href="classplang_1_1detail_1_1corpus.html" target="_top" xlink:title="Provides a basic interface to a database.">
<polygon fill="none" stroke="black" points="0,-134.5 0,-153.5 104,-153.5 104,-134.5 0,-134.5"/>
<text text-anchor="middle" x="52" y="-141.5" font-family="Helvetica,sans-Serif" font-size="10.00">plang::detail::corpus</text>
</a>
</g>
</g>
<!-- Node3&#45;&gt;Node2 -->
<g id="edge2" class="edge">
<title>Node3&#45;&gt;Node2</title>
<path fill="none" stroke="darkgreen" d="M52,-124.23C52,-115.59 52,-105.5 52,-97.52"/>
<polygon fill="darkgreen" stroke="darkgreen" points="48.5,-124.48 52,-134.48 55.5,-124.48 48.5,-124.48"/>
</g>
<!-- Node4 -->
<g id="node4" class="node">
<title>Node4</title>
<g id="a_node4"><a xlink:title=" ">
<polygon fill="none" stroke="#bfbfbf" points="117.5,-73 117.5,-92 150.5,-92 150.5,-73 117.5,-73"/>
<text text-anchor="middle" x="134" y="-80" font-family="Helvetica,sans-Serif" font-size="10.00">Tps</text>
</a>
</g>
</g>
<!-- Node4&#45;&gt;Node1 -->
<g id="edge3" class="edge">
<title>Node4&#45;&gt;Node1</title>
<path fill="none" stroke="midnightblue" d="M122.98,-64.03C116.37,-53.56 108.08,-40.4 101.89,-30.59"/>
<polygon fill="midnightblue" stroke="midnightblue" points="120.18,-66.14 128.47,-72.73 126.1,-62.41 120.18,-66.14"/>
</g>
</g>
</svg>
