<?xml version="1.0" encoding="UTF-8" standalone="no"?>
<!DOCTYPE svg PUBLIC "-//W3C//DTD SVG 1.1//EN"
 "http://www.w3.org/Graphics/SVG/1.1/DTD/svg11.dtd">
<!-- Generated by graphviz version 2.44.1 (20220725.2034)
 -->
<!-- Title: plang::detail::mixin_base&lt; Tps &gt; Pages: 1 -->
<svg width="662pt" height="160pt"
 viewBox="0.00 0.00 662.00 159.50" xmlns="http://www.w3.org/2000/svg" xmlns:xlink="http://www.w3.org/1999/xlink">
<g id="graph0" class="graph" transform="scale(1 1) rotate(0) translate(4 155.5)">
<title>plang::detail::mixin_base&lt; Tps &gt;</title>
<!-- Node1 -->
<g id="node1" class="node">
<title>Node1</title>
<g id="a_node1"><a xlink:title="Common derived class template for distributed overloading.">
<polygon fill="#bfbfbf" stroke="black" points="556,-61 556,-91 654,-91 654,-61 556,-61"/>
<text text-anchor="start" x="564" y="-79" font-family="Helvetica,sans-Serif" font-size="10.00">plang::detail::mixin</text>
<text text-anchor="middle" x="605" y="-68" font-family="Helvetica,sans-Serif" font-size="10.00">_base&lt; Tps &gt;</text>
</a>
</g>
</g>
<!-- Node2 -->
<g id="node2" class="node">
<title>Node2</title>
<g id="a_node2"><a xlink:href="classplang_1_1detail_1_1path__manager.html" target="_top" xlink:title="Handles database actions for paths.">
<polygon fill="none" stroke="black" points="140,-121 140,-151 234,-151 234,-121 140,-121"/>
<text text-anchor="start" x="148" y="-139" font-family="Helvetica,sans-Serif" font-size="10.00">plang::detail::path</text>
<text text-anchor="middle" x="187" y="-128" font-family="Helvetica,sans-Serif" font-size="10.00">_manager</text>
</a>
</g>
</g>
<!-- Node2&#45;&gt;Node1 -->
<g id="edge1" class="edge">
<title>Node2&#45;&gt;Node1</title>
<path fill="none" stroke="midnightblue" d="M244.36,-133.35C310.85,-129.43 424.44,-120.23 520,-100 531.72,-97.52 544.21,-94.28 555.87,-90.99"/>
<polygon fill="midnightblue" stroke="midnightblue" points="243.89,-129.87 234.11,-133.93 244.29,-136.86 243.89,-129.87"/>
</g>
<!-- Node4 -->
<g id="node4" class="node">
<title>Node4</title>
<g id="a_node4"><a xlink:href="classplang_1_1detail_1_1symbol__class__manager.html" target="_top" xlink:title=" ">
<polygon fill="none" stroke="black" points="270,-80 270,-110 377,-110 377,-80 270,-80"/>
<text text-anchor="start" x="278" y="-98" font-family="Helvetica,sans-Serif" font-size="10.00">plang::detail::symbol</text>
<text text-anchor="middle" x="323.5" y="-87" font-family="Helvetica,sans-Serif" font-size="10.00">_class_manager</text>
</a>
</g>
</g>
<!-- Node2&#45;&gt;Node4 -->
<g id="edge5" class="edge">
<title>Node2&#45;&gt;Node4</title>
<path fill="none" stroke="darkgreen" d="M244.11,-118.9C253.67,-115.98 263.54,-112.97 272.91,-110.12"/>
<polygon fill="darkgreen" stroke="darkgreen" points="242.83,-115.63 234.29,-121.89 244.87,-122.32 242.83,-115.63"/>
</g>
<!-- Node3 -->
<g id="node3" class="node">
<title>Node3</title>
<g id="a_node3"><a xlink:href="classplang_1_1detail_1_1corpus.html" target="_top" xlink:title="Provides a basic interface to a database.">
<polygon fill="none" stroke="black" points="0,-82.5 0,-101.5 104,-101.5 104,-82.5 0,-82.5"/>
<text text-anchor="middle" x="52" y="-89.5" font-family="Helvetica,sans-Serif" font-size="10.00">plang::detail::corpus</text>
</a>
</g>
</g>
<!-- Node3&#45;&gt;Node2 -->
<g id="edge2" class="edge">
<title>Node3&#45;&gt;Node2</title>
<path fill="none" stroke="darkgreen" d="M91.52,-104.74C106.82,-109.8 124.53,-115.67 140.46,-120.93"/>
<polygon fill="darkgreen" stroke="darkgreen" points="92.45,-101.37 81.86,-101.55 90.25,-108.01 92.45,-101.37"/>
</g>
<!-- Node3&#45;&gt;Node4 -->
<g id="edge4" class="edge">
<title>Node3&#45;&gt;Node4</title>
<path fill="none" stroke="darkgreen" d="M114.05,-92.68C160.99,-93.2 225.16,-93.92 269.86,-94.41"/>
<polygon fill="darkgreen" stroke="darkgreen" points="114.05,-89.18 104.01,-92.57 113.97,-96.18 114.05,-89.18"/>
</g>
<!-- Node5 -->
<g id="node5" class="node">
<title>Node5</title>
<g id="a_node5"><a xlink:href="classplang_1_1detail_1_1symbol__manager.html" target="_top" xlink:title=" ">
<polygon fill="none" stroke="black" points="413,-39 413,-69 520,-69 520,-39 413,-39"/>
<text text-anchor="start" x="421" y="-57" font-family="Helvetica,sans-Serif" font-size="10.00">plang::detail::symbol</text>
<text text-anchor="middle" x="466.5" y="-46" font-family="Helvetica,sans-Serif" font-size="10.00">_manager</text>
</a>
</g>
</g>
<!-- Node3&#45;&gt;Node5 -->
<g id="edge7" class="edge">
<title>Node3&#45;&gt;Node5</title>
<path fill="none" stroke="darkgreen" d="M114.39,-85.46C157.83,-80.9 217.46,-74.81 270,-70 318.33,-65.57 373.43,-61.12 412.79,-58.04"/>
<polygon fill="darkgreen" stroke="darkgreen" points="113.85,-81.99 104.27,-86.52 114.58,-88.95 113.85,-81.99"/>
</g>
<!-- Node4&#45;&gt;Node1 -->
<g id="edge3" class="edge">
<title>Node4&#45;&gt;Node1</title>
<path fill="none" stroke="midnightblue" d="M387.32,-90.73C438.35,-87.26 509.26,-82.44 555.87,-79.27"/>
<polygon fill="midnightblue" stroke="midnightblue" points="386.81,-87.26 377.07,-91.43 387.29,-94.24 386.81,-87.26"/>
</g>
<!-- Node4&#45;&gt;Node5 -->
<g id="edge8" class="edge">
<title>Node4&#45;&gt;Node5</title>
<path fill="none" stroke="darkgreen" d="M385.82,-77.17C395.15,-74.46 404.7,-71.68 413.8,-69.03"/>
<polygon fill="darkgreen" stroke="darkgreen" points="384.83,-73.81 376.2,-79.97 386.78,-80.53 384.83,-73.81"/>
</g>
<!-- Node5&#45;&gt;Node1 -->
<g id="edge6" class="edge">
<title>Node5&#45;&gt;Node1</title>
<path fill="none" stroke="midnightblue" d="M530.27,-64.12C538.86,-65.5 547.56,-66.9 555.83,-68.24"/>
<polygon fill="midnightblue" stroke="midnightblue" points="530.7,-60.64 520.27,-62.51 529.59,-67.55 530.7,-60.64"/>
</g>
<!-- Node6 -->
<g id="node6" class="node">
<title>Node6</title>
<g id="a_node6"><a xlink:title=" ">
<polygon fill="none" stroke="#bfbfbf" points="450,-0.5 450,-19.5 483,-19.5 483,-0.5 450,-0.5"/>
<text text-anchor="middle" x="466.5" y="-7.5" font-family="Helvetica,sans-Serif" font-size="10.00">Tps</text>
</a>
</g>
</g>
<!-- Node6&#45;&gt;Node1 -->
<g id="edge9" class="edge">
<title>Node6&#45;&gt;Node1</title>
<path fill="none" stroke="midnightblue" d="M493,-18.29C501.69,-21.36 511.38,-25.06 520,-29 540.67,-38.45 563.09,-51.12 579.56,-60.93"/>
<polygon fill="midnightblue" stroke="midnightblue" points="493.98,-14.93 483.39,-15 491.72,-21.55 493.98,-14.93"/>
</g>
</g>
</svg>
