<?xml version="1.0" encoding="UTF-8" standalone="no"?>
<!DOCTYPE svg PUBLIC "-//W3C//DTD SVG 1.1//EN"
 "http://www.w3.org/Graphics/SVG/1.1/DTD/svg11.dtd">
<!-- Generated by graphviz version 2.44.1 (20220725.2034)
 -->
<!-- Title: plang::detail::corpus_mixins Pages: 1 -->
<svg width="785pt" height="122pt"
 viewBox="0.00 0.00 785.00 121.50" xmlns="http://www.w3.org/2000/svg" xmlns:xlink="http://www.w3.org/1999/xlink">
<g id="graph0" class="graph" transform="scale(1 1) rotate(0) translate(4 117.5)">
<title>plang::detail::corpus_mixins</title>
<!-- Node1 -->
<g id="node1" class="node">
<title>Node1</title>
<g id="a_node1"><a xlink:title="Base class for the corpus.">
<polygon fill="#bfbfbf" stroke="black" points="562,-39 562,-69 666,-69 666,-39 562,-39"/>
<text text-anchor="start" x="570" y="-57" font-family="Helvetica,sans-Serif" font-size="10.00">plang::detail::corpus</text>
<text text-anchor="middle" x="614" y="-46" font-family="Helvetica,sans-Serif" font-size="10.00">_mixins</text>
</a>
</g>
</g>
<!-- Node7 -->
<g id="node7" class="node">
<title>Node7</title>
<g id="a_node7"><a xlink:href="classplang_1_1corpus.html" target="_top" xlink:title="The main interface for interacting with a corpus.">
<polygon fill="none" stroke="black" points="702,-44.5 702,-63.5 777,-63.5 777,-44.5 702,-44.5"/>
<text text-anchor="middle" x="739.5" y="-51.5" font-family="Helvetica,sans-Serif" font-size="10.00">plang::corpus</text>
</a>
</g>
</g>
<!-- Node1&#45;&gt;Node7 -->
<g id="edge8" class="edge">
<title>Node1&#45;&gt;Node7</title>
<path fill="none" stroke="midnightblue" d="M676.45,-54C685.14,-54 693.83,-54 701.85,-54"/>
<polygon fill="midnightblue" stroke="midnightblue" points="676.3,-50.5 666.3,-54 676.3,-57.5 676.3,-50.5"/>
</g>
<!-- Node2 -->
<g id="node2" class="node">
<title>Node2</title>
<g id="a_node2"><a xlink:href="structplang_1_1detail_1_1mixin__base.html" target="_top" xlink:title=" ">
<polygon fill="none" stroke="black" points="413,-22.5 413,-85.5 526,-85.5 526,-22.5 413,-22.5"/>
<text text-anchor="start" x="421" y="-73.5" font-family="Helvetica,sans-Serif" font-size="10.00">plang::detail::mixin</text>
<text text-anchor="start" x="421" y="-62.5" font-family="Helvetica,sans-Serif" font-size="10.00">_base&lt; plang::detail</text>
<text text-anchor="start" x="421" y="-51.5" font-family="Helvetica,sans-Serif" font-size="10.00">::path_manager, plang</text>
<text text-anchor="start" x="421" y="-40.5" font-family="Helvetica,sans-Serif" font-size="10.00">::detail::symbol_class</text>
<text text-anchor="middle" x="469.5" y="-29.5" font-family="Helvetica,sans-Serif" font-size="10.00">_manager &gt;</text>
</a>
</g>
</g>
<!-- Node2&#45;&gt;Node1 -->
<g id="edge1" class="edge">
<title>Node2&#45;&gt;Node1</title>
<path fill="none" stroke="midnightblue" d="M536,-54C544.59,-54 553.3,-54 561.61,-54"/>
<polygon fill="midnightblue" stroke="midnightblue" points="536,-50.5 526,-54 536,-57.5 536,-50.5"/>
</g>
<!-- Node3 -->
<g id="node3" class="node">
<title>Node3</title>
<g id="a_node3"><a xlink:href="classplang_1_1detail_1_1path__manager.html" target="_top" xlink:title="Handles database actions for paths.">
<polygon fill="none" stroke="black" points="140,-83 140,-113 234,-113 234,-83 140,-83"/>
<text text-anchor="start" x="148" y="-101" font-family="Helvetica,sans-Serif" font-size="10.00">plang::detail::path</text>
<text text-anchor="middle" x="187" y="-90" font-family="Helvetica,sans-Serif" font-size="10.00">_manager</text>
</a>
</g>
</g>
<!-- Node3&#45;&gt;Node2 -->
<g id="edge2" class="edge">
<title>Node3&#45;&gt;Node2</title>
<path fill="none" stroke="midnightblue" d="M244.42,-94.79C282.17,-92.05 332.84,-87.19 377,-79 388.66,-76.84 401,-73.91 412.71,-70.83"/>
<polygon fill="midnightblue" stroke="midnightblue" points="243.86,-91.32 234.13,-95.51 244.35,-98.31 243.86,-91.32"/>
</g>
<!-- Node5 -->
<g id="node5" class="node">
<title>Node5</title>
<g id="a_node5"><a xlink:href="classplang_1_1detail_1_1symbol__class__manager.html" target="_top" xlink:title=" ">
<polygon fill="none" stroke="black" points="270,-39 270,-69 377,-69 377,-39 270,-39"/>
<text text-anchor="start" x="278" y="-57" font-family="Helvetica,sans-Serif" font-size="10.00">plang::detail::symbol</text>
<text text-anchor="middle" x="323.5" y="-46" font-family="Helvetica,sans-Serif" font-size="10.00">_class_manager</text>
</a>
</g>
</g>
<!-- Node3&#45;&gt;Node5 -->
<g id="edge6" class="edge">
<title>Node3&#45;&gt;Node5</title>
<path fill="none" stroke="#8b1a1a" d="M243.73,-79.77C254.58,-76.22 265.84,-72.54 276.34,-69.1"/>
<polygon fill="#8b1a1a" stroke="#8b1a1a" points="242.33,-76.54 233.91,-82.98 244.5,-83.2 242.33,-76.54"/>
</g>
<!-- Node4 -->
<g id="node4" class="node">
<title>Node4</title>
<g id="a_node4"><a xlink:href="classplang_1_1detail_1_1corpus.html" target="_top" xlink:title="Provides a basic interface to a database.">
<polygon fill="none" stroke="black" points="0,-66.5 0,-85.5 104,-85.5 104,-66.5 0,-66.5"/>
<text text-anchor="middle" x="52" y="-73.5" font-family="Helvetica,sans-Serif" font-size="10.00">plang::detail::corpus</text>
</a>
</g>
</g>
<!-- Node4&#45;&gt;Node3 -->
<g id="edge3" class="edge">
<title>Node4&#45;&gt;Node3</title>
<path fill="none" stroke="darkgreen" d="M114.06,-86.1C122.67,-87.52 131.4,-88.97 139.67,-90.34"/>
<polygon fill="darkgreen" stroke="darkgreen" points="114.48,-82.62 104.04,-84.44 113.34,-89.53 114.48,-82.62"/>
</g>
<!-- Node4&#45;&gt;Node5 -->
<g id="edge5" class="edge">
<title>Node4&#45;&gt;Node5</title>
<path fill="none" stroke="darkgreen" d="M114.05,-71.02C160.99,-67.18 225.16,-61.95 269.86,-58.3"/>
<polygon fill="darkgreen" stroke="darkgreen" points="113.69,-67.53 104.01,-71.84 114.26,-74.51 113.69,-67.53"/>
</g>
<!-- Node5&#45;&gt;Node2 -->
<g id="edge4" class="edge">
<title>Node5&#45;&gt;Node2</title>
<path fill="none" stroke="midnightblue" d="M387.47,-54C395.9,-54 404.5,-54 412.8,-54"/>
<polygon fill="midnightblue" stroke="midnightblue" points="387.3,-50.5 377.3,-54 387.3,-57.5 387.3,-50.5"/>
</g>
<!-- Node6 -->
<g id="node6" class="node">
<title>Node6</title>
<g id="a_node6"><a xlink:title=" ">
<polygon fill="none" stroke="#bfbfbf" points="307,-0.5 307,-19.5 340,-19.5 340,-0.5 307,-0.5"/>
<text text-anchor="middle" x="323.5" y="-7.5" font-family="Helvetica,sans-Serif" font-size="10.00">Tps</text>
</a>
</g>
</g>
<!-- Node6&#45;&gt;Node2 -->
<g id="edge7" class="edge">
<title>Node6&#45;&gt;Node2</title>
<path fill="none" stroke="midnightblue" d="M350.13,-17.83C367.53,-23.15 391.21,-30.38 412.82,-36.99"/>
<polygon fill="midnightblue" stroke="midnightblue" points="350.77,-14.37 340.18,-14.79 348.73,-21.06 350.77,-14.37"/>
</g>
</g>
</svg>
