<?xml version="1.0" encoding="UTF-8" standalone="no"?>
<!DOCTYPE svg PUBLIC "-//W3C//DTD SVG 1.1//EN"
 "http://www.w3.org/Graphics/SVG/1.1/DTD/svg11.dtd">
<!-- Generated by graphviz version 2.44.1 (20220725.2034)
 -->
<!-- Title: plang::detail::mixin_base&lt; Tps &gt; Pages: 1 -->
<svg width="235pt" height="229pt"
 viewBox="0.00 0.00 234.50 229.00" xmlns="http://www.w3.org/2000/svg" xmlns:xlink="http://www.w3.org/1999/xlink">
<g id="graph0" class="graph" transform="scale(1 1) rotate(0) translate(4 225)">
<title>plang::detail::mixin_base&lt; Tps &gt;</title>
<!-- Node1 -->
<g id="node1" class="node">
<title>Node1</title>
<g id="a_node1"><a xlink:title="Common derived class template for distributed overloading.">
<polygon fill="#bfbfbf" stroke="black" points="73,-0.5 73,-30.5 171,-30.5 171,-0.5 73,-0.5"/>
<text text-anchor="start" x="81" y="-18.5" font-family="Helvetica,sans-Serif" font-size="10.00">plang::detail::mixin</text>
<text text-anchor="middle" x="122" y="-7.5" font-family="Helvetica,sans-Serif" font-size="10.00">_base&lt; Tps &gt;</text>
</a>
</g>
</g>
<!-- Node2 -->
<g id="node2" class="node">
<title>Node2</title>
<g id="a_node2"><a xlink:href="classplang_1_1detail_1_1path__manager.html" target="_top" xlink:title="Handles database actions for paths.">
<polygon fill="none" stroke="black" points="0,-134.5 0,-164.5 94,-164.5 94,-134.5 0,-134.5"/>
<text text-anchor="start" x="8" y="-152.5" font-family="Helvetica,sans-Serif" font-size="10.00">plang::detail::path</text>
<text text-anchor="middle" x="47" y="-141.5" font-family="Helvetica,sans-Serif" font-size="10.00">_manager</text>
</a>
</g>
</g>
<!-- Node2&#45;&gt;Node1 -->
<g id="edge1" class="edge">
<title>Node2&#45;&gt;Node1</title>
<path fill="none" stroke="midnightblue" d="M46.03,-123.96C46.41,-106.94 49.08,-84.3 59,-67 67.72,-51.8 82.94,-39.4 96.24,-30.7"/>
<polygon fill="midnightblue" stroke="midnightblue" points="42.53,-124.24 46.06,-134.23 49.53,-124.22 42.53,-124.24"/>
</g>
<!-- Node4 -->
<g id="node4" class="node">
<title>Node4</title>
<g id="a_node4"><a xlink:href="classplang_1_1detail_1_1symbol__class__manager.html" target="_top" xlink:title=" ">
<polygon fill="none" stroke="black" points="68.5,-67.5 68.5,-97.5 175.5,-97.5 175.5,-67.5 68.5,-67.5"/>
<text text-anchor="start" x="76.5" y="-85.5" font-family="Helvetica,sans-Serif" font-size="10.00">plang::detail::symbol</text>
<text text-anchor="middle" x="122" y="-74.5" font-family="Helvetica,sans-Serif" font-size="10.00">_class_manager</text>
</a>
</g>
</g>
<!-- Node2&#45;&gt;Node4 -->
<g id="edge5" class="edge">
<title>Node2&#45;&gt;Node4</title>
<path fill="none" stroke="#8b1a1a" d="M71.12,-127.6C82.44,-117.78 95.64,-106.34 105.76,-97.58"/>
<polygon fill="#8b1a1a" stroke="#8b1a1a" points="68.54,-125.2 63.27,-134.4 73.12,-130.49 68.54,-125.2"/>
</g>
<!-- Node3 -->
<g id="node3" class="node">
<title>Node3</title>
<g id="a_node3"><a xlink:href="classplang_1_1detail_1_1corpus.html" target="_top" xlink:title="Provides a basic interface to a database.">
<polygon fill="none" stroke="black" points="32,-201.5 32,-220.5 136,-220.5 136,-201.5 32,-201.5"/>
<text text-anchor="middle" x="84" y="-208.5" font-family="Helvetica,sans-Serif" font-size="10.00">plang::detail::corpus</text>
</a>
</g>
</g>
<!-- Node3&#45;&gt;Node2 -->
<g id="edge2" class="edge">
<title>Node3&#45;&gt;Node2</title>
<path fill="none" stroke="darkgreen" d="M73.41,-192.96C67.8,-183.96 61.01,-173.03 55.72,-164.52"/>
<polygon fill="darkgreen" stroke="darkgreen" points="70.45,-194.83 78.7,-201.48 76.39,-191.13 70.45,-194.83"/>
</g>
<!-- Node3&#45;&gt;Node4 -->
<g id="edge4" class="edge">
<title>Node3&#45;&gt;Node4</title>
<path fill="none" stroke="darkgreen" d="M92.44,-191.99C96.02,-183.86 100.05,-174.07 103,-165 110.55,-141.79 116.37,-113.94 119.48,-97.54"/>
<polygon fill="darkgreen" stroke="darkgreen" points="89.2,-190.65 88.24,-201.21 95.57,-193.55 89.2,-190.65"/>
</g>
<!-- Node4&#45;&gt;Node1 -->
<g id="edge3" class="edge">
<title>Node4&#45;&gt;Node1</title>
<path fill="none" stroke="midnightblue" d="M122,-57.11C122,-48.15 122,-38.32 122,-30.58"/>
<polygon fill="midnightblue" stroke="midnightblue" points="118.5,-57.4 122,-67.4 125.5,-57.4 118.5,-57.4"/>
</g>
<!-- Node5 -->
<g id="node5" class="node">
<title>Node5</title>
<g id="a_node5"><a xlink:title=" ">
<polygon fill="none" stroke="#bfbfbf" points="193.5,-73 193.5,-92 226.5,-92 226.5,-73 193.5,-73"/>
<text text-anchor="middle" x="210" y="-80" font-family="Helvetica,sans-Serif" font-size="10.00">Tps</text>
</a>
</g>
</g>
<!-- Node5&#45;&gt;Node1 -->
<g id="edge6" class="edge">
<title>Node5&#45;&gt;Node1</title>
<path fill="none" stroke="midnightblue" d="M189.75,-66.54C175.11,-55.73 155.44,-41.2 141.07,-30.59"/>
<polygon fill="midnightblue" stroke="midnightblue" points="188.01,-69.61 198.13,-72.73 192.17,-63.98 188.01,-69.61"/>
</g>
</g>
</svg>
