<?xml version="1.0" encoding="UTF-8" standalone="no"?>
<!DOCTYPE svg PUBLIC "-//W3C//DTD SVG 1.1//EN"
 "http://www.w3.org/Graphics/SVG/1.1/DTD/svg11.dtd">
<!-- Generated by graphviz version 2.44.1 (20220725.2034)
 -->
<!-- Title: include/plang/corpus/plot/symbol.hpp Pages: 1 -->
<svg width="205pt" height="352pt"
 viewBox="0.00 0.00 204.50 352.00" xmlns="http://www.w3.org/2000/svg" xmlns:xlink="http://www.w3.org/1999/xlink">
<g id="graph0" class="graph" transform="scale(1 1) rotate(0) translate(4 348)">
<title>include/plang/corpus/plot/symbol.hpp</title>
<!-- Node1 -->
<g id="node1" class="node">
<title>Node1</title>
<g id="a_node1"><a xlink:title=" ">
<polygon fill="#bfbfbf" stroke="black" points="31.5,-313.5 31.5,-343.5 137.5,-343.5 137.5,-313.5 31.5,-313.5"/>
<text text-anchor="start" x="39.5" y="-331.5" font-family="Helvetica,sans-Serif" font-size="10.00">include/plang/corpus</text>
<text text-anchor="middle" x="84.5" y="-320.5" font-family="Helvetica,sans-Serif" font-size="10.00">/plot/symbol.hpp</text>
</a>
</g>
</g>
<!-- Node2 -->
<g id="node2" class="node">
<title>Node2</title>
<g id="a_node2"><a xlink:href="corpus_2plot_8hpp.html" target="_top" xlink:title=" ">
<polygon fill="none" stroke="black" points="9.5,-112.5 9.5,-142.5 115.5,-142.5 115.5,-112.5 9.5,-112.5"/>
<text text-anchor="start" x="17.5" y="-130.5" font-family="Helvetica,sans-Serif" font-size="10.00">include/plang/corpus</text>
<text text-anchor="middle" x="62.5" y="-119.5" font-family="Helvetica,sans-Serif" font-size="10.00">/plot.hpp</text>
</a>
</g>
</g>
<!-- Node1&#45;&gt;Node2 -->
<g id="edge1" class="edge">
<title>Node1&#45;&gt;Node2</title>
<path fill="none" stroke="midnightblue" d="M49.42,-307.54C38.76,-299.54 28.33,-289.27 22.5,-277 0.38,-230.46 34.35,-169.69 52.41,-142.6"/>
<polygon fill="midnightblue" stroke="midnightblue" points="47.73,-310.63 57.94,-313.47 51.73,-304.88 47.73,-310.63"/>
</g>
<!-- Node5 -->
<g id="node5" class="node">
<title>Node5</title>
<g id="a_node5"><a xlink:href="object_8hpp.html" target="_top" xlink:title=" ">
<polygon fill="none" stroke="black" points="31.5,-246.5 31.5,-276.5 137.5,-276.5 137.5,-246.5 31.5,-246.5"/>
<text text-anchor="start" x="39.5" y="-264.5" font-family="Helvetica,sans-Serif" font-size="10.00">include/plang/corpus</text>
<text text-anchor="middle" x="84.5" y="-253.5" font-family="Helvetica,sans-Serif" font-size="10.00">/plot/object.hpp</text>
</a>
</g>
</g>
<!-- Node1&#45;&gt;Node5 -->
<g id="edge4" class="edge">
<title>Node1&#45;&gt;Node5</title>
<path fill="none" stroke="midnightblue" d="M84.5,-303.11C84.5,-294.15 84.5,-284.32 84.5,-276.58"/>
<polygon fill="midnightblue" stroke="midnightblue" points="81,-303.4 84.5,-313.4 88,-303.4 81,-303.4"/>
</g>
<!-- Node6 -->
<g id="node6" class="node">
<title>Node6</title>
<g id="a_node6"><a xlink:href="point_8hpp.html" target="_top" xlink:title=" ">
<polygon fill="none" stroke="black" points="90.5,-179.5 90.5,-209.5 196.5,-209.5 196.5,-179.5 90.5,-179.5"/>
<text text-anchor="start" x="98.5" y="-197.5" font-family="Helvetica,sans-Serif" font-size="10.00">include/plang/corpus</text>
<text text-anchor="middle" x="143.5" y="-186.5" font-family="Helvetica,sans-Serif" font-size="10.00">/plot/point.hpp</text>
</a>
</g>
</g>
<!-- Node1&#45;&gt;Node6 -->
<g id="edge8" class="edge">
<title>Node1&#45;&gt;Node6</title>
<path fill="none" stroke="midnightblue" d="M119.58,-307.54C130.24,-299.54 140.67,-289.27 146.5,-277 156.83,-255.26 152.12,-226.45 147.79,-209.55"/>
<polygon fill="midnightblue" stroke="midnightblue" points="117.27,-304.88 111.06,-313.47 121.27,-310.63 117.27,-304.88"/>
</g>
<!-- Node3 -->
<g id="node3" class="node">
<title>Node3</title>
<g id="a_node3"><a xlink:href="corpus_8hpp.html" target="_top" xlink:title=" ">
<polygon fill="none" stroke="black" points="0,-56.5 0,-75.5 125,-75.5 125,-56.5 0,-56.5"/>
<text text-anchor="middle" x="62.5" y="-63.5" font-family="Helvetica,sans-Serif" font-size="10.00">include/plang/corpus.hpp</text>
</a>
</g>
</g>
<!-- Node2&#45;&gt;Node3 -->
<g id="edge2" class="edge">
<title>Node2&#45;&gt;Node3</title>
<path fill="none" stroke="midnightblue" d="M62.5,-102.29C62.5,-92.86 62.5,-82.65 62.5,-75.66"/>
<polygon fill="midnightblue" stroke="midnightblue" points="59,-102.4 62.5,-112.4 66,-102.4 59,-102.4"/>
</g>
<!-- Node4 -->
<g id="node4" class="node">
<title>Node4</title>
<g id="a_node4"><a xlink:href="cli_8hpp.html" target="_top" xlink:title=" ">
<polygon fill="none" stroke="black" points="5,-0.5 5,-19.5 120,-19.5 120,-0.5 5,-0.5"/>
<text text-anchor="middle" x="62.5" y="-7.5" font-family="Helvetica,sans-Serif" font-size="10.00">include/plangcli/cli.hpp</text>
</a>
</g>
</g>
<!-- Node3&#45;&gt;Node4 -->
<g id="edge3" class="edge">
<title>Node3&#45;&gt;Node4</title>
<path fill="none" stroke="midnightblue" d="M62.5,-45.8C62.5,-36.91 62.5,-26.78 62.5,-19.75"/>
<polygon fill="midnightblue" stroke="midnightblue" points="59,-46.08 62.5,-56.08 66,-46.08 59,-46.08"/>
</g>
<!-- Node5&#45;&gt;Node2 -->
<g id="edge5" class="edge">
<title>Node5&#45;&gt;Node2</title>
<path fill="none" stroke="midnightblue" d="M80.48,-236.39C75.9,-208.9 68.56,-164.89 64.84,-142.52"/>
<polygon fill="midnightblue" stroke="midnightblue" points="77.05,-237.09 82.15,-246.37 83.95,-235.93 77.05,-237.09"/>
</g>
<!-- Node5&#45;&gt;Node6 -->
<g id="edge6" class="edge">
<title>Node5&#45;&gt;Node6</title>
<path fill="none" stroke="midnightblue" d="M104.25,-238.74C112.98,-229.12 123,-218.09 130.72,-209.58"/>
<polygon fill="midnightblue" stroke="midnightblue" points="101.43,-236.64 97.3,-246.4 106.61,-241.34 101.43,-236.64"/>
</g>
<!-- Node6&#45;&gt;Node2 -->
<g id="edge7" class="edge">
<title>Node6&#45;&gt;Node2</title>
<path fill="none" stroke="midnightblue" d="M117.81,-172.88C105.5,-163.01 91.07,-151.43 80.04,-142.58"/>
<polygon fill="midnightblue" stroke="midnightblue" points="115.93,-175.87 125.92,-179.4 120.32,-170.41 115.93,-175.87"/>
</g>
</g>
</svg>
