<?xml version="1.0" encoding="UTF-8" standalone="no"?>
<!DOCTYPE svg PUBLIC "-//W3C//DTD SVG 1.1//EN"
 "http://www.w3.org/Graphics/SVG/1.1/DTD/svg11.dtd">
<!-- Generated by graphviz version 2.44.1 (20220725.2034)
 -->
<!-- Title: include/plang/corpus/plot/symbol.hpp Pages: 1 -->
<svg width="679pt" height="263pt"
 viewBox="0.00 0.00 678.60 263.00" xmlns="http://www.w3.org/2000/svg" xmlns:xlink="http://www.w3.org/1999/xlink">
<g id="graph0" class="graph" transform="scale(1 1) rotate(0) translate(4 259)">
<title>include/plang/corpus/plot/symbol.hpp</title>
<!-- Node1 -->
<g id="node1" class="node">
<title>Node1</title>
<g id="a_node1"><a xlink:title=" ">
<polygon fill="#bfbfbf" stroke="black" points="334.6,-224.5 334.6,-254.5 440.6,-254.5 440.6,-224.5 334.6,-224.5"/>
<text text-anchor="start" x="342.6" y="-242.5" font-family="Helvetica,sans-Serif" font-size="10.00">include/plang/corpus</text>
<text text-anchor="middle" x="387.6" y="-231.5" font-family="Helvetica,sans-Serif" font-size="10.00">/plot/symbol.hpp</text>
</a>
</g>
</g>
<!-- Node2 -->
<g id="node2" class="node">
<title>Node2</title>
<g id="a_node2"><a xlink:title=" ">
<polygon fill="none" stroke="#bfbfbf" points="365.1,-0.5 365.1,-19.5 406.1,-19.5 406.1,-0.5 365.1,-0.5"/>
<text text-anchor="middle" x="385.6" y="-7.5" font-family="Helvetica,sans-Serif" font-size="10.00">string</text>
</a>
</g>
</g>
<!-- Node1&#45;&gt;Node2 -->
<g id="edge1" class="edge">
<title>Node1&#45;&gt;Node2</title>
<path fill="none" stroke="midnightblue" d="M334.48,-232.21C211.28,-215.65 -76.32,-164.43 19.6,-56 41.72,-30.99 270.82,-16.86 354.89,-12.48"/>
<polygon fill="midnightblue" stroke="midnightblue" points="355.27,-15.97 365.07,-11.97 354.91,-8.98 355.27,-15.97"/>
</g>
<!-- Node3 -->
<g id="node3" class="node">
<title>Node3</title>
<g id="a_node3"><a xlink:title=" ">
<polygon fill="none" stroke="#bfbfbf" points="482.6,-112.5 482.6,-131.5 526.6,-131.5 526.6,-112.5 482.6,-112.5"/>
<text text-anchor="middle" x="504.6" y="-119.5" font-family="Helvetica,sans-Serif" font-size="10.00">vector</text>
</a>
</g>
</g>
<!-- Node1&#45;&gt;Node3 -->
<g id="edge2" class="edge">
<title>Node1&#45;&gt;Node3</title>
<path fill="none" stroke="midnightblue" d="M408.61,-224.49C422.15,-214.98 439.74,-201.69 453.6,-188 468.69,-173.09 483.36,-153.72 493.07,-140.01"/>
<polygon fill="midnightblue" stroke="midnightblue" points="496.11,-141.77 498.93,-131.55 490.36,-137.78 496.11,-141.77"/>
</g>
<!-- Node4 -->
<g id="node4" class="node">
<title>Node4</title>
<g id="a_node4"><a xlink:title=" ">
<polygon fill="none" stroke="#bfbfbf" points="305.1,-112.5 305.1,-131.5 388.1,-131.5 388.1,-112.5 305.1,-112.5"/>
<text text-anchor="middle" x="346.6" y="-119.5" font-family="Helvetica,sans-Serif" font-size="10.00">unordered_map</text>
</a>
</g>
</g>
<!-- Node1&#45;&gt;Node4 -->
<g id="edge3" class="edge">
<title>Node1&#45;&gt;Node4</title>
<path fill="none" stroke="midnightblue" d="M359.11,-224.35C345.38,-215.86 330.26,-203.66 322.6,-188 314.87,-172.2 323.8,-153.24 332.88,-139.88"/>
<polygon fill="midnightblue" stroke="midnightblue" points="335.85,-141.76 338.99,-131.64 330.23,-137.59 335.85,-141.76"/>
</g>
<!-- Node5 -->
<g id="node5" class="node">
<title>Node5</title>
<g id="a_node5"><a xlink:href="base_8hpp.html" target="_top" xlink:title=" ">
<polygon fill="none" stroke="black" points="477.1,-56.5 477.1,-75.5 560.1,-75.5 560.1,-56.5 477.1,-56.5"/>
<text text-anchor="middle" x="518.6" y="-63.5" font-family="Helvetica,sans-Serif" font-size="10.00">plang/base.hpp</text>
</a>
</g>
</g>
<!-- Node1&#45;&gt;Node5 -->
<g id="edge4" class="edge">
<title>Node1&#45;&gt;Node5</title>
<path fill="none" stroke="midnightblue" d="M440.99,-232.4C493.95,-225.12 569.72,-210.96 587.6,-188 614.92,-152.92 567.41,-105.82 538.46,-82.06"/>
<polygon fill="midnightblue" stroke="midnightblue" points="540.52,-79.23 530.52,-75.74 536.16,-84.7 540.52,-79.23"/>
</g>
<!-- Node10 -->
<g id="node10" class="node">
<title>Node10</title>
<g id="a_node10"><a xlink:href="detail_8hpp.html" target="_top" xlink:title=" ">
<polygon fill="none" stroke="black" points="170.1,-112.5 170.1,-131.5 287.1,-131.5 287.1,-112.5 170.1,-112.5"/>
<text text-anchor="middle" x="228.6" y="-119.5" font-family="Helvetica,sans-Serif" font-size="10.00">plang/corpus/detail.hpp</text>
</a>
</g>
</g>
<!-- Node1&#45;&gt;Node10 -->
<g id="edge10" class="edge">
<title>Node1&#45;&gt;Node10</title>
<path fill="none" stroke="midnightblue" d="M367,-224.3C352.54,-214.26 332.79,-200.45 315.6,-188 292.19,-171.05 265.62,-151.1 248.07,-137.81"/>
<polygon fill="midnightblue" stroke="midnightblue" points="249.86,-134.78 239.78,-131.52 245.63,-140.35 249.86,-134.78"/>
</g>
<!-- Node16 -->
<g id="node16" class="node">
<title>Node16</title>
<g id="a_node16"><a xlink:href="path_8hpp.html" target="_top" xlink:title=" ">
<polygon fill="none" stroke="black" points="331.1,-168.5 331.1,-187.5 444.1,-187.5 444.1,-168.5 331.1,-168.5"/>
<text text-anchor="middle" x="387.6" y="-175.5" font-family="Helvetica,sans-Serif" font-size="10.00">plang/corpus/path.hpp</text>
</a>
</g>
</g>
<!-- Node1&#45;&gt;Node16 -->
<g id="edge17" class="edge">
<title>Node1&#45;&gt;Node16</title>
<path fill="none" stroke="midnightblue" d="M387.6,-224.4C387.6,-216.47 387.6,-206.46 387.6,-197.86"/>
<polygon fill="midnightblue" stroke="midnightblue" points="391.1,-197.66 387.6,-187.66 384.1,-197.66 391.1,-197.66"/>
</g>
<!-- Node17 -->
<g id="node17" class="node">
<title>Node17</title>
<g id="a_node17"><a xlink:href="plot_8hpp.html" target="_top" xlink:title=" ">
<polygon fill="none" stroke="black" points="501.1,-168.5 501.1,-187.5 578.1,-187.5 578.1,-168.5 501.1,-168.5"/>
<text text-anchor="middle" x="539.6" y="-175.5" font-family="Helvetica,sans-Serif" font-size="10.00">plang/plot.hpp</text>
</a>
</g>
</g>
<!-- Node1&#45;&gt;Node17 -->
<g id="edge23" class="edge">
<title>Node1&#45;&gt;Node17</title>
<path fill="none" stroke="midnightblue" d="M423.62,-224.4C449.24,-214.37 483.33,-201.03 507.91,-191.4"/>
<polygon fill="midnightblue" stroke="midnightblue" points="509.45,-194.56 517.48,-187.66 506.89,-188.04 509.45,-194.56"/>
</g>
<!-- Node5&#45;&gt;Node2 -->
<g id="edge9" class="edge">
<title>Node5&#45;&gt;Node2</title>
<path fill="none" stroke="midnightblue" d="M497.52,-56.44C475.41,-47.46 440.46,-33.27 415.5,-23.14"/>
<polygon fill="midnightblue" stroke="midnightblue" points="416.72,-19.86 406.14,-19.34 414.09,-26.34 416.72,-19.86"/>
</g>
<!-- Node6 -->
<g id="node6" class="node">
<title>Node6</title>
<g id="a_node6"><a xlink:title=" ">
<polygon fill="none" stroke="#bfbfbf" points="562.6,-0.5 562.6,-19.5 608.6,-19.5 608.6,-0.5 562.6,-0.5"/>
<text text-anchor="middle" x="585.6" y="-7.5" font-family="Helvetica,sans-Serif" font-size="10.00">chrono</text>
</a>
</g>
</g>
<!-- Node5&#45;&gt;Node6 -->
<g id="edge5" class="edge">
<title>Node5&#45;&gt;Node6</title>
<path fill="none" stroke="midnightblue" d="M529.36,-56.32C539.37,-48.26 554.49,-36.08 566.53,-26.37"/>
<polygon fill="midnightblue" stroke="midnightblue" points="569.05,-28.83 574.64,-19.83 564.66,-23.38 569.05,-28.83"/>
</g>
<!-- Node7 -->
<g id="node7" class="node">
<title>Node7</title>
<g id="a_node7"><a xlink:title=" ">
<polygon fill="none" stroke="#bfbfbf" points="626.6,-0.5 626.6,-19.5 670.6,-19.5 670.6,-0.5 626.6,-0.5"/>
<text text-anchor="middle" x="648.6" y="-7.5" font-family="Helvetica,sans-Serif" font-size="10.00">cmath</text>
</a>
</g>
</g>
<!-- Node5&#45;&gt;Node7 -->
<g id="edge6" class="edge">
<title>Node5&#45;&gt;Node7</title>
<path fill="none" stroke="midnightblue" d="M539.2,-56.44C560.59,-47.56 594.28,-33.56 618.62,-23.45"/>
<polygon fill="midnightblue" stroke="midnightblue" points="620.2,-26.58 628.1,-19.52 617.52,-20.12 620.2,-26.58"/>
</g>
<!-- Node8 -->
<g id="node8" class="node">
<title>Node8</title>
<g id="a_node8"><a xlink:title=" ">
<polygon fill="none" stroke="#bfbfbf" points="424.6,-0.5 424.6,-19.5 474.6,-19.5 474.6,-0.5 424.6,-0.5"/>
<text text-anchor="middle" x="449.6" y="-7.5" font-family="Helvetica,sans-Serif" font-size="10.00">optional</text>
</a>
</g>
</g>
<!-- Node5&#45;&gt;Node8 -->
<g id="edge7" class="edge">
<title>Node5&#45;&gt;Node8</title>
<path fill="none" stroke="midnightblue" d="M507.51,-56.32C497.11,-48.18 481.34,-35.84 468.88,-26.09"/>
<polygon fill="midnightblue" stroke="midnightblue" points="470.92,-23.24 460.89,-19.83 466.6,-28.75 470.92,-23.24"/>
</g>
<!-- Node9 -->
<g id="node9" class="node">
<title>Node9</title>
<g id="a_node9"><a xlink:title=" ">
<polygon fill="none" stroke="#bfbfbf" points="492.6,-0.5 492.6,-19.5 544.6,-19.5 544.6,-0.5 492.6,-0.5"/>
<text text-anchor="middle" x="518.6" y="-7.5" font-family="Helvetica,sans-Serif" font-size="10.00">sstream</text>
</a>
</g>
</g>
<!-- Node5&#45;&gt;Node9 -->
<g id="edge8" class="edge">
<title>Node5&#45;&gt;Node9</title>
<path fill="none" stroke="midnightblue" d="M518.6,-56.08C518.6,-49.01 518.6,-38.86 518.6,-29.99"/>
<polygon fill="midnightblue" stroke="midnightblue" points="522.1,-29.75 518.6,-19.75 515.1,-29.75 522.1,-29.75"/>
</g>
<!-- Node10&#45;&gt;Node5 -->
<g id="edge15" class="edge">
<title>Node10&#45;&gt;Node5</title>
<path fill="none" stroke="midnightblue" d="M274.55,-112.44C326.91,-102.69 412.29,-86.8 466.93,-76.62"/>
<polygon fill="midnightblue" stroke="midnightblue" points="467.9,-80 477.09,-74.73 466.62,-73.12 467.9,-80"/>
</g>
<!-- Node11 -->
<g id="node11" class="node">
<title>Node11</title>
<g id="a_node11"><a xlink:title=" ">
<polygon fill="none" stroke="#bfbfbf" points="190.6,-56.5 190.6,-75.5 252.6,-75.5 252.6,-56.5 190.6,-56.5"/>
<text text-anchor="middle" x="221.6" y="-63.5" font-family="Helvetica,sans-Serif" font-size="10.00">filesystem</text>
</a>
</g>
</g>
<!-- Node10&#45;&gt;Node11 -->
<g id="edge11" class="edge">
<title>Node10&#45;&gt;Node11</title>
<path fill="none" stroke="midnightblue" d="M227.44,-112.08C226.52,-104.93 225.18,-94.64 224.02,-85.69"/>
<polygon fill="midnightblue" stroke="midnightblue" points="227.49,-85.22 222.73,-75.75 220.55,-86.12 227.49,-85.22"/>
</g>
<!-- Node12 -->
<g id="node12" class="node">
<title>Node12</title>
<g id="a_node12"><a xlink:title=" ">
<polygon fill="none" stroke="#bfbfbf" points="271.1,-56.5 271.1,-75.5 330.1,-75.5 330.1,-56.5 271.1,-56.5"/>
<text text-anchor="middle" x="300.6" y="-63.5" font-family="Helvetica,sans-Serif" font-size="10.00">functional</text>
</a>
</g>
</g>
<!-- Node10&#45;&gt;Node12 -->
<g id="edge12" class="edge">
<title>Node10&#45;&gt;Node12</title>
<path fill="none" stroke="midnightblue" d="M240.17,-112.32C251.02,-104.18 267.48,-91.84 280.48,-82.09"/>
<polygon fill="midnightblue" stroke="midnightblue" points="282.92,-84.63 288.82,-75.83 278.72,-79.03 282.92,-84.63"/>
</g>
<!-- Node13 -->
<g id="node13" class="node">
<title>Node13</title>
<g id="a_node13"><a xlink:title=" ">
<polygon fill="none" stroke="#bfbfbf" points="348.6,-56.5 348.6,-75.5 388.6,-75.5 388.6,-56.5 348.6,-56.5"/>
<text text-anchor="middle" x="368.6" y="-63.5" font-family="Helvetica,sans-Serif" font-size="10.00">utility</text>
</a>
</g>
</g>
<!-- Node10&#45;&gt;Node13 -->
<g id="edge13" class="edge">
<title>Node10&#45;&gt;Node13</title>
<path fill="none" stroke="midnightblue" d="M250.78,-112.44C274.57,-103.27 312.48,-88.64 338.85,-78.47"/>
<polygon fill="midnightblue" stroke="midnightblue" points="340.27,-81.68 348.34,-74.82 337.75,-75.15 340.27,-81.68"/>
</g>
<!-- Node14 -->
<g id="node14" class="node">
<title>Node14</title>
<g id="a_node14"><a xlink:title=" ">
<polygon fill="none" stroke="#bfbfbf" points="28.6,-56.5 28.6,-75.5 74.6,-75.5 74.6,-56.5 28.6,-56.5"/>
<text text-anchor="middle" x="51.6" y="-63.5" font-family="Helvetica,sans-Serif" font-size="10.00">variant</text>
</a>
</g>
</g>
<!-- Node10&#45;&gt;Node14 -->
<g id="edge14" class="edge">
<title>Node10&#45;&gt;Node14</title>
<path fill="none" stroke="midnightblue" d="M200.55,-112.44C169.02,-102.82 117.86,-87.21 84.47,-77.03"/>
<polygon fill="midnightblue" stroke="midnightblue" points="85.31,-73.62 74.72,-74.05 83.26,-80.32 85.31,-73.62"/>
</g>
<!-- Node15 -->
<g id="node15" class="node">
<title>Node15</title>
<g id="a_node15"><a xlink:href="lang_8hpp.html" target="_top" xlink:title=" ">
<polygon fill="none" stroke="black" points="92.6,-56.5 92.6,-75.5 172.6,-75.5 172.6,-56.5 92.6,-56.5"/>
<text text-anchor="middle" x="132.6" y="-63.5" font-family="Helvetica,sans-Serif" font-size="10.00">plang/lang.hpp</text>
</a>
</g>
</g>
<!-- Node10&#45;&gt;Node15 -->
<g id="edge16" class="edge">
<title>Node10&#45;&gt;Node15</title>
<path fill="none" stroke="midnightblue" d="M213.17,-112.32C198.06,-103.82 174.78,-90.73 157.13,-80.8"/>
<polygon fill="midnightblue" stroke="midnightblue" points="158.42,-77.51 147.98,-75.65 154.98,-83.61 158.42,-77.51"/>
</g>
<!-- Node16&#45;&gt;Node2 -->
<g id="edge18" class="edge">
<title>Node16&#45;&gt;Node2</title>
<path fill="none" stroke="midnightblue" d="M390.08,-168.47C392.56,-159.48 396.18,-144.89 397.6,-132 401.28,-98.42 401.99,-89.49 397.6,-56 396.44,-47.18 394.07,-37.63 391.73,-29.61"/>
<polygon fill="midnightblue" stroke="midnightblue" points="395,-28.34 388.69,-19.83 388.31,-30.42 395,-28.34"/>
</g>
<!-- Node16&#45;&gt;Node3 -->
<g id="edge19" class="edge">
<title>Node16&#45;&gt;Node3</title>
<path fill="none" stroke="midnightblue" d="M406.14,-168.44C425.22,-159.64 455.17,-145.81 477.03,-135.72"/>
<polygon fill="midnightblue" stroke="midnightblue" points="478.53,-138.88 486.15,-131.52 475.6,-132.53 478.53,-138.88"/>
</g>
<!-- Node16&#45;&gt;Node4 -->
<g id="edge20" class="edge">
<title>Node16&#45;&gt;Node4</title>
<path fill="none" stroke="midnightblue" d="M380.83,-168.08C375.04,-160.46 366.54,-149.26 359.46,-139.94"/>
<polygon fill="midnightblue" stroke="midnightblue" points="362.08,-137.6 353.24,-131.75 356.5,-141.83 362.08,-137.6"/>
</g>
<!-- Node16&#45;&gt;Node5 -->
<g id="edge21" class="edge">
<title>Node16&#45;&gt;Node5</title>
<path fill="none" stroke="midnightblue" d="M397.88,-168.37C420.07,-149.73 472.71,-105.53 500.58,-82.13"/>
<polygon fill="midnightblue" stroke="midnightblue" points="502.96,-84.7 508.37,-75.59 498.46,-79.34 502.96,-84.7"/>
</g>
<!-- Node16&#45;&gt;Node10 -->
<g id="edge22" class="edge">
<title>Node16&#45;&gt;Node10</title>
<path fill="none" stroke="midnightblue" d="M362.41,-168.44C335.66,-159.36 293.2,-144.94 263.29,-134.78"/>
<polygon fill="midnightblue" stroke="midnightblue" points="264.27,-131.42 253.68,-131.52 262.02,-138.05 264.27,-131.42"/>
</g>
<!-- Node17&#45;&gt;Node3 -->
<g id="edge24" class="edge">
<title>Node17&#45;&gt;Node3</title>
<path fill="none" stroke="midnightblue" d="M533.82,-168.08C528.93,-160.53 521.77,-149.49 515.77,-140.23"/>
<polygon fill="midnightblue" stroke="midnightblue" points="518.65,-138.24 510.27,-131.75 512.77,-142.05 518.65,-138.24"/>
</g>
<!-- Node17&#45;&gt;Node5 -->
<g id="edge25" class="edge">
<title>Node17&#45;&gt;Node5</title>
<path fill="none" stroke="midnightblue" d="M539.88,-168.48C540.11,-155.95 539.87,-131.9 535.6,-112 533.63,-102.81 530.11,-93.01 526.78,-84.91"/>
<polygon fill="midnightblue" stroke="midnightblue" points="529.99,-83.51 522.8,-75.73 523.56,-86.29 529.99,-83.51"/>
</g>
</g>
</svg>
