<?xml version="1.0" encoding="UTF-8" standalone="no"?>
<!DOCTYPE svg PUBLIC "-//W3C//DTD SVG 1.1//EN"
 "http://www.w3.org/Graphics/SVG/1.1/DTD/svg11.dtd">
<!-- Generated by graphviz version 2.44.1 (20220725.2034)
 -->
<!-- Title: include/plang/corpus/plot/symbol.hpp Pages: 1 -->
<svg width="623pt" height="263pt"
 viewBox="0.00 0.00 622.59 263.00" xmlns="http://www.w3.org/2000/svg" xmlns:xlink="http://www.w3.org/1999/xlink">
<g id="graph0" class="graph" transform="scale(1 1) rotate(0) translate(4 259)">
<title>include/plang/corpus/plot/symbol.hpp</title>
<!-- Node1 -->
<g id="node1" class="node">
<title>Node1</title>
<g id="a_node1"><a xlink:title=" ">
<polygon fill="#bfbfbf" stroke="black" points="331.09,-224.5 331.09,-254.5 437.09,-254.5 437.09,-224.5 331.09,-224.5"/>
<text text-anchor="start" x="339.09" y="-242.5" font-family="Helvetica,sans-Serif" font-size="10.00">include/plang/corpus</text>
<text text-anchor="middle" x="384.09" y="-231.5" font-family="Helvetica,sans-Serif" font-size="10.00">/plot/symbol.hpp</text>
</a>
</g>
</g>
<!-- Node2 -->
<g id="node2" class="node">
<title>Node2</title>
<g id="a_node2"><a xlink:title=" ">
<polygon fill="none" stroke="#bfbfbf" points="261.59,-0.5 261.59,-19.5 302.59,-19.5 302.59,-0.5 261.59,-0.5"/>
<text text-anchor="middle" x="282.09" y="-7.5" font-family="Helvetica,sans-Serif" font-size="10.00">string</text>
</a>
</g>
</g>
<!-- Node1&#45;&gt;Node2 -->
<g id="edge1" class="edge">
<title>Node1&#45;&gt;Node2</title>
<path fill="none" stroke="midnightblue" d="M331.05,-233.84C244.91,-223.07 76.91,-188.05 4.09,-76 -0.75,-68.55 -1.67,-62.77 4.09,-56 35.54,-19.06 185.29,-12.35 251.03,-11.2"/>
<polygon fill="midnightblue" stroke="midnightblue" points="251.24,-14.7 261.19,-11.05 251.14,-7.7 251.24,-14.7"/>
</g>
<!-- Node3 -->
<g id="node3" class="node">
<title>Node3</title>
<g id="a_node3"><a xlink:title=" ">
<polygon fill="none" stroke="#bfbfbf" points="505.09,-112.5 505.09,-131.5 549.09,-131.5 549.09,-112.5 505.09,-112.5"/>
<text text-anchor="middle" x="527.09" y="-119.5" font-family="Helvetica,sans-Serif" font-size="10.00">vector</text>
</a>
</g>
</g>
<!-- Node1&#45;&gt;Node3 -->
<g id="edge2" class="edge">
<title>Node1&#45;&gt;Node3</title>
<path fill="none" stroke="midnightblue" d="M410.76,-224.47C427.41,-215.14 448.87,-202.06 466.09,-188 484.16,-173.25 502.1,-153.34 513.79,-139.45"/>
<polygon fill="midnightblue" stroke="midnightblue" points="516.54,-141.63 520.22,-131.69 511.15,-137.16 516.54,-141.63"/>
</g>
<!-- Node4 -->
<g id="node4" class="node">
<title>Node4</title>
<g id="a_node4"><a xlink:title=" ">
<polygon fill="none" stroke="#bfbfbf" points="403.59,-112.5 403.59,-131.5 486.59,-131.5 486.59,-112.5 403.59,-112.5"/>
<text text-anchor="middle" x="445.09" y="-119.5" font-family="Helvetica,sans-Serif" font-size="10.00">unordered_map</text>
</a>
</g>
</g>
<!-- Node1&#45;&gt;Node4 -->
<g id="edge3" class="edge">
<title>Node1&#45;&gt;Node4</title>
<path fill="none" stroke="midnightblue" d="M412.58,-224.35C426.31,-215.86 441.43,-203.66 449.09,-188 456.16,-173.56 454.14,-155.11 450.95,-141.56"/>
<polygon fill="midnightblue" stroke="midnightblue" points="454.21,-140.22 448.17,-131.52 447.47,-142.09 454.21,-140.22"/>
</g>
<!-- Node5 -->
<g id="node5" class="node">
<title>Node5</title>
<g id="a_node5"><a xlink:href="base_8hpp.html" target="_top" xlink:title=" ">
<polygon fill="none" stroke="black" points="365.59,-56.5 365.59,-75.5 448.59,-75.5 448.59,-56.5 365.59,-56.5"/>
<text text-anchor="middle" x="407.09" y="-63.5" font-family="Helvetica,sans-Serif" font-size="10.00">plang/base.hpp</text>
</a>
</g>
</g>
<!-- Node1&#45;&gt;Node5 -->
<g id="edge4" class="edge">
<title>Node1&#45;&gt;Node5</title>
<path fill="none" stroke="midnightblue" d="M354.94,-224.35C333.39,-211.69 309.2,-191.53 318.09,-168 331.87,-131.52 365.5,-99.69 387.24,-81.94"/>
<polygon fill="midnightblue" stroke="midnightblue" points="389.53,-84.59 395.2,-75.64 385.19,-79.1 389.53,-84.59"/>
</g>
<!-- Node10 -->
<g id="node10" class="node">
<title>Node10</title>
<g id="a_node10"><a xlink:href="detail_8hpp.html" target="_top" xlink:title=" ">
<polygon fill="none" stroke="black" points="153.59,-112.5 153.59,-131.5 270.59,-131.5 270.59,-112.5 153.59,-112.5"/>
<text text-anchor="middle" x="212.09" y="-119.5" font-family="Helvetica,sans-Serif" font-size="10.00">plang/corpus/detail.hpp</text>
</a>
</g>
</g>
<!-- Node1&#45;&gt;Node10 -->
<g id="edge10" class="edge">
<title>Node1&#45;&gt;Node10</title>
<path fill="none" stroke="midnightblue" d="M351.26,-224.34C331.39,-215.15 305.96,-202.26 285.09,-188 263.78,-173.43 242.01,-153.22 227.86,-139.22"/>
<polygon fill="midnightblue" stroke="midnightblue" points="230,-136.41 220.47,-131.78 225.04,-141.34 230,-136.41"/>
</g>
<!-- Node16 -->
<g id="node16" class="node">
<title>Node16</title>
<g id="a_node16"><a xlink:href="path_8hpp.html" target="_top" xlink:title=" ">
<polygon fill="none" stroke="black" points="327.59,-168.5 327.59,-187.5 440.59,-187.5 440.59,-168.5 327.59,-168.5"/>
<text text-anchor="middle" x="384.09" y="-175.5" font-family="Helvetica,sans-Serif" font-size="10.00">plang/corpus/path.hpp</text>
</a>
</g>
</g>
<!-- Node1&#45;&gt;Node16 -->
<g id="edge17" class="edge">
<title>Node1&#45;&gt;Node16</title>
<path fill="none" stroke="midnightblue" d="M384.09,-224.4C384.09,-216.47 384.09,-206.46 384.09,-197.86"/>
<polygon fill="midnightblue" stroke="midnightblue" points="387.59,-197.66 384.09,-187.66 380.59,-197.66 387.59,-197.66"/>
</g>
<!-- Node17 -->
<g id="node17" class="node">
<title>Node17</title>
<g id="a_node17"><a xlink:href="plot_8hpp.html" target="_top" xlink:title=" ">
<polygon fill="none" stroke="black" points="537.59,-168.5 537.59,-187.5 614.59,-187.5 614.59,-168.5 537.59,-168.5"/>
<text text-anchor="middle" x="576.09" y="-175.5" font-family="Helvetica,sans-Serif" font-size="10.00">plang/plot.hpp</text>
</a>
</g>
</g>
<!-- Node1&#45;&gt;Node17 -->
<g id="edge23" class="edge">
<title>Node1&#45;&gt;Node17</title>
<path fill="none" stroke="midnightblue" d="M429.59,-224.4C462.91,-214.07 507.58,-200.23 538.8,-190.56"/>
<polygon fill="midnightblue" stroke="midnightblue" points="539.92,-193.87 548.43,-187.57 537.85,-187.19 539.92,-193.87"/>
</g>
<!-- Node5&#45;&gt;Node2 -->
<g id="edge9" class="edge">
<title>Node5&#45;&gt;Node2</title>
<path fill="none" stroke="midnightblue" d="M387.28,-56.44C366.8,-47.6 334.61,-33.69 311.23,-23.59"/>
<polygon fill="midnightblue" stroke="midnightblue" points="312.37,-20.27 301.81,-19.52 309.6,-26.7 312.37,-20.27"/>
</g>
<!-- Node6 -->
<g id="node6" class="node">
<title>Node6</title>
<g id="a_node6"><a xlink:title=" ">
<polygon fill="none" stroke="#bfbfbf" points="321.09,-0.5 321.09,-19.5 367.09,-19.5 367.09,-0.5 321.09,-0.5"/>
<text text-anchor="middle" x="344.09" y="-7.5" font-family="Helvetica,sans-Serif" font-size="10.00">chrono</text>
</a>
</g>
</g>
<!-- Node5&#45;&gt;Node6 -->
<g id="edge5" class="edge">
<title>Node5&#45;&gt;Node6</title>
<path fill="none" stroke="midnightblue" d="M396.97,-56.32C387.57,-48.26 373.35,-36.08 362.02,-26.37"/>
<polygon fill="midnightblue" stroke="midnightblue" points="364.27,-23.68 354.4,-19.83 359.71,-29 364.27,-23.68"/>
</g>
<!-- Node7 -->
<g id="node7" class="node">
<title>Node7</title>
<g id="a_node7"><a xlink:title=" ">
<polygon fill="none" stroke="#bfbfbf" points="385.09,-0.5 385.09,-19.5 429.09,-19.5 429.09,-0.5 385.09,-0.5"/>
<text text-anchor="middle" x="407.09" y="-7.5" font-family="Helvetica,sans-Serif" font-size="10.00">cmath</text>
</a>
</g>
</g>
<!-- Node5&#45;&gt;Node7 -->
<g id="edge6" class="edge">
<title>Node5&#45;&gt;Node7</title>
<path fill="none" stroke="midnightblue" d="M407.09,-56.08C407.09,-49.01 407.09,-38.86 407.09,-29.99"/>
<polygon fill="midnightblue" stroke="midnightblue" points="410.59,-29.75 407.09,-19.75 403.59,-29.75 410.59,-29.75"/>
</g>
<!-- Node8 -->
<g id="node8" class="node">
<title>Node8</title>
<g id="a_node8"><a xlink:title=" ">
<polygon fill="none" stroke="#bfbfbf" points="447.09,-0.5 447.09,-19.5 497.09,-19.5 497.09,-0.5 447.09,-0.5"/>
<text text-anchor="middle" x="472.09" y="-7.5" font-family="Helvetica,sans-Serif" font-size="10.00">optional</text>
</a>
</g>
</g>
<!-- Node5&#45;&gt;Node8 -->
<g id="edge7" class="edge">
<title>Node5&#45;&gt;Node8</title>
<path fill="none" stroke="midnightblue" d="M417.53,-56.32C427.24,-48.26 441.91,-36.08 453.59,-26.37"/>
<polygon fill="midnightblue" stroke="midnightblue" points="456,-28.92 461.46,-19.83 451.53,-23.53 456,-28.92"/>
</g>
<!-- Node9 -->
<g id="node9" class="node">
<title>Node9</title>
<g id="a_node9"><a xlink:title=" ">
<polygon fill="none" stroke="#bfbfbf" points="515.09,-0.5 515.09,-19.5 567.09,-19.5 567.09,-0.5 515.09,-0.5"/>
<text text-anchor="middle" x="541.09" y="-7.5" font-family="Helvetica,sans-Serif" font-size="10.00">sstream</text>
</a>
</g>
</g>
<!-- Node5&#45;&gt;Node9 -->
<g id="edge8" class="edge">
<title>Node5&#45;&gt;Node9</title>
<path fill="none" stroke="midnightblue" d="M428.32,-56.44C450.48,-47.52 485.41,-33.44 510.53,-23.32"/>
<polygon fill="midnightblue" stroke="midnightblue" points="511.99,-26.5 519.96,-19.52 509.37,-20.01 511.99,-26.5"/>
</g>
<!-- Node10&#45;&gt;Node5 -->
<g id="edge15" class="edge">
<title>Node10&#45;&gt;Node5</title>
<path fill="none" stroke="midnightblue" d="M242.99,-112.44C276.37,-103.2 329.69,-88.44 366.44,-78.26"/>
<polygon fill="midnightblue" stroke="midnightblue" points="367.63,-81.56 376.34,-75.52 365.77,-74.81 367.63,-81.56"/>
</g>
<!-- Node11 -->
<g id="node11" class="node">
<title>Node11</title>
<g id="a_node11"><a xlink:title=" ">
<polygon fill="none" stroke="#bfbfbf" points="169.09,-56.5 169.09,-75.5 231.09,-75.5 231.09,-56.5 169.09,-56.5"/>
<text text-anchor="middle" x="200.09" y="-63.5" font-family="Helvetica,sans-Serif" font-size="10.00">filesystem</text>
</a>
</g>
</g>
<!-- Node10&#45;&gt;Node11 -->
<g id="edge11" class="edge">
<title>Node10&#45;&gt;Node11</title>
<path fill="none" stroke="midnightblue" d="M210.11,-112.08C208.52,-104.93 206.23,-94.64 204.25,-85.69"/>
<polygon fill="midnightblue" stroke="midnightblue" points="207.62,-84.75 202.04,-75.75 200.79,-86.27 207.62,-84.75"/>
</g>
<!-- Node12 -->
<g id="node12" class="node">
<title>Node12</title>
<g id="a_node12"><a xlink:title=" ">
<polygon fill="none" stroke="#bfbfbf" points="249.59,-56.5 249.59,-75.5 308.59,-75.5 308.59,-56.5 249.59,-56.5"/>
<text text-anchor="middle" x="279.09" y="-63.5" font-family="Helvetica,sans-Serif" font-size="10.00">functional</text>
</a>
</g>
</g>
<!-- Node10&#45;&gt;Node12 -->
<g id="edge12" class="edge">
<title>Node10&#45;&gt;Node12</title>
<path fill="none" stroke="midnightblue" d="M222.86,-112.32C232.86,-104.26 247.98,-92.08 260.02,-82.37"/>
<polygon fill="midnightblue" stroke="midnightblue" points="262.54,-84.83 268.13,-75.83 258.15,-79.38 262.54,-84.83"/>
</g>
<!-- Node13 -->
<g id="node13" class="node">
<title>Node13</title>
<g id="a_node13"><a xlink:title=" ">
<polygon fill="none" stroke="#bfbfbf" points="13.09,-56.5 13.09,-75.5 53.09,-75.5 53.09,-56.5 13.09,-56.5"/>
<text text-anchor="middle" x="33.09" y="-63.5" font-family="Helvetica,sans-Serif" font-size="10.00">utility</text>
</a>
</g>
</g>
<!-- Node10&#45;&gt;Node13 -->
<g id="edge13" class="edge">
<title>Node10&#45;&gt;Node13</title>
<path fill="none" stroke="midnightblue" d="M183.31,-112.45C155.04,-104.04 110.44,-90.72 63.17,-76.31"/>
<polygon fill="midnightblue" stroke="midnightblue" points="63.95,-72.89 53.37,-73.32 61.91,-79.58 63.95,-72.89"/>
</g>
<!-- Node14 -->
<g id="node14" class="node">
<title>Node14</title>
<g id="a_node14"><a xlink:title=" ">
<polygon fill="none" stroke="#bfbfbf" points="530.09,-56.5 530.09,-75.5 576.09,-75.5 576.09,-56.5 530.09,-56.5"/>
<text text-anchor="middle" x="553.09" y="-63.5" font-family="Helvetica,sans-Serif" font-size="10.00">variant</text>
</a>
</g>
</g>
<!-- Node10&#45;&gt;Node14 -->
<g id="edge14" class="edge">
<title>Node10&#45;&gt;Node14</title>
<path fill="none" stroke="midnightblue" d="M266.12,-112.44C337.52,-101.14 461.11,-81.57 520.02,-72.24"/>
<polygon fill="midnightblue" stroke="midnightblue" points="520.57,-75.69 529.9,-70.67 519.48,-68.78 520.57,-75.69"/>
</g>
<!-- Node15 -->
<g id="node15" class="node">
<title>Node15</title>
<g id="a_node15"><a xlink:href="lang_8hpp.html" target="_top" xlink:title=" ">
<polygon fill="none" stroke="black" points="71.09,-56.5 71.09,-75.5 151.09,-75.5 151.09,-56.5 71.09,-56.5"/>
<text text-anchor="middle" x="111.09" y="-63.5" font-family="Helvetica,sans-Serif" font-size="10.00">plang/lang.hpp</text>
</a>
</g>
</g>
<!-- Node10&#45;&gt;Node15 -->
<g id="edge16" class="edge">
<title>Node10&#45;&gt;Node15</title>
<path fill="none" stroke="midnightblue" d="M195.86,-112.32C179.74,-103.7 154.79,-90.36 136.13,-80.39"/>
<polygon fill="midnightblue" stroke="midnightblue" points="137.75,-77.28 127.28,-75.65 134.45,-83.46 137.75,-77.28"/>
</g>
<!-- Node16&#45;&gt;Node2 -->
<g id="edge18" class="edge">
<title>Node16&#45;&gt;Node2</title>
<path fill="none" stroke="midnightblue" d="M379.82,-168.22C369.82,-147.9 343.68,-96.28 317.09,-56 310.62,-46.19 302.62,-35.8 295.9,-27.48"/>
<polygon fill="midnightblue" stroke="midnightblue" points="298.54,-25.17 289.49,-19.66 293.13,-29.61 298.54,-25.17"/>
</g>
<!-- Node16&#45;&gt;Node3 -->
<g id="edge19" class="edge">
<title>Node16&#45;&gt;Node3</title>
<path fill="none" stroke="midnightblue" d="M406.75,-168.44C430.63,-159.42 468.44,-145.15 495.3,-135"/>
<polygon fill="midnightblue" stroke="midnightblue" points="496.89,-138.15 505.01,-131.34 494.42,-131.6 496.89,-138.15"/>
</g>
<!-- Node16&#45;&gt;Node4 -->
<g id="edge20" class="edge">
<title>Node16&#45;&gt;Node4</title>
<path fill="none" stroke="midnightblue" d="M393.89,-168.32C402.91,-160.34 416.5,-148.31 427.41,-138.65"/>
<polygon fill="midnightblue" stroke="midnightblue" points="429.94,-141.08 435.11,-131.83 425.3,-135.84 429.94,-141.08"/>
</g>
<!-- Node16&#45;&gt;Node5 -->
<g id="edge21" class="edge">
<title>Node16&#45;&gt;Node5</title>
<path fill="none" stroke="midnightblue" d="M385.09,-168.1C386.59,-155.52 389.72,-131.85 394.09,-112 396.06,-103.05 398.82,-93.27 401.28,-85.11"/>
<polygon fill="midnightblue" stroke="midnightblue" points="404.63,-86.13 404.27,-75.54 397.95,-84.05 404.63,-86.13"/>
</g>
<!-- Node16&#45;&gt;Node10 -->
<g id="edge22" class="edge">
<title>Node16&#45;&gt;Node10</title>
<path fill="none" stroke="midnightblue" d="M356.84,-168.44C327.65,-159.28 281.17,-144.69 248.78,-134.52"/>
<polygon fill="midnightblue" stroke="midnightblue" points="249.81,-131.17 239.22,-131.52 247.71,-137.85 249.81,-131.17"/>
</g>
<!-- Node17&#45;&gt;Node3 -->
<g id="edge25" class="edge">
<title>Node17&#45;&gt;Node3</title>
<path fill="none" stroke="midnightblue" d="M568,-168.08C560.94,-160.3 550.5,-148.8 541.94,-139.37"/>
<polygon fill="midnightblue" stroke="midnightblue" points="544.34,-136.8 535.03,-131.75 539.16,-141.51 544.34,-136.8"/>
</g>
<!-- Node17&#45;&gt;Node5 -->
<g id="edge26" class="edge">
<title>Node17&#45;&gt;Node5</title>
<path fill="none" stroke="midnightblue" d="M576.2,-168.12C575.88,-154.23 573.18,-127.38 558.09,-112 532.25,-85.65 491.72,-74.58 459.15,-70"/>
<polygon fill="midnightblue" stroke="midnightblue" points="459.24,-66.48 448.88,-68.72 458.38,-73.43 459.24,-66.48"/>
</g>
<!-- Node17&#45;&gt;Node14 -->
<g id="edge24" class="edge">
<title>Node17&#45;&gt;Node14</title>
<path fill="none" stroke="midnightblue" d="M581.17,-168.39C587.93,-155.76 598.25,-131.58 591.09,-112 587.03,-100.91 578.9,-90.67 571.2,-82.76"/>
<polygon fill="midnightblue" stroke="midnightblue" points="573.45,-80.07 563.81,-75.7 568.62,-85.14 573.45,-80.07"/>
</g>
</g>
</svg>
